G75*
G70*
%OFA0B0*%
%FSLAX24Y24*%
%IPPOS*%
%LPD*%
%AMOC8*
5,1,8,0,0,1.08239X$1,22.5*
%
%ADD10C,0.0515*%
%ADD11OC8,0.0630*%
%ADD12C,0.0630*%
%ADD13C,0.0705*%
%ADD14OC8,0.0520*%
%ADD15C,0.0520*%
%ADD16C,0.0600*%
%ADD17C,0.2100*%
%ADD18C,0.0520*%
%ADD19C,0.0500*%
%ADD20C,0.0700*%
%ADD21C,0.0160*%
D10*
X013163Y007930D02*
X013678Y007930D01*
X013678Y008930D02*
X013163Y008930D01*
X013163Y009930D02*
X013678Y009930D01*
X013678Y010930D02*
X013163Y010930D01*
X013163Y011930D02*
X013678Y011930D01*
X013678Y012930D02*
X013163Y012930D01*
X013163Y013930D02*
X013678Y013930D01*
X013678Y014930D02*
X013163Y014930D01*
X013163Y015930D02*
X013678Y015930D01*
X013678Y016930D02*
X013163Y016930D01*
X013163Y017930D02*
X013678Y017930D01*
X013678Y018930D02*
X013163Y018930D01*
X019163Y018930D02*
X019678Y018930D01*
X019678Y017930D02*
X019163Y017930D01*
X019163Y016930D02*
X019678Y016930D01*
X019678Y015930D02*
X019163Y015930D01*
X019163Y014930D02*
X019678Y014930D01*
X019678Y013930D02*
X019163Y013930D01*
X019163Y012930D02*
X019678Y012930D01*
X019678Y011930D02*
X019163Y011930D01*
X019163Y010930D02*
X019678Y010930D01*
X019678Y009930D02*
X019163Y009930D01*
X019163Y008930D02*
X019678Y008930D01*
X019678Y007930D02*
X019163Y007930D01*
D11*
X023121Y017430D03*
X005621Y017930D03*
X005621Y010930D03*
D12*
X004221Y010930D03*
X004221Y017930D03*
X021721Y017430D03*
D13*
X016842Y003283D02*
X016842Y002578D01*
X014874Y002578D02*
X014874Y003283D01*
X012905Y003283D02*
X012905Y002578D01*
X010937Y002578D02*
X010937Y003283D01*
X008968Y003283D02*
X008968Y002578D01*
X007000Y002578D02*
X007000Y003283D01*
D14*
X007421Y005930D03*
X007421Y007930D03*
X004421Y005930D03*
X005421Y014430D03*
X005921Y015180D03*
X004921Y015180D03*
X008921Y017680D03*
X005921Y020180D03*
X006921Y022430D03*
X007921Y022430D03*
X009421Y022430D03*
X010421Y022430D03*
X011921Y022430D03*
X012921Y022430D03*
X015421Y022930D03*
X017421Y020930D03*
X015421Y019930D03*
X020421Y020930D03*
X020921Y014680D03*
X022921Y014680D03*
X019171Y005930D03*
X019171Y003930D03*
X008921Y020680D03*
X005921Y023180D03*
D15*
X021671Y021190D02*
X021671Y020670D01*
X022671Y020670D02*
X022671Y021190D01*
D16*
X022971Y012930D02*
X022371Y012930D01*
X022371Y011930D02*
X022971Y011930D01*
X022971Y010930D02*
X022371Y010930D01*
X022371Y009930D02*
X022971Y009930D01*
X022971Y008930D02*
X022371Y008930D01*
X022371Y007930D02*
X022971Y007930D01*
X021921Y004230D02*
X021921Y003630D01*
X020921Y003630D02*
X020921Y004230D01*
X011171Y008630D02*
X011171Y009230D01*
X010171Y009230D02*
X010171Y008630D01*
X009171Y008630D02*
X009171Y009230D01*
X010871Y013930D02*
X011471Y013930D01*
X011471Y014930D02*
X010871Y014930D01*
X010871Y015930D02*
X011471Y015930D01*
X011471Y016930D02*
X010871Y016930D01*
X010871Y017930D02*
X011471Y017930D01*
X011471Y018930D02*
X010871Y018930D01*
X010871Y019930D02*
X011471Y019930D01*
D17*
X003921Y023180D03*
X024671Y023180D03*
X024671Y001930D03*
X003921Y001930D03*
D18*
X004421Y007930D03*
D19*
X005671Y007930D01*
X005671Y002430D01*
X006421Y001430D01*
X014171Y001430D01*
X014921Y001930D01*
X014921Y002930D01*
X014874Y002930D01*
X012921Y002946D02*
X012905Y002930D01*
X012921Y002946D02*
X012921Y004930D01*
X015671Y004930D01*
X016921Y005930D02*
X016921Y003009D01*
X016842Y002930D01*
X018171Y004930D02*
X020171Y004930D01*
X022671Y007930D01*
X022671Y008930D01*
X021171Y008930D02*
X021171Y009930D01*
X021171Y008930D02*
X019421Y008930D01*
X019421Y007930D02*
X019171Y007930D01*
X019171Y005930D01*
X018171Y004930D02*
X018171Y009930D01*
X018171Y011680D01*
X019421Y011930D02*
X022671Y011930D01*
X022671Y010930D02*
X019421Y010930D01*
X019421Y009930D02*
X018171Y009930D01*
X015671Y007930D02*
X015671Y015930D01*
X013421Y015930D01*
X013421Y014930D02*
X011171Y014930D01*
X011171Y015930D02*
X009921Y015930D01*
X009921Y012930D01*
X011171Y011930D01*
X013421Y011930D01*
X013421Y012930D02*
X014421Y012930D01*
X014671Y012680D01*
X014671Y009930D01*
X012671Y006930D02*
X016921Y006930D01*
X016921Y012930D01*
X019421Y012930D01*
X019421Y013930D02*
X016921Y013930D01*
X016921Y018430D01*
X015421Y019930D01*
X014421Y019430D02*
X014421Y020930D01*
X016171Y020930D01*
X016921Y019930D01*
X018421Y019930D01*
X019171Y020930D01*
X020421Y020930D01*
X021671Y020930D01*
X021671Y017430D01*
X021721Y017430D01*
X020671Y017930D02*
X020671Y016430D01*
X020921Y016180D01*
X022921Y016180D01*
X023121Y016380D01*
X023121Y017430D01*
X023171Y017480D01*
X023171Y020430D01*
X022671Y020930D01*
X024171Y020930D02*
X022171Y022930D01*
X017421Y022930D01*
X017421Y021930D01*
X013921Y021930D01*
X013171Y021180D01*
X010671Y021180D01*
X008171Y018680D01*
X006921Y018680D01*
X005921Y018930D01*
X005921Y020180D01*
X005921Y018930D02*
X004421Y018930D01*
X004221Y018730D01*
X004221Y018680D01*
X004421Y018980D01*
X004221Y018680D02*
X004221Y017930D01*
X004171Y017880D01*
X004171Y016430D01*
X005921Y016430D01*
X005921Y015180D01*
X005421Y014430D02*
X006421Y013430D01*
X006421Y011680D01*
X006371Y011680D01*
X005621Y010930D01*
X004221Y010930D02*
X004171Y011630D01*
X004171Y013430D01*
X004921Y013430D01*
X004171Y013430D02*
X004171Y014680D01*
X004671Y015180D01*
X004921Y015180D01*
X007421Y017180D02*
X007421Y010680D01*
X010171Y010680D01*
X010171Y008930D01*
X010171Y007930D01*
X011671Y005930D01*
X016921Y005930D01*
X019171Y003930D02*
X020921Y003930D01*
X021921Y003930D02*
X022171Y003930D01*
X024671Y006930D01*
X024671Y012930D01*
X022671Y012930D01*
X021171Y012930D02*
X021171Y013430D01*
X022421Y014680D01*
X022921Y014680D01*
X024171Y014680D01*
X024171Y020930D01*
X020671Y017930D02*
X019421Y017930D01*
X018171Y017930D01*
X018171Y015430D01*
X015671Y015930D02*
X015671Y018180D01*
X014421Y019430D01*
X013421Y018930D02*
X011171Y018930D01*
X011171Y019930D02*
X010671Y019930D01*
X009921Y019180D01*
X009921Y017680D01*
X008921Y017680D01*
X008921Y013430D01*
X011171Y013930D02*
X013421Y013930D01*
X013421Y016930D02*
X011171Y016930D01*
X011171Y017930D02*
X013421Y017930D01*
X017421Y020930D02*
X017421Y021930D01*
X015421Y022930D02*
X012921Y022930D01*
X012921Y022430D01*
X011921Y022430D02*
X011921Y023680D01*
X007921Y023680D01*
X006921Y023180D02*
X005921Y023180D01*
X006921Y023180D02*
X006921Y022430D01*
X008921Y020680D02*
X010421Y022180D01*
X010421Y022430D01*
X009421Y022430D02*
X007421Y020430D01*
X007421Y019930D01*
X004171Y011630D02*
X004171Y008180D01*
X004371Y007980D01*
X004471Y007980D01*
X004421Y007930D01*
X007421Y007930D02*
X007921Y007930D01*
X008421Y007430D01*
X008421Y003227D01*
X008968Y002930D01*
X007000Y002930D02*
X006921Y002930D01*
X006921Y005180D01*
X007421Y005930D01*
X011171Y008930D02*
X012671Y006930D01*
X019421Y017930D02*
X019421Y018930D01*
D20*
X018171Y015430D03*
X021171Y012930D03*
X018171Y011680D03*
X018171Y009930D03*
X015671Y007930D03*
X014671Y009930D03*
X015671Y004930D03*
X021171Y009930D03*
X008921Y013430D03*
X004921Y013430D03*
X007421Y017180D03*
X007421Y019930D03*
D21*
X002901Y022376D02*
X002901Y002734D01*
X003129Y002962D01*
X003423Y003132D01*
X003751Y003220D01*
X004091Y003220D01*
X004419Y003132D01*
X004713Y002962D01*
X004953Y002722D01*
X005123Y002428D01*
X005211Y002100D01*
X005211Y001760D01*
X005123Y001432D01*
X004953Y001138D01*
X004725Y000910D01*
X023867Y000910D01*
X023639Y001138D01*
X023469Y001432D01*
X023381Y001760D01*
X023381Y002100D01*
X023469Y002428D01*
X023639Y002722D01*
X023879Y002962D01*
X024173Y003132D01*
X024501Y003220D01*
X024841Y003220D01*
X025169Y003132D01*
X025463Y002962D01*
X025561Y002864D01*
X025561Y022246D01*
X025463Y022148D01*
X025169Y021978D01*
X024841Y021890D01*
X024501Y021890D01*
X024173Y021978D01*
X023879Y022148D01*
X023639Y022388D01*
X023469Y022682D01*
X023381Y023010D01*
X023381Y023350D01*
X023469Y023678D01*
X023639Y023972D01*
X023863Y024196D01*
X004729Y024196D01*
X004953Y023972D01*
X005123Y023678D01*
X005211Y023350D01*
X005211Y023010D01*
X005123Y022682D01*
X004953Y022388D01*
X004713Y022148D01*
X004419Y021978D01*
X004091Y021890D01*
X003751Y021890D01*
X003423Y021978D01*
X003129Y022148D01*
X002901Y022376D01*
X002901Y022303D02*
X002973Y022303D01*
X002901Y022145D02*
X003134Y022145D01*
X002901Y021986D02*
X003409Y021986D01*
X002901Y021828D02*
X008125Y021828D01*
X008103Y021990D02*
X007921Y021990D01*
X007921Y022430D01*
X008361Y022430D01*
X008361Y022612D01*
X008103Y022870D01*
X007921Y022870D01*
X007921Y022430D01*
X007921Y022430D01*
X008361Y022430D01*
X008361Y022248D01*
X008103Y021990D01*
X008284Y021986D02*
X007184Y021986D01*
X007128Y021930D02*
X007421Y022223D01*
X007421Y022637D01*
X007411Y022647D01*
X007411Y023277D01*
X007336Y023458D01*
X007198Y023595D01*
X007018Y023670D01*
X006138Y023670D01*
X006128Y023680D01*
X005714Y023680D01*
X005421Y023387D01*
X005421Y022973D01*
X005714Y022680D01*
X006128Y022680D01*
X006138Y022690D01*
X006431Y022690D01*
X006431Y022647D01*
X006421Y022637D01*
X006421Y022223D01*
X006714Y021930D01*
X007128Y021930D01*
X007342Y022145D02*
X007584Y022145D01*
X007481Y022248D02*
X007739Y021990D01*
X007921Y021990D01*
X007921Y022430D01*
X007921Y022430D01*
X007921Y022430D01*
X007921Y022870D01*
X007739Y022870D01*
X007481Y022612D01*
X007481Y022430D01*
X007921Y022430D01*
X007481Y022430D01*
X007481Y022248D01*
X007481Y022303D02*
X007421Y022303D01*
X007421Y022462D02*
X007481Y022462D01*
X007489Y022620D02*
X007421Y022620D01*
X007411Y022779D02*
X007647Y022779D01*
X007921Y022779D02*
X007921Y022779D01*
X007921Y022620D02*
X007921Y022620D01*
X007921Y022462D02*
X007921Y022462D01*
X007921Y022430D02*
X007921Y022430D01*
X007921Y022303D02*
X007921Y022303D01*
X007921Y022145D02*
X007921Y022145D01*
X008258Y022145D02*
X008442Y022145D01*
X008361Y022303D02*
X008601Y022303D01*
X008759Y022462D02*
X008361Y022462D01*
X008353Y022620D02*
X008918Y022620D01*
X008921Y022623D02*
X007143Y020845D01*
X007005Y020708D01*
X006931Y020527D01*
X006931Y020274D01*
X006921Y020264D01*
X006831Y020047D01*
X006831Y019813D01*
X006921Y019596D01*
X007087Y019430D01*
X007303Y019340D01*
X007538Y019340D01*
X007755Y019430D01*
X007921Y019596D01*
X008011Y019813D01*
X008011Y020047D01*
X007929Y020245D01*
X008421Y020737D01*
X008421Y020473D01*
X008714Y020180D01*
X008978Y020180D01*
X007968Y019170D01*
X006981Y019170D01*
X006411Y019313D01*
X006411Y019963D01*
X006421Y019973D01*
X006421Y020387D01*
X006128Y020680D01*
X005714Y020680D01*
X005421Y020387D01*
X005421Y019973D01*
X005431Y019963D01*
X005431Y019420D01*
X004644Y019420D01*
X004612Y019442D01*
X004420Y019480D01*
X004229Y019441D01*
X004067Y019333D01*
X003940Y019142D01*
X003805Y019008D01*
X003731Y018827D01*
X003731Y018728D01*
X003721Y018679D01*
X003731Y018631D01*
X003731Y018197D01*
X003666Y018040D01*
X003666Y017820D01*
X003681Y017783D01*
X003681Y016333D01*
X003755Y016152D01*
X003893Y016015D01*
X004073Y015940D01*
X005431Y015940D01*
X005431Y015397D01*
X005421Y015387D01*
X005421Y014973D01*
X005524Y014870D01*
X005421Y014870D01*
X005421Y014430D01*
X005861Y014430D01*
X005861Y014612D01*
X005793Y014680D01*
X006128Y014680D01*
X006421Y014973D01*
X006421Y015387D01*
X006411Y015397D01*
X006411Y016527D01*
X006336Y016708D01*
X006198Y016845D01*
X006018Y016920D01*
X004661Y016920D01*
X004661Y017585D01*
X004691Y017616D01*
X004776Y017820D01*
X004776Y018040D01*
X004711Y018197D01*
X004711Y018440D01*
X005861Y018440D01*
X006767Y018213D01*
X006823Y018190D01*
X006861Y018190D01*
X006897Y018181D01*
X006957Y018190D01*
X008268Y018190D01*
X008448Y018265D01*
X008586Y018402D01*
X008586Y018402D01*
X009431Y019247D01*
X009431Y018170D01*
X009138Y018170D01*
X009128Y018180D01*
X008714Y018180D01*
X008421Y017887D01*
X008421Y017473D01*
X008431Y017463D01*
X008431Y013774D01*
X008421Y013764D01*
X008331Y013547D01*
X008331Y013313D01*
X008421Y013096D01*
X008587Y012930D01*
X008803Y012840D01*
X009038Y012840D01*
X009255Y012930D01*
X009421Y013096D01*
X009431Y013120D01*
X009431Y013000D01*
X009423Y012973D01*
X009431Y012903D01*
X009431Y012833D01*
X009442Y012807D01*
X009445Y012779D01*
X009479Y012717D01*
X009505Y012652D01*
X009525Y012633D01*
X009539Y012608D01*
X009594Y012564D01*
X009643Y012515D01*
X009669Y012504D01*
X010844Y011564D01*
X010893Y011515D01*
X010919Y011504D01*
X010941Y011486D01*
X011008Y011467D01*
X011073Y011440D01*
X011101Y011440D01*
X011128Y011432D01*
X011198Y011440D01*
X013046Y011440D01*
X013064Y011433D01*
X013777Y011433D01*
X013960Y011508D01*
X014100Y011648D01*
X014176Y011831D01*
X014176Y012029D01*
X014100Y012212D01*
X013960Y012352D01*
X013777Y012427D01*
X013064Y012427D01*
X013046Y012420D01*
X011343Y012420D01*
X010411Y013166D01*
X010411Y013629D01*
X010413Y013624D01*
X010565Y013472D01*
X010763Y013390D01*
X011578Y013390D01*
X011699Y013440D01*
X013046Y013440D01*
X013064Y013433D01*
X013777Y013433D01*
X013960Y013508D01*
X014100Y013648D01*
X014176Y013831D01*
X014176Y014029D01*
X014100Y014212D01*
X013960Y014352D01*
X013777Y014427D01*
X013064Y014427D01*
X013046Y014420D01*
X011699Y014420D01*
X011675Y014430D01*
X011699Y014440D01*
X013046Y014440D01*
X013064Y014433D01*
X013777Y014433D01*
X013960Y014508D01*
X014100Y014648D01*
X014176Y014831D01*
X014176Y015029D01*
X014100Y015212D01*
X013960Y015352D01*
X013777Y015427D01*
X013064Y015427D01*
X013046Y015420D01*
X011699Y015420D01*
X011675Y015430D01*
X011777Y015472D01*
X011929Y015624D01*
X012011Y015823D01*
X012011Y016037D01*
X011929Y016236D01*
X011777Y016388D01*
X011675Y016430D01*
X011699Y016440D01*
X013046Y016440D01*
X013064Y016433D01*
X013777Y016433D01*
X013960Y016508D01*
X014100Y016648D01*
X014176Y016831D01*
X014176Y017029D01*
X014100Y017212D01*
X013960Y017352D01*
X013777Y017427D01*
X013064Y017427D01*
X013046Y017420D01*
X011699Y017420D01*
X011675Y017430D01*
X011699Y017440D01*
X013046Y017440D01*
X013064Y017433D01*
X013777Y017433D01*
X013960Y017508D01*
X014100Y017648D01*
X014176Y017831D01*
X014176Y018029D01*
X014100Y018212D01*
X013960Y018352D01*
X013777Y018427D01*
X013064Y018427D01*
X013046Y018420D01*
X011699Y018420D01*
X011592Y018465D01*
X011655Y018485D01*
X011722Y018519D01*
X011784Y018564D01*
X011837Y018617D01*
X011881Y018678D01*
X011916Y018746D01*
X011939Y018818D01*
X011951Y018892D01*
X011951Y018910D01*
X011191Y018910D01*
X011191Y018950D01*
X011951Y018950D01*
X011951Y018968D01*
X011939Y019042D01*
X011916Y019114D01*
X011881Y019182D01*
X011837Y019243D01*
X011784Y019296D01*
X011722Y019341D01*
X011655Y019375D01*
X011592Y019395D01*
X011777Y019472D01*
X011929Y019624D01*
X012011Y019823D01*
X012011Y020037D01*
X011929Y020236D01*
X011777Y020388D01*
X011578Y020470D01*
X010763Y020470D01*
X010643Y020420D01*
X010604Y020420D01*
X010874Y020690D01*
X013268Y020690D01*
X013448Y020765D01*
X013586Y020902D01*
X014124Y021440D01*
X016931Y021440D01*
X016931Y021147D01*
X016921Y021137D01*
X016921Y020747D01*
X016600Y021175D01*
X016586Y021208D01*
X016542Y021252D01*
X016504Y021302D01*
X016474Y021320D01*
X016448Y021345D01*
X016391Y021369D01*
X016337Y021401D01*
X016301Y021406D01*
X016268Y021420D01*
X016206Y021420D01*
X016144Y021429D01*
X016109Y021420D01*
X014323Y021420D01*
X014143Y021345D01*
X014005Y021208D01*
X013931Y021027D01*
X013931Y019333D01*
X013958Y019268D01*
X013908Y019304D01*
X013846Y019335D01*
X013781Y019357D01*
X013713Y019367D01*
X013421Y019367D01*
X013421Y018930D01*
X014116Y018930D01*
X014116Y018964D01*
X014105Y019032D01*
X014095Y019063D01*
X014143Y019015D01*
X015181Y017977D01*
X015181Y016420D01*
X013795Y016420D01*
X013777Y016427D01*
X013064Y016427D01*
X012882Y016352D01*
X012742Y016212D01*
X012666Y016029D01*
X012666Y015831D01*
X012742Y015648D01*
X012882Y015508D01*
X013064Y015433D01*
X013777Y015433D01*
X013795Y015440D01*
X015181Y015440D01*
X015181Y008274D01*
X015171Y008264D01*
X015081Y008047D01*
X015081Y007813D01*
X015171Y007596D01*
X015337Y007430D01*
X015360Y007420D01*
X012916Y007420D01*
X012754Y007636D01*
X012882Y007508D01*
X013064Y007433D01*
X013777Y007433D01*
X013960Y007508D01*
X014100Y007648D01*
X014176Y007831D01*
X014176Y008029D01*
X014100Y008212D01*
X013960Y008352D01*
X013777Y008427D01*
X013064Y008427D01*
X012882Y008352D01*
X012742Y008212D01*
X012666Y008029D01*
X012666Y007831D01*
X012738Y007657D01*
X011711Y009027D01*
X011711Y009337D01*
X011629Y009536D01*
X011477Y009688D01*
X011278Y009770D01*
X011063Y009770D01*
X010865Y009688D01*
X010713Y009536D01*
X010671Y009434D01*
X010661Y009458D01*
X010661Y010777D01*
X010586Y010958D01*
X010448Y011095D01*
X010268Y011170D01*
X007911Y011170D01*
X007911Y016836D01*
X007921Y016846D01*
X008011Y017063D01*
X008011Y017297D01*
X007921Y017514D01*
X007755Y017680D01*
X007538Y017770D01*
X007303Y017770D01*
X007087Y017680D01*
X006921Y017514D01*
X006831Y017297D01*
X006831Y017063D01*
X006921Y016846D01*
X006931Y016836D01*
X006931Y010583D01*
X007005Y010402D01*
X007143Y010265D01*
X007323Y010190D01*
X009681Y010190D01*
X009681Y009458D01*
X009636Y009351D01*
X009616Y009414D01*
X009581Y009482D01*
X009537Y009543D01*
X009484Y009596D01*
X009422Y009641D01*
X009355Y009675D01*
X009283Y009698D01*
X009209Y009710D01*
X009191Y009710D01*
X009191Y008950D01*
X009151Y008950D01*
X009151Y009710D01*
X009133Y009710D01*
X009058Y009698D01*
X008987Y009675D01*
X008919Y009641D01*
X008858Y009596D01*
X008805Y009543D01*
X008760Y009482D01*
X008726Y009414D01*
X008703Y009342D01*
X008691Y009268D01*
X008691Y008950D01*
X009151Y008950D01*
X009151Y008910D01*
X009191Y008910D01*
X009191Y008150D01*
X009209Y008150D01*
X009283Y008162D01*
X009355Y008185D01*
X009422Y008219D01*
X009484Y008264D01*
X009537Y008317D01*
X009581Y008378D01*
X009616Y008446D01*
X009636Y008509D01*
X009681Y008402D01*
X009681Y007965D01*
X009672Y007903D01*
X009681Y007868D01*
X009681Y007833D01*
X009705Y007775D01*
X009720Y007714D01*
X009742Y007685D01*
X009755Y007652D01*
X009800Y007608D01*
X011242Y005685D01*
X011255Y005652D01*
X011300Y005608D01*
X011337Y005558D01*
X011368Y005540D01*
X011393Y005515D01*
X011451Y005491D01*
X011505Y005459D01*
X011540Y005454D01*
X011573Y005440D01*
X011636Y005440D01*
X011698Y005431D01*
X011733Y005440D01*
X015360Y005440D01*
X015337Y005430D01*
X015326Y005420D01*
X012823Y005420D01*
X012643Y005345D01*
X012505Y005208D01*
X012431Y005027D01*
X012431Y003646D01*
X012403Y003618D01*
X012313Y003400D01*
X012313Y002460D01*
X012403Y002242D01*
X012569Y002075D01*
X012787Y001985D01*
X013023Y001985D01*
X013241Y002075D01*
X013407Y002242D01*
X013498Y002460D01*
X013498Y003400D01*
X013411Y003610D01*
X013411Y004440D01*
X015326Y004440D01*
X015337Y004430D01*
X015553Y004340D01*
X015788Y004340D01*
X016005Y004430D01*
X016171Y004596D01*
X016261Y004813D01*
X016261Y005047D01*
X016171Y005264D01*
X016005Y005430D01*
X015981Y005440D01*
X016431Y005440D01*
X016431Y003709D01*
X016340Y003618D01*
X016250Y003400D01*
X016250Y002460D01*
X016340Y002242D01*
X016506Y002075D01*
X016724Y001985D01*
X016960Y001985D01*
X017178Y002075D01*
X017344Y002242D01*
X017435Y002460D01*
X017435Y003400D01*
X017411Y003458D01*
X017411Y006027D01*
X017336Y006208D01*
X017198Y006345D01*
X017018Y006420D01*
X011916Y006420D01*
X010661Y008093D01*
X010661Y008402D01*
X010671Y008426D01*
X010713Y008324D01*
X010865Y008172D01*
X011063Y008090D01*
X011188Y008090D01*
X012242Y006685D01*
X012255Y006652D01*
X012300Y006608D01*
X012337Y006558D01*
X012368Y006540D01*
X012393Y006515D01*
X012451Y006491D01*
X012505Y006459D01*
X012540Y006454D01*
X012573Y006440D01*
X012636Y006440D01*
X012698Y006431D01*
X012733Y006440D01*
X017018Y006440D01*
X017198Y006515D01*
X017336Y006652D01*
X017411Y006833D01*
X017411Y012440D01*
X019046Y012440D01*
X019064Y012433D01*
X019777Y012433D01*
X019960Y012508D01*
X020100Y012648D01*
X020176Y012831D01*
X020176Y013029D01*
X020100Y013212D01*
X019960Y013352D01*
X019777Y013427D01*
X019064Y013427D01*
X019046Y013420D01*
X016823Y013420D01*
X016643Y013345D01*
X016505Y013208D01*
X016431Y013027D01*
X016431Y007420D01*
X015981Y007420D01*
X016005Y007430D01*
X016171Y007596D01*
X016261Y007813D01*
X016261Y008047D01*
X016171Y008264D01*
X016161Y008274D01*
X016161Y018277D01*
X016086Y018458D01*
X014911Y019633D01*
X014911Y020440D01*
X015926Y020440D01*
X016492Y019685D01*
X016505Y019652D01*
X016550Y019608D01*
X016587Y019558D01*
X016618Y019540D01*
X016643Y019515D01*
X016701Y019491D01*
X016755Y019459D01*
X016790Y019454D01*
X016823Y019440D01*
X016886Y019440D01*
X016948Y019431D01*
X016983Y019440D01*
X018359Y019440D01*
X018394Y019431D01*
X018456Y019440D01*
X018518Y019440D01*
X018551Y019454D01*
X018587Y019459D01*
X018641Y019491D01*
X018698Y019515D01*
X018724Y019540D01*
X018754Y019558D01*
X018792Y019608D01*
X018836Y019652D01*
X018850Y019685D01*
X019416Y020440D01*
X020204Y020440D01*
X020214Y020430D01*
X020628Y020430D01*
X020638Y020440D01*
X021181Y020440D01*
X021181Y017577D01*
X021166Y017540D01*
X021166Y017320D01*
X021250Y017116D01*
X021406Y016959D01*
X021610Y016875D01*
X021831Y016875D01*
X022035Y016959D01*
X022191Y017116D01*
X022276Y017320D01*
X022276Y017540D01*
X022191Y017744D01*
X022161Y017775D01*
X022161Y020546D01*
X022171Y020571D01*
X022171Y021289D01*
X022095Y021473D01*
X021954Y021614D01*
X021770Y021690D01*
X021571Y021690D01*
X021388Y021614D01*
X021247Y021473D01*
X021225Y021420D01*
X020638Y021420D01*
X020628Y021430D01*
X020214Y021430D01*
X020204Y021420D01*
X019233Y021420D01*
X019198Y021429D01*
X019136Y021420D01*
X019073Y021420D01*
X019040Y021406D01*
X019005Y021401D01*
X018951Y021369D01*
X018893Y021345D01*
X018868Y021320D01*
X018837Y021302D01*
X018800Y021252D01*
X018755Y021208D01*
X018742Y021175D01*
X018176Y020420D01*
X017166Y020420D01*
X016992Y020652D01*
X017214Y020430D01*
X017628Y020430D01*
X017921Y020723D01*
X017921Y021137D01*
X017911Y021147D01*
X017911Y022440D01*
X021968Y022440D01*
X022796Y021612D01*
X022774Y021619D01*
X022705Y021630D01*
X022671Y021630D01*
X022671Y020930D01*
X023111Y020930D01*
X023111Y021225D01*
X023100Y021293D01*
X023093Y021315D01*
X023681Y020727D01*
X023681Y015170D01*
X023138Y015170D01*
X023128Y015180D01*
X022714Y015180D01*
X022704Y015170D01*
X022323Y015170D01*
X022143Y015095D01*
X022005Y014958D01*
X022005Y014958D01*
X020893Y013845D01*
X020755Y013708D01*
X020681Y013527D01*
X020681Y013274D01*
X020671Y013264D01*
X020581Y013047D01*
X020581Y012813D01*
X020671Y012596D01*
X020837Y012430D01*
X020860Y012420D01*
X019795Y012420D01*
X019777Y012427D01*
X019064Y012427D01*
X018882Y012352D01*
X018742Y012212D01*
X018666Y012029D01*
X018666Y011831D01*
X018742Y011648D01*
X018882Y011508D01*
X019064Y011433D01*
X019777Y011433D01*
X019795Y011440D01*
X022143Y011440D01*
X022167Y011430D01*
X022143Y011420D01*
X019795Y011420D01*
X019777Y011427D01*
X019064Y011427D01*
X018882Y011352D01*
X018742Y011212D01*
X018666Y011029D01*
X018666Y010831D01*
X018742Y010648D01*
X018882Y010508D01*
X019064Y010433D01*
X019777Y010433D01*
X019795Y010440D01*
X020860Y010440D01*
X020837Y010430D01*
X020671Y010264D01*
X020581Y010047D01*
X020581Y009813D01*
X020671Y009596D01*
X020681Y009586D01*
X020681Y009420D01*
X019795Y009420D01*
X019777Y009427D01*
X019064Y009427D01*
X018882Y009352D01*
X018742Y009212D01*
X018666Y009029D01*
X018666Y008831D01*
X018742Y008648D01*
X018882Y008508D01*
X019064Y008433D01*
X019777Y008433D01*
X019795Y008440D01*
X021268Y008440D01*
X021448Y008515D01*
X021586Y008652D01*
X021661Y008833D01*
X021661Y009586D01*
X021671Y009596D01*
X021761Y009813D01*
X021761Y010047D01*
X021671Y010264D01*
X021505Y010430D01*
X021481Y010440D01*
X022143Y010440D01*
X022167Y010430D01*
X022065Y010388D01*
X021913Y010236D01*
X021831Y010037D01*
X021831Y009823D01*
X021913Y009624D01*
X022065Y009472D01*
X022250Y009395D01*
X022187Y009375D01*
X022119Y009341D01*
X022058Y009296D01*
X022005Y009243D01*
X021960Y009182D01*
X021926Y009114D01*
X021903Y009042D01*
X021891Y008968D01*
X021891Y008950D01*
X022651Y008950D01*
X022651Y008910D01*
X022691Y008910D01*
X022691Y008950D01*
X023451Y008950D01*
X023451Y008968D01*
X023439Y009042D01*
X023416Y009114D01*
X023381Y009182D01*
X023337Y009243D01*
X023284Y009296D01*
X023222Y009341D01*
X023155Y009375D01*
X023092Y009395D01*
X023277Y009472D01*
X023429Y009624D01*
X023511Y009823D01*
X023511Y010037D01*
X023429Y010236D01*
X023277Y010388D01*
X023175Y010430D01*
X023277Y010472D01*
X023429Y010624D01*
X023511Y010823D01*
X023511Y011037D01*
X023429Y011236D01*
X023277Y011388D01*
X023175Y011430D01*
X023277Y011472D01*
X023429Y011624D01*
X023511Y011823D01*
X023511Y012037D01*
X023429Y012236D01*
X023277Y012388D01*
X023175Y012430D01*
X023199Y012440D01*
X024181Y012440D01*
X024181Y007107D01*
X022180Y004707D01*
X022028Y004770D01*
X021813Y004770D01*
X021615Y004688D01*
X021463Y004536D01*
X021421Y004434D01*
X021379Y004536D01*
X021227Y004688D01*
X021028Y004770D01*
X020813Y004770D01*
X020615Y004688D01*
X020463Y004536D01*
X020415Y004420D01*
X019388Y004420D01*
X019378Y004430D01*
X018964Y004430D01*
X018671Y004137D01*
X018671Y003723D01*
X018964Y003430D01*
X019378Y003430D01*
X019388Y003440D01*
X020415Y003440D01*
X020463Y003324D01*
X020615Y003172D01*
X020813Y003090D01*
X021028Y003090D01*
X021227Y003172D01*
X021379Y003324D01*
X021421Y003426D01*
X021463Y003324D01*
X021615Y003172D01*
X021813Y003090D01*
X022028Y003090D01*
X022227Y003172D01*
X022379Y003324D01*
X022461Y003523D01*
X022461Y003527D01*
X022465Y003531D01*
X022485Y003541D01*
X022533Y003599D01*
X022586Y003652D01*
X022595Y003674D01*
X025033Y006599D01*
X025086Y006652D01*
X025095Y006674D01*
X025110Y006691D01*
X025132Y006763D01*
X025161Y006833D01*
X025161Y006855D01*
X025168Y006877D01*
X025161Y006952D01*
X025161Y013027D01*
X025086Y013208D01*
X024948Y013345D01*
X024768Y013420D01*
X023199Y013420D01*
X023078Y013470D01*
X022263Y013470D01*
X022065Y013388D01*
X021913Y013236D01*
X021831Y013037D01*
X021831Y012823D01*
X021913Y012624D01*
X022065Y012472D01*
X022167Y012430D01*
X022143Y012420D01*
X021481Y012420D01*
X021505Y012430D01*
X021671Y012596D01*
X021761Y012813D01*
X021761Y013047D01*
X021679Y013245D01*
X022624Y014190D01*
X022704Y014190D01*
X022714Y014180D01*
X023128Y014180D01*
X023138Y014190D01*
X024268Y014190D01*
X024448Y014265D01*
X024586Y014402D01*
X024661Y014583D01*
X024661Y021027D01*
X024586Y021208D01*
X022586Y023208D01*
X022448Y023345D01*
X022268Y023420D01*
X017323Y023420D01*
X017143Y023345D01*
X017005Y023208D01*
X016931Y023027D01*
X016931Y022420D01*
X013823Y022420D01*
X013643Y022345D01*
X012968Y021670D01*
X010604Y021670D01*
X010836Y021902D01*
X010911Y022083D01*
X010911Y022213D01*
X010921Y022223D01*
X010921Y022637D01*
X010628Y022930D01*
X010214Y022930D01*
X009921Y022637D01*
X009921Y022373D01*
X009921Y022373D01*
X009921Y022637D01*
X009628Y022930D01*
X009214Y022930D01*
X008921Y022637D01*
X008921Y022623D01*
X009062Y022779D02*
X008195Y022779D01*
X007411Y022937D02*
X012431Y022937D01*
X012431Y023027D02*
X012431Y022647D01*
X012421Y022637D01*
X012421Y022223D01*
X012714Y021930D01*
X013128Y021930D01*
X013421Y022223D01*
X013421Y022440D01*
X015204Y022440D01*
X015214Y022430D01*
X015628Y022430D01*
X015921Y022723D01*
X015921Y023137D01*
X015628Y023430D01*
X015214Y023430D01*
X015204Y023420D01*
X012823Y023420D01*
X012643Y023345D01*
X012505Y023208D01*
X012431Y023027D01*
X012459Y023096D02*
X007411Y023096D01*
X007411Y023254D02*
X012552Y023254D01*
X012805Y023413D02*
X007355Y023413D01*
X007223Y023571D02*
X023440Y023571D01*
X023398Y023413D02*
X022286Y023413D01*
X022540Y023254D02*
X023381Y023254D01*
X023381Y023096D02*
X022698Y023096D01*
X022857Y022937D02*
X023400Y022937D01*
X023443Y022779D02*
X023015Y022779D01*
X023174Y022620D02*
X023505Y022620D01*
X023596Y022462D02*
X023332Y022462D01*
X023491Y022303D02*
X023723Y022303D01*
X023649Y022145D02*
X023884Y022145D01*
X023808Y021986D02*
X024159Y021986D01*
X023966Y021828D02*
X025561Y021828D01*
X025561Y021986D02*
X025183Y021986D01*
X025457Y022145D02*
X025561Y022145D01*
X025561Y021669D02*
X024125Y021669D01*
X024283Y021511D02*
X025561Y021511D01*
X025561Y021352D02*
X024442Y021352D01*
X024592Y021194D02*
X025561Y021194D01*
X025561Y021035D02*
X024658Y021035D01*
X024661Y020877D02*
X025561Y020877D01*
X025561Y020718D02*
X024661Y020718D01*
X024661Y020560D02*
X025561Y020560D01*
X025561Y020401D02*
X024661Y020401D01*
X024661Y020243D02*
X025561Y020243D01*
X025561Y020084D02*
X024661Y020084D01*
X024661Y019926D02*
X025561Y019926D01*
X025561Y019767D02*
X024661Y019767D01*
X024661Y019609D02*
X025561Y019609D01*
X025561Y019450D02*
X024661Y019450D01*
X024661Y019292D02*
X025561Y019292D01*
X025561Y019133D02*
X024661Y019133D01*
X024661Y018975D02*
X025561Y018975D01*
X025561Y018816D02*
X024661Y018816D01*
X024661Y018658D02*
X025561Y018658D01*
X025561Y018499D02*
X024661Y018499D01*
X024661Y018341D02*
X025561Y018341D01*
X025561Y018182D02*
X024661Y018182D01*
X024661Y018024D02*
X025561Y018024D01*
X025561Y017865D02*
X024661Y017865D01*
X024661Y017707D02*
X025561Y017707D01*
X025561Y017548D02*
X024661Y017548D01*
X024661Y017390D02*
X025561Y017390D01*
X025561Y017231D02*
X024661Y017231D01*
X024661Y017073D02*
X025561Y017073D01*
X025561Y016914D02*
X024661Y016914D01*
X024661Y016756D02*
X025561Y016756D01*
X025561Y016597D02*
X024661Y016597D01*
X024661Y016439D02*
X025561Y016439D01*
X025561Y016280D02*
X024661Y016280D01*
X024661Y016122D02*
X025561Y016122D01*
X025561Y015963D02*
X024661Y015963D01*
X024661Y015805D02*
X025561Y015805D01*
X025561Y015646D02*
X024661Y015646D01*
X024661Y015488D02*
X025561Y015488D01*
X025561Y015329D02*
X024661Y015329D01*
X024661Y015171D02*
X025561Y015171D01*
X025561Y015012D02*
X024661Y015012D01*
X024661Y014854D02*
X025561Y014854D01*
X025561Y014695D02*
X024661Y014695D01*
X024642Y014537D02*
X025561Y014537D01*
X025561Y014378D02*
X024562Y014378D01*
X024340Y014220D02*
X025561Y014220D01*
X025561Y014061D02*
X022495Y014061D01*
X022336Y013903D02*
X025561Y013903D01*
X025561Y013744D02*
X022178Y013744D01*
X022019Y013586D02*
X025561Y013586D01*
X025561Y013427D02*
X023182Y013427D01*
X022160Y013427D02*
X021861Y013427D01*
X021946Y013269D02*
X021702Y013269D01*
X021735Y013110D02*
X021861Y013110D01*
X021831Y012952D02*
X021761Y012952D01*
X021753Y012793D02*
X021843Y012793D01*
X021909Y012635D02*
X021687Y012635D01*
X021551Y012476D02*
X022061Y012476D01*
X020790Y012476D02*
X019882Y012476D01*
X020086Y012635D02*
X020655Y012635D01*
X020589Y012793D02*
X020160Y012793D01*
X020176Y012952D02*
X020581Y012952D01*
X020607Y013110D02*
X020142Y013110D01*
X020043Y013269D02*
X020675Y013269D01*
X020681Y013427D02*
X019778Y013427D01*
X019777Y013433D02*
X019960Y013508D01*
X020100Y013648D01*
X020176Y013831D01*
X020176Y014029D01*
X020100Y014212D01*
X019960Y014352D01*
X019777Y014427D01*
X019064Y014427D01*
X019046Y014420D01*
X017411Y014420D01*
X017411Y018527D01*
X017336Y018708D01*
X017198Y018845D01*
X015921Y020123D01*
X015921Y020137D01*
X015628Y020430D01*
X015214Y020430D01*
X014921Y020137D01*
X014921Y019723D01*
X015214Y019430D01*
X015228Y019430D01*
X016431Y018227D01*
X016431Y013833D01*
X016505Y013652D01*
X016643Y013515D01*
X016823Y013440D01*
X019046Y013440D01*
X019064Y013433D01*
X019777Y013433D01*
X020037Y013586D02*
X020705Y013586D01*
X020792Y013744D02*
X020140Y013744D01*
X020176Y013903D02*
X020950Y013903D01*
X020893Y013845D02*
X020893Y013845D01*
X021109Y014061D02*
X020163Y014061D01*
X020092Y014220D02*
X021267Y014220D01*
X021241Y014378D02*
X021426Y014378D01*
X021361Y014498D02*
X021361Y014680D01*
X021361Y014862D01*
X021103Y015120D01*
X020921Y015120D01*
X020921Y014680D01*
X021361Y014680D01*
X020921Y014680D01*
X020921Y014680D01*
X020921Y014240D01*
X021103Y014240D01*
X021361Y014498D01*
X021361Y014537D02*
X021584Y014537D01*
X021743Y014695D02*
X021361Y014695D01*
X021361Y014854D02*
X021901Y014854D01*
X022060Y015012D02*
X021211Y015012D01*
X020921Y015012D02*
X020921Y015012D01*
X020921Y015120D02*
X020739Y015120D01*
X020481Y014862D01*
X020481Y014680D01*
X020481Y014498D01*
X020739Y014240D01*
X020921Y014240D01*
X020921Y014680D01*
X020921Y014680D01*
X020921Y014680D01*
X020921Y015120D01*
X020921Y014854D02*
X020921Y014854D01*
X020921Y014695D02*
X020921Y014695D01*
X020921Y014680D02*
X020921Y014680D01*
X020481Y014680D01*
X020921Y014680D01*
X020921Y014537D02*
X020921Y014537D01*
X020921Y014378D02*
X020921Y014378D01*
X020601Y014378D02*
X019897Y014378D01*
X019777Y014433D02*
X019960Y014508D01*
X020100Y014648D01*
X020176Y014831D01*
X020176Y015029D01*
X020100Y015212D01*
X019960Y015352D01*
X019777Y015427D01*
X019064Y015427D01*
X018882Y015352D01*
X018742Y015212D01*
X018666Y015029D01*
X018666Y014831D01*
X018742Y014648D01*
X018882Y014508D01*
X019064Y014433D01*
X019777Y014433D01*
X019988Y014537D02*
X020481Y014537D01*
X020481Y014695D02*
X020119Y014695D01*
X020176Y014854D02*
X020481Y014854D01*
X020631Y015012D02*
X020176Y015012D01*
X020117Y015171D02*
X022704Y015171D01*
X023137Y015171D02*
X023681Y015171D01*
X023681Y015329D02*
X019983Y015329D01*
X019910Y015488D02*
X023681Y015488D01*
X023681Y015646D02*
X020098Y015646D01*
X020100Y015648D02*
X020176Y015831D01*
X020176Y016029D01*
X020100Y016212D01*
X019960Y016352D01*
X019777Y016427D01*
X019064Y016427D01*
X018882Y016352D01*
X018742Y016212D01*
X018666Y016029D01*
X018666Y015831D01*
X018742Y015648D01*
X018882Y015508D01*
X019064Y015433D01*
X019777Y015433D01*
X019960Y015508D01*
X020100Y015648D01*
X020165Y015805D02*
X023681Y015805D01*
X023681Y015963D02*
X020176Y015963D01*
X020137Y016122D02*
X023681Y016122D01*
X023681Y016280D02*
X020032Y016280D01*
X019960Y016508D02*
X019777Y016433D01*
X019064Y016433D01*
X018882Y016508D01*
X018742Y016648D01*
X018666Y016831D01*
X018666Y017029D01*
X018742Y017212D01*
X018882Y017352D01*
X019064Y017427D01*
X019777Y017427D01*
X019960Y017352D01*
X020100Y017212D01*
X020176Y017029D01*
X020176Y016831D01*
X020100Y016648D01*
X019960Y016508D01*
X020049Y016597D02*
X023681Y016597D01*
X023681Y016439D02*
X019792Y016439D01*
X020145Y016756D02*
X023681Y016756D01*
X023681Y016914D02*
X021925Y016914D01*
X022148Y017073D02*
X022778Y017073D01*
X022916Y016935D02*
X022626Y017225D01*
X022626Y017430D01*
X023121Y017430D01*
X023616Y017430D01*
X023616Y017635D01*
X023326Y017925D01*
X023121Y017925D01*
X023121Y017430D01*
X023121Y017430D01*
X023616Y017430D01*
X023616Y017225D01*
X023326Y016935D01*
X023121Y016935D01*
X023121Y017430D01*
X023121Y017430D01*
X023121Y017430D01*
X023121Y016935D01*
X022916Y016935D01*
X023121Y017073D02*
X023121Y017073D01*
X023121Y017231D02*
X023121Y017231D01*
X023121Y017390D02*
X023121Y017390D01*
X023121Y017430D02*
X023121Y017430D01*
X023121Y017925D01*
X022916Y017925D01*
X022626Y017635D01*
X022626Y017430D01*
X023121Y017430D01*
X023121Y017548D02*
X023121Y017548D01*
X023121Y017707D02*
X023121Y017707D01*
X023121Y017865D02*
X023121Y017865D01*
X023386Y017865D02*
X023681Y017865D01*
X023681Y017707D02*
X023544Y017707D01*
X023616Y017548D02*
X023681Y017548D01*
X023681Y017390D02*
X023616Y017390D01*
X023616Y017231D02*
X023681Y017231D01*
X023681Y017073D02*
X023463Y017073D01*
X022626Y017231D02*
X022239Y017231D01*
X022276Y017390D02*
X022626Y017390D01*
X022626Y017548D02*
X022273Y017548D01*
X022207Y017707D02*
X022697Y017707D01*
X022856Y017865D02*
X022161Y017865D01*
X022161Y018024D02*
X023681Y018024D01*
X023681Y018182D02*
X022161Y018182D01*
X022161Y018341D02*
X023681Y018341D01*
X023681Y018499D02*
X022161Y018499D01*
X022161Y018658D02*
X023681Y018658D01*
X023681Y018816D02*
X022161Y018816D01*
X022161Y018975D02*
X023681Y018975D01*
X023681Y019133D02*
X022161Y019133D01*
X022161Y019292D02*
X023681Y019292D01*
X023681Y019450D02*
X022161Y019450D01*
X022161Y019609D02*
X023681Y019609D01*
X023681Y019767D02*
X022161Y019767D01*
X022161Y019926D02*
X023681Y019926D01*
X023681Y020084D02*
X022161Y020084D01*
X022161Y020243D02*
X022563Y020243D01*
X022568Y020241D02*
X022636Y020230D01*
X022671Y020230D01*
X022705Y020230D01*
X022774Y020241D01*
X022840Y020262D01*
X022901Y020294D01*
X022957Y020334D01*
X023006Y020383D01*
X023047Y020439D01*
X023079Y020501D01*
X023100Y020567D01*
X023111Y020635D01*
X023111Y020930D01*
X022671Y020930D01*
X022671Y020930D01*
X022671Y020230D01*
X022671Y020930D01*
X022671Y020930D01*
X022671Y020930D01*
X022671Y021630D01*
X022636Y021630D01*
X022568Y021619D01*
X022502Y021598D01*
X022440Y021566D01*
X022384Y021526D01*
X022335Y021477D01*
X022295Y021421D01*
X022263Y021359D01*
X022242Y021293D01*
X022231Y021225D01*
X022231Y020930D01*
X022231Y020635D01*
X022242Y020567D01*
X022263Y020501D01*
X022295Y020439D01*
X022335Y020383D01*
X022384Y020334D01*
X022440Y020294D01*
X022502Y020262D01*
X022568Y020241D01*
X022671Y020243D02*
X022671Y020243D01*
X022779Y020243D02*
X023681Y020243D01*
X023681Y020401D02*
X023019Y020401D01*
X023098Y020560D02*
X023681Y020560D01*
X023681Y020718D02*
X023111Y020718D01*
X023111Y020877D02*
X023531Y020877D01*
X023373Y021035D02*
X023111Y021035D01*
X023111Y021194D02*
X023214Y021194D01*
X022671Y021194D02*
X022671Y021194D01*
X022671Y021352D02*
X022671Y021352D01*
X022671Y021511D02*
X022671Y021511D01*
X022739Y021669D02*
X021821Y021669D01*
X022057Y021511D02*
X022369Y021511D01*
X022261Y021352D02*
X022145Y021352D01*
X022171Y021194D02*
X022231Y021194D01*
X022231Y021035D02*
X022171Y021035D01*
X022231Y020930D02*
X022671Y020930D01*
X022231Y020930D01*
X022231Y020877D02*
X022171Y020877D01*
X022171Y020718D02*
X022231Y020718D01*
X022244Y020560D02*
X022166Y020560D01*
X022161Y020401D02*
X022322Y020401D01*
X022671Y020401D02*
X022671Y020401D01*
X022671Y020560D02*
X022671Y020560D01*
X022671Y020718D02*
X022671Y020718D01*
X022671Y020877D02*
X022671Y020877D01*
X022671Y020930D02*
X022671Y020930D01*
X022671Y021035D02*
X022671Y021035D01*
X022580Y021828D02*
X017911Y021828D01*
X017911Y021986D02*
X022422Y021986D01*
X022263Y022145D02*
X017911Y022145D01*
X017911Y022303D02*
X022105Y022303D01*
X021521Y021669D02*
X017911Y021669D01*
X017911Y021511D02*
X021284Y021511D01*
X021181Y020401D02*
X019387Y020401D01*
X019268Y020243D02*
X021181Y020243D01*
X021181Y020084D02*
X019149Y020084D01*
X019030Y019926D02*
X021181Y019926D01*
X021181Y019767D02*
X018911Y019767D01*
X018792Y019609D02*
X021181Y019609D01*
X021181Y019450D02*
X018543Y019450D01*
X018830Y019215D02*
X018789Y019159D01*
X018758Y019098D01*
X018737Y019032D01*
X018726Y018964D01*
X018726Y018930D01*
X018726Y018896D01*
X018737Y018828D01*
X018758Y018762D01*
X018789Y018701D01*
X018830Y018645D01*
X018878Y018596D01*
X018934Y018556D01*
X018995Y018525D01*
X019061Y018503D01*
X019129Y018493D01*
X019421Y018493D01*
X019713Y018493D01*
X019781Y018503D01*
X019846Y018525D01*
X019908Y018556D01*
X019963Y018596D01*
X020012Y018645D01*
X020053Y018701D01*
X020084Y018762D01*
X020105Y018828D01*
X020116Y018896D01*
X020116Y018930D01*
X020116Y018964D01*
X020105Y019032D01*
X020084Y019098D01*
X020053Y019159D01*
X020012Y019215D01*
X019963Y019264D01*
X019908Y019304D01*
X019846Y019335D01*
X019781Y019357D01*
X019713Y019367D01*
X019421Y019367D01*
X019421Y018930D01*
X020116Y018930D01*
X019421Y018930D01*
X019421Y018930D01*
X019421Y018493D01*
X019421Y018930D01*
X019421Y018930D01*
X019421Y018930D01*
X019421Y019367D01*
X019129Y019367D01*
X019061Y019357D01*
X018995Y019335D01*
X018934Y019304D01*
X018878Y019264D01*
X018830Y019215D01*
X018776Y019133D02*
X016911Y019133D01*
X017069Y018975D02*
X018727Y018975D01*
X018726Y018930D02*
X019421Y018930D01*
X018726Y018930D01*
X018740Y018816D02*
X017228Y018816D01*
X017357Y018658D02*
X018821Y018658D01*
X019088Y018499D02*
X017411Y018499D01*
X017411Y018341D02*
X019011Y018341D01*
X018995Y018335D02*
X018934Y018304D01*
X018878Y018264D01*
X018830Y018215D01*
X018789Y018159D01*
X018758Y018098D01*
X018737Y018032D01*
X018726Y017964D01*
X018726Y017930D01*
X018726Y017896D01*
X018737Y017828D01*
X018758Y017762D01*
X018789Y017701D01*
X018830Y017645D01*
X018878Y017596D01*
X018934Y017556D01*
X018995Y017525D01*
X019061Y017503D01*
X019129Y017493D01*
X019421Y017493D01*
X019713Y017493D01*
X019781Y017503D01*
X019846Y017525D01*
X019908Y017556D01*
X019963Y017596D01*
X020012Y017645D01*
X020053Y017701D01*
X020084Y017762D01*
X020105Y017828D01*
X020116Y017896D01*
X020116Y017930D01*
X020116Y017964D01*
X020105Y018032D01*
X020084Y018098D01*
X020053Y018159D01*
X020012Y018215D01*
X019963Y018264D01*
X019908Y018304D01*
X019846Y018335D01*
X019781Y018357D01*
X019713Y018367D01*
X019421Y018367D01*
X019421Y017930D01*
X020116Y017930D01*
X019421Y017930D01*
X019421Y017930D01*
X019421Y017493D01*
X019421Y017930D01*
X019421Y017930D01*
X019421Y017930D01*
X019421Y018367D01*
X019129Y018367D01*
X019061Y018357D01*
X018995Y018335D01*
X018806Y018182D02*
X017411Y018182D01*
X017411Y018024D02*
X018735Y018024D01*
X018726Y017930D02*
X019421Y017930D01*
X018726Y017930D01*
X018731Y017865D02*
X017411Y017865D01*
X017411Y017707D02*
X018786Y017707D01*
X018949Y017548D02*
X017411Y017548D01*
X017411Y017390D02*
X018973Y017390D01*
X018761Y017231D02*
X017411Y017231D01*
X017411Y017073D02*
X018684Y017073D01*
X018666Y016914D02*
X017411Y016914D01*
X017411Y016756D02*
X018697Y016756D01*
X018793Y016597D02*
X017411Y016597D01*
X017411Y016439D02*
X019050Y016439D01*
X018810Y016280D02*
X017411Y016280D01*
X017411Y016122D02*
X018704Y016122D01*
X018666Y015963D02*
X017411Y015963D01*
X017411Y015805D02*
X018677Y015805D01*
X018744Y015646D02*
X017411Y015646D01*
X017411Y015488D02*
X018932Y015488D01*
X018859Y015329D02*
X017411Y015329D01*
X017411Y015171D02*
X018725Y015171D01*
X018666Y015012D02*
X017411Y015012D01*
X017411Y014854D02*
X018666Y014854D01*
X018722Y014695D02*
X017411Y014695D01*
X017411Y014537D02*
X018853Y014537D01*
X019063Y013427D02*
X016161Y013427D01*
X016161Y013269D02*
X016566Y013269D01*
X016465Y013110D02*
X016161Y013110D01*
X016161Y012952D02*
X016431Y012952D01*
X016431Y012793D02*
X016161Y012793D01*
X016161Y012635D02*
X016431Y012635D01*
X016431Y012476D02*
X016161Y012476D01*
X016161Y012318D02*
X016431Y012318D01*
X016431Y012159D02*
X016161Y012159D01*
X016161Y012001D02*
X016431Y012001D01*
X016431Y011842D02*
X016161Y011842D01*
X016161Y011684D02*
X016431Y011684D01*
X016431Y011525D02*
X016161Y011525D01*
X016161Y011367D02*
X016431Y011367D01*
X016431Y011208D02*
X016161Y011208D01*
X016161Y011050D02*
X016431Y011050D01*
X016431Y010891D02*
X016161Y010891D01*
X016161Y010733D02*
X016431Y010733D01*
X016431Y010574D02*
X016161Y010574D01*
X016161Y010416D02*
X016431Y010416D01*
X016431Y010257D02*
X016161Y010257D01*
X016161Y010099D02*
X016431Y010099D01*
X016431Y009940D02*
X016161Y009940D01*
X016161Y009782D02*
X016431Y009782D01*
X016431Y009623D02*
X016161Y009623D01*
X016161Y009465D02*
X016431Y009465D01*
X016431Y009306D02*
X016161Y009306D01*
X016161Y009148D02*
X016431Y009148D01*
X016431Y008989D02*
X016161Y008989D01*
X016161Y008831D02*
X016431Y008831D01*
X016431Y008672D02*
X016161Y008672D01*
X016161Y008514D02*
X016431Y008514D01*
X016431Y008355D02*
X016161Y008355D01*
X016199Y008197D02*
X016431Y008197D01*
X016431Y008038D02*
X016261Y008038D01*
X016261Y007880D02*
X016431Y007880D01*
X016431Y007721D02*
X016223Y007721D01*
X016138Y007563D02*
X016431Y007563D01*
X017411Y007563D02*
X018681Y007563D01*
X018681Y007721D02*
X017411Y007721D01*
X017411Y007880D02*
X018666Y007880D01*
X018666Y007831D02*
X018681Y007795D01*
X018681Y006147D01*
X018671Y006137D01*
X018671Y005723D01*
X018964Y005430D01*
X019378Y005430D01*
X019671Y005723D01*
X019671Y006137D01*
X019661Y006147D01*
X019661Y007433D01*
X019777Y007433D01*
X019960Y007508D01*
X020100Y007648D01*
X020176Y007831D01*
X020176Y008029D01*
X020100Y008212D01*
X019960Y008352D01*
X019777Y008427D01*
X019064Y008427D01*
X018882Y008352D01*
X018742Y008212D01*
X018666Y008029D01*
X018666Y007831D01*
X018670Y008038D02*
X017411Y008038D01*
X017411Y008197D02*
X018735Y008197D01*
X018889Y008355D02*
X017411Y008355D01*
X017411Y008514D02*
X018876Y008514D01*
X018732Y008672D02*
X017411Y008672D01*
X017411Y008831D02*
X018666Y008831D01*
X018666Y008989D02*
X017411Y008989D01*
X017411Y009148D02*
X018715Y009148D01*
X018836Y009306D02*
X017411Y009306D01*
X017411Y009465D02*
X020681Y009465D01*
X020659Y009623D02*
X019990Y009623D01*
X020012Y009645D02*
X020053Y009701D01*
X020084Y009762D01*
X020105Y009828D01*
X020116Y009896D01*
X020116Y009930D01*
X020116Y009964D01*
X020105Y010032D01*
X020084Y010098D01*
X020053Y010159D01*
X020012Y010215D01*
X019963Y010264D01*
X019908Y010304D01*
X019846Y010335D01*
X019781Y010357D01*
X019713Y010367D01*
X019421Y010367D01*
X019421Y009930D01*
X020116Y009930D01*
X019421Y009930D01*
X019421Y009930D01*
X019421Y009493D01*
X019713Y009493D01*
X019781Y009503D01*
X019846Y009525D01*
X019908Y009556D01*
X019963Y009596D01*
X020012Y009645D01*
X020090Y009782D02*
X020594Y009782D01*
X020581Y009940D02*
X020116Y009940D01*
X020083Y010099D02*
X020602Y010099D01*
X020668Y010257D02*
X019970Y010257D01*
X019421Y010257D02*
X019421Y010257D01*
X019421Y010367D02*
X019421Y009930D01*
X019421Y009930D01*
X019421Y009930D01*
X019421Y009493D01*
X019129Y009493D01*
X019061Y009503D01*
X018995Y009525D01*
X018934Y009556D01*
X018878Y009596D01*
X018830Y009645D01*
X018789Y009701D01*
X018758Y009762D01*
X018737Y009828D01*
X018726Y009896D01*
X018726Y009930D01*
X019421Y009930D01*
X019421Y009930D01*
X018726Y009930D01*
X018726Y009964D01*
X018737Y010032D01*
X018758Y010098D01*
X018789Y010159D01*
X018830Y010215D01*
X018878Y010264D01*
X018934Y010304D01*
X018995Y010335D01*
X019061Y010357D01*
X019129Y010367D01*
X019421Y010367D01*
X019421Y010099D02*
X019421Y010099D01*
X019421Y009940D02*
X019421Y009940D01*
X019421Y009782D02*
X019421Y009782D01*
X019421Y009623D02*
X019421Y009623D01*
X018852Y009623D02*
X017411Y009623D01*
X017411Y009782D02*
X018752Y009782D01*
X018726Y009940D02*
X017411Y009940D01*
X017411Y010099D02*
X018758Y010099D01*
X018872Y010257D02*
X017411Y010257D01*
X017411Y010416D02*
X020822Y010416D01*
X021520Y010416D02*
X022132Y010416D01*
X021934Y010257D02*
X021674Y010257D01*
X021740Y010099D02*
X021856Y010099D01*
X021831Y009940D02*
X021761Y009940D01*
X021748Y009782D02*
X021848Y009782D01*
X021914Y009623D02*
X021682Y009623D01*
X021661Y009465D02*
X022084Y009465D01*
X022072Y009306D02*
X021661Y009306D01*
X021661Y009148D02*
X021943Y009148D01*
X021894Y008989D02*
X021661Y008989D01*
X021660Y008831D02*
X021901Y008831D01*
X021903Y008818D02*
X021926Y008746D01*
X021960Y008678D01*
X022005Y008617D01*
X022058Y008564D01*
X022119Y008519D01*
X022187Y008485D01*
X022258Y008462D01*
X022333Y008450D01*
X022651Y008450D01*
X022651Y008910D01*
X021891Y008910D01*
X021891Y008892D01*
X021903Y008818D01*
X021965Y008672D02*
X021594Y008672D01*
X021446Y008514D02*
X022131Y008514D01*
X022187Y008375D02*
X022119Y008341D01*
X022058Y008296D01*
X022005Y008243D01*
X021960Y008182D01*
X021926Y008114D01*
X021903Y008042D01*
X021891Y007968D01*
X021891Y007950D01*
X022651Y007950D01*
X022651Y008410D01*
X022333Y008410D01*
X022258Y008398D01*
X022187Y008375D01*
X022148Y008355D02*
X019952Y008355D01*
X020106Y008197D02*
X021971Y008197D01*
X021902Y008038D02*
X020172Y008038D01*
X020176Y007880D02*
X021893Y007880D01*
X021891Y007892D02*
X021903Y007818D01*
X021926Y007746D01*
X021960Y007678D01*
X022005Y007617D01*
X022058Y007564D01*
X022119Y007519D01*
X022187Y007485D01*
X022258Y007462D01*
X022333Y007450D01*
X022651Y007450D01*
X022651Y007910D01*
X022691Y007910D01*
X022691Y007950D01*
X023451Y007950D01*
X023451Y007968D01*
X023439Y008042D01*
X023416Y008114D01*
X023381Y008182D01*
X023337Y008243D01*
X023284Y008296D01*
X023222Y008341D01*
X023155Y008375D01*
X023083Y008398D01*
X023009Y008410D01*
X022691Y008410D01*
X022691Y007950D01*
X022651Y007950D01*
X022651Y007910D01*
X021891Y007910D01*
X021891Y007892D01*
X021939Y007721D02*
X020130Y007721D01*
X020014Y007563D02*
X022060Y007563D01*
X022651Y007563D02*
X022691Y007563D01*
X022691Y007450D02*
X023009Y007450D01*
X023083Y007462D01*
X023155Y007485D01*
X023222Y007519D01*
X023284Y007564D01*
X023337Y007617D01*
X023381Y007678D01*
X023416Y007746D01*
X023439Y007818D01*
X023451Y007892D01*
X023451Y007910D01*
X022691Y007910D01*
X022691Y007450D01*
X022691Y007721D02*
X022651Y007721D01*
X022651Y007880D02*
X022691Y007880D01*
X022691Y008038D02*
X022651Y008038D01*
X022651Y008197D02*
X022691Y008197D01*
X022691Y008355D02*
X022651Y008355D01*
X022691Y008450D02*
X023009Y008450D01*
X023083Y008462D01*
X023155Y008485D01*
X023222Y008519D01*
X023284Y008564D01*
X023337Y008617D01*
X023381Y008678D01*
X023416Y008746D01*
X023439Y008818D01*
X023451Y008892D01*
X023451Y008910D01*
X022691Y008910D01*
X022691Y008450D01*
X022691Y008514D02*
X022651Y008514D01*
X022651Y008672D02*
X022691Y008672D01*
X022691Y008831D02*
X022651Y008831D01*
X023211Y008514D02*
X024181Y008514D01*
X024181Y008672D02*
X023377Y008672D01*
X023441Y008831D02*
X024181Y008831D01*
X024181Y008989D02*
X023447Y008989D01*
X023399Y009148D02*
X024181Y009148D01*
X024181Y009306D02*
X023270Y009306D01*
X023258Y009465D02*
X024181Y009465D01*
X024181Y009623D02*
X023428Y009623D01*
X023494Y009782D02*
X024181Y009782D01*
X024181Y009940D02*
X023511Y009940D01*
X023486Y010099D02*
X024181Y010099D01*
X024181Y010257D02*
X023408Y010257D01*
X023210Y010416D02*
X024181Y010416D01*
X024181Y010574D02*
X023379Y010574D01*
X023474Y010733D02*
X024181Y010733D01*
X024181Y010891D02*
X023511Y010891D01*
X023506Y011050D02*
X024181Y011050D01*
X024181Y011208D02*
X023440Y011208D01*
X023298Y011367D02*
X024181Y011367D01*
X024181Y011525D02*
X023330Y011525D01*
X023453Y011684D02*
X024181Y011684D01*
X024181Y011842D02*
X023511Y011842D01*
X023511Y012001D02*
X024181Y012001D01*
X024181Y012159D02*
X023460Y012159D01*
X023347Y012318D02*
X024181Y012318D01*
X025161Y012318D02*
X025561Y012318D01*
X025561Y012476D02*
X025161Y012476D01*
X025161Y012635D02*
X025561Y012635D01*
X025561Y012793D02*
X025161Y012793D01*
X025161Y012952D02*
X025561Y012952D01*
X025561Y013110D02*
X025127Y013110D01*
X025025Y013269D02*
X025561Y013269D01*
X025561Y012159D02*
X025161Y012159D01*
X025161Y012001D02*
X025561Y012001D01*
X025561Y011842D02*
X025161Y011842D01*
X025161Y011684D02*
X025561Y011684D01*
X025561Y011525D02*
X025161Y011525D01*
X025161Y011367D02*
X025561Y011367D01*
X025561Y011208D02*
X025161Y011208D01*
X025161Y011050D02*
X025561Y011050D01*
X025561Y010891D02*
X025161Y010891D01*
X025161Y010733D02*
X025561Y010733D01*
X025561Y010574D02*
X025161Y010574D01*
X025161Y010416D02*
X025561Y010416D01*
X025561Y010257D02*
X025161Y010257D01*
X025161Y010099D02*
X025561Y010099D01*
X025561Y009940D02*
X025161Y009940D01*
X025161Y009782D02*
X025561Y009782D01*
X025561Y009623D02*
X025161Y009623D01*
X025161Y009465D02*
X025561Y009465D01*
X025561Y009306D02*
X025161Y009306D01*
X025161Y009148D02*
X025561Y009148D01*
X025561Y008989D02*
X025161Y008989D01*
X025161Y008831D02*
X025561Y008831D01*
X025561Y008672D02*
X025161Y008672D01*
X025161Y008514D02*
X025561Y008514D01*
X025561Y008355D02*
X025161Y008355D01*
X025161Y008197D02*
X025561Y008197D01*
X025561Y008038D02*
X025161Y008038D01*
X025161Y007880D02*
X025561Y007880D01*
X025561Y007721D02*
X025161Y007721D01*
X025161Y007563D02*
X025561Y007563D01*
X025561Y007404D02*
X025161Y007404D01*
X025161Y007246D02*
X025561Y007246D01*
X025561Y007087D02*
X025161Y007087D01*
X025163Y006929D02*
X025561Y006929D01*
X025561Y006770D02*
X025135Y006770D01*
X025045Y006612D02*
X025561Y006612D01*
X025561Y006453D02*
X024911Y006453D01*
X024779Y006295D02*
X025561Y006295D01*
X025561Y006136D02*
X024647Y006136D01*
X024515Y005978D02*
X025561Y005978D01*
X025561Y005819D02*
X024383Y005819D01*
X024251Y005661D02*
X025561Y005661D01*
X025561Y005502D02*
X024119Y005502D01*
X023987Y005344D02*
X025561Y005344D01*
X025561Y005185D02*
X023855Y005185D01*
X023722Y005027D02*
X025561Y005027D01*
X025561Y004868D02*
X023590Y004868D01*
X023458Y004710D02*
X025561Y004710D01*
X025561Y004551D02*
X023326Y004551D01*
X023194Y004393D02*
X025561Y004393D01*
X025561Y004234D02*
X023062Y004234D01*
X022930Y004076D02*
X025561Y004076D01*
X025561Y003917D02*
X022798Y003917D01*
X022666Y003759D02*
X025561Y003759D01*
X025561Y003600D02*
X022534Y003600D01*
X022427Y003442D02*
X025561Y003442D01*
X025561Y003283D02*
X022338Y003283D01*
X022112Y003125D02*
X024160Y003125D01*
X023885Y002966D02*
X017435Y002966D01*
X017435Y002808D02*
X023724Y002808D01*
X023596Y002649D02*
X017435Y002649D01*
X017435Y002491D02*
X023505Y002491D01*
X023443Y002332D02*
X017382Y002332D01*
X017276Y002174D02*
X023401Y002174D01*
X023381Y002015D02*
X017032Y002015D01*
X016652Y002015D02*
X015411Y002015D01*
X015411Y001978D02*
X015411Y002326D01*
X015466Y002460D01*
X015466Y003400D01*
X015376Y003618D01*
X015209Y003785D01*
X014991Y003875D01*
X014756Y003875D01*
X014538Y003785D01*
X014371Y003618D01*
X014281Y003400D01*
X014281Y002460D01*
X014371Y002242D01*
X014425Y002188D01*
X014022Y001920D01*
X006666Y001920D01*
X006161Y002593D01*
X006161Y008027D01*
X006086Y008208D01*
X005948Y008345D01*
X005768Y008420D01*
X004689Y008420D01*
X004661Y008432D01*
X004661Y010585D01*
X004691Y010616D01*
X004776Y010820D01*
X004776Y011040D01*
X004691Y011244D01*
X004690Y011246D01*
X004661Y011647D01*
X004661Y012899D01*
X004803Y012840D01*
X005038Y012840D01*
X005255Y012930D01*
X005421Y013096D01*
X005511Y013313D01*
X005511Y013547D01*
X005421Y013764D01*
X005255Y013930D01*
X005038Y014020D01*
X004803Y014020D01*
X004661Y013961D01*
X004661Y014477D01*
X004864Y014680D01*
X005049Y014680D01*
X004981Y014612D01*
X004981Y014430D01*
X005421Y014430D01*
X005421Y014430D01*
X005861Y014430D01*
X005861Y014248D01*
X005603Y013990D01*
X005421Y013990D01*
X005421Y014430D01*
X005421Y014430D01*
X005421Y014430D01*
X005421Y013990D01*
X005239Y013990D01*
X004981Y014248D01*
X004981Y014430D01*
X005421Y014430D01*
X005421Y014870D01*
X005318Y014870D01*
X005421Y014973D01*
X005421Y015387D01*
X005128Y015680D01*
X004714Y015680D01*
X004704Y015670D01*
X004573Y015670D01*
X004393Y015595D01*
X004255Y015458D01*
X003755Y014958D01*
X003681Y014777D01*
X003681Y011709D01*
X003675Y011692D01*
X003681Y011613D01*
X003681Y011077D01*
X003666Y011040D01*
X003666Y010820D01*
X003681Y010783D01*
X003681Y008083D01*
X003755Y007902D01*
X003893Y007765D01*
X003987Y007671D01*
X003997Y007647D01*
X004138Y007506D01*
X004321Y007430D01*
X004520Y007430D01*
X004544Y007440D01*
X005181Y007440D01*
X005181Y002465D01*
X005172Y002403D01*
X005181Y002368D01*
X005181Y002333D01*
X005205Y002275D01*
X005220Y002214D01*
X005242Y002185D01*
X005255Y002152D01*
X005300Y002108D01*
X005992Y001185D01*
X006005Y001152D01*
X006050Y001108D01*
X006087Y001058D01*
X006118Y001040D01*
X006143Y001015D01*
X006201Y000991D01*
X006255Y000959D01*
X006290Y000954D01*
X006323Y000940D01*
X006386Y000940D01*
X006448Y000931D01*
X006483Y000940D01*
X014122Y000940D01*
X014170Y000930D01*
X014219Y000940D01*
X014268Y000940D01*
X014314Y000959D01*
X014362Y000968D01*
X014403Y000996D01*
X014448Y001015D01*
X014483Y001049D01*
X015153Y001496D01*
X015198Y001515D01*
X015233Y001549D01*
X015274Y001576D01*
X015301Y001617D01*
X015336Y001652D01*
X015355Y001698D01*
X023398Y001698D01*
X023381Y001857D02*
X015411Y001857D01*
X015411Y001833D02*
X015411Y001881D01*
X015420Y001929D01*
X015411Y001978D01*
X015411Y001833D02*
X015392Y001787D01*
X015382Y001738D01*
X015355Y001698D01*
X015223Y001540D02*
X023440Y001540D01*
X023498Y001381D02*
X014981Y001381D01*
X014743Y001223D02*
X023590Y001223D01*
X023713Y001064D02*
X014505Y001064D01*
X014165Y002015D02*
X013095Y002015D01*
X013339Y002174D02*
X014403Y002174D01*
X014334Y002332D02*
X013445Y002332D01*
X013498Y002491D02*
X014281Y002491D01*
X014281Y002649D02*
X013498Y002649D01*
X013498Y002808D02*
X014281Y002808D01*
X014281Y002966D02*
X013498Y002966D01*
X013498Y003125D02*
X014281Y003125D01*
X014281Y003283D02*
X013498Y003283D01*
X013481Y003442D02*
X014298Y003442D01*
X014364Y003600D02*
X013415Y003600D01*
X013411Y003759D02*
X014512Y003759D01*
X015236Y003759D02*
X016431Y003759D01*
X016431Y003917D02*
X013411Y003917D01*
X013411Y004076D02*
X016431Y004076D01*
X016431Y004234D02*
X013411Y004234D01*
X013411Y004393D02*
X015427Y004393D01*
X015915Y004393D02*
X016431Y004393D01*
X016431Y004551D02*
X016126Y004551D01*
X016218Y004710D02*
X016431Y004710D01*
X016431Y004868D02*
X016261Y004868D01*
X016261Y005027D02*
X016431Y005027D01*
X016431Y005185D02*
X016204Y005185D01*
X016092Y005344D02*
X016431Y005344D01*
X017411Y005344D02*
X022711Y005344D01*
X022843Y005502D02*
X019450Y005502D01*
X019608Y005661D02*
X022975Y005661D01*
X023107Y005819D02*
X019671Y005819D01*
X019671Y005978D02*
X023239Y005978D01*
X023371Y006136D02*
X019671Y006136D01*
X019661Y006295D02*
X023503Y006295D01*
X023636Y006453D02*
X019661Y006453D01*
X019661Y006612D02*
X023768Y006612D01*
X023900Y006770D02*
X019661Y006770D01*
X019661Y006929D02*
X024032Y006929D01*
X024164Y007087D02*
X019661Y007087D01*
X019661Y007246D02*
X024181Y007246D01*
X024181Y007404D02*
X019661Y007404D01*
X018681Y007404D02*
X017411Y007404D01*
X017411Y007246D02*
X018681Y007246D01*
X018681Y007087D02*
X017411Y007087D01*
X017411Y006929D02*
X018681Y006929D01*
X018681Y006770D02*
X017385Y006770D01*
X017295Y006612D02*
X018681Y006612D01*
X018681Y006453D02*
X017050Y006453D01*
X017249Y006295D02*
X018681Y006295D01*
X018671Y006136D02*
X017366Y006136D01*
X017411Y005978D02*
X018671Y005978D01*
X018671Y005819D02*
X017411Y005819D01*
X017411Y005661D02*
X018733Y005661D01*
X018892Y005502D02*
X017411Y005502D01*
X017411Y005185D02*
X022579Y005185D01*
X022447Y005027D02*
X017411Y005027D01*
X017411Y004868D02*
X022315Y004868D01*
X022183Y004710D02*
X022174Y004710D01*
X021667Y004710D02*
X021174Y004710D01*
X021364Y004551D02*
X021478Y004551D01*
X020667Y004710D02*
X017411Y004710D01*
X017411Y004551D02*
X020478Y004551D01*
X020504Y003283D02*
X017435Y003283D01*
X017435Y003125D02*
X020730Y003125D01*
X021112Y003125D02*
X021730Y003125D01*
X021504Y003283D02*
X021338Y003283D01*
X018952Y003442D02*
X017418Y003442D01*
X017411Y003600D02*
X018794Y003600D01*
X018671Y003759D02*
X017411Y003759D01*
X017411Y003917D02*
X018671Y003917D01*
X018671Y004076D02*
X017411Y004076D01*
X017411Y004234D02*
X018768Y004234D01*
X018926Y004393D02*
X017411Y004393D01*
X016332Y003600D02*
X015383Y003600D01*
X015449Y003442D02*
X016267Y003442D01*
X016250Y003283D02*
X015466Y003283D01*
X015466Y003125D02*
X016250Y003125D01*
X016250Y002966D02*
X015466Y002966D01*
X015466Y002808D02*
X016250Y002808D01*
X016250Y002649D02*
X015466Y002649D01*
X015466Y002491D02*
X016250Y002491D01*
X016302Y002332D02*
X015413Y002332D01*
X015411Y002174D02*
X016408Y002174D01*
X012715Y002015D02*
X009158Y002015D01*
X009086Y001985D02*
X009304Y002075D01*
X009470Y002242D01*
X009561Y002460D01*
X009561Y003400D01*
X009470Y003618D01*
X009304Y003785D01*
X009086Y003875D01*
X008911Y003875D01*
X008911Y007527D01*
X008836Y007708D01*
X008698Y007845D01*
X008198Y008345D01*
X008018Y008420D01*
X007638Y008420D01*
X007628Y008430D01*
X007214Y008430D01*
X006921Y008137D01*
X006921Y007723D01*
X007214Y007430D01*
X007628Y007430D01*
X007638Y007440D01*
X007718Y007440D01*
X007931Y007227D01*
X007931Y003253D01*
X007923Y003182D01*
X007931Y003156D01*
X007931Y003130D01*
X007958Y003063D01*
X007979Y002995D01*
X007995Y002974D01*
X008005Y002950D01*
X008056Y002899D01*
X008101Y002843D01*
X008125Y002831D01*
X008143Y002812D01*
X008210Y002784D01*
X008376Y002694D01*
X008376Y002460D01*
X008466Y002242D01*
X008632Y002075D01*
X008850Y001985D01*
X009086Y001985D01*
X009402Y002174D02*
X010588Y002174D01*
X010590Y002171D02*
X010658Y002122D01*
X010732Y002084D01*
X010812Y002058D01*
X010895Y002045D01*
X010899Y002045D01*
X010899Y002892D01*
X010974Y002892D01*
X010974Y002045D01*
X010979Y002045D01*
X011061Y002058D01*
X011141Y002084D01*
X011216Y002122D01*
X011284Y002171D01*
X011343Y002231D01*
X011392Y002298D01*
X011430Y002373D01*
X011456Y002453D01*
X011469Y002536D01*
X011469Y002892D01*
X010974Y002892D01*
X010974Y002968D01*
X010899Y002968D01*
X010899Y003815D01*
X010895Y003815D01*
X010812Y003802D01*
X010732Y003776D01*
X010658Y003738D01*
X010590Y003689D01*
X010530Y003629D01*
X010481Y003562D01*
X010443Y003487D01*
X010417Y003407D01*
X010404Y003324D01*
X010404Y002968D01*
X010899Y002968D01*
X010899Y002892D01*
X010404Y002892D01*
X010404Y002536D01*
X010417Y002453D01*
X010443Y002373D01*
X010481Y002298D01*
X010530Y002231D01*
X010590Y002171D01*
X010464Y002332D02*
X009508Y002332D01*
X009561Y002491D02*
X010411Y002491D01*
X010404Y002649D02*
X009561Y002649D01*
X009561Y002808D02*
X010404Y002808D01*
X010404Y003125D02*
X009561Y003125D01*
X009561Y003283D02*
X010404Y003283D01*
X010428Y003442D02*
X009544Y003442D01*
X009478Y003600D02*
X010509Y003600D01*
X010698Y003759D02*
X009330Y003759D01*
X008911Y003917D02*
X012431Y003917D01*
X012431Y003759D02*
X011175Y003759D01*
X011141Y003776D02*
X011216Y003738D01*
X011284Y003689D01*
X011343Y003629D01*
X011392Y003562D01*
X011430Y003487D01*
X011456Y003407D01*
X011469Y003324D01*
X011469Y002968D01*
X010974Y002968D01*
X010974Y003815D01*
X010979Y003815D01*
X011061Y003802D01*
X011141Y003776D01*
X010974Y003759D02*
X010899Y003759D01*
X010899Y003600D02*
X010974Y003600D01*
X010974Y003442D02*
X010899Y003442D01*
X010899Y003283D02*
X010974Y003283D01*
X010974Y003125D02*
X010899Y003125D01*
X010899Y002966D02*
X009561Y002966D01*
X008778Y002015D02*
X007190Y002015D01*
X007117Y001985D02*
X007335Y002075D01*
X007502Y002242D01*
X007592Y002460D01*
X007592Y003400D01*
X007502Y003618D01*
X007411Y003709D01*
X007411Y005032D01*
X007773Y005575D01*
X007921Y005723D01*
X007921Y006137D01*
X007628Y006430D01*
X007214Y006430D01*
X006921Y006137D01*
X006921Y006063D01*
X006540Y005492D01*
X006505Y005458D01*
X006487Y005412D01*
X006459Y005371D01*
X006450Y005323D01*
X006431Y005277D01*
X006431Y005228D01*
X006421Y005179D01*
X006431Y005131D01*
X006431Y003458D01*
X006407Y003400D01*
X006407Y002460D01*
X006497Y002242D01*
X006664Y002075D01*
X006882Y001985D01*
X007117Y001985D01*
X006809Y002015D02*
X006595Y002015D01*
X006566Y002174D02*
X006476Y002174D01*
X006460Y002332D02*
X006357Y002332D01*
X006407Y002491D02*
X006238Y002491D01*
X006161Y002649D02*
X006407Y002649D01*
X006407Y002808D02*
X006161Y002808D01*
X006161Y002966D02*
X006407Y002966D01*
X006407Y003125D02*
X006161Y003125D01*
X006161Y003283D02*
X006407Y003283D01*
X006424Y003442D02*
X006161Y003442D01*
X006161Y003600D02*
X006431Y003600D01*
X006431Y003759D02*
X006161Y003759D01*
X006161Y003917D02*
X006431Y003917D01*
X006431Y004076D02*
X006161Y004076D01*
X006161Y004234D02*
X006431Y004234D01*
X006431Y004393D02*
X006161Y004393D01*
X006161Y004551D02*
X006431Y004551D01*
X006431Y004710D02*
X006161Y004710D01*
X006161Y004868D02*
X006431Y004868D01*
X006431Y005027D02*
X006161Y005027D01*
X006161Y005185D02*
X006422Y005185D01*
X006454Y005344D02*
X006161Y005344D01*
X006161Y005502D02*
X006547Y005502D01*
X006652Y005661D02*
X006161Y005661D01*
X006161Y005819D02*
X006758Y005819D01*
X006864Y005978D02*
X006161Y005978D01*
X006161Y006136D02*
X006921Y006136D01*
X007078Y006295D02*
X006161Y006295D01*
X006161Y006453D02*
X007931Y006453D01*
X007931Y006295D02*
X007763Y006295D01*
X007921Y006136D02*
X007931Y006136D01*
X007921Y005978D02*
X007931Y005978D01*
X007921Y005819D02*
X007931Y005819D01*
X007931Y005661D02*
X007858Y005661D01*
X007931Y005502D02*
X007724Y005502D01*
X007619Y005344D02*
X007931Y005344D01*
X007931Y005185D02*
X007513Y005185D01*
X007411Y005027D02*
X007931Y005027D01*
X007931Y004868D02*
X007411Y004868D01*
X007411Y004710D02*
X007931Y004710D01*
X007931Y004551D02*
X007411Y004551D01*
X007411Y004393D02*
X007931Y004393D01*
X007931Y004234D02*
X007411Y004234D01*
X007411Y004076D02*
X007931Y004076D01*
X007931Y003917D02*
X007411Y003917D01*
X007411Y003759D02*
X007931Y003759D01*
X007931Y003600D02*
X007509Y003600D01*
X007575Y003442D02*
X007931Y003442D01*
X007931Y003283D02*
X007592Y003283D01*
X007592Y003125D02*
X007933Y003125D01*
X007999Y002966D02*
X007592Y002966D01*
X007592Y002808D02*
X008154Y002808D01*
X008376Y002649D02*
X007592Y002649D01*
X007592Y002491D02*
X008376Y002491D01*
X008428Y002332D02*
X007539Y002332D01*
X007434Y002174D02*
X008534Y002174D01*
X008911Y004076D02*
X012431Y004076D01*
X012431Y004234D02*
X008911Y004234D01*
X008911Y004393D02*
X012431Y004393D01*
X012431Y004551D02*
X008911Y004551D01*
X008911Y004710D02*
X012431Y004710D01*
X012431Y004868D02*
X008911Y004868D01*
X008911Y005027D02*
X012431Y005027D01*
X012496Y005185D02*
X008911Y005185D01*
X008911Y005344D02*
X012641Y005344D01*
X012542Y006453D02*
X011891Y006453D01*
X011772Y006612D02*
X012296Y006612D01*
X012178Y006770D02*
X011653Y006770D01*
X011534Y006929D02*
X012059Y006929D01*
X011941Y007087D02*
X011416Y007087D01*
X011297Y007246D02*
X011822Y007246D01*
X011703Y007404D02*
X011178Y007404D01*
X011059Y007563D02*
X011584Y007563D01*
X011465Y007721D02*
X010940Y007721D01*
X010821Y007880D02*
X011346Y007880D01*
X011227Y008038D02*
X010702Y008038D01*
X010661Y008197D02*
X010841Y008197D01*
X010700Y008355D02*
X010661Y008355D01*
X009681Y008355D02*
X009564Y008355D01*
X009681Y008197D02*
X009377Y008197D01*
X009191Y008197D02*
X009151Y008197D01*
X009151Y008150D02*
X009151Y008910D01*
X008691Y008910D01*
X008691Y008592D01*
X008703Y008518D01*
X008726Y008446D01*
X008760Y008378D01*
X008805Y008317D01*
X008858Y008264D01*
X008919Y008219D01*
X008987Y008185D01*
X009058Y008162D01*
X009133Y008150D01*
X009151Y008150D01*
X008964Y008197D02*
X008347Y008197D01*
X008506Y008038D02*
X009681Y008038D01*
X009678Y007880D02*
X008664Y007880D01*
X008823Y007721D02*
X009719Y007721D01*
X009834Y007563D02*
X008896Y007563D01*
X008911Y007404D02*
X009953Y007404D01*
X010072Y007246D02*
X008911Y007246D01*
X008911Y007087D02*
X010191Y007087D01*
X010309Y006929D02*
X008911Y006929D01*
X008911Y006770D02*
X010428Y006770D01*
X010547Y006612D02*
X008911Y006612D01*
X008911Y006453D02*
X010666Y006453D01*
X010785Y006295D02*
X008911Y006295D01*
X008911Y006136D02*
X010904Y006136D01*
X011023Y005978D02*
X008911Y005978D01*
X008911Y005819D02*
X011142Y005819D01*
X011252Y005661D02*
X008911Y005661D01*
X008911Y005502D02*
X011424Y005502D01*
X011364Y003600D02*
X012395Y003600D01*
X012330Y003442D02*
X011445Y003442D01*
X011469Y003283D02*
X012313Y003283D01*
X012313Y003125D02*
X011469Y003125D01*
X011469Y002808D02*
X012313Y002808D01*
X012313Y002966D02*
X010974Y002966D01*
X010974Y002808D02*
X010899Y002808D01*
X010899Y002649D02*
X010974Y002649D01*
X010974Y002491D02*
X010899Y002491D01*
X010899Y002332D02*
X010974Y002332D01*
X010974Y002174D02*
X010899Y002174D01*
X011286Y002174D02*
X012471Y002174D01*
X012365Y002332D02*
X011409Y002332D01*
X011462Y002491D02*
X012313Y002491D01*
X012313Y002649D02*
X011469Y002649D01*
X007931Y006612D02*
X006161Y006612D01*
X006161Y006770D02*
X007931Y006770D01*
X007931Y006929D02*
X006161Y006929D01*
X006161Y007087D02*
X007931Y007087D01*
X007912Y007246D02*
X006161Y007246D01*
X006161Y007404D02*
X007754Y007404D01*
X007081Y007563D02*
X006161Y007563D01*
X006161Y007721D02*
X006923Y007721D01*
X006921Y007880D02*
X006161Y007880D01*
X006156Y008038D02*
X006921Y008038D01*
X006980Y008197D02*
X006091Y008197D01*
X005925Y008355D02*
X007139Y008355D01*
X008175Y008355D02*
X008777Y008355D01*
X008704Y008514D02*
X004661Y008514D01*
X004661Y008672D02*
X008691Y008672D01*
X008691Y008831D02*
X004661Y008831D01*
X004661Y008989D02*
X008691Y008989D01*
X008691Y009148D02*
X004661Y009148D01*
X004661Y009306D02*
X008697Y009306D01*
X008752Y009465D02*
X004661Y009465D01*
X004661Y009623D02*
X008895Y009623D01*
X009151Y009623D02*
X009191Y009623D01*
X009191Y009465D02*
X009151Y009465D01*
X009151Y009306D02*
X009191Y009306D01*
X009191Y009148D02*
X009151Y009148D01*
X009151Y008989D02*
X009191Y008989D01*
X009191Y008831D02*
X009151Y008831D01*
X009151Y008672D02*
X009191Y008672D01*
X009191Y008514D02*
X009151Y008514D01*
X009151Y008355D02*
X009191Y008355D01*
X009590Y009465D02*
X009681Y009465D01*
X009681Y009623D02*
X009447Y009623D01*
X009681Y009782D02*
X004661Y009782D01*
X004661Y009940D02*
X009681Y009940D01*
X009681Y010099D02*
X004661Y010099D01*
X004661Y010257D02*
X007162Y010257D01*
X007000Y010416D02*
X004661Y010416D01*
X004661Y010574D02*
X005277Y010574D01*
X005416Y010435D02*
X005126Y010725D01*
X005126Y010930D01*
X005621Y010930D01*
X006116Y010930D01*
X006116Y011135D01*
X005826Y011425D01*
X005621Y011425D01*
X005621Y010930D01*
X005621Y010930D01*
X006116Y010930D01*
X006116Y010725D01*
X005826Y010435D01*
X005621Y010435D01*
X005621Y010930D01*
X005621Y010930D01*
X005621Y010930D01*
X005621Y010435D01*
X005416Y010435D01*
X005621Y010574D02*
X005621Y010574D01*
X005621Y010733D02*
X005621Y010733D01*
X005621Y010891D02*
X005621Y010891D01*
X005621Y010930D02*
X005621Y010930D01*
X005621Y011425D01*
X005416Y011425D01*
X005126Y011135D01*
X005126Y010930D01*
X005621Y010930D01*
X005621Y011050D02*
X005621Y011050D01*
X005621Y011208D02*
X005621Y011208D01*
X005621Y011367D02*
X005621Y011367D01*
X005884Y011367D02*
X006931Y011367D01*
X006931Y011525D02*
X004670Y011525D01*
X004661Y011684D02*
X006931Y011684D01*
X006931Y011842D02*
X004661Y011842D01*
X004661Y012001D02*
X006931Y012001D01*
X006931Y012159D02*
X004661Y012159D01*
X004661Y012318D02*
X006931Y012318D01*
X006931Y012476D02*
X004661Y012476D01*
X004661Y012635D02*
X006931Y012635D01*
X006931Y012793D02*
X004661Y012793D01*
X005277Y012952D02*
X006931Y012952D01*
X006931Y013110D02*
X005427Y013110D01*
X005493Y013269D02*
X006931Y013269D01*
X006931Y013427D02*
X005511Y013427D01*
X005495Y013586D02*
X006931Y013586D01*
X006931Y013744D02*
X005429Y013744D01*
X005283Y013903D02*
X006931Y013903D01*
X006931Y014061D02*
X005674Y014061D01*
X005833Y014220D02*
X006931Y014220D01*
X006931Y014378D02*
X005861Y014378D01*
X005861Y014537D02*
X006931Y014537D01*
X006931Y014695D02*
X006143Y014695D01*
X006301Y014854D02*
X006931Y014854D01*
X006931Y015012D02*
X006421Y015012D01*
X006421Y015171D02*
X006931Y015171D01*
X006931Y015329D02*
X006421Y015329D01*
X006411Y015488D02*
X006931Y015488D01*
X006931Y015646D02*
X006411Y015646D01*
X006411Y015805D02*
X006931Y015805D01*
X006931Y015963D02*
X006411Y015963D01*
X006411Y016122D02*
X006931Y016122D01*
X006931Y016280D02*
X006411Y016280D01*
X006411Y016439D02*
X006931Y016439D01*
X006931Y016597D02*
X006382Y016597D01*
X006288Y016756D02*
X006931Y016756D01*
X006892Y016914D02*
X006033Y016914D01*
X005826Y017435D02*
X006116Y017725D01*
X006116Y017930D01*
X006116Y018135D01*
X005826Y018425D01*
X005621Y018425D01*
X005621Y017930D01*
X006116Y017930D01*
X005621Y017930D01*
X005621Y017930D01*
X005621Y017435D01*
X005826Y017435D01*
X005939Y017548D02*
X006954Y017548D01*
X006869Y017390D02*
X004661Y017390D01*
X004661Y017548D02*
X005303Y017548D01*
X005416Y017435D02*
X005126Y017725D01*
X005126Y017930D01*
X005621Y017930D01*
X005621Y017930D01*
X005621Y017930D01*
X005621Y017435D01*
X005416Y017435D01*
X005621Y017548D02*
X005621Y017548D01*
X005621Y017707D02*
X005621Y017707D01*
X005621Y017865D02*
X005621Y017865D01*
X005621Y017930D02*
X005621Y017930D01*
X005621Y018425D01*
X005416Y018425D01*
X005126Y018135D01*
X005126Y017930D01*
X005621Y017930D01*
X005621Y018024D02*
X005621Y018024D01*
X005621Y018182D02*
X005621Y018182D01*
X005621Y018341D02*
X005621Y018341D01*
X005910Y018341D02*
X006258Y018341D01*
X006069Y018182D02*
X006892Y018182D01*
X006904Y018182D02*
X009431Y018182D01*
X009431Y018341D02*
X008524Y018341D01*
X008683Y018499D02*
X009431Y018499D01*
X009431Y018658D02*
X008841Y018658D01*
X009000Y018816D02*
X009431Y018816D01*
X009431Y018975D02*
X009158Y018975D01*
X009317Y019133D02*
X009431Y019133D01*
X008723Y019926D02*
X008011Y019926D01*
X007996Y020084D02*
X008882Y020084D01*
X008651Y020243D02*
X007930Y020243D01*
X008085Y020401D02*
X008493Y020401D01*
X008421Y020560D02*
X008243Y020560D01*
X008402Y020718D02*
X008421Y020718D01*
X007650Y021352D02*
X002901Y021352D01*
X002901Y021194D02*
X007491Y021194D01*
X007333Y021035D02*
X002901Y021035D01*
X002901Y020877D02*
X007174Y020877D01*
X007143Y020845D02*
X007143Y020845D01*
X007016Y020718D02*
X002901Y020718D01*
X002901Y020560D02*
X005593Y020560D01*
X005435Y020401D02*
X002901Y020401D01*
X002901Y020243D02*
X005421Y020243D01*
X005421Y020084D02*
X002901Y020084D01*
X002901Y019926D02*
X005431Y019926D01*
X005431Y019767D02*
X002901Y019767D01*
X002901Y019609D02*
X005431Y019609D01*
X005431Y019450D02*
X004570Y019450D01*
X004272Y019450D02*
X002901Y019450D01*
X002901Y019292D02*
X004040Y019292D01*
X003931Y019133D02*
X002901Y019133D01*
X002901Y018975D02*
X003792Y018975D01*
X003731Y018816D02*
X002901Y018816D01*
X002901Y018658D02*
X003726Y018658D01*
X003731Y018499D02*
X002901Y018499D01*
X002901Y018341D02*
X003731Y018341D01*
X003725Y018182D02*
X002901Y018182D01*
X002901Y018024D02*
X003666Y018024D01*
X003666Y017865D02*
X002901Y017865D01*
X002901Y017707D02*
X003681Y017707D01*
X003681Y017548D02*
X002901Y017548D01*
X002901Y017390D02*
X003681Y017390D01*
X003681Y017231D02*
X002901Y017231D01*
X002901Y017073D02*
X003681Y017073D01*
X003681Y016914D02*
X002901Y016914D01*
X002901Y016756D02*
X003681Y016756D01*
X003681Y016597D02*
X002901Y016597D01*
X002901Y016439D02*
X003681Y016439D01*
X003703Y016280D02*
X002901Y016280D01*
X002901Y016122D02*
X003786Y016122D01*
X004018Y015963D02*
X002901Y015963D01*
X002901Y015805D02*
X005431Y015805D01*
X005431Y015646D02*
X005162Y015646D01*
X005320Y015488D02*
X005431Y015488D01*
X005421Y015329D02*
X005421Y015329D01*
X005421Y015171D02*
X005421Y015171D01*
X005421Y015012D02*
X005421Y015012D01*
X005421Y014854D02*
X005421Y014854D01*
X005421Y014695D02*
X005421Y014695D01*
X005421Y014537D02*
X005421Y014537D01*
X005421Y014430D02*
X005421Y014430D01*
X005421Y014378D02*
X005421Y014378D01*
X005421Y014220D02*
X005421Y014220D01*
X005421Y014061D02*
X005421Y014061D01*
X005168Y014061D02*
X004661Y014061D01*
X004661Y014220D02*
X005009Y014220D01*
X004981Y014378D02*
X004661Y014378D01*
X004720Y014537D02*
X004981Y014537D01*
X004127Y015329D02*
X002901Y015329D01*
X002901Y015171D02*
X003968Y015171D01*
X003810Y015012D02*
X002901Y015012D01*
X002901Y014854D02*
X003712Y014854D01*
X003681Y014695D02*
X002901Y014695D01*
X002901Y014537D02*
X003681Y014537D01*
X003681Y014378D02*
X002901Y014378D01*
X002901Y014220D02*
X003681Y014220D01*
X003681Y014061D02*
X002901Y014061D01*
X002901Y013903D02*
X003681Y013903D01*
X003681Y013744D02*
X002901Y013744D01*
X002901Y013586D02*
X003681Y013586D01*
X003681Y013427D02*
X002901Y013427D01*
X002901Y013269D02*
X003681Y013269D01*
X003681Y013110D02*
X002901Y013110D01*
X002901Y012952D02*
X003681Y012952D01*
X003681Y012793D02*
X002901Y012793D01*
X002901Y012635D02*
X003681Y012635D01*
X003681Y012476D02*
X002901Y012476D01*
X002901Y012318D02*
X003681Y012318D01*
X003681Y012159D02*
X002901Y012159D01*
X002901Y012001D02*
X003681Y012001D01*
X003681Y011842D02*
X002901Y011842D01*
X002901Y011684D02*
X003676Y011684D01*
X003681Y011525D02*
X002901Y011525D01*
X002901Y011367D02*
X003681Y011367D01*
X003681Y011208D02*
X002901Y011208D01*
X002901Y011050D02*
X003670Y011050D01*
X003666Y010891D02*
X002901Y010891D01*
X002901Y010733D02*
X003681Y010733D01*
X003681Y010574D02*
X002901Y010574D01*
X002901Y010416D02*
X003681Y010416D01*
X003681Y010257D02*
X002901Y010257D01*
X002901Y010099D02*
X003681Y010099D01*
X003681Y009940D02*
X002901Y009940D01*
X002901Y009782D02*
X003681Y009782D01*
X003681Y009623D02*
X002901Y009623D01*
X002901Y009465D02*
X003681Y009465D01*
X003681Y009306D02*
X002901Y009306D01*
X002901Y009148D02*
X003681Y009148D01*
X003681Y008989D02*
X002901Y008989D01*
X002901Y008831D02*
X003681Y008831D01*
X003681Y008672D02*
X002901Y008672D01*
X002901Y008514D02*
X003681Y008514D01*
X003681Y008355D02*
X002901Y008355D01*
X002901Y008197D02*
X003681Y008197D01*
X003699Y008038D02*
X002901Y008038D01*
X002901Y007880D02*
X003778Y007880D01*
X003937Y007721D02*
X002901Y007721D01*
X002901Y007563D02*
X004081Y007563D01*
X005181Y007404D02*
X002901Y007404D01*
X002901Y007246D02*
X005181Y007246D01*
X005181Y007087D02*
X002901Y007087D01*
X002901Y006929D02*
X005181Y006929D01*
X005181Y006770D02*
X002901Y006770D01*
X002901Y006612D02*
X005181Y006612D01*
X005181Y006453D02*
X002901Y006453D01*
X002901Y006295D02*
X004163Y006295D01*
X004239Y006370D02*
X003981Y006112D01*
X003981Y005930D01*
X004421Y005930D01*
X004861Y005930D01*
X004861Y006112D01*
X004603Y006370D01*
X004421Y006370D01*
X004421Y005930D01*
X004421Y005930D01*
X004861Y005930D01*
X004861Y005748D01*
X004603Y005490D01*
X004421Y005490D01*
X004421Y005930D01*
X004421Y005930D01*
X004421Y005930D01*
X004421Y006370D01*
X004239Y006370D01*
X004421Y006295D02*
X004421Y006295D01*
X004421Y006136D02*
X004421Y006136D01*
X004421Y005978D02*
X004421Y005978D01*
X004421Y005930D02*
X004421Y005930D01*
X004421Y005490D01*
X004239Y005490D01*
X003981Y005748D01*
X003981Y005930D01*
X004421Y005930D01*
X004421Y005819D02*
X004421Y005819D01*
X004421Y005661D02*
X004421Y005661D01*
X004421Y005502D02*
X004421Y005502D01*
X004615Y005502D02*
X005181Y005502D01*
X005181Y005344D02*
X002901Y005344D01*
X002901Y005502D02*
X004227Y005502D01*
X004068Y005661D02*
X002901Y005661D01*
X002901Y005819D02*
X003981Y005819D01*
X003981Y005978D02*
X002901Y005978D01*
X002901Y006136D02*
X004005Y006136D01*
X004679Y006295D02*
X005181Y006295D01*
X005181Y006136D02*
X004837Y006136D01*
X004861Y005978D02*
X005181Y005978D01*
X005181Y005819D02*
X004861Y005819D01*
X004774Y005661D02*
X005181Y005661D01*
X005181Y005185D02*
X002901Y005185D01*
X002901Y005027D02*
X005181Y005027D01*
X005181Y004868D02*
X002901Y004868D01*
X002901Y004710D02*
X005181Y004710D01*
X005181Y004551D02*
X002901Y004551D01*
X002901Y004393D02*
X005181Y004393D01*
X005181Y004234D02*
X002901Y004234D01*
X002901Y004076D02*
X005181Y004076D01*
X005181Y003917D02*
X002901Y003917D01*
X002901Y003759D02*
X005181Y003759D01*
X005181Y003600D02*
X002901Y003600D01*
X002901Y003442D02*
X005181Y003442D01*
X005181Y003283D02*
X002901Y003283D01*
X002901Y003125D02*
X003410Y003125D01*
X003135Y002966D02*
X002901Y002966D01*
X002901Y002808D02*
X002974Y002808D01*
X004432Y003125D02*
X005181Y003125D01*
X005181Y002966D02*
X004706Y002966D01*
X004868Y002808D02*
X005181Y002808D01*
X005181Y002649D02*
X004995Y002649D01*
X005087Y002491D02*
X005181Y002491D01*
X005181Y002332D02*
X005149Y002332D01*
X005191Y002174D02*
X005247Y002174D01*
X005211Y002015D02*
X005370Y002015D01*
X005488Y001857D02*
X005211Y001857D01*
X005194Y001698D02*
X005607Y001698D01*
X005726Y001540D02*
X005152Y001540D01*
X005093Y001381D02*
X005845Y001381D01*
X005964Y001223D02*
X005002Y001223D01*
X004879Y001064D02*
X006083Y001064D01*
X012809Y007563D02*
X012827Y007563D01*
X012711Y007721D02*
X012690Y007721D01*
X012666Y007880D02*
X012571Y007880D01*
X012670Y008038D02*
X012452Y008038D01*
X012333Y008197D02*
X012735Y008197D01*
X012889Y008355D02*
X012215Y008355D01*
X012096Y008514D02*
X012876Y008514D01*
X012882Y008508D02*
X013064Y008433D01*
X013777Y008433D01*
X013960Y008508D01*
X014100Y008648D01*
X014176Y008831D01*
X014176Y009029D01*
X014100Y009212D01*
X013960Y009352D01*
X013777Y009427D01*
X013064Y009427D01*
X012882Y009352D01*
X012742Y009212D01*
X012666Y009029D01*
X012666Y008831D01*
X012742Y008648D01*
X012882Y008508D01*
X012732Y008672D02*
X011977Y008672D01*
X011858Y008831D02*
X012666Y008831D01*
X012666Y008989D02*
X011739Y008989D01*
X011711Y009148D02*
X012715Y009148D01*
X012836Y009306D02*
X011711Y009306D01*
X011658Y009465D02*
X012987Y009465D01*
X013064Y009433D02*
X012882Y009508D01*
X012742Y009648D01*
X012666Y009831D01*
X012666Y010029D01*
X012742Y010212D01*
X012882Y010352D01*
X013064Y010427D01*
X013777Y010427D01*
X013960Y010352D01*
X014100Y010212D01*
X014176Y010029D01*
X014176Y009831D01*
X014100Y009648D01*
X013960Y009508D01*
X013777Y009433D01*
X013064Y009433D01*
X012767Y009623D02*
X011542Y009623D01*
X010800Y009623D02*
X010661Y009623D01*
X010661Y009465D02*
X010684Y009465D01*
X010661Y009782D02*
X012686Y009782D01*
X012666Y009940D02*
X010661Y009940D01*
X010661Y010099D02*
X012695Y010099D01*
X012787Y010257D02*
X010661Y010257D01*
X010661Y010416D02*
X013036Y010416D01*
X013064Y010433D02*
X013777Y010433D01*
X013960Y010508D01*
X014100Y010648D01*
X014176Y010831D01*
X014176Y011029D01*
X014100Y011212D01*
X013960Y011352D01*
X013777Y011427D01*
X013064Y011427D01*
X012882Y011352D01*
X012742Y011212D01*
X012666Y011029D01*
X012666Y010831D01*
X012742Y010648D01*
X012882Y010508D01*
X013064Y010433D01*
X012816Y010574D02*
X010661Y010574D01*
X010661Y010733D02*
X012707Y010733D01*
X012666Y010891D02*
X010614Y010891D01*
X010494Y011050D02*
X012674Y011050D01*
X012740Y011208D02*
X007911Y011208D01*
X007911Y011367D02*
X012917Y011367D01*
X013924Y011367D02*
X015181Y011367D01*
X015181Y011525D02*
X013977Y011525D01*
X014115Y011684D02*
X015181Y011684D01*
X015181Y011842D02*
X014176Y011842D01*
X014176Y012001D02*
X015181Y012001D01*
X015181Y012159D02*
X014122Y012159D01*
X013994Y012318D02*
X015181Y012318D01*
X015181Y012476D02*
X011273Y012476D01*
X011075Y012635D02*
X012840Y012635D01*
X012830Y012645D02*
X012878Y012596D01*
X012934Y012556D01*
X012995Y012525D01*
X013061Y012503D01*
X013129Y012493D01*
X013421Y012493D01*
X013713Y012493D01*
X013781Y012503D01*
X013846Y012525D01*
X013908Y012556D01*
X013963Y012596D01*
X014012Y012645D01*
X014053Y012701D01*
X014084Y012762D01*
X014105Y012828D01*
X014116Y012896D01*
X014116Y012930D01*
X014116Y012964D01*
X014105Y013032D01*
X014084Y013098D01*
X014053Y013159D01*
X014012Y013215D01*
X013963Y013264D01*
X013908Y013304D01*
X013846Y013335D01*
X013781Y013357D01*
X013713Y013367D01*
X013421Y013367D01*
X013421Y012930D01*
X014116Y012930D01*
X013421Y012930D01*
X013421Y012930D01*
X013421Y012493D01*
X013421Y012930D01*
X013421Y012930D01*
X013421Y012930D01*
X013421Y013367D01*
X013129Y013367D01*
X013061Y013357D01*
X012995Y013335D01*
X012934Y013304D01*
X012878Y013264D01*
X012830Y013215D01*
X012789Y013159D01*
X012758Y013098D01*
X012737Y013032D01*
X012726Y012964D01*
X012726Y012930D01*
X012726Y012896D01*
X012737Y012828D01*
X012758Y012762D01*
X012789Y012701D01*
X012830Y012645D01*
X012748Y012793D02*
X010876Y012793D01*
X010678Y012952D02*
X012726Y012952D01*
X012726Y012930D02*
X013421Y012930D01*
X012726Y012930D01*
X012764Y013110D02*
X010480Y013110D01*
X010411Y013269D02*
X012885Y013269D01*
X013421Y013269D02*
X013421Y013269D01*
X013421Y013110D02*
X013421Y013110D01*
X013421Y012952D02*
X013421Y012952D01*
X013421Y012930D02*
X013421Y012930D01*
X013421Y012793D02*
X013421Y012793D01*
X013421Y012635D02*
X013421Y012635D01*
X014002Y012635D02*
X015181Y012635D01*
X015181Y012793D02*
X014094Y012793D01*
X014116Y012952D02*
X015181Y012952D01*
X015181Y013110D02*
X014078Y013110D01*
X013957Y013269D02*
X015181Y013269D01*
X015181Y013427D02*
X011668Y013427D01*
X010674Y013427D02*
X010411Y013427D01*
X010411Y013586D02*
X010452Y013586D01*
X009431Y013110D02*
X009427Y013110D01*
X009425Y012952D02*
X009277Y012952D01*
X009443Y012793D02*
X007911Y012793D01*
X007911Y012635D02*
X009523Y012635D01*
X009704Y012476D02*
X007911Y012476D01*
X007911Y012318D02*
X009902Y012318D01*
X010100Y012159D02*
X007911Y012159D01*
X007911Y012001D02*
X010298Y012001D01*
X010496Y011842D02*
X007911Y011842D01*
X007911Y011684D02*
X010695Y011684D01*
X010883Y011525D02*
X007911Y011525D01*
X006931Y011208D02*
X006043Y011208D01*
X006116Y011050D02*
X006931Y011050D01*
X006931Y010891D02*
X006116Y010891D01*
X006116Y010733D02*
X006931Y010733D01*
X006934Y010574D02*
X005965Y010574D01*
X005126Y010733D02*
X004740Y010733D01*
X004776Y010891D02*
X005126Y010891D01*
X005126Y011050D02*
X004772Y011050D01*
X004706Y011208D02*
X005199Y011208D01*
X005357Y011367D02*
X004681Y011367D01*
X007911Y012952D02*
X008565Y012952D01*
X008415Y013110D02*
X007911Y013110D01*
X007911Y013269D02*
X008349Y013269D01*
X008331Y013427D02*
X007911Y013427D01*
X007911Y013586D02*
X008347Y013586D01*
X008412Y013744D02*
X007911Y013744D01*
X007911Y013903D02*
X008431Y013903D01*
X008431Y014061D02*
X007911Y014061D01*
X007911Y014220D02*
X008431Y014220D01*
X008431Y014378D02*
X007911Y014378D01*
X007911Y014537D02*
X008431Y014537D01*
X008431Y014695D02*
X007911Y014695D01*
X007911Y014854D02*
X008431Y014854D01*
X008431Y015012D02*
X007911Y015012D01*
X007911Y015171D02*
X008431Y015171D01*
X008431Y015329D02*
X007911Y015329D01*
X007911Y015488D02*
X008431Y015488D01*
X008431Y015646D02*
X007911Y015646D01*
X007911Y015805D02*
X008431Y015805D01*
X008431Y015963D02*
X007911Y015963D01*
X007911Y016122D02*
X008431Y016122D01*
X008431Y016280D02*
X007911Y016280D01*
X007911Y016439D02*
X008431Y016439D01*
X008431Y016597D02*
X007911Y016597D01*
X007911Y016756D02*
X008431Y016756D01*
X008431Y016914D02*
X007949Y016914D01*
X008011Y017073D02*
X008431Y017073D01*
X008431Y017231D02*
X008011Y017231D01*
X007973Y017390D02*
X008431Y017390D01*
X008421Y017548D02*
X007887Y017548D01*
X007691Y017707D02*
X008421Y017707D01*
X008421Y017865D02*
X006116Y017865D01*
X006116Y018024D02*
X008557Y018024D01*
X008089Y019292D02*
X006495Y019292D01*
X006411Y019450D02*
X007066Y019450D01*
X006915Y019609D02*
X006411Y019609D01*
X006411Y019767D02*
X006850Y019767D01*
X006831Y019926D02*
X006411Y019926D01*
X006421Y020084D02*
X006846Y020084D01*
X006912Y020243D02*
X006421Y020243D01*
X006407Y020401D02*
X006931Y020401D01*
X006944Y020560D02*
X006248Y020560D01*
X006658Y021986D02*
X004433Y021986D01*
X004707Y022145D02*
X006499Y022145D01*
X006421Y022303D02*
X004868Y022303D01*
X004996Y022462D02*
X006421Y022462D01*
X006421Y022620D02*
X005087Y022620D01*
X005149Y022779D02*
X005615Y022779D01*
X005457Y022937D02*
X005191Y022937D01*
X005211Y023096D02*
X005421Y023096D01*
X005421Y023254D02*
X005211Y023254D01*
X005194Y023413D02*
X005446Y023413D01*
X005605Y023571D02*
X005152Y023571D01*
X005093Y023730D02*
X023499Y023730D01*
X023590Y023888D02*
X005002Y023888D01*
X004879Y024047D02*
X023713Y024047D01*
X018909Y021352D02*
X017911Y021352D01*
X017911Y021194D02*
X018750Y021194D01*
X018637Y021035D02*
X017921Y021035D01*
X017921Y020877D02*
X018518Y020877D01*
X018399Y020718D02*
X017916Y020718D01*
X017757Y020560D02*
X018281Y020560D01*
X017084Y020560D02*
X017061Y020560D01*
X016921Y020877D02*
X016823Y020877D01*
X016921Y021035D02*
X016705Y021035D01*
X016592Y021194D02*
X016931Y021194D01*
X016931Y021352D02*
X016432Y021352D01*
X015955Y020401D02*
X015657Y020401D01*
X015815Y020243D02*
X016074Y020243D01*
X015960Y020084D02*
X016193Y020084D01*
X016118Y019926D02*
X016312Y019926D01*
X016277Y019767D02*
X016431Y019767D01*
X016435Y019609D02*
X016549Y019609D01*
X016594Y019450D02*
X016799Y019450D01*
X016752Y019292D02*
X018917Y019292D01*
X019421Y019292D02*
X019421Y019292D01*
X019421Y019133D02*
X019421Y019133D01*
X019421Y018975D02*
X019421Y018975D01*
X019421Y018930D02*
X019421Y018930D01*
X019421Y018816D02*
X019421Y018816D01*
X019421Y018658D02*
X019421Y018658D01*
X019421Y018499D02*
X019421Y018499D01*
X019421Y018341D02*
X019421Y018341D01*
X019421Y018182D02*
X019421Y018182D01*
X019421Y018024D02*
X019421Y018024D01*
X019421Y017930D02*
X019421Y017930D01*
X019421Y017865D02*
X019421Y017865D01*
X019421Y017707D02*
X019421Y017707D01*
X019421Y017548D02*
X019421Y017548D01*
X019892Y017548D02*
X021169Y017548D01*
X021166Y017390D02*
X019869Y017390D01*
X020081Y017231D02*
X021203Y017231D01*
X021293Y017073D02*
X020158Y017073D01*
X020176Y016914D02*
X021516Y016914D01*
X021181Y017707D02*
X020055Y017707D01*
X020111Y017865D02*
X021181Y017865D01*
X021181Y018024D02*
X020106Y018024D01*
X020036Y018182D02*
X021181Y018182D01*
X021181Y018341D02*
X019831Y018341D01*
X019754Y018499D02*
X021181Y018499D01*
X021181Y018658D02*
X020021Y018658D01*
X020101Y018816D02*
X021181Y018816D01*
X021181Y018975D02*
X020114Y018975D01*
X020066Y019133D02*
X021181Y019133D01*
X021181Y019292D02*
X019925Y019292D01*
X016431Y018182D02*
X016161Y018182D01*
X016161Y018024D02*
X016431Y018024D01*
X016431Y017865D02*
X016161Y017865D01*
X016161Y017707D02*
X016431Y017707D01*
X016431Y017548D02*
X016161Y017548D01*
X016161Y017390D02*
X016431Y017390D01*
X016431Y017231D02*
X016161Y017231D01*
X016161Y017073D02*
X016431Y017073D01*
X016431Y016914D02*
X016161Y016914D01*
X016161Y016756D02*
X016431Y016756D01*
X016431Y016597D02*
X016161Y016597D01*
X016161Y016439D02*
X016431Y016439D01*
X016431Y016280D02*
X016161Y016280D01*
X016161Y016122D02*
X016431Y016122D01*
X016431Y015963D02*
X016161Y015963D01*
X016161Y015805D02*
X016431Y015805D01*
X016431Y015646D02*
X016161Y015646D01*
X016161Y015488D02*
X016431Y015488D01*
X016431Y015329D02*
X016161Y015329D01*
X016161Y015171D02*
X016431Y015171D01*
X016431Y015012D02*
X016161Y015012D01*
X016161Y014854D02*
X016431Y014854D01*
X016431Y014695D02*
X016161Y014695D01*
X016161Y014537D02*
X016431Y014537D01*
X016431Y014378D02*
X016161Y014378D01*
X016161Y014220D02*
X016431Y014220D01*
X016431Y014061D02*
X016161Y014061D01*
X016161Y013903D02*
X016431Y013903D01*
X016468Y013744D02*
X016161Y013744D01*
X016161Y013586D02*
X016572Y013586D01*
X015181Y013586D02*
X014037Y013586D01*
X014140Y013744D02*
X015181Y013744D01*
X015181Y013903D02*
X014176Y013903D01*
X014163Y014061D02*
X015181Y014061D01*
X015181Y014220D02*
X014092Y014220D01*
X013897Y014378D02*
X015181Y014378D01*
X015181Y014537D02*
X013988Y014537D01*
X014119Y014695D02*
X015181Y014695D01*
X015181Y014854D02*
X014176Y014854D01*
X014176Y015012D02*
X015181Y015012D01*
X015181Y015171D02*
X014117Y015171D01*
X013983Y015329D02*
X015181Y015329D01*
X015181Y016439D02*
X013792Y016439D01*
X014049Y016597D02*
X015181Y016597D01*
X015181Y016756D02*
X014145Y016756D01*
X014176Y016914D02*
X015181Y016914D01*
X015181Y017073D02*
X014158Y017073D01*
X014081Y017231D02*
X015181Y017231D01*
X015181Y017390D02*
X013869Y017390D01*
X014000Y017548D02*
X015181Y017548D01*
X015181Y017707D02*
X014124Y017707D01*
X014176Y017865D02*
X015181Y017865D01*
X015134Y018024D02*
X014176Y018024D01*
X014112Y018182D02*
X014976Y018182D01*
X014817Y018341D02*
X013971Y018341D01*
X013846Y018525D02*
X013908Y018556D01*
X013963Y018596D01*
X014012Y018645D01*
X014053Y018701D01*
X014084Y018762D01*
X014105Y018828D01*
X014116Y018896D01*
X014116Y018930D01*
X013421Y018930D01*
X013421Y018930D01*
X013421Y018493D01*
X013713Y018493D01*
X013781Y018503D01*
X013846Y018525D01*
X013754Y018499D02*
X014659Y018499D01*
X014500Y018658D02*
X014021Y018658D01*
X014101Y018816D02*
X014342Y018816D01*
X014183Y018975D02*
X014114Y018975D01*
X013948Y019292D02*
X013925Y019292D01*
X013931Y019450D02*
X011723Y019450D01*
X011788Y019292D02*
X012917Y019292D01*
X012934Y019304D02*
X012878Y019264D01*
X012830Y019215D01*
X012789Y019159D01*
X012758Y019098D01*
X012737Y019032D01*
X012726Y018964D01*
X012726Y018930D01*
X012726Y018896D01*
X012737Y018828D01*
X012758Y018762D01*
X012789Y018701D01*
X012830Y018645D01*
X012878Y018596D01*
X012934Y018556D01*
X012995Y018525D01*
X013061Y018503D01*
X013129Y018493D01*
X013421Y018493D01*
X013421Y018930D01*
X013421Y018930D01*
X013421Y018930D01*
X013421Y019367D01*
X013129Y019367D01*
X013061Y019357D01*
X012995Y019335D01*
X012934Y019304D01*
X012776Y019133D02*
X011906Y019133D01*
X011950Y018975D02*
X012727Y018975D01*
X012726Y018930D02*
X013421Y018930D01*
X012726Y018930D01*
X012740Y018816D02*
X011939Y018816D01*
X011866Y018658D02*
X012821Y018658D01*
X013088Y018499D02*
X011682Y018499D01*
X011913Y019609D02*
X013931Y019609D01*
X013931Y019767D02*
X011988Y019767D01*
X012011Y019926D02*
X013931Y019926D01*
X013931Y020084D02*
X011992Y020084D01*
X011922Y020243D02*
X013931Y020243D01*
X013931Y020401D02*
X011745Y020401D01*
X010743Y020560D02*
X013931Y020560D01*
X013931Y020718D02*
X013336Y020718D01*
X013560Y020877D02*
X013931Y020877D01*
X013934Y021035D02*
X013719Y021035D01*
X013877Y021194D02*
X014000Y021194D01*
X014036Y021352D02*
X014159Y021352D01*
X013442Y022145D02*
X013342Y022145D01*
X013284Y021986D02*
X013184Y021986D01*
X013125Y021828D02*
X010761Y021828D01*
X010871Y021986D02*
X012658Y021986D01*
X012499Y022145D02*
X012258Y022145D01*
X012361Y022248D02*
X012361Y022430D01*
X012361Y022612D01*
X012103Y022870D01*
X011921Y022870D01*
X011921Y022430D01*
X012361Y022430D01*
X011921Y022430D01*
X011921Y022430D01*
X011921Y021990D01*
X012103Y021990D01*
X012361Y022248D01*
X012361Y022303D02*
X012421Y022303D01*
X012421Y022462D02*
X012361Y022462D01*
X012353Y022620D02*
X012421Y022620D01*
X012431Y022779D02*
X012195Y022779D01*
X011921Y022779D02*
X011921Y022779D01*
X011921Y022870D02*
X011921Y022430D01*
X011921Y022430D01*
X011921Y022430D01*
X011921Y021990D01*
X011739Y021990D01*
X011481Y022248D01*
X011481Y022430D01*
X011921Y022430D01*
X011921Y022430D01*
X011481Y022430D01*
X011481Y022612D01*
X011739Y022870D01*
X011921Y022870D01*
X011921Y022620D02*
X011921Y022620D01*
X011921Y022462D02*
X011921Y022462D01*
X011921Y022303D02*
X011921Y022303D01*
X011921Y022145D02*
X011921Y022145D01*
X011584Y022145D02*
X010911Y022145D01*
X010921Y022303D02*
X011481Y022303D01*
X011481Y022462D02*
X010921Y022462D01*
X010921Y022620D02*
X011489Y022620D01*
X011647Y022779D02*
X010779Y022779D01*
X010062Y022779D02*
X009779Y022779D01*
X009921Y022620D02*
X009921Y022620D01*
X009921Y022462D02*
X009921Y022462D01*
X007967Y021669D02*
X002901Y021669D01*
X002901Y021511D02*
X007808Y021511D01*
X007992Y019767D02*
X008565Y019767D01*
X008406Y019609D02*
X007926Y019609D01*
X007775Y019450D02*
X008248Y019450D01*
X007150Y017707D02*
X006097Y017707D01*
X006831Y017231D02*
X004661Y017231D01*
X004661Y017073D02*
X006831Y017073D01*
X005144Y017707D02*
X004729Y017707D01*
X004776Y017865D02*
X005126Y017865D01*
X005126Y018024D02*
X004776Y018024D01*
X004717Y018182D02*
X005173Y018182D01*
X005331Y018341D02*
X004711Y018341D01*
X004516Y015646D02*
X002901Y015646D01*
X002901Y015488D02*
X004285Y015488D01*
X011695Y016439D02*
X013050Y016439D01*
X012810Y016280D02*
X011885Y016280D01*
X011976Y016122D02*
X012704Y016122D01*
X012666Y015963D02*
X012011Y015963D01*
X012003Y015805D02*
X012677Y015805D01*
X012744Y015646D02*
X011938Y015646D01*
X011792Y015488D02*
X012932Y015488D01*
X013421Y018499D02*
X013421Y018499D01*
X013421Y018658D02*
X013421Y018658D01*
X013421Y018816D02*
X013421Y018816D01*
X013421Y018930D02*
X013421Y018930D01*
X013421Y018975D02*
X013421Y018975D01*
X013421Y019133D02*
X013421Y019133D01*
X013421Y019292D02*
X013421Y019292D01*
X014935Y019609D02*
X015035Y019609D01*
X015094Y019450D02*
X015194Y019450D01*
X015252Y019292D02*
X015366Y019292D01*
X015411Y019133D02*
X015525Y019133D01*
X015569Y018975D02*
X015683Y018975D01*
X015728Y018816D02*
X015842Y018816D01*
X015886Y018658D02*
X016000Y018658D01*
X016045Y018499D02*
X016159Y018499D01*
X016135Y018341D02*
X016317Y018341D01*
X014921Y019767D02*
X014911Y019767D01*
X014911Y019926D02*
X014921Y019926D01*
X014911Y020084D02*
X014921Y020084D01*
X014911Y020243D02*
X015026Y020243D01*
X014911Y020401D02*
X015185Y020401D01*
X013601Y022303D02*
X013421Y022303D01*
X015659Y022462D02*
X016931Y022462D01*
X016931Y022620D02*
X015818Y022620D01*
X015921Y022779D02*
X016931Y022779D01*
X016931Y022937D02*
X015921Y022937D01*
X015921Y023096D02*
X016959Y023096D01*
X017052Y023254D02*
X015804Y023254D01*
X015645Y023413D02*
X017305Y023413D01*
X017411Y012318D02*
X018847Y012318D01*
X018720Y012159D02*
X017411Y012159D01*
X017411Y012001D02*
X018666Y012001D01*
X018666Y011842D02*
X017411Y011842D01*
X017411Y011684D02*
X018727Y011684D01*
X018865Y011525D02*
X017411Y011525D01*
X017411Y011367D02*
X018917Y011367D01*
X018740Y011208D02*
X017411Y011208D01*
X017411Y011050D02*
X018674Y011050D01*
X018666Y010891D02*
X017411Y010891D01*
X017411Y010733D02*
X018707Y010733D01*
X018816Y010574D02*
X017411Y010574D01*
X015181Y010574D02*
X014026Y010574D01*
X014135Y010733D02*
X015181Y010733D01*
X015181Y010891D02*
X014176Y010891D01*
X014167Y011050D02*
X015181Y011050D01*
X015181Y011208D02*
X014102Y011208D01*
X013806Y010416D02*
X015181Y010416D01*
X015181Y010257D02*
X014055Y010257D01*
X014147Y010099D02*
X015181Y010099D01*
X015181Y009940D02*
X014176Y009940D01*
X014155Y009782D02*
X015181Y009782D01*
X015181Y009623D02*
X014075Y009623D01*
X013855Y009465D02*
X015181Y009465D01*
X015181Y009306D02*
X014006Y009306D01*
X014127Y009148D02*
X015181Y009148D01*
X015181Y008989D02*
X014176Y008989D01*
X014176Y008831D02*
X015181Y008831D01*
X015181Y008672D02*
X014110Y008672D01*
X013965Y008514D02*
X015181Y008514D01*
X015181Y008355D02*
X013952Y008355D01*
X014106Y008197D02*
X015143Y008197D01*
X015081Y008038D02*
X014172Y008038D01*
X014176Y007880D02*
X015081Y007880D01*
X015119Y007721D02*
X014130Y007721D01*
X014014Y007563D02*
X015204Y007563D01*
X023194Y008355D02*
X024181Y008355D01*
X024181Y008197D02*
X023371Y008197D01*
X023440Y008038D02*
X024181Y008038D01*
X024181Y007880D02*
X023449Y007880D01*
X023403Y007721D02*
X024181Y007721D01*
X024181Y007563D02*
X023282Y007563D01*
X025182Y003125D02*
X025561Y003125D01*
X025561Y002966D02*
X025456Y002966D01*
M02*
