G75*
%MOIN*%
%OFA0B0*%
%FSLAX24Y24*%
%IPPOS*%
%LPD*%
%AMOC8*
5,1,8,0,0,1.08239X$1,22.5*
%
%ADD10C,0.0945*%
%ADD11C,0.1063*%
%ADD12C,0.1837*%
%ADD13R,0.0500X0.0500*%
%ADD14C,0.0500*%
%ADD15C,0.0600*%
%ADD16R,0.1575X0.0500*%
%ADD17R,0.0396X0.0396*%
%ADD18C,0.0160*%
%ADD19C,0.0320*%
%ADD20C,0.0240*%
%ADD21C,0.0660*%
%ADD22C,0.0500*%
D10*
X002094Y013520D03*
D11*
X003865Y013520D03*
D12*
X017894Y004020D03*
D13*
X027194Y014420D03*
X032794Y014420D03*
D14*
X032006Y014420D03*
X031219Y014420D03*
X030431Y014420D03*
X029644Y014420D03*
X028856Y014420D03*
X026406Y014420D03*
X025619Y014420D03*
X024831Y014420D03*
D15*
X022694Y015420D02*
X022694Y016020D01*
X021694Y016020D02*
X021694Y015420D01*
X020694Y015420D02*
X020694Y016020D01*
X020694Y005120D02*
X020694Y004520D01*
X021694Y004520D02*
X021694Y005120D01*
X022694Y005120D02*
X022694Y004520D01*
X022694Y002620D02*
X022694Y002020D01*
X021694Y002020D02*
X021694Y002620D01*
X020694Y002620D02*
X020694Y002020D01*
D16*
X037494Y005620D03*
X037494Y006620D03*
X037494Y007620D03*
X037494Y008620D03*
X037494Y009620D03*
X037494Y010620D03*
X037494Y011620D03*
X037494Y012620D03*
X037494Y013620D03*
X037494Y014620D03*
D17*
X037994Y015420D03*
X037994Y016020D03*
X035594Y015320D03*
X035094Y015320D03*
X033994Y015020D03*
X035294Y014220D03*
X033844Y013420D03*
X033194Y012920D03*
X033194Y012320D03*
X035294Y012420D03*
X035294Y013320D03*
X030794Y013720D03*
X028094Y013420D03*
X027194Y012320D03*
X024794Y011920D03*
X023594Y012320D03*
X023094Y012020D03*
X022394Y011720D03*
X022394Y012320D03*
X023094Y012620D03*
X022394Y013020D03*
X023494Y013320D03*
X023494Y013920D03*
X023494Y014520D03*
X024094Y014720D03*
X024794Y013620D03*
X024094Y011220D03*
X027194Y010820D03*
X027894Y010720D03*
X029994Y010620D03*
X029994Y009920D03*
X031794Y009920D03*
X031794Y010620D03*
X035294Y010420D03*
X035294Y011420D03*
X035294Y009420D03*
X035294Y008420D03*
X035294Y007420D03*
X035294Y006420D03*
X032894Y006420D03*
X032894Y007020D03*
X030894Y007670D03*
X029994Y008120D03*
X029394Y008120D03*
X027194Y008220D03*
X023794Y008520D03*
X023694Y007720D03*
X022294Y007420D03*
X020294Y007420D03*
X018394Y008920D03*
X018394Y009620D03*
X018394Y010320D03*
X019594Y010620D03*
X018394Y011020D03*
X018394Y011720D03*
X016194Y011020D03*
X015594Y011020D03*
X015594Y010320D03*
X016194Y010320D03*
X024094Y009820D03*
X024594Y006620D03*
X025294Y006620D03*
X025294Y005920D03*
X024594Y005920D03*
X024294Y002020D03*
X028894Y001320D03*
X035294Y005420D03*
X005894Y011320D03*
X003294Y011320D03*
D18*
X017094Y013620D02*
X017094Y008420D01*
X019794Y005720D01*
X019794Y001620D01*
X020094Y001320D01*
X023594Y001320D01*
X024294Y002020D01*
X021694Y002320D02*
X021694Y003220D01*
X022094Y003620D01*
X023294Y003620D01*
X023594Y003920D01*
X023594Y006620D01*
X024394Y007420D01*
X024394Y009020D01*
X025094Y009720D01*
X028094Y009720D01*
X028594Y010220D01*
X028594Y012020D01*
X028094Y012520D01*
X028094Y013420D01*
X028856Y014420D02*
X028856Y014883D01*
X029094Y015120D01*
X033894Y015120D01*
X033994Y015020D01*
X032994Y014220D02*
X032794Y014420D01*
X032994Y014220D02*
X035294Y014220D01*
X033944Y013320D02*
X033844Y013420D01*
X033944Y013320D02*
X035294Y013320D01*
X033194Y012920D02*
X031094Y012920D01*
X030794Y013220D01*
X030794Y013720D01*
X030294Y014282D02*
X030431Y014420D01*
X030294Y014282D02*
X030294Y013020D01*
X030994Y012320D01*
X033194Y012320D01*
X027894Y010720D02*
X027494Y010320D01*
X024994Y010320D01*
X024494Y009820D01*
X024094Y009820D01*
X023794Y008520D02*
X019594Y008520D01*
X020294Y007420D02*
X022294Y007420D01*
X024094Y011220D02*
X024094Y014720D01*
X022694Y015020D02*
X022694Y015720D01*
X022694Y015020D02*
X022194Y014520D01*
X017994Y014520D01*
X017094Y013620D01*
D19*
X019594Y010620D02*
X019594Y008520D01*
X019594Y007020D01*
X020694Y005920D01*
X020694Y004820D01*
X022694Y004820D02*
X022694Y007020D01*
X022294Y007420D01*
X027194Y010820D02*
X027194Y012320D01*
X028856Y013157D02*
X028856Y014420D01*
X027194Y014420D01*
X028856Y013157D02*
X030894Y011120D01*
X030894Y007670D01*
X030894Y004520D01*
X028894Y002520D01*
X028894Y001320D01*
X035294Y005420D02*
X035294Y006420D01*
X035294Y007420D01*
X035294Y008420D01*
X035294Y009420D01*
X035294Y010420D01*
X035294Y011420D01*
X035294Y012420D01*
X035294Y013320D01*
X035294Y014220D01*
D20*
X014914Y008723D02*
X014914Y000740D01*
X034894Y000740D01*
X034784Y000776D01*
X034784Y000776D01*
X034283Y001094D01*
X034283Y001094D01*
X033876Y001527D01*
X033876Y001527D01*
X033590Y002048D01*
X033590Y002048D01*
X033442Y002623D01*
X033442Y003217D01*
X033590Y003792D01*
X033590Y003792D01*
X033876Y004313D01*
X033876Y004313D01*
X034283Y004746D01*
X034283Y004746D01*
X034784Y005064D01*
X034784Y005064D01*
X035349Y005248D01*
X035942Y005285D01*
X036375Y005203D01*
X036336Y005296D01*
X036336Y005944D01*
X031424Y005944D01*
X031424Y006183D02*
X036383Y006183D01*
X036392Y006160D02*
X036433Y006120D01*
X036392Y006080D01*
X036336Y005944D01*
X036392Y006160D02*
X036336Y006296D01*
X036336Y006944D01*
X036392Y007080D01*
X036433Y007120D01*
X036392Y007160D01*
X036336Y007296D01*
X036336Y007944D01*
X036392Y008080D01*
X036433Y008120D01*
X036392Y008160D01*
X036336Y008296D01*
X036336Y008944D01*
X036392Y009080D01*
X036433Y009120D01*
X036392Y009160D01*
X036336Y009296D01*
X036336Y009944D01*
X036392Y010080D01*
X036433Y010120D01*
X036392Y010160D01*
X036336Y010296D01*
X036336Y010944D01*
X036392Y011080D01*
X036433Y011120D01*
X036392Y011160D01*
X036336Y011296D01*
X036336Y011944D01*
X036392Y012080D01*
X036433Y012120D01*
X036392Y012160D01*
X036336Y012296D01*
X036336Y012944D01*
X036392Y013080D01*
X036433Y013120D01*
X036392Y013160D01*
X036336Y013296D01*
X036336Y013944D01*
X036392Y014080D01*
X036433Y014120D01*
X036392Y014160D01*
X036336Y014296D01*
X036336Y014944D01*
X036392Y015080D01*
X036497Y015184D01*
X036633Y015240D01*
X037194Y015240D01*
X037194Y016059D01*
X037300Y016317D01*
X037497Y016513D01*
X037634Y016570D01*
X034833Y016570D01*
X035383Y016020D01*
X035733Y016020D01*
X035990Y015913D01*
X036187Y015717D01*
X036294Y015459D01*
X036294Y015181D01*
X036187Y014923D01*
X035990Y014727D01*
X035733Y014620D01*
X034954Y014620D01*
X034697Y014727D01*
X034562Y014862D01*
X034562Y014748D01*
X034505Y014612D01*
X034401Y014508D01*
X034265Y014452D01*
X033722Y014452D01*
X033586Y014508D01*
X033482Y014612D01*
X033458Y014670D01*
X033264Y014670D01*
X033264Y014420D01*
X032794Y014420D01*
X032794Y014420D01*
X033264Y014420D01*
X033264Y014141D01*
X033249Y014085D01*
X033220Y014035D01*
X033179Y013994D01*
X033128Y013965D01*
X033072Y013950D01*
X032794Y013950D01*
X032794Y014420D01*
X032793Y014420D01*
X032793Y013950D01*
X032515Y013950D01*
X032459Y013965D01*
X032439Y013976D01*
X032357Y013894D01*
X032129Y013800D01*
X031883Y013800D01*
X031655Y013894D01*
X031612Y013937D01*
X031570Y013894D01*
X031362Y013808D01*
X031362Y013448D01*
X031329Y013370D01*
X032724Y013370D01*
X032786Y013432D01*
X032922Y013488D01*
X033465Y013488D01*
X033601Y013432D01*
X033705Y013328D01*
X033762Y013192D01*
X033762Y012648D01*
X033750Y012620D01*
X033762Y012592D01*
X033762Y012048D01*
X033705Y011912D01*
X033601Y011808D01*
X033465Y011752D01*
X032922Y011752D01*
X032786Y011808D01*
X032724Y011870D01*
X030904Y011870D01*
X030885Y011878D01*
X031343Y011420D01*
X031424Y011225D01*
X031424Y008034D01*
X031462Y007942D01*
X031462Y007398D01*
X031424Y007306D01*
X031424Y004415D01*
X031343Y004220D01*
X031194Y004071D01*
X029424Y002300D01*
X029424Y001684D01*
X029462Y001592D01*
X029462Y001048D01*
X029405Y000912D01*
X029301Y000808D01*
X029165Y000752D01*
X028622Y000752D01*
X028486Y000808D01*
X028382Y000912D01*
X028325Y001048D01*
X028325Y001592D01*
X028364Y001684D01*
X028364Y002625D01*
X028444Y002820D01*
X028593Y002969D01*
X028593Y002969D01*
X030364Y004740D01*
X030364Y007306D01*
X030325Y007398D01*
X030325Y007942D01*
X030364Y008034D01*
X030364Y010900D01*
X028556Y012708D01*
X028544Y012720D01*
X028544Y012706D01*
X028975Y012275D01*
X029044Y012110D01*
X029044Y010130D01*
X028975Y009965D01*
X028848Y009839D01*
X028348Y009339D01*
X028183Y009270D01*
X025280Y009270D01*
X024844Y008834D01*
X024844Y007330D01*
X024775Y007165D01*
X024044Y006434D01*
X024044Y003830D01*
X023975Y003665D01*
X023848Y003539D01*
X023848Y003539D01*
X023548Y003239D01*
X023383Y003170D01*
X022280Y003170D01*
X022185Y003076D01*
X022262Y003000D01*
X022285Y002943D01*
X022297Y002959D01*
X022355Y003017D01*
X022421Y003065D01*
X022494Y003102D01*
X022572Y003127D01*
X022653Y003140D01*
X022693Y003140D01*
X022693Y002320D01*
X022694Y002320D01*
X023214Y002320D01*
X023214Y002661D01*
X023201Y002742D01*
X023175Y002820D01*
X023138Y002893D01*
X023090Y002959D01*
X023032Y003017D01*
X022966Y003065D01*
X022893Y003102D01*
X022815Y003127D01*
X022734Y003140D01*
X022694Y003140D01*
X022694Y002320D01*
X022694Y002320D01*
X023214Y002320D01*
X023214Y001979D01*
X023201Y001898D01*
X023175Y001820D01*
X023150Y001770D01*
X023407Y001770D01*
X023725Y002088D01*
X023725Y002292D01*
X023782Y002428D01*
X023886Y002532D01*
X024022Y002588D01*
X024565Y002588D01*
X024701Y002532D01*
X024805Y002428D01*
X024862Y002292D01*
X024862Y001748D01*
X024805Y001612D01*
X024701Y001508D01*
X024565Y001452D01*
X024362Y001452D01*
X023975Y001065D01*
X023848Y000939D01*
X023683Y000870D01*
X020004Y000870D01*
X019839Y000939D01*
X019539Y001239D01*
X019412Y001365D01*
X019344Y001530D01*
X019344Y005534D01*
X016839Y008039D01*
X016712Y008165D01*
X016644Y008330D01*
X016644Y013710D01*
X016712Y013875D01*
X017612Y014775D01*
X017739Y014901D01*
X017904Y014970D01*
X020196Y014970D01*
X020126Y015040D01*
X020024Y015287D01*
X020024Y016153D01*
X020126Y016400D01*
X020296Y016570D01*
X001814Y016570D01*
X001814Y014316D01*
X001926Y014362D01*
X002261Y014362D01*
X002571Y014234D01*
X002808Y013997D01*
X002936Y013688D01*
X002936Y013352D01*
X002808Y013043D01*
X002571Y012806D01*
X002261Y012678D01*
X001926Y012678D01*
X001814Y012724D01*
X001814Y010540D01*
X013097Y010540D01*
X013288Y010461D01*
X014688Y009061D01*
X014834Y008915D01*
X014914Y008723D01*
X014879Y008806D02*
X016644Y008806D01*
X016644Y008568D02*
X014914Y008568D01*
X014914Y008329D02*
X016644Y008329D01*
X016787Y008091D02*
X014914Y008091D01*
X014914Y007852D02*
X017025Y007852D01*
X017264Y007614D02*
X014914Y007614D01*
X014914Y007375D02*
X017502Y007375D01*
X017741Y007137D02*
X014914Y007137D01*
X014914Y006898D02*
X017979Y006898D01*
X018218Y006660D02*
X014914Y006660D01*
X014914Y006421D02*
X018456Y006421D01*
X018695Y006183D02*
X014914Y006183D01*
X014914Y005944D02*
X018933Y005944D01*
X019172Y005706D02*
X014914Y005706D01*
X014914Y005467D02*
X019344Y005467D01*
X019344Y005229D02*
X018362Y005229D01*
X018391Y005221D02*
X018063Y005309D01*
X017724Y005309D01*
X017396Y005221D01*
X017102Y005051D01*
X016862Y004811D01*
X016693Y004517D01*
X016605Y004190D01*
X016605Y003850D01*
X016693Y003523D01*
X016862Y003229D01*
X017102Y002989D01*
X017396Y002819D01*
X017724Y002731D01*
X018063Y002731D01*
X018391Y002819D01*
X018685Y002989D01*
X018925Y003229D01*
X019094Y003523D01*
X019182Y003850D01*
X019182Y004190D01*
X019094Y004517D01*
X018925Y004811D01*
X018685Y005051D01*
X018391Y005221D01*
X018746Y004990D02*
X019344Y004990D01*
X019344Y004752D02*
X018959Y004752D01*
X019095Y004513D02*
X019344Y004513D01*
X019344Y004275D02*
X019159Y004275D01*
X019182Y004036D02*
X019344Y004036D01*
X019344Y003798D02*
X019168Y003798D01*
X019104Y003559D02*
X019344Y003559D01*
X019344Y003321D02*
X018977Y003321D01*
X018778Y003082D02*
X019344Y003082D01*
X019344Y002844D02*
X018433Y002844D01*
X017354Y002844D02*
X014914Y002844D01*
X014914Y003082D02*
X017009Y003082D01*
X016810Y003321D02*
X014914Y003321D01*
X014914Y003559D02*
X016683Y003559D01*
X016619Y003798D02*
X014914Y003798D01*
X014914Y004036D02*
X016605Y004036D01*
X016628Y004275D02*
X014914Y004275D01*
X014914Y004513D02*
X016692Y004513D01*
X016828Y004752D02*
X014914Y004752D01*
X014914Y004990D02*
X017041Y004990D01*
X017425Y005229D02*
X014914Y005229D01*
X017544Y008606D02*
X019064Y007086D01*
X019064Y010256D01*
X019025Y010348D01*
X019025Y010892D01*
X019082Y011028D01*
X019186Y011132D01*
X019322Y011188D01*
X019865Y011188D01*
X020001Y011132D01*
X020105Y011028D01*
X020162Y010892D01*
X020162Y010348D01*
X020124Y010256D01*
X020124Y008970D01*
X023324Y008970D01*
X023386Y009032D01*
X023522Y009088D01*
X023944Y009088D01*
X023944Y009110D01*
X024002Y009252D01*
X023822Y009252D01*
X023686Y009308D01*
X023582Y009412D01*
X023525Y009548D01*
X023525Y010092D01*
X023582Y010228D01*
X023686Y010332D01*
X023822Y010388D01*
X024365Y010388D01*
X024408Y010371D01*
X024612Y010575D01*
X024739Y010701D01*
X024904Y010770D01*
X027307Y010770D01*
X027325Y010788D01*
X027325Y010992D01*
X027382Y011128D01*
X027486Y011232D01*
X027622Y011288D01*
X028144Y011288D01*
X028144Y011834D01*
X027839Y012139D01*
X027712Y012265D01*
X027644Y012430D01*
X027644Y012951D01*
X027582Y013012D01*
X027525Y013148D01*
X027525Y013692D01*
X027581Y013827D01*
X027517Y013800D01*
X026870Y013800D01*
X026734Y013856D01*
X026714Y013876D01*
X026529Y013800D01*
X026283Y013800D01*
X026055Y013894D01*
X026012Y013937D01*
X025970Y013894D01*
X025742Y013800D01*
X025495Y013800D01*
X025267Y013894D01*
X025116Y014046D01*
X025078Y014018D01*
X025012Y013984D01*
X024941Y013962D01*
X024868Y013950D01*
X024831Y013950D01*
X024831Y014420D01*
X024831Y014890D01*
X024794Y014890D01*
X024721Y014878D01*
X024662Y014859D01*
X024662Y014992D01*
X024605Y015128D01*
X024501Y015232D01*
X024365Y015288D01*
X023822Y015288D01*
X023686Y015232D01*
X023582Y015128D01*
X023525Y014992D01*
X023525Y014448D01*
X023582Y014312D01*
X023644Y014251D01*
X023644Y011689D01*
X023582Y011628D01*
X023525Y011492D01*
X023525Y010948D01*
X023582Y010812D01*
X023686Y010708D01*
X023822Y010652D01*
X024365Y010652D01*
X024501Y010708D01*
X024605Y010812D01*
X024662Y010948D01*
X024662Y011492D01*
X024605Y011628D01*
X024544Y011689D01*
X024544Y014048D01*
X024585Y014018D01*
X024651Y013984D01*
X024721Y013962D01*
X024794Y013950D01*
X024831Y013950D01*
X024831Y014420D01*
X024831Y014420D01*
X024831Y014420D01*
X024831Y014890D01*
X024868Y014890D01*
X024941Y014878D01*
X025012Y014856D01*
X025078Y014822D01*
X025116Y014794D01*
X025267Y014946D01*
X025495Y015040D01*
X025742Y015040D01*
X025970Y014946D01*
X026012Y014903D01*
X026055Y014946D01*
X026283Y015040D01*
X026529Y015040D01*
X026714Y014964D01*
X026734Y014984D01*
X026870Y015040D01*
X027517Y015040D01*
X027653Y014984D01*
X027687Y014950D01*
X028406Y014950D01*
X028406Y014973D01*
X028475Y015138D01*
X028602Y015264D01*
X028602Y015264D01*
X028839Y015501D01*
X028883Y015520D01*
X023483Y015520D01*
X023364Y015400D01*
X023364Y015287D01*
X023262Y015040D01*
X023138Y014917D01*
X023075Y014765D01*
X022948Y014639D01*
X022448Y014139D01*
X022283Y014070D01*
X018180Y014070D01*
X017544Y013434D01*
X017544Y008606D01*
X017582Y008568D02*
X019064Y008568D01*
X019064Y008806D02*
X017544Y008806D01*
X017544Y009045D02*
X019064Y009045D01*
X019064Y009283D02*
X017544Y009283D01*
X017544Y009522D02*
X019064Y009522D01*
X019064Y009760D02*
X017544Y009760D01*
X017544Y009999D02*
X019064Y009999D01*
X019064Y010237D02*
X017544Y010237D01*
X017544Y010476D02*
X019025Y010476D01*
X019025Y010714D02*
X017544Y010714D01*
X017544Y010953D02*
X019051Y010953D01*
X020136Y010953D02*
X023525Y010953D01*
X023525Y011191D02*
X017544Y011191D01*
X017544Y011430D02*
X023525Y011430D01*
X023622Y011668D02*
X017544Y011668D01*
X017544Y011907D02*
X023644Y011907D01*
X023644Y012145D02*
X017544Y012145D01*
X017544Y012384D02*
X023644Y012384D01*
X023644Y012622D02*
X017544Y012622D01*
X017544Y012861D02*
X023644Y012861D01*
X023644Y013099D02*
X017544Y013099D01*
X017544Y013338D02*
X023644Y013338D01*
X023644Y013576D02*
X017686Y013576D01*
X017924Y013815D02*
X023644Y013815D01*
X023644Y014053D02*
X018163Y014053D01*
X017367Y014530D02*
X010323Y014530D01*
X010270Y014662D02*
X010270Y014662D01*
X009921Y015142D01*
X009463Y015521D01*
X008926Y015774D01*
X008926Y015774D01*
X008342Y015885D01*
X007749Y015848D01*
X007184Y015664D01*
X006683Y015346D01*
X006683Y015346D01*
X006276Y014913D01*
X005990Y014392D01*
X005842Y013817D01*
X005842Y013223D01*
X005990Y012648D01*
X005990Y012648D01*
X006276Y012127D01*
X006683Y011694D01*
X007184Y011376D01*
X007184Y011376D01*
X007749Y011192D01*
X007749Y011192D01*
X008342Y011155D01*
X008342Y011155D01*
X008926Y011266D01*
X009463Y011519D01*
X009463Y011519D01*
X009921Y011898D01*
X010270Y012378D01*
X010489Y012931D01*
X010564Y013520D01*
X010489Y014109D01*
X010489Y014109D01*
X010270Y014662D01*
X010193Y014769D02*
X017606Y014769D01*
X017129Y014292D02*
X010417Y014292D01*
X010496Y014053D02*
X016890Y014053D01*
X016687Y013815D02*
X010526Y013815D01*
X010556Y013576D02*
X016644Y013576D01*
X016644Y013338D02*
X010540Y013338D01*
X010510Y013099D02*
X016644Y013099D01*
X016644Y012861D02*
X010461Y012861D01*
X010489Y012931D02*
X010489Y012931D01*
X010367Y012622D02*
X016644Y012622D01*
X016644Y012384D02*
X010272Y012384D01*
X010270Y012378D02*
X010270Y012378D01*
X010101Y012145D02*
X016644Y012145D01*
X016644Y011907D02*
X009928Y011907D01*
X009921Y011898D02*
X009921Y011898D01*
X009644Y011668D02*
X016644Y011668D01*
X016644Y011430D02*
X009273Y011430D01*
X008926Y011266D02*
X008926Y011266D01*
X008533Y011191D02*
X016644Y011191D01*
X016644Y010953D02*
X001814Y010953D01*
X001814Y011191D02*
X007765Y011191D01*
X007099Y011430D02*
X001814Y011430D01*
X001814Y011668D02*
X006724Y011668D01*
X006683Y011694D02*
X006683Y011694D01*
X006483Y011907D02*
X001814Y011907D01*
X001814Y012145D02*
X006266Y012145D01*
X006276Y012127D02*
X006276Y012127D01*
X006135Y012384D02*
X001814Y012384D01*
X001814Y012622D02*
X003677Y012622D01*
X003686Y012619D02*
X004044Y012619D01*
X004376Y012756D01*
X004629Y013009D01*
X004767Y013341D01*
X004767Y013699D01*
X004629Y014031D01*
X004376Y014284D01*
X004044Y014421D01*
X003686Y014421D01*
X003355Y014284D01*
X003101Y014031D01*
X002964Y013699D01*
X002964Y013341D01*
X003101Y013009D01*
X003355Y012756D01*
X003686Y012619D01*
X004053Y012622D02*
X006004Y012622D01*
X005935Y012861D02*
X004481Y012861D01*
X004667Y013099D02*
X005874Y013099D01*
X005842Y013338D02*
X004765Y013338D01*
X004767Y013576D02*
X005842Y013576D01*
X005842Y013815D02*
X004719Y013815D01*
X004607Y014053D02*
X005903Y014053D01*
X005964Y014292D02*
X004358Y014292D01*
X003372Y014292D02*
X002432Y014292D01*
X002752Y014053D02*
X003123Y014053D01*
X003011Y013815D02*
X002883Y013815D01*
X002936Y013576D02*
X002964Y013576D01*
X002965Y013338D02*
X002930Y013338D01*
X002831Y013099D02*
X003064Y013099D01*
X003250Y012861D02*
X002625Y012861D01*
X001814Y014530D02*
X006066Y014530D01*
X005990Y014392D02*
X005990Y014392D01*
X006197Y014769D02*
X001814Y014769D01*
X001814Y015007D02*
X006364Y015007D01*
X006276Y014913D02*
X006276Y014913D01*
X006588Y015246D02*
X001814Y015246D01*
X001814Y015484D02*
X006900Y015484D01*
X007184Y015664D02*
X007184Y015664D01*
X007363Y015723D02*
X001814Y015723D01*
X001814Y015961D02*
X020024Y015961D01*
X020043Y016200D02*
X001814Y016200D01*
X001814Y016438D02*
X020164Y016438D01*
X020024Y015723D02*
X009035Y015723D01*
X009463Y015521D02*
X009463Y015521D01*
X009508Y015484D02*
X020024Y015484D01*
X020041Y015246D02*
X009796Y015246D01*
X009921Y015142D02*
X009921Y015142D01*
X009921Y015142D01*
X010020Y015007D02*
X020159Y015007D01*
X022601Y014292D02*
X023603Y014292D01*
X023525Y014530D02*
X022840Y014530D01*
X023076Y014769D02*
X023525Y014769D01*
X023532Y015007D02*
X023228Y015007D01*
X023346Y015246D02*
X023719Y015246D01*
X023447Y015484D02*
X028821Y015484D01*
X028583Y015246D02*
X024468Y015246D01*
X024655Y015007D02*
X025416Y015007D01*
X025822Y015007D02*
X026203Y015007D01*
X026609Y015007D02*
X026790Y015007D01*
X027597Y015007D02*
X028421Y015007D01*
X027576Y013815D02*
X027552Y013815D01*
X027525Y013576D02*
X024544Y013576D01*
X024544Y013815D02*
X025460Y013815D01*
X025777Y013815D02*
X026248Y013815D01*
X026564Y013815D02*
X026835Y013815D01*
X027525Y013338D02*
X024544Y013338D01*
X024544Y013099D02*
X027546Y013099D01*
X027644Y012861D02*
X024544Y012861D01*
X024544Y012622D02*
X027644Y012622D01*
X027663Y012384D02*
X024544Y012384D01*
X024544Y012145D02*
X027832Y012145D01*
X028071Y011907D02*
X024544Y011907D01*
X024565Y011668D02*
X028144Y011668D01*
X028144Y011430D02*
X024662Y011430D01*
X024662Y011191D02*
X027445Y011191D01*
X027325Y010953D02*
X024662Y010953D01*
X024769Y010714D02*
X024507Y010714D01*
X024513Y010476D02*
X020162Y010476D01*
X020162Y010714D02*
X023680Y010714D01*
X023591Y010237D02*
X020124Y010237D01*
X020124Y009999D02*
X023525Y009999D01*
X023525Y009760D02*
X020124Y009760D01*
X020124Y009522D02*
X023536Y009522D01*
X023747Y009283D02*
X020124Y009283D01*
X020124Y009045D02*
X023417Y009045D01*
X024844Y008806D02*
X030364Y008806D01*
X030364Y008568D02*
X024844Y008568D01*
X024844Y008329D02*
X030364Y008329D01*
X030364Y008091D02*
X024844Y008091D01*
X024844Y007852D02*
X030325Y007852D01*
X030325Y007614D02*
X024844Y007614D01*
X024844Y007375D02*
X030335Y007375D01*
X030364Y007137D02*
X024746Y007137D01*
X024508Y006898D02*
X030364Y006898D01*
X030364Y006660D02*
X024269Y006660D01*
X024044Y006421D02*
X030364Y006421D01*
X030364Y006183D02*
X024044Y006183D01*
X024044Y005944D02*
X030364Y005944D01*
X030364Y005706D02*
X024044Y005706D01*
X024044Y005467D02*
X030364Y005467D01*
X030364Y005229D02*
X024044Y005229D01*
X024044Y004990D02*
X030364Y004990D01*
X030364Y004752D02*
X024044Y004752D01*
X024044Y004513D02*
X030137Y004513D01*
X029898Y004275D02*
X024044Y004275D01*
X024044Y004036D02*
X029660Y004036D01*
X029421Y003798D02*
X024030Y003798D01*
X023869Y003559D02*
X029183Y003559D01*
X028944Y003321D02*
X023630Y003321D01*
X022932Y003082D02*
X028706Y003082D01*
X028467Y002844D02*
X023163Y002844D01*
X023214Y002605D02*
X028364Y002605D01*
X028364Y002367D02*
X024831Y002367D01*
X024862Y002128D02*
X028364Y002128D01*
X028364Y001890D02*
X024862Y001890D01*
X024821Y001651D02*
X028350Y001651D01*
X028325Y001413D02*
X024322Y001413D01*
X024084Y001174D02*
X028325Y001174D01*
X028372Y000936D02*
X023841Y000936D01*
X023527Y001890D02*
X023198Y001890D01*
X023214Y002128D02*
X023725Y002128D01*
X023756Y002367D02*
X023214Y002367D01*
X022694Y002367D02*
X022693Y002367D01*
X022693Y002605D02*
X022694Y002605D01*
X022693Y002844D02*
X022694Y002844D01*
X022693Y003082D02*
X022694Y003082D01*
X022455Y003082D02*
X022192Y003082D01*
X019344Y002605D02*
X014914Y002605D01*
X014914Y002367D02*
X019344Y002367D01*
X019344Y002128D02*
X014914Y002128D01*
X014914Y001890D02*
X019344Y001890D01*
X019344Y001651D02*
X014914Y001651D01*
X014914Y001413D02*
X019392Y001413D01*
X019603Y001174D02*
X014914Y001174D01*
X014914Y000936D02*
X019846Y000936D01*
X022693Y004820D02*
X022693Y005640D01*
X022653Y005640D01*
X022572Y005627D01*
X022494Y005602D01*
X022421Y005565D01*
X022355Y005517D01*
X022297Y005459D01*
X022285Y005443D01*
X022262Y005500D01*
X022073Y005688D01*
X021827Y005790D01*
X021560Y005790D01*
X021314Y005688D01*
X021224Y005598D01*
X021224Y006025D01*
X021143Y006220D01*
X020124Y007240D01*
X020124Y008070D01*
X023324Y008070D01*
X023386Y008008D01*
X023522Y007952D01*
X023944Y007952D01*
X023944Y007606D01*
X023339Y007001D01*
X023212Y006875D01*
X023144Y006710D01*
X023144Y005382D01*
X023138Y005393D01*
X023090Y005459D01*
X023032Y005517D01*
X022966Y005565D01*
X022893Y005602D01*
X022815Y005627D01*
X022734Y005640D01*
X022694Y005640D01*
X022694Y004820D01*
X022693Y004820D01*
X022693Y004990D02*
X022694Y004990D01*
X022693Y005229D02*
X022694Y005229D01*
X022693Y005467D02*
X022694Y005467D01*
X023082Y005467D02*
X023144Y005467D01*
X023144Y005706D02*
X022031Y005706D01*
X022275Y005467D02*
X022305Y005467D01*
X023144Y005944D02*
X021224Y005944D01*
X021158Y006183D02*
X023144Y006183D01*
X023144Y006421D02*
X020942Y006421D01*
X020704Y006660D02*
X023144Y006660D01*
X023235Y006898D02*
X020465Y006898D01*
X020227Y007137D02*
X023474Y007137D01*
X023712Y007375D02*
X020124Y007375D01*
X020124Y007614D02*
X023944Y007614D01*
X023944Y007852D02*
X020124Y007852D01*
X019064Y007852D02*
X018298Y007852D01*
X018059Y008091D02*
X019064Y008091D01*
X019064Y008329D02*
X017821Y008329D01*
X016644Y009045D02*
X014704Y009045D01*
X014466Y009283D02*
X016644Y009283D01*
X016644Y009522D02*
X014227Y009522D01*
X013989Y009760D02*
X016644Y009760D01*
X016644Y009999D02*
X013750Y009999D01*
X013512Y010237D02*
X016644Y010237D01*
X016644Y010476D02*
X013253Y010476D01*
X016644Y010714D02*
X001814Y010714D01*
X007749Y015848D02*
X007749Y015848D01*
X008342Y015885D02*
X008342Y015885D01*
X024831Y014769D02*
X024831Y014769D01*
X024831Y014530D02*
X024831Y014530D01*
X024831Y014292D02*
X024831Y014292D01*
X024831Y014053D02*
X024831Y014053D01*
X028628Y012622D02*
X028642Y012622D01*
X028866Y012384D02*
X028880Y012384D01*
X029029Y012145D02*
X029119Y012145D01*
X029044Y011907D02*
X029357Y011907D01*
X029596Y011668D02*
X029044Y011668D01*
X029044Y011430D02*
X029834Y011430D01*
X030073Y011191D02*
X029044Y011191D01*
X029044Y010953D02*
X030311Y010953D01*
X030364Y010714D02*
X029044Y010714D01*
X029044Y010476D02*
X030364Y010476D01*
X030364Y010237D02*
X029044Y010237D01*
X028989Y009999D02*
X030364Y009999D01*
X030364Y009760D02*
X028770Y009760D01*
X028531Y009522D02*
X030364Y009522D01*
X030364Y009283D02*
X028214Y009283D01*
X030364Y009045D02*
X025054Y009045D01*
X027294Y008120D02*
X029394Y008120D01*
X031424Y008091D02*
X036403Y008091D01*
X036336Y007852D02*
X031462Y007852D01*
X031462Y007614D02*
X036336Y007614D01*
X036336Y007375D02*
X031452Y007375D01*
X031424Y007137D02*
X036416Y007137D01*
X036336Y006898D02*
X031424Y006898D01*
X031424Y006660D02*
X036336Y006660D01*
X036336Y006421D02*
X031424Y006421D01*
X031424Y005706D02*
X036336Y005706D01*
X036336Y005467D02*
X031424Y005467D01*
X031424Y005229D02*
X035289Y005229D01*
X034667Y004990D02*
X031424Y004990D01*
X031424Y004752D02*
X034291Y004752D01*
X034064Y004513D02*
X031424Y004513D01*
X031365Y004275D02*
X033855Y004275D01*
X033724Y004036D02*
X031159Y004036D01*
X030921Y003798D02*
X033593Y003798D01*
X033530Y003559D02*
X030682Y003559D01*
X030444Y003321D02*
X033469Y003321D01*
X033442Y003082D02*
X030205Y003082D01*
X029967Y002844D02*
X033442Y002844D01*
X033447Y002605D02*
X029728Y002605D01*
X029490Y002367D02*
X033508Y002367D01*
X033569Y002128D02*
X029424Y002128D01*
X029424Y001890D02*
X033677Y001890D01*
X033808Y001651D02*
X029437Y001651D01*
X029462Y001413D02*
X033984Y001413D01*
X034208Y001174D02*
X029462Y001174D01*
X029415Y000936D02*
X034532Y000936D01*
X036240Y005229D02*
X036364Y005229D01*
X037894Y006520D02*
X037994Y006520D01*
X037994Y007520D02*
X037894Y007520D01*
X036336Y008329D02*
X031424Y008329D01*
X031424Y008568D02*
X036336Y008568D01*
X036336Y008806D02*
X031424Y008806D01*
X031424Y009045D02*
X036378Y009045D01*
X036342Y009283D02*
X031424Y009283D01*
X031424Y009522D02*
X036336Y009522D01*
X036336Y009760D02*
X031424Y009760D01*
X031424Y009999D02*
X036359Y009999D01*
X036361Y010237D02*
X031424Y010237D01*
X031424Y010476D02*
X036336Y010476D01*
X036336Y010714D02*
X031424Y010714D01*
X031424Y010953D02*
X036340Y010953D01*
X036380Y011191D02*
X031424Y011191D01*
X031334Y011430D02*
X036336Y011430D01*
X036336Y011668D02*
X031095Y011668D01*
X033699Y011907D02*
X036336Y011907D01*
X036408Y012145D02*
X033762Y012145D01*
X033762Y012384D02*
X036336Y012384D01*
X036336Y012622D02*
X033751Y012622D01*
X033762Y012861D02*
X036336Y012861D01*
X036412Y013099D02*
X033762Y013099D01*
X033695Y013338D02*
X036336Y013338D01*
X036336Y013576D02*
X031362Y013576D01*
X031377Y013815D02*
X031848Y013815D01*
X032164Y013815D02*
X036336Y013815D01*
X036381Y014053D02*
X033230Y014053D01*
X033264Y014292D02*
X036338Y014292D01*
X036336Y014530D02*
X034423Y014530D01*
X034562Y014769D02*
X034655Y014769D01*
X033564Y014530D02*
X033264Y014530D01*
X032794Y014292D02*
X032793Y014292D01*
X032793Y014053D02*
X032794Y014053D01*
X036032Y014769D02*
X036336Y014769D01*
X036362Y015007D02*
X036222Y015007D01*
X036294Y015246D02*
X037194Y015246D01*
X037194Y015484D02*
X036283Y015484D01*
X036181Y015723D02*
X037194Y015723D01*
X037194Y015961D02*
X035875Y015961D01*
X035204Y016200D02*
X037252Y016200D01*
X037422Y016438D02*
X034965Y016438D01*
X037894Y015120D02*
X037994Y015020D01*
X037994Y014620D01*
X037894Y013720D02*
X037794Y013620D01*
X037494Y013620D01*
X037494Y012620D02*
X037694Y012620D01*
X037894Y012420D01*
X037894Y011520D02*
X037994Y011520D01*
X037994Y010520D02*
X037894Y010520D01*
X037894Y009620D02*
X037994Y009520D01*
X037994Y009420D01*
X037994Y008520D02*
X037894Y008520D01*
X021356Y005706D02*
X021224Y005706D01*
X019064Y007137D02*
X019013Y007137D01*
X019064Y007375D02*
X018775Y007375D01*
X018536Y007614D02*
X019064Y007614D01*
D21*
X034194Y016220D02*
X035094Y015320D01*
X035594Y015320D01*
X034194Y016220D02*
X023194Y016220D01*
X022694Y015720D01*
X037894Y015920D02*
X037894Y015120D01*
X037894Y013720D01*
X037894Y012420D01*
X037894Y011520D01*
X037894Y010520D01*
X037894Y009620D01*
X037894Y008520D01*
X037894Y007520D01*
X037894Y006520D01*
X037894Y005920D01*
D22*
X037894Y005820D01*
X037994Y005720D01*
X037894Y005620D01*
X037494Y005620D01*
X037994Y006520D02*
X037894Y006620D01*
X037494Y006620D01*
X037494Y007620D02*
X037894Y007620D01*
X037994Y007520D01*
X037994Y008520D02*
X037894Y008620D01*
X037494Y008620D01*
X037994Y009420D02*
X037794Y009620D01*
X037494Y009620D01*
X037994Y010520D02*
X037894Y010620D01*
X037494Y010620D01*
X037994Y011520D02*
X037894Y011620D01*
X037494Y011620D01*
X037494Y012620D02*
X037894Y012620D01*
X037994Y013620D02*
X037494Y013620D01*
X037494Y014620D02*
X037994Y014620D01*
X037894Y015920D02*
X037994Y016020D01*
M02*
