G75*
%MOIN*%
%OFA0B0*%
%FSLAX25Y25*%
%IPPOS*%
%LPD*%
%AMOC8*
5,1,8,0,0,1.08239X$1,22.5*
%
%ADD10R,0.12661X0.12661*%
%ADD11C,0.12661*%
%ADD12R,0.08000X0.08000*%
%ADD13C,0.08000*%
%ADD14R,0.08500X0.11000*%
%ADD15R,0.04724X0.04724*%
%ADD16R,0.03937X0.04331*%
%ADD17R,0.04331X0.03937*%
%ADD18R,0.09843X0.04724*%
%ADD19R,0.06000X0.06000*%
%ADD20C,0.06000*%
%ADD21OC8,0.10050*%
%ADD22OC8,0.05600*%
%ADD23C,0.05600*%
%ADD24OC8,0.08500*%
%ADD25C,0.07600*%
%ADD26R,0.03962X0.03962*%
%ADD27C,0.01600*%
%ADD28R,0.04000X0.04000*%
D10*
X0249081Y0327223D03*
D11*
X0228081Y0327223D03*
X0189081Y0327223D03*
X0169081Y0327223D03*
D12*
X0243105Y0184654D03*
D13*
X0243105Y0170874D03*
X0243105Y0157095D03*
D14*
X0016811Y0263773D03*
X0016811Y0282773D03*
D15*
X0015453Y0335978D03*
X0023720Y0335978D03*
D16*
X0016242Y0322346D03*
X0016242Y0315653D03*
X0037144Y0314497D03*
X0037144Y0307804D03*
X0058850Y0284372D03*
X0058850Y0277679D03*
D17*
X0030464Y0324352D03*
X0023771Y0324352D03*
X0035018Y0340039D03*
X0041711Y0340039D03*
X0020236Y0301303D03*
X0013543Y0301303D03*
D18*
X0030841Y0193540D03*
X0030841Y0183697D03*
X0030841Y0173855D03*
D19*
X0030161Y0156099D03*
D20*
X0030161Y0126099D03*
X0030161Y0136099D03*
X0030161Y0146099D03*
D21*
X0125448Y0156839D03*
X0144081Y0156614D03*
X0162851Y0159160D03*
D22*
X0154119Y0131226D03*
X0174069Y0131223D03*
X0213312Y0130689D03*
X0232295Y0130573D03*
D23*
X0141863Y0328400D02*
X0141863Y0334000D01*
X0131863Y0334000D02*
X0131863Y0328400D01*
X0121863Y0328400D02*
X0121863Y0334000D01*
X0111863Y0334000D02*
X0111863Y0328400D01*
D24*
X0125442Y0156876D03*
X0144073Y0156580D03*
X0162863Y0159200D03*
X0212863Y0129200D03*
X0232863Y0131200D03*
X0242843Y0156924D03*
X0242726Y0170903D03*
X0243115Y0184606D03*
D25*
X0256863Y0185200D01*
X0256863Y0119200D01*
X0252863Y0115200D01*
X0214863Y0115200D01*
X0212863Y0117200D01*
X0212863Y0129200D01*
X0214863Y0143200D02*
X0226863Y0131200D01*
X0232863Y0131200D01*
X0214863Y0143200D02*
X0151945Y0145073D01*
X0144073Y0156580D01*
X0139976Y0168707D02*
X0125448Y0156839D01*
X0139976Y0168707D02*
X0154103Y0169122D01*
X0241353Y0169122D01*
X0243105Y0170874D01*
X0242843Y0156924D02*
X0163147Y0157410D01*
X0162863Y0159200D01*
D26*
X0096088Y0255500D03*
X0067374Y0271652D03*
X0052688Y0267585D03*
X0030300Y0260125D03*
X0031026Y0292782D03*
X0094900Y0291815D03*
X0116645Y0301232D03*
X0034845Y0205419D03*
X0082863Y0153200D03*
D27*
X0094003Y0153200D01*
X0170863Y0230060D01*
X0170863Y0301200D01*
X0116645Y0301232D01*
X0115372Y0295524D02*
X0165678Y0295524D01*
X0167186Y0294017D01*
X0167186Y0290831D01*
X0167133Y0290778D01*
X0167133Y0233368D01*
X0094950Y0161186D01*
X0094950Y0160939D01*
X0094812Y0160801D01*
X0083637Y0160801D01*
X0058863Y0153200D02*
X0058863Y0267579D01*
X0052695Y0267579D01*
X0052688Y0267585D01*
X0058863Y0267579D02*
X0058863Y0269854D01*
X0058850Y0277679D01*
X0058850Y0284372D02*
X0047943Y0284204D01*
X0030457Y0284323D01*
X0030300Y0281636D01*
X0030300Y0260125D01*
X0029729Y0254084D02*
X0029729Y0203326D01*
X0029312Y0202908D01*
X0025492Y0202908D01*
X0023626Y0201043D01*
X0023626Y0177304D01*
X0030069Y0177304D01*
X0033518Y0173855D01*
X0030841Y0173855D01*
X0024863Y0165878D01*
X0024863Y0143200D01*
X0029965Y0136099D01*
X0030161Y0136099D01*
X0030161Y0126099D02*
X0052524Y0148461D01*
X0051693Y0194028D01*
X0031180Y0193200D01*
X0030841Y0193540D01*
X0030841Y0183697D02*
X0046575Y0183697D01*
X0046626Y0183749D01*
X0051693Y0194028D02*
X0035353Y0202336D01*
X0034845Y0205419D01*
X0029729Y0254084D02*
X0026501Y0254084D01*
X0016811Y0263773D01*
X0029729Y0254084D02*
X0053790Y0254084D01*
X0067374Y0271652D02*
X0085853Y0290130D01*
X0085853Y0314887D01*
X0090165Y0319200D01*
X0126863Y0319200D01*
X0131863Y0324200D01*
X0131863Y0331200D01*
X0121863Y0331200D02*
X0121863Y0332200D01*
X0112863Y0341200D01*
X0042872Y0341200D01*
X0041711Y0340039D01*
X0037144Y0335471D01*
X0037144Y0314497D01*
X0034808Y0312162D01*
X0025400Y0312130D01*
X0025400Y0322789D01*
X0025156Y0323033D01*
X0025156Y0294114D01*
X0025079Y0294037D01*
X0025079Y0286016D01*
X0026746Y0284349D01*
X0030070Y0284326D01*
X0030457Y0284323D01*
X0031026Y0292782D02*
X0031026Y0301687D01*
X0037144Y0307804D01*
X0030467Y0316811D02*
X0030464Y0324352D01*
X0030119Y0329224D01*
X0029825Y0329289D01*
X0016972Y0329404D01*
X0016972Y0323076D01*
X0016242Y0322346D01*
X0016242Y0315653D02*
X0020236Y0311659D01*
X0020236Y0301303D01*
X0019899Y0300966D01*
X0019899Y0284174D01*
X0018498Y0282773D01*
X0016811Y0282773D01*
X0014265Y0293896D02*
X0013543Y0294618D01*
X0013543Y0301303D01*
X0010933Y0304151D01*
X0010863Y0331389D01*
X0015453Y0335978D01*
X0023720Y0335978D02*
X0030958Y0335978D01*
X0035018Y0340039D01*
X0023771Y0324352D02*
X0024985Y0323205D01*
X0025156Y0323033D01*
X0081802Y0260087D02*
X0076635Y0254919D01*
X0076635Y0230267D01*
X0078822Y0228080D01*
X0109825Y0228080D01*
X0096088Y0255500D02*
X0094900Y0256238D01*
X0094900Y0262198D01*
X0083023Y0250320D01*
X0094900Y0262198D02*
X0094900Y0291815D01*
X0058863Y0153200D02*
X0096863Y0115200D01*
X0166863Y0115200D01*
X0174069Y0122406D01*
X0174069Y0131223D01*
D28*
X0109825Y0228080D03*
X0083023Y0250320D03*
X0081802Y0260087D03*
X0053790Y0254084D03*
X0014265Y0293896D03*
X0030467Y0316811D03*
X0115372Y0295524D03*
X0046626Y0183749D03*
X0083637Y0160801D03*
M02*
