G04 Generated by Ultiboard 14.0 *
%FSLAX25Y25*%
%MOIN*%

%ADD10C,0.00001*%
%ADD11C,0.01000*%
%ADD12C,0.02000*%
%ADD13C,0.00500*%
%ADD14C,0.03937X0.02756*%
%ADD15C,0.05416X0.04016*%
%ADD16C,0.03937X0.02362*%


G04 ColorRGB 0000FF for the following layer *
%LNCopper Bottom*%
%LPD*%
G54D10*
G36*
X120493Y392194D02*
X120493Y392194D01*
X16502Y392194D01*
X16502Y314500D01*
X120493Y314500D01*
X120493Y392194D01*
D02*
G37*
%LPC*%
G36*
X66887Y335860D02*
G74*
D01*
G02X67478Y334437I1417J1423*
G01*
X67478Y334437D01*
X67478Y331563D01*
G75*
D01*
G02X66887Y330140I-2009J0*
G01*
X66887Y330140D01*
X64860Y328113D01*
G74*
D01*
G02X63437Y327522I1423J1417*
G01*
X63437Y327522D01*
X60566Y327522D01*
G75*
D01*
G02X59142Y328110I-4J2009*
G01*
X59142Y328110D01*
X57110Y330142D01*
G75*
D01*
G02X56522Y331567I1421J1420*
G01*
X56522Y331567D01*
X56522Y334432D01*
G75*
D01*
G02X57110Y335858I2009J6*
G01*
X57110Y335858D01*
X59142Y337890D01*
G74*
D01*
G02X60261Y338455I1420J1421*
G01*
G75*
D01*
G02X60563Y338478I303J-1985*
G01*
X60563Y338478D01*
X63434Y338478D01*
G75*
D01*
G02X64093Y338368I3J-2009*
G01*
G74*
D01*
G02X64860Y337887I656J1899*
G01*
X64860Y337887D01*
X66887Y335860D01*
D02*
G37*
G36*
X97531Y357000D02*
G75*
D01*
G02X97531Y357000I3469J0*
G01*
D02*
G37*
G36*
X17563Y385000D02*
G75*
D01*
G02X17563Y385000I5437J0*
G01*
D02*
G37*
G36*
X107563Y385000D02*
G75*
D01*
G02X107563Y385000I5437J0*
G01*
D02*
G37*
%LPD*%
G54D11*
X66887Y335860D02*
G74*
D01*
G02X67478Y334437I1417J1423*
G01*
X67478Y331563D01*
G75*
D01*
G02X66887Y330140I-2009J0*
G01*
X64860Y328113D01*
G74*
D01*
G02X63437Y327522I1423J1417*
G01*
X60566Y327522D01*
G75*
D01*
G02X59142Y328110I-4J2009*
G01*
X57110Y330142D01*
G75*
D01*
G02X56522Y331567I1421J1420*
G01*
X56522Y334432D01*
G75*
D01*
G02X57110Y335858I2009J6*
G01*
X59142Y337890D01*
G74*
D01*
G02X60261Y338455I1420J1421*
G01*
G75*
D01*
G02X60563Y338478I303J-1985*
G01*
X63434Y338478D01*
G75*
D01*
G02X64093Y338368I3J-2009*
G01*
G74*
D01*
G02X64860Y337887I656J1899*
G01*
X66887Y335860D01*
X97531Y357000D02*
G75*
D01*
G02X97531Y357000I3469J0*
G01*
X17563Y385000D02*
G75*
D01*
G02X17563Y385000I5437J0*
G01*
X107563Y385000D02*
G75*
D01*
G02X107563Y385000I5437J0*
G01*
X120493Y392194D02*
X16502Y392194D01*
X16502Y314500D01*
X120493Y314500D01*
X120493Y392194D01*
X60563Y336469D02*
X58531Y334437D01*
X63437Y336469D02*
X60563Y336469D01*
X65469Y334437D02*
X63437Y336469D01*
X65469Y331563D02*
X65469Y334437D01*
X63437Y329531D02*
X65469Y331563D01*
X60563Y329531D02*
X63437Y329531D01*
X58531Y331563D02*
X60563Y329531D01*
X58531Y334437D02*
X58531Y331563D01*
G54D12*
X50000Y282000D02*
X91000Y282000D01*
X50000Y298000D02*
X50000Y282000D01*
X91000Y282000D02*
X96000Y277000D01*
X96000Y261543D02*
X96000Y277000D01*
X73457Y239000D02*
X96000Y261543D01*
X24000Y239000D02*
X73457Y239000D01*
G36*
X50000Y294031D02*
X50000Y294031D01*
X49061Y297764D01*
X50939Y297764D01*
X50000Y294031D01*
D02*
G37*
X49061Y297764D01*
X50939Y297764D01*
X50000Y294031D01*
G36*
X53969Y282000D02*
X53969Y282000D01*
X50236Y281061D01*
X50236Y282939D01*
X53969Y282000D01*
D02*
G37*
X50236Y281061D01*
X50236Y282939D01*
X53969Y282000D01*
G36*
X50000Y285969D02*
X50000Y285969D01*
X50939Y282236D01*
X49061Y282236D01*
X50000Y285969D01*
D02*
G37*
X50939Y282236D01*
X49061Y282236D01*
X50000Y285969D01*
G36*
X93194Y279806D02*
X93194Y279806D01*
X96497Y277831D01*
X95169Y276503D01*
X93194Y279806D01*
D02*
G37*
X96497Y277831D01*
X95169Y276503D01*
X93194Y279806D01*
G36*
X96000Y273031D02*
X96000Y273031D01*
X95061Y276764D01*
X96939Y276764D01*
X96000Y273031D01*
D02*
G37*
X95061Y276764D01*
X96939Y276764D01*
X96000Y273031D01*
G36*
X27969Y239000D02*
X27969Y239000D01*
X24236Y238061D01*
X24236Y239939D01*
X27969Y239000D01*
D02*
G37*
X24236Y238061D01*
X24236Y239939D01*
X27969Y239000D01*
G36*
X24000Y235031D02*
X24000Y235031D01*
X23061Y238764D01*
X24939Y238764D01*
X24000Y235031D01*
D02*
G37*
X23061Y238764D01*
X24939Y238764D01*
X24000Y235031D01*
G36*
X54292Y174000D02*
X54292Y174000D01*
X58380Y175592D01*
X58380Y172408D01*
X54292Y174000D01*
D02*
G37*
X58380Y175592D01*
X58380Y172408D01*
X54292Y174000D01*
X86000Y210000D02*
X90000Y210000D01*
X100000Y220000D02*
X100000Y257000D01*
X90000Y210000D02*
X100000Y220000D01*
X100000Y257000D02*
X96228Y260772D01*
G36*
X89969Y210000D02*
X89969Y210000D01*
X86236Y209061D01*
X86236Y210939D01*
X89969Y210000D01*
D02*
G37*
X86236Y209061D01*
X86236Y210939D01*
X89969Y210000D01*
G36*
X96000Y265807D02*
X96000Y265807D01*
X97207Y261918D01*
X94793Y261918D01*
X96000Y265807D01*
D02*
G37*
X97207Y261918D01*
X94793Y261918D01*
X96000Y265807D01*
G36*
X92985Y258528D02*
X92985Y258528D01*
X94882Y262132D01*
X96589Y260425D01*
X92985Y258528D01*
D02*
G37*
X94882Y262132D01*
X96589Y260425D01*
X92985Y258528D01*
G36*
X98731Y258269D02*
X98731Y258269D01*
X95313Y260483D01*
X97167Y262029D01*
X98731Y258269D01*
D02*
G37*
X95313Y260483D01*
X97167Y262029D01*
X98731Y258269D01*
X24000Y239000D02*
X24000Y186291D01*
X36291Y174000D01*
X59000Y174000D01*
X77000Y222000D02*
X77000Y199000D01*
X80000Y196000D01*
X87000Y196000D01*
X69000Y174000D02*
X69000Y228000D01*
X72000Y231000D01*
X81000Y231000D01*
G36*
X77031Y231000D02*
X77031Y231000D01*
X80764Y231939D01*
X80764Y230061D01*
X77031Y231000D01*
D02*
G37*
X80764Y231939D01*
X80764Y230061D01*
X77031Y231000D01*
G36*
X77000Y218031D02*
X77000Y218031D01*
X76061Y221764D01*
X77939Y221764D01*
X77000Y218031D01*
D02*
G37*
X76061Y221764D01*
X77939Y221764D01*
X77000Y218031D01*
G36*
X69000Y178708D02*
X69000Y178708D01*
X70592Y174620D01*
X67408Y174620D01*
X69000Y178708D01*
D02*
G37*
X70592Y174620D01*
X67408Y174620D01*
X69000Y178708D01*
G54D13*
X79353Y228096D02*
X76753Y228750D01*
X72932Y228750D01*
X71250Y227068D01*
X71250Y179130D01*
X72387Y176211D01*
X72958Y175639D01*
X72958Y174743D01*
X73026Y174567D01*
X72958Y174412D01*
X72958Y172361D01*
X70639Y170042D01*
X67361Y170042D01*
X65042Y172361D01*
X65042Y174412D01*
X64974Y174567D01*
X65042Y174743D01*
X65042Y175639D01*
X65613Y176211D01*
X66750Y179130D01*
X66750Y228932D01*
X71068Y233250D01*
X76753Y233250D01*
X79353Y233904D01*
X79667Y234219D01*
X80601Y234219D01*
X81118Y234349D01*
X81336Y234219D01*
X82333Y234219D01*
X84219Y232333D01*
X84219Y229667D01*
X82333Y227781D01*
X81336Y227781D01*
X81118Y227651D01*
X80601Y227781D01*
X79667Y227781D01*
X79353Y228096D01*
X82958Y175639D02*
X80639Y177958D01*
X77361Y177958D01*
X75042Y175639D01*
X75042Y172361D01*
X77361Y170042D01*
X80639Y170042D01*
X82958Y172361D01*
X82958Y175639D01*
X84698Y198250D02*
X85667Y199219D01*
X88333Y199219D01*
X90219Y197333D01*
X90219Y194667D01*
X88333Y192781D01*
X85667Y192781D01*
X84698Y193750D01*
X79068Y193750D01*
X74750Y198068D01*
X74750Y217753D01*
X74096Y220353D01*
X73781Y220667D01*
X73781Y221601D01*
X73651Y222118D01*
X73781Y222336D01*
X73781Y223333D01*
X75667Y225219D01*
X78333Y225219D01*
X80219Y223333D01*
X80219Y222336D01*
X80349Y222118D01*
X80219Y221601D01*
X80219Y220667D01*
X79904Y220353D01*
X79250Y217753D01*
X79250Y199932D01*
X80932Y198250D01*
X84698Y198250D01*
G54D14*
X50000Y298000D03*
X81000Y231000D03*
X24000Y239000D03*
X96000Y277000D03*
X50000Y282000D03*
X86000Y210000D03*
X101000Y357000D03*
X87000Y196000D03*
X77000Y222000D03*
G54D15*
X89000Y174000D03*
X79000Y174000D03*
X59000Y174000D03*
X69000Y174000D03*
G54D16*
X62000Y333000D03*

M02*
