G75*
%MOIN*%
%OFA0B0*%
%FSLAX25Y25*%
%IPPOS*%
%LPD*%
%AMOC8*
5,1,8,0,0,1.08239X$1,22.5*
%
%ADD10C,0.00600*%
%ADD11C,0.06000*%
%ADD12OC8,0.06450*%
%ADD13OC8,0.06000*%
%ADD14C,0.06496*%
%ADD15C,0.10000*%
%ADD16C,0.05000*%
%ADD17C,0.02400*%
%ADD18C,0.01200*%
%ADD19C,0.01600*%
D10*
X0012548Y0030343D02*
X0012300Y0030600D01*
X0006300Y0036600D01*
X0006300Y0042900D01*
X0015300Y0051900D01*
X0031800Y0051900D01*
X0031800Y0053100D01*
X0080100Y0101400D01*
X0089100Y0101400D01*
X0089100Y0123300D01*
X0091200Y0124200D02*
X0089100Y0126300D01*
X0091200Y0124200D02*
X0091200Y0120600D01*
X0090300Y0119700D01*
X0090300Y0099600D01*
X0090900Y0099000D01*
X0088200Y0096300D01*
X0087600Y0096300D01*
X0087300Y0096600D01*
X0084000Y0096600D01*
X0067200Y0079800D01*
X0067200Y0076200D01*
X0069000Y0074400D01*
X0039000Y0044400D01*
X0027900Y0044400D01*
X0027300Y0043800D01*
X0030300Y0047100D02*
X0029100Y0048300D01*
X0020400Y0048300D01*
X0012600Y0040500D01*
X0012548Y0040343D01*
X0022548Y0030343D02*
X0022800Y0030600D01*
X0027900Y0035700D01*
X0051900Y0035700D01*
X0083400Y0067200D01*
X0083400Y0069000D01*
X0086400Y0072000D01*
X0086700Y0071700D01*
X0086700Y0070599D01*
X0086446Y0070599D01*
X0086700Y0070599D02*
X0087036Y0070599D01*
X0087233Y0070796D01*
X0087922Y0070796D01*
X0087600Y0073500D02*
X0087600Y0075300D01*
X0086400Y0076500D01*
X0076500Y0076500D01*
X0073500Y0073500D01*
X0069900Y0073500D01*
X0069000Y0074400D01*
X0071700Y0078000D02*
X0098400Y0104700D01*
X0098400Y0121800D01*
X0092700Y0120300D02*
X0092400Y0120600D01*
X0092400Y0122400D01*
X0115800Y0145800D01*
X0115800Y0237300D01*
X0098400Y0254700D01*
X0098414Y0254831D01*
X0098414Y0244831D02*
X0098400Y0244800D01*
X0098400Y0178200D01*
X0113400Y0163200D01*
X0113400Y0162300D01*
X0107400Y0156600D02*
X0102900Y0156600D01*
X0102900Y0170700D01*
X0084000Y0176400D02*
X0075600Y0184800D01*
X0075600Y0186600D01*
X0075540Y0186839D01*
X0076800Y0159300D02*
X0076800Y0138300D01*
X0067500Y0126000D02*
X0067500Y0153900D01*
X0042600Y0178800D01*
X0042600Y0183900D01*
X0044700Y0186000D01*
X0044700Y0188400D01*
X0042000Y0191100D01*
X0042900Y0193200D02*
X0076800Y0159300D01*
X0063900Y0148800D02*
X0063900Y0141900D01*
X0063000Y0141900D01*
X0063900Y0141900D02*
X0063900Y0120000D01*
X0065400Y0122100D02*
X0065400Y0123900D01*
X0067500Y0126000D01*
X0065400Y0122100D02*
X0066900Y0120600D01*
X0066900Y0120000D01*
X0070500Y0113400D02*
X0049200Y0092100D01*
X0035700Y0092100D01*
X0039000Y0098400D02*
X0026400Y0085800D01*
X0017400Y0085800D01*
X0013200Y0081600D01*
X0013040Y0081524D01*
X0012900Y0091500D02*
X0013040Y0091524D01*
X0012900Y0091500D02*
X0007800Y0096600D01*
X0007800Y0111900D01*
X0013500Y0117600D01*
X0013500Y0119700D01*
X0013611Y0119910D01*
X0013800Y0120000D01*
X0015300Y0120000D01*
X0021000Y0125700D01*
X0028200Y0125700D01*
X0030900Y0128400D01*
X0027000Y0115500D02*
X0021000Y0115500D01*
X0017700Y0112200D01*
X0017548Y0112036D01*
X0017100Y0107700D02*
X0013800Y0104400D01*
X0013611Y0104162D01*
X0017100Y0107700D02*
X0026700Y0107700D01*
X0028800Y0105600D01*
X0032100Y0105600D01*
X0036300Y0109800D01*
X0031200Y0107700D02*
X0027000Y0111900D01*
X0025500Y0111900D01*
X0025422Y0112036D01*
X0027600Y0114900D02*
X0027000Y0115500D01*
X0027600Y0114900D02*
X0056400Y0114900D01*
X0059100Y0109800D02*
X0059700Y0109800D01*
X0072000Y0122100D01*
X0075900Y0117600D02*
X0074400Y0116100D01*
X0074400Y0115800D01*
X0073500Y0114900D01*
X0073500Y0112500D01*
X0044700Y0083700D01*
X0035700Y0083700D01*
X0039000Y0098400D02*
X0047700Y0098400D01*
X0059100Y0109800D01*
X0075300Y0111600D02*
X0045300Y0081600D01*
X0023100Y0081600D01*
X0023040Y0081524D01*
X0013200Y0071400D02*
X0013040Y0071524D01*
X0013200Y0071400D02*
X0019800Y0064800D01*
X0033300Y0064800D01*
X0046500Y0060300D02*
X0033300Y0047100D01*
X0030300Y0047100D01*
X0069020Y0024877D02*
X0073691Y0024877D01*
X0070188Y0028380D01*
X0070188Y0021374D01*
X0076018Y0021374D02*
X0080689Y0021374D01*
X0083020Y0021374D02*
X0083020Y0022542D01*
X0084188Y0022542D01*
X0084188Y0021374D01*
X0083020Y0021374D01*
X0086515Y0021374D02*
X0091186Y0021374D01*
X0088850Y0021374D02*
X0088850Y0028380D01*
X0091186Y0026045D01*
X0093513Y0026045D02*
X0095848Y0021374D01*
X0098184Y0026045D01*
X0094683Y0018148D02*
X0094683Y0016980D01*
X0094683Y0014645D02*
X0094683Y0009974D01*
X0093516Y0009974D02*
X0095851Y0009974D01*
X0098178Y0011142D02*
X0099346Y0009974D01*
X0101681Y0009974D01*
X0102849Y0011142D01*
X0101681Y0013477D02*
X0102849Y0014645D01*
X0102849Y0015812D01*
X0101681Y0016980D01*
X0099346Y0016980D01*
X0098178Y0015812D01*
X0095851Y0014645D02*
X0094683Y0014645D01*
X0091186Y0013477D02*
X0090018Y0014645D01*
X0086515Y0014645D01*
X0086515Y0016980D02*
X0086515Y0009974D01*
X0090018Y0009974D01*
X0091186Y0011142D01*
X0091186Y0013477D01*
X0084188Y0013477D02*
X0083020Y0014645D01*
X0080685Y0014645D01*
X0079517Y0013477D01*
X0079517Y0012309D01*
X0084188Y0012309D01*
X0084188Y0011142D02*
X0084188Y0013477D01*
X0084188Y0011142D02*
X0083020Y0009974D01*
X0080685Y0009974D01*
X0078353Y0021374D02*
X0078353Y0028380D01*
X0080689Y0026045D01*
X0098178Y0012309D02*
X0098178Y0011142D01*
X0098178Y0012309D02*
X0099346Y0013477D01*
X0101681Y0013477D01*
X0107509Y0020206D02*
X0108676Y0019039D01*
X0109844Y0019039D01*
X0107509Y0020206D02*
X0107509Y0026045D01*
X0107509Y0021374D02*
X0111012Y0021374D01*
X0112179Y0022542D01*
X0112179Y0026045D01*
X0114507Y0024877D02*
X0114507Y0021374D01*
X0114507Y0024877D02*
X0115674Y0026045D01*
X0118010Y0026045D01*
X0119177Y0024877D01*
X0121505Y0026045D02*
X0125008Y0026045D01*
X0126175Y0024877D01*
X0126175Y0022542D01*
X0125008Y0021374D01*
X0121505Y0021374D01*
X0119177Y0021374D02*
X0119177Y0028380D01*
X0120340Y0014645D02*
X0122675Y0014645D01*
X0123843Y0013477D01*
X0123843Y0011142D01*
X0122675Y0009974D01*
X0120340Y0009974D01*
X0119172Y0011142D01*
X0119172Y0013477D01*
X0120340Y0014645D01*
X0116845Y0014645D02*
X0116845Y0009974D01*
X0114509Y0009974D02*
X0114509Y0013477D01*
X0113342Y0014645D01*
X0112174Y0013477D01*
X0112174Y0009974D01*
X0114509Y0013477D02*
X0115677Y0014645D01*
X0116845Y0014645D01*
X0126173Y0014645D02*
X0128508Y0014645D01*
X0127340Y0015812D02*
X0127340Y0011142D01*
X0126173Y0009974D01*
X0130838Y0009974D02*
X0132006Y0011142D01*
X0132006Y0015812D01*
X0133173Y0014645D02*
X0130838Y0014645D01*
X0132006Y0021374D02*
X0128503Y0021374D01*
X0128503Y0024877D01*
X0129670Y0026045D01*
X0132006Y0026045D01*
X0132006Y0023709D02*
X0128503Y0023709D01*
X0132006Y0023709D02*
X0133173Y0022542D01*
X0132006Y0021374D01*
X0135501Y0023709D02*
X0135501Y0024877D01*
X0136668Y0026045D01*
X0139004Y0026045D01*
X0140171Y0024877D01*
X0140171Y0022542D01*
X0139004Y0021374D01*
X0136668Y0021374D01*
X0135501Y0023709D02*
X0140171Y0023709D01*
X0142499Y0024877D02*
X0143666Y0023709D01*
X0147169Y0023709D01*
X0147169Y0021374D02*
X0147169Y0028380D01*
X0143666Y0028380D01*
X0142499Y0027212D01*
X0142499Y0024877D01*
X0143666Y0016980D02*
X0142499Y0015812D01*
X0142499Y0014645D01*
X0143666Y0013477D01*
X0147169Y0013477D01*
X0147169Y0009974D02*
X0143666Y0009974D01*
X0142499Y0011142D01*
X0142499Y0012309D01*
X0143666Y0013477D01*
X0140171Y0013477D02*
X0140171Y0011142D01*
X0139004Y0009974D01*
X0136668Y0009974D01*
X0135501Y0011142D01*
X0135501Y0013477D01*
X0136668Y0014645D01*
X0139004Y0014645D01*
X0140171Y0013477D01*
X0143666Y0016980D02*
X0147169Y0016980D01*
X0147169Y0009974D01*
X0119910Y0060855D02*
X0093000Y0087900D01*
X0079800Y0072900D02*
X0076500Y0069600D01*
X0076500Y0069000D01*
X0077700Y0102900D02*
X0077100Y0103500D01*
X0077100Y0108300D01*
X0080100Y0111300D01*
X0080100Y0116100D01*
X0075900Y0117600D02*
X0075900Y0119400D01*
X0089400Y0132900D01*
X0098100Y0132900D01*
X0099000Y0132000D01*
X0092700Y0120300D02*
X0092700Y0119100D01*
X0107100Y0129000D02*
X0114900Y0121200D01*
X0115973Y0127784D02*
X0111600Y0129600D01*
X0075600Y0114000D02*
X0075600Y0112800D01*
X0075300Y0112500D01*
X0075300Y0111600D01*
X0030600Y0164100D02*
X0023100Y0171600D01*
X0020700Y0181800D02*
X0019500Y0183000D01*
X0019500Y0187500D01*
X0032700Y0200700D01*
X0032700Y0226200D01*
X0033600Y0198600D02*
X0036900Y0198600D01*
X0074400Y0236100D01*
X0082200Y0236100D01*
X0086400Y0236100D01*
X0093900Y0228600D01*
X0093900Y0212100D01*
X0101111Y0221387D02*
X0104162Y0218335D01*
X0103800Y0210600D02*
X0106800Y0207600D01*
X0120796Y0221387D02*
X0123847Y0218335D01*
X0084477Y0218335D02*
X0081426Y0221387D01*
X0066662Y0222272D02*
X0064792Y0220402D01*
X0064792Y0218335D01*
X0042900Y0193200D02*
X0037500Y0193200D01*
X0026100Y0181800D01*
X0020700Y0181800D01*
X0038400Y0191100D02*
X0042600Y0186900D01*
D11*
X0075540Y0189839D02*
X0075540Y0183839D01*
X0085540Y0183839D02*
X0085540Y0189839D01*
D12*
X0139595Y0086277D03*
X0133858Y0080540D03*
X0139595Y0074803D03*
D13*
X0098414Y0244831D03*
X0098414Y0254831D03*
X0088414Y0254831D03*
X0088414Y0244831D03*
X0078414Y0244831D03*
X0078414Y0254831D03*
X0023040Y0091524D03*
X0023040Y0081524D03*
X0023040Y0071524D03*
X0013040Y0071524D03*
X0013040Y0081524D03*
X0013040Y0091524D03*
X0012548Y0040343D03*
X0012548Y0030343D03*
X0012548Y0020343D03*
X0022548Y0020343D03*
X0022548Y0030343D03*
X0022548Y0040343D03*
D14*
X0007095Y0138414D03*
X0007095Y0164398D03*
D15*
X0096288Y0037233D03*
X0108099Y0037233D03*
D16*
X0025422Y0104162D03*
X0025422Y0112036D03*
X0025422Y0119910D03*
X0017548Y0112036D03*
X0013611Y0104162D03*
X0013611Y0119910D03*
X0064792Y0218335D03*
X0084477Y0218335D03*
X0104162Y0218335D03*
X0123847Y0218335D03*
D17*
X0120796Y0221387D03*
X0113700Y0212400D03*
X0109800Y0214500D03*
X0109500Y0221100D03*
X0103800Y0210600D03*
X0106800Y0207600D03*
X0101111Y0221387D03*
X0093900Y0212100D03*
X0089700Y0221100D03*
X0081426Y0221387D03*
X0082200Y0236100D03*
X0086400Y0236100D03*
X0069900Y0221100D03*
X0066662Y0222272D03*
X0049200Y0220500D03*
X0043800Y0202500D03*
X0042000Y0191100D03*
X0042600Y0186900D03*
X0038400Y0191100D03*
X0033600Y0198600D03*
X0021600Y0183900D03*
X0017548Y0180442D03*
X0023100Y0171600D03*
X0030600Y0164100D03*
X0037200Y0175800D03*
X0042600Y0178800D03*
X0041100Y0150600D03*
X0029700Y0140700D03*
X0030900Y0128400D03*
X0027900Y0123600D03*
X0036300Y0109800D03*
X0031200Y0107700D03*
X0035700Y0092100D03*
X0035700Y0083700D03*
X0033300Y0064800D03*
X0041100Y0049800D03*
X0046500Y0060300D03*
X0027300Y0043800D03*
X0027900Y0018000D03*
X0071700Y0078000D03*
X0076500Y0069000D03*
X0079800Y0072900D03*
X0087922Y0070796D03*
X0093000Y0087900D03*
X0100426Y0067837D03*
X0103500Y0050400D03*
X0104700Y0046800D03*
X0097200Y0044100D03*
X0119910Y0060855D03*
X0096300Y0108600D03*
X0092700Y0119100D03*
X0089100Y0123300D03*
X0089100Y0126300D03*
X0098400Y0121800D03*
X0099000Y0132000D03*
X0107100Y0129000D03*
X0111600Y0129600D03*
X0115973Y0127784D03*
X0114900Y0121200D03*
X0123300Y0148500D03*
X0113400Y0162300D03*
X0108000Y0160200D03*
X0107400Y0156600D03*
X0102900Y0156600D03*
X0102900Y0170700D03*
X0088200Y0144000D03*
X0076800Y0138300D03*
X0072000Y0122100D03*
X0066900Y0120000D03*
X0063900Y0120000D03*
X0056400Y0114900D03*
X0057300Y0131700D03*
X0063000Y0141900D03*
X0063900Y0148800D03*
X0080100Y0116100D03*
X0075600Y0114000D03*
X0070500Y0113400D03*
X0077700Y0102900D03*
X0066300Y0095700D03*
X0074100Y0037200D03*
X0084000Y0176400D03*
X0129000Y0221100D03*
X0138000Y0249900D03*
X0032700Y0226200D03*
X0029400Y0227700D03*
X0029400Y0243300D03*
X0015600Y0226800D03*
D18*
X0043800Y0202500D02*
X0025200Y0183900D01*
X0021600Y0183900D01*
X0017548Y0179950D02*
X0018532Y0178965D01*
X0017548Y0178965D01*
X0017548Y0179950D02*
X0017548Y0180442D01*
X0027900Y0123600D02*
X0025500Y0121200D01*
X0025500Y0120000D01*
X0025422Y0119910D01*
X0099600Y0041700D02*
X0096300Y0038400D01*
X0096300Y0037500D01*
X0096288Y0037233D01*
X0099600Y0041700D02*
X0097200Y0044100D01*
X0099600Y0041700D02*
X0104700Y0046800D01*
X0113700Y0212400D02*
X0111600Y0214500D01*
X0109800Y0214500D01*
D19*
X0004600Y0134417D02*
X0004600Y0004600D01*
X0148626Y0004600D01*
X0148625Y0009026D01*
X0147873Y0008274D01*
X0142962Y0008274D01*
X0142231Y0009006D01*
X0141794Y0009442D01*
X0141794Y0009442D01*
X0141530Y0009706D01*
X0141335Y0009901D01*
X0140704Y0009270D01*
X0140704Y0009270D01*
X0139708Y0008274D01*
X0135964Y0008274D01*
X0135253Y0008985D01*
X0134797Y0009442D01*
X0134796Y0009442D01*
X0134511Y0009727D01*
X0133801Y0010437D01*
X0133801Y0012945D01*
X0133706Y0012945D01*
X0133706Y0010437D01*
X0132974Y0009706D01*
X0132710Y0009442D01*
X0132710Y0009442D01*
X0131542Y0008274D01*
X0130134Y0008274D01*
X0129138Y0009270D01*
X0129138Y0010678D01*
X0130306Y0011846D01*
X0130306Y0012945D01*
X0130134Y0012945D01*
X0129673Y0013406D01*
X0129212Y0012945D01*
X0129040Y0012945D01*
X0129040Y0010437D01*
X0128309Y0009706D01*
X0128045Y0009442D01*
X0128045Y0009442D01*
X0126877Y0008274D01*
X0125469Y0008274D01*
X0124473Y0009270D01*
X0124473Y0009368D01*
X0123379Y0008274D01*
X0119636Y0008274D01*
X0118925Y0008985D01*
X0118545Y0009365D01*
X0118545Y0009270D01*
X0117549Y0008274D01*
X0116141Y0008274D01*
X0115677Y0008738D01*
X0115214Y0008274D01*
X0113805Y0008274D01*
X0113342Y0008738D01*
X0112878Y0008274D01*
X0111470Y0008274D01*
X0110474Y0009270D01*
X0110474Y0014181D01*
X0111470Y0015177D01*
X0112638Y0016345D01*
X0114046Y0016345D01*
X0114509Y0015881D01*
X0114973Y0016345D01*
X0117549Y0016345D01*
X0118545Y0015349D01*
X0118545Y0015254D01*
X0118640Y0015349D01*
X0119636Y0016345D01*
X0123379Y0016345D01*
X0124111Y0015613D01*
X0124375Y0015349D01*
X0124375Y0015349D01*
X0124473Y0015251D01*
X0124473Y0015349D01*
X0125469Y0016345D01*
X0125640Y0016345D01*
X0125640Y0016516D01*
X0126636Y0017512D01*
X0128045Y0017512D01*
X0129040Y0016516D01*
X0129040Y0016345D01*
X0129212Y0016345D01*
X0129673Y0015884D01*
X0130134Y0016345D01*
X0130306Y0016345D01*
X0130306Y0016516D01*
X0131302Y0017512D01*
X0132710Y0017512D01*
X0133706Y0016516D01*
X0133706Y0016345D01*
X0133878Y0016345D01*
X0134873Y0015349D01*
X0134873Y0015254D01*
X0134968Y0015349D01*
X0135964Y0016345D01*
X0139708Y0016345D01*
X0140063Y0015990D01*
X0140704Y0015349D01*
X0140704Y0015349D01*
X0140799Y0015254D01*
X0140799Y0016516D01*
X0141794Y0017512D01*
X0142962Y0018680D01*
X0147873Y0018680D01*
X0148625Y0017929D01*
X0148625Y0020425D01*
X0147873Y0019674D01*
X0146465Y0019674D01*
X0145469Y0020670D01*
X0145469Y0022009D01*
X0142962Y0022009D01*
X0141966Y0023005D01*
X0141871Y0023100D01*
X0141871Y0021837D01*
X0140875Y0020842D01*
X0139708Y0019674D01*
X0135964Y0019674D01*
X0134968Y0020670D01*
X0134968Y0022009D01*
X0134873Y0022009D01*
X0134873Y0021837D01*
X0134368Y0021332D01*
X0132710Y0019674D01*
X0127799Y0019674D01*
X0126803Y0020670D01*
X0126803Y0020765D01*
X0126708Y0020670D01*
X0125712Y0019674D01*
X0120801Y0019674D01*
X0120341Y0020134D01*
X0119882Y0019674D01*
X0118473Y0019674D01*
X0117477Y0020670D01*
X0117477Y0024173D01*
X0117306Y0024345D01*
X0116379Y0024345D01*
X0116207Y0024173D01*
X0116207Y0020670D01*
X0115211Y0019674D01*
X0113803Y0019674D01*
X0112807Y0020670D01*
X0112807Y0020765D01*
X0112712Y0020670D01*
X0112712Y0020670D01*
X0111716Y0019674D01*
X0111544Y0019674D01*
X0111544Y0018335D01*
X0110548Y0017339D01*
X0107972Y0017339D01*
X0106976Y0018335D01*
X0105809Y0019502D01*
X0105809Y0026749D01*
X0106805Y0027745D01*
X0108213Y0027745D01*
X0109209Y0026749D01*
X0109209Y0023074D01*
X0110308Y0023074D01*
X0110479Y0023246D01*
X0110479Y0026749D01*
X0111475Y0027745D01*
X0112884Y0027745D01*
X0113879Y0026749D01*
X0113879Y0026654D01*
X0114970Y0027745D01*
X0117477Y0027745D01*
X0117477Y0029084D01*
X0118473Y0030080D01*
X0119882Y0030080D01*
X0120877Y0029084D01*
X0120877Y0027745D01*
X0125712Y0027745D01*
X0126444Y0027013D01*
X0126708Y0026749D01*
X0126708Y0026749D01*
X0127144Y0026313D01*
X0127339Y0026117D01*
X0127799Y0026577D01*
X0128966Y0027745D01*
X0132710Y0027745D01*
X0133706Y0026749D01*
X0133706Y0025341D01*
X0133242Y0024877D01*
X0133421Y0024699D01*
X0133706Y0024413D01*
X0133706Y0024413D01*
X0133801Y0024319D01*
X0133801Y0025581D01*
X0134796Y0026577D01*
X0135964Y0027745D01*
X0139708Y0027745D01*
X0140419Y0027034D01*
X0140704Y0026749D01*
X0140704Y0026749D01*
X0140799Y0026654D01*
X0140799Y0027916D01*
X0141794Y0028912D01*
X0142962Y0030080D01*
X0147873Y0030080D01*
X0148624Y0029330D01*
X0148607Y0258843D01*
X0100626Y0258843D01*
X0102814Y0256654D01*
X0102814Y0253009D01*
X0102655Y0252849D01*
X0117500Y0238004D01*
X0117500Y0145096D01*
X0116504Y0144100D01*
X0094100Y0121696D01*
X0094100Y0121334D01*
X0094173Y0121304D01*
X0094904Y0120573D01*
X0095300Y0119617D01*
X0095300Y0118583D01*
X0094904Y0117627D01*
X0094173Y0116896D01*
X0093217Y0116500D01*
X0092183Y0116500D01*
X0092000Y0116576D01*
X0092000Y0100704D01*
X0096700Y0105404D01*
X0096700Y0119823D01*
X0096196Y0120327D01*
X0095800Y0121283D01*
X0095800Y0122317D01*
X0096196Y0123273D01*
X0096927Y0124004D01*
X0097883Y0124400D01*
X0098917Y0124400D01*
X0099873Y0124004D01*
X0100604Y0123273D01*
X0101000Y0122317D01*
X0101000Y0121283D01*
X0100604Y0120327D01*
X0100100Y0119823D01*
X0100100Y0103996D01*
X0074300Y0078196D01*
X0074300Y0077483D01*
X0073904Y0076527D01*
X0073173Y0075796D01*
X0072217Y0075400D01*
X0071183Y0075400D01*
X0070227Y0075796D01*
X0069496Y0076527D01*
X0069100Y0077483D01*
X0069100Y0078517D01*
X0069496Y0079473D01*
X0070227Y0080204D01*
X0071183Y0080600D01*
X0071896Y0080600D01*
X0086196Y0094900D01*
X0084704Y0094900D01*
X0068900Y0079096D01*
X0068900Y0076904D01*
X0069704Y0076100D01*
X0070604Y0075200D01*
X0072796Y0075200D01*
X0075796Y0078200D01*
X0087104Y0078200D01*
X0088100Y0077204D01*
X0089300Y0076004D01*
X0089300Y0073039D01*
X0089395Y0073000D01*
X0090126Y0072269D01*
X0090522Y0071313D01*
X0090522Y0070279D01*
X0090126Y0069323D01*
X0089395Y0068592D01*
X0088439Y0068196D01*
X0087405Y0068196D01*
X0086449Y0068592D01*
X0086142Y0068899D01*
X0085741Y0068899D01*
X0085722Y0068918D01*
X0085100Y0068296D01*
X0085100Y0066496D01*
X0084104Y0065500D01*
X0052604Y0034000D01*
X0028604Y0034000D01*
X0026859Y0032255D01*
X0026948Y0032166D01*
X0026948Y0028521D01*
X0024371Y0025943D01*
X0020725Y0025943D01*
X0018148Y0028521D01*
X0018148Y0032166D01*
X0020725Y0034743D01*
X0024371Y0034743D01*
X0024455Y0034659D01*
X0026200Y0036404D01*
X0027196Y0037400D01*
X0051196Y0037400D01*
X0081700Y0067904D01*
X0081700Y0069704D01*
X0084700Y0072704D01*
X0085696Y0073700D01*
X0085900Y0073700D01*
X0085900Y0074596D01*
X0085696Y0074800D01*
X0081577Y0074800D01*
X0082004Y0074373D01*
X0082400Y0073417D01*
X0082400Y0072383D01*
X0082004Y0071427D01*
X0081273Y0070696D01*
X0080317Y0070300D01*
X0079604Y0070300D01*
X0079018Y0069714D01*
X0079100Y0069517D01*
X0079100Y0068483D01*
X0078704Y0067527D01*
X0077973Y0066796D01*
X0077017Y0066400D01*
X0075983Y0066400D01*
X0075027Y0066796D01*
X0074296Y0067527D01*
X0073900Y0068483D01*
X0073900Y0069517D01*
X0074296Y0070473D01*
X0075027Y0071204D01*
X0075983Y0071600D01*
X0076096Y0071600D01*
X0077200Y0072704D01*
X0077200Y0073417D01*
X0077596Y0074373D01*
X0078023Y0074800D01*
X0077204Y0074800D01*
X0075200Y0072796D01*
X0074204Y0071800D01*
X0069196Y0071800D01*
X0069000Y0071996D01*
X0039704Y0042700D01*
X0029659Y0042700D01*
X0029504Y0042327D01*
X0028773Y0041596D01*
X0027817Y0041200D01*
X0026948Y0041200D01*
X0026948Y0038521D01*
X0024371Y0035943D01*
X0020725Y0035943D01*
X0018148Y0038521D01*
X0018148Y0042166D01*
X0020725Y0044743D01*
X0024371Y0044743D01*
X0024728Y0044386D01*
X0025096Y0045273D01*
X0025827Y0046004D01*
X0026783Y0046400D01*
X0027817Y0046400D01*
X0028541Y0046100D01*
X0028896Y0046100D01*
X0028600Y0046396D01*
X0028396Y0046600D01*
X0021104Y0046600D01*
X0016809Y0042305D01*
X0016948Y0042166D01*
X0016948Y0038521D01*
X0014371Y0035943D01*
X0010725Y0035943D01*
X0008148Y0038521D01*
X0008148Y0042166D01*
X0010725Y0044743D01*
X0014371Y0044743D01*
X0014405Y0044709D01*
X0018700Y0049004D01*
X0019696Y0050000D01*
X0029804Y0050000D01*
X0031004Y0048800D01*
X0032596Y0048800D01*
X0043900Y0060104D01*
X0043900Y0060817D01*
X0044296Y0061773D01*
X0045027Y0062504D01*
X0045983Y0062900D01*
X0047017Y0062900D01*
X0047973Y0062504D01*
X0048704Y0061773D01*
X0049100Y0060817D01*
X0049100Y0059783D01*
X0048704Y0058827D01*
X0047973Y0058096D01*
X0047017Y0057700D01*
X0046304Y0057700D01*
X0034704Y0046100D01*
X0038296Y0046100D01*
X0066596Y0074400D01*
X0066496Y0074500D01*
X0065500Y0075496D01*
X0065500Y0080504D01*
X0082300Y0097304D01*
X0083296Y0098300D01*
X0087796Y0098300D01*
X0088600Y0099104D01*
X0088600Y0099700D01*
X0080804Y0099700D01*
X0033500Y0052396D01*
X0033500Y0051196D01*
X0032504Y0050200D01*
X0016004Y0050200D01*
X0008000Y0042196D01*
X0008000Y0037304D01*
X0010643Y0034661D01*
X0010725Y0034743D01*
X0014371Y0034743D01*
X0016948Y0032166D01*
X0016948Y0028521D01*
X0014371Y0025943D01*
X0010725Y0025943D01*
X0008148Y0028521D01*
X0008148Y0032166D01*
X0008239Y0032257D01*
X0005596Y0034900D01*
X0004600Y0035896D01*
X0004600Y0043604D01*
X0013600Y0052604D01*
X0014596Y0053600D01*
X0030100Y0053600D01*
X0030100Y0053804D01*
X0076768Y0100472D01*
X0076227Y0100696D01*
X0075496Y0101427D01*
X0075100Y0102383D01*
X0075100Y0103417D01*
X0075400Y0104141D01*
X0075400Y0109004D01*
X0078400Y0112004D01*
X0078400Y0114123D01*
X0078200Y0114323D01*
X0078200Y0113483D01*
X0077804Y0112527D01*
X0077073Y0111796D01*
X0077000Y0111766D01*
X0077000Y0110896D01*
X0047000Y0080896D01*
X0046004Y0079900D01*
X0027440Y0079900D01*
X0027440Y0079702D01*
X0024863Y0077124D01*
X0021218Y0077124D01*
X0018640Y0079702D01*
X0018640Y0083347D01*
X0019393Y0084100D01*
X0018104Y0084100D01*
X0017396Y0083391D01*
X0017440Y0083347D01*
X0017440Y0079702D01*
X0014863Y0077124D01*
X0011218Y0077124D01*
X0008640Y0079702D01*
X0008640Y0083347D01*
X0011218Y0085924D01*
X0014863Y0085924D01*
X0014991Y0085796D01*
X0016696Y0087500D01*
X0020842Y0087500D01*
X0018640Y0089702D01*
X0018640Y0093347D01*
X0021218Y0095924D01*
X0024863Y0095924D01*
X0027440Y0093347D01*
X0027440Y0089702D01*
X0025238Y0087500D01*
X0025696Y0087500D01*
X0038296Y0100100D01*
X0046996Y0100100D01*
X0057400Y0110504D01*
X0057400Y0110504D01*
X0058396Y0111500D01*
X0058996Y0111500D01*
X0065234Y0117738D01*
X0064417Y0117400D01*
X0063383Y0117400D01*
X0062427Y0117796D01*
X0061696Y0118527D01*
X0061300Y0119483D01*
X0061300Y0120517D01*
X0061696Y0121473D01*
X0062200Y0121977D01*
X0062200Y0139417D01*
X0061527Y0139696D01*
X0060796Y0140427D01*
X0060400Y0141383D01*
X0060400Y0142417D01*
X0060796Y0143373D01*
X0061527Y0144104D01*
X0062200Y0144383D01*
X0062200Y0146823D01*
X0061696Y0147327D01*
X0061300Y0148283D01*
X0061300Y0149317D01*
X0061696Y0150273D01*
X0062427Y0151004D01*
X0063383Y0151400D01*
X0064417Y0151400D01*
X0065373Y0151004D01*
X0065800Y0150577D01*
X0065800Y0153196D01*
X0042796Y0176200D01*
X0042083Y0176200D01*
X0041127Y0176596D01*
X0040396Y0177327D01*
X0040000Y0178283D01*
X0040000Y0179317D01*
X0040396Y0180273D01*
X0040900Y0180777D01*
X0040900Y0184604D01*
X0041059Y0184764D01*
X0040396Y0185427D01*
X0040000Y0186383D01*
X0040000Y0187096D01*
X0038596Y0188500D01*
X0037883Y0188500D01*
X0036927Y0188896D01*
X0036264Y0189559D01*
X0026804Y0180100D01*
X0019996Y0180100D01*
X0019000Y0181096D01*
X0017800Y0182296D01*
X0017800Y0188204D01*
X0018796Y0189200D01*
X0031000Y0201404D01*
X0031000Y0224223D01*
X0030496Y0224727D01*
X0030100Y0225683D01*
X0030100Y0226717D01*
X0030496Y0227673D01*
X0031227Y0228404D01*
X0032183Y0228800D01*
X0033217Y0228800D01*
X0034173Y0228404D01*
X0034904Y0227673D01*
X0035300Y0226717D01*
X0035300Y0225683D01*
X0034904Y0224727D01*
X0034400Y0224223D01*
X0034400Y0201083D01*
X0035073Y0200804D01*
X0035577Y0200300D01*
X0036196Y0200300D01*
X0072700Y0236804D01*
X0073696Y0237800D01*
X0080223Y0237800D01*
X0080727Y0238304D01*
X0081683Y0238700D01*
X0082717Y0238700D01*
X0083673Y0238304D01*
X0084177Y0237800D01*
X0084423Y0237800D01*
X0084927Y0238304D01*
X0085883Y0238700D01*
X0086917Y0238700D01*
X0087873Y0238304D01*
X0088604Y0237573D01*
X0089000Y0236617D01*
X0089000Y0235904D01*
X0095600Y0229304D01*
X0095600Y0214077D01*
X0096104Y0213573D01*
X0096500Y0212617D01*
X0096500Y0211583D01*
X0096104Y0210627D01*
X0095373Y0209896D01*
X0094417Y0209500D01*
X0093383Y0209500D01*
X0092427Y0209896D01*
X0091696Y0210627D01*
X0091300Y0211583D01*
X0091300Y0212617D01*
X0091696Y0213573D01*
X0092200Y0214077D01*
X0092200Y0227896D01*
X0086596Y0233500D01*
X0085883Y0233500D01*
X0084927Y0233896D01*
X0084423Y0234400D01*
X0084177Y0234400D01*
X0083673Y0233896D01*
X0082717Y0233500D01*
X0081683Y0233500D01*
X0080727Y0233896D01*
X0080223Y0234400D01*
X0075104Y0234400D01*
X0045341Y0204636D01*
X0046004Y0203973D01*
X0046400Y0203017D01*
X0046400Y0201983D01*
X0046004Y0201027D01*
X0045273Y0200296D01*
X0044317Y0199900D01*
X0044028Y0199900D01*
X0039028Y0194900D01*
X0043604Y0194900D01*
X0077504Y0161000D01*
X0078500Y0160004D01*
X0078500Y0140277D01*
X0079004Y0139773D01*
X0079400Y0138817D01*
X0079400Y0137783D01*
X0079004Y0136827D01*
X0078273Y0136096D01*
X0077317Y0135700D01*
X0076283Y0135700D01*
X0075327Y0136096D01*
X0074596Y0136827D01*
X0074200Y0137783D01*
X0074200Y0138817D01*
X0074596Y0139773D01*
X0075100Y0140277D01*
X0075100Y0158596D01*
X0046400Y0187296D01*
X0046400Y0185296D01*
X0045404Y0184300D01*
X0044300Y0183196D01*
X0044300Y0180777D01*
X0044804Y0180273D01*
X0045200Y0179317D01*
X0045200Y0178604D01*
X0069200Y0154604D01*
X0069200Y0125296D01*
X0068204Y0124300D01*
X0067100Y0123196D01*
X0067100Y0122804D01*
X0067304Y0122600D01*
X0067417Y0122600D01*
X0068373Y0122204D01*
X0069036Y0121541D01*
X0069400Y0121904D01*
X0069400Y0122617D01*
X0069796Y0123573D01*
X0070527Y0124304D01*
X0071483Y0124700D01*
X0072517Y0124700D01*
X0073473Y0124304D01*
X0074204Y0123573D01*
X0074600Y0122617D01*
X0074600Y0121583D01*
X0074204Y0120627D01*
X0073473Y0119896D01*
X0072517Y0119500D01*
X0071804Y0119500D01*
X0060404Y0108100D01*
X0059804Y0108100D01*
X0048404Y0096700D01*
X0039704Y0096700D01*
X0037241Y0094236D01*
X0037677Y0093800D01*
X0048496Y0093800D01*
X0067900Y0113204D01*
X0067900Y0113917D01*
X0068296Y0114873D01*
X0069027Y0115604D01*
X0069983Y0116000D01*
X0071017Y0116000D01*
X0071851Y0115655D01*
X0072700Y0116504D01*
X0072700Y0116804D01*
X0073696Y0117800D01*
X0074200Y0118304D01*
X0074200Y0120104D01*
X0075196Y0121100D01*
X0088696Y0134600D01*
X0099517Y0134600D01*
X0100473Y0134204D01*
X0101136Y0133541D01*
X0114100Y0146504D01*
X0114100Y0159776D01*
X0113917Y0159700D01*
X0112883Y0159700D01*
X0111927Y0160096D01*
X0111196Y0160827D01*
X0110800Y0161783D01*
X0110800Y0162817D01*
X0110969Y0163226D01*
X0105036Y0169159D01*
X0104600Y0168723D01*
X0104600Y0158577D01*
X0104877Y0158300D01*
X0105423Y0158300D01*
X0105927Y0158804D01*
X0106883Y0159200D01*
X0107917Y0159200D01*
X0108873Y0158804D01*
X0109604Y0158073D01*
X0110000Y0157117D01*
X0110000Y0156083D01*
X0109604Y0155127D01*
X0108873Y0154396D01*
X0107917Y0154000D01*
X0106883Y0154000D01*
X0105927Y0154396D01*
X0105423Y0154900D01*
X0104877Y0154900D01*
X0104373Y0154396D01*
X0103417Y0154000D01*
X0102383Y0154000D01*
X0101427Y0154396D01*
X0100696Y0155127D01*
X0100300Y0156083D01*
X0100300Y0157117D01*
X0100696Y0158073D01*
X0101200Y0158577D01*
X0101200Y0168723D01*
X0100696Y0169227D01*
X0100300Y0170183D01*
X0100300Y0171217D01*
X0100696Y0172173D01*
X0101359Y0172836D01*
X0096700Y0177496D01*
X0096700Y0240431D01*
X0096592Y0240431D01*
X0094014Y0243009D01*
X0094014Y0246654D01*
X0096592Y0249231D01*
X0100237Y0249231D01*
X0102814Y0246654D01*
X0102814Y0243009D01*
X0100237Y0240431D01*
X0100100Y0240431D01*
X0100100Y0223782D01*
X0100594Y0223987D01*
X0101628Y0223987D01*
X0102584Y0223591D01*
X0103315Y0222859D01*
X0103574Y0222235D01*
X0104938Y0222235D01*
X0106371Y0221642D01*
X0107468Y0220545D01*
X0108062Y0219111D01*
X0108062Y0217560D01*
X0107468Y0216126D01*
X0106371Y0215029D01*
X0104938Y0214435D01*
X0103386Y0214435D01*
X0101953Y0215029D01*
X0100856Y0216126D01*
X0100262Y0217560D01*
X0100262Y0218924D01*
X0100100Y0218991D01*
X0100100Y0178904D01*
X0114100Y0164904D01*
X0114100Y0209800D01*
X0113183Y0209800D01*
X0112227Y0210196D01*
X0111496Y0210927D01*
X0111100Y0211883D01*
X0111100Y0212172D01*
X0111063Y0212209D01*
X0110317Y0211900D01*
X0109283Y0211900D01*
X0108327Y0212296D01*
X0107596Y0213027D01*
X0107200Y0213983D01*
X0107200Y0215017D01*
X0107596Y0215973D01*
X0108327Y0216704D01*
X0109283Y0217100D01*
X0110317Y0217100D01*
X0111273Y0216704D01*
X0111477Y0216500D01*
X0112428Y0216500D01*
X0113600Y0215328D01*
X0113928Y0215000D01*
X0114100Y0215000D01*
X0114100Y0236596D01*
X0100251Y0250445D01*
X0100237Y0250431D01*
X0096592Y0250431D01*
X0094014Y0253009D01*
X0094014Y0256654D01*
X0096203Y0258843D01*
X0090626Y0258843D01*
X0092814Y0256654D01*
X0092814Y0253009D01*
X0090237Y0250431D01*
X0086592Y0250431D01*
X0084014Y0253009D01*
X0084014Y0256654D01*
X0086203Y0258843D01*
X0080626Y0258843D01*
X0082814Y0256654D01*
X0082814Y0253009D01*
X0080237Y0250431D01*
X0076592Y0250431D01*
X0074014Y0253009D01*
X0074014Y0256654D01*
X0076203Y0258843D01*
X0004600Y0258843D01*
X0004600Y0168396D01*
X0006171Y0169046D01*
X0008020Y0169046D01*
X0009728Y0168339D01*
X0011036Y0167031D01*
X0011743Y0165323D01*
X0011743Y0163474D01*
X0011036Y0161766D01*
X0009728Y0160458D01*
X0008020Y0159750D01*
X0006171Y0159750D01*
X0004600Y0160401D01*
X0004600Y0142412D01*
X0006171Y0143062D01*
X0008020Y0143062D01*
X0009728Y0142355D01*
X0011036Y0141047D01*
X0011743Y0139339D01*
X0011743Y0137490D01*
X0011036Y0135781D01*
X0009728Y0134474D01*
X0008020Y0133766D01*
X0006171Y0133766D01*
X0004600Y0134417D01*
X0004600Y0132878D02*
X0062200Y0132878D01*
X0062200Y0134476D02*
X0009731Y0134476D01*
X0011157Y0136075D02*
X0062200Y0136075D01*
X0062200Y0137673D02*
X0011743Y0137673D01*
X0011743Y0139272D02*
X0062200Y0139272D01*
X0060612Y0140870D02*
X0011109Y0140870D01*
X0009452Y0142469D02*
X0060421Y0142469D01*
X0061491Y0144068D02*
X0004600Y0144068D01*
X0004600Y0145666D02*
X0062200Y0145666D01*
X0061759Y0147265D02*
X0004600Y0147265D01*
X0004600Y0148863D02*
X0061300Y0148863D01*
X0061885Y0150462D02*
X0004600Y0150462D01*
X0004600Y0152060D02*
X0065800Y0152060D01*
X0065337Y0153659D02*
X0004600Y0153659D01*
X0004600Y0155257D02*
X0063739Y0155257D01*
X0062140Y0156856D02*
X0004600Y0156856D01*
X0004600Y0158454D02*
X0060542Y0158454D01*
X0058943Y0160053D02*
X0008749Y0160053D01*
X0010921Y0161651D02*
X0029718Y0161651D01*
X0030083Y0161500D02*
X0031117Y0161500D01*
X0032073Y0161896D01*
X0032804Y0162627D01*
X0033200Y0163583D01*
X0033200Y0164617D01*
X0032804Y0165573D01*
X0032073Y0166304D01*
X0031117Y0166700D01*
X0030404Y0166700D01*
X0025700Y0171404D01*
X0025700Y0172117D01*
X0025304Y0173073D01*
X0024573Y0173804D01*
X0023617Y0174200D01*
X0022583Y0174200D01*
X0021627Y0173804D01*
X0020896Y0173073D01*
X0020500Y0172117D01*
X0020500Y0171083D01*
X0020896Y0170127D01*
X0021627Y0169396D01*
X0022583Y0169000D01*
X0023296Y0169000D01*
X0028000Y0164296D01*
X0028000Y0163583D01*
X0028396Y0162627D01*
X0029127Y0161896D01*
X0030083Y0161500D01*
X0031482Y0161651D02*
X0057345Y0161651D01*
X0055746Y0163250D02*
X0033062Y0163250D01*
X0033104Y0164848D02*
X0054148Y0164848D01*
X0052549Y0166447D02*
X0031729Y0166447D01*
X0029059Y0168045D02*
X0050951Y0168045D01*
X0049352Y0169644D02*
X0027460Y0169644D01*
X0025862Y0171242D02*
X0047754Y0171242D01*
X0046155Y0172841D02*
X0025400Y0172841D01*
X0024251Y0168045D02*
X0010022Y0168045D01*
X0011278Y0166447D02*
X0025849Y0166447D01*
X0027448Y0164848D02*
X0011743Y0164848D01*
X0011650Y0163250D02*
X0028138Y0163250D01*
X0021379Y0169644D02*
X0004600Y0169644D01*
X0004600Y0171242D02*
X0020500Y0171242D01*
X0020800Y0172841D02*
X0004600Y0172841D01*
X0004600Y0174439D02*
X0044557Y0174439D01*
X0042958Y0176038D02*
X0004600Y0176038D01*
X0004600Y0177636D02*
X0040268Y0177636D01*
X0040000Y0179235D02*
X0004600Y0179235D01*
X0004600Y0180833D02*
X0019263Y0180833D01*
X0017800Y0182432D02*
X0004600Y0182432D01*
X0004600Y0184030D02*
X0017800Y0184030D01*
X0017800Y0185629D02*
X0004600Y0185629D01*
X0004600Y0187227D02*
X0017800Y0187227D01*
X0018422Y0188826D02*
X0004600Y0188826D01*
X0004600Y0190424D02*
X0020020Y0190424D01*
X0021619Y0192023D02*
X0004600Y0192023D01*
X0004600Y0193621D02*
X0023217Y0193621D01*
X0024816Y0195220D02*
X0004600Y0195220D01*
X0004600Y0196818D02*
X0026414Y0196818D01*
X0028013Y0198417D02*
X0004600Y0198417D01*
X0004600Y0200015D02*
X0029611Y0200015D01*
X0031000Y0201614D02*
X0004600Y0201614D01*
X0004600Y0203212D02*
X0031000Y0203212D01*
X0031000Y0204811D02*
X0004600Y0204811D01*
X0004600Y0206409D02*
X0031000Y0206409D01*
X0031000Y0208008D02*
X0004600Y0208008D01*
X0004600Y0209606D02*
X0031000Y0209606D01*
X0031000Y0211205D02*
X0004600Y0211205D01*
X0004600Y0212803D02*
X0031000Y0212803D01*
X0031000Y0214402D02*
X0004600Y0214402D01*
X0004600Y0216001D02*
X0031000Y0216001D01*
X0031000Y0217599D02*
X0004600Y0217599D01*
X0004600Y0219198D02*
X0031000Y0219198D01*
X0031000Y0220796D02*
X0004600Y0220796D01*
X0004600Y0222395D02*
X0031000Y0222395D01*
X0031000Y0223993D02*
X0004600Y0223993D01*
X0004600Y0225592D02*
X0030138Y0225592D01*
X0030296Y0227190D02*
X0004600Y0227190D01*
X0004600Y0228789D02*
X0032155Y0228789D01*
X0033245Y0228789D02*
X0064684Y0228789D01*
X0063086Y0227190D02*
X0035104Y0227190D01*
X0035262Y0225592D02*
X0061487Y0225592D01*
X0059889Y0223993D02*
X0034400Y0223993D01*
X0034400Y0222395D02*
X0058290Y0222395D01*
X0056692Y0220796D02*
X0034400Y0220796D01*
X0034400Y0219198D02*
X0055093Y0219198D01*
X0053495Y0217599D02*
X0034400Y0217599D01*
X0034400Y0216001D02*
X0051896Y0216001D01*
X0050298Y0214402D02*
X0034400Y0214402D01*
X0034400Y0212803D02*
X0048699Y0212803D01*
X0047101Y0211205D02*
X0034400Y0211205D01*
X0034400Y0209606D02*
X0045502Y0209606D01*
X0043904Y0208008D02*
X0034400Y0208008D01*
X0034400Y0206409D02*
X0042305Y0206409D01*
X0040707Y0204811D02*
X0034400Y0204811D01*
X0034400Y0203212D02*
X0039108Y0203212D01*
X0037510Y0201614D02*
X0034400Y0201614D01*
X0039348Y0195220D02*
X0096700Y0195220D01*
X0096700Y0196818D02*
X0040947Y0196818D01*
X0042545Y0198417D02*
X0096700Y0198417D01*
X0096700Y0200015D02*
X0044596Y0200015D01*
X0046247Y0201614D02*
X0096700Y0201614D01*
X0096700Y0203212D02*
X0046319Y0203212D01*
X0045515Y0204811D02*
X0096700Y0204811D01*
X0096700Y0206409D02*
X0047114Y0206409D01*
X0048712Y0208008D02*
X0096700Y0208008D01*
X0096700Y0209606D02*
X0094674Y0209606D01*
X0093126Y0209606D02*
X0050311Y0209606D01*
X0051909Y0211205D02*
X0091456Y0211205D01*
X0091377Y0212803D02*
X0053508Y0212803D01*
X0055106Y0214402D02*
X0092200Y0214402D01*
X0092200Y0216001D02*
X0087658Y0216001D01*
X0087783Y0216126D02*
X0088377Y0217560D01*
X0088377Y0219111D01*
X0087783Y0220545D01*
X0086686Y0221642D01*
X0085253Y0222235D01*
X0083889Y0222235D01*
X0083630Y0222859D01*
X0082899Y0223591D01*
X0081943Y0223987D01*
X0080909Y0223987D01*
X0079953Y0223591D01*
X0079222Y0222859D01*
X0078826Y0221904D01*
X0078826Y0220869D01*
X0079222Y0219914D01*
X0079953Y0219182D01*
X0080577Y0218924D01*
X0080577Y0217560D01*
X0081171Y0216126D01*
X0082268Y0215029D01*
X0083701Y0214435D01*
X0085253Y0214435D01*
X0086686Y0215029D01*
X0087783Y0216126D01*
X0088377Y0217599D02*
X0092200Y0217599D01*
X0092200Y0219198D02*
X0088341Y0219198D01*
X0087532Y0220796D02*
X0092200Y0220796D01*
X0092200Y0222395D02*
X0083823Y0222395D01*
X0079029Y0222395D02*
X0069262Y0222395D01*
X0069262Y0222790D02*
X0068866Y0223745D01*
X0068135Y0224477D01*
X0067179Y0224872D01*
X0066145Y0224872D01*
X0065189Y0224477D01*
X0064458Y0223745D01*
X0064062Y0222790D01*
X0064062Y0222235D01*
X0064016Y0222235D01*
X0062583Y0221642D01*
X0061486Y0220545D01*
X0060892Y0219111D01*
X0060892Y0217560D01*
X0061486Y0216126D01*
X0062583Y0215029D01*
X0064016Y0214435D01*
X0065568Y0214435D01*
X0067001Y0215029D01*
X0068098Y0216126D01*
X0068692Y0217560D01*
X0068692Y0219111D01*
X0068249Y0220182D01*
X0068866Y0220800D01*
X0069262Y0221755D01*
X0069262Y0222790D01*
X0068619Y0223993D02*
X0092200Y0223993D01*
X0092200Y0225592D02*
X0066296Y0225592D01*
X0064706Y0223993D02*
X0064697Y0223993D01*
X0064062Y0222395D02*
X0063099Y0222395D01*
X0061737Y0220796D02*
X0061500Y0220796D01*
X0060928Y0219198D02*
X0059902Y0219198D01*
X0060892Y0217599D02*
X0058303Y0217599D01*
X0056705Y0216001D02*
X0061612Y0216001D01*
X0067973Y0216001D02*
X0081297Y0216001D01*
X0080577Y0217599D02*
X0068692Y0217599D01*
X0068656Y0219198D02*
X0079938Y0219198D01*
X0078856Y0220796D02*
X0068863Y0220796D01*
X0067894Y0227190D02*
X0092200Y0227190D01*
X0091307Y0228789D02*
X0069493Y0228789D01*
X0071091Y0230387D02*
X0089709Y0230387D01*
X0088110Y0231986D02*
X0072690Y0231986D01*
X0074288Y0233584D02*
X0081480Y0233584D01*
X0082920Y0233584D02*
X0085680Y0233584D01*
X0089721Y0235183D02*
X0096700Y0235183D01*
X0096700Y0236781D02*
X0088932Y0236781D01*
X0087690Y0238380D02*
X0096700Y0238380D01*
X0096700Y0239978D02*
X0004600Y0239978D01*
X0004600Y0238380D02*
X0080910Y0238380D01*
X0080237Y0240431D02*
X0082814Y0243009D01*
X0082814Y0246654D01*
X0080237Y0249231D01*
X0076592Y0249231D01*
X0074014Y0246654D01*
X0074014Y0243009D01*
X0076592Y0240431D01*
X0080237Y0240431D01*
X0081382Y0241577D02*
X0085446Y0241577D01*
X0086592Y0240431D02*
X0084014Y0243009D01*
X0084014Y0246654D01*
X0086592Y0249231D01*
X0090237Y0249231D01*
X0092814Y0246654D01*
X0092814Y0243009D01*
X0090237Y0240431D01*
X0086592Y0240431D01*
X0085110Y0238380D02*
X0083490Y0238380D01*
X0084014Y0243175D02*
X0082814Y0243175D01*
X0082814Y0244774D02*
X0084014Y0244774D01*
X0084014Y0246372D02*
X0082814Y0246372D01*
X0081497Y0247971D02*
X0085331Y0247971D01*
X0085855Y0251168D02*
X0080973Y0251168D01*
X0082571Y0252766D02*
X0084257Y0252766D01*
X0084014Y0254365D02*
X0082814Y0254365D01*
X0082814Y0255963D02*
X0084014Y0255963D01*
X0084922Y0257562D02*
X0081906Y0257562D01*
X0075855Y0251168D02*
X0004600Y0251168D01*
X0004600Y0252766D02*
X0074257Y0252766D01*
X0074014Y0254365D02*
X0004600Y0254365D01*
X0004600Y0255963D02*
X0074014Y0255963D01*
X0074922Y0257562D02*
X0004600Y0257562D01*
X0004600Y0249569D02*
X0101127Y0249569D01*
X0101497Y0247971D02*
X0102725Y0247971D01*
X0102814Y0246372D02*
X0104324Y0246372D01*
X0102814Y0244774D02*
X0105922Y0244774D01*
X0107521Y0243175D02*
X0102814Y0243175D01*
X0101382Y0241577D02*
X0109119Y0241577D01*
X0110718Y0239978D02*
X0100100Y0239978D01*
X0100100Y0238380D02*
X0112316Y0238380D01*
X0113915Y0236781D02*
X0100100Y0236781D01*
X0100100Y0235183D02*
X0114100Y0235183D01*
X0114100Y0233584D02*
X0100100Y0233584D01*
X0100100Y0231986D02*
X0114100Y0231986D01*
X0114100Y0230387D02*
X0100100Y0230387D01*
X0100100Y0228789D02*
X0114100Y0228789D01*
X0114100Y0227190D02*
X0100100Y0227190D01*
X0100100Y0225592D02*
X0114100Y0225592D01*
X0114100Y0223993D02*
X0100100Y0223993D01*
X0096700Y0223993D02*
X0095600Y0223993D01*
X0095600Y0222395D02*
X0096700Y0222395D01*
X0096700Y0220796D02*
X0095600Y0220796D01*
X0095600Y0219198D02*
X0096700Y0219198D01*
X0096700Y0217599D02*
X0095600Y0217599D01*
X0095600Y0216001D02*
X0096700Y0216001D01*
X0096700Y0214402D02*
X0095600Y0214402D01*
X0096423Y0212803D02*
X0096700Y0212803D01*
X0096700Y0211205D02*
X0096343Y0211205D01*
X0100100Y0211205D02*
X0101236Y0211205D01*
X0101200Y0211117D02*
X0101200Y0210083D01*
X0101596Y0209127D01*
X0102327Y0208396D01*
X0103283Y0208000D01*
X0103996Y0208000D01*
X0104200Y0207796D01*
X0104200Y0207083D01*
X0104596Y0206127D01*
X0105327Y0205396D01*
X0106283Y0205000D01*
X0107317Y0205000D01*
X0108273Y0205396D01*
X0109004Y0206127D01*
X0109400Y0207083D01*
X0109400Y0208117D01*
X0109004Y0209073D01*
X0108273Y0209804D01*
X0107317Y0210200D01*
X0106604Y0210200D01*
X0106400Y0210404D01*
X0106400Y0211117D01*
X0106004Y0212073D01*
X0105273Y0212804D01*
X0104317Y0213200D01*
X0103283Y0213200D01*
X0102327Y0212804D01*
X0101596Y0212073D01*
X0101200Y0211117D01*
X0101397Y0209606D02*
X0100100Y0209606D01*
X0100100Y0208008D02*
X0103264Y0208008D01*
X0104479Y0206409D02*
X0100100Y0206409D01*
X0100100Y0204811D02*
X0114100Y0204811D01*
X0114100Y0206409D02*
X0109121Y0206409D01*
X0109400Y0208008D02*
X0114100Y0208008D01*
X0114100Y0209606D02*
X0108470Y0209606D01*
X0106364Y0211205D02*
X0111381Y0211205D01*
X0107820Y0212803D02*
X0105273Y0212803D01*
X0102327Y0212803D02*
X0100100Y0212803D01*
X0100100Y0214402D02*
X0107200Y0214402D01*
X0107343Y0216001D02*
X0107624Y0216001D01*
X0108062Y0217599D02*
X0114100Y0217599D01*
X0114100Y0216001D02*
X0112928Y0216001D01*
X0114100Y0219198D02*
X0108026Y0219198D01*
X0107217Y0220796D02*
X0114100Y0220796D01*
X0114100Y0222395D02*
X0103508Y0222395D01*
X0100262Y0217599D02*
X0100100Y0217599D01*
X0100100Y0216001D02*
X0100982Y0216001D01*
X0096700Y0225592D02*
X0095600Y0225592D01*
X0095600Y0227190D02*
X0096700Y0227190D01*
X0096700Y0228789D02*
X0095600Y0228789D01*
X0094517Y0230387D02*
X0096700Y0230387D01*
X0096700Y0231986D02*
X0092919Y0231986D01*
X0091320Y0233584D02*
X0096700Y0233584D01*
X0095446Y0241577D02*
X0091382Y0241577D01*
X0092814Y0243175D02*
X0094014Y0243175D01*
X0094014Y0244774D02*
X0092814Y0244774D01*
X0092814Y0246372D02*
X0094014Y0246372D01*
X0095331Y0247971D02*
X0091497Y0247971D01*
X0090973Y0251168D02*
X0095855Y0251168D01*
X0094257Y0252766D02*
X0092571Y0252766D01*
X0092814Y0254365D02*
X0094014Y0254365D01*
X0094014Y0255963D02*
X0092814Y0255963D01*
X0091906Y0257562D02*
X0094922Y0257562D01*
X0101906Y0257562D02*
X0148607Y0257562D01*
X0148607Y0255963D02*
X0102814Y0255963D01*
X0102814Y0254365D02*
X0148607Y0254365D01*
X0148607Y0252766D02*
X0102738Y0252766D01*
X0104336Y0251168D02*
X0148607Y0251168D01*
X0148607Y0249569D02*
X0105935Y0249569D01*
X0107533Y0247971D02*
X0148607Y0247971D01*
X0148607Y0246372D02*
X0109132Y0246372D01*
X0110730Y0244774D02*
X0148608Y0244774D01*
X0148608Y0243175D02*
X0112329Y0243175D01*
X0113927Y0241577D02*
X0148608Y0241577D01*
X0148608Y0239978D02*
X0115526Y0239978D01*
X0117124Y0238380D02*
X0148608Y0238380D01*
X0148608Y0236781D02*
X0117500Y0236781D01*
X0117500Y0235183D02*
X0148608Y0235183D01*
X0148608Y0233584D02*
X0117500Y0233584D01*
X0117500Y0231986D02*
X0148609Y0231986D01*
X0148609Y0230387D02*
X0117500Y0230387D01*
X0117500Y0228789D02*
X0148609Y0228789D01*
X0148609Y0227190D02*
X0117500Y0227190D01*
X0117500Y0225592D02*
X0148609Y0225592D01*
X0148609Y0223993D02*
X0117500Y0223993D01*
X0118592Y0222859D02*
X0118196Y0221904D01*
X0118196Y0220869D01*
X0118592Y0219914D01*
X0119323Y0219182D01*
X0119947Y0218924D01*
X0119947Y0217560D01*
X0120541Y0216126D01*
X0121638Y0215029D01*
X0123071Y0214435D01*
X0124623Y0214435D01*
X0126056Y0215029D01*
X0127153Y0216126D01*
X0127747Y0217560D01*
X0127747Y0219111D01*
X0127153Y0220545D01*
X0126056Y0221642D01*
X0124623Y0222235D01*
X0123259Y0222235D01*
X0123000Y0222859D01*
X0122269Y0223591D01*
X0121313Y0223987D01*
X0120279Y0223987D01*
X0119323Y0223591D01*
X0118592Y0222859D01*
X0118399Y0222395D02*
X0117500Y0222395D01*
X0117500Y0220796D02*
X0118226Y0220796D01*
X0117500Y0219198D02*
X0119308Y0219198D01*
X0119947Y0217599D02*
X0117500Y0217599D01*
X0117500Y0216001D02*
X0120667Y0216001D01*
X0117500Y0214402D02*
X0148610Y0214402D01*
X0148610Y0212803D02*
X0117500Y0212803D01*
X0117500Y0211205D02*
X0148610Y0211205D01*
X0148610Y0209606D02*
X0117500Y0209606D01*
X0117500Y0208008D02*
X0148610Y0208008D01*
X0148610Y0206409D02*
X0117500Y0206409D01*
X0117500Y0204811D02*
X0148611Y0204811D01*
X0148611Y0203212D02*
X0117500Y0203212D01*
X0117500Y0201614D02*
X0148611Y0201614D01*
X0148611Y0200015D02*
X0117500Y0200015D01*
X0117500Y0198417D02*
X0148611Y0198417D01*
X0148611Y0196818D02*
X0117500Y0196818D01*
X0117500Y0195220D02*
X0148611Y0195220D01*
X0148611Y0193621D02*
X0117500Y0193621D01*
X0117500Y0192023D02*
X0148612Y0192023D01*
X0148612Y0190424D02*
X0117500Y0190424D01*
X0117500Y0188826D02*
X0148612Y0188826D01*
X0148612Y0187227D02*
X0117500Y0187227D01*
X0117500Y0185629D02*
X0148612Y0185629D01*
X0148612Y0184030D02*
X0117500Y0184030D01*
X0117500Y0182432D02*
X0148612Y0182432D01*
X0148612Y0180833D02*
X0117500Y0180833D01*
X0117500Y0179235D02*
X0148613Y0179235D01*
X0148613Y0177636D02*
X0117500Y0177636D01*
X0117500Y0176038D02*
X0148613Y0176038D01*
X0148613Y0174439D02*
X0117500Y0174439D01*
X0117500Y0172841D02*
X0148613Y0172841D01*
X0148613Y0171242D02*
X0117500Y0171242D01*
X0117500Y0169644D02*
X0148613Y0169644D01*
X0148613Y0168045D02*
X0117500Y0168045D01*
X0117500Y0166447D02*
X0148614Y0166447D01*
X0148614Y0164848D02*
X0117500Y0164848D01*
X0117500Y0163250D02*
X0148614Y0163250D01*
X0148614Y0161651D02*
X0117500Y0161651D01*
X0117500Y0160053D02*
X0148614Y0160053D01*
X0148614Y0158454D02*
X0117500Y0158454D01*
X0117500Y0156856D02*
X0148614Y0156856D01*
X0148614Y0155257D02*
X0117500Y0155257D01*
X0117500Y0153659D02*
X0148614Y0153659D01*
X0148615Y0152060D02*
X0117500Y0152060D01*
X0117500Y0150462D02*
X0148615Y0150462D01*
X0148615Y0148863D02*
X0117500Y0148863D01*
X0117500Y0147265D02*
X0148615Y0147265D01*
X0148615Y0145666D02*
X0117500Y0145666D01*
X0116472Y0144068D02*
X0148615Y0144068D01*
X0148615Y0142469D02*
X0114873Y0142469D01*
X0113275Y0140870D02*
X0148615Y0140870D01*
X0148616Y0139272D02*
X0111676Y0139272D01*
X0110078Y0137673D02*
X0148616Y0137673D01*
X0148616Y0136075D02*
X0108479Y0136075D01*
X0106881Y0134476D02*
X0148616Y0134476D01*
X0148616Y0132878D02*
X0105282Y0132878D01*
X0105809Y0131279D02*
X0103684Y0131279D01*
X0104896Y0130473D02*
X0104500Y0129517D01*
X0104500Y0128483D01*
X0104896Y0127527D01*
X0105627Y0126796D01*
X0106583Y0126400D01*
X0107296Y0126400D01*
X0112300Y0121396D01*
X0112300Y0120683D01*
X0112696Y0119727D01*
X0113427Y0118996D01*
X0114383Y0118600D01*
X0115417Y0118600D01*
X0116373Y0118996D01*
X0117104Y0119727D01*
X0117500Y0120683D01*
X0117500Y0121717D01*
X0117104Y0122673D01*
X0116373Y0123404D01*
X0115417Y0123800D01*
X0114704Y0123800D01*
X0111504Y0127000D01*
X0112117Y0127000D01*
X0112774Y0127272D01*
X0113495Y0126972D01*
X0113769Y0126311D01*
X0114500Y0125580D01*
X0115456Y0125184D01*
X0116490Y0125184D01*
X0117446Y0125580D01*
X0118177Y0126311D01*
X0118573Y0127267D01*
X0118573Y0128301D01*
X0118177Y0129257D01*
X0117446Y0129988D01*
X0116490Y0130384D01*
X0115456Y0130384D01*
X0114799Y0130112D01*
X0114078Y0130412D01*
X0113804Y0131073D01*
X0113073Y0131804D01*
X0112117Y0132200D01*
X0111083Y0132200D01*
X0110127Y0131804D01*
X0109396Y0131073D01*
X0109193Y0130584D01*
X0108573Y0131204D01*
X0107617Y0131600D01*
X0106583Y0131600D01*
X0105627Y0131204D01*
X0104896Y0130473D01*
X0104568Y0129681D02*
X0102085Y0129681D01*
X0100487Y0128082D02*
X0104666Y0128082D01*
X0106380Y0126484D02*
X0098888Y0126484D01*
X0097290Y0124885D02*
X0108810Y0124885D01*
X0110409Y0123287D02*
X0100590Y0123287D01*
X0101000Y0121688D02*
X0112007Y0121688D01*
X0112546Y0120090D02*
X0100367Y0120090D01*
X0100100Y0118491D02*
X0130695Y0118491D01*
X0130695Y0118140D02*
X0132050Y0114869D01*
X0134554Y0112365D01*
X0137825Y0111010D01*
X0141366Y0111010D01*
X0144637Y0112365D01*
X0147140Y0114869D01*
X0148495Y0118140D01*
X0148495Y0121681D01*
X0147140Y0124952D01*
X0144637Y0127455D01*
X0141366Y0128810D01*
X0137825Y0128810D01*
X0134554Y0127455D01*
X0132050Y0124952D01*
X0130695Y0121681D01*
X0130695Y0118140D01*
X0131212Y0116893D02*
X0100100Y0116893D01*
X0100100Y0115294D02*
X0131874Y0115294D01*
X0133223Y0113696D02*
X0100100Y0113696D01*
X0100100Y0112097D02*
X0135201Y0112097D01*
X0130695Y0120090D02*
X0117254Y0120090D01*
X0117500Y0121688D02*
X0130699Y0121688D01*
X0131361Y0123287D02*
X0116490Y0123287D01*
X0113619Y0124885D02*
X0132023Y0124885D01*
X0133582Y0126484D02*
X0118249Y0126484D01*
X0118573Y0128082D02*
X0136068Y0128082D01*
X0143123Y0128082D02*
X0148616Y0128082D01*
X0148617Y0126484D02*
X0145608Y0126484D01*
X0147168Y0124885D02*
X0148617Y0124885D01*
X0148617Y0123287D02*
X0147830Y0123287D01*
X0148492Y0121688D02*
X0148617Y0121688D01*
X0148617Y0120090D02*
X0148495Y0120090D01*
X0148495Y0118491D02*
X0148617Y0118491D01*
X0148617Y0116893D02*
X0147979Y0116893D01*
X0148617Y0115294D02*
X0147317Y0115294D01*
X0148618Y0113696D02*
X0145967Y0113696D01*
X0143990Y0112097D02*
X0148618Y0112097D01*
X0148618Y0110499D02*
X0100100Y0110499D01*
X0100100Y0108900D02*
X0148618Y0108900D01*
X0148618Y0107302D02*
X0100100Y0107302D01*
X0100100Y0105703D02*
X0148618Y0105703D01*
X0148618Y0104105D02*
X0100100Y0104105D01*
X0098610Y0102506D02*
X0148618Y0102506D01*
X0148618Y0100908D02*
X0097012Y0100908D01*
X0095413Y0099309D02*
X0148619Y0099309D01*
X0148619Y0097711D02*
X0093815Y0097711D01*
X0092216Y0096112D02*
X0148619Y0096112D01*
X0148619Y0094514D02*
X0090618Y0094514D01*
X0089019Y0092915D02*
X0148619Y0092915D01*
X0148619Y0091317D02*
X0087421Y0091317D01*
X0085822Y0089718D02*
X0091141Y0089718D01*
X0090796Y0089373D02*
X0090400Y0088417D01*
X0090400Y0087383D01*
X0090796Y0086427D01*
X0091527Y0085696D01*
X0092483Y0085300D01*
X0093189Y0085300D01*
X0117310Y0061058D01*
X0117310Y0060338D01*
X0117706Y0059382D01*
X0118437Y0058651D01*
X0119393Y0058255D01*
X0120427Y0058255D01*
X0121383Y0058651D01*
X0122114Y0059382D01*
X0122510Y0060338D01*
X0122510Y0061372D01*
X0122114Y0062328D01*
X0121383Y0063059D01*
X0120427Y0063455D01*
X0119721Y0063455D01*
X0095600Y0087697D01*
X0095600Y0088417D01*
X0095204Y0089373D01*
X0094473Y0090104D01*
X0093517Y0090500D01*
X0092483Y0090500D01*
X0091527Y0090104D01*
X0090796Y0089373D01*
X0090400Y0088120D02*
X0084224Y0088120D01*
X0082625Y0086521D02*
X0090757Y0086521D01*
X0093564Y0084923D02*
X0081027Y0084923D01*
X0079428Y0083324D02*
X0095155Y0083324D01*
X0096746Y0081726D02*
X0077830Y0081726D01*
X0076231Y0080127D02*
X0098336Y0080127D01*
X0099927Y0078529D02*
X0074633Y0078529D01*
X0074526Y0076930D02*
X0074071Y0076930D01*
X0072927Y0075332D02*
X0070473Y0075332D01*
X0069329Y0076930D02*
X0068900Y0076930D01*
X0068900Y0078529D02*
X0069105Y0078529D01*
X0069931Y0080127D02*
X0070150Y0080127D01*
X0071530Y0081726D02*
X0073021Y0081726D01*
X0073128Y0083324D02*
X0074620Y0083324D01*
X0074727Y0084923D02*
X0076218Y0084923D01*
X0076325Y0086521D02*
X0077817Y0086521D01*
X0077924Y0088120D02*
X0079415Y0088120D01*
X0079522Y0089718D02*
X0081014Y0089718D01*
X0081121Y0091317D02*
X0082612Y0091317D01*
X0082719Y0092915D02*
X0084211Y0092915D01*
X0084318Y0094514D02*
X0085810Y0094514D01*
X0088600Y0099309D02*
X0080413Y0099309D01*
X0078815Y0097711D02*
X0082707Y0097711D01*
X0081108Y0096112D02*
X0077216Y0096112D01*
X0075618Y0094514D02*
X0079509Y0094514D01*
X0077911Y0092915D02*
X0074019Y0092915D01*
X0072421Y0091317D02*
X0076312Y0091317D01*
X0074714Y0089718D02*
X0070822Y0089718D01*
X0069224Y0088120D02*
X0073115Y0088120D01*
X0071517Y0086521D02*
X0067625Y0086521D01*
X0066027Y0084923D02*
X0069918Y0084923D01*
X0068320Y0083324D02*
X0064428Y0083324D01*
X0062830Y0081726D02*
X0066721Y0081726D01*
X0065500Y0080127D02*
X0061231Y0080127D01*
X0059633Y0078529D02*
X0065500Y0078529D01*
X0065500Y0076930D02*
X0058034Y0076930D01*
X0056436Y0075332D02*
X0065664Y0075332D01*
X0065929Y0073733D02*
X0054837Y0073733D01*
X0053239Y0072134D02*
X0064330Y0072134D01*
X0062732Y0070536D02*
X0051640Y0070536D01*
X0050042Y0068937D02*
X0061133Y0068937D01*
X0059535Y0067339D02*
X0048443Y0067339D01*
X0046845Y0065740D02*
X0057936Y0065740D01*
X0056338Y0064142D02*
X0045246Y0064142D01*
X0045122Y0062543D02*
X0043648Y0062543D01*
X0043953Y0060945D02*
X0042049Y0060945D01*
X0043142Y0059346D02*
X0040451Y0059346D01*
X0041544Y0057748D02*
X0038852Y0057748D01*
X0039945Y0056149D02*
X0037254Y0056149D01*
X0038347Y0054551D02*
X0035655Y0054551D01*
X0036748Y0052952D02*
X0034057Y0052952D01*
X0033500Y0051354D02*
X0035150Y0051354D01*
X0033551Y0049755D02*
X0030049Y0049755D01*
X0028438Y0046558D02*
X0021062Y0046558D01*
X0019464Y0044960D02*
X0024966Y0044960D01*
X0028940Y0041763D02*
X0055559Y0041763D01*
X0057157Y0043361D02*
X0040365Y0043361D01*
X0041964Y0044960D02*
X0058756Y0044960D01*
X0060354Y0046558D02*
X0043562Y0046558D01*
X0045161Y0048157D02*
X0061953Y0048157D01*
X0063551Y0049755D02*
X0046759Y0049755D01*
X0048358Y0051354D02*
X0065150Y0051354D01*
X0066748Y0052952D02*
X0049957Y0052952D01*
X0051555Y0054551D02*
X0068347Y0054551D01*
X0069945Y0056149D02*
X0053154Y0056149D01*
X0054752Y0057748D02*
X0071544Y0057748D01*
X0073142Y0059346D02*
X0056351Y0059346D01*
X0057949Y0060945D02*
X0074741Y0060945D01*
X0076339Y0062543D02*
X0059548Y0062543D01*
X0061146Y0064142D02*
X0077938Y0064142D01*
X0079536Y0065740D02*
X0062745Y0065740D01*
X0064343Y0067339D02*
X0074484Y0067339D01*
X0073900Y0068937D02*
X0065942Y0068937D01*
X0067540Y0070536D02*
X0074359Y0070536D01*
X0074539Y0072134D02*
X0076630Y0072134D01*
X0076137Y0073733D02*
X0077331Y0073733D01*
X0079100Y0068937D02*
X0081700Y0068937D01*
X0081135Y0067339D02*
X0078516Y0067339D01*
X0080887Y0070536D02*
X0082532Y0070536D01*
X0082297Y0072134D02*
X0084130Y0072134D01*
X0085900Y0073733D02*
X0082269Y0073733D01*
X0085100Y0067339D02*
X0111060Y0067339D01*
X0109470Y0068937D02*
X0089740Y0068937D01*
X0090522Y0070536D02*
X0107879Y0070536D01*
X0106289Y0072134D02*
X0090182Y0072134D01*
X0089300Y0073733D02*
X0104698Y0073733D01*
X0103108Y0075332D02*
X0089300Y0075332D01*
X0088374Y0076930D02*
X0101517Y0076930D01*
X0103132Y0080127D02*
X0129233Y0080127D01*
X0129233Y0078624D02*
X0131943Y0075915D01*
X0134970Y0075915D01*
X0134970Y0072887D01*
X0137680Y0070178D01*
X0141511Y0070178D01*
X0144220Y0072887D01*
X0144220Y0076719D01*
X0141511Y0079428D01*
X0138483Y0079428D01*
X0138483Y0081652D01*
X0141511Y0081652D01*
X0144220Y0084361D01*
X0144220Y0088193D01*
X0141511Y0090902D01*
X0137680Y0090902D01*
X0134970Y0088193D01*
X0134970Y0085165D01*
X0131943Y0085165D01*
X0129233Y0082456D01*
X0129233Y0078624D01*
X0129329Y0078529D02*
X0104723Y0078529D01*
X0106314Y0076930D02*
X0130928Y0076930D01*
X0129233Y0081726D02*
X0101542Y0081726D01*
X0099951Y0083324D02*
X0130101Y0083324D01*
X0131700Y0084923D02*
X0098361Y0084923D01*
X0096770Y0086521D02*
X0134970Y0086521D01*
X0134970Y0088120D02*
X0095600Y0088120D01*
X0094859Y0089718D02*
X0136496Y0089718D01*
X0142695Y0089718D02*
X0148619Y0089718D01*
X0148619Y0088120D02*
X0144220Y0088120D01*
X0144220Y0086521D02*
X0148620Y0086521D01*
X0148620Y0084923D02*
X0144220Y0084923D01*
X0143183Y0083324D02*
X0148620Y0083324D01*
X0148620Y0081726D02*
X0141584Y0081726D01*
X0142411Y0078529D02*
X0148620Y0078529D01*
X0148620Y0080127D02*
X0138483Y0080127D01*
X0134970Y0075332D02*
X0107904Y0075332D01*
X0109495Y0073733D02*
X0134970Y0073733D01*
X0135723Y0072134D02*
X0111085Y0072134D01*
X0112676Y0070536D02*
X0137322Y0070536D01*
X0141869Y0070536D02*
X0148621Y0070536D01*
X0148621Y0072134D02*
X0143467Y0072134D01*
X0144220Y0073733D02*
X0148621Y0073733D01*
X0148620Y0075332D02*
X0144220Y0075332D01*
X0144009Y0076930D02*
X0148620Y0076930D01*
X0148621Y0068937D02*
X0114266Y0068937D01*
X0115857Y0067339D02*
X0148621Y0067339D01*
X0148621Y0065740D02*
X0117447Y0065740D01*
X0119038Y0064142D02*
X0148621Y0064142D01*
X0148621Y0062543D02*
X0121899Y0062543D01*
X0122510Y0060945D02*
X0148622Y0060945D01*
X0148622Y0059346D02*
X0122078Y0059346D01*
X0117742Y0059346D02*
X0077951Y0059346D01*
X0079549Y0060945D02*
X0117310Y0060945D01*
X0115832Y0062543D02*
X0081148Y0062543D01*
X0082746Y0064142D02*
X0114242Y0064142D01*
X0112651Y0065740D02*
X0084345Y0065740D01*
X0076352Y0057748D02*
X0148622Y0057748D01*
X0148622Y0056149D02*
X0074754Y0056149D01*
X0073155Y0054551D02*
X0148622Y0054551D01*
X0148622Y0052952D02*
X0071557Y0052952D01*
X0069958Y0051354D02*
X0148622Y0051354D01*
X0148622Y0049755D02*
X0142125Y0049755D01*
X0141366Y0050070D02*
X0137825Y0050070D01*
X0134554Y0048715D01*
X0132050Y0046212D01*
X0130695Y0042940D01*
X0130695Y0039400D01*
X0132050Y0036129D01*
X0134554Y0033625D01*
X0137825Y0032270D01*
X0141366Y0032270D01*
X0144637Y0033625D01*
X0147140Y0036129D01*
X0148495Y0039400D01*
X0148495Y0042940D01*
X0147140Y0046212D01*
X0144637Y0048715D01*
X0141366Y0050070D01*
X0137065Y0049755D02*
X0068359Y0049755D01*
X0066761Y0048157D02*
X0102448Y0048157D01*
X0102496Y0048273D02*
X0102100Y0047317D01*
X0102100Y0047028D01*
X0099767Y0044696D01*
X0099404Y0045573D01*
X0098673Y0046304D01*
X0097717Y0046700D01*
X0096683Y0046700D01*
X0095727Y0046304D01*
X0094996Y0045573D01*
X0094600Y0044617D01*
X0094600Y0043583D01*
X0094643Y0043479D01*
X0092663Y0042659D01*
X0090863Y0040858D01*
X0089888Y0038506D01*
X0089888Y0035960D01*
X0090863Y0033608D01*
X0092663Y0031807D01*
X0095015Y0030833D01*
X0097561Y0030833D01*
X0099913Y0031807D01*
X0101714Y0033608D01*
X0101977Y0034244D01*
X0101987Y0034219D01*
X0102433Y0033447D01*
X0102976Y0032740D01*
X0103606Y0032110D01*
X0104313Y0031567D01*
X0105085Y0031121D01*
X0105909Y0030780D01*
X0106770Y0030549D01*
X0107299Y0030480D01*
X0107299Y0036433D01*
X0108899Y0036433D01*
X0108899Y0030480D01*
X0109429Y0030549D01*
X0110290Y0030780D01*
X0111113Y0031121D01*
X0111885Y0031567D01*
X0112592Y0032110D01*
X0113223Y0032740D01*
X0113765Y0033447D01*
X0114211Y0034219D01*
X0114552Y0035043D01*
X0114783Y0035904D01*
X0114853Y0036433D01*
X0108899Y0036433D01*
X0108899Y0038033D01*
X0107299Y0038033D01*
X0107299Y0043986D01*
X0106770Y0043917D01*
X0105909Y0043686D01*
X0105085Y0043345D01*
X0104313Y0042899D01*
X0103606Y0042357D01*
X0102976Y0041726D01*
X0102433Y0041019D01*
X0101987Y0040247D01*
X0101977Y0040223D01*
X0101714Y0040858D01*
X0101650Y0040922D01*
X0104928Y0044200D01*
X0105217Y0044200D01*
X0106173Y0044596D01*
X0106904Y0045327D01*
X0107300Y0046283D01*
X0107300Y0047317D01*
X0106904Y0048273D01*
X0106173Y0049004D01*
X0105217Y0049400D01*
X0104183Y0049400D01*
X0103227Y0049004D01*
X0102496Y0048273D01*
X0101630Y0046558D02*
X0098059Y0046558D01*
X0096341Y0046558D02*
X0065162Y0046558D01*
X0063564Y0044960D02*
X0094742Y0044960D01*
X0094359Y0043361D02*
X0061965Y0043361D01*
X0060367Y0041763D02*
X0091767Y0041763D01*
X0090575Y0040164D02*
X0058768Y0040164D01*
X0057170Y0038566D02*
X0089913Y0038566D01*
X0089888Y0036967D02*
X0055571Y0036967D01*
X0053973Y0035369D02*
X0090133Y0035369D01*
X0090795Y0033770D02*
X0028374Y0033770D01*
X0026942Y0032172D02*
X0092299Y0032172D01*
X0089554Y0030080D02*
X0090550Y0029084D01*
X0092297Y0027337D01*
X0093382Y0027880D01*
X0094718Y0027435D01*
X0095848Y0025175D01*
X0096978Y0027435D01*
X0098314Y0027880D01*
X0099574Y0027250D01*
X0100019Y0025914D01*
X0097423Y0020722D01*
X0097238Y0020168D01*
X0097115Y0020107D01*
X0097054Y0019984D01*
X0096500Y0019799D01*
X0095979Y0019539D01*
X0095848Y0019582D01*
X0095718Y0019539D01*
X0095675Y0019560D01*
X0096383Y0018852D01*
X0096383Y0016345D01*
X0096478Y0016345D01*
X0096478Y0016516D01*
X0097646Y0017684D01*
X0098642Y0018680D01*
X0102385Y0018680D01*
X0103117Y0017948D01*
X0103381Y0017684D01*
X0103381Y0017684D01*
X0103817Y0017248D01*
X0104549Y0016516D01*
X0104549Y0013941D01*
X0103838Y0013230D01*
X0103450Y0012842D01*
X0103553Y0012842D01*
X0104549Y0011846D01*
X0104549Y0010438D01*
X0102385Y0008274D01*
X0098642Y0008274D01*
X0097910Y0009006D01*
X0097551Y0009365D01*
X0097551Y0009270D01*
X0096555Y0008274D01*
X0092811Y0008274D01*
X0091816Y0009270D01*
X0091816Y0009368D01*
X0090722Y0008274D01*
X0085811Y0008274D01*
X0084815Y0009270D01*
X0084815Y0009365D01*
X0083724Y0008274D01*
X0079980Y0008274D01*
X0078985Y0009270D01*
X0078985Y0010609D01*
X0078813Y0010609D01*
X0077817Y0011605D01*
X0077817Y0014181D01*
X0078813Y0015177D01*
X0079980Y0016345D01*
X0083724Y0016345D01*
X0084435Y0015634D01*
X0084720Y0015349D01*
X0084720Y0015349D01*
X0084815Y0015254D01*
X0084815Y0017684D01*
X0085811Y0018680D01*
X0087219Y0018680D01*
X0088215Y0017684D01*
X0088215Y0016345D01*
X0090722Y0016345D01*
X0091433Y0015634D01*
X0091718Y0015349D01*
X0091718Y0015349D01*
X0092175Y0014892D01*
X0092886Y0014181D01*
X0092886Y0011674D01*
X0092983Y0011674D01*
X0092983Y0015349D01*
X0093447Y0015812D01*
X0092983Y0016276D01*
X0092983Y0018852D01*
X0093979Y0019848D01*
X0095051Y0019848D01*
X0094643Y0019984D01*
X0094581Y0020107D01*
X0094458Y0020168D01*
X0094274Y0020722D01*
X0092271Y0024726D01*
X0091890Y0024345D01*
X0090550Y0024345D01*
X0090550Y0023074D01*
X0091890Y0023074D01*
X0092886Y0022078D01*
X0092886Y0020670D01*
X0091890Y0019674D01*
X0085811Y0019674D01*
X0085351Y0020134D01*
X0084892Y0019674D01*
X0082316Y0019674D01*
X0081854Y0020136D01*
X0081393Y0019674D01*
X0075314Y0019674D01*
X0074318Y0020670D01*
X0074318Y0022078D01*
X0075314Y0023074D01*
X0076653Y0023074D01*
X0076653Y0029084D01*
X0077649Y0030080D01*
X0079057Y0030080D01*
X0080053Y0029084D01*
X0082389Y0026749D01*
X0082389Y0025341D01*
X0081393Y0024345D01*
X0080053Y0024345D01*
X0080053Y0023074D01*
X0081320Y0023074D01*
X0081320Y0023246D01*
X0082316Y0024242D01*
X0084892Y0024242D01*
X0085888Y0023246D01*
X0085888Y0023074D01*
X0087150Y0023074D01*
X0087150Y0029084D01*
X0088146Y0030080D01*
X0089554Y0030080D01*
X0090660Y0028975D02*
X0117477Y0028975D01*
X0114602Y0027376D02*
X0113252Y0027376D01*
X0111107Y0027376D02*
X0108581Y0027376D01*
X0109209Y0025778D02*
X0110479Y0025778D01*
X0110479Y0024179D02*
X0109209Y0024179D01*
X0111544Y0019384D02*
X0148625Y0019384D01*
X0145469Y0020982D02*
X0141016Y0020982D01*
X0141871Y0022581D02*
X0142391Y0022581D01*
X0142067Y0017785D02*
X0110995Y0017785D01*
X0112480Y0016187D02*
X0104549Y0016187D01*
X0104549Y0014588D02*
X0110881Y0014588D01*
X0110474Y0012990D02*
X0103598Y0012990D01*
X0104549Y0011391D02*
X0110474Y0011391D01*
X0110474Y0009793D02*
X0103904Y0009793D01*
X0103280Y0017785D02*
X0107526Y0017785D01*
X0105927Y0019384D02*
X0095851Y0019384D01*
X0096383Y0017785D02*
X0097747Y0017785D01*
X0097553Y0020982D02*
X0105809Y0020982D01*
X0105809Y0022581D02*
X0098352Y0022581D01*
X0099151Y0024179D02*
X0105809Y0024179D01*
X0105809Y0025778D02*
X0099951Y0025778D01*
X0099322Y0027376D02*
X0106436Y0027376D01*
X0106681Y0030573D02*
X0026948Y0030573D01*
X0026948Y0028975D02*
X0068488Y0028975D01*
X0068488Y0029084D02*
X0068488Y0026577D01*
X0068316Y0026577D01*
X0067320Y0025581D01*
X0067320Y0024173D01*
X0068316Y0023177D01*
X0068488Y0023177D01*
X0068488Y0020670D01*
X0069483Y0019674D01*
X0070892Y0019674D01*
X0071888Y0020670D01*
X0071888Y0023177D01*
X0074395Y0023177D01*
X0075391Y0024173D01*
X0075391Y0025581D01*
X0074395Y0026577D01*
X0070892Y0030080D01*
X0069483Y0030080D01*
X0068488Y0029084D01*
X0068488Y0027376D02*
X0025803Y0027376D01*
X0024536Y0025143D02*
X0022748Y0025143D01*
X0022748Y0020543D01*
X0027348Y0020543D01*
X0027348Y0022332D01*
X0024536Y0025143D01*
X0025500Y0024179D02*
X0067320Y0024179D01*
X0067516Y0025778D02*
X0004600Y0025778D01*
X0004600Y0027376D02*
X0009293Y0027376D01*
X0008148Y0028975D02*
X0004600Y0028975D01*
X0004600Y0030573D02*
X0008148Y0030573D01*
X0008154Y0032172D02*
X0004600Y0032172D01*
X0004600Y0033770D02*
X0006726Y0033770D01*
X0005127Y0035369D02*
X0004600Y0035369D01*
X0004600Y0036967D02*
X0004600Y0036967D01*
X0004600Y0038566D02*
X0004600Y0038566D01*
X0004600Y0040164D02*
X0004600Y0040164D01*
X0004600Y0041763D02*
X0004600Y0041763D01*
X0004600Y0043361D02*
X0004600Y0043361D01*
X0004600Y0044960D02*
X0005956Y0044960D01*
X0004600Y0046558D02*
X0007554Y0046558D01*
X0009153Y0048157D02*
X0004600Y0048157D01*
X0004600Y0049755D02*
X0010751Y0049755D01*
X0012350Y0051354D02*
X0004600Y0051354D01*
X0004600Y0052952D02*
X0013948Y0052952D01*
X0015559Y0049755D02*
X0019451Y0049755D01*
X0017853Y0048157D02*
X0013961Y0048157D01*
X0012362Y0046558D02*
X0016254Y0046558D01*
X0014656Y0044960D02*
X0010764Y0044960D01*
X0009343Y0043361D02*
X0009165Y0043361D01*
X0008148Y0041763D02*
X0008000Y0041763D01*
X0008000Y0040164D02*
X0008148Y0040164D01*
X0008148Y0038566D02*
X0008000Y0038566D01*
X0008337Y0036967D02*
X0009702Y0036967D01*
X0009935Y0035369D02*
X0025165Y0035369D01*
X0025395Y0036967D02*
X0026763Y0036967D01*
X0026948Y0038566D02*
X0052362Y0038566D01*
X0053960Y0040164D02*
X0026948Y0040164D01*
X0019752Y0033770D02*
X0015344Y0033770D01*
X0016942Y0032172D02*
X0018154Y0032172D01*
X0018148Y0030573D02*
X0016948Y0030573D01*
X0016948Y0028975D02*
X0018148Y0028975D01*
X0019293Y0027376D02*
X0015803Y0027376D01*
X0014371Y0024743D02*
X0010725Y0024743D01*
X0008148Y0022166D01*
X0008148Y0018521D01*
X0010725Y0015943D01*
X0014371Y0015943D01*
X0016948Y0018521D01*
X0016948Y0022166D01*
X0014371Y0024743D01*
X0014935Y0024179D02*
X0019596Y0024179D01*
X0020560Y0025143D02*
X0017748Y0022332D01*
X0017748Y0020543D01*
X0022348Y0020543D01*
X0022348Y0020143D01*
X0022748Y0020143D01*
X0022748Y0015543D01*
X0024536Y0015543D01*
X0027348Y0018355D01*
X0027348Y0020143D01*
X0022748Y0020143D01*
X0022748Y0020543D01*
X0022348Y0020543D01*
X0022348Y0025143D01*
X0020560Y0025143D01*
X0022348Y0024179D02*
X0022748Y0024179D01*
X0022748Y0022581D02*
X0022348Y0022581D01*
X0022348Y0020982D02*
X0022748Y0020982D01*
X0022348Y0020143D02*
X0017748Y0020143D01*
X0017748Y0018355D01*
X0020560Y0015543D01*
X0022348Y0015543D01*
X0022348Y0020143D01*
X0022348Y0019384D02*
X0022748Y0019384D01*
X0022748Y0017785D02*
X0022348Y0017785D01*
X0022348Y0016187D02*
X0022748Y0016187D01*
X0019917Y0016187D02*
X0014614Y0016187D01*
X0016212Y0017785D02*
X0018318Y0017785D01*
X0017748Y0019384D02*
X0016948Y0019384D01*
X0016948Y0020982D02*
X0017748Y0020982D01*
X0017997Y0022581D02*
X0016533Y0022581D01*
X0010161Y0024179D02*
X0004600Y0024179D01*
X0004600Y0022581D02*
X0008563Y0022581D01*
X0008148Y0020982D02*
X0004600Y0020982D01*
X0004600Y0019384D02*
X0008148Y0019384D01*
X0008884Y0017785D02*
X0004600Y0017785D01*
X0004600Y0016187D02*
X0010482Y0016187D01*
X0004600Y0014588D02*
X0078224Y0014588D01*
X0077817Y0012990D02*
X0004600Y0012990D01*
X0004600Y0011391D02*
X0078031Y0011391D01*
X0078985Y0009793D02*
X0004600Y0009793D01*
X0004600Y0008194D02*
X0148626Y0008194D01*
X0148626Y0006596D02*
X0004600Y0006596D01*
X0004600Y0004997D02*
X0148626Y0004997D01*
X0141444Y0009793D02*
X0141226Y0009793D01*
X0140799Y0016187D02*
X0139866Y0016187D01*
X0135806Y0016187D02*
X0134036Y0016187D01*
X0133801Y0011391D02*
X0133706Y0011391D01*
X0133061Y0009793D02*
X0134446Y0009793D01*
X0130089Y0012990D02*
X0129257Y0012990D01*
X0129040Y0011391D02*
X0129851Y0011391D01*
X0129138Y0009793D02*
X0128395Y0009793D01*
X0129370Y0016187D02*
X0129976Y0016187D01*
X0125310Y0016187D02*
X0123537Y0016187D01*
X0119477Y0016187D02*
X0117707Y0016187D01*
X0114815Y0016187D02*
X0114204Y0016187D01*
X0116207Y0020982D02*
X0117477Y0020982D01*
X0117477Y0022581D02*
X0116207Y0022581D01*
X0116213Y0024179D02*
X0117471Y0024179D01*
X0120877Y0028975D02*
X0141857Y0028975D01*
X0140799Y0027376D02*
X0140076Y0027376D01*
X0144782Y0033770D02*
X0148624Y0033770D01*
X0148624Y0032172D02*
X0112655Y0032172D01*
X0113952Y0033770D02*
X0134409Y0033770D01*
X0132810Y0035369D02*
X0114640Y0035369D01*
X0114853Y0038033D02*
X0114783Y0038563D01*
X0114552Y0039424D01*
X0114211Y0040247D01*
X0113765Y0041019D01*
X0113223Y0041726D01*
X0112592Y0042357D01*
X0111885Y0042899D01*
X0111113Y0043345D01*
X0110290Y0043686D01*
X0109429Y0043917D01*
X0108899Y0043986D01*
X0108899Y0038033D01*
X0114853Y0038033D01*
X0114782Y0038566D02*
X0131041Y0038566D01*
X0130695Y0040164D02*
X0114245Y0040164D01*
X0113186Y0041763D02*
X0130695Y0041763D01*
X0130870Y0043361D02*
X0111074Y0043361D01*
X0108899Y0043361D02*
X0107299Y0043361D01*
X0107299Y0041763D02*
X0108899Y0041763D01*
X0108899Y0040164D02*
X0107299Y0040164D01*
X0107299Y0038566D02*
X0108899Y0038566D01*
X0108899Y0036967D02*
X0131703Y0036967D01*
X0131532Y0044960D02*
X0106537Y0044960D01*
X0107300Y0046558D02*
X0132397Y0046558D01*
X0133996Y0048157D02*
X0106952Y0048157D01*
X0105125Y0043361D02*
X0104090Y0043361D01*
X0103012Y0041763D02*
X0102491Y0041763D01*
X0100031Y0044960D02*
X0099658Y0044960D01*
X0101781Y0033770D02*
X0102247Y0033770D01*
X0103544Y0032172D02*
X0100278Y0032172D01*
X0096949Y0027376D02*
X0094748Y0027376D01*
X0095547Y0025778D02*
X0096149Y0025778D01*
X0092545Y0024179D02*
X0090550Y0024179D01*
X0092383Y0022581D02*
X0093344Y0022581D01*
X0092886Y0020982D02*
X0094143Y0020982D01*
X0093515Y0019384D02*
X0027348Y0019384D01*
X0027348Y0020982D02*
X0068488Y0020982D01*
X0068488Y0022581D02*
X0027099Y0022581D01*
X0026778Y0017785D02*
X0084916Y0017785D01*
X0084815Y0016187D02*
X0083882Y0016187D01*
X0079822Y0016187D02*
X0025180Y0016187D01*
X0019702Y0036967D02*
X0015395Y0036967D01*
X0016948Y0038566D02*
X0018148Y0038566D01*
X0018148Y0040164D02*
X0016948Y0040164D01*
X0016948Y0041763D02*
X0018148Y0041763D01*
X0017865Y0043361D02*
X0019343Y0043361D01*
X0030847Y0054551D02*
X0004600Y0054551D01*
X0004600Y0056149D02*
X0032445Y0056149D01*
X0034044Y0057748D02*
X0004600Y0057748D01*
X0004600Y0059346D02*
X0035642Y0059346D01*
X0037241Y0060945D02*
X0004600Y0060945D01*
X0004600Y0062543D02*
X0031954Y0062543D01*
X0031827Y0062596D02*
X0032783Y0062200D01*
X0033817Y0062200D01*
X0034773Y0062596D01*
X0035504Y0063327D01*
X0035900Y0064283D01*
X0035900Y0065317D01*
X0035504Y0066273D01*
X0034773Y0067004D01*
X0033817Y0067400D01*
X0032783Y0067400D01*
X0031827Y0067004D01*
X0031323Y0066500D01*
X0020504Y0066500D01*
X0017371Y0069633D01*
X0017440Y0069702D01*
X0017440Y0073347D01*
X0014863Y0075924D01*
X0011218Y0075924D01*
X0008640Y0073347D01*
X0008640Y0069702D01*
X0011218Y0067124D01*
X0014863Y0067124D01*
X0014967Y0067229D01*
X0018100Y0064096D01*
X0019096Y0063100D01*
X0031323Y0063100D01*
X0031827Y0062596D01*
X0032635Y0067339D02*
X0025643Y0067339D01*
X0025028Y0066724D02*
X0027840Y0069536D01*
X0027840Y0071324D01*
X0023240Y0071324D01*
X0023240Y0066724D01*
X0025028Y0066724D01*
X0023240Y0067339D02*
X0022840Y0067339D01*
X0022840Y0066724D02*
X0022840Y0071324D01*
X0023240Y0071324D01*
X0023240Y0071724D01*
X0027840Y0071724D01*
X0027840Y0073513D01*
X0025028Y0076324D01*
X0023240Y0076324D01*
X0023240Y0071724D01*
X0022840Y0071724D01*
X0022840Y0071324D01*
X0018240Y0071324D01*
X0018240Y0069536D01*
X0021052Y0066724D01*
X0022840Y0066724D01*
X0022840Y0068937D02*
X0023240Y0068937D01*
X0023240Y0070536D02*
X0022840Y0070536D01*
X0022840Y0071724D02*
X0018240Y0071724D01*
X0018240Y0073513D01*
X0021052Y0076324D01*
X0022840Y0076324D01*
X0022840Y0071724D01*
X0022840Y0072134D02*
X0023240Y0072134D01*
X0023240Y0073733D02*
X0022840Y0073733D01*
X0022840Y0075332D02*
X0023240Y0075332D01*
X0026021Y0075332D02*
X0051627Y0075332D01*
X0053226Y0076930D02*
X0004600Y0076930D01*
X0004600Y0075332D02*
X0010625Y0075332D01*
X0009026Y0073733D02*
X0004600Y0073733D01*
X0004600Y0072134D02*
X0008640Y0072134D01*
X0008640Y0070536D02*
X0004600Y0070536D01*
X0004600Y0068937D02*
X0009405Y0068937D01*
X0011003Y0067339D02*
X0004600Y0067339D01*
X0004600Y0065740D02*
X0016455Y0065740D01*
X0018054Y0064142D02*
X0004600Y0064142D01*
X0004600Y0078529D02*
X0009813Y0078529D01*
X0008640Y0080127D02*
X0004600Y0080127D01*
X0004600Y0081726D02*
X0008640Y0081726D01*
X0008640Y0083324D02*
X0004600Y0083324D01*
X0004600Y0084923D02*
X0010216Y0084923D01*
X0011218Y0087124D02*
X0014863Y0087124D01*
X0017440Y0089702D01*
X0017440Y0093347D01*
X0014863Y0095924D01*
X0011218Y0095924D01*
X0011049Y0095755D01*
X0009500Y0097304D01*
X0009500Y0111196D01*
X0014314Y0116010D01*
X0014387Y0116010D01*
X0015820Y0116604D01*
X0016917Y0117701D01*
X0017511Y0119134D01*
X0017511Y0119807D01*
X0021704Y0124000D01*
X0025300Y0124000D01*
X0025300Y0123828D01*
X0025282Y0123810D01*
X0024646Y0123810D01*
X0023213Y0123216D01*
X0022116Y0122119D01*
X0021522Y0120686D01*
X0021522Y0119134D01*
X0022116Y0117701D01*
X0022617Y0117200D01*
X0020296Y0117200D01*
X0018825Y0115729D01*
X0018324Y0115936D01*
X0016772Y0115936D01*
X0015339Y0115342D01*
X0014242Y0114245D01*
X0013648Y0112812D01*
X0013648Y0111260D01*
X0014242Y0109827D01*
X0015339Y0108730D01*
X0015612Y0108617D01*
X0015400Y0108404D01*
X0014861Y0107866D01*
X0014387Y0108062D01*
X0012835Y0108062D01*
X0011402Y0107468D01*
X0010305Y0106371D01*
X0009711Y0104938D01*
X0009711Y0103386D01*
X0010305Y0101953D01*
X0011402Y0100856D01*
X0012835Y0100262D01*
X0014387Y0100262D01*
X0015820Y0100856D01*
X0016917Y0101953D01*
X0017511Y0103386D01*
X0017511Y0104938D01*
X0017286Y0105482D01*
X0017804Y0106000D01*
X0021532Y0106000D01*
X0021437Y0105813D01*
X0021228Y0105169D01*
X0021140Y0104612D01*
X0024972Y0104612D01*
X0024972Y0103712D01*
X0025872Y0103712D01*
X0025872Y0099880D01*
X0026429Y0099968D01*
X0027073Y0100177D01*
X0027676Y0100485D01*
X0028223Y0100882D01*
X0028702Y0101361D01*
X0029100Y0101909D01*
X0029407Y0102512D01*
X0029616Y0103155D01*
X0029704Y0103712D01*
X0025872Y0103712D01*
X0025872Y0104612D01*
X0027384Y0104612D01*
X0028096Y0103900D01*
X0032804Y0103900D01*
X0033800Y0104896D01*
X0036104Y0107200D01*
X0036817Y0107200D01*
X0037773Y0107596D01*
X0038504Y0108327D01*
X0038900Y0109283D01*
X0038900Y0110317D01*
X0038504Y0111273D01*
X0037773Y0112004D01*
X0036817Y0112400D01*
X0035783Y0112400D01*
X0034827Y0112004D01*
X0034096Y0111273D01*
X0033700Y0110317D01*
X0033700Y0109604D01*
X0033336Y0109241D01*
X0032673Y0109904D01*
X0031717Y0110300D01*
X0031004Y0110300D01*
X0029322Y0111982D01*
X0029322Y0112812D01*
X0029161Y0113200D01*
X0054423Y0113200D01*
X0054927Y0112696D01*
X0055883Y0112300D01*
X0056917Y0112300D01*
X0057873Y0112696D01*
X0058604Y0113427D01*
X0059000Y0114383D01*
X0059000Y0115417D01*
X0058604Y0116373D01*
X0057873Y0117104D01*
X0056917Y0117500D01*
X0055883Y0117500D01*
X0054927Y0117104D01*
X0054423Y0116600D01*
X0028304Y0116600D01*
X0027966Y0116938D01*
X0028728Y0117701D01*
X0029322Y0119134D01*
X0029322Y0120686D01*
X0029078Y0121274D01*
X0029373Y0121396D01*
X0030104Y0122127D01*
X0030500Y0123083D01*
X0030500Y0124117D01*
X0030104Y0125073D01*
X0030041Y0125136D01*
X0030704Y0125800D01*
X0031417Y0125800D01*
X0032373Y0126196D01*
X0033104Y0126927D01*
X0033500Y0127883D01*
X0033500Y0128917D01*
X0033104Y0129873D01*
X0032373Y0130604D01*
X0031417Y0131000D01*
X0030383Y0131000D01*
X0029427Y0130604D01*
X0028696Y0129873D01*
X0028300Y0128917D01*
X0028300Y0128204D01*
X0027496Y0127400D01*
X0020296Y0127400D01*
X0015966Y0123070D01*
X0015820Y0123216D01*
X0014387Y0123810D01*
X0012835Y0123810D01*
X0011402Y0123216D01*
X0010305Y0122119D01*
X0009711Y0120686D01*
X0009711Y0119134D01*
X0010305Y0117701D01*
X0010751Y0117255D01*
X0007096Y0113600D01*
X0006100Y0112604D01*
X0006100Y0095896D01*
X0008645Y0093351D01*
X0008640Y0093347D01*
X0008640Y0089702D01*
X0011218Y0087124D01*
X0010222Y0088120D02*
X0004600Y0088120D01*
X0004600Y0089718D02*
X0008640Y0089718D01*
X0008640Y0091317D02*
X0004600Y0091317D01*
X0004600Y0092915D02*
X0008640Y0092915D01*
X0007482Y0094514D02*
X0004600Y0094514D01*
X0004600Y0096112D02*
X0006100Y0096112D01*
X0006100Y0097711D02*
X0004600Y0097711D01*
X0004600Y0099309D02*
X0006100Y0099309D01*
X0006100Y0100908D02*
X0004600Y0100908D01*
X0004600Y0102506D02*
X0006100Y0102506D01*
X0006100Y0104105D02*
X0004600Y0104105D01*
X0004600Y0105703D02*
X0006100Y0105703D01*
X0006100Y0107302D02*
X0004600Y0107302D01*
X0004600Y0108900D02*
X0006100Y0108900D01*
X0006100Y0110499D02*
X0004600Y0110499D01*
X0004600Y0112097D02*
X0006100Y0112097D01*
X0007192Y0113696D02*
X0004600Y0113696D01*
X0004600Y0115294D02*
X0008790Y0115294D01*
X0010389Y0116893D02*
X0004600Y0116893D01*
X0004600Y0118491D02*
X0009977Y0118491D01*
X0009711Y0120090D02*
X0004600Y0120090D01*
X0004600Y0121688D02*
X0010126Y0121688D01*
X0011572Y0123287D02*
X0004600Y0123287D01*
X0004600Y0124885D02*
X0017781Y0124885D01*
X0016183Y0123287D02*
X0015650Y0123287D01*
X0017794Y0120090D02*
X0021522Y0120090D01*
X0021788Y0118491D02*
X0017245Y0118491D01*
X0016109Y0116893D02*
X0019989Y0116893D01*
X0019393Y0121688D02*
X0021937Y0121688D01*
X0020991Y0123287D02*
X0023383Y0123287D01*
X0019380Y0126484D02*
X0004600Y0126484D01*
X0004600Y0128082D02*
X0028178Y0128082D01*
X0028616Y0129681D02*
X0004600Y0129681D01*
X0004600Y0131279D02*
X0062200Y0131279D01*
X0062200Y0129681D02*
X0033184Y0129681D01*
X0033500Y0128082D02*
X0062200Y0128082D01*
X0062200Y0126484D02*
X0032661Y0126484D01*
X0030182Y0124885D02*
X0062200Y0124885D01*
X0062200Y0123287D02*
X0030500Y0123287D01*
X0029665Y0121688D02*
X0061911Y0121688D01*
X0061300Y0120090D02*
X0029322Y0120090D01*
X0029056Y0118491D02*
X0061732Y0118491D01*
X0062790Y0115294D02*
X0059000Y0115294D01*
X0058715Y0113696D02*
X0061192Y0113696D01*
X0059593Y0112097D02*
X0037548Y0112097D01*
X0038825Y0110499D02*
X0057395Y0110499D01*
X0055796Y0108900D02*
X0038742Y0108900D01*
X0037063Y0107302D02*
X0054198Y0107302D01*
X0052599Y0105703D02*
X0034607Y0105703D01*
X0033009Y0104105D02*
X0051001Y0104105D01*
X0049402Y0102506D02*
X0029404Y0102506D01*
X0028249Y0100908D02*
X0047804Y0100908D01*
X0049415Y0097711D02*
X0052407Y0097711D01*
X0051013Y0099309D02*
X0054005Y0099309D01*
X0052612Y0100908D02*
X0055604Y0100908D01*
X0054210Y0102506D02*
X0057202Y0102506D01*
X0055809Y0104105D02*
X0058801Y0104105D01*
X0057407Y0105703D02*
X0060399Y0105703D01*
X0059006Y0107302D02*
X0061998Y0107302D01*
X0061204Y0108900D02*
X0063596Y0108900D01*
X0062803Y0110499D02*
X0065195Y0110499D01*
X0064401Y0112097D02*
X0066793Y0112097D01*
X0066000Y0113696D02*
X0067900Y0113696D01*
X0067598Y0115294D02*
X0068717Y0115294D01*
X0069197Y0116893D02*
X0072789Y0116893D01*
X0074200Y0118491D02*
X0070795Y0118491D01*
X0073667Y0120090D02*
X0074200Y0120090D01*
X0074600Y0121688D02*
X0075784Y0121688D01*
X0074323Y0123287D02*
X0077383Y0123287D01*
X0078981Y0124885D02*
X0068790Y0124885D01*
X0069200Y0126484D02*
X0080580Y0126484D01*
X0082178Y0128082D02*
X0069200Y0128082D01*
X0069200Y0129681D02*
X0083777Y0129681D01*
X0085375Y0131279D02*
X0069200Y0131279D01*
X0069200Y0132878D02*
X0086974Y0132878D01*
X0088572Y0134476D02*
X0069200Y0134476D01*
X0069200Y0136075D02*
X0075378Y0136075D01*
X0074245Y0137673D02*
X0069200Y0137673D01*
X0069200Y0139272D02*
X0074388Y0139272D01*
X0075100Y0140870D02*
X0069200Y0140870D01*
X0069200Y0142469D02*
X0075100Y0142469D01*
X0075100Y0144068D02*
X0069200Y0144068D01*
X0069200Y0145666D02*
X0075100Y0145666D01*
X0075100Y0147265D02*
X0069200Y0147265D01*
X0069200Y0148863D02*
X0075100Y0148863D01*
X0075100Y0150462D02*
X0069200Y0150462D01*
X0069200Y0152060D02*
X0075100Y0152060D01*
X0075100Y0153659D02*
X0069200Y0153659D01*
X0068547Y0155257D02*
X0075100Y0155257D01*
X0075100Y0156856D02*
X0066949Y0156856D01*
X0065350Y0158454D02*
X0075100Y0158454D01*
X0073643Y0160053D02*
X0063752Y0160053D01*
X0062153Y0161651D02*
X0072045Y0161651D01*
X0070446Y0163250D02*
X0060555Y0163250D01*
X0058956Y0164848D02*
X0068848Y0164848D01*
X0067249Y0166447D02*
X0057357Y0166447D01*
X0055759Y0168045D02*
X0065651Y0168045D01*
X0064052Y0169644D02*
X0054160Y0169644D01*
X0052562Y0171242D02*
X0062454Y0171242D01*
X0060855Y0172841D02*
X0050963Y0172841D01*
X0049365Y0174439D02*
X0059257Y0174439D01*
X0057658Y0176038D02*
X0047766Y0176038D01*
X0046168Y0177636D02*
X0056060Y0177636D01*
X0054461Y0179235D02*
X0045200Y0179235D01*
X0044300Y0180833D02*
X0052863Y0180833D01*
X0051264Y0182432D02*
X0044300Y0182432D01*
X0045134Y0184030D02*
X0049666Y0184030D01*
X0048067Y0185629D02*
X0046400Y0185629D01*
X0046400Y0187227D02*
X0046469Y0187227D01*
X0048080Y0190424D02*
X0071140Y0190424D01*
X0071140Y0190715D02*
X0071810Y0192332D01*
X0073048Y0193570D01*
X0074665Y0194239D01*
X0076415Y0194239D01*
X0078033Y0193570D01*
X0079270Y0192332D01*
X0079940Y0190715D01*
X0079940Y0182964D01*
X0079911Y0182893D01*
X0083804Y0179000D01*
X0084517Y0179000D01*
X0085473Y0178604D01*
X0086204Y0177873D01*
X0086600Y0176917D01*
X0086600Y0175883D01*
X0086204Y0174927D01*
X0085473Y0174196D01*
X0084517Y0173800D01*
X0083483Y0173800D01*
X0082527Y0174196D01*
X0081796Y0174927D01*
X0081400Y0175883D01*
X0081400Y0176596D01*
X0077929Y0180066D01*
X0076415Y0179439D01*
X0074665Y0179439D01*
X0073048Y0180109D01*
X0071810Y0181347D01*
X0071140Y0182964D01*
X0071140Y0190715D01*
X0071682Y0192023D02*
X0046481Y0192023D01*
X0044883Y0193621D02*
X0073173Y0193621D01*
X0071140Y0188826D02*
X0049678Y0188826D01*
X0051277Y0187227D02*
X0071140Y0187227D01*
X0071140Y0185629D02*
X0052875Y0185629D01*
X0054474Y0184030D02*
X0071140Y0184030D01*
X0071361Y0182432D02*
X0056072Y0182432D01*
X0057671Y0180833D02*
X0072324Y0180833D01*
X0067262Y0171242D02*
X0100310Y0171242D01*
X0100523Y0169644D02*
X0068860Y0169644D01*
X0070459Y0168045D02*
X0101200Y0168045D01*
X0101200Y0166447D02*
X0072057Y0166447D01*
X0073656Y0164848D02*
X0101200Y0164848D01*
X0101200Y0163250D02*
X0075255Y0163250D01*
X0076853Y0161651D02*
X0101200Y0161651D01*
X0101200Y0160053D02*
X0078452Y0160053D01*
X0078500Y0158454D02*
X0101077Y0158454D01*
X0100300Y0156856D02*
X0078500Y0156856D01*
X0078500Y0155257D02*
X0100642Y0155257D01*
X0104723Y0158454D02*
X0105577Y0158454D01*
X0104600Y0160053D02*
X0112032Y0160053D01*
X0110855Y0161651D02*
X0104600Y0161651D01*
X0104600Y0163250D02*
X0110946Y0163250D01*
X0109348Y0164848D02*
X0104600Y0164848D01*
X0104600Y0166447D02*
X0107749Y0166447D01*
X0106151Y0168045D02*
X0104600Y0168045D01*
X0107762Y0171242D02*
X0114100Y0171242D01*
X0114100Y0169644D02*
X0109360Y0169644D01*
X0110959Y0168045D02*
X0114100Y0168045D01*
X0114100Y0166447D02*
X0112557Y0166447D01*
X0114100Y0172841D02*
X0106163Y0172841D01*
X0104565Y0174439D02*
X0114100Y0174439D01*
X0114100Y0176038D02*
X0102966Y0176038D01*
X0101368Y0177636D02*
X0114100Y0177636D01*
X0114100Y0179235D02*
X0100100Y0179235D01*
X0100100Y0180833D02*
X0114100Y0180833D01*
X0114100Y0182432D02*
X0100100Y0182432D01*
X0100100Y0184030D02*
X0114100Y0184030D01*
X0114100Y0185629D02*
X0100100Y0185629D01*
X0100100Y0187227D02*
X0114100Y0187227D01*
X0114100Y0188826D02*
X0100100Y0188826D01*
X0100100Y0190424D02*
X0114100Y0190424D01*
X0114100Y0192023D02*
X0100100Y0192023D01*
X0100100Y0193621D02*
X0114100Y0193621D01*
X0114100Y0195220D02*
X0100100Y0195220D01*
X0100100Y0196818D02*
X0114100Y0196818D01*
X0114100Y0198417D02*
X0100100Y0198417D01*
X0100100Y0200015D02*
X0114100Y0200015D01*
X0114100Y0201614D02*
X0100100Y0201614D01*
X0100100Y0203212D02*
X0114100Y0203212D01*
X0123193Y0222395D02*
X0148609Y0222395D01*
X0148609Y0220796D02*
X0126902Y0220796D01*
X0127711Y0219198D02*
X0148610Y0219198D01*
X0148610Y0217599D02*
X0127747Y0217599D01*
X0127028Y0216001D02*
X0148610Y0216001D01*
X0114100Y0158454D02*
X0109223Y0158454D01*
X0110000Y0156856D02*
X0114100Y0156856D01*
X0114100Y0155257D02*
X0109658Y0155257D01*
X0114100Y0153659D02*
X0078500Y0153659D01*
X0078500Y0152060D02*
X0114100Y0152060D01*
X0114100Y0150462D02*
X0078500Y0150462D01*
X0078500Y0148863D02*
X0114100Y0148863D01*
X0114100Y0147265D02*
X0078500Y0147265D01*
X0078500Y0145666D02*
X0113262Y0145666D01*
X0111663Y0144068D02*
X0078500Y0144068D01*
X0078500Y0142469D02*
X0110065Y0142469D01*
X0108466Y0140870D02*
X0078500Y0140870D01*
X0079212Y0139272D02*
X0106868Y0139272D01*
X0105269Y0137673D02*
X0079355Y0137673D01*
X0078222Y0136075D02*
X0103671Y0136075D01*
X0102072Y0134476D02*
X0099815Y0134476D01*
X0096210Y0123287D02*
X0095691Y0123287D01*
X0095800Y0121688D02*
X0094100Y0121688D01*
X0095104Y0120090D02*
X0096433Y0120090D01*
X0096700Y0118491D02*
X0095262Y0118491D01*
X0094165Y0116893D02*
X0096700Y0116893D01*
X0096700Y0115294D02*
X0092000Y0115294D01*
X0092000Y0113696D02*
X0096700Y0113696D01*
X0096700Y0112097D02*
X0092000Y0112097D01*
X0092000Y0110499D02*
X0096700Y0110499D01*
X0096700Y0108900D02*
X0092000Y0108900D01*
X0092000Y0107302D02*
X0096700Y0107302D01*
X0096700Y0105703D02*
X0092000Y0105703D01*
X0092000Y0104105D02*
X0095401Y0104105D01*
X0093802Y0102506D02*
X0092000Y0102506D01*
X0092000Y0100908D02*
X0092204Y0100908D01*
X0078400Y0112097D02*
X0077374Y0112097D01*
X0076895Y0110499D02*
X0076603Y0110499D01*
X0075400Y0108900D02*
X0075004Y0108900D01*
X0075400Y0107302D02*
X0073406Y0107302D01*
X0071807Y0105703D02*
X0075400Y0105703D01*
X0075385Y0104105D02*
X0070209Y0104105D01*
X0068610Y0102506D02*
X0075100Y0102506D01*
X0076015Y0100908D02*
X0067012Y0100908D01*
X0065413Y0099309D02*
X0075605Y0099309D01*
X0074007Y0097711D02*
X0063815Y0097711D01*
X0062216Y0096112D02*
X0072408Y0096112D01*
X0070810Y0094514D02*
X0060618Y0094514D01*
X0059019Y0092915D02*
X0069211Y0092915D01*
X0067612Y0091317D02*
X0057421Y0091317D01*
X0055822Y0089718D02*
X0066014Y0089718D01*
X0064415Y0088120D02*
X0054224Y0088120D01*
X0052625Y0086521D02*
X0062817Y0086521D01*
X0061218Y0084923D02*
X0051027Y0084923D01*
X0049428Y0083324D02*
X0059620Y0083324D01*
X0058021Y0081726D02*
X0047830Y0081726D01*
X0046231Y0080127D02*
X0056423Y0080127D01*
X0054824Y0078529D02*
X0026267Y0078529D01*
X0027620Y0073733D02*
X0050029Y0073733D01*
X0048430Y0072134D02*
X0027840Y0072134D01*
X0027840Y0070536D02*
X0046832Y0070536D01*
X0045233Y0068937D02*
X0027241Y0068937D01*
X0033965Y0067339D02*
X0043635Y0067339D01*
X0042036Y0065740D02*
X0035725Y0065740D01*
X0035842Y0064142D02*
X0040438Y0064142D01*
X0038839Y0062543D02*
X0034646Y0062543D01*
X0041557Y0052952D02*
X0045148Y0052952D01*
X0043550Y0051354D02*
X0039958Y0051354D01*
X0038359Y0049755D02*
X0041951Y0049755D01*
X0040353Y0048157D02*
X0036761Y0048157D01*
X0035162Y0046558D02*
X0038754Y0046558D01*
X0043155Y0054551D02*
X0046747Y0054551D01*
X0048345Y0056149D02*
X0044754Y0056149D01*
X0047133Y0057748D02*
X0049944Y0057748D01*
X0048919Y0059346D02*
X0051542Y0059346D01*
X0053141Y0060945D02*
X0049047Y0060945D01*
X0047878Y0062543D02*
X0054739Y0062543D01*
X0049209Y0094514D02*
X0037518Y0094514D01*
X0039116Y0096112D02*
X0050808Y0096112D01*
X0037505Y0099309D02*
X0009500Y0099309D01*
X0009500Y0097711D02*
X0035907Y0097711D01*
X0034308Y0096112D02*
X0010692Y0096112D01*
X0011350Y0100908D02*
X0009500Y0100908D01*
X0009500Y0102506D02*
X0010076Y0102506D01*
X0009711Y0104105D02*
X0009500Y0104105D01*
X0009500Y0105703D02*
X0010028Y0105703D01*
X0009500Y0107302D02*
X0011235Y0107302D01*
X0009500Y0108900D02*
X0015169Y0108900D01*
X0015400Y0108404D02*
X0015400Y0108404D01*
X0013964Y0110499D02*
X0009500Y0110499D01*
X0010401Y0112097D02*
X0013648Y0112097D01*
X0014014Y0113696D02*
X0012000Y0113696D01*
X0013598Y0115294D02*
X0015291Y0115294D01*
X0017507Y0105703D02*
X0021401Y0105703D01*
X0021140Y0103712D02*
X0021228Y0103155D01*
X0021437Y0102512D01*
X0021744Y0101909D01*
X0022142Y0101361D01*
X0022621Y0100882D01*
X0023168Y0100485D01*
X0023771Y0100177D01*
X0024415Y0099968D01*
X0024972Y0099880D01*
X0024972Y0103712D01*
X0021140Y0103712D01*
X0021440Y0102506D02*
X0017146Y0102506D01*
X0017511Y0104105D02*
X0024972Y0104105D01*
X0025872Y0104105D02*
X0027891Y0104105D01*
X0025872Y0102506D02*
X0024972Y0102506D01*
X0024972Y0100908D02*
X0025872Y0100908D01*
X0022595Y0100908D02*
X0015872Y0100908D01*
X0016273Y0094514D02*
X0019807Y0094514D01*
X0018640Y0092915D02*
X0017440Y0092915D01*
X0017440Y0091317D02*
X0018640Y0091317D01*
X0018640Y0089718D02*
X0017440Y0089718D01*
X0015858Y0088120D02*
X0020222Y0088120D01*
X0018640Y0083324D02*
X0017440Y0083324D01*
X0017440Y0081726D02*
X0018640Y0081726D01*
X0018640Y0080127D02*
X0017440Y0080127D01*
X0016267Y0078529D02*
X0019813Y0078529D01*
X0020059Y0075332D02*
X0015456Y0075332D01*
X0017054Y0073733D02*
X0018461Y0073733D01*
X0018240Y0072134D02*
X0017440Y0072134D01*
X0017440Y0070536D02*
X0018240Y0070536D01*
X0018067Y0068937D02*
X0018839Y0068937D01*
X0019665Y0067339D02*
X0020437Y0067339D01*
X0015717Y0086521D02*
X0004600Y0086521D01*
X0025858Y0088120D02*
X0026315Y0088120D01*
X0027440Y0089718D02*
X0027914Y0089718D01*
X0027440Y0091317D02*
X0029512Y0091317D01*
X0031111Y0092915D02*
X0027440Y0092915D01*
X0026273Y0094514D02*
X0032709Y0094514D01*
X0033775Y0110499D02*
X0030805Y0110499D01*
X0029322Y0112097D02*
X0035052Y0112097D01*
X0028011Y0116893D02*
X0054716Y0116893D01*
X0058084Y0116893D02*
X0064389Y0116893D01*
X0068889Y0121688D02*
X0069184Y0121688D01*
X0069677Y0123287D02*
X0067191Y0123287D01*
X0078200Y0113696D02*
X0078400Y0113696D01*
X0108391Y0131279D02*
X0109602Y0131279D01*
X0112020Y0126484D02*
X0113698Y0126484D01*
X0113598Y0131279D02*
X0148616Y0131279D01*
X0148616Y0129681D02*
X0117754Y0129681D01*
X0101355Y0172841D02*
X0065663Y0172841D01*
X0064065Y0174439D02*
X0082284Y0174439D01*
X0081400Y0176038D02*
X0062466Y0176038D01*
X0060868Y0177636D02*
X0080360Y0177636D01*
X0078761Y0179235D02*
X0059269Y0179235D01*
X0077907Y0193621D02*
X0083173Y0193621D01*
X0083048Y0193570D02*
X0081810Y0192332D01*
X0081140Y0190715D01*
X0081140Y0182964D01*
X0081810Y0181347D01*
X0083048Y0180109D01*
X0084665Y0179439D01*
X0086415Y0179439D01*
X0088033Y0180109D01*
X0089270Y0181347D01*
X0089940Y0182964D01*
X0089940Y0190715D01*
X0089270Y0192332D01*
X0088033Y0193570D01*
X0086415Y0194239D01*
X0084665Y0194239D01*
X0083048Y0193570D01*
X0081682Y0192023D02*
X0079398Y0192023D01*
X0079940Y0190424D02*
X0081140Y0190424D01*
X0081140Y0188826D02*
X0079940Y0188826D01*
X0079940Y0187227D02*
X0081140Y0187227D01*
X0081140Y0185629D02*
X0079940Y0185629D01*
X0079940Y0184030D02*
X0081140Y0184030D01*
X0081361Y0182432D02*
X0080372Y0182432D01*
X0081971Y0180833D02*
X0082324Y0180833D01*
X0083569Y0179235D02*
X0096700Y0179235D01*
X0096700Y0180833D02*
X0088757Y0180833D01*
X0089720Y0182432D02*
X0096700Y0182432D01*
X0096700Y0184030D02*
X0089940Y0184030D01*
X0089940Y0185629D02*
X0096700Y0185629D01*
X0096700Y0187227D02*
X0089940Y0187227D01*
X0089940Y0188826D02*
X0096700Y0188826D01*
X0096700Y0190424D02*
X0089940Y0190424D01*
X0089398Y0192023D02*
X0096700Y0192023D01*
X0096700Y0193621D02*
X0087907Y0193621D01*
X0086302Y0177636D02*
X0096700Y0177636D01*
X0098158Y0176038D02*
X0086600Y0176038D01*
X0085716Y0174439D02*
X0099757Y0174439D01*
X0066283Y0230387D02*
X0004600Y0230387D01*
X0004600Y0231986D02*
X0067881Y0231986D01*
X0069480Y0233584D02*
X0004600Y0233584D01*
X0004600Y0235183D02*
X0071078Y0235183D01*
X0072677Y0236781D02*
X0004600Y0236781D01*
X0004600Y0241577D02*
X0075446Y0241577D01*
X0074014Y0243175D02*
X0004600Y0243175D01*
X0004600Y0244774D02*
X0074014Y0244774D01*
X0074014Y0246372D02*
X0004600Y0246372D01*
X0004600Y0247971D02*
X0075331Y0247971D01*
X0039869Y0187227D02*
X0033931Y0187227D01*
X0032333Y0185629D02*
X0040312Y0185629D01*
X0040900Y0184030D02*
X0030734Y0184030D01*
X0029136Y0182432D02*
X0040900Y0182432D01*
X0040900Y0180833D02*
X0027537Y0180833D01*
X0035530Y0188826D02*
X0037096Y0188826D01*
X0005441Y0160053D02*
X0004600Y0160053D01*
X0004600Y0142469D02*
X0004739Y0142469D01*
X0071997Y0028975D02*
X0076653Y0028975D01*
X0076653Y0027376D02*
X0073596Y0027376D01*
X0075194Y0025778D02*
X0076653Y0025778D01*
X0076653Y0024179D02*
X0075391Y0024179D01*
X0074820Y0022581D02*
X0071888Y0022581D01*
X0071888Y0020982D02*
X0074318Y0020982D01*
X0080053Y0024179D02*
X0082253Y0024179D01*
X0082389Y0025778D02*
X0087150Y0025778D01*
X0087150Y0027376D02*
X0081761Y0027376D01*
X0080163Y0028975D02*
X0087150Y0028975D01*
X0087150Y0024179D02*
X0084954Y0024179D01*
X0088114Y0017785D02*
X0092983Y0017785D01*
X0093072Y0016187D02*
X0090880Y0016187D01*
X0092479Y0014588D02*
X0092983Y0014588D01*
X0092983Y0012990D02*
X0092886Y0012990D01*
X0092375Y0027376D02*
X0092258Y0027376D01*
X0107299Y0030573D02*
X0108899Y0030573D01*
X0109517Y0030573D02*
X0148624Y0030573D01*
X0148623Y0035369D02*
X0146380Y0035369D01*
X0147488Y0036967D02*
X0148623Y0036967D01*
X0148623Y0038566D02*
X0148150Y0038566D01*
X0148495Y0040164D02*
X0148623Y0040164D01*
X0148623Y0041763D02*
X0148495Y0041763D01*
X0148623Y0043361D02*
X0148321Y0043361D01*
X0148623Y0044960D02*
X0147659Y0044960D01*
X0146794Y0046558D02*
X0148623Y0046558D01*
X0148622Y0048157D02*
X0145195Y0048157D01*
X0135596Y0027376D02*
X0133078Y0027376D01*
X0133706Y0025778D02*
X0133997Y0025778D01*
X0134018Y0020982D02*
X0134968Y0020982D01*
X0128598Y0027376D02*
X0126080Y0027376D01*
X0108899Y0032172D02*
X0107299Y0032172D01*
X0107299Y0033770D02*
X0108899Y0033770D01*
X0108899Y0035369D02*
X0107299Y0035369D01*
M02*
