G75*
%MOIN*%
%OFA0B0*%
%FSLAX25Y25*%
%IPPOS*%
%LPD*%
%AMOC8*
5,1,8,0,0,1.08239X$1,22.5*
%
%ADD10C,0.00000*%
%ADD11C,0.00300*%
%ADD12C,0.00236*%
%ADD13C,0.00256*%
%ADD14C,0.00220*%
%ADD15C,0.21000*%
%ADD16C,0.00252*%
%ADD17R,0.06000X0.06000*%
%ADD18OC8,0.06000*%
%ADD19C,0.02362*%
%ADD20C,0.05709*%
%ADD21C,0.08850*%
%ADD22C,0.10050*%
%ADD23OC8,0.02165*%
%ADD24C,0.00591*%
%ADD25C,0.01600*%
%ADD26C,0.02520*%
%ADD27C,0.00886*%
%ADD28C,0.00394*%
%ADD29C,0.01000*%
%ADD30C,0.01378*%
%ADD31C,0.01575*%
%ADD32C,0.02378*%
D10*
X0022595Y0010135D02*
X0412516Y0010135D01*
X0412516Y0203954D01*
X0022595Y0203954D01*
X0022595Y0010135D01*
D11*
X0378306Y0199285D02*
X0378306Y0202188D01*
X0379757Y0200737D01*
X0377822Y0200737D01*
X0380769Y0200737D02*
X0382704Y0200737D01*
X0383708Y0201220D02*
X0384192Y0201220D01*
X0385159Y0200253D01*
X0385159Y0201220D02*
X0385159Y0199285D01*
X0386171Y0200253D02*
X0388106Y0200253D01*
X0388106Y0199769D02*
X0388106Y0200737D01*
X0387622Y0201220D01*
X0386654Y0201220D01*
X0386171Y0200737D01*
X0386171Y0200253D01*
X0386654Y0199285D02*
X0387622Y0199285D01*
X0388106Y0199769D01*
X0389117Y0199285D02*
X0390568Y0199285D01*
X0391052Y0199769D01*
X0391052Y0201220D01*
X0392064Y0200737D02*
X0392064Y0199285D01*
X0393515Y0199285D01*
X0393999Y0199769D01*
X0393515Y0200253D01*
X0392064Y0200253D01*
X0392064Y0200737D02*
X0392547Y0201220D01*
X0393515Y0201220D01*
X0395010Y0199285D02*
X0396945Y0199285D01*
X0396945Y0202188D01*
X0390085Y0198318D02*
X0389601Y0198318D01*
X0389117Y0198802D01*
X0389117Y0201220D01*
D12*
X0280642Y0148832D02*
X0280642Y0145132D01*
X0276548Y0145132D01*
X0276548Y0148832D01*
X0280642Y0148832D01*
X0280642Y0145367D02*
X0276548Y0145367D01*
X0276548Y0145602D02*
X0280642Y0145602D01*
X0280642Y0145837D02*
X0276548Y0145837D01*
X0276548Y0146072D02*
X0280642Y0146072D01*
X0280642Y0146307D02*
X0276548Y0146307D01*
X0276548Y0146542D02*
X0280642Y0146542D01*
X0280642Y0146777D02*
X0276548Y0146777D01*
X0276548Y0147012D02*
X0280642Y0147012D01*
X0280642Y0147247D02*
X0276548Y0147247D01*
X0276548Y0147482D02*
X0280642Y0147482D01*
X0280642Y0147717D02*
X0276548Y0147717D01*
X0276548Y0147952D02*
X0280642Y0147952D01*
X0280642Y0148187D02*
X0276548Y0148187D01*
X0276548Y0148422D02*
X0280642Y0148422D01*
X0280642Y0148657D02*
X0276548Y0148657D01*
X0280642Y0142139D02*
X0280642Y0138439D01*
X0276548Y0138439D01*
X0276548Y0142139D01*
X0280642Y0142139D01*
X0280642Y0138674D02*
X0276548Y0138674D01*
X0276548Y0138909D02*
X0280642Y0138909D01*
X0280642Y0139144D02*
X0276548Y0139144D01*
X0276548Y0139379D02*
X0280642Y0139379D01*
X0280642Y0139614D02*
X0276548Y0139614D01*
X0276548Y0139849D02*
X0280642Y0139849D01*
X0280642Y0140084D02*
X0276548Y0140084D01*
X0276548Y0140319D02*
X0280642Y0140319D01*
X0280642Y0140554D02*
X0276548Y0140554D01*
X0276548Y0140789D02*
X0280642Y0140789D01*
X0280642Y0141024D02*
X0276548Y0141024D01*
X0276548Y0141259D02*
X0280642Y0141259D01*
X0280642Y0141494D02*
X0276548Y0141494D01*
X0276548Y0141729D02*
X0280642Y0141729D01*
X0280642Y0141964D02*
X0276548Y0141964D01*
X0271989Y0138285D02*
X0267895Y0138285D01*
X0267895Y0141985D01*
X0271989Y0141985D01*
X0271989Y0138285D01*
X0271989Y0138520D02*
X0267895Y0138520D01*
X0267895Y0138755D02*
X0271989Y0138755D01*
X0271989Y0138990D02*
X0267895Y0138990D01*
X0267895Y0139225D02*
X0271989Y0139225D01*
X0271989Y0139460D02*
X0267895Y0139460D01*
X0267895Y0139695D02*
X0271989Y0139695D01*
X0271989Y0139930D02*
X0267895Y0139930D01*
X0267895Y0140165D02*
X0271989Y0140165D01*
X0271989Y0140400D02*
X0267895Y0140400D01*
X0267895Y0140635D02*
X0271989Y0140635D01*
X0271989Y0140870D02*
X0267895Y0140870D01*
X0267895Y0141105D02*
X0271989Y0141105D01*
X0271989Y0141340D02*
X0267895Y0141340D01*
X0267895Y0141575D02*
X0271989Y0141575D01*
X0271989Y0141810D02*
X0267895Y0141810D01*
X0265296Y0138285D02*
X0261202Y0138285D01*
X0261202Y0141985D01*
X0265296Y0141985D01*
X0265296Y0138285D01*
X0265296Y0138520D02*
X0261202Y0138520D01*
X0261202Y0138755D02*
X0265296Y0138755D01*
X0265296Y0138990D02*
X0261202Y0138990D01*
X0261202Y0139225D02*
X0265296Y0139225D01*
X0265296Y0139460D02*
X0261202Y0139460D01*
X0261202Y0139695D02*
X0265296Y0139695D01*
X0265296Y0139930D02*
X0261202Y0139930D01*
X0261202Y0140165D02*
X0265296Y0140165D01*
X0265296Y0140400D02*
X0261202Y0140400D01*
X0261202Y0140635D02*
X0265296Y0140635D01*
X0265296Y0140870D02*
X0261202Y0140870D01*
X0261202Y0141105D02*
X0265296Y0141105D01*
X0265296Y0141340D02*
X0261202Y0141340D01*
X0261202Y0141575D02*
X0265296Y0141575D01*
X0265296Y0141810D02*
X0261202Y0141810D01*
X0283399Y0142182D02*
X0287099Y0142182D01*
X0287099Y0138088D01*
X0283399Y0138088D01*
X0283399Y0142182D01*
X0283399Y0138323D02*
X0287099Y0138323D01*
X0287099Y0138558D02*
X0283399Y0138558D01*
X0283399Y0138793D02*
X0287099Y0138793D01*
X0287099Y0139028D02*
X0283399Y0139028D01*
X0283399Y0139263D02*
X0287099Y0139263D01*
X0287099Y0139498D02*
X0283399Y0139498D01*
X0283399Y0139733D02*
X0287099Y0139733D01*
X0287099Y0139968D02*
X0283399Y0139968D01*
X0283399Y0140203D02*
X0287099Y0140203D01*
X0287099Y0140438D02*
X0283399Y0140438D01*
X0283399Y0140673D02*
X0287099Y0140673D01*
X0287099Y0140908D02*
X0283399Y0140908D01*
X0283399Y0141143D02*
X0287099Y0141143D01*
X0287099Y0141378D02*
X0283399Y0141378D01*
X0283399Y0141613D02*
X0287099Y0141613D01*
X0287099Y0141848D02*
X0283399Y0141848D01*
X0283399Y0142083D02*
X0287099Y0142083D01*
X0290092Y0142182D02*
X0293792Y0142182D01*
X0293792Y0138088D01*
X0290092Y0138088D01*
X0290092Y0142182D01*
X0290092Y0138323D02*
X0293792Y0138323D01*
X0293792Y0138558D02*
X0290092Y0138558D01*
X0290092Y0138793D02*
X0293792Y0138793D01*
X0293792Y0139028D02*
X0290092Y0139028D01*
X0290092Y0139263D02*
X0293792Y0139263D01*
X0293792Y0139498D02*
X0290092Y0139498D01*
X0290092Y0139733D02*
X0293792Y0139733D01*
X0293792Y0139968D02*
X0290092Y0139968D01*
X0290092Y0140203D02*
X0293792Y0140203D01*
X0293792Y0140438D02*
X0290092Y0140438D01*
X0290092Y0140673D02*
X0293792Y0140673D01*
X0293792Y0140908D02*
X0290092Y0140908D01*
X0290092Y0141143D02*
X0293792Y0141143D01*
X0293792Y0141378D02*
X0290092Y0141378D01*
X0290092Y0141613D02*
X0293792Y0141613D01*
X0293792Y0141848D02*
X0290092Y0141848D01*
X0290092Y0142083D02*
X0293792Y0142083D01*
X0297202Y0141985D02*
X0301296Y0141985D01*
X0301296Y0138285D01*
X0297202Y0138285D01*
X0297202Y0141985D01*
X0297202Y0138520D02*
X0301296Y0138520D01*
X0301296Y0138755D02*
X0297202Y0138755D01*
X0297202Y0138990D02*
X0301296Y0138990D01*
X0301296Y0139225D02*
X0297202Y0139225D01*
X0297202Y0139460D02*
X0301296Y0139460D01*
X0301296Y0139695D02*
X0297202Y0139695D01*
X0297202Y0139930D02*
X0301296Y0139930D01*
X0301296Y0140165D02*
X0297202Y0140165D01*
X0297202Y0140400D02*
X0301296Y0140400D01*
X0301296Y0140635D02*
X0297202Y0140635D01*
X0297202Y0140870D02*
X0301296Y0140870D01*
X0301296Y0141105D02*
X0297202Y0141105D01*
X0297202Y0141340D02*
X0301296Y0141340D01*
X0301296Y0141575D02*
X0297202Y0141575D01*
X0297202Y0141810D02*
X0301296Y0141810D01*
X0303895Y0141985D02*
X0307989Y0141985D01*
X0307989Y0138285D01*
X0303895Y0138285D01*
X0303895Y0141985D01*
X0303895Y0138520D02*
X0307989Y0138520D01*
X0307989Y0138755D02*
X0303895Y0138755D01*
X0303895Y0138990D02*
X0307989Y0138990D01*
X0307989Y0139225D02*
X0303895Y0139225D01*
X0303895Y0139460D02*
X0307989Y0139460D01*
X0307989Y0139695D02*
X0303895Y0139695D01*
X0303895Y0139930D02*
X0307989Y0139930D01*
X0307989Y0140165D02*
X0303895Y0140165D01*
X0303895Y0140400D02*
X0307989Y0140400D01*
X0307989Y0140635D02*
X0303895Y0140635D01*
X0303895Y0140870D02*
X0307989Y0140870D01*
X0307989Y0141105D02*
X0303895Y0141105D01*
X0303895Y0141340D02*
X0307989Y0141340D01*
X0307989Y0141575D02*
X0303895Y0141575D01*
X0303895Y0141810D02*
X0307989Y0141810D01*
X0312399Y0133182D02*
X0316099Y0133182D01*
X0316099Y0129088D01*
X0312399Y0129088D01*
X0312399Y0133182D01*
X0312399Y0129323D02*
X0316099Y0129323D01*
X0316099Y0129558D02*
X0312399Y0129558D01*
X0312399Y0129793D02*
X0316099Y0129793D01*
X0316099Y0130028D02*
X0312399Y0130028D01*
X0312399Y0130263D02*
X0316099Y0130263D01*
X0316099Y0130498D02*
X0312399Y0130498D01*
X0312399Y0130733D02*
X0316099Y0130733D01*
X0316099Y0130968D02*
X0312399Y0130968D01*
X0312399Y0131203D02*
X0316099Y0131203D01*
X0316099Y0131438D02*
X0312399Y0131438D01*
X0312399Y0131673D02*
X0316099Y0131673D01*
X0316099Y0131908D02*
X0312399Y0131908D01*
X0312399Y0132143D02*
X0316099Y0132143D01*
X0316099Y0132378D02*
X0312399Y0132378D01*
X0312399Y0132613D02*
X0316099Y0132613D01*
X0316099Y0132848D02*
X0312399Y0132848D01*
X0312399Y0133083D02*
X0316099Y0133083D01*
X0319092Y0133182D02*
X0322792Y0133182D01*
X0322792Y0129088D01*
X0319092Y0129088D01*
X0319092Y0133182D01*
X0319092Y0129323D02*
X0322792Y0129323D01*
X0322792Y0129558D02*
X0319092Y0129558D01*
X0319092Y0129793D02*
X0322792Y0129793D01*
X0322792Y0130028D02*
X0319092Y0130028D01*
X0319092Y0130263D02*
X0322792Y0130263D01*
X0322792Y0130498D02*
X0319092Y0130498D01*
X0319092Y0130733D02*
X0322792Y0130733D01*
X0322792Y0130968D02*
X0319092Y0130968D01*
X0319092Y0131203D02*
X0322792Y0131203D01*
X0322792Y0131438D02*
X0319092Y0131438D01*
X0319092Y0131673D02*
X0322792Y0131673D01*
X0322792Y0131908D02*
X0319092Y0131908D01*
X0319092Y0132143D02*
X0322792Y0132143D01*
X0322792Y0132378D02*
X0319092Y0132378D01*
X0319092Y0132613D02*
X0322792Y0132613D01*
X0322792Y0132848D02*
X0319092Y0132848D01*
X0319092Y0133083D02*
X0322792Y0133083D01*
X0299445Y0125529D02*
X0299445Y0121435D01*
X0295745Y0121435D01*
X0295745Y0125529D01*
X0299445Y0125529D01*
X0299445Y0121670D02*
X0295745Y0121670D01*
X0295745Y0121905D02*
X0299445Y0121905D01*
X0299445Y0122140D02*
X0295745Y0122140D01*
X0295745Y0122375D02*
X0299445Y0122375D01*
X0299445Y0122610D02*
X0295745Y0122610D01*
X0295745Y0122845D02*
X0299445Y0122845D01*
X0299445Y0123080D02*
X0295745Y0123080D01*
X0295745Y0123315D02*
X0299445Y0123315D01*
X0299445Y0123550D02*
X0295745Y0123550D01*
X0295745Y0123785D02*
X0299445Y0123785D01*
X0299445Y0124020D02*
X0295745Y0124020D01*
X0295745Y0124255D02*
X0299445Y0124255D01*
X0299445Y0124490D02*
X0295745Y0124490D01*
X0295745Y0124725D02*
X0299445Y0124725D01*
X0299445Y0124960D02*
X0295745Y0124960D01*
X0295745Y0125195D02*
X0299445Y0125195D01*
X0299445Y0125430D02*
X0295745Y0125430D01*
X0287745Y0125029D02*
X0287745Y0120935D01*
X0287745Y0125029D02*
X0291445Y0125029D01*
X0291445Y0120935D01*
X0287745Y0120935D01*
X0287745Y0121170D02*
X0291445Y0121170D01*
X0291445Y0121405D02*
X0287745Y0121405D01*
X0287745Y0121640D02*
X0291445Y0121640D01*
X0291445Y0121875D02*
X0287745Y0121875D01*
X0287745Y0122110D02*
X0291445Y0122110D01*
X0291445Y0122345D02*
X0287745Y0122345D01*
X0287745Y0122580D02*
X0291445Y0122580D01*
X0291445Y0122815D02*
X0287745Y0122815D01*
X0287745Y0123050D02*
X0291445Y0123050D01*
X0291445Y0123285D02*
X0287745Y0123285D01*
X0287745Y0123520D02*
X0291445Y0123520D01*
X0291445Y0123755D02*
X0287745Y0123755D01*
X0287745Y0123990D02*
X0291445Y0123990D01*
X0291445Y0124225D02*
X0287745Y0124225D01*
X0287745Y0124460D02*
X0291445Y0124460D01*
X0291445Y0124695D02*
X0287745Y0124695D01*
X0287745Y0124930D02*
X0291445Y0124930D01*
X0280548Y0125332D02*
X0280548Y0121632D01*
X0280548Y0125332D02*
X0284642Y0125332D01*
X0284642Y0121632D01*
X0280548Y0121632D01*
X0280548Y0121867D02*
X0284642Y0121867D01*
X0284642Y0122102D02*
X0280548Y0122102D01*
X0280548Y0122337D02*
X0284642Y0122337D01*
X0284642Y0122572D02*
X0280548Y0122572D01*
X0280548Y0122807D02*
X0284642Y0122807D01*
X0284642Y0123042D02*
X0280548Y0123042D01*
X0280548Y0123277D02*
X0284642Y0123277D01*
X0284642Y0123512D02*
X0280548Y0123512D01*
X0280548Y0123747D02*
X0284642Y0123747D01*
X0284642Y0123982D02*
X0280548Y0123982D01*
X0280548Y0124217D02*
X0284642Y0124217D01*
X0284642Y0124452D02*
X0280548Y0124452D01*
X0280548Y0124687D02*
X0284642Y0124687D01*
X0284642Y0124922D02*
X0280548Y0124922D01*
X0280548Y0125157D02*
X0284642Y0125157D01*
X0286099Y0128088D02*
X0282399Y0128088D01*
X0282399Y0132182D01*
X0286099Y0132182D01*
X0286099Y0128088D01*
X0286099Y0128323D02*
X0282399Y0128323D01*
X0282399Y0128558D02*
X0286099Y0128558D01*
X0286099Y0128793D02*
X0282399Y0128793D01*
X0282399Y0129028D02*
X0286099Y0129028D01*
X0286099Y0129263D02*
X0282399Y0129263D01*
X0282399Y0129498D02*
X0286099Y0129498D01*
X0286099Y0129733D02*
X0282399Y0129733D01*
X0282399Y0129968D02*
X0286099Y0129968D01*
X0286099Y0130203D02*
X0282399Y0130203D01*
X0282399Y0130438D02*
X0286099Y0130438D01*
X0286099Y0130673D02*
X0282399Y0130673D01*
X0282399Y0130908D02*
X0286099Y0130908D01*
X0286099Y0131143D02*
X0282399Y0131143D01*
X0282399Y0131378D02*
X0286099Y0131378D01*
X0286099Y0131613D02*
X0282399Y0131613D01*
X0282399Y0131848D02*
X0286099Y0131848D01*
X0286099Y0132083D02*
X0282399Y0132083D01*
X0289092Y0128088D02*
X0292792Y0128088D01*
X0289092Y0128088D02*
X0289092Y0132182D01*
X0292792Y0132182D01*
X0292792Y0128088D01*
X0292792Y0128323D02*
X0289092Y0128323D01*
X0289092Y0128558D02*
X0292792Y0128558D01*
X0292792Y0128793D02*
X0289092Y0128793D01*
X0289092Y0129028D02*
X0292792Y0129028D01*
X0292792Y0129263D02*
X0289092Y0129263D01*
X0289092Y0129498D02*
X0292792Y0129498D01*
X0292792Y0129733D02*
X0289092Y0129733D01*
X0289092Y0129968D02*
X0292792Y0129968D01*
X0292792Y0130203D02*
X0289092Y0130203D01*
X0289092Y0130438D02*
X0292792Y0130438D01*
X0292792Y0130673D02*
X0289092Y0130673D01*
X0289092Y0130908D02*
X0292792Y0130908D01*
X0292792Y0131143D02*
X0289092Y0131143D01*
X0289092Y0131378D02*
X0292792Y0131378D01*
X0292792Y0131613D02*
X0289092Y0131613D01*
X0289092Y0131848D02*
X0292792Y0131848D01*
X0292792Y0132083D02*
X0289092Y0132083D01*
X0269548Y0125332D02*
X0269548Y0121632D01*
X0269548Y0125332D02*
X0273642Y0125332D01*
X0273642Y0121632D01*
X0269548Y0121632D01*
X0269548Y0121867D02*
X0273642Y0121867D01*
X0273642Y0122102D02*
X0269548Y0122102D01*
X0269548Y0122337D02*
X0273642Y0122337D01*
X0273642Y0122572D02*
X0269548Y0122572D01*
X0269548Y0122807D02*
X0273642Y0122807D01*
X0273642Y0123042D02*
X0269548Y0123042D01*
X0269548Y0123277D02*
X0273642Y0123277D01*
X0273642Y0123512D02*
X0269548Y0123512D01*
X0269548Y0123747D02*
X0273642Y0123747D01*
X0273642Y0123982D02*
X0269548Y0123982D01*
X0269548Y0124217D02*
X0273642Y0124217D01*
X0273642Y0124452D02*
X0269548Y0124452D01*
X0269548Y0124687D02*
X0273642Y0124687D01*
X0273642Y0124922D02*
X0269548Y0124922D01*
X0269548Y0125157D02*
X0273642Y0125157D01*
X0269548Y0118639D02*
X0269548Y0114939D01*
X0269548Y0118639D02*
X0273642Y0118639D01*
X0273642Y0114939D01*
X0269548Y0114939D01*
X0269548Y0115174D02*
X0273642Y0115174D01*
X0273642Y0115409D02*
X0269548Y0115409D01*
X0269548Y0115644D02*
X0273642Y0115644D01*
X0273642Y0115879D02*
X0269548Y0115879D01*
X0269548Y0116114D02*
X0273642Y0116114D01*
X0273642Y0116349D02*
X0269548Y0116349D01*
X0269548Y0116584D02*
X0273642Y0116584D01*
X0273642Y0116819D02*
X0269548Y0116819D01*
X0269548Y0117054D02*
X0273642Y0117054D01*
X0273642Y0117289D02*
X0269548Y0117289D01*
X0269548Y0117524D02*
X0273642Y0117524D01*
X0273642Y0117759D02*
X0269548Y0117759D01*
X0269548Y0117994D02*
X0273642Y0117994D01*
X0273642Y0118229D02*
X0269548Y0118229D01*
X0269548Y0118464D02*
X0273642Y0118464D01*
X0280548Y0118639D02*
X0280548Y0114939D01*
X0280548Y0118639D02*
X0284642Y0118639D01*
X0284642Y0114939D01*
X0280548Y0114939D01*
X0280548Y0115174D02*
X0284642Y0115174D01*
X0284642Y0115409D02*
X0280548Y0115409D01*
X0280548Y0115644D02*
X0284642Y0115644D01*
X0284642Y0115879D02*
X0280548Y0115879D01*
X0280548Y0116114D02*
X0284642Y0116114D01*
X0284642Y0116349D02*
X0280548Y0116349D01*
X0280548Y0116584D02*
X0284642Y0116584D01*
X0284642Y0116819D02*
X0280548Y0116819D01*
X0280548Y0117054D02*
X0284642Y0117054D01*
X0284642Y0117289D02*
X0280548Y0117289D01*
X0280548Y0117524D02*
X0284642Y0117524D01*
X0284642Y0117759D02*
X0280548Y0117759D01*
X0280548Y0117994D02*
X0284642Y0117994D01*
X0284642Y0118229D02*
X0280548Y0118229D01*
X0280548Y0118464D02*
X0284642Y0118464D01*
X0287745Y0118336D02*
X0287745Y0114242D01*
X0287745Y0118336D02*
X0291445Y0118336D01*
X0291445Y0114242D01*
X0287745Y0114242D01*
X0287745Y0114477D02*
X0291445Y0114477D01*
X0291445Y0114712D02*
X0287745Y0114712D01*
X0287745Y0114947D02*
X0291445Y0114947D01*
X0291445Y0115182D02*
X0287745Y0115182D01*
X0287745Y0115417D02*
X0291445Y0115417D01*
X0291445Y0115652D02*
X0287745Y0115652D01*
X0287745Y0115887D02*
X0291445Y0115887D01*
X0291445Y0116122D02*
X0287745Y0116122D01*
X0287745Y0116357D02*
X0291445Y0116357D01*
X0291445Y0116592D02*
X0287745Y0116592D01*
X0287745Y0116827D02*
X0291445Y0116827D01*
X0291445Y0117062D02*
X0287745Y0117062D01*
X0287745Y0117297D02*
X0291445Y0117297D01*
X0291445Y0117532D02*
X0287745Y0117532D01*
X0287745Y0117767D02*
X0291445Y0117767D01*
X0291445Y0118002D02*
X0287745Y0118002D01*
X0287745Y0118237D02*
X0291445Y0118237D01*
X0299445Y0118836D02*
X0299445Y0114742D01*
X0295745Y0114742D01*
X0295745Y0118836D01*
X0299445Y0118836D01*
X0299445Y0114977D02*
X0295745Y0114977D01*
X0295745Y0115212D02*
X0299445Y0115212D01*
X0299445Y0115447D02*
X0295745Y0115447D01*
X0295745Y0115682D02*
X0299445Y0115682D01*
X0299445Y0115917D02*
X0295745Y0115917D01*
X0295745Y0116152D02*
X0299445Y0116152D01*
X0299445Y0116387D02*
X0295745Y0116387D01*
X0295745Y0116622D02*
X0299445Y0116622D01*
X0299445Y0116857D02*
X0295745Y0116857D01*
X0295745Y0117092D02*
X0299445Y0117092D01*
X0299445Y0117327D02*
X0295745Y0117327D01*
X0295745Y0117562D02*
X0299445Y0117562D01*
X0299445Y0117797D02*
X0295745Y0117797D01*
X0295745Y0118032D02*
X0299445Y0118032D01*
X0299445Y0118267D02*
X0295745Y0118267D01*
X0295745Y0118502D02*
X0299445Y0118502D01*
X0299445Y0118737D02*
X0295745Y0118737D01*
X0307399Y0108088D02*
X0311099Y0108088D01*
X0307399Y0108088D02*
X0307399Y0112182D01*
X0311099Y0112182D01*
X0311099Y0108088D01*
X0311099Y0108323D02*
X0307399Y0108323D01*
X0307399Y0108558D02*
X0311099Y0108558D01*
X0311099Y0108793D02*
X0307399Y0108793D01*
X0307399Y0109028D02*
X0311099Y0109028D01*
X0311099Y0109263D02*
X0307399Y0109263D01*
X0307399Y0109498D02*
X0311099Y0109498D01*
X0311099Y0109733D02*
X0307399Y0109733D01*
X0307399Y0109968D02*
X0311099Y0109968D01*
X0311099Y0110203D02*
X0307399Y0110203D01*
X0307399Y0110438D02*
X0311099Y0110438D01*
X0311099Y0110673D02*
X0307399Y0110673D01*
X0307399Y0110908D02*
X0311099Y0110908D01*
X0311099Y0111143D02*
X0307399Y0111143D01*
X0307399Y0111378D02*
X0311099Y0111378D01*
X0311099Y0111613D02*
X0307399Y0111613D01*
X0307399Y0111848D02*
X0311099Y0111848D01*
X0311099Y0112083D02*
X0307399Y0112083D01*
X0314092Y0108088D02*
X0317792Y0108088D01*
X0314092Y0108088D02*
X0314092Y0112182D01*
X0317792Y0112182D01*
X0317792Y0108088D01*
X0317792Y0108323D02*
X0314092Y0108323D01*
X0314092Y0108558D02*
X0317792Y0108558D01*
X0317792Y0108793D02*
X0314092Y0108793D01*
X0314092Y0109028D02*
X0317792Y0109028D01*
X0317792Y0109263D02*
X0314092Y0109263D01*
X0314092Y0109498D02*
X0317792Y0109498D01*
X0317792Y0109733D02*
X0314092Y0109733D01*
X0314092Y0109968D02*
X0317792Y0109968D01*
X0317792Y0110203D02*
X0314092Y0110203D01*
X0314092Y0110438D02*
X0317792Y0110438D01*
X0317792Y0110673D02*
X0314092Y0110673D01*
X0314092Y0110908D02*
X0317792Y0110908D01*
X0317792Y0111143D02*
X0314092Y0111143D01*
X0314092Y0111378D02*
X0317792Y0111378D01*
X0317792Y0111613D02*
X0314092Y0111613D01*
X0314092Y0111848D02*
X0317792Y0111848D01*
X0317792Y0112083D02*
X0314092Y0112083D01*
X0316202Y0092985D02*
X0320296Y0092985D01*
X0320296Y0089285D01*
X0316202Y0089285D01*
X0316202Y0092985D01*
X0316202Y0089520D02*
X0320296Y0089520D01*
X0320296Y0089755D02*
X0316202Y0089755D01*
X0316202Y0089990D02*
X0320296Y0089990D01*
X0320296Y0090225D02*
X0316202Y0090225D01*
X0316202Y0090460D02*
X0320296Y0090460D01*
X0320296Y0090695D02*
X0316202Y0090695D01*
X0316202Y0090930D02*
X0320296Y0090930D01*
X0320296Y0091165D02*
X0316202Y0091165D01*
X0316202Y0091400D02*
X0320296Y0091400D01*
X0320296Y0091635D02*
X0316202Y0091635D01*
X0316202Y0091870D02*
X0320296Y0091870D01*
X0320296Y0092105D02*
X0316202Y0092105D01*
X0316202Y0092340D02*
X0320296Y0092340D01*
X0320296Y0092575D02*
X0316202Y0092575D01*
X0316202Y0092810D02*
X0320296Y0092810D01*
X0322895Y0092985D02*
X0326989Y0092985D01*
X0326989Y0089285D01*
X0322895Y0089285D01*
X0322895Y0092985D01*
X0322895Y0089520D02*
X0326989Y0089520D01*
X0326989Y0089755D02*
X0322895Y0089755D01*
X0322895Y0089990D02*
X0326989Y0089990D01*
X0326989Y0090225D02*
X0322895Y0090225D01*
X0322895Y0090460D02*
X0326989Y0090460D01*
X0326989Y0090695D02*
X0322895Y0090695D01*
X0322895Y0090930D02*
X0326989Y0090930D01*
X0326989Y0091165D02*
X0322895Y0091165D01*
X0322895Y0091400D02*
X0326989Y0091400D01*
X0326989Y0091635D02*
X0322895Y0091635D01*
X0322895Y0091870D02*
X0326989Y0091870D01*
X0326989Y0092105D02*
X0322895Y0092105D01*
X0322895Y0092340D02*
X0326989Y0092340D01*
X0326989Y0092575D02*
X0322895Y0092575D01*
X0322895Y0092810D02*
X0326989Y0092810D01*
X0312989Y0091985D02*
X0308895Y0091985D01*
X0312989Y0091985D02*
X0312989Y0088285D01*
X0308895Y0088285D01*
X0308895Y0091985D01*
X0308895Y0088520D02*
X0312989Y0088520D01*
X0312989Y0088755D02*
X0308895Y0088755D01*
X0308895Y0088990D02*
X0312989Y0088990D01*
X0312989Y0089225D02*
X0308895Y0089225D01*
X0308895Y0089460D02*
X0312989Y0089460D01*
X0312989Y0089695D02*
X0308895Y0089695D01*
X0308895Y0089930D02*
X0312989Y0089930D01*
X0312989Y0090165D02*
X0308895Y0090165D01*
X0308895Y0090400D02*
X0312989Y0090400D01*
X0312989Y0090635D02*
X0308895Y0090635D01*
X0308895Y0090870D02*
X0312989Y0090870D01*
X0312989Y0091105D02*
X0308895Y0091105D01*
X0308895Y0091340D02*
X0312989Y0091340D01*
X0312989Y0091575D02*
X0308895Y0091575D01*
X0308895Y0091810D02*
X0312989Y0091810D01*
X0306296Y0091985D02*
X0302202Y0091985D01*
X0306296Y0091985D02*
X0306296Y0088285D01*
X0302202Y0088285D01*
X0302202Y0091985D01*
X0302202Y0088520D02*
X0306296Y0088520D01*
X0306296Y0088755D02*
X0302202Y0088755D01*
X0302202Y0088990D02*
X0306296Y0088990D01*
X0306296Y0089225D02*
X0302202Y0089225D01*
X0302202Y0089460D02*
X0306296Y0089460D01*
X0306296Y0089695D02*
X0302202Y0089695D01*
X0302202Y0089930D02*
X0306296Y0089930D01*
X0306296Y0090165D02*
X0302202Y0090165D01*
X0302202Y0090400D02*
X0306296Y0090400D01*
X0306296Y0090635D02*
X0302202Y0090635D01*
X0302202Y0090870D02*
X0306296Y0090870D01*
X0306296Y0091105D02*
X0302202Y0091105D01*
X0302202Y0091340D02*
X0306296Y0091340D01*
X0306296Y0091575D02*
X0302202Y0091575D01*
X0302202Y0091810D02*
X0306296Y0091810D01*
X0296989Y0088285D02*
X0292895Y0088285D01*
X0292895Y0091985D01*
X0296989Y0091985D01*
X0296989Y0088285D01*
X0296989Y0088520D02*
X0292895Y0088520D01*
X0292895Y0088755D02*
X0296989Y0088755D01*
X0296989Y0088990D02*
X0292895Y0088990D01*
X0292895Y0089225D02*
X0296989Y0089225D01*
X0296989Y0089460D02*
X0292895Y0089460D01*
X0292895Y0089695D02*
X0296989Y0089695D01*
X0296989Y0089930D02*
X0292895Y0089930D01*
X0292895Y0090165D02*
X0296989Y0090165D01*
X0296989Y0090400D02*
X0292895Y0090400D01*
X0292895Y0090635D02*
X0296989Y0090635D01*
X0296989Y0090870D02*
X0292895Y0090870D01*
X0292895Y0091105D02*
X0296989Y0091105D01*
X0296989Y0091340D02*
X0292895Y0091340D01*
X0292895Y0091575D02*
X0296989Y0091575D01*
X0296989Y0091810D02*
X0292895Y0091810D01*
X0290296Y0088285D02*
X0286202Y0088285D01*
X0286202Y0091985D01*
X0290296Y0091985D01*
X0290296Y0088285D01*
X0290296Y0088520D02*
X0286202Y0088520D01*
X0286202Y0088755D02*
X0290296Y0088755D01*
X0290296Y0088990D02*
X0286202Y0088990D01*
X0286202Y0089225D02*
X0290296Y0089225D01*
X0290296Y0089460D02*
X0286202Y0089460D01*
X0286202Y0089695D02*
X0290296Y0089695D01*
X0290296Y0089930D02*
X0286202Y0089930D01*
X0286202Y0090165D02*
X0290296Y0090165D01*
X0290296Y0090400D02*
X0286202Y0090400D01*
X0286202Y0090635D02*
X0290296Y0090635D01*
X0290296Y0090870D02*
X0286202Y0090870D01*
X0286202Y0091105D02*
X0290296Y0091105D01*
X0290296Y0091340D02*
X0286202Y0091340D01*
X0286202Y0091575D02*
X0290296Y0091575D01*
X0290296Y0091810D02*
X0286202Y0091810D01*
X0286399Y0081088D02*
X0290099Y0081088D01*
X0286399Y0081088D02*
X0286399Y0085182D01*
X0290099Y0085182D01*
X0290099Y0081088D01*
X0290099Y0081323D02*
X0286399Y0081323D01*
X0286399Y0081558D02*
X0290099Y0081558D01*
X0290099Y0081793D02*
X0286399Y0081793D01*
X0286399Y0082028D02*
X0290099Y0082028D01*
X0290099Y0082263D02*
X0286399Y0082263D01*
X0286399Y0082498D02*
X0290099Y0082498D01*
X0290099Y0082733D02*
X0286399Y0082733D01*
X0286399Y0082968D02*
X0290099Y0082968D01*
X0290099Y0083203D02*
X0286399Y0083203D01*
X0286399Y0083438D02*
X0290099Y0083438D01*
X0290099Y0083673D02*
X0286399Y0083673D01*
X0286399Y0083908D02*
X0290099Y0083908D01*
X0290099Y0084143D02*
X0286399Y0084143D01*
X0286399Y0084378D02*
X0290099Y0084378D01*
X0290099Y0084613D02*
X0286399Y0084613D01*
X0286399Y0084848D02*
X0290099Y0084848D01*
X0290099Y0085083D02*
X0286399Y0085083D01*
X0278245Y0084529D02*
X0278245Y0080435D01*
X0278245Y0084529D02*
X0281945Y0084529D01*
X0281945Y0080435D01*
X0278245Y0080435D01*
X0278245Y0080670D02*
X0281945Y0080670D01*
X0281945Y0080905D02*
X0278245Y0080905D01*
X0278245Y0081140D02*
X0281945Y0081140D01*
X0281945Y0081375D02*
X0278245Y0081375D01*
X0278245Y0081610D02*
X0281945Y0081610D01*
X0281945Y0081845D02*
X0278245Y0081845D01*
X0278245Y0082080D02*
X0281945Y0082080D01*
X0281945Y0082315D02*
X0278245Y0082315D01*
X0278245Y0082550D02*
X0281945Y0082550D01*
X0281945Y0082785D02*
X0278245Y0082785D01*
X0278245Y0083020D02*
X0281945Y0083020D01*
X0281945Y0083255D02*
X0278245Y0083255D01*
X0278245Y0083490D02*
X0281945Y0083490D01*
X0281945Y0083725D02*
X0278245Y0083725D01*
X0278245Y0083960D02*
X0281945Y0083960D01*
X0281945Y0084195D02*
X0278245Y0084195D01*
X0278245Y0084430D02*
X0281945Y0084430D01*
X0293092Y0081088D02*
X0296792Y0081088D01*
X0293092Y0081088D02*
X0293092Y0085182D01*
X0296792Y0085182D01*
X0296792Y0081088D01*
X0296792Y0081323D02*
X0293092Y0081323D01*
X0293092Y0081558D02*
X0296792Y0081558D01*
X0296792Y0081793D02*
X0293092Y0081793D01*
X0293092Y0082028D02*
X0296792Y0082028D01*
X0296792Y0082263D02*
X0293092Y0082263D01*
X0293092Y0082498D02*
X0296792Y0082498D01*
X0296792Y0082733D02*
X0293092Y0082733D01*
X0293092Y0082968D02*
X0296792Y0082968D01*
X0296792Y0083203D02*
X0293092Y0083203D01*
X0293092Y0083438D02*
X0296792Y0083438D01*
X0296792Y0083673D02*
X0293092Y0083673D01*
X0293092Y0083908D02*
X0296792Y0083908D01*
X0296792Y0084143D02*
X0293092Y0084143D01*
X0293092Y0084378D02*
X0296792Y0084378D01*
X0296792Y0084613D02*
X0293092Y0084613D01*
X0293092Y0084848D02*
X0296792Y0084848D01*
X0296792Y0085083D02*
X0293092Y0085083D01*
X0278245Y0077836D02*
X0278245Y0073742D01*
X0278245Y0077836D02*
X0281945Y0077836D01*
X0281945Y0073742D01*
X0278245Y0073742D01*
X0278245Y0073977D02*
X0281945Y0073977D01*
X0281945Y0074212D02*
X0278245Y0074212D01*
X0278245Y0074447D02*
X0281945Y0074447D01*
X0281945Y0074682D02*
X0278245Y0074682D01*
X0278245Y0074917D02*
X0281945Y0074917D01*
X0281945Y0075152D02*
X0278245Y0075152D01*
X0278245Y0075387D02*
X0281945Y0075387D01*
X0281945Y0075622D02*
X0278245Y0075622D01*
X0278245Y0075857D02*
X0281945Y0075857D01*
X0281945Y0076092D02*
X0278245Y0076092D01*
X0278245Y0076327D02*
X0281945Y0076327D01*
X0281945Y0076562D02*
X0278245Y0076562D01*
X0278245Y0076797D02*
X0281945Y0076797D01*
X0281945Y0077032D02*
X0278245Y0077032D01*
X0278245Y0077267D02*
X0281945Y0077267D01*
X0281945Y0077502D02*
X0278245Y0077502D01*
X0278245Y0077737D02*
X0281945Y0077737D01*
X0307399Y0062182D02*
X0311099Y0062182D01*
X0311099Y0058088D01*
X0307399Y0058088D01*
X0307399Y0062182D01*
X0307399Y0058323D02*
X0311099Y0058323D01*
X0311099Y0058558D02*
X0307399Y0058558D01*
X0307399Y0058793D02*
X0311099Y0058793D01*
X0311099Y0059028D02*
X0307399Y0059028D01*
X0307399Y0059263D02*
X0311099Y0059263D01*
X0311099Y0059498D02*
X0307399Y0059498D01*
X0307399Y0059733D02*
X0311099Y0059733D01*
X0311099Y0059968D02*
X0307399Y0059968D01*
X0307399Y0060203D02*
X0311099Y0060203D01*
X0311099Y0060438D02*
X0307399Y0060438D01*
X0307399Y0060673D02*
X0311099Y0060673D01*
X0311099Y0060908D02*
X0307399Y0060908D01*
X0307399Y0061143D02*
X0311099Y0061143D01*
X0311099Y0061378D02*
X0307399Y0061378D01*
X0307399Y0061613D02*
X0311099Y0061613D01*
X0311099Y0061848D02*
X0307399Y0061848D01*
X0307399Y0062083D02*
X0311099Y0062083D01*
X0314092Y0062182D02*
X0317792Y0062182D01*
X0317792Y0058088D01*
X0314092Y0058088D01*
X0314092Y0062182D01*
X0314092Y0058323D02*
X0317792Y0058323D01*
X0317792Y0058558D02*
X0314092Y0058558D01*
X0314092Y0058793D02*
X0317792Y0058793D01*
X0317792Y0059028D02*
X0314092Y0059028D01*
X0314092Y0059263D02*
X0317792Y0059263D01*
X0317792Y0059498D02*
X0314092Y0059498D01*
X0314092Y0059733D02*
X0317792Y0059733D01*
X0317792Y0059968D02*
X0314092Y0059968D01*
X0314092Y0060203D02*
X0317792Y0060203D01*
X0317792Y0060438D02*
X0314092Y0060438D01*
X0314092Y0060673D02*
X0317792Y0060673D01*
X0317792Y0060908D02*
X0314092Y0060908D01*
X0314092Y0061143D02*
X0317792Y0061143D01*
X0317792Y0061378D02*
X0314092Y0061378D01*
X0314092Y0061613D02*
X0317792Y0061613D01*
X0317792Y0061848D02*
X0314092Y0061848D01*
X0314092Y0062083D02*
X0317792Y0062083D01*
X0320745Y0060529D02*
X0320745Y0056435D01*
X0320745Y0060529D02*
X0324445Y0060529D01*
X0324445Y0056435D01*
X0320745Y0056435D01*
X0320745Y0056670D02*
X0324445Y0056670D01*
X0324445Y0056905D02*
X0320745Y0056905D01*
X0320745Y0057140D02*
X0324445Y0057140D01*
X0324445Y0057375D02*
X0320745Y0057375D01*
X0320745Y0057610D02*
X0324445Y0057610D01*
X0324445Y0057845D02*
X0320745Y0057845D01*
X0320745Y0058080D02*
X0324445Y0058080D01*
X0324445Y0058315D02*
X0320745Y0058315D01*
X0320745Y0058550D02*
X0324445Y0058550D01*
X0324445Y0058785D02*
X0320745Y0058785D01*
X0320745Y0059020D02*
X0324445Y0059020D01*
X0324445Y0059255D02*
X0320745Y0059255D01*
X0320745Y0059490D02*
X0324445Y0059490D01*
X0324445Y0059725D02*
X0320745Y0059725D01*
X0320745Y0059960D02*
X0324445Y0059960D01*
X0324445Y0060195D02*
X0320745Y0060195D01*
X0320745Y0060430D02*
X0324445Y0060430D01*
X0320745Y0053836D02*
X0320745Y0049742D01*
X0320745Y0053836D02*
X0324445Y0053836D01*
X0324445Y0049742D01*
X0320745Y0049742D01*
X0320745Y0049977D02*
X0324445Y0049977D01*
X0324445Y0050212D02*
X0320745Y0050212D01*
X0320745Y0050447D02*
X0324445Y0050447D01*
X0324445Y0050682D02*
X0320745Y0050682D01*
X0320745Y0050917D02*
X0324445Y0050917D01*
X0324445Y0051152D02*
X0320745Y0051152D01*
X0320745Y0051387D02*
X0324445Y0051387D01*
X0324445Y0051622D02*
X0320745Y0051622D01*
X0320745Y0051857D02*
X0324445Y0051857D01*
X0324445Y0052092D02*
X0320745Y0052092D01*
X0320745Y0052327D02*
X0324445Y0052327D01*
X0324445Y0052562D02*
X0320745Y0052562D01*
X0320745Y0052797D02*
X0324445Y0052797D01*
X0324445Y0053032D02*
X0320745Y0053032D01*
X0320745Y0053267D02*
X0324445Y0053267D01*
X0324445Y0053502D02*
X0320745Y0053502D01*
X0320745Y0053737D02*
X0324445Y0053737D01*
X0305989Y0051985D02*
X0301895Y0051985D01*
X0305989Y0051985D02*
X0305989Y0048285D01*
X0301895Y0048285D01*
X0301895Y0051985D01*
X0301895Y0048520D02*
X0305989Y0048520D01*
X0305989Y0048755D02*
X0301895Y0048755D01*
X0301895Y0048990D02*
X0305989Y0048990D01*
X0305989Y0049225D02*
X0301895Y0049225D01*
X0301895Y0049460D02*
X0305989Y0049460D01*
X0305989Y0049695D02*
X0301895Y0049695D01*
X0301895Y0049930D02*
X0305989Y0049930D01*
X0305989Y0050165D02*
X0301895Y0050165D01*
X0301895Y0050400D02*
X0305989Y0050400D01*
X0305989Y0050635D02*
X0301895Y0050635D01*
X0301895Y0050870D02*
X0305989Y0050870D01*
X0305989Y0051105D02*
X0301895Y0051105D01*
X0301895Y0051340D02*
X0305989Y0051340D01*
X0305989Y0051575D02*
X0301895Y0051575D01*
X0301895Y0051810D02*
X0305989Y0051810D01*
X0299296Y0051985D02*
X0295202Y0051985D01*
X0299296Y0051985D02*
X0299296Y0048285D01*
X0295202Y0048285D01*
X0295202Y0051985D01*
X0295202Y0048520D02*
X0299296Y0048520D01*
X0299296Y0048755D02*
X0295202Y0048755D01*
X0295202Y0048990D02*
X0299296Y0048990D01*
X0299296Y0049225D02*
X0295202Y0049225D01*
X0295202Y0049460D02*
X0299296Y0049460D01*
X0299296Y0049695D02*
X0295202Y0049695D01*
X0295202Y0049930D02*
X0299296Y0049930D01*
X0299296Y0050165D02*
X0295202Y0050165D01*
X0295202Y0050400D02*
X0299296Y0050400D01*
X0299296Y0050635D02*
X0295202Y0050635D01*
X0295202Y0050870D02*
X0299296Y0050870D01*
X0299296Y0051105D02*
X0295202Y0051105D01*
X0295202Y0051340D02*
X0299296Y0051340D01*
X0299296Y0051575D02*
X0295202Y0051575D01*
X0295202Y0051810D02*
X0299296Y0051810D01*
X0283945Y0050242D02*
X0283945Y0054336D01*
X0283945Y0050242D02*
X0280245Y0050242D01*
X0280245Y0054336D01*
X0283945Y0054336D01*
X0283945Y0050477D02*
X0280245Y0050477D01*
X0280245Y0050712D02*
X0283945Y0050712D01*
X0283945Y0050947D02*
X0280245Y0050947D01*
X0280245Y0051182D02*
X0283945Y0051182D01*
X0283945Y0051417D02*
X0280245Y0051417D01*
X0280245Y0051652D02*
X0283945Y0051652D01*
X0283945Y0051887D02*
X0280245Y0051887D01*
X0280245Y0052122D02*
X0283945Y0052122D01*
X0283945Y0052357D02*
X0280245Y0052357D01*
X0280245Y0052592D02*
X0283945Y0052592D01*
X0283945Y0052827D02*
X0280245Y0052827D01*
X0280245Y0053062D02*
X0283945Y0053062D01*
X0283945Y0053297D02*
X0280245Y0053297D01*
X0280245Y0053532D02*
X0283945Y0053532D01*
X0283945Y0053767D02*
X0280245Y0053767D01*
X0280245Y0054002D02*
X0283945Y0054002D01*
X0283945Y0054237D02*
X0280245Y0054237D01*
X0283945Y0056935D02*
X0283945Y0061029D01*
X0283945Y0056935D02*
X0280245Y0056935D01*
X0280245Y0061029D01*
X0283945Y0061029D01*
X0283945Y0057170D02*
X0280245Y0057170D01*
X0280245Y0057405D02*
X0283945Y0057405D01*
X0283945Y0057640D02*
X0280245Y0057640D01*
X0280245Y0057875D02*
X0283945Y0057875D01*
X0283945Y0058110D02*
X0280245Y0058110D01*
X0280245Y0058345D02*
X0283945Y0058345D01*
X0283945Y0058580D02*
X0280245Y0058580D01*
X0280245Y0058815D02*
X0283945Y0058815D01*
X0283945Y0059050D02*
X0280245Y0059050D01*
X0280245Y0059285D02*
X0283945Y0059285D01*
X0283945Y0059520D02*
X0280245Y0059520D01*
X0280245Y0059755D02*
X0283945Y0059755D01*
X0283945Y0059990D02*
X0280245Y0059990D01*
X0280245Y0060225D02*
X0283945Y0060225D01*
X0283945Y0060460D02*
X0280245Y0060460D01*
X0280245Y0060695D02*
X0283945Y0060695D01*
X0283945Y0060930D02*
X0280245Y0060930D01*
X0319745Y0073742D02*
X0319745Y0077836D01*
X0323445Y0077836D01*
X0323445Y0073742D01*
X0319745Y0073742D01*
X0319745Y0073977D02*
X0323445Y0073977D01*
X0323445Y0074212D02*
X0319745Y0074212D01*
X0319745Y0074447D02*
X0323445Y0074447D01*
X0323445Y0074682D02*
X0319745Y0074682D01*
X0319745Y0074917D02*
X0323445Y0074917D01*
X0323445Y0075152D02*
X0319745Y0075152D01*
X0319745Y0075387D02*
X0323445Y0075387D01*
X0323445Y0075622D02*
X0319745Y0075622D01*
X0319745Y0075857D02*
X0323445Y0075857D01*
X0323445Y0076092D02*
X0319745Y0076092D01*
X0319745Y0076327D02*
X0323445Y0076327D01*
X0323445Y0076562D02*
X0319745Y0076562D01*
X0319745Y0076797D02*
X0323445Y0076797D01*
X0323445Y0077032D02*
X0319745Y0077032D01*
X0319745Y0077267D02*
X0323445Y0077267D01*
X0323445Y0077502D02*
X0319745Y0077502D01*
X0319745Y0077737D02*
X0323445Y0077737D01*
X0319745Y0080435D02*
X0319745Y0084529D01*
X0323445Y0084529D01*
X0323445Y0080435D01*
X0319745Y0080435D01*
X0319745Y0080670D02*
X0323445Y0080670D01*
X0323445Y0080905D02*
X0319745Y0080905D01*
X0319745Y0081140D02*
X0323445Y0081140D01*
X0323445Y0081375D02*
X0319745Y0081375D01*
X0319745Y0081610D02*
X0323445Y0081610D01*
X0323445Y0081845D02*
X0319745Y0081845D01*
X0319745Y0082080D02*
X0323445Y0082080D01*
X0323445Y0082315D02*
X0319745Y0082315D01*
X0319745Y0082550D02*
X0323445Y0082550D01*
X0323445Y0082785D02*
X0319745Y0082785D01*
X0319745Y0083020D02*
X0323445Y0083020D01*
X0323445Y0083255D02*
X0319745Y0083255D01*
X0319745Y0083490D02*
X0323445Y0083490D01*
X0323445Y0083725D02*
X0319745Y0083725D01*
X0319745Y0083960D02*
X0323445Y0083960D01*
X0323445Y0084195D02*
X0319745Y0084195D01*
X0319745Y0084430D02*
X0323445Y0084430D01*
X0342399Y0078088D02*
X0346099Y0078088D01*
X0342399Y0078088D02*
X0342399Y0082182D01*
X0346099Y0082182D01*
X0346099Y0078088D01*
X0346099Y0078323D02*
X0342399Y0078323D01*
X0342399Y0078558D02*
X0346099Y0078558D01*
X0346099Y0078793D02*
X0342399Y0078793D01*
X0342399Y0079028D02*
X0346099Y0079028D01*
X0346099Y0079263D02*
X0342399Y0079263D01*
X0342399Y0079498D02*
X0346099Y0079498D01*
X0346099Y0079733D02*
X0342399Y0079733D01*
X0342399Y0079968D02*
X0346099Y0079968D01*
X0346099Y0080203D02*
X0342399Y0080203D01*
X0342399Y0080438D02*
X0346099Y0080438D01*
X0346099Y0080673D02*
X0342399Y0080673D01*
X0342399Y0080908D02*
X0346099Y0080908D01*
X0346099Y0081143D02*
X0342399Y0081143D01*
X0342399Y0081378D02*
X0346099Y0081378D01*
X0346099Y0081613D02*
X0342399Y0081613D01*
X0342399Y0081848D02*
X0346099Y0081848D01*
X0346099Y0082083D02*
X0342399Y0082083D01*
X0349092Y0078088D02*
X0352792Y0078088D01*
X0349092Y0078088D02*
X0349092Y0082182D01*
X0352792Y0082182D01*
X0352792Y0078088D01*
X0352792Y0078323D02*
X0349092Y0078323D01*
X0349092Y0078558D02*
X0352792Y0078558D01*
X0352792Y0078793D02*
X0349092Y0078793D01*
X0349092Y0079028D02*
X0352792Y0079028D01*
X0352792Y0079263D02*
X0349092Y0079263D01*
X0349092Y0079498D02*
X0352792Y0079498D01*
X0352792Y0079733D02*
X0349092Y0079733D01*
X0349092Y0079968D02*
X0352792Y0079968D01*
X0352792Y0080203D02*
X0349092Y0080203D01*
X0349092Y0080438D02*
X0352792Y0080438D01*
X0352792Y0080673D02*
X0349092Y0080673D01*
X0349092Y0080908D02*
X0352792Y0080908D01*
X0352792Y0081143D02*
X0349092Y0081143D01*
X0349092Y0081378D02*
X0352792Y0081378D01*
X0352792Y0081613D02*
X0349092Y0081613D01*
X0349092Y0081848D02*
X0352792Y0081848D01*
X0352792Y0082083D02*
X0349092Y0082083D01*
X0349092Y0088088D02*
X0352792Y0088088D01*
X0349092Y0088088D02*
X0349092Y0092182D01*
X0352792Y0092182D01*
X0352792Y0088088D01*
X0352792Y0088323D02*
X0349092Y0088323D01*
X0349092Y0088558D02*
X0352792Y0088558D01*
X0352792Y0088793D02*
X0349092Y0088793D01*
X0349092Y0089028D02*
X0352792Y0089028D01*
X0352792Y0089263D02*
X0349092Y0089263D01*
X0349092Y0089498D02*
X0352792Y0089498D01*
X0352792Y0089733D02*
X0349092Y0089733D01*
X0349092Y0089968D02*
X0352792Y0089968D01*
X0352792Y0090203D02*
X0349092Y0090203D01*
X0349092Y0090438D02*
X0352792Y0090438D01*
X0352792Y0090673D02*
X0349092Y0090673D01*
X0349092Y0090908D02*
X0352792Y0090908D01*
X0352792Y0091143D02*
X0349092Y0091143D01*
X0349092Y0091378D02*
X0352792Y0091378D01*
X0352792Y0091613D02*
X0349092Y0091613D01*
X0349092Y0091848D02*
X0352792Y0091848D01*
X0352792Y0092083D02*
X0349092Y0092083D01*
X0346099Y0088088D02*
X0342399Y0088088D01*
X0342399Y0092182D01*
X0346099Y0092182D01*
X0346099Y0088088D01*
X0346099Y0088323D02*
X0342399Y0088323D01*
X0342399Y0088558D02*
X0346099Y0088558D01*
X0346099Y0088793D02*
X0342399Y0088793D01*
X0342399Y0089028D02*
X0346099Y0089028D01*
X0346099Y0089263D02*
X0342399Y0089263D01*
X0342399Y0089498D02*
X0346099Y0089498D01*
X0346099Y0089733D02*
X0342399Y0089733D01*
X0342399Y0089968D02*
X0346099Y0089968D01*
X0346099Y0090203D02*
X0342399Y0090203D01*
X0342399Y0090438D02*
X0346099Y0090438D01*
X0346099Y0090673D02*
X0342399Y0090673D01*
X0342399Y0090908D02*
X0346099Y0090908D01*
X0346099Y0091143D02*
X0342399Y0091143D01*
X0342399Y0091378D02*
X0346099Y0091378D01*
X0346099Y0091613D02*
X0342399Y0091613D01*
X0342399Y0091848D02*
X0346099Y0091848D01*
X0346099Y0092083D02*
X0342399Y0092083D01*
X0367399Y0110182D02*
X0371099Y0110182D01*
X0371099Y0106088D01*
X0367399Y0106088D01*
X0367399Y0110182D01*
X0367399Y0106323D02*
X0371099Y0106323D01*
X0371099Y0106558D02*
X0367399Y0106558D01*
X0367399Y0106793D02*
X0371099Y0106793D01*
X0371099Y0107028D02*
X0367399Y0107028D01*
X0367399Y0107263D02*
X0371099Y0107263D01*
X0371099Y0107498D02*
X0367399Y0107498D01*
X0367399Y0107733D02*
X0371099Y0107733D01*
X0371099Y0107968D02*
X0367399Y0107968D01*
X0367399Y0108203D02*
X0371099Y0108203D01*
X0371099Y0108438D02*
X0367399Y0108438D01*
X0367399Y0108673D02*
X0371099Y0108673D01*
X0371099Y0108908D02*
X0367399Y0108908D01*
X0367399Y0109143D02*
X0371099Y0109143D01*
X0371099Y0109378D02*
X0367399Y0109378D01*
X0367399Y0109613D02*
X0371099Y0109613D01*
X0371099Y0109848D02*
X0367399Y0109848D01*
X0367399Y0110083D02*
X0371099Y0110083D01*
X0374092Y0110182D02*
X0377792Y0110182D01*
X0377792Y0106088D01*
X0374092Y0106088D01*
X0374092Y0110182D01*
X0374092Y0106323D02*
X0377792Y0106323D01*
X0377792Y0106558D02*
X0374092Y0106558D01*
X0374092Y0106793D02*
X0377792Y0106793D01*
X0377792Y0107028D02*
X0374092Y0107028D01*
X0374092Y0107263D02*
X0377792Y0107263D01*
X0377792Y0107498D02*
X0374092Y0107498D01*
X0374092Y0107733D02*
X0377792Y0107733D01*
X0377792Y0107968D02*
X0374092Y0107968D01*
X0374092Y0108203D02*
X0377792Y0108203D01*
X0377792Y0108438D02*
X0374092Y0108438D01*
X0374092Y0108673D02*
X0377792Y0108673D01*
X0377792Y0108908D02*
X0374092Y0108908D01*
X0374092Y0109143D02*
X0377792Y0109143D01*
X0377792Y0109378D02*
X0374092Y0109378D01*
X0374092Y0109613D02*
X0377792Y0109613D01*
X0377792Y0109848D02*
X0374092Y0109848D01*
X0374092Y0110083D02*
X0377792Y0110083D01*
X0377792Y0118182D02*
X0374092Y0118182D01*
X0377792Y0118182D02*
X0377792Y0114088D01*
X0374092Y0114088D01*
X0374092Y0118182D01*
X0374092Y0114323D02*
X0377792Y0114323D01*
X0377792Y0114558D02*
X0374092Y0114558D01*
X0374092Y0114793D02*
X0377792Y0114793D01*
X0377792Y0115028D02*
X0374092Y0115028D01*
X0374092Y0115263D02*
X0377792Y0115263D01*
X0377792Y0115498D02*
X0374092Y0115498D01*
X0374092Y0115733D02*
X0377792Y0115733D01*
X0377792Y0115968D02*
X0374092Y0115968D01*
X0374092Y0116203D02*
X0377792Y0116203D01*
X0377792Y0116438D02*
X0374092Y0116438D01*
X0374092Y0116673D02*
X0377792Y0116673D01*
X0377792Y0116908D02*
X0374092Y0116908D01*
X0374092Y0117143D02*
X0377792Y0117143D01*
X0377792Y0117378D02*
X0374092Y0117378D01*
X0374092Y0117613D02*
X0377792Y0117613D01*
X0377792Y0117848D02*
X0374092Y0117848D01*
X0374092Y0118083D02*
X0377792Y0118083D01*
X0371099Y0118182D02*
X0367399Y0118182D01*
X0371099Y0118182D02*
X0371099Y0114088D01*
X0367399Y0114088D01*
X0367399Y0118182D01*
X0367399Y0114323D02*
X0371099Y0114323D01*
X0371099Y0114558D02*
X0367399Y0114558D01*
X0367399Y0114793D02*
X0371099Y0114793D01*
X0371099Y0115028D02*
X0367399Y0115028D01*
X0367399Y0115263D02*
X0371099Y0115263D01*
X0371099Y0115498D02*
X0367399Y0115498D01*
X0367399Y0115733D02*
X0371099Y0115733D01*
X0371099Y0115968D02*
X0367399Y0115968D01*
X0367399Y0116203D02*
X0371099Y0116203D01*
X0371099Y0116438D02*
X0367399Y0116438D01*
X0367399Y0116673D02*
X0371099Y0116673D01*
X0371099Y0116908D02*
X0367399Y0116908D01*
X0367399Y0117143D02*
X0371099Y0117143D01*
X0371099Y0117378D02*
X0367399Y0117378D01*
X0367399Y0117613D02*
X0371099Y0117613D01*
X0371099Y0117848D02*
X0367399Y0117848D01*
X0367399Y0118083D02*
X0371099Y0118083D01*
X0374899Y0129682D02*
X0378599Y0129682D01*
X0378599Y0125588D01*
X0374899Y0125588D01*
X0374899Y0129682D01*
X0374899Y0125823D02*
X0378599Y0125823D01*
X0378599Y0126058D02*
X0374899Y0126058D01*
X0374899Y0126293D02*
X0378599Y0126293D01*
X0378599Y0126528D02*
X0374899Y0126528D01*
X0374899Y0126763D02*
X0378599Y0126763D01*
X0378599Y0126998D02*
X0374899Y0126998D01*
X0374899Y0127233D02*
X0378599Y0127233D01*
X0378599Y0127468D02*
X0374899Y0127468D01*
X0374899Y0127703D02*
X0378599Y0127703D01*
X0378599Y0127938D02*
X0374899Y0127938D01*
X0374899Y0128173D02*
X0378599Y0128173D01*
X0378599Y0128408D02*
X0374899Y0128408D01*
X0374899Y0128643D02*
X0378599Y0128643D01*
X0378599Y0128878D02*
X0374899Y0128878D01*
X0374899Y0129113D02*
X0378599Y0129113D01*
X0378599Y0129348D02*
X0374899Y0129348D01*
X0374899Y0129583D02*
X0378599Y0129583D01*
X0381592Y0129682D02*
X0385292Y0129682D01*
X0385292Y0125588D01*
X0381592Y0125588D01*
X0381592Y0129682D01*
X0381592Y0125823D02*
X0385292Y0125823D01*
X0385292Y0126058D02*
X0381592Y0126058D01*
X0381592Y0126293D02*
X0385292Y0126293D01*
X0385292Y0126528D02*
X0381592Y0126528D01*
X0381592Y0126763D02*
X0385292Y0126763D01*
X0385292Y0126998D02*
X0381592Y0126998D01*
X0381592Y0127233D02*
X0385292Y0127233D01*
X0385292Y0127468D02*
X0381592Y0127468D01*
X0381592Y0127703D02*
X0385292Y0127703D01*
X0385292Y0127938D02*
X0381592Y0127938D01*
X0381592Y0128173D02*
X0385292Y0128173D01*
X0385292Y0128408D02*
X0381592Y0128408D01*
X0381592Y0128643D02*
X0385292Y0128643D01*
X0385292Y0128878D02*
X0381592Y0128878D01*
X0381592Y0129113D02*
X0385292Y0129113D01*
X0385292Y0129348D02*
X0381592Y0129348D01*
X0381592Y0129583D02*
X0385292Y0129583D01*
X0380245Y0134242D02*
X0380245Y0138336D01*
X0383945Y0138336D01*
X0383945Y0134242D01*
X0380245Y0134242D01*
X0380245Y0134477D02*
X0383945Y0134477D01*
X0383945Y0134712D02*
X0380245Y0134712D01*
X0380245Y0134947D02*
X0383945Y0134947D01*
X0383945Y0135182D02*
X0380245Y0135182D01*
X0380245Y0135417D02*
X0383945Y0135417D01*
X0383945Y0135652D02*
X0380245Y0135652D01*
X0380245Y0135887D02*
X0383945Y0135887D01*
X0383945Y0136122D02*
X0380245Y0136122D01*
X0380245Y0136357D02*
X0383945Y0136357D01*
X0383945Y0136592D02*
X0380245Y0136592D01*
X0380245Y0136827D02*
X0383945Y0136827D01*
X0383945Y0137062D02*
X0380245Y0137062D01*
X0380245Y0137297D02*
X0383945Y0137297D01*
X0383945Y0137532D02*
X0380245Y0137532D01*
X0380245Y0137767D02*
X0383945Y0137767D01*
X0383945Y0138002D02*
X0380245Y0138002D01*
X0380245Y0138237D02*
X0383945Y0138237D01*
X0380245Y0140935D02*
X0380245Y0145029D01*
X0383945Y0145029D01*
X0383945Y0140935D01*
X0380245Y0140935D01*
X0380245Y0141170D02*
X0383945Y0141170D01*
X0383945Y0141405D02*
X0380245Y0141405D01*
X0380245Y0141640D02*
X0383945Y0141640D01*
X0383945Y0141875D02*
X0380245Y0141875D01*
X0380245Y0142110D02*
X0383945Y0142110D01*
X0383945Y0142345D02*
X0380245Y0142345D01*
X0380245Y0142580D02*
X0383945Y0142580D01*
X0383945Y0142815D02*
X0380245Y0142815D01*
X0380245Y0143050D02*
X0383945Y0143050D01*
X0383945Y0143285D02*
X0380245Y0143285D01*
X0380245Y0143520D02*
X0383945Y0143520D01*
X0383945Y0143755D02*
X0380245Y0143755D01*
X0380245Y0143990D02*
X0383945Y0143990D01*
X0383945Y0144225D02*
X0380245Y0144225D01*
X0380245Y0144460D02*
X0383945Y0144460D01*
X0383945Y0144695D02*
X0380245Y0144695D01*
X0380245Y0144930D02*
X0383945Y0144930D01*
X0388399Y0139182D02*
X0392099Y0139182D01*
X0392099Y0135088D01*
X0388399Y0135088D01*
X0388399Y0139182D01*
X0388399Y0135323D02*
X0392099Y0135323D01*
X0392099Y0135558D02*
X0388399Y0135558D01*
X0388399Y0135793D02*
X0392099Y0135793D01*
X0392099Y0136028D02*
X0388399Y0136028D01*
X0388399Y0136263D02*
X0392099Y0136263D01*
X0392099Y0136498D02*
X0388399Y0136498D01*
X0388399Y0136733D02*
X0392099Y0136733D01*
X0392099Y0136968D02*
X0388399Y0136968D01*
X0388399Y0137203D02*
X0392099Y0137203D01*
X0392099Y0137438D02*
X0388399Y0137438D01*
X0388399Y0137673D02*
X0392099Y0137673D01*
X0392099Y0137908D02*
X0388399Y0137908D01*
X0388399Y0138143D02*
X0392099Y0138143D01*
X0392099Y0138378D02*
X0388399Y0138378D01*
X0388399Y0138613D02*
X0392099Y0138613D01*
X0392099Y0138848D02*
X0388399Y0138848D01*
X0388399Y0139083D02*
X0392099Y0139083D01*
X0395092Y0139182D02*
X0398792Y0139182D01*
X0398792Y0135088D01*
X0395092Y0135088D01*
X0395092Y0139182D01*
X0395092Y0135323D02*
X0398792Y0135323D01*
X0398792Y0135558D02*
X0395092Y0135558D01*
X0395092Y0135793D02*
X0398792Y0135793D01*
X0398792Y0136028D02*
X0395092Y0136028D01*
X0395092Y0136263D02*
X0398792Y0136263D01*
X0398792Y0136498D02*
X0395092Y0136498D01*
X0395092Y0136733D02*
X0398792Y0136733D01*
X0398792Y0136968D02*
X0395092Y0136968D01*
X0395092Y0137203D02*
X0398792Y0137203D01*
X0398792Y0137438D02*
X0395092Y0137438D01*
X0395092Y0137673D02*
X0398792Y0137673D01*
X0398792Y0137908D02*
X0395092Y0137908D01*
X0395092Y0138143D02*
X0398792Y0138143D01*
X0398792Y0138378D02*
X0395092Y0138378D01*
X0395092Y0138613D02*
X0398792Y0138613D01*
X0398792Y0138848D02*
X0395092Y0138848D01*
X0395092Y0139083D02*
X0398792Y0139083D01*
X0383292Y0102182D02*
X0379592Y0102182D01*
X0383292Y0102182D02*
X0383292Y0098088D01*
X0379592Y0098088D01*
X0379592Y0102182D01*
X0379592Y0098323D02*
X0383292Y0098323D01*
X0383292Y0098558D02*
X0379592Y0098558D01*
X0379592Y0098793D02*
X0383292Y0098793D01*
X0383292Y0099028D02*
X0379592Y0099028D01*
X0379592Y0099263D02*
X0383292Y0099263D01*
X0383292Y0099498D02*
X0379592Y0099498D01*
X0379592Y0099733D02*
X0383292Y0099733D01*
X0383292Y0099968D02*
X0379592Y0099968D01*
X0379592Y0100203D02*
X0383292Y0100203D01*
X0383292Y0100438D02*
X0379592Y0100438D01*
X0379592Y0100673D02*
X0383292Y0100673D01*
X0383292Y0100908D02*
X0379592Y0100908D01*
X0379592Y0101143D02*
X0383292Y0101143D01*
X0383292Y0101378D02*
X0379592Y0101378D01*
X0379592Y0101613D02*
X0383292Y0101613D01*
X0383292Y0101848D02*
X0379592Y0101848D01*
X0379592Y0102083D02*
X0383292Y0102083D01*
X0376599Y0102182D02*
X0372899Y0102182D01*
X0376599Y0102182D02*
X0376599Y0098088D01*
X0372899Y0098088D01*
X0372899Y0102182D01*
X0372899Y0098323D02*
X0376599Y0098323D01*
X0376599Y0098558D02*
X0372899Y0098558D01*
X0372899Y0098793D02*
X0376599Y0098793D01*
X0376599Y0099028D02*
X0372899Y0099028D01*
X0372899Y0099263D02*
X0376599Y0099263D01*
X0376599Y0099498D02*
X0372899Y0099498D01*
X0372899Y0099733D02*
X0376599Y0099733D01*
X0376599Y0099968D02*
X0372899Y0099968D01*
X0372899Y0100203D02*
X0376599Y0100203D01*
X0376599Y0100438D02*
X0372899Y0100438D01*
X0372899Y0100673D02*
X0376599Y0100673D01*
X0376599Y0100908D02*
X0372899Y0100908D01*
X0372899Y0101143D02*
X0376599Y0101143D01*
X0376599Y0101378D02*
X0372899Y0101378D01*
X0372899Y0101613D02*
X0376599Y0101613D01*
X0376599Y0101848D02*
X0372899Y0101848D01*
X0372899Y0102083D02*
X0376599Y0102083D01*
X0379702Y0085985D02*
X0383796Y0085985D01*
X0383796Y0082285D01*
X0379702Y0082285D01*
X0379702Y0085985D01*
X0379702Y0082520D02*
X0383796Y0082520D01*
X0383796Y0082755D02*
X0379702Y0082755D01*
X0379702Y0082990D02*
X0383796Y0082990D01*
X0383796Y0083225D02*
X0379702Y0083225D01*
X0379702Y0083460D02*
X0383796Y0083460D01*
X0383796Y0083695D02*
X0379702Y0083695D01*
X0379702Y0083930D02*
X0383796Y0083930D01*
X0383796Y0084165D02*
X0379702Y0084165D01*
X0379702Y0084400D02*
X0383796Y0084400D01*
X0383796Y0084635D02*
X0379702Y0084635D01*
X0379702Y0084870D02*
X0383796Y0084870D01*
X0383796Y0085105D02*
X0379702Y0085105D01*
X0379702Y0085340D02*
X0383796Y0085340D01*
X0383796Y0085575D02*
X0379702Y0085575D01*
X0379702Y0085810D02*
X0383796Y0085810D01*
X0386395Y0085985D02*
X0390489Y0085985D01*
X0390489Y0082285D01*
X0386395Y0082285D01*
X0386395Y0085985D01*
X0386395Y0082520D02*
X0390489Y0082520D01*
X0390489Y0082755D02*
X0386395Y0082755D01*
X0386395Y0082990D02*
X0390489Y0082990D01*
X0390489Y0083225D02*
X0386395Y0083225D01*
X0386395Y0083460D02*
X0390489Y0083460D01*
X0390489Y0083695D02*
X0386395Y0083695D01*
X0386395Y0083930D02*
X0390489Y0083930D01*
X0390489Y0084165D02*
X0386395Y0084165D01*
X0386395Y0084400D02*
X0390489Y0084400D01*
X0390489Y0084635D02*
X0386395Y0084635D01*
X0386395Y0084870D02*
X0390489Y0084870D01*
X0390489Y0085105D02*
X0386395Y0085105D01*
X0386395Y0085340D02*
X0390489Y0085340D01*
X0390489Y0085575D02*
X0386395Y0085575D01*
X0386395Y0085810D02*
X0390489Y0085810D01*
X0400399Y0080588D02*
X0404099Y0080588D01*
X0400399Y0080588D02*
X0400399Y0084682D01*
X0404099Y0084682D01*
X0404099Y0080588D01*
X0404099Y0080823D02*
X0400399Y0080823D01*
X0400399Y0081058D02*
X0404099Y0081058D01*
X0404099Y0081293D02*
X0400399Y0081293D01*
X0400399Y0081528D02*
X0404099Y0081528D01*
X0404099Y0081763D02*
X0400399Y0081763D01*
X0400399Y0081998D02*
X0404099Y0081998D01*
X0404099Y0082233D02*
X0400399Y0082233D01*
X0400399Y0082468D02*
X0404099Y0082468D01*
X0404099Y0082703D02*
X0400399Y0082703D01*
X0400399Y0082938D02*
X0404099Y0082938D01*
X0404099Y0083173D02*
X0400399Y0083173D01*
X0400399Y0083408D02*
X0404099Y0083408D01*
X0404099Y0083643D02*
X0400399Y0083643D01*
X0400399Y0083878D02*
X0404099Y0083878D01*
X0404099Y0084113D02*
X0400399Y0084113D01*
X0400399Y0084348D02*
X0404099Y0084348D01*
X0404099Y0084583D02*
X0400399Y0084583D01*
X0407092Y0080588D02*
X0410792Y0080588D01*
X0407092Y0080588D02*
X0407092Y0084682D01*
X0410792Y0084682D01*
X0410792Y0080588D01*
X0410792Y0080823D02*
X0407092Y0080823D01*
X0407092Y0081058D02*
X0410792Y0081058D01*
X0410792Y0081293D02*
X0407092Y0081293D01*
X0407092Y0081528D02*
X0410792Y0081528D01*
X0410792Y0081763D02*
X0407092Y0081763D01*
X0407092Y0081998D02*
X0410792Y0081998D01*
X0410792Y0082233D02*
X0407092Y0082233D01*
X0407092Y0082468D02*
X0410792Y0082468D01*
X0410792Y0082703D02*
X0407092Y0082703D01*
X0407092Y0082938D02*
X0410792Y0082938D01*
X0410792Y0083173D02*
X0407092Y0083173D01*
X0407092Y0083408D02*
X0410792Y0083408D01*
X0410792Y0083643D02*
X0407092Y0083643D01*
X0407092Y0083878D02*
X0410792Y0083878D01*
X0410792Y0084113D02*
X0407092Y0084113D01*
X0407092Y0084348D02*
X0410792Y0084348D01*
X0410792Y0084583D02*
X0407092Y0084583D01*
X0393548Y0079332D02*
X0393548Y0075632D01*
X0393548Y0079332D02*
X0397642Y0079332D01*
X0397642Y0075632D01*
X0393548Y0075632D01*
X0393548Y0075867D02*
X0397642Y0075867D01*
X0397642Y0076102D02*
X0393548Y0076102D01*
X0393548Y0076337D02*
X0397642Y0076337D01*
X0397642Y0076572D02*
X0393548Y0076572D01*
X0393548Y0076807D02*
X0397642Y0076807D01*
X0397642Y0077042D02*
X0393548Y0077042D01*
X0393548Y0077277D02*
X0397642Y0077277D01*
X0397642Y0077512D02*
X0393548Y0077512D01*
X0393548Y0077747D02*
X0397642Y0077747D01*
X0397642Y0077982D02*
X0393548Y0077982D01*
X0393548Y0078217D02*
X0397642Y0078217D01*
X0397642Y0078452D02*
X0393548Y0078452D01*
X0393548Y0078687D02*
X0397642Y0078687D01*
X0397642Y0078922D02*
X0393548Y0078922D01*
X0393548Y0079157D02*
X0397642Y0079157D01*
X0393548Y0072639D02*
X0393548Y0068939D01*
X0393548Y0072639D02*
X0397642Y0072639D01*
X0397642Y0068939D01*
X0393548Y0068939D01*
X0393548Y0069174D02*
X0397642Y0069174D01*
X0397642Y0069409D02*
X0393548Y0069409D01*
X0393548Y0069644D02*
X0397642Y0069644D01*
X0397642Y0069879D02*
X0393548Y0069879D01*
X0393548Y0070114D02*
X0397642Y0070114D01*
X0397642Y0070349D02*
X0393548Y0070349D01*
X0393548Y0070584D02*
X0397642Y0070584D01*
X0397642Y0070819D02*
X0393548Y0070819D01*
X0393548Y0071054D02*
X0397642Y0071054D01*
X0397642Y0071289D02*
X0393548Y0071289D01*
X0393548Y0071524D02*
X0397642Y0071524D01*
X0397642Y0071759D02*
X0393548Y0071759D01*
X0393548Y0071994D02*
X0397642Y0071994D01*
X0397642Y0072229D02*
X0393548Y0072229D01*
X0393548Y0072464D02*
X0397642Y0072464D01*
X0397445Y0057529D02*
X0397445Y0053435D01*
X0393745Y0053435D01*
X0393745Y0057529D01*
X0397445Y0057529D01*
X0397445Y0053670D02*
X0393745Y0053670D01*
X0393745Y0053905D02*
X0397445Y0053905D01*
X0397445Y0054140D02*
X0393745Y0054140D01*
X0393745Y0054375D02*
X0397445Y0054375D01*
X0397445Y0054610D02*
X0393745Y0054610D01*
X0393745Y0054845D02*
X0397445Y0054845D01*
X0397445Y0055080D02*
X0393745Y0055080D01*
X0393745Y0055315D02*
X0397445Y0055315D01*
X0397445Y0055550D02*
X0393745Y0055550D01*
X0393745Y0055785D02*
X0397445Y0055785D01*
X0397445Y0056020D02*
X0393745Y0056020D01*
X0393745Y0056255D02*
X0397445Y0056255D01*
X0397445Y0056490D02*
X0393745Y0056490D01*
X0393745Y0056725D02*
X0397445Y0056725D01*
X0397445Y0056960D02*
X0393745Y0056960D01*
X0393745Y0057195D02*
X0397445Y0057195D01*
X0397445Y0057430D02*
X0393745Y0057430D01*
X0397445Y0050836D02*
X0397445Y0046742D01*
X0393745Y0046742D01*
X0393745Y0050836D01*
X0397445Y0050836D01*
X0397445Y0046977D02*
X0393745Y0046977D01*
X0393745Y0047212D02*
X0397445Y0047212D01*
X0397445Y0047447D02*
X0393745Y0047447D01*
X0393745Y0047682D02*
X0397445Y0047682D01*
X0397445Y0047917D02*
X0393745Y0047917D01*
X0393745Y0048152D02*
X0397445Y0048152D01*
X0397445Y0048387D02*
X0393745Y0048387D01*
X0393745Y0048622D02*
X0397445Y0048622D01*
X0397445Y0048857D02*
X0393745Y0048857D01*
X0393745Y0049092D02*
X0397445Y0049092D01*
X0397445Y0049327D02*
X0393745Y0049327D01*
X0393745Y0049562D02*
X0397445Y0049562D01*
X0397445Y0049797D02*
X0393745Y0049797D01*
X0393745Y0050032D02*
X0397445Y0050032D01*
X0397445Y0050267D02*
X0393745Y0050267D01*
X0393745Y0050502D02*
X0397445Y0050502D01*
X0397445Y0050737D02*
X0393745Y0050737D01*
X0375142Y0051332D02*
X0375142Y0047632D01*
X0371048Y0047632D01*
X0371048Y0051332D01*
X0375142Y0051332D01*
X0375142Y0047867D02*
X0371048Y0047867D01*
X0371048Y0048102D02*
X0375142Y0048102D01*
X0375142Y0048337D02*
X0371048Y0048337D01*
X0371048Y0048572D02*
X0375142Y0048572D01*
X0375142Y0048807D02*
X0371048Y0048807D01*
X0371048Y0049042D02*
X0375142Y0049042D01*
X0375142Y0049277D02*
X0371048Y0049277D01*
X0371048Y0049512D02*
X0375142Y0049512D01*
X0375142Y0049747D02*
X0371048Y0049747D01*
X0371048Y0049982D02*
X0375142Y0049982D01*
X0375142Y0050217D02*
X0371048Y0050217D01*
X0371048Y0050452D02*
X0375142Y0050452D01*
X0375142Y0050687D02*
X0371048Y0050687D01*
X0371048Y0050922D02*
X0375142Y0050922D01*
X0375142Y0051157D02*
X0371048Y0051157D01*
X0375142Y0044639D02*
X0375142Y0040939D01*
X0371048Y0040939D01*
X0371048Y0044639D01*
X0375142Y0044639D01*
X0375142Y0041174D02*
X0371048Y0041174D01*
X0371048Y0041409D02*
X0375142Y0041409D01*
X0375142Y0041644D02*
X0371048Y0041644D01*
X0371048Y0041879D02*
X0375142Y0041879D01*
X0375142Y0042114D02*
X0371048Y0042114D01*
X0371048Y0042349D02*
X0375142Y0042349D01*
X0375142Y0042584D02*
X0371048Y0042584D01*
X0371048Y0042819D02*
X0375142Y0042819D01*
X0375142Y0043054D02*
X0371048Y0043054D01*
X0371048Y0043289D02*
X0375142Y0043289D01*
X0375142Y0043524D02*
X0371048Y0043524D01*
X0371048Y0043759D02*
X0375142Y0043759D01*
X0375142Y0043994D02*
X0371048Y0043994D01*
X0371048Y0044229D02*
X0375142Y0044229D01*
X0375142Y0044464D02*
X0371048Y0044464D01*
X0264642Y0099939D02*
X0264642Y0103639D01*
X0264642Y0099939D02*
X0260548Y0099939D01*
X0260548Y0103639D01*
X0264642Y0103639D01*
X0264642Y0100174D02*
X0260548Y0100174D01*
X0260548Y0100409D02*
X0264642Y0100409D01*
X0264642Y0100644D02*
X0260548Y0100644D01*
X0260548Y0100879D02*
X0264642Y0100879D01*
X0264642Y0101114D02*
X0260548Y0101114D01*
X0260548Y0101349D02*
X0264642Y0101349D01*
X0264642Y0101584D02*
X0260548Y0101584D01*
X0260548Y0101819D02*
X0264642Y0101819D01*
X0264642Y0102054D02*
X0260548Y0102054D01*
X0260548Y0102289D02*
X0264642Y0102289D01*
X0264642Y0102524D02*
X0260548Y0102524D01*
X0260548Y0102759D02*
X0264642Y0102759D01*
X0264642Y0102994D02*
X0260548Y0102994D01*
X0260548Y0103229D02*
X0264642Y0103229D01*
X0264642Y0103464D02*
X0260548Y0103464D01*
X0264642Y0106632D02*
X0264642Y0110332D01*
X0264642Y0106632D02*
X0260548Y0106632D01*
X0260548Y0110332D01*
X0264642Y0110332D01*
X0264642Y0106867D02*
X0260548Y0106867D01*
X0260548Y0107102D02*
X0264642Y0107102D01*
X0264642Y0107337D02*
X0260548Y0107337D01*
X0260548Y0107572D02*
X0264642Y0107572D01*
X0264642Y0107807D02*
X0260548Y0107807D01*
X0260548Y0108042D02*
X0264642Y0108042D01*
X0264642Y0108277D02*
X0260548Y0108277D01*
X0260548Y0108512D02*
X0264642Y0108512D01*
X0264642Y0108747D02*
X0260548Y0108747D01*
X0260548Y0108982D02*
X0264642Y0108982D01*
X0264642Y0109217D02*
X0260548Y0109217D01*
X0260548Y0109452D02*
X0264642Y0109452D01*
X0264642Y0109687D02*
X0260548Y0109687D01*
X0260548Y0109922D02*
X0264642Y0109922D01*
X0264642Y0110157D02*
X0260548Y0110157D01*
X0178989Y0153785D02*
X0174895Y0153785D01*
X0174895Y0157485D01*
X0178989Y0157485D01*
X0178989Y0153785D01*
X0178989Y0154020D02*
X0174895Y0154020D01*
X0174895Y0154255D02*
X0178989Y0154255D01*
X0178989Y0154490D02*
X0174895Y0154490D01*
X0174895Y0154725D02*
X0178989Y0154725D01*
X0178989Y0154960D02*
X0174895Y0154960D01*
X0174895Y0155195D02*
X0178989Y0155195D01*
X0178989Y0155430D02*
X0174895Y0155430D01*
X0174895Y0155665D02*
X0178989Y0155665D01*
X0178989Y0155900D02*
X0174895Y0155900D01*
X0174895Y0156135D02*
X0178989Y0156135D01*
X0178989Y0156370D02*
X0174895Y0156370D01*
X0174895Y0156605D02*
X0178989Y0156605D01*
X0178989Y0156840D02*
X0174895Y0156840D01*
X0174895Y0157075D02*
X0178989Y0157075D01*
X0178989Y0157310D02*
X0174895Y0157310D01*
X0172296Y0153785D02*
X0168202Y0153785D01*
X0168202Y0157485D01*
X0172296Y0157485D01*
X0172296Y0153785D01*
X0172296Y0154020D02*
X0168202Y0154020D01*
X0168202Y0154255D02*
X0172296Y0154255D01*
X0172296Y0154490D02*
X0168202Y0154490D01*
X0168202Y0154725D02*
X0172296Y0154725D01*
X0172296Y0154960D02*
X0168202Y0154960D01*
X0168202Y0155195D02*
X0172296Y0155195D01*
X0172296Y0155430D02*
X0168202Y0155430D01*
X0168202Y0155665D02*
X0172296Y0155665D01*
X0172296Y0155900D02*
X0168202Y0155900D01*
X0168202Y0156135D02*
X0172296Y0156135D01*
X0172296Y0156370D02*
X0168202Y0156370D01*
X0168202Y0156605D02*
X0172296Y0156605D01*
X0172296Y0156840D02*
X0168202Y0156840D01*
X0168202Y0157075D02*
X0172296Y0157075D01*
X0172296Y0157310D02*
X0168202Y0157310D01*
X0081945Y0132529D02*
X0081945Y0128435D01*
X0078245Y0128435D01*
X0078245Y0132529D01*
X0081945Y0132529D01*
X0081945Y0128670D02*
X0078245Y0128670D01*
X0078245Y0128905D02*
X0081945Y0128905D01*
X0081945Y0129140D02*
X0078245Y0129140D01*
X0078245Y0129375D02*
X0081945Y0129375D01*
X0081945Y0129610D02*
X0078245Y0129610D01*
X0078245Y0129845D02*
X0081945Y0129845D01*
X0081945Y0130080D02*
X0078245Y0130080D01*
X0078245Y0130315D02*
X0081945Y0130315D01*
X0081945Y0130550D02*
X0078245Y0130550D01*
X0078245Y0130785D02*
X0081945Y0130785D01*
X0081945Y0131020D02*
X0078245Y0131020D01*
X0078245Y0131255D02*
X0081945Y0131255D01*
X0081945Y0131490D02*
X0078245Y0131490D01*
X0078245Y0131725D02*
X0081945Y0131725D01*
X0081945Y0131960D02*
X0078245Y0131960D01*
X0078245Y0132195D02*
X0081945Y0132195D01*
X0081945Y0132430D02*
X0078245Y0132430D01*
X0081945Y0125836D02*
X0081945Y0121742D01*
X0078245Y0121742D01*
X0078245Y0125836D01*
X0081945Y0125836D01*
X0081945Y0121977D02*
X0078245Y0121977D01*
X0078245Y0122212D02*
X0081945Y0122212D01*
X0081945Y0122447D02*
X0078245Y0122447D01*
X0078245Y0122682D02*
X0081945Y0122682D01*
X0081945Y0122917D02*
X0078245Y0122917D01*
X0078245Y0123152D02*
X0081945Y0123152D01*
X0081945Y0123387D02*
X0078245Y0123387D01*
X0078245Y0123622D02*
X0081945Y0123622D01*
X0081945Y0123857D02*
X0078245Y0123857D01*
X0078245Y0124092D02*
X0081945Y0124092D01*
X0081945Y0124327D02*
X0078245Y0124327D01*
X0078245Y0124562D02*
X0081945Y0124562D01*
X0081945Y0124797D02*
X0078245Y0124797D01*
X0078245Y0125032D02*
X0081945Y0125032D01*
X0081945Y0125267D02*
X0078245Y0125267D01*
X0078245Y0125502D02*
X0081945Y0125502D01*
X0081945Y0125737D02*
X0078245Y0125737D01*
X0075292Y0125682D02*
X0071592Y0125682D01*
X0075292Y0125682D02*
X0075292Y0121588D01*
X0071592Y0121588D01*
X0071592Y0125682D01*
X0071592Y0121823D02*
X0075292Y0121823D01*
X0075292Y0122058D02*
X0071592Y0122058D01*
X0071592Y0122293D02*
X0075292Y0122293D01*
X0075292Y0122528D02*
X0071592Y0122528D01*
X0071592Y0122763D02*
X0075292Y0122763D01*
X0075292Y0122998D02*
X0071592Y0122998D01*
X0071592Y0123233D02*
X0075292Y0123233D01*
X0075292Y0123468D02*
X0071592Y0123468D01*
X0071592Y0123703D02*
X0075292Y0123703D01*
X0075292Y0123938D02*
X0071592Y0123938D01*
X0071592Y0124173D02*
X0075292Y0124173D01*
X0075292Y0124408D02*
X0071592Y0124408D01*
X0071592Y0124643D02*
X0075292Y0124643D01*
X0075292Y0124878D02*
X0071592Y0124878D01*
X0071592Y0125113D02*
X0075292Y0125113D01*
X0075292Y0125348D02*
X0071592Y0125348D01*
X0071592Y0125583D02*
X0075292Y0125583D01*
X0068599Y0125682D02*
X0064899Y0125682D01*
X0068599Y0125682D02*
X0068599Y0121588D01*
X0064899Y0121588D01*
X0064899Y0125682D01*
X0064899Y0121823D02*
X0068599Y0121823D01*
X0068599Y0122058D02*
X0064899Y0122058D01*
X0064899Y0122293D02*
X0068599Y0122293D01*
X0068599Y0122528D02*
X0064899Y0122528D01*
X0064899Y0122763D02*
X0068599Y0122763D01*
X0068599Y0122998D02*
X0064899Y0122998D01*
X0064899Y0123233D02*
X0068599Y0123233D01*
X0068599Y0123468D02*
X0064899Y0123468D01*
X0064899Y0123703D02*
X0068599Y0123703D01*
X0068599Y0123938D02*
X0064899Y0123938D01*
X0064899Y0124173D02*
X0068599Y0124173D01*
X0068599Y0124408D02*
X0064899Y0124408D01*
X0064899Y0124643D02*
X0068599Y0124643D01*
X0068599Y0124878D02*
X0064899Y0124878D01*
X0064899Y0125113D02*
X0068599Y0125113D01*
X0068599Y0125348D02*
X0064899Y0125348D01*
X0064899Y0125583D02*
X0068599Y0125583D01*
X0061945Y0125836D02*
X0061945Y0121742D01*
X0058245Y0121742D01*
X0058245Y0125836D01*
X0061945Y0125836D01*
X0061945Y0121977D02*
X0058245Y0121977D01*
X0058245Y0122212D02*
X0061945Y0122212D01*
X0061945Y0122447D02*
X0058245Y0122447D01*
X0058245Y0122682D02*
X0061945Y0122682D01*
X0061945Y0122917D02*
X0058245Y0122917D01*
X0058245Y0123152D02*
X0061945Y0123152D01*
X0061945Y0123387D02*
X0058245Y0123387D01*
X0058245Y0123622D02*
X0061945Y0123622D01*
X0061945Y0123857D02*
X0058245Y0123857D01*
X0058245Y0124092D02*
X0061945Y0124092D01*
X0061945Y0124327D02*
X0058245Y0124327D01*
X0058245Y0124562D02*
X0061945Y0124562D01*
X0061945Y0124797D02*
X0058245Y0124797D01*
X0058245Y0125032D02*
X0061945Y0125032D01*
X0061945Y0125267D02*
X0058245Y0125267D01*
X0058245Y0125502D02*
X0061945Y0125502D01*
X0061945Y0125737D02*
X0058245Y0125737D01*
X0061945Y0128435D02*
X0061945Y0132529D01*
X0061945Y0128435D02*
X0058245Y0128435D01*
X0058245Y0132529D01*
X0061945Y0132529D01*
X0061945Y0128670D02*
X0058245Y0128670D01*
X0058245Y0128905D02*
X0061945Y0128905D01*
X0061945Y0129140D02*
X0058245Y0129140D01*
X0058245Y0129375D02*
X0061945Y0129375D01*
X0061945Y0129610D02*
X0058245Y0129610D01*
X0058245Y0129845D02*
X0061945Y0129845D01*
X0061945Y0130080D02*
X0058245Y0130080D01*
X0058245Y0130315D02*
X0061945Y0130315D01*
X0061945Y0130550D02*
X0058245Y0130550D01*
X0058245Y0130785D02*
X0061945Y0130785D01*
X0061945Y0131020D02*
X0058245Y0131020D01*
X0058245Y0131255D02*
X0061945Y0131255D01*
X0061945Y0131490D02*
X0058245Y0131490D01*
X0058245Y0131725D02*
X0061945Y0131725D01*
X0061945Y0131960D02*
X0058245Y0131960D01*
X0058245Y0132195D02*
X0061945Y0132195D01*
X0061945Y0132430D02*
X0058245Y0132430D01*
X0072399Y0113682D02*
X0076099Y0113682D01*
X0076099Y0109588D01*
X0072399Y0109588D01*
X0072399Y0113682D01*
X0072399Y0109823D02*
X0076099Y0109823D01*
X0076099Y0110058D02*
X0072399Y0110058D01*
X0072399Y0110293D02*
X0076099Y0110293D01*
X0076099Y0110528D02*
X0072399Y0110528D01*
X0072399Y0110763D02*
X0076099Y0110763D01*
X0076099Y0110998D02*
X0072399Y0110998D01*
X0072399Y0111233D02*
X0076099Y0111233D01*
X0076099Y0111468D02*
X0072399Y0111468D01*
X0072399Y0111703D02*
X0076099Y0111703D01*
X0076099Y0111938D02*
X0072399Y0111938D01*
X0072399Y0112173D02*
X0076099Y0112173D01*
X0076099Y0112408D02*
X0072399Y0112408D01*
X0072399Y0112643D02*
X0076099Y0112643D01*
X0076099Y0112878D02*
X0072399Y0112878D01*
X0072399Y0113113D02*
X0076099Y0113113D01*
X0076099Y0113348D02*
X0072399Y0113348D01*
X0072399Y0113583D02*
X0076099Y0113583D01*
X0079092Y0113682D02*
X0082792Y0113682D01*
X0082792Y0109588D01*
X0079092Y0109588D01*
X0079092Y0113682D01*
X0079092Y0109823D02*
X0082792Y0109823D01*
X0082792Y0110058D02*
X0079092Y0110058D01*
X0079092Y0110293D02*
X0082792Y0110293D01*
X0082792Y0110528D02*
X0079092Y0110528D01*
X0079092Y0110763D02*
X0082792Y0110763D01*
X0082792Y0110998D02*
X0079092Y0110998D01*
X0079092Y0111233D02*
X0082792Y0111233D01*
X0082792Y0111468D02*
X0079092Y0111468D01*
X0079092Y0111703D02*
X0082792Y0111703D01*
X0082792Y0111938D02*
X0079092Y0111938D01*
X0079092Y0112173D02*
X0082792Y0112173D01*
X0082792Y0112408D02*
X0079092Y0112408D01*
X0079092Y0112643D02*
X0082792Y0112643D01*
X0082792Y0112878D02*
X0079092Y0112878D01*
X0079092Y0113113D02*
X0082792Y0113113D01*
X0082792Y0113348D02*
X0079092Y0113348D01*
X0079092Y0113583D02*
X0082792Y0113583D01*
X0078245Y0074529D02*
X0078245Y0070435D01*
X0078245Y0074529D02*
X0081945Y0074529D01*
X0081945Y0070435D01*
X0078245Y0070435D01*
X0078245Y0070670D02*
X0081945Y0070670D01*
X0081945Y0070905D02*
X0078245Y0070905D01*
X0078245Y0071140D02*
X0081945Y0071140D01*
X0081945Y0071375D02*
X0078245Y0071375D01*
X0078245Y0071610D02*
X0081945Y0071610D01*
X0081945Y0071845D02*
X0078245Y0071845D01*
X0078245Y0072080D02*
X0081945Y0072080D01*
X0081945Y0072315D02*
X0078245Y0072315D01*
X0078245Y0072550D02*
X0081945Y0072550D01*
X0081945Y0072785D02*
X0078245Y0072785D01*
X0078245Y0073020D02*
X0081945Y0073020D01*
X0081945Y0073255D02*
X0078245Y0073255D01*
X0078245Y0073490D02*
X0081945Y0073490D01*
X0081945Y0073725D02*
X0078245Y0073725D01*
X0078245Y0073960D02*
X0081945Y0073960D01*
X0081945Y0074195D02*
X0078245Y0074195D01*
X0078245Y0074430D02*
X0081945Y0074430D01*
X0075292Y0074682D02*
X0071592Y0074682D01*
X0075292Y0074682D02*
X0075292Y0070588D01*
X0071592Y0070588D01*
X0071592Y0074682D01*
X0071592Y0070823D02*
X0075292Y0070823D01*
X0075292Y0071058D02*
X0071592Y0071058D01*
X0071592Y0071293D02*
X0075292Y0071293D01*
X0075292Y0071528D02*
X0071592Y0071528D01*
X0071592Y0071763D02*
X0075292Y0071763D01*
X0075292Y0071998D02*
X0071592Y0071998D01*
X0071592Y0072233D02*
X0075292Y0072233D01*
X0075292Y0072468D02*
X0071592Y0072468D01*
X0071592Y0072703D02*
X0075292Y0072703D01*
X0075292Y0072938D02*
X0071592Y0072938D01*
X0071592Y0073173D02*
X0075292Y0073173D01*
X0075292Y0073408D02*
X0071592Y0073408D01*
X0071592Y0073643D02*
X0075292Y0073643D01*
X0075292Y0073878D02*
X0071592Y0073878D01*
X0071592Y0074113D02*
X0075292Y0074113D01*
X0075292Y0074348D02*
X0071592Y0074348D01*
X0071592Y0074583D02*
X0075292Y0074583D01*
X0068599Y0074682D02*
X0064899Y0074682D01*
X0068599Y0074682D02*
X0068599Y0070588D01*
X0064899Y0070588D01*
X0064899Y0074682D01*
X0064899Y0070823D02*
X0068599Y0070823D01*
X0068599Y0071058D02*
X0064899Y0071058D01*
X0064899Y0071293D02*
X0068599Y0071293D01*
X0068599Y0071528D02*
X0064899Y0071528D01*
X0064899Y0071763D02*
X0068599Y0071763D01*
X0068599Y0071998D02*
X0064899Y0071998D01*
X0064899Y0072233D02*
X0068599Y0072233D01*
X0068599Y0072468D02*
X0064899Y0072468D01*
X0064899Y0072703D02*
X0068599Y0072703D01*
X0068599Y0072938D02*
X0064899Y0072938D01*
X0064899Y0073173D02*
X0068599Y0073173D01*
X0068599Y0073408D02*
X0064899Y0073408D01*
X0064899Y0073643D02*
X0068599Y0073643D01*
X0068599Y0073878D02*
X0064899Y0073878D01*
X0064899Y0074113D02*
X0068599Y0074113D01*
X0068599Y0074348D02*
X0064899Y0074348D01*
X0064899Y0074583D02*
X0068599Y0074583D01*
X0058245Y0074529D02*
X0058245Y0070435D01*
X0058245Y0074529D02*
X0061945Y0074529D01*
X0061945Y0070435D01*
X0058245Y0070435D01*
X0058245Y0070670D02*
X0061945Y0070670D01*
X0061945Y0070905D02*
X0058245Y0070905D01*
X0058245Y0071140D02*
X0061945Y0071140D01*
X0061945Y0071375D02*
X0058245Y0071375D01*
X0058245Y0071610D02*
X0061945Y0071610D01*
X0061945Y0071845D02*
X0058245Y0071845D01*
X0058245Y0072080D02*
X0061945Y0072080D01*
X0061945Y0072315D02*
X0058245Y0072315D01*
X0058245Y0072550D02*
X0061945Y0072550D01*
X0061945Y0072785D02*
X0058245Y0072785D01*
X0058245Y0073020D02*
X0061945Y0073020D01*
X0061945Y0073255D02*
X0058245Y0073255D01*
X0058245Y0073490D02*
X0061945Y0073490D01*
X0061945Y0073725D02*
X0058245Y0073725D01*
X0058245Y0073960D02*
X0061945Y0073960D01*
X0061945Y0074195D02*
X0058245Y0074195D01*
X0058245Y0074430D02*
X0061945Y0074430D01*
X0058245Y0067836D02*
X0058245Y0063742D01*
X0058245Y0067836D02*
X0061945Y0067836D01*
X0061945Y0063742D01*
X0058245Y0063742D01*
X0058245Y0063977D02*
X0061945Y0063977D01*
X0061945Y0064212D02*
X0058245Y0064212D01*
X0058245Y0064447D02*
X0061945Y0064447D01*
X0061945Y0064682D02*
X0058245Y0064682D01*
X0058245Y0064917D02*
X0061945Y0064917D01*
X0061945Y0065152D02*
X0058245Y0065152D01*
X0058245Y0065387D02*
X0061945Y0065387D01*
X0061945Y0065622D02*
X0058245Y0065622D01*
X0058245Y0065857D02*
X0061945Y0065857D01*
X0061945Y0066092D02*
X0058245Y0066092D01*
X0058245Y0066327D02*
X0061945Y0066327D01*
X0061945Y0066562D02*
X0058245Y0066562D01*
X0058245Y0066797D02*
X0061945Y0066797D01*
X0061945Y0067032D02*
X0058245Y0067032D01*
X0058245Y0067267D02*
X0061945Y0067267D01*
X0061945Y0067502D02*
X0058245Y0067502D01*
X0058245Y0067737D02*
X0061945Y0067737D01*
X0078245Y0067836D02*
X0078245Y0063742D01*
X0078245Y0067836D02*
X0081945Y0067836D01*
X0081945Y0063742D01*
X0078245Y0063742D01*
X0078245Y0063977D02*
X0081945Y0063977D01*
X0081945Y0064212D02*
X0078245Y0064212D01*
X0078245Y0064447D02*
X0081945Y0064447D01*
X0081945Y0064682D02*
X0078245Y0064682D01*
X0078245Y0064917D02*
X0081945Y0064917D01*
X0081945Y0065152D02*
X0078245Y0065152D01*
X0078245Y0065387D02*
X0081945Y0065387D01*
X0081945Y0065622D02*
X0078245Y0065622D01*
X0078245Y0065857D02*
X0081945Y0065857D01*
X0081945Y0066092D02*
X0078245Y0066092D01*
X0078245Y0066327D02*
X0081945Y0066327D01*
X0081945Y0066562D02*
X0078245Y0066562D01*
X0078245Y0066797D02*
X0081945Y0066797D01*
X0081945Y0067032D02*
X0078245Y0067032D01*
X0078245Y0067267D02*
X0081945Y0067267D01*
X0081945Y0067502D02*
X0078245Y0067502D01*
X0078245Y0067737D02*
X0081945Y0067737D01*
X0105048Y0045332D02*
X0105048Y0041632D01*
X0105048Y0045332D02*
X0109142Y0045332D01*
X0109142Y0041632D01*
X0105048Y0041632D01*
X0105048Y0041867D02*
X0109142Y0041867D01*
X0109142Y0042102D02*
X0105048Y0042102D01*
X0105048Y0042337D02*
X0109142Y0042337D01*
X0109142Y0042572D02*
X0105048Y0042572D01*
X0105048Y0042807D02*
X0109142Y0042807D01*
X0109142Y0043042D02*
X0105048Y0043042D01*
X0105048Y0043277D02*
X0109142Y0043277D01*
X0109142Y0043512D02*
X0105048Y0043512D01*
X0105048Y0043747D02*
X0109142Y0043747D01*
X0109142Y0043982D02*
X0105048Y0043982D01*
X0105048Y0044217D02*
X0109142Y0044217D01*
X0109142Y0044452D02*
X0105048Y0044452D01*
X0105048Y0044687D02*
X0109142Y0044687D01*
X0109142Y0044922D02*
X0105048Y0044922D01*
X0105048Y0045157D02*
X0109142Y0045157D01*
X0116048Y0045332D02*
X0116048Y0041632D01*
X0116048Y0045332D02*
X0120142Y0045332D01*
X0120142Y0041632D01*
X0116048Y0041632D01*
X0116048Y0041867D02*
X0120142Y0041867D01*
X0120142Y0042102D02*
X0116048Y0042102D01*
X0116048Y0042337D02*
X0120142Y0042337D01*
X0120142Y0042572D02*
X0116048Y0042572D01*
X0116048Y0042807D02*
X0120142Y0042807D01*
X0120142Y0043042D02*
X0116048Y0043042D01*
X0116048Y0043277D02*
X0120142Y0043277D01*
X0120142Y0043512D02*
X0116048Y0043512D01*
X0116048Y0043747D02*
X0120142Y0043747D01*
X0120142Y0043982D02*
X0116048Y0043982D01*
X0116048Y0044217D02*
X0120142Y0044217D01*
X0120142Y0044452D02*
X0116048Y0044452D01*
X0116048Y0044687D02*
X0120142Y0044687D01*
X0120142Y0044922D02*
X0116048Y0044922D01*
X0116048Y0045157D02*
X0120142Y0045157D01*
X0128048Y0045332D02*
X0128048Y0041632D01*
X0128048Y0045332D02*
X0132142Y0045332D01*
X0132142Y0041632D01*
X0128048Y0041632D01*
X0128048Y0041867D02*
X0132142Y0041867D01*
X0132142Y0042102D02*
X0128048Y0042102D01*
X0128048Y0042337D02*
X0132142Y0042337D01*
X0132142Y0042572D02*
X0128048Y0042572D01*
X0128048Y0042807D02*
X0132142Y0042807D01*
X0132142Y0043042D02*
X0128048Y0043042D01*
X0128048Y0043277D02*
X0132142Y0043277D01*
X0132142Y0043512D02*
X0128048Y0043512D01*
X0128048Y0043747D02*
X0132142Y0043747D01*
X0132142Y0043982D02*
X0128048Y0043982D01*
X0128048Y0044217D02*
X0132142Y0044217D01*
X0132142Y0044452D02*
X0128048Y0044452D01*
X0128048Y0044687D02*
X0132142Y0044687D01*
X0132142Y0044922D02*
X0128048Y0044922D01*
X0128048Y0045157D02*
X0132142Y0045157D01*
X0128048Y0038639D02*
X0128048Y0034939D01*
X0128048Y0038639D02*
X0132142Y0038639D01*
X0132142Y0034939D01*
X0128048Y0034939D01*
X0128048Y0035174D02*
X0132142Y0035174D01*
X0132142Y0035409D02*
X0128048Y0035409D01*
X0128048Y0035644D02*
X0132142Y0035644D01*
X0132142Y0035879D02*
X0128048Y0035879D01*
X0128048Y0036114D02*
X0132142Y0036114D01*
X0132142Y0036349D02*
X0128048Y0036349D01*
X0128048Y0036584D02*
X0132142Y0036584D01*
X0132142Y0036819D02*
X0128048Y0036819D01*
X0128048Y0037054D02*
X0132142Y0037054D01*
X0132142Y0037289D02*
X0128048Y0037289D01*
X0128048Y0037524D02*
X0132142Y0037524D01*
X0132142Y0037759D02*
X0128048Y0037759D01*
X0128048Y0037994D02*
X0132142Y0037994D01*
X0132142Y0038229D02*
X0128048Y0038229D01*
X0128048Y0038464D02*
X0132142Y0038464D01*
X0143899Y0032588D02*
X0147599Y0032588D01*
X0143899Y0032588D02*
X0143899Y0036682D01*
X0147599Y0036682D01*
X0147599Y0032588D01*
X0147599Y0032823D02*
X0143899Y0032823D01*
X0143899Y0033058D02*
X0147599Y0033058D01*
X0147599Y0033293D02*
X0143899Y0033293D01*
X0143899Y0033528D02*
X0147599Y0033528D01*
X0147599Y0033763D02*
X0143899Y0033763D01*
X0143899Y0033998D02*
X0147599Y0033998D01*
X0147599Y0034233D02*
X0143899Y0034233D01*
X0143899Y0034468D02*
X0147599Y0034468D01*
X0147599Y0034703D02*
X0143899Y0034703D01*
X0143899Y0034938D02*
X0147599Y0034938D01*
X0147599Y0035173D02*
X0143899Y0035173D01*
X0143899Y0035408D02*
X0147599Y0035408D01*
X0147599Y0035643D02*
X0143899Y0035643D01*
X0143899Y0035878D02*
X0147599Y0035878D01*
X0147599Y0036113D02*
X0143899Y0036113D01*
X0143899Y0036348D02*
X0147599Y0036348D01*
X0147599Y0036583D02*
X0143899Y0036583D01*
X0145899Y0040588D02*
X0149599Y0040588D01*
X0145899Y0040588D02*
X0145899Y0044682D01*
X0149599Y0044682D01*
X0149599Y0040588D01*
X0149599Y0040823D02*
X0145899Y0040823D01*
X0145899Y0041058D02*
X0149599Y0041058D01*
X0149599Y0041293D02*
X0145899Y0041293D01*
X0145899Y0041528D02*
X0149599Y0041528D01*
X0149599Y0041763D02*
X0145899Y0041763D01*
X0145899Y0041998D02*
X0149599Y0041998D01*
X0149599Y0042233D02*
X0145899Y0042233D01*
X0145899Y0042468D02*
X0149599Y0042468D01*
X0149599Y0042703D02*
X0145899Y0042703D01*
X0145899Y0042938D02*
X0149599Y0042938D01*
X0149599Y0043173D02*
X0145899Y0043173D01*
X0145899Y0043408D02*
X0149599Y0043408D01*
X0149599Y0043643D02*
X0145899Y0043643D01*
X0145899Y0043878D02*
X0149599Y0043878D01*
X0149599Y0044113D02*
X0145899Y0044113D01*
X0145899Y0044348D02*
X0149599Y0044348D01*
X0149599Y0044583D02*
X0145899Y0044583D01*
X0152592Y0040588D02*
X0156292Y0040588D01*
X0152592Y0040588D02*
X0152592Y0044682D01*
X0156292Y0044682D01*
X0156292Y0040588D01*
X0156292Y0040823D02*
X0152592Y0040823D01*
X0152592Y0041058D02*
X0156292Y0041058D01*
X0156292Y0041293D02*
X0152592Y0041293D01*
X0152592Y0041528D02*
X0156292Y0041528D01*
X0156292Y0041763D02*
X0152592Y0041763D01*
X0152592Y0041998D02*
X0156292Y0041998D01*
X0156292Y0042233D02*
X0152592Y0042233D01*
X0152592Y0042468D02*
X0156292Y0042468D01*
X0156292Y0042703D02*
X0152592Y0042703D01*
X0152592Y0042938D02*
X0156292Y0042938D01*
X0156292Y0043173D02*
X0152592Y0043173D01*
X0152592Y0043408D02*
X0156292Y0043408D01*
X0156292Y0043643D02*
X0152592Y0043643D01*
X0152592Y0043878D02*
X0156292Y0043878D01*
X0156292Y0044113D02*
X0152592Y0044113D01*
X0152592Y0044348D02*
X0156292Y0044348D01*
X0156292Y0044583D02*
X0152592Y0044583D01*
X0163142Y0044832D02*
X0163142Y0041132D01*
X0159048Y0041132D01*
X0159048Y0044832D01*
X0163142Y0044832D01*
X0163142Y0041367D02*
X0159048Y0041367D01*
X0159048Y0041602D02*
X0163142Y0041602D01*
X0163142Y0041837D02*
X0159048Y0041837D01*
X0159048Y0042072D02*
X0163142Y0042072D01*
X0163142Y0042307D02*
X0159048Y0042307D01*
X0159048Y0042542D02*
X0163142Y0042542D01*
X0163142Y0042777D02*
X0159048Y0042777D01*
X0159048Y0043012D02*
X0163142Y0043012D01*
X0163142Y0043247D02*
X0159048Y0043247D01*
X0159048Y0043482D02*
X0163142Y0043482D01*
X0163142Y0043717D02*
X0159048Y0043717D01*
X0159048Y0043952D02*
X0163142Y0043952D01*
X0163142Y0044187D02*
X0159048Y0044187D01*
X0159048Y0044422D02*
X0163142Y0044422D01*
X0163142Y0044657D02*
X0159048Y0044657D01*
X0163142Y0038139D02*
X0163142Y0034439D01*
X0159048Y0034439D01*
X0159048Y0038139D01*
X0163142Y0038139D01*
X0163142Y0034674D02*
X0159048Y0034674D01*
X0159048Y0034909D02*
X0163142Y0034909D01*
X0163142Y0035144D02*
X0159048Y0035144D01*
X0159048Y0035379D02*
X0163142Y0035379D01*
X0163142Y0035614D02*
X0159048Y0035614D01*
X0159048Y0035849D02*
X0163142Y0035849D01*
X0163142Y0036084D02*
X0159048Y0036084D01*
X0159048Y0036319D02*
X0163142Y0036319D01*
X0163142Y0036554D02*
X0159048Y0036554D01*
X0159048Y0036789D02*
X0163142Y0036789D01*
X0163142Y0037024D02*
X0159048Y0037024D01*
X0159048Y0037259D02*
X0163142Y0037259D01*
X0163142Y0037494D02*
X0159048Y0037494D01*
X0159048Y0037729D02*
X0163142Y0037729D01*
X0163142Y0037964D02*
X0159048Y0037964D01*
X0154292Y0032588D02*
X0150592Y0032588D01*
X0150592Y0036682D01*
X0154292Y0036682D01*
X0154292Y0032588D01*
X0154292Y0032823D02*
X0150592Y0032823D01*
X0150592Y0033058D02*
X0154292Y0033058D01*
X0154292Y0033293D02*
X0150592Y0033293D01*
X0150592Y0033528D02*
X0154292Y0033528D01*
X0154292Y0033763D02*
X0150592Y0033763D01*
X0150592Y0033998D02*
X0154292Y0033998D01*
X0154292Y0034233D02*
X0150592Y0034233D01*
X0150592Y0034468D02*
X0154292Y0034468D01*
X0154292Y0034703D02*
X0150592Y0034703D01*
X0150592Y0034938D02*
X0154292Y0034938D01*
X0154292Y0035173D02*
X0150592Y0035173D01*
X0150592Y0035408D02*
X0154292Y0035408D01*
X0154292Y0035643D02*
X0150592Y0035643D01*
X0150592Y0035878D02*
X0154292Y0035878D01*
X0154292Y0036113D02*
X0150592Y0036113D01*
X0150592Y0036348D02*
X0154292Y0036348D01*
X0154292Y0036583D02*
X0150592Y0036583D01*
X0182445Y0024029D02*
X0182445Y0019935D01*
X0178745Y0019935D01*
X0178745Y0024029D01*
X0182445Y0024029D01*
X0182445Y0020170D02*
X0178745Y0020170D01*
X0178745Y0020405D02*
X0182445Y0020405D01*
X0182445Y0020640D02*
X0178745Y0020640D01*
X0178745Y0020875D02*
X0182445Y0020875D01*
X0182445Y0021110D02*
X0178745Y0021110D01*
X0178745Y0021345D02*
X0182445Y0021345D01*
X0182445Y0021580D02*
X0178745Y0021580D01*
X0178745Y0021815D02*
X0182445Y0021815D01*
X0182445Y0022050D02*
X0178745Y0022050D01*
X0178745Y0022285D02*
X0182445Y0022285D01*
X0182445Y0022520D02*
X0178745Y0022520D01*
X0178745Y0022755D02*
X0182445Y0022755D01*
X0182445Y0022990D02*
X0178745Y0022990D01*
X0178745Y0023225D02*
X0182445Y0023225D01*
X0182445Y0023460D02*
X0178745Y0023460D01*
X0178745Y0023695D02*
X0182445Y0023695D01*
X0182445Y0023930D02*
X0178745Y0023930D01*
X0182445Y0017336D02*
X0182445Y0013242D01*
X0178745Y0013242D01*
X0178745Y0017336D01*
X0182445Y0017336D01*
X0182445Y0013477D02*
X0178745Y0013477D01*
X0178745Y0013712D02*
X0182445Y0013712D01*
X0182445Y0013947D02*
X0178745Y0013947D01*
X0178745Y0014182D02*
X0182445Y0014182D01*
X0182445Y0014417D02*
X0178745Y0014417D01*
X0178745Y0014652D02*
X0182445Y0014652D01*
X0182445Y0014887D02*
X0178745Y0014887D01*
X0178745Y0015122D02*
X0182445Y0015122D01*
X0182445Y0015357D02*
X0178745Y0015357D01*
X0178745Y0015592D02*
X0182445Y0015592D01*
X0182445Y0015827D02*
X0178745Y0015827D01*
X0178745Y0016062D02*
X0182445Y0016062D01*
X0182445Y0016297D02*
X0178745Y0016297D01*
X0178745Y0016532D02*
X0182445Y0016532D01*
X0182445Y0016767D02*
X0178745Y0016767D01*
X0178745Y0017002D02*
X0182445Y0017002D01*
X0182445Y0017237D02*
X0178745Y0017237D01*
X0185399Y0017340D02*
X0189099Y0017340D01*
X0189099Y0013246D01*
X0185399Y0013246D01*
X0185399Y0017340D01*
X0185399Y0013481D02*
X0189099Y0013481D01*
X0189099Y0013716D02*
X0185399Y0013716D01*
X0185399Y0013951D02*
X0189099Y0013951D01*
X0189099Y0014186D02*
X0185399Y0014186D01*
X0185399Y0014421D02*
X0189099Y0014421D01*
X0189099Y0014656D02*
X0185399Y0014656D01*
X0185399Y0014891D02*
X0189099Y0014891D01*
X0189099Y0015126D02*
X0185399Y0015126D01*
X0185399Y0015361D02*
X0189099Y0015361D01*
X0189099Y0015596D02*
X0185399Y0015596D01*
X0185399Y0015831D02*
X0189099Y0015831D01*
X0189099Y0016066D02*
X0185399Y0016066D01*
X0185399Y0016301D02*
X0189099Y0016301D01*
X0189099Y0016536D02*
X0185399Y0016536D01*
X0185399Y0016771D02*
X0189099Y0016771D01*
X0189099Y0017006D02*
X0185399Y0017006D01*
X0185399Y0017241D02*
X0189099Y0017241D01*
X0192092Y0017340D02*
X0195792Y0017340D01*
X0195792Y0013246D01*
X0192092Y0013246D01*
X0192092Y0017340D01*
X0192092Y0013481D02*
X0195792Y0013481D01*
X0195792Y0013716D02*
X0192092Y0013716D01*
X0192092Y0013951D02*
X0195792Y0013951D01*
X0195792Y0014186D02*
X0192092Y0014186D01*
X0192092Y0014421D02*
X0195792Y0014421D01*
X0195792Y0014656D02*
X0192092Y0014656D01*
X0192092Y0014891D02*
X0195792Y0014891D01*
X0195792Y0015126D02*
X0192092Y0015126D01*
X0192092Y0015361D02*
X0195792Y0015361D01*
X0195792Y0015596D02*
X0192092Y0015596D01*
X0192092Y0015831D02*
X0195792Y0015831D01*
X0195792Y0016066D02*
X0192092Y0016066D01*
X0192092Y0016301D02*
X0195792Y0016301D01*
X0195792Y0016536D02*
X0192092Y0016536D01*
X0192092Y0016771D02*
X0195792Y0016771D01*
X0195792Y0017006D02*
X0192092Y0017006D01*
X0192092Y0017241D02*
X0195792Y0017241D01*
X0202445Y0017336D02*
X0202445Y0013242D01*
X0198745Y0013242D01*
X0198745Y0017336D01*
X0202445Y0017336D01*
X0202445Y0013477D02*
X0198745Y0013477D01*
X0198745Y0013712D02*
X0202445Y0013712D01*
X0202445Y0013947D02*
X0198745Y0013947D01*
X0198745Y0014182D02*
X0202445Y0014182D01*
X0202445Y0014417D02*
X0198745Y0014417D01*
X0198745Y0014652D02*
X0202445Y0014652D01*
X0202445Y0014887D02*
X0198745Y0014887D01*
X0198745Y0015122D02*
X0202445Y0015122D01*
X0202445Y0015357D02*
X0198745Y0015357D01*
X0198745Y0015592D02*
X0202445Y0015592D01*
X0202445Y0015827D02*
X0198745Y0015827D01*
X0198745Y0016062D02*
X0202445Y0016062D01*
X0202445Y0016297D02*
X0198745Y0016297D01*
X0198745Y0016532D02*
X0202445Y0016532D01*
X0202445Y0016767D02*
X0198745Y0016767D01*
X0198745Y0017002D02*
X0202445Y0017002D01*
X0202445Y0017237D02*
X0198745Y0017237D01*
X0202445Y0019935D02*
X0202445Y0024029D01*
X0202445Y0019935D02*
X0198745Y0019935D01*
X0198745Y0024029D01*
X0202445Y0024029D01*
X0202445Y0020170D02*
X0198745Y0020170D01*
X0198745Y0020405D02*
X0202445Y0020405D01*
X0202445Y0020640D02*
X0198745Y0020640D01*
X0198745Y0020875D02*
X0202445Y0020875D01*
X0202445Y0021110D02*
X0198745Y0021110D01*
X0198745Y0021345D02*
X0202445Y0021345D01*
X0202445Y0021580D02*
X0198745Y0021580D01*
X0198745Y0021815D02*
X0202445Y0021815D01*
X0202445Y0022050D02*
X0198745Y0022050D01*
X0198745Y0022285D02*
X0202445Y0022285D01*
X0202445Y0022520D02*
X0198745Y0022520D01*
X0198745Y0022755D02*
X0202445Y0022755D01*
X0202445Y0022990D02*
X0198745Y0022990D01*
X0198745Y0023225D02*
X0202445Y0023225D01*
X0202445Y0023460D02*
X0198745Y0023460D01*
X0198745Y0023695D02*
X0202445Y0023695D01*
X0202445Y0023930D02*
X0198745Y0023930D01*
X0206564Y0024797D02*
X0206564Y0029285D01*
X0212626Y0029285D01*
X0212626Y0024797D01*
X0206564Y0024797D01*
X0206564Y0025032D02*
X0212626Y0025032D01*
X0212626Y0025267D02*
X0206564Y0025267D01*
X0206564Y0025502D02*
X0212626Y0025502D01*
X0212626Y0025737D02*
X0206564Y0025737D01*
X0206564Y0025972D02*
X0212626Y0025972D01*
X0212626Y0026207D02*
X0206564Y0026207D01*
X0206564Y0026442D02*
X0212626Y0026442D01*
X0212626Y0026677D02*
X0206564Y0026677D01*
X0206564Y0026912D02*
X0212626Y0026912D01*
X0212626Y0027147D02*
X0206564Y0027147D01*
X0206564Y0027382D02*
X0212626Y0027382D01*
X0212626Y0027617D02*
X0206564Y0027617D01*
X0206564Y0027852D02*
X0212626Y0027852D01*
X0212626Y0028087D02*
X0206564Y0028087D01*
X0206564Y0028322D02*
X0212626Y0028322D01*
X0212626Y0028557D02*
X0206564Y0028557D01*
X0206564Y0028792D02*
X0212626Y0028792D01*
X0212626Y0029027D02*
X0206564Y0029027D01*
X0206564Y0029262D02*
X0212626Y0029262D01*
X0206564Y0017474D02*
X0206564Y0012986D01*
X0206564Y0017474D02*
X0212626Y0017474D01*
X0212626Y0012986D01*
X0206564Y0012986D01*
X0206564Y0013221D02*
X0212626Y0013221D01*
X0212626Y0013456D02*
X0206564Y0013456D01*
X0206564Y0013691D02*
X0212626Y0013691D01*
X0212626Y0013926D02*
X0206564Y0013926D01*
X0206564Y0014161D02*
X0212626Y0014161D01*
X0212626Y0014396D02*
X0206564Y0014396D01*
X0206564Y0014631D02*
X0212626Y0014631D01*
X0212626Y0014866D02*
X0206564Y0014866D01*
X0206564Y0015101D02*
X0212626Y0015101D01*
X0212626Y0015336D02*
X0206564Y0015336D01*
X0206564Y0015571D02*
X0212626Y0015571D01*
X0212626Y0015806D02*
X0206564Y0015806D01*
X0206564Y0016041D02*
X0212626Y0016041D01*
X0212626Y0016276D02*
X0206564Y0016276D01*
X0206564Y0016511D02*
X0212626Y0016511D01*
X0212626Y0016746D02*
X0206564Y0016746D01*
X0206564Y0016981D02*
X0212626Y0016981D01*
X0212626Y0017216D02*
X0206564Y0017216D01*
X0206564Y0017451D02*
X0212626Y0017451D01*
X0116048Y0034939D02*
X0116048Y0038639D01*
X0120142Y0038639D01*
X0120142Y0034939D01*
X0116048Y0034939D01*
X0116048Y0035174D02*
X0120142Y0035174D01*
X0120142Y0035409D02*
X0116048Y0035409D01*
X0116048Y0035644D02*
X0120142Y0035644D01*
X0120142Y0035879D02*
X0116048Y0035879D01*
X0116048Y0036114D02*
X0120142Y0036114D01*
X0120142Y0036349D02*
X0116048Y0036349D01*
X0116048Y0036584D02*
X0120142Y0036584D01*
X0120142Y0036819D02*
X0116048Y0036819D01*
X0116048Y0037054D02*
X0120142Y0037054D01*
X0120142Y0037289D02*
X0116048Y0037289D01*
X0116048Y0037524D02*
X0120142Y0037524D01*
X0120142Y0037759D02*
X0116048Y0037759D01*
X0116048Y0037994D02*
X0120142Y0037994D01*
X0120142Y0038229D02*
X0116048Y0038229D01*
X0116048Y0038464D02*
X0120142Y0038464D01*
X0105048Y0038639D02*
X0105048Y0034939D01*
X0105048Y0038639D02*
X0109142Y0038639D01*
X0109142Y0034939D01*
X0105048Y0034939D01*
X0105048Y0035174D02*
X0109142Y0035174D01*
X0109142Y0035409D02*
X0105048Y0035409D01*
X0105048Y0035644D02*
X0109142Y0035644D01*
X0109142Y0035879D02*
X0105048Y0035879D01*
X0105048Y0036114D02*
X0109142Y0036114D01*
X0109142Y0036349D02*
X0105048Y0036349D01*
X0105048Y0036584D02*
X0109142Y0036584D01*
X0109142Y0036819D02*
X0105048Y0036819D01*
X0105048Y0037054D02*
X0109142Y0037054D01*
X0109142Y0037289D02*
X0105048Y0037289D01*
X0105048Y0037524D02*
X0109142Y0037524D01*
X0109142Y0037759D02*
X0105048Y0037759D01*
X0105048Y0037994D02*
X0109142Y0037994D01*
X0109142Y0038229D02*
X0105048Y0038229D01*
X0105048Y0038464D02*
X0109142Y0038464D01*
X0110548Y0031332D02*
X0110548Y0027632D01*
X0110548Y0031332D02*
X0114642Y0031332D01*
X0114642Y0027632D01*
X0110548Y0027632D01*
X0110548Y0027867D02*
X0114642Y0027867D01*
X0114642Y0028102D02*
X0110548Y0028102D01*
X0110548Y0028337D02*
X0114642Y0028337D01*
X0114642Y0028572D02*
X0110548Y0028572D01*
X0110548Y0028807D02*
X0114642Y0028807D01*
X0114642Y0029042D02*
X0110548Y0029042D01*
X0110548Y0029277D02*
X0114642Y0029277D01*
X0114642Y0029512D02*
X0110548Y0029512D01*
X0110548Y0029747D02*
X0114642Y0029747D01*
X0114642Y0029982D02*
X0110548Y0029982D01*
X0110548Y0030217D02*
X0114642Y0030217D01*
X0114642Y0030452D02*
X0110548Y0030452D01*
X0110548Y0030687D02*
X0114642Y0030687D01*
X0114642Y0030922D02*
X0110548Y0030922D01*
X0110548Y0031157D02*
X0114642Y0031157D01*
X0110548Y0024639D02*
X0110548Y0020939D01*
X0110548Y0024639D02*
X0114642Y0024639D01*
X0114642Y0020939D01*
X0110548Y0020939D01*
X0110548Y0021174D02*
X0114642Y0021174D01*
X0114642Y0021409D02*
X0110548Y0021409D01*
X0110548Y0021644D02*
X0114642Y0021644D01*
X0114642Y0021879D02*
X0110548Y0021879D01*
X0110548Y0022114D02*
X0114642Y0022114D01*
X0114642Y0022349D02*
X0110548Y0022349D01*
X0110548Y0022584D02*
X0114642Y0022584D01*
X0114642Y0022819D02*
X0110548Y0022819D01*
X0110548Y0023054D02*
X0114642Y0023054D01*
X0114642Y0023289D02*
X0110548Y0023289D01*
X0110548Y0023524D02*
X0114642Y0023524D01*
X0114642Y0023759D02*
X0110548Y0023759D01*
X0110548Y0023994D02*
X0114642Y0023994D01*
X0114642Y0024229D02*
X0110548Y0024229D01*
X0110548Y0024464D02*
X0114642Y0024464D01*
D13*
X0242420Y0031964D02*
X0242420Y0036826D01*
X0242420Y0031964D02*
X0236770Y0031964D01*
X0236770Y0036826D01*
X0242420Y0036826D01*
X0242420Y0032219D02*
X0236770Y0032219D01*
X0236770Y0032474D02*
X0242420Y0032474D01*
X0242420Y0032729D02*
X0236770Y0032729D01*
X0236770Y0032984D02*
X0242420Y0032984D01*
X0242420Y0033239D02*
X0236770Y0033239D01*
X0236770Y0033494D02*
X0242420Y0033494D01*
X0242420Y0033749D02*
X0236770Y0033749D01*
X0236770Y0034004D02*
X0242420Y0034004D01*
X0242420Y0034259D02*
X0236770Y0034259D01*
X0236770Y0034514D02*
X0242420Y0034514D01*
X0242420Y0034769D02*
X0236770Y0034769D01*
X0236770Y0035024D02*
X0242420Y0035024D01*
X0242420Y0035279D02*
X0236770Y0035279D01*
X0236770Y0035534D02*
X0242420Y0035534D01*
X0242420Y0035789D02*
X0236770Y0035789D01*
X0236770Y0036044D02*
X0242420Y0036044D01*
X0242420Y0036299D02*
X0236770Y0036299D01*
X0236770Y0036554D02*
X0242420Y0036554D01*
X0242420Y0036809D02*
X0236770Y0036809D01*
X0242420Y0039445D02*
X0242420Y0044307D01*
X0242420Y0039445D02*
X0236770Y0039445D01*
X0236770Y0044307D01*
X0242420Y0044307D01*
X0242420Y0039700D02*
X0236770Y0039700D01*
X0236770Y0039955D02*
X0242420Y0039955D01*
X0242420Y0040210D02*
X0236770Y0040210D01*
X0236770Y0040465D02*
X0242420Y0040465D01*
X0242420Y0040720D02*
X0236770Y0040720D01*
X0236770Y0040975D02*
X0242420Y0040975D01*
X0242420Y0041230D02*
X0236770Y0041230D01*
X0236770Y0041485D02*
X0242420Y0041485D01*
X0242420Y0041740D02*
X0236770Y0041740D01*
X0236770Y0041995D02*
X0242420Y0041995D01*
X0242420Y0042250D02*
X0236770Y0042250D01*
X0236770Y0042505D02*
X0242420Y0042505D01*
X0242420Y0042760D02*
X0236770Y0042760D01*
X0236770Y0043015D02*
X0242420Y0043015D01*
X0242420Y0043270D02*
X0236770Y0043270D01*
X0236770Y0043525D02*
X0242420Y0043525D01*
X0242420Y0043780D02*
X0236770Y0043780D01*
X0236770Y0044035D02*
X0242420Y0044035D01*
X0242420Y0044290D02*
X0236770Y0044290D01*
X0260424Y0147310D02*
X0265286Y0147310D01*
X0260424Y0147310D02*
X0260424Y0152960D01*
X0265286Y0152960D01*
X0265286Y0147310D01*
X0265286Y0147565D02*
X0260424Y0147565D01*
X0260424Y0147820D02*
X0265286Y0147820D01*
X0265286Y0148075D02*
X0260424Y0148075D01*
X0260424Y0148330D02*
X0265286Y0148330D01*
X0265286Y0148585D02*
X0260424Y0148585D01*
X0260424Y0148840D02*
X0265286Y0148840D01*
X0265286Y0149095D02*
X0260424Y0149095D01*
X0260424Y0149350D02*
X0265286Y0149350D01*
X0265286Y0149605D02*
X0260424Y0149605D01*
X0260424Y0149860D02*
X0265286Y0149860D01*
X0265286Y0150115D02*
X0260424Y0150115D01*
X0260424Y0150370D02*
X0265286Y0150370D01*
X0265286Y0150625D02*
X0260424Y0150625D01*
X0260424Y0150880D02*
X0265286Y0150880D01*
X0265286Y0151135D02*
X0260424Y0151135D01*
X0260424Y0151390D02*
X0265286Y0151390D01*
X0265286Y0151645D02*
X0260424Y0151645D01*
X0260424Y0151900D02*
X0265286Y0151900D01*
X0265286Y0152155D02*
X0260424Y0152155D01*
X0260424Y0152410D02*
X0265286Y0152410D01*
X0265286Y0152665D02*
X0260424Y0152665D01*
X0260424Y0152920D02*
X0265286Y0152920D01*
X0267904Y0147310D02*
X0272766Y0147310D01*
X0267904Y0147310D02*
X0267904Y0152960D01*
X0272766Y0152960D01*
X0272766Y0147310D01*
X0272766Y0147565D02*
X0267904Y0147565D01*
X0267904Y0147820D02*
X0272766Y0147820D01*
X0272766Y0148075D02*
X0267904Y0148075D01*
X0267904Y0148330D02*
X0272766Y0148330D01*
X0272766Y0148585D02*
X0267904Y0148585D01*
X0267904Y0148840D02*
X0272766Y0148840D01*
X0272766Y0149095D02*
X0267904Y0149095D01*
X0267904Y0149350D02*
X0272766Y0149350D01*
X0272766Y0149605D02*
X0267904Y0149605D01*
X0267904Y0149860D02*
X0272766Y0149860D01*
X0272766Y0150115D02*
X0267904Y0150115D01*
X0267904Y0150370D02*
X0272766Y0150370D01*
X0272766Y0150625D02*
X0267904Y0150625D01*
X0267904Y0150880D02*
X0272766Y0150880D01*
X0272766Y0151135D02*
X0267904Y0151135D01*
X0267904Y0151390D02*
X0272766Y0151390D01*
X0272766Y0151645D02*
X0267904Y0151645D01*
X0267904Y0151900D02*
X0272766Y0151900D01*
X0272766Y0152155D02*
X0267904Y0152155D01*
X0267904Y0152410D02*
X0272766Y0152410D01*
X0272766Y0152665D02*
X0267904Y0152665D01*
X0267904Y0152920D02*
X0272766Y0152920D01*
X0109766Y0161460D02*
X0104904Y0161460D01*
X0109766Y0161460D02*
X0109766Y0155810D01*
X0104904Y0155810D01*
X0104904Y0161460D01*
X0104904Y0156065D02*
X0109766Y0156065D01*
X0109766Y0156320D02*
X0104904Y0156320D01*
X0104904Y0156575D02*
X0109766Y0156575D01*
X0109766Y0156830D02*
X0104904Y0156830D01*
X0104904Y0157085D02*
X0109766Y0157085D01*
X0109766Y0157340D02*
X0104904Y0157340D01*
X0104904Y0157595D02*
X0109766Y0157595D01*
X0109766Y0157850D02*
X0104904Y0157850D01*
X0104904Y0158105D02*
X0109766Y0158105D01*
X0109766Y0158360D02*
X0104904Y0158360D01*
X0104904Y0158615D02*
X0109766Y0158615D01*
X0109766Y0158870D02*
X0104904Y0158870D01*
X0104904Y0159125D02*
X0109766Y0159125D01*
X0109766Y0159380D02*
X0104904Y0159380D01*
X0104904Y0159635D02*
X0109766Y0159635D01*
X0109766Y0159890D02*
X0104904Y0159890D01*
X0104904Y0160145D02*
X0109766Y0160145D01*
X0109766Y0160400D02*
X0104904Y0160400D01*
X0104904Y0160655D02*
X0109766Y0160655D01*
X0109766Y0160910D02*
X0104904Y0160910D01*
X0104904Y0161165D02*
X0109766Y0161165D01*
X0109766Y0161420D02*
X0104904Y0161420D01*
X0102286Y0161460D02*
X0097424Y0161460D01*
X0102286Y0161460D02*
X0102286Y0155810D01*
X0097424Y0155810D01*
X0097424Y0161460D01*
X0097424Y0156065D02*
X0102286Y0156065D01*
X0102286Y0156320D02*
X0097424Y0156320D01*
X0097424Y0156575D02*
X0102286Y0156575D01*
X0102286Y0156830D02*
X0097424Y0156830D01*
X0097424Y0157085D02*
X0102286Y0157085D01*
X0102286Y0157340D02*
X0097424Y0157340D01*
X0097424Y0157595D02*
X0102286Y0157595D01*
X0102286Y0157850D02*
X0097424Y0157850D01*
X0097424Y0158105D02*
X0102286Y0158105D01*
X0102286Y0158360D02*
X0097424Y0158360D01*
X0097424Y0158615D02*
X0102286Y0158615D01*
X0102286Y0158870D02*
X0097424Y0158870D01*
X0097424Y0159125D02*
X0102286Y0159125D01*
X0102286Y0159380D02*
X0097424Y0159380D01*
X0097424Y0159635D02*
X0102286Y0159635D01*
X0102286Y0159890D02*
X0097424Y0159890D01*
X0097424Y0160145D02*
X0102286Y0160145D01*
X0102286Y0160400D02*
X0097424Y0160400D01*
X0097424Y0160655D02*
X0102286Y0160655D01*
X0102286Y0160910D02*
X0097424Y0160910D01*
X0097424Y0161165D02*
X0102286Y0161165D01*
X0102286Y0161420D02*
X0097424Y0161420D01*
D14*
X0244162Y0139474D02*
X0244162Y0134182D01*
X0244162Y0139474D02*
X0251028Y0139474D01*
X0251028Y0134182D01*
X0244162Y0134182D01*
X0244162Y0134401D02*
X0251028Y0134401D01*
X0251028Y0134620D02*
X0244162Y0134620D01*
X0244162Y0134839D02*
X0251028Y0134839D01*
X0251028Y0135058D02*
X0244162Y0135058D01*
X0244162Y0135277D02*
X0251028Y0135277D01*
X0251028Y0135496D02*
X0244162Y0135496D01*
X0244162Y0135715D02*
X0251028Y0135715D01*
X0251028Y0135934D02*
X0244162Y0135934D01*
X0244162Y0136153D02*
X0251028Y0136153D01*
X0251028Y0136372D02*
X0244162Y0136372D01*
X0244162Y0136591D02*
X0251028Y0136591D01*
X0251028Y0136810D02*
X0244162Y0136810D01*
X0244162Y0137029D02*
X0251028Y0137029D01*
X0251028Y0137248D02*
X0244162Y0137248D01*
X0244162Y0137467D02*
X0251028Y0137467D01*
X0251028Y0137686D02*
X0244162Y0137686D01*
X0244162Y0137905D02*
X0251028Y0137905D01*
X0251028Y0138124D02*
X0244162Y0138124D01*
X0244162Y0138343D02*
X0251028Y0138343D01*
X0251028Y0138562D02*
X0244162Y0138562D01*
X0244162Y0138781D02*
X0251028Y0138781D01*
X0251028Y0139000D02*
X0244162Y0139000D01*
X0244162Y0139219D02*
X0251028Y0139219D01*
X0251028Y0139438D02*
X0244162Y0139438D01*
X0244162Y0126089D02*
X0244162Y0120797D01*
X0244162Y0126089D02*
X0251028Y0126089D01*
X0251028Y0120797D01*
X0244162Y0120797D01*
X0244162Y0121016D02*
X0251028Y0121016D01*
X0251028Y0121235D02*
X0244162Y0121235D01*
X0244162Y0121454D02*
X0251028Y0121454D01*
X0251028Y0121673D02*
X0244162Y0121673D01*
X0244162Y0121892D02*
X0251028Y0121892D01*
X0251028Y0122111D02*
X0244162Y0122111D01*
X0244162Y0122330D02*
X0251028Y0122330D01*
X0251028Y0122549D02*
X0244162Y0122549D01*
X0244162Y0122768D02*
X0251028Y0122768D01*
X0251028Y0122987D02*
X0244162Y0122987D01*
X0244162Y0123206D02*
X0251028Y0123206D01*
X0251028Y0123425D02*
X0244162Y0123425D01*
X0244162Y0123644D02*
X0251028Y0123644D01*
X0251028Y0123863D02*
X0244162Y0123863D01*
X0244162Y0124082D02*
X0251028Y0124082D01*
X0251028Y0124301D02*
X0244162Y0124301D01*
X0244162Y0124520D02*
X0251028Y0124520D01*
X0251028Y0124739D02*
X0244162Y0124739D01*
X0244162Y0124958D02*
X0251028Y0124958D01*
X0251028Y0125177D02*
X0244162Y0125177D01*
X0244162Y0125396D02*
X0251028Y0125396D01*
X0251028Y0125615D02*
X0244162Y0125615D01*
X0244162Y0125834D02*
X0251028Y0125834D01*
X0251028Y0126053D02*
X0244162Y0126053D01*
X0346028Y0140797D02*
X0346028Y0146089D01*
X0346028Y0140797D02*
X0339162Y0140797D01*
X0339162Y0146089D01*
X0346028Y0146089D01*
X0346028Y0141016D02*
X0339162Y0141016D01*
X0339162Y0141235D02*
X0346028Y0141235D01*
X0346028Y0141454D02*
X0339162Y0141454D01*
X0339162Y0141673D02*
X0346028Y0141673D01*
X0346028Y0141892D02*
X0339162Y0141892D01*
X0339162Y0142111D02*
X0346028Y0142111D01*
X0346028Y0142330D02*
X0339162Y0142330D01*
X0339162Y0142549D02*
X0346028Y0142549D01*
X0346028Y0142768D02*
X0339162Y0142768D01*
X0339162Y0142987D02*
X0346028Y0142987D01*
X0346028Y0143206D02*
X0339162Y0143206D01*
X0339162Y0143425D02*
X0346028Y0143425D01*
X0346028Y0143644D02*
X0339162Y0143644D01*
X0339162Y0143863D02*
X0346028Y0143863D01*
X0346028Y0144082D02*
X0339162Y0144082D01*
X0339162Y0144301D02*
X0346028Y0144301D01*
X0346028Y0144520D02*
X0339162Y0144520D01*
X0339162Y0144739D02*
X0346028Y0144739D01*
X0346028Y0144958D02*
X0339162Y0144958D01*
X0339162Y0145177D02*
X0346028Y0145177D01*
X0346028Y0145396D02*
X0339162Y0145396D01*
X0339162Y0145615D02*
X0346028Y0145615D01*
X0346028Y0145834D02*
X0339162Y0145834D01*
X0339162Y0146053D02*
X0346028Y0146053D01*
X0356028Y0146089D02*
X0356028Y0140797D01*
X0349162Y0140797D01*
X0349162Y0146089D01*
X0356028Y0146089D01*
X0356028Y0141016D02*
X0349162Y0141016D01*
X0349162Y0141235D02*
X0356028Y0141235D01*
X0356028Y0141454D02*
X0349162Y0141454D01*
X0349162Y0141673D02*
X0356028Y0141673D01*
X0356028Y0141892D02*
X0349162Y0141892D01*
X0349162Y0142111D02*
X0356028Y0142111D01*
X0356028Y0142330D02*
X0349162Y0142330D01*
X0349162Y0142549D02*
X0356028Y0142549D01*
X0356028Y0142768D02*
X0349162Y0142768D01*
X0349162Y0142987D02*
X0356028Y0142987D01*
X0356028Y0143206D02*
X0349162Y0143206D01*
X0349162Y0143425D02*
X0356028Y0143425D01*
X0356028Y0143644D02*
X0349162Y0143644D01*
X0349162Y0143863D02*
X0356028Y0143863D01*
X0356028Y0144082D02*
X0349162Y0144082D01*
X0349162Y0144301D02*
X0356028Y0144301D01*
X0356028Y0144520D02*
X0349162Y0144520D01*
X0349162Y0144739D02*
X0356028Y0144739D01*
X0356028Y0144958D02*
X0349162Y0144958D01*
X0349162Y0145177D02*
X0356028Y0145177D01*
X0356028Y0145396D02*
X0349162Y0145396D01*
X0349162Y0145615D02*
X0356028Y0145615D01*
X0356028Y0145834D02*
X0349162Y0145834D01*
X0349162Y0146053D02*
X0356028Y0146053D01*
X0356028Y0154182D02*
X0356028Y0159474D01*
X0356028Y0154182D02*
X0349162Y0154182D01*
X0349162Y0159474D01*
X0356028Y0159474D01*
X0356028Y0154401D02*
X0349162Y0154401D01*
X0349162Y0154620D02*
X0356028Y0154620D01*
X0356028Y0154839D02*
X0349162Y0154839D01*
X0349162Y0155058D02*
X0356028Y0155058D01*
X0356028Y0155277D02*
X0349162Y0155277D01*
X0349162Y0155496D02*
X0356028Y0155496D01*
X0356028Y0155715D02*
X0349162Y0155715D01*
X0349162Y0155934D02*
X0356028Y0155934D01*
X0356028Y0156153D02*
X0349162Y0156153D01*
X0349162Y0156372D02*
X0356028Y0156372D01*
X0356028Y0156591D02*
X0349162Y0156591D01*
X0349162Y0156810D02*
X0356028Y0156810D01*
X0356028Y0157029D02*
X0349162Y0157029D01*
X0349162Y0157248D02*
X0356028Y0157248D01*
X0356028Y0157467D02*
X0349162Y0157467D01*
X0349162Y0157686D02*
X0356028Y0157686D01*
X0356028Y0157905D02*
X0349162Y0157905D01*
X0349162Y0158124D02*
X0356028Y0158124D01*
X0356028Y0158343D02*
X0349162Y0158343D01*
X0349162Y0158562D02*
X0356028Y0158562D01*
X0356028Y0158781D02*
X0349162Y0158781D01*
X0349162Y0159000D02*
X0356028Y0159000D01*
X0356028Y0159219D02*
X0349162Y0159219D01*
X0349162Y0159438D02*
X0356028Y0159438D01*
X0346028Y0159474D02*
X0346028Y0154182D01*
X0339162Y0154182D01*
X0339162Y0159474D01*
X0346028Y0159474D01*
X0346028Y0154401D02*
X0339162Y0154401D01*
X0339162Y0154620D02*
X0346028Y0154620D01*
X0346028Y0154839D02*
X0339162Y0154839D01*
X0339162Y0155058D02*
X0346028Y0155058D01*
X0346028Y0155277D02*
X0339162Y0155277D01*
X0339162Y0155496D02*
X0346028Y0155496D01*
X0346028Y0155715D02*
X0339162Y0155715D01*
X0339162Y0155934D02*
X0346028Y0155934D01*
X0346028Y0156153D02*
X0339162Y0156153D01*
X0339162Y0156372D02*
X0346028Y0156372D01*
X0346028Y0156591D02*
X0339162Y0156591D01*
X0339162Y0156810D02*
X0346028Y0156810D01*
X0346028Y0157029D02*
X0339162Y0157029D01*
X0339162Y0157248D02*
X0346028Y0157248D01*
X0346028Y0157467D02*
X0339162Y0157467D01*
X0339162Y0157686D02*
X0346028Y0157686D01*
X0346028Y0157905D02*
X0339162Y0157905D01*
X0339162Y0158124D02*
X0346028Y0158124D01*
X0346028Y0158343D02*
X0339162Y0158343D01*
X0339162Y0158562D02*
X0346028Y0158562D01*
X0346028Y0158781D02*
X0339162Y0158781D01*
X0339162Y0159000D02*
X0346028Y0159000D01*
X0346028Y0159219D02*
X0339162Y0159219D01*
X0339162Y0159438D02*
X0346028Y0159438D01*
D15*
X0396595Y0160135D03*
X0067595Y0160135D03*
X0067595Y0025135D03*
D16*
X0213784Y0032601D02*
X0213784Y0038647D01*
X0213784Y0032601D02*
X0203406Y0032601D01*
X0203406Y0038647D01*
X0213784Y0038647D01*
X0213784Y0032852D02*
X0203406Y0032852D01*
X0203406Y0033103D02*
X0213784Y0033103D01*
X0213784Y0033354D02*
X0203406Y0033354D01*
X0203406Y0033605D02*
X0213784Y0033605D01*
X0213784Y0033856D02*
X0203406Y0033856D01*
X0203406Y0034107D02*
X0213784Y0034107D01*
X0213784Y0034358D02*
X0203406Y0034358D01*
X0203406Y0034609D02*
X0213784Y0034609D01*
X0213784Y0034860D02*
X0203406Y0034860D01*
X0203406Y0035111D02*
X0213784Y0035111D01*
X0213784Y0035362D02*
X0203406Y0035362D01*
X0203406Y0035613D02*
X0213784Y0035613D01*
X0213784Y0035864D02*
X0203406Y0035864D01*
X0203406Y0036115D02*
X0213784Y0036115D01*
X0213784Y0036366D02*
X0203406Y0036366D01*
X0203406Y0036617D02*
X0213784Y0036617D01*
X0213784Y0036868D02*
X0203406Y0036868D01*
X0203406Y0037119D02*
X0213784Y0037119D01*
X0213784Y0037370D02*
X0203406Y0037370D01*
X0203406Y0037621D02*
X0213784Y0037621D01*
X0213784Y0037872D02*
X0203406Y0037872D01*
X0203406Y0038123D02*
X0213784Y0038123D01*
X0213784Y0038374D02*
X0203406Y0038374D01*
X0203406Y0038625D02*
X0213784Y0038625D01*
X0213784Y0043624D02*
X0213784Y0049670D01*
X0213784Y0043624D02*
X0203406Y0043624D01*
X0203406Y0049670D01*
X0213784Y0049670D01*
X0213784Y0043875D02*
X0203406Y0043875D01*
X0203406Y0044126D02*
X0213784Y0044126D01*
X0213784Y0044377D02*
X0203406Y0044377D01*
X0203406Y0044628D02*
X0213784Y0044628D01*
X0213784Y0044879D02*
X0203406Y0044879D01*
X0203406Y0045130D02*
X0213784Y0045130D01*
X0213784Y0045381D02*
X0203406Y0045381D01*
X0203406Y0045632D02*
X0213784Y0045632D01*
X0213784Y0045883D02*
X0203406Y0045883D01*
X0203406Y0046134D02*
X0213784Y0046134D01*
X0213784Y0046385D02*
X0203406Y0046385D01*
X0203406Y0046636D02*
X0213784Y0046636D01*
X0213784Y0046887D02*
X0203406Y0046887D01*
X0203406Y0047138D02*
X0213784Y0047138D01*
X0213784Y0047389D02*
X0203406Y0047389D01*
X0203406Y0047640D02*
X0213784Y0047640D01*
X0213784Y0047891D02*
X0203406Y0047891D01*
X0203406Y0048142D02*
X0213784Y0048142D01*
X0213784Y0048393D02*
X0203406Y0048393D01*
X0203406Y0048644D02*
X0213784Y0048644D01*
X0213784Y0048895D02*
X0203406Y0048895D01*
X0203406Y0049146D02*
X0213784Y0049146D01*
X0213784Y0049397D02*
X0203406Y0049397D01*
X0203406Y0049648D02*
X0213784Y0049648D01*
X0392060Y0098446D02*
X0398106Y0098446D01*
X0398106Y0090824D01*
X0392060Y0090824D01*
X0392060Y0098446D01*
X0392060Y0091075D02*
X0398106Y0091075D01*
X0398106Y0091326D02*
X0392060Y0091326D01*
X0392060Y0091577D02*
X0398106Y0091577D01*
X0398106Y0091828D02*
X0392060Y0091828D01*
X0392060Y0092079D02*
X0398106Y0092079D01*
X0398106Y0092330D02*
X0392060Y0092330D01*
X0392060Y0092581D02*
X0398106Y0092581D01*
X0398106Y0092832D02*
X0392060Y0092832D01*
X0392060Y0093083D02*
X0398106Y0093083D01*
X0398106Y0093334D02*
X0392060Y0093334D01*
X0392060Y0093585D02*
X0398106Y0093585D01*
X0398106Y0093836D02*
X0392060Y0093836D01*
X0392060Y0094087D02*
X0398106Y0094087D01*
X0398106Y0094338D02*
X0392060Y0094338D01*
X0392060Y0094589D02*
X0398106Y0094589D01*
X0398106Y0094840D02*
X0392060Y0094840D01*
X0392060Y0095091D02*
X0398106Y0095091D01*
X0398106Y0095342D02*
X0392060Y0095342D01*
X0392060Y0095593D02*
X0398106Y0095593D01*
X0398106Y0095844D02*
X0392060Y0095844D01*
X0392060Y0096095D02*
X0398106Y0096095D01*
X0398106Y0096346D02*
X0392060Y0096346D01*
X0392060Y0096597D02*
X0398106Y0096597D01*
X0398106Y0096848D02*
X0392060Y0096848D01*
X0392060Y0097099D02*
X0398106Y0097099D01*
X0398106Y0097350D02*
X0392060Y0097350D01*
X0392060Y0097601D02*
X0398106Y0097601D01*
X0398106Y0097852D02*
X0392060Y0097852D01*
X0392060Y0098103D02*
X0398106Y0098103D01*
X0398106Y0098354D02*
X0392060Y0098354D01*
X0403084Y0098446D02*
X0409130Y0098446D01*
X0409130Y0090824D01*
X0403084Y0090824D01*
X0403084Y0098446D01*
X0403084Y0091075D02*
X0409130Y0091075D01*
X0409130Y0091326D02*
X0403084Y0091326D01*
X0403084Y0091577D02*
X0409130Y0091577D01*
X0409130Y0091828D02*
X0403084Y0091828D01*
X0403084Y0092079D02*
X0409130Y0092079D01*
X0409130Y0092330D02*
X0403084Y0092330D01*
X0403084Y0092581D02*
X0409130Y0092581D01*
X0409130Y0092832D02*
X0403084Y0092832D01*
X0403084Y0093083D02*
X0409130Y0093083D01*
X0409130Y0093334D02*
X0403084Y0093334D01*
X0403084Y0093585D02*
X0409130Y0093585D01*
X0409130Y0093836D02*
X0403084Y0093836D01*
X0403084Y0094087D02*
X0409130Y0094087D01*
X0409130Y0094338D02*
X0403084Y0094338D01*
X0403084Y0094589D02*
X0409130Y0094589D01*
X0409130Y0094840D02*
X0403084Y0094840D01*
X0403084Y0095091D02*
X0409130Y0095091D01*
X0409130Y0095342D02*
X0403084Y0095342D01*
X0403084Y0095593D02*
X0409130Y0095593D01*
X0409130Y0095844D02*
X0403084Y0095844D01*
X0403084Y0096095D02*
X0409130Y0096095D01*
X0409130Y0096346D02*
X0403084Y0096346D01*
X0403084Y0096597D02*
X0409130Y0096597D01*
X0409130Y0096848D02*
X0403084Y0096848D01*
X0403084Y0097099D02*
X0409130Y0097099D01*
X0409130Y0097350D02*
X0403084Y0097350D01*
X0403084Y0097601D02*
X0409130Y0097601D01*
X0409130Y0097852D02*
X0403084Y0097852D01*
X0403084Y0098103D02*
X0409130Y0098103D01*
X0409130Y0098354D02*
X0403084Y0098354D01*
X0128130Y0162946D02*
X0122084Y0162946D01*
X0128130Y0162946D02*
X0128130Y0155324D01*
X0122084Y0155324D01*
X0122084Y0162946D01*
X0122084Y0155575D02*
X0128130Y0155575D01*
X0128130Y0155826D02*
X0122084Y0155826D01*
X0122084Y0156077D02*
X0128130Y0156077D01*
X0128130Y0156328D02*
X0122084Y0156328D01*
X0122084Y0156579D02*
X0128130Y0156579D01*
X0128130Y0156830D02*
X0122084Y0156830D01*
X0122084Y0157081D02*
X0128130Y0157081D01*
X0128130Y0157332D02*
X0122084Y0157332D01*
X0122084Y0157583D02*
X0128130Y0157583D01*
X0128130Y0157834D02*
X0122084Y0157834D01*
X0122084Y0158085D02*
X0128130Y0158085D01*
X0128130Y0158336D02*
X0122084Y0158336D01*
X0122084Y0158587D02*
X0128130Y0158587D01*
X0128130Y0158838D02*
X0122084Y0158838D01*
X0122084Y0159089D02*
X0128130Y0159089D01*
X0128130Y0159340D02*
X0122084Y0159340D01*
X0122084Y0159591D02*
X0128130Y0159591D01*
X0128130Y0159842D02*
X0122084Y0159842D01*
X0122084Y0160093D02*
X0128130Y0160093D01*
X0128130Y0160344D02*
X0122084Y0160344D01*
X0122084Y0160595D02*
X0128130Y0160595D01*
X0128130Y0160846D02*
X0122084Y0160846D01*
X0122084Y0161097D02*
X0128130Y0161097D01*
X0128130Y0161348D02*
X0122084Y0161348D01*
X0122084Y0161599D02*
X0128130Y0161599D01*
X0128130Y0161850D02*
X0122084Y0161850D01*
X0122084Y0162101D02*
X0128130Y0162101D01*
X0128130Y0162352D02*
X0122084Y0162352D01*
X0122084Y0162603D02*
X0128130Y0162603D01*
X0128130Y0162854D02*
X0122084Y0162854D01*
X0117106Y0162946D02*
X0111060Y0162946D01*
X0117106Y0162946D02*
X0117106Y0155324D01*
X0111060Y0155324D01*
X0111060Y0162946D01*
X0111060Y0155575D02*
X0117106Y0155575D01*
X0117106Y0155826D02*
X0111060Y0155826D01*
X0111060Y0156077D02*
X0117106Y0156077D01*
X0117106Y0156328D02*
X0111060Y0156328D01*
X0111060Y0156579D02*
X0117106Y0156579D01*
X0117106Y0156830D02*
X0111060Y0156830D01*
X0111060Y0157081D02*
X0117106Y0157081D01*
X0117106Y0157332D02*
X0111060Y0157332D01*
X0111060Y0157583D02*
X0117106Y0157583D01*
X0117106Y0157834D02*
X0111060Y0157834D01*
X0111060Y0158085D02*
X0117106Y0158085D01*
X0117106Y0158336D02*
X0111060Y0158336D01*
X0111060Y0158587D02*
X0117106Y0158587D01*
X0117106Y0158838D02*
X0111060Y0158838D01*
X0111060Y0159089D02*
X0117106Y0159089D01*
X0117106Y0159340D02*
X0111060Y0159340D01*
X0111060Y0159591D02*
X0117106Y0159591D01*
X0117106Y0159842D02*
X0111060Y0159842D01*
X0111060Y0160093D02*
X0117106Y0160093D01*
X0117106Y0160344D02*
X0111060Y0160344D01*
X0111060Y0160595D02*
X0117106Y0160595D01*
X0117106Y0160846D02*
X0111060Y0160846D01*
X0111060Y0161097D02*
X0117106Y0161097D01*
X0117106Y0161348D02*
X0111060Y0161348D01*
X0111060Y0161599D02*
X0117106Y0161599D01*
X0117106Y0161850D02*
X0111060Y0161850D01*
X0111060Y0162101D02*
X0117106Y0162101D01*
X0117106Y0162352D02*
X0111060Y0162352D01*
X0111060Y0162603D02*
X0117106Y0162603D01*
X0117106Y0162854D02*
X0111060Y0162854D01*
D17*
X0196595Y0119635D03*
X0235095Y0066635D03*
X0220595Y0045135D03*
X0257595Y0025135D03*
X0332595Y0135135D03*
D18*
X0342595Y0135135D03*
X0342595Y0125135D03*
X0332595Y0125135D03*
X0332595Y0115135D03*
X0342595Y0115135D03*
X0257595Y0065135D03*
X0247595Y0065135D03*
X0247595Y0055135D03*
X0235095Y0056635D03*
X0225095Y0056635D03*
X0215095Y0056635D03*
X0215095Y0066635D03*
X0225095Y0066635D03*
X0257595Y0055135D03*
X0257595Y0045135D03*
X0247595Y0045135D03*
X0230595Y0045135D03*
X0230595Y0035135D03*
X0220595Y0035135D03*
X0220595Y0025135D03*
X0230595Y0025135D03*
X0247595Y0025135D03*
X0247595Y0035135D03*
X0257595Y0035135D03*
X0196595Y0109635D03*
X0127438Y0167852D03*
X0117595Y0167852D03*
X0107753Y0167852D03*
D19*
X0106099Y0151710D02*
X0106099Y0146198D01*
X0110036Y0146198D02*
X0110036Y0151710D01*
X0113973Y0151710D02*
X0113973Y0146198D01*
X0117910Y0146198D02*
X0117910Y0151710D01*
X0121847Y0151710D02*
X0121847Y0146198D01*
X0125784Y0146198D02*
X0125784Y0151710D01*
X0129721Y0151710D02*
X0129721Y0146198D01*
X0133658Y0146198D02*
X0133658Y0151710D01*
X0137595Y0151710D02*
X0137595Y0146198D01*
X0141532Y0146198D02*
X0141532Y0151710D01*
X0145469Y0151710D02*
X0145469Y0146198D01*
X0149406Y0146198D02*
X0149406Y0151710D01*
X0153343Y0151710D02*
X0153343Y0146198D01*
X0157280Y0146198D02*
X0157280Y0151710D01*
X0161217Y0151710D02*
X0161217Y0146198D01*
X0165154Y0146198D02*
X0165154Y0151710D01*
X0169091Y0151710D02*
X0169091Y0146198D01*
X0183658Y0131631D02*
X0189170Y0131631D01*
X0189170Y0127694D02*
X0183658Y0127694D01*
X0183658Y0123757D02*
X0189170Y0123757D01*
X0189170Y0119820D02*
X0183658Y0119820D01*
X0183658Y0115883D02*
X0189170Y0115883D01*
X0189170Y0111946D02*
X0183658Y0111946D01*
X0183658Y0108009D02*
X0189170Y0108009D01*
X0189170Y0104072D02*
X0183658Y0104072D01*
X0183658Y0100135D02*
X0189170Y0100135D01*
X0189170Y0096198D02*
X0183658Y0096198D01*
X0183658Y0092261D02*
X0189170Y0092261D01*
X0189170Y0088324D02*
X0183658Y0088324D01*
X0183658Y0084387D02*
X0189170Y0084387D01*
X0189170Y0080450D02*
X0183658Y0080450D01*
X0183658Y0076513D02*
X0189170Y0076513D01*
X0189170Y0072576D02*
X0183658Y0072576D01*
X0183658Y0068639D02*
X0189170Y0068639D01*
X0169091Y0054073D02*
X0169091Y0048561D01*
X0169091Y0051317D02*
X0169095Y0026635D01*
X0169100Y0026359D01*
X0169112Y0026083D01*
X0169131Y0025808D01*
X0169156Y0025533D01*
X0169188Y0025259D01*
X0169226Y0024986D01*
X0169271Y0024713D01*
X0169323Y0024442D01*
X0169381Y0024172D01*
X0169446Y0023904D01*
X0169517Y0023637D01*
X0169594Y0023372D01*
X0169678Y0023109D01*
X0169768Y0022848D01*
X0169865Y0022590D01*
X0169967Y0022333D01*
X0170076Y0022080D01*
X0170191Y0021829D01*
X0170312Y0021581D01*
X0170439Y0021336D01*
X0170572Y0021094D01*
X0170711Y0020855D01*
X0170855Y0020620D01*
X0171005Y0020388D01*
X0171161Y0020160D01*
X0171322Y0019936D01*
X0171488Y0019716D01*
X0171660Y0019499D01*
X0171837Y0019287D01*
X0172019Y0019080D01*
X0172206Y0018877D01*
X0172398Y0018678D01*
X0172594Y0018484D01*
X0172795Y0018295D01*
X0173001Y0018111D01*
X0173211Y0017932D01*
X0173425Y0017758D01*
X0173644Y0017589D01*
X0173866Y0017426D01*
X0174092Y0017268D01*
X0174322Y0017115D01*
X0174556Y0016968D01*
X0174793Y0016827D01*
X0175034Y0016692D01*
X0175278Y0016562D01*
X0175524Y0016438D01*
X0175774Y0016321D01*
X0176027Y0016209D01*
X0176282Y0016104D01*
X0176539Y0016004D01*
X0176799Y0015911D01*
X0177061Y0015825D01*
X0177325Y0015744D01*
X0177591Y0015670D01*
X0177859Y0015603D01*
X0178128Y0015542D01*
X0178399Y0015487D01*
X0178671Y0015439D01*
X0178944Y0015398D01*
X0179217Y0015363D01*
X0179492Y0015335D01*
X0179767Y0015314D01*
X0180043Y0015299D01*
X0180319Y0015291D01*
X0180595Y0015289D01*
X0165154Y0048561D02*
X0165154Y0054073D01*
X0161217Y0054073D02*
X0161217Y0048561D01*
X0157280Y0048561D02*
X0157280Y0054073D01*
X0153343Y0054073D02*
X0153343Y0048561D01*
X0149406Y0048561D02*
X0149406Y0054073D01*
X0145469Y0054073D02*
X0145469Y0048561D01*
X0141532Y0048561D02*
X0141532Y0054073D01*
X0137595Y0054073D02*
X0137595Y0048561D01*
X0133658Y0048561D02*
X0133658Y0054073D01*
X0129721Y0054073D02*
X0129721Y0048561D01*
X0125784Y0048561D02*
X0125784Y0054073D01*
X0121847Y0054073D02*
X0121847Y0048561D01*
X0117910Y0048561D02*
X0117910Y0054073D01*
X0113973Y0054073D02*
X0113973Y0048561D01*
X0110036Y0048561D02*
X0110036Y0054073D01*
X0106099Y0054073D02*
X0106099Y0048561D01*
X0091532Y0068639D02*
X0086020Y0068639D01*
X0086020Y0072576D02*
X0091532Y0072576D01*
X0091532Y0076513D02*
X0086020Y0076513D01*
X0086020Y0080450D02*
X0091532Y0080450D01*
X0091532Y0084387D02*
X0086020Y0084387D01*
X0086020Y0088324D02*
X0091532Y0088324D01*
X0091532Y0092261D02*
X0086020Y0092261D01*
X0086020Y0096198D02*
X0091532Y0096198D01*
X0091532Y0100135D02*
X0086020Y0100135D01*
X0086020Y0104072D02*
X0091532Y0104072D01*
X0091532Y0108009D02*
X0086020Y0108009D01*
X0086020Y0111946D02*
X0091532Y0111946D01*
X0091532Y0115883D02*
X0086020Y0115883D01*
X0086020Y0119820D02*
X0091532Y0119820D01*
X0091532Y0123757D02*
X0086020Y0123757D01*
X0086020Y0127694D02*
X0091532Y0127694D01*
X0091532Y0131631D02*
X0086020Y0131631D01*
D20*
X0394257Y0129978D03*
X0394257Y0110293D03*
D21*
X0395595Y0063135D03*
D22*
X0385595Y0053135D03*
X0405595Y0053135D03*
X0405595Y0073135D03*
X0385595Y0073135D03*
D23*
X0395595Y0083635D03*
X0406095Y0088135D03*
X0392355Y0089135D03*
X0390095Y0096635D03*
X0388095Y0106635D03*
X0388595Y0116635D03*
X0387095Y0119635D03*
X0388595Y0122635D03*
X0389095Y0126135D03*
X0398095Y0142135D03*
X0364595Y0155135D03*
X0360595Y0161135D03*
X0358095Y0163135D03*
X0352595Y0167135D03*
X0363595Y0167135D03*
X0370095Y0165135D03*
X0370095Y0161135D03*
X0336595Y0153635D03*
X0327095Y0138635D03*
X0311595Y0135635D03*
X0311095Y0131135D03*
X0315595Y0121635D03*
X0299095Y0121135D03*
X0293595Y0118635D03*
X0291095Y0126635D03*
X0278595Y0122635D03*
X0268095Y0122635D03*
X0261595Y0118135D03*
X0268095Y0114135D03*
X0262595Y0111635D03*
X0255095Y0107635D03*
X0251095Y0111135D03*
X0255095Y0102635D03*
X0254095Y0098635D03*
X0248095Y0098635D03*
X0264595Y0092635D03*
X0266595Y0089635D03*
X0266595Y0084635D03*
X0266595Y0081135D03*
X0266595Y0071635D03*
X0264595Y0068135D03*
X0266395Y0065435D03*
X0281595Y0072135D03*
X0287095Y0066635D03*
X0295095Y0079135D03*
X0300095Y0090135D03*
X0292595Y0096135D03*
X0288595Y0096135D03*
X0297595Y0105135D03*
X0307595Y0104635D03*
X0313095Y0096135D03*
X0317095Y0096135D03*
X0320595Y0096135D03*
X0319595Y0105135D03*
X0319595Y0109635D03*
X0352595Y0093635D03*
X0364595Y0086635D03*
X0352595Y0083635D03*
X0328095Y0084135D03*
X0328095Y0081135D03*
X0328095Y0077135D03*
X0328095Y0069135D03*
X0328095Y0057635D03*
X0328595Y0052635D03*
X0328595Y0049635D03*
X0323095Y0044135D03*
X0318595Y0044135D03*
X0305095Y0044135D03*
X0301595Y0044135D03*
X0298095Y0044135D03*
X0294595Y0044135D03*
X0291095Y0044135D03*
X0287595Y0044135D03*
X0284095Y0044135D03*
X0280595Y0044635D03*
X0276595Y0049635D03*
X0276595Y0053135D03*
X0264595Y0046635D03*
X0239095Y0047135D03*
X0216095Y0032135D03*
X0224595Y0030635D03*
X0200595Y0025135D03*
X0190595Y0033135D03*
X0186095Y0035635D03*
X0185095Y0030135D03*
X0180095Y0031635D03*
X0174095Y0033635D03*
X0174595Y0037635D03*
X0180095Y0041635D03*
X0164595Y0040135D03*
X0164595Y0037135D03*
X0164095Y0032135D03*
X0164095Y0027635D03*
X0161595Y0024135D03*
X0161595Y0021135D03*
X0165595Y0020135D03*
X0161595Y0018135D03*
X0161595Y0014135D03*
X0159095Y0012635D03*
X0150095Y0012635D03*
X0150095Y0027635D03*
X0149095Y0038635D03*
X0164595Y0046135D03*
X0149595Y0057135D03*
X0191595Y0072635D03*
X0191595Y0076135D03*
X0191595Y0081135D03*
X0191595Y0084635D03*
X0191595Y0088135D03*
X0199595Y0091635D03*
X0205095Y0091635D03*
X0196095Y0096135D03*
X0194095Y0099135D03*
X0197095Y0101635D03*
X0207595Y0098135D03*
X0210095Y0100135D03*
X0228595Y0102635D03*
X0228095Y0116635D03*
X0223095Y0119135D03*
X0217095Y0117635D03*
X0212595Y0117635D03*
X0242095Y0136635D03*
X0248595Y0140635D03*
X0257595Y0150135D03*
X0246095Y0153635D03*
X0240595Y0157135D03*
X0248095Y0165135D03*
X0252595Y0160635D03*
X0229095Y0160635D03*
X0225595Y0146135D03*
X0211595Y0146135D03*
X0210095Y0138635D03*
X0200095Y0138135D03*
X0165095Y0154135D03*
X0161095Y0154135D03*
X0157095Y0154135D03*
X0153095Y0154135D03*
X0149595Y0154135D03*
X0145595Y0154135D03*
X0141595Y0154135D03*
X0137595Y0154135D03*
X0133595Y0154135D03*
X0120095Y0153135D03*
X0110095Y0144635D03*
X0135595Y0142135D03*
X0182595Y0163135D03*
X0185595Y0163135D03*
X0188595Y0163135D03*
X0191595Y0163135D03*
X0250095Y0127635D03*
X0270095Y0145135D03*
X0282095Y0144635D03*
X0281595Y0135135D03*
X0285095Y0135135D03*
X0296095Y0136135D03*
X0307595Y0144135D03*
X0289595Y0153135D03*
X0304595Y0158135D03*
X0286095Y0112135D03*
X0266095Y0098135D03*
X0232095Y0078135D03*
X0221595Y0087635D03*
X0214095Y0079635D03*
X0206595Y0080135D03*
X0202595Y0071635D03*
X0205595Y0052135D03*
X0174095Y0027635D03*
X0182095Y0025135D03*
X0103595Y0053635D03*
X0084095Y0067135D03*
X0081595Y0077635D03*
X0056595Y0072135D03*
X0055095Y0077635D03*
X0055095Y0064635D03*
X0074095Y0108135D03*
X0083595Y0117635D03*
X0083595Y0129635D03*
X0056595Y0123135D03*
X0055095Y0129635D03*
X0055095Y0117635D03*
X0032595Y0201635D03*
X0338595Y0050135D03*
X0341095Y0052635D03*
X0360595Y0054635D03*
X0360595Y0058635D03*
X0369595Y0048635D03*
X0383595Y0042135D03*
X0397595Y0030135D03*
X0407595Y0044135D03*
X0364595Y0069635D03*
X0357095Y0037635D03*
X0349095Y0027635D03*
X0353095Y0024635D03*
X0336595Y0022135D03*
X0327095Y0021635D03*
X0322595Y0020635D03*
X0315595Y0020635D03*
X0317595Y0027635D03*
X0324095Y0028635D03*
X0326595Y0031635D03*
X0330595Y0033635D03*
X0321095Y0034135D03*
X0309595Y0029635D03*
X0286595Y0028135D03*
X0279095Y0032135D03*
X0387595Y0015635D03*
X0407595Y0015635D03*
X0097095Y0012635D03*
X0025095Y0012635D03*
D24*
X0103595Y0053635D02*
X0104095Y0053320D01*
X0105410Y0053320D01*
X0106095Y0052635D01*
X0106099Y0051317D01*
X0110036Y0051317D02*
X0110036Y0047423D01*
X0107095Y0043482D01*
X0118095Y0043482D02*
X0118095Y0051131D01*
X0117910Y0051317D01*
X0113973Y0051317D02*
X0113973Y0030860D01*
X0112595Y0029482D01*
X0112595Y0022789D02*
X0112595Y0014635D01*
X0160595Y0014635D01*
X0161095Y0014135D01*
X0161595Y0014135D01*
X0164095Y0016135D02*
X0118095Y0016135D01*
X0118095Y0036789D01*
X0107095Y0036789D02*
X0107095Y0012635D01*
X0150095Y0012635D01*
X0161595Y0018135D02*
X0121847Y0018135D01*
X0121847Y0051317D01*
X0125784Y0051317D02*
X0125784Y0048635D01*
X0125595Y0048635D01*
X0125595Y0021135D01*
X0161595Y0021135D01*
X0161595Y0024135D02*
X0130095Y0024135D01*
X0130095Y0036789D01*
X0130095Y0043328D02*
X0130095Y0043482D01*
X0130095Y0043328D02*
X0129721Y0051317D01*
X0149406Y0051317D02*
X0149406Y0056946D01*
X0149595Y0057135D01*
X0153343Y0051317D02*
X0152595Y0050569D01*
X0152595Y0048135D01*
X0151095Y0046635D01*
X0151095Y0036635D01*
X0152595Y0036135D01*
X0152595Y0035135D01*
X0152442Y0034982D01*
X0152442Y0034635D01*
X0152442Y0034289D01*
X0154595Y0032135D01*
X0164095Y0032135D01*
X0161095Y0036289D02*
X0161749Y0037135D01*
X0164595Y0037135D01*
X0164095Y0039635D02*
X0158095Y0039635D01*
X0155942Y0041789D01*
X0154442Y0042635D01*
X0156095Y0042635D01*
X0157595Y0044135D01*
X0157595Y0051002D01*
X0157280Y0051317D01*
X0161095Y0051194D02*
X0161095Y0042982D01*
X0164095Y0039635D02*
X0164595Y0040135D01*
X0174595Y0037635D02*
X0180095Y0031635D01*
X0178595Y0029135D02*
X0174095Y0033635D01*
X0174095Y0027635D02*
X0174595Y0026135D01*
X0179095Y0026135D01*
X0180595Y0027635D01*
X0186595Y0027635D01*
X0190595Y0031635D01*
X0190595Y0033135D01*
X0186095Y0035635D02*
X0180095Y0041635D01*
X0165095Y0046635D02*
X0164595Y0046135D01*
X0165095Y0046635D02*
X0165095Y0051257D01*
X0165154Y0051317D01*
X0161217Y0051317D02*
X0161095Y0051194D01*
X0149249Y0040982D02*
X0149095Y0041135D01*
X0147749Y0042635D01*
X0149249Y0040982D02*
X0149249Y0038789D01*
X0149095Y0038635D01*
X0146095Y0036135D01*
X0145749Y0034635D01*
X0150095Y0027635D02*
X0164095Y0027635D01*
X0178595Y0029135D02*
X0184095Y0029135D01*
X0185095Y0030135D01*
X0182095Y0025135D02*
X0180595Y0021982D01*
X0187249Y0015293D02*
X0187595Y0015139D01*
X0187595Y0015135D01*
X0200595Y0015289D02*
X0200749Y0015135D01*
X0202595Y0015135D01*
X0202690Y0015230D01*
X0209595Y0015230D01*
X0200595Y0021982D02*
X0200595Y0025135D01*
X0209595Y0027041D02*
X0209595Y0035135D01*
X0209107Y0035624D01*
X0208595Y0035624D01*
X0216095Y0032135D02*
X0217595Y0030635D01*
X0221095Y0030635D01*
X0223595Y0028135D01*
X0225595Y0028135D01*
X0226595Y0029135D01*
X0275595Y0029135D01*
X0281095Y0023635D01*
X0326095Y0023635D01*
X0341095Y0038635D01*
X0341095Y0052635D01*
X0338595Y0050135D02*
X0338595Y0038635D01*
X0325095Y0025135D01*
X0282595Y0025135D01*
X0277095Y0030635D01*
X0224595Y0030635D01*
X0220595Y0035135D02*
X0219595Y0035135D01*
X0213595Y0041135D01*
X0200595Y0041135D01*
X0195595Y0045635D01*
X0195595Y0092135D01*
X0192595Y0095135D01*
X0192595Y0097635D01*
X0194095Y0099135D01*
X0196095Y0096135D02*
X0256095Y0096135D01*
X0266595Y0084635D01*
X0279095Y0084135D01*
X0280095Y0082482D01*
X0284595Y0085135D02*
X0274595Y0095135D01*
X0262595Y0095135D01*
X0255095Y0102635D01*
X0254095Y0098635D02*
X0248095Y0098635D01*
X0262595Y0101789D02*
X0265249Y0099135D01*
X0266095Y0098135D01*
X0262595Y0108482D02*
X0262595Y0111635D01*
X0265595Y0113635D02*
X0266095Y0114135D01*
X0266095Y0123635D01*
X0269095Y0126635D01*
X0271595Y0126635D01*
X0277095Y0132135D01*
X0277095Y0138635D01*
X0278595Y0140135D01*
X0278595Y0140289D01*
X0282095Y0144635D02*
X0279749Y0146982D01*
X0278595Y0146982D01*
X0270335Y0145376D02*
X0270095Y0145135D01*
X0285249Y0140135D02*
X0285249Y0135482D01*
X0285095Y0135135D01*
X0281595Y0135135D02*
X0281595Y0132789D01*
X0284249Y0130135D01*
X0282595Y0130135D01*
X0282595Y0123482D01*
X0280595Y0124635D01*
X0274595Y0124635D01*
X0271595Y0123482D01*
X0269942Y0123482D01*
X0268095Y0122635D01*
X0264095Y0124135D02*
X0264095Y0115635D01*
X0255595Y0115635D01*
X0251095Y0111135D01*
X0255095Y0109635D02*
X0255095Y0107635D01*
X0255095Y0109635D02*
X0259095Y0113635D01*
X0265595Y0113635D01*
X0268095Y0114135D02*
X0272249Y0116789D01*
X0271595Y0116789D01*
X0278595Y0113135D02*
X0278595Y0122635D01*
X0282595Y0116789D02*
X0286095Y0112135D01*
X0282095Y0109635D02*
X0278595Y0113135D01*
X0282095Y0109635D02*
X0306335Y0109635D01*
X0306335Y0115635D01*
X0320095Y0115635D01*
X0322095Y0113635D01*
X0322095Y0108135D01*
X0319595Y0105635D01*
X0319595Y0105135D01*
X0318595Y0109135D02*
X0319595Y0109635D01*
X0318595Y0109135D02*
X0317595Y0110135D01*
X0315942Y0110135D01*
X0309249Y0110135D02*
X0309249Y0106289D01*
X0307595Y0104635D01*
X0297595Y0105135D02*
X0200595Y0105135D01*
X0197095Y0101635D01*
X0199595Y0091635D02*
X0205095Y0091635D01*
X0191595Y0088135D02*
X0191406Y0088324D01*
X0186414Y0088324D01*
X0186414Y0084387D02*
X0191595Y0084387D01*
X0191595Y0084635D01*
X0191595Y0081135D02*
X0191595Y0080450D01*
X0186414Y0080450D01*
X0186414Y0076513D02*
X0191473Y0076513D01*
X0191595Y0076135D01*
X0191595Y0072635D02*
X0186473Y0072635D01*
X0186414Y0072576D01*
X0202595Y0071635D02*
X0257095Y0071635D01*
X0266595Y0081135D01*
X0280095Y0075789D02*
X0281595Y0072135D01*
X0287095Y0066635D02*
X0351595Y0066635D01*
X0353095Y0067635D01*
X0368595Y0083635D01*
X0368595Y0088635D01*
X0357595Y0100135D01*
X0357595Y0115135D01*
X0370095Y0127635D01*
X0376749Y0127635D01*
X0383442Y0127635D02*
X0388595Y0122635D01*
X0389095Y0126135D02*
X0388595Y0127135D01*
X0388595Y0135135D01*
X0383249Y0135135D01*
X0382095Y0136289D01*
X0388595Y0135135D02*
X0390249Y0136789D01*
X0390249Y0137135D01*
X0396942Y0137135D02*
X0398095Y0138289D01*
X0398095Y0142135D01*
X0384595Y0142135D01*
X0383749Y0142982D01*
X0382095Y0142982D01*
X0371595Y0155135D02*
X0364595Y0155135D01*
X0363095Y0158635D02*
X0373095Y0158635D01*
X0375095Y0160635D01*
X0375095Y0171635D01*
X0374595Y0172135D01*
X0186095Y0172135D01*
X0185595Y0171635D01*
X0185595Y0163135D01*
X0182595Y0163135D02*
X0182595Y0173135D01*
X0183095Y0173635D01*
X0381095Y0173635D01*
X0381595Y0173135D01*
X0381595Y0160135D01*
X0371595Y0155135D01*
X0363095Y0158635D02*
X0360595Y0161135D01*
X0357595Y0160135D02*
X0356209Y0160135D01*
X0358095Y0163135D02*
X0371595Y0163135D01*
X0372095Y0163635D01*
X0372095Y0168635D01*
X0371595Y0169135D01*
X0192095Y0169135D01*
X0191595Y0168635D01*
X0191595Y0163135D01*
X0188595Y0163135D02*
X0188595Y0170135D01*
X0189095Y0170635D01*
X0373095Y0170635D01*
X0373595Y0170135D01*
X0373595Y0161635D01*
X0373095Y0161135D01*
X0370095Y0161135D01*
X0370095Y0165135D02*
X0248095Y0165135D01*
X0250595Y0158135D02*
X0304595Y0158135D01*
X0313595Y0156135D02*
X0276595Y0156135D01*
X0275095Y0154635D01*
X0275095Y0132635D01*
X0271095Y0128635D01*
X0268595Y0128635D01*
X0264095Y0124135D01*
X0261595Y0118135D02*
X0238095Y0118135D01*
X0234595Y0121635D01*
X0234595Y0130135D01*
X0229095Y0135635D01*
X0229095Y0141135D01*
X0228595Y0141635D01*
X0247595Y0136828D02*
X0248595Y0137828D01*
X0248595Y0140635D01*
X0246095Y0153635D02*
X0250595Y0158135D01*
X0240595Y0157135D02*
X0239095Y0158635D01*
X0172595Y0158635D01*
X0170595Y0156482D01*
X0170249Y0155635D01*
X0168942Y0155659D01*
X0169091Y0148954D01*
X0165154Y0148954D02*
X0165095Y0149013D01*
X0165095Y0154135D01*
X0161095Y0154135D02*
X0161095Y0149076D01*
X0161217Y0148954D01*
X0157280Y0148954D02*
X0157280Y0153950D01*
X0157278Y0153976D01*
X0157273Y0154002D01*
X0157263Y0154027D01*
X0157251Y0154050D01*
X0157235Y0154071D01*
X0157216Y0154090D01*
X0157195Y0154106D01*
X0157172Y0154118D01*
X0157147Y0154128D01*
X0157121Y0154133D01*
X0157095Y0154135D01*
X0153343Y0153887D02*
X0153343Y0148954D01*
X0149406Y0148954D02*
X0149406Y0153946D01*
X0149408Y0153973D01*
X0149414Y0153999D01*
X0149423Y0154025D01*
X0149436Y0154048D01*
X0149452Y0154070D01*
X0149471Y0154089D01*
X0149493Y0154105D01*
X0149516Y0154118D01*
X0149542Y0154127D01*
X0149568Y0154133D01*
X0149595Y0154135D01*
X0153095Y0154135D02*
X0153125Y0154133D01*
X0153154Y0154128D01*
X0153183Y0154119D01*
X0153210Y0154107D01*
X0153236Y0154091D01*
X0153259Y0154073D01*
X0153281Y0154051D01*
X0153299Y0154028D01*
X0153315Y0154002D01*
X0153327Y0153975D01*
X0153336Y0153946D01*
X0153341Y0153917D01*
X0153343Y0153887D01*
X0145595Y0154135D02*
X0145575Y0154133D01*
X0145556Y0154129D01*
X0145538Y0154121D01*
X0145521Y0154111D01*
X0145506Y0154098D01*
X0145493Y0154083D01*
X0145483Y0154066D01*
X0145475Y0154048D01*
X0145471Y0154029D01*
X0145469Y0154009D01*
X0145469Y0148954D01*
X0141532Y0148954D02*
X0141532Y0154072D01*
X0141534Y0154086D01*
X0141538Y0154099D01*
X0141546Y0154111D01*
X0141556Y0154121D01*
X0141568Y0154129D01*
X0141581Y0154133D01*
X0141595Y0154135D01*
X0137595Y0154135D02*
X0137595Y0148954D01*
X0133658Y0148954D02*
X0133658Y0154072D01*
X0133656Y0154086D01*
X0133652Y0154099D01*
X0133644Y0154111D01*
X0133634Y0154121D01*
X0133622Y0154129D01*
X0133609Y0154133D01*
X0133595Y0154135D01*
X0129721Y0148954D02*
X0129721Y0143009D01*
X0130595Y0142135D01*
X0135595Y0142135D01*
X0125784Y0148954D02*
X0125595Y0149143D01*
X0121847Y0148954D02*
X0121595Y0150202D01*
X0118095Y0149139D02*
X0117910Y0148954D01*
X0088776Y0111946D02*
X0088465Y0111635D01*
X0080942Y0111635D01*
X0074249Y0111635D02*
X0074095Y0111635D01*
X0074095Y0108135D01*
X0200095Y0138135D02*
X0208095Y0130135D01*
X0212595Y0130135D01*
X0212595Y0117635D01*
X0217095Y0117635D01*
X0213095Y0117635D02*
X0212595Y0117635D01*
X0247595Y0123443D02*
X0247595Y0125135D01*
X0289595Y0124635D02*
X0291095Y0126635D01*
X0290942Y0126982D01*
X0290942Y0130135D01*
X0292595Y0130135D01*
X0291095Y0131635D01*
X0291095Y0141135D01*
X0291942Y0140289D01*
X0291942Y0140135D01*
X0296095Y0136135D02*
X0299249Y0140135D01*
X0305942Y0140135D02*
X0306335Y0115635D01*
X0297595Y0116789D02*
X0293595Y0118635D01*
X0299095Y0121135D02*
X0299095Y0122376D01*
X0297595Y0123482D01*
X0289595Y0122982D02*
X0289595Y0124635D01*
X0311095Y0131135D02*
X0314249Y0131135D01*
X0320942Y0131135D02*
X0328595Y0131135D01*
X0332595Y0135135D01*
X0316095Y0147135D02*
X0316095Y0153135D01*
X0313595Y0156135D01*
X0316095Y0147135D02*
X0311595Y0142635D01*
X0311595Y0135635D01*
X0307595Y0141395D02*
X0305942Y0140135D01*
X0307595Y0141395D02*
X0307595Y0144135D01*
X0352595Y0125135D02*
X0352595Y0124635D01*
X0374749Y0100135D02*
X0377249Y0097982D01*
X0377095Y0093635D01*
X0377095Y0061635D01*
X0365595Y0050135D01*
X0349095Y0050135D01*
X0338595Y0060635D01*
X0329095Y0060635D01*
X0327095Y0062635D01*
X0320095Y0062635D01*
X0318595Y0064135D01*
X0312749Y0064135D01*
X0309249Y0060135D01*
X0315942Y0060136D02*
X0316021Y0060134D01*
X0316099Y0060129D01*
X0316177Y0060119D01*
X0316255Y0060106D01*
X0316332Y0060089D01*
X0316408Y0060069D01*
X0316483Y0060045D01*
X0316557Y0060018D01*
X0316629Y0059987D01*
X0316700Y0059952D01*
X0316769Y0059914D01*
X0316836Y0059873D01*
X0316901Y0059829D01*
X0316964Y0059782D01*
X0317025Y0059732D01*
X0317083Y0059679D01*
X0317139Y0059623D01*
X0317192Y0059565D01*
X0317242Y0059504D01*
X0317289Y0059441D01*
X0317333Y0059376D01*
X0317374Y0059309D01*
X0317412Y0059240D01*
X0317447Y0059169D01*
X0317478Y0059097D01*
X0317505Y0059023D01*
X0317529Y0058948D01*
X0317549Y0058872D01*
X0317566Y0058795D01*
X0317579Y0058717D01*
X0317589Y0058639D01*
X0317594Y0058561D01*
X0317596Y0058482D01*
X0317595Y0058482D02*
X0317595Y0049135D01*
X0323095Y0044135D01*
X0322595Y0051789D02*
X0328595Y0049635D01*
X0328595Y0052635D02*
X0322595Y0058482D01*
X0328095Y0057635D02*
X0331095Y0055135D01*
X0331095Y0037135D01*
X0327595Y0034135D01*
X0321095Y0034135D01*
X0309595Y0029635D02*
X0307595Y0028135D01*
X0286595Y0028135D01*
X0279095Y0032135D02*
X0277095Y0034135D01*
X0267595Y0034135D01*
X0264595Y0037135D01*
X0264595Y0046635D01*
X0263095Y0050635D02*
X0257595Y0045135D01*
X0263095Y0050635D02*
X0263095Y0062135D01*
X0266395Y0065435D01*
X0267395Y0065435D01*
X0279355Y0057135D02*
X0276595Y0053135D01*
X0276595Y0049635D02*
X0282095Y0052289D01*
X0281095Y0047135D02*
X0286595Y0047135D01*
X0287095Y0047635D01*
X0287095Y0063135D01*
X0284595Y0065635D01*
X0284595Y0085135D01*
X0288249Y0083135D02*
X0288249Y0090135D01*
X0288595Y0090135D01*
X0288595Y0096135D01*
X0292595Y0096135D02*
X0294942Y0090135D01*
X0300095Y0090135D01*
X0304249Y0090135D01*
X0310942Y0090135D02*
X0313095Y0096135D01*
X0317095Y0096135D02*
X0318249Y0091135D01*
X0320595Y0096135D02*
X0324942Y0091135D01*
X0339595Y0085482D02*
X0339595Y0078635D01*
X0338595Y0077635D01*
X0328595Y0077635D01*
X0328095Y0077135D01*
X0328095Y0081135D02*
X0321595Y0075789D01*
X0321595Y0082482D02*
X0323595Y0084135D01*
X0328095Y0084135D01*
X0339595Y0085482D02*
X0344249Y0090135D01*
X0350942Y0090135D02*
X0350942Y0091982D01*
X0352595Y0093635D01*
X0352595Y0083635D02*
X0350942Y0080482D01*
X0350942Y0080135D01*
X0344249Y0080135D02*
X0342595Y0078482D01*
X0342595Y0070135D01*
X0341595Y0069135D01*
X0328095Y0069135D01*
X0305095Y0049635D02*
X0303942Y0050135D01*
X0305095Y0049635D02*
X0305095Y0044135D01*
X0301595Y0044135D02*
X0298595Y0047895D01*
X0297249Y0050135D01*
X0281095Y0047135D02*
X0280595Y0046635D01*
X0280595Y0044635D01*
X0279355Y0057135D02*
X0282095Y0058982D01*
X0295095Y0079135D02*
X0295095Y0082135D01*
X0239095Y0047135D02*
X0239095Y0043635D01*
X0239595Y0042635D01*
X0239595Y0041876D01*
X0240835Y0035135D02*
X0247595Y0035135D01*
X0240835Y0035135D02*
X0239595Y0034395D01*
X0208595Y0046647D02*
X0207595Y0045647D01*
X0205595Y0047647D01*
X0205595Y0052135D01*
X0165595Y0020135D02*
X0165595Y0017635D01*
X0164095Y0016135D01*
X0357095Y0037635D02*
X0362249Y0042789D01*
X0373095Y0042789D01*
X0363595Y0167135D02*
X0352595Y0167135D01*
D25*
X0354595Y0163135D02*
X0250595Y0163135D01*
X0229095Y0141635D01*
X0228595Y0141635D01*
X0198595Y0141635D01*
X0196595Y0139635D01*
X0196595Y0119635D01*
X0196595Y0109635D02*
X0197095Y0109135D01*
X0197095Y0107635D01*
X0193532Y0104072D01*
X0186414Y0104072D01*
X0247595Y0125135D02*
X0250095Y0127635D01*
X0263249Y0140135D02*
X0262855Y0150135D01*
X0257595Y0150135D01*
X0270335Y0150135D02*
X0270335Y0145376D01*
X0269942Y0140135D01*
X0352595Y0157135D02*
X0352902Y0156828D01*
X0357595Y0160135D02*
X0354595Y0163135D01*
X0357595Y0160135D02*
X0358595Y0159135D01*
X0358595Y0121635D01*
X0352838Y0116244D01*
X0352838Y0098892D01*
X0364595Y0086635D01*
X0392355Y0089135D02*
X0393095Y0088135D01*
X0392355Y0089135D02*
X0393355Y0090895D01*
X0394095Y0091635D01*
X0394095Y0094147D01*
X0395083Y0095135D01*
X0395083Y0094635D01*
X0122595Y0152135D02*
X0121595Y0150202D01*
X0088776Y0131631D02*
X0084835Y0129635D01*
X0084780Y0129635D02*
X0088776Y0127694D01*
X0088776Y0119820D02*
X0083595Y0117635D01*
X0088776Y0115883D01*
D26*
X0086347Y0115883D01*
X0083595Y0117635D02*
X0055095Y0117635D01*
X0060095Y0123789D02*
X0067095Y0123789D01*
X0066749Y0123635D01*
X0073442Y0123635D02*
X0075095Y0123789D01*
X0080095Y0123789D01*
X0080127Y0123757D01*
X0088776Y0123757D01*
X0088776Y0119820D02*
X0085780Y0119820D01*
X0084835Y0129635D02*
X0084780Y0129635D01*
X0083595Y0129635D01*
X0080942Y0129635D01*
X0080095Y0130482D01*
X0078095Y0129635D01*
X0061595Y0129635D01*
X0060095Y0130482D01*
X0059249Y0129635D01*
X0055095Y0129635D01*
X0100095Y0149135D02*
X0100095Y0158135D01*
X0098595Y0160635D02*
X0105595Y0167635D01*
X0107595Y0167635D01*
X0107335Y0158635D02*
X0113583Y0158635D01*
X0114083Y0159135D01*
X0114095Y0159135D01*
X0120095Y0153135D01*
X0118095Y0152135D02*
X0122595Y0152135D01*
X0125595Y0152135D01*
X0125107Y0159135D02*
X0127438Y0159135D01*
X0127438Y0167852D01*
X0110036Y0148954D02*
X0110095Y0144635D01*
X0113095Y0144635D02*
X0104595Y0144635D01*
X0100095Y0149135D01*
X0088776Y0076513D02*
X0081595Y0077635D01*
X0055095Y0077635D01*
X0060095Y0072482D02*
X0066749Y0072635D01*
X0073442Y0072635D02*
X0080095Y0072482D01*
X0088776Y0072576D01*
X0088776Y0068639D02*
X0086095Y0068635D01*
X0084095Y0067135D01*
X0080095Y0065789D02*
X0079749Y0065789D01*
X0078595Y0064635D01*
X0059942Y0064635D01*
X0055095Y0064635D01*
X0059942Y0064635D02*
X0059986Y0064671D01*
X0060026Y0064710D01*
X0060065Y0064751D01*
X0060100Y0064795D01*
X0060132Y0064841D01*
X0060161Y0064889D01*
X0060187Y0064939D01*
X0060209Y0064990D01*
X0060227Y0065043D01*
X0060242Y0065098D01*
X0060254Y0065153D01*
X0060261Y0065208D01*
X0060265Y0065264D01*
X0060264Y0065321D01*
X0060260Y0065377D01*
X0060252Y0065432D01*
X0060241Y0065487D01*
X0060225Y0065541D01*
X0060206Y0065594D01*
X0060184Y0065646D01*
X0060158Y0065695D01*
X0060128Y0065743D01*
X0060096Y0065789D01*
X0060095Y0065789D02*
X0061249Y0064635D01*
X0080095Y0065789D02*
X0080254Y0065791D01*
X0080413Y0065797D01*
X0080572Y0065806D01*
X0080730Y0065820D01*
X0080889Y0065837D01*
X0081046Y0065858D01*
X0081203Y0065883D01*
X0081360Y0065911D01*
X0081516Y0065943D01*
X0081671Y0065979D01*
X0081825Y0066019D01*
X0081978Y0066063D01*
X0082130Y0066110D01*
X0082281Y0066160D01*
X0082430Y0066215D01*
X0082578Y0066273D01*
X0082725Y0066334D01*
X0082870Y0066399D01*
X0083014Y0066468D01*
X0083156Y0066540D01*
X0083296Y0066615D01*
X0083434Y0066694D01*
X0083571Y0066776D01*
X0083705Y0066861D01*
X0083837Y0066949D01*
X0083967Y0067041D01*
X0084095Y0067136D01*
X0180595Y0015289D02*
X0187595Y0015135D01*
X0193942Y0015293D02*
X0200595Y0015289D01*
X0347595Y0015135D01*
X0347900Y0015138D01*
X0348205Y0015149D01*
X0348510Y0015168D01*
X0348814Y0015193D01*
X0349117Y0015226D01*
X0349420Y0015267D01*
X0349721Y0015315D01*
X0350021Y0015370D01*
X0350319Y0015433D01*
X0350616Y0015503D01*
X0350912Y0015580D01*
X0351205Y0015664D01*
X0351496Y0015756D01*
X0351785Y0015854D01*
X0352071Y0015960D01*
X0352354Y0016073D01*
X0352635Y0016192D01*
X0352913Y0016319D01*
X0353187Y0016452D01*
X0353458Y0016591D01*
X0353726Y0016738D01*
X0353990Y0016891D01*
X0354250Y0017050D01*
X0354507Y0017215D01*
X0354759Y0017387D01*
X0355006Y0017565D01*
X0355250Y0017749D01*
X0355489Y0017939D01*
X0355723Y0018135D01*
X0355952Y0018336D01*
X0356176Y0018543D01*
X0356395Y0018755D01*
X0356609Y0018973D01*
X0356818Y0019195D01*
X0357021Y0019423D01*
X0357218Y0019656D01*
X0357410Y0019893D01*
X0357596Y0020135D01*
X0382595Y0030135D02*
X0397595Y0030135D01*
X0382595Y0030135D02*
X0381862Y0030188D01*
X0381128Y0030223D01*
X0380394Y0030240D01*
X0379659Y0030239D01*
X0378925Y0030220D01*
X0378191Y0030183D01*
X0377458Y0030129D01*
X0376727Y0030056D01*
X0375998Y0029965D01*
X0375271Y0029857D01*
X0374547Y0029731D01*
X0373827Y0029587D01*
X0373110Y0029425D01*
X0372398Y0029247D01*
X0371689Y0029050D01*
X0370986Y0028837D01*
X0370289Y0028606D01*
X0369597Y0028358D01*
X0368912Y0028094D01*
X0368233Y0027813D01*
X0367561Y0027515D01*
X0366897Y0027201D01*
X0366241Y0026871D01*
X0365592Y0026525D01*
X0364953Y0026163D01*
X0364323Y0025785D01*
X0363702Y0025392D01*
X0363091Y0024985D01*
X0362490Y0024562D01*
X0361899Y0024125D01*
X0361320Y0023673D01*
X0360751Y0023208D01*
X0360194Y0022728D01*
X0359649Y0022235D01*
X0359117Y0021729D01*
X0358596Y0021210D01*
X0358089Y0020679D01*
X0357595Y0020135D01*
D27*
X0373749Y0042135D02*
X0373095Y0042789D01*
X0373749Y0042135D02*
X0383595Y0042135D01*
X0380095Y0045635D02*
X0393442Y0045635D01*
X0395595Y0048789D01*
X0395595Y0055482D02*
X0395595Y0063135D01*
X0395595Y0070789D01*
X0405595Y0073135D02*
X0409442Y0076482D01*
X0409442Y0082135D01*
X0408942Y0082635D01*
X0402249Y0082635D02*
X0401249Y0083635D01*
X0395595Y0083635D01*
X0388942Y0083635D01*
X0388442Y0084135D01*
X0384749Y0080635D02*
X0393442Y0078635D01*
X0395595Y0077482D01*
X0384749Y0080635D02*
X0381749Y0084135D01*
X0377249Y0049482D02*
X0373095Y0049482D01*
X0370442Y0049482D01*
X0369595Y0048635D01*
X0377249Y0049482D02*
X0380095Y0045635D01*
X0209107Y0047647D02*
X0208595Y0046647D01*
X0118095Y0149139D02*
X0118095Y0152135D01*
D28*
X0056595Y0131635D02*
X0056595Y0127694D01*
X0056142Y0127241D01*
X0055912Y0126687D01*
X0055889Y0126687D01*
X0055632Y0126580D01*
X0055168Y0126580D01*
X0054840Y0126252D01*
X0054584Y0126146D01*
X0053585Y0125147D01*
X0053478Y0124890D01*
X0053150Y0124562D01*
X0053150Y0124098D01*
X0053044Y0123842D01*
X0053044Y0122429D01*
X0053150Y0122172D01*
X0053150Y0121709D01*
X0053478Y0121380D01*
X0053585Y0121124D01*
X0054584Y0120125D01*
X0054840Y0120019D01*
X0055168Y0119691D01*
X0055632Y0119691D01*
X0055889Y0119584D01*
X0056595Y0119584D01*
X0056595Y0116135D01*
X0050095Y0116135D01*
X0032595Y0194135D01*
X0031672Y0194085D01*
X0030754Y0194196D01*
X0029870Y0194464D01*
X0029045Y0194882D01*
X0028305Y0195436D01*
X0027674Y0196111D01*
X0027168Y0196885D01*
X0026805Y0197735D01*
X0026595Y0198635D01*
X0030573Y0198635D01*
X0030584Y0198625D01*
X0030840Y0198519D01*
X0031168Y0198191D01*
X0031632Y0198191D01*
X0031889Y0198084D01*
X0038219Y0198084D01*
X0051595Y0138635D01*
X0056595Y0131635D01*
X0056534Y0131721D02*
X0046598Y0131721D01*
X0046686Y0131329D02*
X0056595Y0131329D01*
X0056595Y0130937D02*
X0046774Y0130937D01*
X0046862Y0130545D02*
X0056595Y0130545D01*
X0056595Y0130152D02*
X0046950Y0130152D01*
X0047038Y0129760D02*
X0056595Y0129760D01*
X0056595Y0129368D02*
X0047126Y0129368D01*
X0047214Y0128976D02*
X0056595Y0128976D01*
X0056595Y0128583D02*
X0047302Y0128583D01*
X0047390Y0128191D02*
X0056595Y0128191D01*
X0056595Y0127799D02*
X0047478Y0127799D01*
X0047566Y0127407D02*
X0056308Y0127407D01*
X0056048Y0127015D02*
X0047654Y0127015D01*
X0047742Y0126622D02*
X0055734Y0126622D01*
X0054787Y0126230D02*
X0047830Y0126230D01*
X0047918Y0125838D02*
X0054276Y0125838D01*
X0053883Y0125446D02*
X0048006Y0125446D01*
X0048094Y0125054D02*
X0053546Y0125054D01*
X0053249Y0124661D02*
X0048182Y0124661D01*
X0048270Y0124269D02*
X0053150Y0124269D01*
X0053059Y0123877D02*
X0048358Y0123877D01*
X0048446Y0123485D02*
X0053044Y0123485D01*
X0053044Y0123093D02*
X0048534Y0123093D01*
X0048622Y0122700D02*
X0053044Y0122700D01*
X0053094Y0122308D02*
X0048710Y0122308D01*
X0048798Y0121916D02*
X0053150Y0121916D01*
X0053335Y0121524D02*
X0048886Y0121524D01*
X0048974Y0121131D02*
X0053581Y0121131D01*
X0053969Y0120739D02*
X0049062Y0120739D01*
X0049150Y0120347D02*
X0054361Y0120347D01*
X0054904Y0119955D02*
X0049238Y0119955D01*
X0049326Y0119563D02*
X0056595Y0119563D01*
X0056595Y0119170D02*
X0049414Y0119170D01*
X0049502Y0118778D02*
X0056595Y0118778D01*
X0056595Y0118386D02*
X0049590Y0118386D01*
X0049678Y0117994D02*
X0056595Y0117994D01*
X0056595Y0117602D02*
X0049766Y0117602D01*
X0049854Y0117209D02*
X0056595Y0117209D01*
X0056595Y0116817D02*
X0049942Y0116817D01*
X0050030Y0116425D02*
X0056595Y0116425D01*
X0056254Y0132113D02*
X0046510Y0132113D01*
X0046422Y0132506D02*
X0055974Y0132506D01*
X0055693Y0132898D02*
X0046334Y0132898D01*
X0046246Y0133290D02*
X0055413Y0133290D01*
X0055133Y0133682D02*
X0046158Y0133682D01*
X0046070Y0134074D02*
X0054853Y0134074D01*
X0054573Y0134467D02*
X0045982Y0134467D01*
X0045894Y0134859D02*
X0054293Y0134859D01*
X0054013Y0135251D02*
X0045806Y0135251D01*
X0045718Y0135643D02*
X0053732Y0135643D01*
X0053452Y0136036D02*
X0045630Y0136036D01*
X0045542Y0136428D02*
X0053172Y0136428D01*
X0052892Y0136820D02*
X0045454Y0136820D01*
X0045366Y0137212D02*
X0052612Y0137212D01*
X0052332Y0137604D02*
X0045278Y0137604D01*
X0045190Y0137997D02*
X0052051Y0137997D01*
X0051771Y0138389D02*
X0045102Y0138389D01*
X0045014Y0138781D02*
X0051562Y0138781D01*
X0051474Y0139173D02*
X0044926Y0139173D01*
X0044838Y0139565D02*
X0051386Y0139565D01*
X0051298Y0139958D02*
X0044750Y0139958D01*
X0044662Y0140350D02*
X0051209Y0140350D01*
X0051121Y0140742D02*
X0044574Y0140742D01*
X0044486Y0141134D02*
X0051033Y0141134D01*
X0050945Y0141526D02*
X0044398Y0141526D01*
X0044310Y0141919D02*
X0050856Y0141919D01*
X0050768Y0142311D02*
X0044222Y0142311D01*
X0044134Y0142703D02*
X0050680Y0142703D01*
X0050592Y0143095D02*
X0044046Y0143095D01*
X0043958Y0143488D02*
X0050503Y0143488D01*
X0050415Y0143880D02*
X0043870Y0143880D01*
X0043782Y0144272D02*
X0050327Y0144272D01*
X0050239Y0144664D02*
X0043694Y0144664D01*
X0043606Y0145056D02*
X0050150Y0145056D01*
X0050062Y0145449D02*
X0043518Y0145449D01*
X0043430Y0145841D02*
X0049974Y0145841D01*
X0049886Y0146233D02*
X0043342Y0146233D01*
X0043254Y0146625D02*
X0049797Y0146625D01*
X0049709Y0147017D02*
X0043166Y0147017D01*
X0043078Y0147410D02*
X0049621Y0147410D01*
X0049533Y0147802D02*
X0042990Y0147802D01*
X0042902Y0148194D02*
X0049444Y0148194D01*
X0049356Y0148586D02*
X0042815Y0148586D01*
X0042727Y0148979D02*
X0049268Y0148979D01*
X0049180Y0149371D02*
X0042639Y0149371D01*
X0042551Y0149763D02*
X0049091Y0149763D01*
X0049003Y0150155D02*
X0042463Y0150155D01*
X0042375Y0150547D02*
X0048915Y0150547D01*
X0048827Y0150940D02*
X0042287Y0150940D01*
X0042199Y0151332D02*
X0048738Y0151332D01*
X0048650Y0151724D02*
X0042111Y0151724D01*
X0042023Y0152116D02*
X0048562Y0152116D01*
X0048474Y0152508D02*
X0041935Y0152508D01*
X0041847Y0152901D02*
X0048385Y0152901D01*
X0048297Y0153293D02*
X0041759Y0153293D01*
X0041671Y0153685D02*
X0048209Y0153685D01*
X0048121Y0154077D02*
X0041583Y0154077D01*
X0041495Y0154469D02*
X0048032Y0154469D01*
X0047944Y0154862D02*
X0041407Y0154862D01*
X0041319Y0155254D02*
X0047856Y0155254D01*
X0047768Y0155646D02*
X0041231Y0155646D01*
X0041143Y0156038D02*
X0047679Y0156038D01*
X0047591Y0156431D02*
X0041055Y0156431D01*
X0040967Y0156823D02*
X0047503Y0156823D01*
X0047415Y0157215D02*
X0040879Y0157215D01*
X0040791Y0157607D02*
X0047326Y0157607D01*
X0047238Y0157999D02*
X0040703Y0157999D01*
X0040615Y0158392D02*
X0047150Y0158392D01*
X0047062Y0158784D02*
X0040527Y0158784D01*
X0040439Y0159176D02*
X0046973Y0159176D01*
X0046885Y0159568D02*
X0040351Y0159568D01*
X0040263Y0159960D02*
X0046797Y0159960D01*
X0046709Y0160353D02*
X0040175Y0160353D01*
X0040087Y0160745D02*
X0046621Y0160745D01*
X0046532Y0161137D02*
X0039999Y0161137D01*
X0039911Y0161529D02*
X0046444Y0161529D01*
X0046356Y0161922D02*
X0039823Y0161922D01*
X0039735Y0162314D02*
X0046268Y0162314D01*
X0046179Y0162706D02*
X0039647Y0162706D01*
X0039559Y0163098D02*
X0046091Y0163098D01*
X0046003Y0163490D02*
X0039471Y0163490D01*
X0039383Y0163883D02*
X0045915Y0163883D01*
X0045826Y0164275D02*
X0039295Y0164275D01*
X0039207Y0164667D02*
X0045738Y0164667D01*
X0045650Y0165059D02*
X0039119Y0165059D01*
X0039031Y0165451D02*
X0045562Y0165451D01*
X0045473Y0165844D02*
X0038943Y0165844D01*
X0038855Y0166236D02*
X0045385Y0166236D01*
X0045297Y0166628D02*
X0038767Y0166628D01*
X0038679Y0167020D02*
X0045209Y0167020D01*
X0045120Y0167412D02*
X0038591Y0167412D01*
X0038503Y0167805D02*
X0045032Y0167805D01*
X0044944Y0168197D02*
X0038415Y0168197D01*
X0038327Y0168589D02*
X0044856Y0168589D01*
X0044767Y0168981D02*
X0038239Y0168981D01*
X0038151Y0169374D02*
X0044679Y0169374D01*
X0044591Y0169766D02*
X0038063Y0169766D01*
X0037975Y0170158D02*
X0044503Y0170158D01*
X0044414Y0170550D02*
X0037887Y0170550D01*
X0037799Y0170942D02*
X0044326Y0170942D01*
X0044238Y0171335D02*
X0037711Y0171335D01*
X0037623Y0171727D02*
X0044150Y0171727D01*
X0044061Y0172119D02*
X0037535Y0172119D01*
X0037447Y0172511D02*
X0043973Y0172511D01*
X0043885Y0172903D02*
X0037359Y0172903D01*
X0037271Y0173296D02*
X0043797Y0173296D01*
X0043708Y0173688D02*
X0037183Y0173688D01*
X0037095Y0174080D02*
X0043620Y0174080D01*
X0043532Y0174472D02*
X0037007Y0174472D01*
X0036919Y0174865D02*
X0043444Y0174865D01*
X0043355Y0175257D02*
X0036831Y0175257D01*
X0036743Y0175649D02*
X0043267Y0175649D01*
X0043179Y0176041D02*
X0036655Y0176041D01*
X0036567Y0176433D02*
X0043091Y0176433D01*
X0043002Y0176826D02*
X0036479Y0176826D01*
X0036391Y0177218D02*
X0042914Y0177218D01*
X0042826Y0177610D02*
X0036303Y0177610D01*
X0036215Y0178002D02*
X0042738Y0178002D01*
X0042649Y0178394D02*
X0036127Y0178394D01*
X0036039Y0178787D02*
X0042561Y0178787D01*
X0042473Y0179179D02*
X0035951Y0179179D01*
X0035863Y0179571D02*
X0042385Y0179571D01*
X0042296Y0179963D02*
X0035775Y0179963D01*
X0035687Y0180355D02*
X0042208Y0180355D01*
X0042120Y0180748D02*
X0035599Y0180748D01*
X0035511Y0181140D02*
X0042032Y0181140D01*
X0041943Y0181532D02*
X0035423Y0181532D01*
X0035335Y0181924D02*
X0041855Y0181924D01*
X0041767Y0182317D02*
X0035247Y0182317D01*
X0035159Y0182709D02*
X0041679Y0182709D01*
X0041590Y0183101D02*
X0035071Y0183101D01*
X0034983Y0183493D02*
X0041502Y0183493D01*
X0041414Y0183885D02*
X0034895Y0183885D01*
X0034807Y0184278D02*
X0041326Y0184278D01*
X0041237Y0184670D02*
X0034719Y0184670D01*
X0034631Y0185062D02*
X0041149Y0185062D01*
X0041061Y0185454D02*
X0034543Y0185454D01*
X0034455Y0185846D02*
X0040973Y0185846D01*
X0040884Y0186239D02*
X0034367Y0186239D01*
X0034279Y0186631D02*
X0040796Y0186631D01*
X0040708Y0187023D02*
X0034191Y0187023D01*
X0034103Y0187415D02*
X0040620Y0187415D01*
X0040531Y0187808D02*
X0034015Y0187808D01*
X0033927Y0188200D02*
X0040443Y0188200D01*
X0040355Y0188592D02*
X0033839Y0188592D01*
X0033751Y0188984D02*
X0040267Y0188984D01*
X0040178Y0189376D02*
X0033663Y0189376D01*
X0033575Y0189769D02*
X0040090Y0189769D01*
X0040002Y0190161D02*
X0033487Y0190161D01*
X0033399Y0190553D02*
X0039914Y0190553D01*
X0039825Y0190945D02*
X0033311Y0190945D01*
X0033223Y0191337D02*
X0039737Y0191337D01*
X0039649Y0191730D02*
X0033135Y0191730D01*
X0033047Y0192122D02*
X0039561Y0192122D01*
X0039472Y0192514D02*
X0032959Y0192514D01*
X0032871Y0192906D02*
X0039384Y0192906D01*
X0039296Y0193298D02*
X0032783Y0193298D01*
X0032695Y0193691D02*
X0039208Y0193691D01*
X0039119Y0194083D02*
X0032607Y0194083D01*
X0029847Y0194475D02*
X0039031Y0194475D01*
X0038943Y0194867D02*
X0029073Y0194867D01*
X0028541Y0195260D02*
X0038855Y0195260D01*
X0038766Y0195652D02*
X0028104Y0195652D01*
X0027736Y0196044D02*
X0038678Y0196044D01*
X0038590Y0196436D02*
X0027461Y0196436D01*
X0027205Y0196828D02*
X0038502Y0196828D01*
X0038413Y0197221D02*
X0027025Y0197221D01*
X0026857Y0197613D02*
X0038325Y0197613D01*
X0038237Y0198005D02*
X0026742Y0198005D01*
X0026651Y0198397D02*
X0030962Y0198397D01*
X0051595Y0080135D02*
X0056595Y0079135D01*
X0056595Y0076387D01*
X0056142Y0075934D01*
X0056040Y0075687D01*
X0055889Y0075687D01*
X0055632Y0075580D01*
X0055168Y0075580D01*
X0054840Y0075252D01*
X0054584Y0075146D01*
X0053585Y0074147D01*
X0053478Y0073890D01*
X0053150Y0073562D01*
X0053150Y0073098D01*
X0053044Y0072842D01*
X0053044Y0071429D01*
X0053150Y0071172D01*
X0053150Y0070709D01*
X0053478Y0070380D01*
X0053585Y0070124D01*
X0054584Y0069125D01*
X0054840Y0069019D01*
X0055168Y0068691D01*
X0055632Y0068691D01*
X0055889Y0068584D01*
X0056587Y0068584D01*
X0056595Y0068577D01*
X0056595Y0063635D01*
X0051595Y0060635D01*
X0033347Y0011317D01*
X0028540Y0011317D01*
X0028540Y0011672D01*
X0028646Y0011929D01*
X0028646Y0017504D01*
X0051595Y0080135D01*
X0051527Y0079949D02*
X0052526Y0079949D01*
X0051383Y0079557D02*
X0054487Y0079557D01*
X0056448Y0079165D02*
X0051239Y0079165D01*
X0051096Y0078773D02*
X0056595Y0078773D01*
X0056595Y0078380D02*
X0050952Y0078380D01*
X0050808Y0077988D02*
X0056595Y0077988D01*
X0056595Y0077596D02*
X0050665Y0077596D01*
X0050521Y0077204D02*
X0056595Y0077204D01*
X0056595Y0076811D02*
X0050377Y0076811D01*
X0050233Y0076419D02*
X0056595Y0076419D01*
X0056235Y0076027D02*
X0050090Y0076027D01*
X0049946Y0075635D02*
X0055764Y0075635D01*
X0054817Y0075243D02*
X0049802Y0075243D01*
X0049659Y0074850D02*
X0054288Y0074850D01*
X0053896Y0074458D02*
X0049515Y0074458D01*
X0049371Y0074066D02*
X0053551Y0074066D01*
X0053262Y0073674D02*
X0049228Y0073674D01*
X0049084Y0073282D02*
X0053150Y0073282D01*
X0053064Y0072889D02*
X0048940Y0072889D01*
X0048796Y0072497D02*
X0053044Y0072497D01*
X0053044Y0072105D02*
X0048653Y0072105D01*
X0048509Y0071713D02*
X0053044Y0071713D01*
X0053089Y0071321D02*
X0048365Y0071321D01*
X0048222Y0070928D02*
X0053150Y0070928D01*
X0053323Y0070536D02*
X0048078Y0070536D01*
X0047934Y0070144D02*
X0053576Y0070144D01*
X0053957Y0069752D02*
X0047790Y0069752D01*
X0047647Y0069359D02*
X0054349Y0069359D01*
X0054892Y0068967D02*
X0047503Y0068967D01*
X0047359Y0068575D02*
X0056595Y0068575D01*
X0056595Y0068183D02*
X0047216Y0068183D01*
X0047072Y0067791D02*
X0056595Y0067791D01*
X0056595Y0067398D02*
X0046928Y0067398D01*
X0046784Y0067006D02*
X0056595Y0067006D01*
X0056595Y0066614D02*
X0046641Y0066614D01*
X0046497Y0066222D02*
X0056595Y0066222D01*
X0056595Y0065830D02*
X0046353Y0065830D01*
X0046210Y0065437D02*
X0056595Y0065437D01*
X0056595Y0065045D02*
X0046066Y0065045D01*
X0045922Y0064653D02*
X0056595Y0064653D01*
X0056595Y0064261D02*
X0045778Y0064261D01*
X0045635Y0063868D02*
X0056595Y0063868D01*
X0056330Y0063476D02*
X0045491Y0063476D01*
X0045347Y0063084D02*
X0055676Y0063084D01*
X0055023Y0062692D02*
X0045204Y0062692D01*
X0045060Y0062300D02*
X0054369Y0062300D01*
X0053715Y0061907D02*
X0044916Y0061907D01*
X0044772Y0061515D02*
X0053061Y0061515D01*
X0052408Y0061123D02*
X0044629Y0061123D01*
X0044485Y0060731D02*
X0051754Y0060731D01*
X0051485Y0060339D02*
X0044341Y0060339D01*
X0044198Y0059946D02*
X0051340Y0059946D01*
X0051195Y0059554D02*
X0044054Y0059554D01*
X0043910Y0059162D02*
X0051050Y0059162D01*
X0050905Y0058770D02*
X0043766Y0058770D01*
X0043623Y0058378D02*
X0050760Y0058378D01*
X0050615Y0057985D02*
X0043479Y0057985D01*
X0043335Y0057593D02*
X0050469Y0057593D01*
X0050324Y0057201D02*
X0043192Y0057201D01*
X0043048Y0056809D02*
X0050179Y0056809D01*
X0050034Y0056416D02*
X0042904Y0056416D01*
X0042761Y0056024D02*
X0049889Y0056024D01*
X0049744Y0055632D02*
X0042617Y0055632D01*
X0042473Y0055240D02*
X0049599Y0055240D01*
X0049454Y0054848D02*
X0042329Y0054848D01*
X0042186Y0054455D02*
X0049309Y0054455D01*
X0049163Y0054063D02*
X0042042Y0054063D01*
X0041898Y0053671D02*
X0049018Y0053671D01*
X0048873Y0053279D02*
X0041755Y0053279D01*
X0041611Y0052887D02*
X0048728Y0052887D01*
X0048583Y0052494D02*
X0041467Y0052494D01*
X0041323Y0052102D02*
X0048438Y0052102D01*
X0048293Y0051710D02*
X0041180Y0051710D01*
X0041036Y0051318D02*
X0048148Y0051318D01*
X0048002Y0050925D02*
X0040892Y0050925D01*
X0040749Y0050533D02*
X0047857Y0050533D01*
X0047712Y0050141D02*
X0040605Y0050141D01*
X0040461Y0049749D02*
X0047567Y0049749D01*
X0047422Y0049357D02*
X0040317Y0049357D01*
X0040174Y0048964D02*
X0047277Y0048964D01*
X0047132Y0048572D02*
X0040030Y0048572D01*
X0039886Y0048180D02*
X0046987Y0048180D01*
X0046842Y0047788D02*
X0039743Y0047788D01*
X0039599Y0047396D02*
X0046696Y0047396D01*
X0046551Y0047003D02*
X0039455Y0047003D01*
X0039311Y0046611D02*
X0046406Y0046611D01*
X0046261Y0046219D02*
X0039168Y0046219D01*
X0039024Y0045827D02*
X0046116Y0045827D01*
X0045971Y0045435D02*
X0038880Y0045435D01*
X0038737Y0045042D02*
X0045826Y0045042D01*
X0045681Y0044650D02*
X0038593Y0044650D01*
X0038449Y0044258D02*
X0045535Y0044258D01*
X0045390Y0043866D02*
X0038305Y0043866D01*
X0038162Y0043473D02*
X0045245Y0043473D01*
X0045100Y0043081D02*
X0038018Y0043081D01*
X0037874Y0042689D02*
X0044955Y0042689D01*
X0044810Y0042297D02*
X0037731Y0042297D01*
X0037587Y0041905D02*
X0044665Y0041905D01*
X0044520Y0041512D02*
X0037443Y0041512D01*
X0037299Y0041120D02*
X0044375Y0041120D01*
X0044229Y0040728D02*
X0037156Y0040728D01*
X0037012Y0040336D02*
X0044084Y0040336D01*
X0043939Y0039944D02*
X0036868Y0039944D01*
X0036725Y0039551D02*
X0043794Y0039551D01*
X0043649Y0039159D02*
X0036581Y0039159D01*
X0036437Y0038767D02*
X0043504Y0038767D01*
X0043359Y0038375D02*
X0036293Y0038375D01*
X0036150Y0037982D02*
X0043214Y0037982D01*
X0043068Y0037590D02*
X0036006Y0037590D01*
X0035862Y0037198D02*
X0042923Y0037198D01*
X0042778Y0036806D02*
X0035719Y0036806D01*
X0035575Y0036414D02*
X0042633Y0036414D01*
X0042488Y0036021D02*
X0035431Y0036021D01*
X0035288Y0035629D02*
X0042343Y0035629D01*
X0042198Y0035237D02*
X0035144Y0035237D01*
X0035000Y0034845D02*
X0042053Y0034845D01*
X0041907Y0034453D02*
X0034856Y0034453D01*
X0034713Y0034060D02*
X0041762Y0034060D01*
X0041617Y0033668D02*
X0034569Y0033668D01*
X0034425Y0033276D02*
X0041472Y0033276D01*
X0041327Y0032884D02*
X0034282Y0032884D01*
X0034138Y0032492D02*
X0041182Y0032492D01*
X0041037Y0032099D02*
X0033994Y0032099D01*
X0033850Y0031707D02*
X0040892Y0031707D01*
X0040747Y0031315D02*
X0033707Y0031315D01*
X0033563Y0030923D02*
X0040601Y0030923D01*
X0040456Y0030530D02*
X0033419Y0030530D01*
X0033276Y0030138D02*
X0040311Y0030138D01*
X0040166Y0029746D02*
X0033132Y0029746D01*
X0032988Y0029354D02*
X0040021Y0029354D01*
X0039876Y0028962D02*
X0032844Y0028962D01*
X0032701Y0028569D02*
X0039731Y0028569D01*
X0039586Y0028177D02*
X0032557Y0028177D01*
X0032413Y0027785D02*
X0039440Y0027785D01*
X0039295Y0027393D02*
X0032270Y0027393D01*
X0032126Y0027001D02*
X0039150Y0027001D01*
X0039005Y0026608D02*
X0031982Y0026608D01*
X0031838Y0026216D02*
X0038860Y0026216D01*
X0038715Y0025824D02*
X0031695Y0025824D01*
X0031551Y0025432D02*
X0038570Y0025432D01*
X0038425Y0025039D02*
X0031407Y0025039D01*
X0031264Y0024647D02*
X0038280Y0024647D01*
X0038134Y0024255D02*
X0031120Y0024255D01*
X0030976Y0023863D02*
X0037989Y0023863D01*
X0037844Y0023471D02*
X0030832Y0023471D01*
X0030689Y0023078D02*
X0037699Y0023078D01*
X0037554Y0022686D02*
X0030545Y0022686D01*
X0030401Y0022294D02*
X0037409Y0022294D01*
X0037264Y0021902D02*
X0030258Y0021902D01*
X0030114Y0021510D02*
X0037119Y0021510D01*
X0036973Y0021117D02*
X0029970Y0021117D01*
X0029826Y0020725D02*
X0036828Y0020725D01*
X0036683Y0020333D02*
X0029683Y0020333D01*
X0029539Y0019941D02*
X0036538Y0019941D01*
X0036393Y0019549D02*
X0029395Y0019549D01*
X0029252Y0019156D02*
X0036248Y0019156D01*
X0036103Y0018764D02*
X0029108Y0018764D01*
X0028964Y0018372D02*
X0035958Y0018372D01*
X0035813Y0017980D02*
X0028821Y0017980D01*
X0028677Y0017587D02*
X0035667Y0017587D01*
X0035522Y0017195D02*
X0028646Y0017195D01*
X0028646Y0016803D02*
X0035377Y0016803D01*
X0035232Y0016411D02*
X0028646Y0016411D01*
X0028646Y0016019D02*
X0035087Y0016019D01*
X0034942Y0015626D02*
X0028646Y0015626D01*
X0028646Y0015234D02*
X0034797Y0015234D01*
X0034652Y0014842D02*
X0028646Y0014842D01*
X0028646Y0014450D02*
X0034506Y0014450D01*
X0034361Y0014058D02*
X0028646Y0014058D01*
X0028646Y0013665D02*
X0034216Y0013665D01*
X0034071Y0013273D02*
X0028646Y0013273D01*
X0028646Y0012881D02*
X0033926Y0012881D01*
X0033781Y0012489D02*
X0028646Y0012489D01*
X0028646Y0012096D02*
X0033636Y0012096D01*
X0033491Y0011704D02*
X0028553Y0011704D01*
D29*
X0125595Y0152135D02*
X0126595Y0153635D01*
X0127595Y0153635D01*
X0127688Y0153626D01*
X0127782Y0153622D01*
X0127875Y0153621D01*
X0127969Y0153624D01*
X0128062Y0153631D01*
X0128155Y0153642D01*
X0128247Y0153657D01*
X0128339Y0153676D01*
X0128430Y0153698D01*
X0128520Y0153724D01*
X0128609Y0153754D01*
X0128696Y0153787D01*
X0128782Y0153824D01*
X0128866Y0153865D01*
X0128949Y0153908D01*
X0129030Y0153956D01*
X0129108Y0154006D01*
X0129185Y0154060D01*
X0129259Y0154117D01*
X0129331Y0154177D01*
X0129400Y0154240D01*
X0129467Y0154306D01*
X0129531Y0154374D01*
X0129592Y0154445D01*
X0129650Y0154518D01*
X0129705Y0154594D01*
X0129757Y0154672D01*
X0129805Y0154752D01*
X0129850Y0154834D01*
X0129892Y0154918D01*
X0129930Y0155003D01*
X0129965Y0155090D01*
X0129996Y0155179D01*
X0130023Y0155268D01*
X0130047Y0155359D01*
X0130067Y0155450D01*
X0130083Y0155542D01*
X0130095Y0155635D01*
X0135095Y0160635D01*
X0229095Y0160635D01*
X0252595Y0160635D02*
X0339288Y0160635D01*
X0342595Y0156828D01*
X0336595Y0153635D02*
X0342595Y0147635D01*
X0342595Y0143443D01*
X0352595Y0143443D01*
X0352902Y0156828D02*
X0356209Y0160135D01*
D30*
X0381595Y0117135D02*
X0381718Y0117122D01*
X0381841Y0117112D01*
X0381964Y0117106D01*
X0382088Y0117104D01*
X0382211Y0117106D01*
X0382335Y0117111D01*
X0382458Y0117120D01*
X0382581Y0117133D01*
X0382703Y0117150D01*
X0382825Y0117171D01*
X0382946Y0117195D01*
X0383066Y0117223D01*
X0383186Y0117254D01*
X0383304Y0117290D01*
X0383421Y0117328D01*
X0383537Y0117371D01*
X0383652Y0117417D01*
X0383765Y0117466D01*
X0383877Y0117519D01*
X0383987Y0117575D01*
X0384095Y0117635D01*
X0386595Y0119135D01*
X0386597Y0119179D01*
X0386603Y0119222D01*
X0386612Y0119264D01*
X0386625Y0119306D01*
X0386642Y0119346D01*
X0386662Y0119385D01*
X0386685Y0119422D01*
X0386712Y0119456D01*
X0386741Y0119489D01*
X0386774Y0119518D01*
X0386808Y0119545D01*
X0386845Y0119568D01*
X0386884Y0119588D01*
X0386924Y0119605D01*
X0386966Y0119618D01*
X0387008Y0119627D01*
X0387051Y0119633D01*
X0387095Y0119635D01*
X0388595Y0116635D02*
X0386335Y0114876D01*
X0381595Y0117135D02*
X0376595Y0117135D01*
X0375942Y0116135D01*
X0369249Y0116135D02*
X0367505Y0114635D01*
X0362595Y0110135D01*
X0362095Y0109135D02*
X0362095Y0099635D01*
X0362505Y0098891D02*
X0371095Y0090135D01*
X0373095Y0091136D02*
X0373151Y0091059D01*
X0373204Y0090981D01*
X0373253Y0090900D01*
X0373300Y0090818D01*
X0373343Y0090733D01*
X0373384Y0090648D01*
X0373420Y0090560D01*
X0373454Y0090472D01*
X0373484Y0090382D01*
X0373510Y0090291D01*
X0373533Y0090199D01*
X0373552Y0090107D01*
X0373568Y0090013D01*
X0373580Y0089919D01*
X0373589Y0089825D01*
X0373594Y0089730D01*
X0373595Y0089636D01*
X0373595Y0089635D02*
X0373595Y0066135D01*
X0371595Y0066135D02*
X0371595Y0089135D01*
X0371587Y0089211D01*
X0371575Y0089287D01*
X0371559Y0089361D01*
X0371539Y0089435D01*
X0371516Y0089508D01*
X0371489Y0089579D01*
X0371458Y0089649D01*
X0371424Y0089718D01*
X0371386Y0089784D01*
X0371345Y0089849D01*
X0371301Y0089911D01*
X0371254Y0089971D01*
X0371204Y0090028D01*
X0371151Y0090083D01*
X0371095Y0090135D01*
X0373095Y0091135D02*
X0364686Y0099880D01*
X0364095Y0101135D02*
X0364095Y0107635D01*
X0362095Y0109135D02*
X0362097Y0109203D01*
X0362102Y0109271D01*
X0362112Y0109339D01*
X0362125Y0109406D01*
X0362141Y0109472D01*
X0362161Y0109537D01*
X0362185Y0109601D01*
X0362212Y0109663D01*
X0362243Y0109724D01*
X0362276Y0109784D01*
X0362313Y0109841D01*
X0362353Y0109896D01*
X0362396Y0109949D01*
X0362442Y0109999D01*
X0362491Y0110047D01*
X0362542Y0110093D01*
X0362595Y0110135D01*
X0365595Y0109635D02*
X0368595Y0109635D01*
X0368749Y0108635D01*
X0369249Y0108135D01*
X0365595Y0109636D02*
X0365512Y0109621D01*
X0365431Y0109602D01*
X0365350Y0109579D01*
X0365270Y0109553D01*
X0365192Y0109523D01*
X0365115Y0109489D01*
X0365040Y0109452D01*
X0364967Y0109411D01*
X0364896Y0109367D01*
X0364827Y0109320D01*
X0364760Y0109269D01*
X0364695Y0109216D01*
X0364633Y0109159D01*
X0364574Y0109100D01*
X0364518Y0109038D01*
X0364465Y0108973D01*
X0364414Y0108906D01*
X0364367Y0108837D01*
X0364323Y0108765D01*
X0364283Y0108692D01*
X0364246Y0108617D01*
X0364213Y0108540D01*
X0364183Y0108462D01*
X0364157Y0108382D01*
X0364134Y0108301D01*
X0364116Y0108219D01*
X0364101Y0108137D01*
X0364090Y0108054D01*
X0364083Y0107970D01*
X0364080Y0107886D01*
X0364081Y0107803D01*
X0364086Y0107719D01*
X0364094Y0107636D01*
X0375942Y0108135D02*
X0382595Y0108135D01*
X0384095Y0107135D01*
X0384095Y0108135D01*
X0384095Y0109135D01*
X0382595Y0108135D01*
X0384095Y0108135D01*
X0384095Y0107135D02*
X0384095Y0104135D01*
X0382595Y0101135D02*
X0381442Y0100135D01*
X0382595Y0101135D02*
X0382690Y0101208D01*
X0382782Y0101285D01*
X0382872Y0101364D01*
X0382959Y0101447D01*
X0383044Y0101531D01*
X0383126Y0101619D01*
X0383205Y0101709D01*
X0383281Y0101802D01*
X0383354Y0101897D01*
X0383424Y0101994D01*
X0383491Y0102094D01*
X0383554Y0102195D01*
X0383615Y0102299D01*
X0383672Y0102405D01*
X0383725Y0102512D01*
X0383776Y0102621D01*
X0383822Y0102731D01*
X0383865Y0102843D01*
X0383905Y0102956D01*
X0383941Y0103071D01*
X0383973Y0103186D01*
X0384001Y0103303D01*
X0384026Y0103420D01*
X0384047Y0103538D01*
X0384064Y0103657D01*
X0384078Y0103776D01*
X0384087Y0103895D01*
X0384093Y0104015D01*
X0384095Y0104135D01*
X0384095Y0109135D02*
X0384095Y0110635D01*
X0384096Y0110635D02*
X0384114Y0110793D01*
X0384136Y0110949D01*
X0384162Y0111106D01*
X0384192Y0111262D01*
X0384226Y0111417D01*
X0384263Y0111571D01*
X0384304Y0111724D01*
X0384350Y0111876D01*
X0384398Y0112026D01*
X0384451Y0112176D01*
X0384507Y0112324D01*
X0384567Y0112471D01*
X0384630Y0112616D01*
X0384697Y0112760D01*
X0384768Y0112902D01*
X0384842Y0113042D01*
X0384920Y0113180D01*
X0385000Y0113317D01*
X0385085Y0113451D01*
X0385172Y0113583D01*
X0385263Y0113713D01*
X0385357Y0113841D01*
X0385454Y0113966D01*
X0385554Y0114089D01*
X0385657Y0114209D01*
X0385763Y0114327D01*
X0385872Y0114442D01*
X0385984Y0114555D01*
X0386099Y0114664D01*
X0386216Y0114771D01*
X0386336Y0114875D01*
X0364095Y0101135D02*
X0364097Y0101056D01*
X0364102Y0100976D01*
X0364112Y0100897D01*
X0364125Y0100819D01*
X0364143Y0100741D01*
X0364164Y0100664D01*
X0364188Y0100589D01*
X0364217Y0100514D01*
X0364249Y0100441D01*
X0364285Y0100370D01*
X0364324Y0100301D01*
X0364366Y0100234D01*
X0364412Y0100168D01*
X0364461Y0100105D01*
X0364513Y0100045D01*
X0364568Y0099987D01*
X0364625Y0099932D01*
X0364685Y0099880D01*
X0362505Y0098891D02*
X0362456Y0098930D01*
X0362409Y0098972D01*
X0362365Y0099016D01*
X0362324Y0099063D01*
X0362286Y0099113D01*
X0362251Y0099165D01*
X0362219Y0099218D01*
X0362191Y0099274D01*
X0362166Y0099332D01*
X0362144Y0099390D01*
X0362126Y0099450D01*
X0362112Y0099511D01*
X0362102Y0099573D01*
X0362096Y0099635D01*
X0371595Y0066135D02*
X0371587Y0066052D01*
X0371575Y0065969D01*
X0371559Y0065887D01*
X0371541Y0065806D01*
X0371518Y0065726D01*
X0371493Y0065646D01*
X0371464Y0065568D01*
X0371432Y0065491D01*
X0371396Y0065416D01*
X0371357Y0065342D01*
X0371316Y0065270D01*
X0371271Y0065199D01*
X0371223Y0065131D01*
X0371172Y0065065D01*
X0371119Y0065001D01*
X0371063Y0064939D01*
X0371004Y0064880D01*
X0371005Y0064880D02*
X0365595Y0059635D01*
X0363760Y0058635D02*
X0360595Y0058635D01*
X0362430Y0054636D02*
X0362519Y0054628D01*
X0362608Y0054623D01*
X0362697Y0054622D01*
X0362787Y0054625D01*
X0362876Y0054631D01*
X0362965Y0054640D01*
X0363053Y0054654D01*
X0363141Y0054671D01*
X0363228Y0054691D01*
X0363314Y0054715D01*
X0363399Y0054743D01*
X0363483Y0054773D01*
X0363565Y0054808D01*
X0363646Y0054845D01*
X0363726Y0054886D01*
X0363803Y0054930D01*
X0363879Y0054977D01*
X0363953Y0055027D01*
X0364025Y0055080D01*
X0364095Y0055136D01*
X0364095Y0055135D02*
X0372686Y0063391D01*
X0372686Y0063390D02*
X0372762Y0063476D01*
X0372835Y0063564D01*
X0372905Y0063655D01*
X0372972Y0063748D01*
X0373036Y0063842D01*
X0373097Y0063939D01*
X0373155Y0064038D01*
X0373210Y0064139D01*
X0373261Y0064241D01*
X0373309Y0064345D01*
X0373354Y0064451D01*
X0373395Y0064558D01*
X0373433Y0064666D01*
X0373467Y0064775D01*
X0373498Y0064885D01*
X0373525Y0064997D01*
X0373548Y0065109D01*
X0373568Y0065222D01*
X0373585Y0065335D01*
X0373597Y0065449D01*
X0373606Y0065563D01*
X0373611Y0065677D01*
X0373613Y0065792D01*
X0373611Y0065906D01*
X0373605Y0066021D01*
X0373596Y0066135D01*
X0365595Y0059635D02*
X0365544Y0059560D01*
X0365491Y0059487D01*
X0365434Y0059416D01*
X0365374Y0059348D01*
X0365311Y0059282D01*
X0365246Y0059219D01*
X0365178Y0059158D01*
X0365108Y0059101D01*
X0365035Y0059046D01*
X0364961Y0058995D01*
X0364884Y0058946D01*
X0364805Y0058901D01*
X0364724Y0058859D01*
X0364642Y0058821D01*
X0364558Y0058786D01*
X0364473Y0058755D01*
X0364387Y0058727D01*
X0364299Y0058703D01*
X0364211Y0058682D01*
X0364122Y0058665D01*
X0364032Y0058652D01*
X0363941Y0058643D01*
X0363851Y0058637D01*
X0363760Y0058635D01*
X0362430Y0054635D02*
X0360595Y0054635D01*
X0125595Y0149143D02*
X0125595Y0152135D01*
X0120095Y0152135D02*
X0120095Y0153135D01*
X0120095Y0152135D02*
X0118095Y0152135D01*
D31*
X0388095Y0106635D02*
X0389034Y0106305D01*
X0389965Y0105953D01*
X0390887Y0105579D01*
X0391800Y0105183D01*
X0392703Y0104766D01*
X0393596Y0104327D01*
X0394479Y0103867D01*
X0395350Y0103386D01*
X0396209Y0102885D01*
X0397056Y0102363D01*
X0397891Y0101821D01*
X0398713Y0101259D01*
X0399520Y0100678D01*
X0400314Y0100078D01*
X0401094Y0099460D01*
X0401858Y0098823D01*
X0402607Y0098168D01*
X0403340Y0097495D01*
X0404057Y0096805D01*
X0404758Y0096098D01*
X0405441Y0095375D01*
X0406107Y0094635D01*
D32*
X0284095Y0201635D02*
X0032595Y0201635D01*
X0025095Y0126635D02*
X0025095Y0012635D01*
X0056595Y0072135D02*
X0060095Y0072135D01*
X0060095Y0072482D01*
X0060095Y0123135D02*
X0056595Y0123135D01*
X0060095Y0123135D02*
X0060095Y0123789D01*
M02*
