G75*
G70*
%OFA0B0*%
%FSLAX24Y24*%
%IPPOS*%
%LPD*%
%AMOC8*
5,1,8,0,0,1.08239X$1,22.5*
%
%ADD10C,0.0740*%
%ADD11C,0.0860*%
%ADD12C,0.0180*%
%ADD13C,0.0500*%
%ADD14C,0.1581*%
D10*
X002160Y002700D03*
X003160Y002700D03*
X004160Y002700D03*
X005160Y002700D03*
X006160Y002700D03*
X007160Y002700D03*
X008160Y002700D03*
X009160Y002700D03*
X010160Y002700D03*
X011160Y002700D03*
X012160Y002700D03*
X013160Y002700D03*
X013160Y003700D03*
X012160Y003700D03*
X011160Y003700D03*
X010160Y003700D03*
X009160Y003700D03*
X008160Y003700D03*
X007160Y003700D03*
X006160Y003700D03*
X005160Y003700D03*
X004160Y003700D03*
X003160Y003700D03*
X002160Y003700D03*
X002160Y004700D03*
X003160Y004700D03*
X004160Y004700D03*
X005160Y004700D03*
X006160Y004700D03*
X007160Y004700D03*
X008160Y004700D03*
X009160Y004700D03*
X010160Y004700D03*
X011160Y004700D03*
X012160Y004700D03*
X013160Y004700D03*
X015660Y005200D03*
X015660Y003700D03*
X019660Y003700D03*
X019660Y005200D03*
X019660Y006700D03*
X019660Y008200D03*
X019660Y009700D03*
X019660Y011200D03*
X019660Y012700D03*
X015660Y012700D03*
X013160Y011700D03*
X012160Y011700D03*
X011160Y011700D03*
X010160Y011700D03*
X009160Y011700D03*
X008160Y011700D03*
X007160Y011700D03*
X006160Y011700D03*
X005160Y011700D03*
X004160Y011700D03*
X003160Y011700D03*
X002160Y011700D03*
X002160Y010700D03*
X003160Y010700D03*
X004160Y010700D03*
X005160Y010700D03*
X006160Y010700D03*
X007160Y010700D03*
X008160Y010700D03*
X009160Y010700D03*
X010160Y010700D03*
X011160Y010700D03*
X012160Y010700D03*
X013160Y010700D03*
X013160Y009700D03*
X012160Y009700D03*
X011160Y009700D03*
X010160Y009700D03*
X009160Y009700D03*
X008160Y009700D03*
X007160Y009700D03*
X006160Y009700D03*
X005160Y009700D03*
X004160Y009700D03*
X003160Y009700D03*
X002160Y009700D03*
X003660Y015200D03*
X007660Y015200D03*
X015660Y011200D03*
X015660Y009700D03*
X015660Y008200D03*
X015660Y006700D03*
D11*
X024660Y003700D03*
X025660Y003700D03*
X026660Y003700D03*
X027660Y003700D03*
X028660Y003700D03*
X029660Y003700D03*
X030660Y003700D03*
X031660Y003700D03*
X032660Y003700D03*
X033660Y003700D03*
X034660Y003700D03*
X035660Y003700D03*
X031060Y009300D03*
X030660Y010700D03*
X031660Y010700D03*
X032660Y010700D03*
X033660Y010700D03*
X034660Y010700D03*
X035660Y010700D03*
X029660Y010700D03*
X028660Y010700D03*
X027660Y010700D03*
X026660Y010700D03*
X025660Y010700D03*
X024660Y010700D03*
D12*
X024060Y010000D02*
X023660Y009600D01*
X019760Y009600D01*
X019660Y009700D01*
X019660Y008200D02*
X021660Y006200D01*
X031160Y006200D01*
X033660Y003700D01*
X032660Y003700D02*
X030660Y005700D01*
X020660Y005700D01*
X019660Y006700D01*
X019660Y005200D02*
X030160Y005200D01*
X031660Y003700D01*
X030660Y003700D02*
X029660Y004700D01*
X020660Y004700D01*
X019660Y003700D01*
X015660Y003700D02*
X013660Y005700D01*
X008160Y005700D01*
X008160Y004700D01*
X008160Y003700D01*
X008160Y002700D01*
X007160Y002700D02*
X007160Y004700D01*
X006160Y004700D02*
X006160Y002700D01*
X005160Y002700D02*
X005160Y004700D01*
X004160Y004700D02*
X004160Y002700D01*
X003860Y001900D02*
X003160Y002700D01*
X003160Y004700D01*
X002160Y004700D02*
X002160Y002700D01*
X003860Y001900D02*
X024960Y001900D01*
X025660Y002600D01*
X025660Y003700D01*
X015660Y005200D02*
X014660Y006200D01*
X009160Y006200D01*
X010160Y006700D02*
X015660Y006700D01*
X014660Y007200D02*
X011160Y007200D01*
X014660Y007200D02*
X015660Y008200D01*
X014660Y008700D02*
X009660Y008700D01*
X009160Y009200D01*
X009160Y009700D01*
X009160Y011700D01*
X010160Y011700D02*
X010160Y009700D01*
X011160Y009700D02*
X011160Y011700D01*
X012160Y011700D02*
X012160Y009700D01*
X013160Y009700D02*
X013160Y011700D01*
X014160Y012700D02*
X010160Y012700D01*
X011160Y013200D02*
X015160Y013200D01*
X015660Y012700D01*
X015660Y011200D02*
X014160Y012700D01*
X019660Y012700D02*
X019766Y012594D01*
X031373Y012594D01*
X033660Y010700D01*
X032660Y010700D02*
X030966Y012094D01*
X020554Y012094D01*
X019660Y011200D01*
X015660Y009700D02*
X014660Y008700D01*
X008160Y009700D02*
X008160Y011700D01*
X007160Y011700D02*
X007160Y009700D01*
X006160Y009700D02*
X006160Y011700D01*
X005160Y011700D02*
X003660Y013200D01*
X003660Y015200D01*
X007660Y015200D02*
X007660Y013700D01*
X007160Y013200D01*
X005160Y011700D02*
X005160Y009700D01*
X004160Y009700D02*
X004160Y011700D01*
X003160Y011700D02*
X003160Y009700D01*
X002160Y009700D02*
X002160Y011700D01*
X009160Y004700D02*
X009160Y002700D01*
X010160Y002700D02*
X010160Y004700D01*
X011160Y004700D02*
X011160Y002700D01*
X012160Y002700D02*
X012160Y004700D01*
X013160Y004700D02*
X013160Y002700D01*
X024060Y010000D02*
X031460Y010000D01*
X031660Y010200D01*
X031660Y010700D01*
D13*
X011160Y013200D03*
X010160Y012700D03*
X007160Y013200D03*
X003660Y013200D03*
X011160Y007200D03*
X010160Y006700D03*
X009160Y006200D03*
D14*
X001459Y001281D03*
X021560Y003700D03*
X021560Y010800D03*
X038160Y010700D03*
X038073Y015061D03*
X038160Y003600D03*
X038073Y001281D03*
X001459Y015061D03*
M02*
