G75*
G70*
%OFA0B0*%
%FSLAX24Y24*%
%IPPOS*%
%LPD*%
%AMOC8*
5,1,8,0,0,1.08239X$1,22.5*
%
%ADD10OC8,0.0600*%
%ADD11OC8,0.0520*%
%ADD12C,0.0600*%
%ADD13R,0.0315X0.1476*%
%ADD14C,0.1250*%
%ADD15C,0.0400*%
%ADD16C,0.0160*%
%ADD17C,0.0240*%
%ADD18C,0.0396*%
D10*
X020625Y009563D03*
X021625Y009563D03*
X022625Y009563D03*
X023625Y009563D03*
X024625Y009563D03*
X025625Y009563D03*
X026625Y009563D03*
X027625Y009563D03*
X028625Y009563D03*
X029625Y009563D03*
X030625Y009563D03*
X031625Y009563D03*
X032625Y009563D03*
X033625Y009563D03*
X034625Y009563D03*
X035625Y009563D03*
X036625Y009563D03*
X037625Y009563D03*
X038625Y009563D03*
X039625Y009563D03*
X039625Y010563D03*
X038625Y010563D03*
X037625Y010563D03*
X036625Y010563D03*
X035625Y010563D03*
X034625Y010563D03*
X033625Y010563D03*
X032625Y010563D03*
X031625Y010563D03*
X030625Y010563D03*
X029625Y010563D03*
X028625Y010563D03*
X027625Y010563D03*
X026625Y010563D03*
X025625Y010563D03*
X024625Y010563D03*
X023625Y010563D03*
X022625Y010563D03*
X021625Y010563D03*
X020625Y010563D03*
X020625Y026663D03*
X021625Y026663D03*
X022625Y026663D03*
X023625Y026663D03*
X024625Y026663D03*
X025625Y026663D03*
X026625Y026663D03*
X027625Y026663D03*
X028625Y026663D03*
X029625Y026663D03*
X030625Y026663D03*
X031625Y026663D03*
X032625Y026663D03*
X033625Y026663D03*
X034625Y026663D03*
X035625Y026663D03*
X036625Y026663D03*
X037625Y026663D03*
X038625Y026663D03*
X039625Y026663D03*
X039625Y027663D03*
X038625Y027663D03*
X037625Y027663D03*
X036625Y027663D03*
X035625Y027663D03*
X034625Y027663D03*
X033625Y027663D03*
X032625Y027663D03*
X031625Y027663D03*
X030625Y027663D03*
X029625Y027663D03*
X028625Y027663D03*
X027625Y027663D03*
X026625Y027663D03*
X025625Y027663D03*
X024625Y027663D03*
X023625Y027663D03*
X022625Y027663D03*
X021625Y027663D03*
X020625Y027663D03*
X003625Y028863D03*
X003625Y029863D03*
X003625Y030863D03*
X002625Y030863D03*
X002625Y029863D03*
X002625Y028863D03*
X002625Y031863D03*
X003625Y031863D03*
X003725Y034863D03*
X003725Y035863D03*
X002725Y035863D03*
X002725Y034863D03*
X051425Y025563D03*
X052425Y025563D03*
X052425Y024563D03*
X051425Y024563D03*
X051425Y023563D03*
X052425Y023563D03*
X052425Y022563D03*
X051425Y022563D03*
X051425Y021563D03*
X052425Y021563D03*
X052425Y020563D03*
X051425Y020563D03*
X051425Y019563D03*
X052425Y019563D03*
X052425Y018563D03*
X051425Y018563D03*
X051425Y017563D03*
X052425Y017563D03*
X052425Y016563D03*
X051425Y016563D03*
X051425Y015563D03*
X052425Y015563D03*
X052425Y014563D03*
X051425Y014563D03*
X051425Y013563D03*
X052425Y013563D03*
X056825Y013563D03*
X057825Y013563D03*
X057825Y012563D03*
X056825Y012563D03*
X056825Y011563D03*
X057825Y011563D03*
X057825Y010563D03*
X056825Y010563D03*
X056825Y009563D03*
X057825Y009563D03*
X057825Y008563D03*
X056825Y008563D03*
D11*
X052625Y005663D03*
X052625Y004663D03*
X051625Y004663D03*
X052625Y003663D03*
X046125Y003663D03*
X046125Y004663D03*
X046125Y005663D03*
X045125Y004663D03*
X039125Y004663D03*
X038125Y004663D03*
X039125Y005663D03*
X039125Y003663D03*
X032125Y003663D03*
X032125Y004663D03*
X032125Y005663D03*
X031125Y004663D03*
X025125Y004663D03*
X024125Y004663D03*
X025125Y005663D03*
X025125Y003663D03*
X018125Y003663D03*
X018125Y004663D03*
X018125Y005663D03*
X017125Y004663D03*
X011125Y004663D03*
X011125Y005663D03*
X010125Y004663D03*
X011125Y003663D03*
D12*
X012825Y003663D02*
X013425Y003663D01*
X013425Y004663D02*
X012825Y004663D01*
X012825Y005663D02*
X013425Y005663D01*
X019825Y005663D02*
X020425Y005663D01*
X020425Y004663D02*
X019825Y004663D01*
X019825Y003663D02*
X020425Y003663D01*
X026825Y003663D02*
X027425Y003663D01*
X027425Y004663D02*
X026825Y004663D01*
X026825Y005663D02*
X027425Y005663D01*
X033825Y005663D02*
X034425Y005663D01*
X034425Y004663D02*
X033825Y004663D01*
X033825Y003663D02*
X034425Y003663D01*
X040825Y003663D02*
X041425Y003663D01*
X041425Y004663D02*
X040825Y004663D01*
X040825Y005663D02*
X041425Y005663D01*
X047825Y005663D02*
X048425Y005663D01*
X048425Y004663D02*
X047825Y004663D01*
X047825Y003663D02*
X048425Y003663D01*
X054125Y003663D02*
X054725Y003663D01*
X054725Y004663D02*
X054125Y004663D01*
X054125Y005663D02*
X054725Y005663D01*
D13*
X044875Y035433D03*
X044375Y035433D03*
X043875Y035433D03*
X043375Y035433D03*
X042875Y035433D03*
X042375Y035433D03*
X041875Y035433D03*
X041375Y035433D03*
X040875Y035433D03*
X040375Y035433D03*
X039875Y035433D03*
X039375Y035433D03*
X038875Y035433D03*
X038375Y035433D03*
X037875Y035433D03*
X037375Y035433D03*
X036875Y035433D03*
X036375Y035433D03*
X035875Y035433D03*
X035375Y035433D03*
X034875Y035433D03*
X034375Y035433D03*
X033875Y035433D03*
X033375Y035433D03*
X032875Y035433D03*
X032375Y035433D03*
X031875Y035433D03*
X031375Y035433D03*
X030875Y035433D03*
X030375Y035433D03*
X029875Y035433D03*
X029375Y035433D03*
X028875Y035433D03*
X028375Y035433D03*
X027875Y035433D03*
X027375Y035433D03*
X026875Y035433D03*
X026375Y035433D03*
X025875Y035433D03*
X025375Y035433D03*
X024875Y035433D03*
X024375Y035433D03*
X023875Y035433D03*
X023375Y035433D03*
X022875Y035433D03*
X022375Y035433D03*
X021875Y035433D03*
X021375Y035433D03*
X020875Y035433D03*
X020375Y035433D03*
X019875Y035433D03*
X019375Y035433D03*
X018875Y035433D03*
X018375Y035433D03*
X017875Y035433D03*
X017375Y035433D03*
X016875Y035433D03*
X016375Y035433D03*
X015875Y035433D03*
X015375Y035433D03*
X015375Y037893D03*
X015875Y037893D03*
X016375Y037893D03*
X016875Y037893D03*
X017375Y037893D03*
X017875Y037893D03*
X018375Y037893D03*
X018875Y037893D03*
X019375Y037893D03*
X019875Y037893D03*
X020375Y037893D03*
X020875Y037893D03*
X021375Y037893D03*
X021875Y037893D03*
X022375Y037893D03*
X022875Y037893D03*
X023375Y037893D03*
X023875Y037893D03*
X024375Y037893D03*
X024875Y037893D03*
X025375Y037893D03*
X025875Y037893D03*
X026375Y037893D03*
X026875Y037893D03*
X027375Y037893D03*
X027875Y037893D03*
X028375Y037893D03*
X028875Y037893D03*
X029375Y037893D03*
X029875Y037893D03*
X030375Y037893D03*
X030875Y037893D03*
X031375Y037893D03*
X031875Y037893D03*
X032375Y037893D03*
X032875Y037893D03*
X033375Y037893D03*
X033875Y037893D03*
X034375Y037893D03*
X034875Y037893D03*
X035375Y037893D03*
X035875Y037893D03*
X036375Y037893D03*
X036875Y037893D03*
X037375Y037893D03*
X037875Y037893D03*
X038375Y037893D03*
X038875Y037893D03*
X039375Y037893D03*
X039875Y037893D03*
X040375Y037893D03*
X040875Y037893D03*
X041375Y037893D03*
X041875Y037893D03*
X042375Y037893D03*
X042875Y037893D03*
X043375Y037893D03*
X043875Y037893D03*
X044375Y037893D03*
X044875Y037893D03*
D14*
X006725Y013913D03*
X006725Y012263D03*
X006725Y010613D03*
D15*
X011325Y012163D03*
X015125Y015163D03*
X016025Y010063D03*
X007625Y005163D03*
X050925Y006063D03*
X042825Y036563D03*
X042325Y036763D03*
X040925Y036763D03*
X040325Y036563D03*
X039825Y036763D03*
X039325Y036563D03*
X038925Y036863D03*
X038425Y036563D03*
X037425Y036863D03*
X036925Y036563D03*
X036425Y036863D03*
X035925Y036563D03*
X035425Y036863D03*
X034925Y036563D03*
X033925Y036863D03*
X033425Y036563D03*
X032925Y036863D03*
X032425Y036563D03*
X031925Y036863D03*
X031325Y036563D03*
X030325Y036863D03*
X029825Y036563D03*
X029325Y036863D03*
X028825Y036563D03*
X028325Y036863D03*
X027825Y036563D03*
X026925Y036863D03*
X026325Y036563D03*
X025825Y036863D03*
X025325Y036563D03*
X024825Y036863D03*
X024325Y036563D03*
X023425Y036763D03*
X022925Y036563D03*
X022425Y036863D03*
X021925Y036563D03*
X021425Y036863D03*
X020925Y036563D03*
X019925Y036563D03*
X019425Y036763D03*
X018925Y036563D03*
X018425Y036763D03*
X017925Y036563D03*
X017425Y036763D03*
D16*
X003514Y002163D02*
X056736Y002163D01*
X056522Y002252D01*
X056522Y002252D01*
X056065Y002602D01*
X056065Y002602D01*
X056065Y002602D01*
X055714Y003059D01*
X055714Y003059D01*
X055493Y003592D01*
X055493Y003592D01*
X055418Y004163D01*
X055418Y004163D01*
X055493Y004734D01*
X055493Y004734D01*
X055714Y005266D01*
X055714Y005266D01*
X056065Y005723D01*
X056065Y005723D01*
X056522Y006074D01*
X056522Y006074D01*
X057054Y006294D01*
X057054Y006294D01*
X057625Y006370D01*
X057625Y006370D01*
X058196Y006294D01*
X058196Y006294D01*
X058728Y006074D01*
X058728Y006074D01*
X059185Y005723D01*
X059185Y005723D01*
X059185Y005723D01*
X059536Y005266D01*
X059536Y005266D01*
X059625Y005052D01*
X059625Y038274D01*
X059536Y038059D01*
X059536Y038059D01*
X059185Y037602D01*
X059185Y037602D01*
X059185Y037602D01*
X058728Y037252D01*
X058728Y037252D01*
X058196Y037031D01*
X058196Y037031D01*
X057625Y036956D01*
X057625Y036956D01*
X057054Y037031D01*
X057054Y037031D01*
X056522Y037252D01*
X056522Y037252D01*
X056065Y037602D01*
X056065Y037602D01*
X056065Y037602D01*
X055714Y038059D01*
X055714Y038059D01*
X055493Y038592D01*
X055493Y038592D01*
X055418Y039163D01*
X055418Y039163D01*
X055493Y039734D01*
X055493Y039734D01*
X055714Y040266D01*
X055714Y040266D01*
X056065Y040723D01*
X056065Y040723D01*
X056522Y041074D01*
X056522Y041074D01*
X056736Y041163D01*
X003514Y041163D01*
X003728Y041074D01*
X003728Y041074D01*
X004185Y040723D01*
X004185Y040723D01*
X004185Y040723D01*
X004536Y040266D01*
X004536Y040266D01*
X004757Y039734D01*
X004757Y039734D01*
X004832Y039163D01*
X004757Y038592D01*
X004757Y038592D01*
X004536Y038059D01*
X004536Y038059D01*
X004185Y037602D01*
X004185Y037602D01*
X004185Y037602D01*
X003728Y037252D01*
X003728Y037252D01*
X003196Y037031D01*
X002625Y036956D01*
X002054Y037031D01*
X001522Y037252D01*
X001065Y037602D01*
X001065Y037602D01*
X000714Y038059D01*
X000714Y038059D01*
X000625Y038274D01*
X000625Y005052D01*
X000714Y005266D01*
X000714Y005266D01*
X001065Y005723D01*
X001065Y005723D01*
X001522Y006074D01*
X001522Y006074D01*
X002054Y006294D01*
X002054Y006294D01*
X002625Y006370D01*
X002625Y006370D01*
X003196Y006294D01*
X003196Y006294D01*
X003728Y006074D01*
X003728Y006074D01*
X004185Y005723D01*
X004185Y005723D01*
X004185Y005723D01*
X004536Y005266D01*
X004536Y005266D01*
X004757Y004734D01*
X004757Y004734D01*
X004832Y004163D01*
X004757Y003592D01*
X004757Y003592D01*
X004536Y003059D01*
X004536Y003059D01*
X004185Y002602D01*
X004185Y002602D01*
X004185Y002602D01*
X003728Y002252D01*
X003728Y002252D01*
X003514Y002163D01*
X003787Y002297D02*
X056463Y002297D01*
X056256Y002455D02*
X003994Y002455D01*
X004194Y002614D02*
X007727Y002614D01*
X007753Y002603D02*
X049797Y002603D01*
X049929Y002658D01*
X051129Y003858D01*
X051230Y003959D01*
X051285Y004091D01*
X051285Y004296D01*
X051418Y004163D01*
X051832Y004163D01*
X052125Y004456D01*
X052418Y004163D01*
X052832Y004163D01*
X053125Y004456D01*
X053125Y004870D01*
X052832Y005163D01*
X053125Y005456D01*
X053125Y005870D01*
X052832Y006163D01*
X052418Y006163D01*
X052125Y005870D01*
X052125Y005456D01*
X052418Y005163D01*
X052832Y005163D01*
X052418Y005163D01*
X052125Y004870D01*
X052125Y004456D01*
X052125Y004870D01*
X051832Y005163D01*
X051418Y005163D01*
X051285Y005030D01*
X051285Y005801D01*
X051298Y005814D01*
X051365Y005975D01*
X051365Y006150D01*
X051302Y006303D01*
X053176Y006303D01*
X053621Y005858D01*
X053585Y005770D01*
X053585Y005555D01*
X053667Y005357D01*
X053819Y005205D01*
X053921Y005163D01*
X053819Y005121D01*
X053667Y004969D01*
X053585Y004770D01*
X053585Y004555D01*
X053667Y004357D01*
X053819Y004205D01*
X054004Y004128D01*
X053941Y004108D01*
X053873Y004073D01*
X053812Y004029D01*
X053759Y003976D01*
X053714Y003914D01*
X053680Y003847D01*
X053657Y003775D01*
X053645Y003701D01*
X053645Y003683D01*
X054405Y003683D01*
X054405Y003643D01*
X053645Y003643D01*
X053645Y003625D01*
X053657Y003550D01*
X053680Y003479D01*
X053714Y003411D01*
X053759Y003350D01*
X053812Y003297D01*
X053873Y003252D01*
X053941Y003218D01*
X054013Y003195D01*
X054087Y003183D01*
X054405Y003183D01*
X054405Y003643D01*
X054445Y003643D01*
X054445Y003683D01*
X055205Y003683D01*
X055205Y003701D01*
X055193Y003775D01*
X055170Y003847D01*
X055136Y003914D01*
X055091Y003976D01*
X055038Y004029D01*
X054977Y004073D01*
X054909Y004108D01*
X054846Y004128D01*
X055031Y004205D01*
X055183Y004357D01*
X055265Y004555D01*
X055265Y004770D01*
X055183Y004969D01*
X055031Y005121D01*
X054929Y005163D01*
X055031Y005205D01*
X055183Y005357D01*
X055221Y005450D01*
X055230Y005459D01*
X057794Y008023D01*
X058049Y008023D01*
X058365Y008339D01*
X058365Y008786D01*
X058089Y009063D01*
X058365Y009339D01*
X058365Y009786D01*
X058089Y010063D01*
X058365Y010339D01*
X058365Y010786D01*
X058089Y011063D01*
X058365Y011339D01*
X058365Y011786D01*
X058089Y012063D01*
X058365Y012339D01*
X058365Y012786D01*
X058089Y013063D01*
X058365Y013339D01*
X058365Y013786D01*
X058049Y014103D01*
X057601Y014103D01*
X057285Y013786D01*
X057285Y013782D01*
X057024Y014043D01*
X056845Y014043D01*
X056845Y013583D01*
X056805Y013583D01*
X056805Y014043D01*
X056626Y014043D01*
X056345Y013762D01*
X056345Y013583D01*
X056805Y013583D01*
X056805Y013543D01*
X056345Y013543D01*
X056345Y013364D01*
X056606Y013103D01*
X056601Y013103D01*
X056285Y012786D01*
X056285Y012339D01*
X056561Y012063D01*
X056285Y011786D01*
X056285Y011339D01*
X056561Y011063D01*
X056285Y010786D01*
X056285Y010339D01*
X056561Y010063D01*
X056285Y009786D01*
X056285Y009339D01*
X056561Y009063D01*
X056421Y008923D01*
X056374Y008923D01*
X055985Y009312D01*
X055985Y012234D01*
X055930Y012367D01*
X055829Y012468D01*
X055329Y012968D01*
X055197Y013023D01*
X052274Y013023D01*
X052649Y013023D01*
X052869Y013243D01*
X055189Y013243D01*
X055306Y013292D01*
X055396Y013382D01*
X056803Y014788D01*
X056787Y014750D01*
X056787Y014576D01*
X056854Y014415D01*
X056977Y014291D01*
X057138Y014225D01*
X057312Y014225D01*
X057473Y014291D01*
X057596Y014415D01*
X057663Y014576D01*
X057663Y014648D01*
X057806Y014792D01*
X057896Y014882D01*
X057945Y014999D01*
X057945Y015163D01*
X058038Y015125D01*
X058212Y015125D01*
X058373Y015191D01*
X058496Y015315D01*
X058563Y015476D01*
X058563Y015548D01*
X058596Y015582D01*
X058645Y015699D01*
X058645Y018663D01*
X058696Y018715D01*
X058763Y018876D01*
X058763Y019050D01*
X058696Y019211D01*
X058573Y019334D01*
X058412Y019401D01*
X058238Y019401D01*
X058077Y019334D01*
X057954Y019211D01*
X057887Y019050D01*
X057887Y018876D01*
X057954Y018715D01*
X058005Y018663D01*
X058005Y018502D01*
X057973Y018534D01*
X057812Y018601D01*
X057638Y018601D01*
X057545Y018562D01*
X057545Y019463D01*
X057596Y019515D01*
X057663Y019676D01*
X057663Y019850D01*
X057596Y020011D01*
X057473Y020134D01*
X057312Y020201D01*
X057138Y020201D01*
X056977Y020134D01*
X056875Y020032D01*
X056773Y020134D01*
X056612Y020201D01*
X056516Y020201D01*
X057406Y021092D01*
X057496Y021182D01*
X057545Y021299D01*
X057545Y031026D01*
X057496Y031144D01*
X057406Y031234D01*
X047706Y040934D01*
X047589Y040983D01*
X019061Y040983D01*
X018944Y040934D01*
X018854Y040844D01*
X017104Y039094D01*
X017055Y038976D01*
X017055Y038811D01*
X016875Y038811D01*
X016694Y038811D01*
X016692Y038811D01*
X016668Y038835D01*
X016580Y038871D01*
X016170Y038871D01*
X016125Y038853D01*
X016080Y038871D01*
X015670Y038871D01*
X015582Y038835D01*
X015558Y038811D01*
X015556Y038811D01*
X015375Y038811D01*
X015194Y038811D01*
X015148Y038799D01*
X015107Y038775D01*
X015073Y038742D01*
X015050Y038701D01*
X015038Y038655D01*
X015038Y037893D01*
X015038Y037266D01*
X014883Y037420D01*
X014555Y037556D01*
X014199Y037556D01*
X013871Y037420D01*
X013620Y037169D01*
X013484Y036841D01*
X013484Y036485D01*
X013620Y036157D01*
X013871Y035905D01*
X014199Y035769D01*
X014555Y035769D01*
X014883Y035905D01*
X015038Y036060D01*
X015038Y035433D01*
X015375Y035433D01*
X015375Y036351D01*
X015215Y036351D01*
X015270Y036485D01*
X015270Y036841D01*
X015215Y036975D01*
X015375Y036975D01*
X015556Y036975D01*
X015558Y036975D01*
X015582Y036951D01*
X015670Y036915D01*
X016080Y036915D01*
X016125Y036933D01*
X016170Y036915D01*
X016580Y036915D01*
X016668Y036951D01*
X016692Y036975D01*
X016694Y036975D01*
X016875Y036975D01*
X017037Y036975D01*
X016985Y036850D01*
X015266Y036850D01*
X015270Y036691D02*
X016985Y036691D01*
X016985Y036675D02*
X017052Y036514D01*
X017105Y036461D01*
X017105Y036384D01*
X017082Y036374D01*
X016668Y036374D01*
X016580Y036411D01*
X016170Y036411D01*
X016125Y036392D01*
X016080Y036411D01*
X015670Y036411D01*
X015582Y036374D01*
X015224Y036374D01*
X015375Y036351D02*
X015375Y035433D01*
X015375Y035433D01*
X015375Y035433D01*
X015038Y035433D01*
X015038Y034671D01*
X015050Y034625D01*
X015073Y034584D01*
X015107Y034550D01*
X015148Y034527D01*
X015194Y034514D01*
X015375Y034514D01*
X015556Y034514D01*
X015558Y034515D01*
X015582Y034491D01*
X015670Y034454D01*
X016080Y034454D01*
X016125Y034473D01*
X016170Y034454D01*
X016580Y034454D01*
X016668Y034491D01*
X016692Y034515D01*
X016694Y034514D01*
X016875Y034514D01*
X017056Y034514D01*
X017058Y034515D01*
X017082Y034491D01*
X017170Y034454D01*
X017580Y034454D01*
X017625Y034473D01*
X017670Y034454D01*
X018080Y034454D01*
X018125Y034473D01*
X018170Y034454D01*
X018580Y034454D01*
X018625Y034473D01*
X018670Y034454D01*
X019080Y034454D01*
X019125Y034473D01*
X019170Y034454D01*
X019580Y034454D01*
X019625Y034473D01*
X019670Y034454D01*
X020080Y034454D01*
X020168Y034491D01*
X020192Y034515D01*
X020194Y034514D01*
X020375Y034514D01*
X020556Y034514D01*
X020558Y034515D01*
X020582Y034491D01*
X020670Y034454D01*
X021080Y034454D01*
X021125Y034473D01*
X021170Y034454D01*
X021580Y034454D01*
X021625Y034473D01*
X021670Y034454D01*
X022080Y034454D01*
X022125Y034473D01*
X022170Y034454D01*
X022580Y034454D01*
X022625Y034473D01*
X022670Y034454D01*
X023080Y034454D01*
X023125Y034473D01*
X023170Y034454D01*
X023580Y034454D01*
X023668Y034491D01*
X023692Y034515D01*
X023694Y034514D01*
X023875Y034514D01*
X024056Y034514D01*
X024058Y034515D01*
X024082Y034491D01*
X024170Y034454D01*
X024580Y034454D01*
X024625Y034473D01*
X024670Y034454D01*
X025080Y034454D01*
X025125Y034473D01*
X025170Y034454D01*
X025505Y034454D01*
X025505Y028995D01*
X024854Y028344D01*
X024808Y028233D01*
X022896Y030144D01*
X022806Y030234D01*
X022689Y030283D01*
X006458Y030283D01*
X004606Y032134D01*
X004489Y032183D01*
X004069Y032183D01*
X003849Y032403D01*
X003401Y032403D01*
X003125Y032126D01*
X002849Y032403D01*
X002401Y032403D01*
X002085Y032086D01*
X002085Y031639D01*
X002361Y031363D01*
X002085Y031086D01*
X002085Y030639D01*
X002361Y030363D01*
X002085Y030086D01*
X002085Y029639D01*
X002361Y029363D01*
X002085Y029086D01*
X002085Y028639D01*
X002401Y028323D01*
X002456Y028323D01*
X002820Y027959D01*
X002921Y027858D01*
X003053Y027803D01*
X003976Y027803D01*
X004820Y026959D01*
X004921Y026858D01*
X005053Y026803D01*
X008476Y026803D01*
X011820Y023459D01*
X011921Y023358D01*
X012053Y023303D01*
X014709Y023303D01*
X014687Y023250D01*
X014687Y023076D01*
X014754Y022915D01*
X014805Y022863D01*
X014805Y015465D01*
X014752Y015412D01*
X014685Y015250D01*
X014685Y015075D01*
X014752Y014914D01*
X014876Y014790D01*
X015037Y014723D01*
X015213Y014723D01*
X015374Y014790D01*
X015498Y014914D01*
X015565Y015075D01*
X015565Y015250D01*
X015498Y015412D01*
X015445Y015465D01*
X015445Y022863D01*
X015496Y022915D01*
X015563Y023076D01*
X015563Y023250D01*
X015541Y023303D01*
X023697Y023303D01*
X023829Y023358D01*
X025829Y025358D01*
X025930Y025459D01*
X025985Y025591D01*
X025985Y026259D01*
X026125Y026399D01*
X026401Y026123D01*
X026849Y026123D01*
X027125Y026399D01*
X027401Y026123D01*
X027849Y026123D01*
X028125Y026399D01*
X028401Y026123D01*
X028849Y026123D01*
X029125Y026399D01*
X029401Y026123D01*
X029849Y026123D01*
X030125Y026399D01*
X030401Y026123D01*
X030849Y026123D01*
X031125Y026399D01*
X031401Y026123D01*
X031849Y026123D01*
X032125Y026399D01*
X032401Y026123D01*
X032849Y026123D01*
X033125Y026399D01*
X033401Y026123D01*
X033849Y026123D01*
X034125Y026399D01*
X034401Y026123D01*
X034849Y026123D01*
X035125Y026399D01*
X035401Y026123D01*
X035849Y026123D01*
X036125Y026399D01*
X036401Y026123D01*
X036849Y026123D01*
X037125Y026399D01*
X037401Y026123D01*
X037849Y026123D01*
X038125Y026399D01*
X038401Y026123D01*
X038849Y026123D01*
X039125Y026399D01*
X039401Y026123D01*
X039849Y026123D01*
X040165Y026439D01*
X040165Y026750D01*
X040306Y026892D01*
X040406Y026992D01*
X041146Y027732D01*
X041195Y027849D01*
X041195Y034454D01*
X041580Y034454D01*
X041668Y034491D01*
X041692Y034515D01*
X041694Y034514D01*
X041875Y034514D01*
X042056Y034514D01*
X042058Y034515D01*
X042082Y034491D01*
X042105Y034481D01*
X042105Y032299D01*
X042154Y032182D01*
X042244Y032092D01*
X047444Y026892D01*
X047561Y026843D01*
X050692Y026843D01*
X051105Y026430D01*
X051105Y026006D01*
X050885Y025786D01*
X050885Y025339D01*
X051161Y025063D01*
X050885Y024786D01*
X050885Y024339D01*
X051161Y024063D01*
X051000Y023902D01*
X050996Y023911D01*
X050873Y024034D01*
X050712Y024101D01*
X050538Y024101D01*
X050377Y024034D01*
X050254Y023911D01*
X050187Y023750D01*
X050187Y023677D01*
X048854Y022344D01*
X048805Y022226D01*
X048805Y011099D01*
X048854Y010982D01*
X048944Y010892D01*
X049354Y010482D01*
X049354Y010482D01*
X049444Y010392D01*
X049561Y010343D01*
X051825Y010343D01*
X051877Y010291D01*
X052038Y010225D01*
X052212Y010225D01*
X052373Y010291D01*
X052496Y010415D01*
X052563Y010576D01*
X052563Y010750D01*
X052525Y010843D01*
X053492Y010843D01*
X053687Y010648D01*
X053687Y010576D01*
X053754Y010415D01*
X053877Y010291D01*
X054038Y010225D01*
X054212Y010225D01*
X054305Y010263D01*
X054305Y009962D01*
X054254Y009911D01*
X054187Y009750D01*
X054187Y009576D01*
X054254Y009415D01*
X054377Y009291D01*
X054538Y009225D01*
X054712Y009225D01*
X054805Y009263D01*
X054805Y008962D01*
X054754Y008911D01*
X054687Y008750D01*
X054687Y008576D01*
X054754Y008415D01*
X054877Y008291D01*
X055038Y008225D01*
X055212Y008225D01*
X055373Y008291D01*
X055496Y008415D01*
X055563Y008576D01*
X055563Y008716D01*
X055920Y008359D01*
X056021Y008258D01*
X056153Y008203D01*
X056421Y008203D01*
X056601Y008023D01*
X056776Y008023D01*
X054920Y006167D01*
X054832Y006203D01*
X054294Y006203D01*
X053630Y006867D01*
X053529Y006968D01*
X053397Y007023D01*
X049053Y007023D01*
X048921Y006968D01*
X048156Y006203D01*
X048094Y006203D01*
X047430Y006867D01*
X047329Y006968D01*
X047197Y007023D01*
X042053Y007023D01*
X041921Y006968D01*
X041156Y006203D01*
X040994Y006203D01*
X040330Y006867D01*
X040229Y006968D01*
X040097Y007023D01*
X035053Y007023D01*
X034921Y006968D01*
X034156Y006203D01*
X034094Y006203D01*
X033329Y006968D01*
X033197Y007023D01*
X028053Y007023D01*
X027921Y006968D01*
X027156Y006203D01*
X027094Y006203D01*
X026430Y006867D01*
X026329Y006968D01*
X026197Y007023D01*
X020753Y007023D01*
X020621Y006968D01*
X019975Y006322D01*
X019430Y006867D01*
X019329Y006968D01*
X019197Y007023D01*
X013774Y007023D01*
X013634Y007163D01*
X016094Y009623D01*
X016113Y009623D01*
X016274Y009690D01*
X016398Y009814D01*
X016465Y009975D01*
X016465Y010150D01*
X016398Y010312D01*
X016274Y010436D01*
X016113Y010503D01*
X015937Y010503D01*
X015776Y010436D01*
X015652Y010312D01*
X015585Y010150D01*
X015585Y010132D01*
X012921Y007468D01*
X012820Y007367D01*
X012765Y007234D01*
X012765Y007091D01*
X012820Y006959D01*
X013366Y006413D01*
X013156Y006203D01*
X013094Y006203D01*
X012430Y006867D01*
X012329Y006968D01*
X012197Y007023D01*
X008494Y007023D01*
X009029Y007558D01*
X009130Y007659D01*
X009185Y007791D01*
X009185Y011884D01*
X009130Y012017D01*
X007536Y013611D01*
X007590Y013741D01*
X007590Y014085D01*
X007458Y014403D01*
X007215Y014646D01*
X006897Y014778D01*
X006553Y014778D01*
X006423Y014724D01*
X005179Y015968D01*
X005047Y016023D01*
X001774Y016023D01*
X001685Y016112D01*
X001685Y032314D01*
X001874Y032503D01*
X003697Y032503D01*
X003829Y032558D01*
X004374Y033103D01*
X004865Y033103D01*
X004877Y033091D01*
X005038Y033025D01*
X005212Y033025D01*
X005373Y033091D01*
X005496Y033215D01*
X005563Y033376D01*
X005563Y033550D01*
X005496Y033711D01*
X005373Y033834D01*
X005212Y033901D01*
X005038Y033901D01*
X004877Y033834D01*
X004865Y033823D01*
X004153Y033823D01*
X004021Y033768D01*
X003920Y033667D01*
X003920Y033667D01*
X003476Y033223D01*
X001653Y033223D01*
X001521Y033168D01*
X001420Y033067D01*
X001420Y033067D01*
X001121Y032768D01*
X001020Y032667D01*
X000965Y032534D01*
X000965Y015891D01*
X001020Y015759D01*
X001121Y015658D01*
X001320Y015459D01*
X001421Y015358D01*
X001553Y015303D01*
X004826Y015303D01*
X005914Y014215D01*
X005860Y014085D01*
X005860Y013741D01*
X005992Y013423D01*
X006235Y013180D01*
X006456Y013088D01*
X006235Y012996D01*
X005992Y012753D01*
X005860Y012435D01*
X005860Y012091D01*
X005992Y011773D01*
X006235Y011530D01*
X006550Y011399D01*
X006466Y011377D01*
X006368Y011336D01*
X006277Y011284D01*
X006193Y011219D01*
X006118Y011145D01*
X006054Y011061D01*
X006001Y010970D01*
X005961Y010872D01*
X005934Y010770D01*
X005924Y010693D01*
X006645Y010693D01*
X006645Y010533D01*
X005924Y010533D01*
X005934Y010455D01*
X005961Y010354D01*
X006001Y010256D01*
X006054Y010165D01*
X006118Y010081D01*
X006193Y010006D01*
X006277Y009942D01*
X006368Y009889D01*
X006466Y009849D01*
X006568Y009822D01*
X006645Y009811D01*
X006645Y010533D01*
X006805Y010533D01*
X006805Y010693D01*
X007526Y010693D01*
X007516Y010770D01*
X007489Y010872D01*
X007449Y010970D01*
X007396Y011061D01*
X007332Y011145D01*
X007257Y011219D01*
X007173Y011284D01*
X007082Y011336D01*
X006984Y011377D01*
X006900Y011399D01*
X007027Y011452D01*
X007765Y010714D01*
X007765Y008312D01*
X006820Y007367D01*
X006765Y007234D01*
X006765Y003591D01*
X006820Y003459D01*
X006921Y003358D01*
X007621Y002658D01*
X007753Y002603D01*
X007506Y002772D02*
X004316Y002772D01*
X004437Y002931D02*
X007348Y002931D01*
X007189Y003089D02*
X004549Y003089D01*
X004614Y003248D02*
X007031Y003248D01*
X006872Y003406D02*
X004680Y003406D01*
X004745Y003565D02*
X006776Y003565D01*
X006765Y003723D02*
X004774Y003723D01*
X004795Y003882D02*
X006765Y003882D01*
X006765Y004040D02*
X004816Y004040D01*
X004827Y004199D02*
X006765Y004199D01*
X006765Y004357D02*
X004806Y004357D01*
X004785Y004516D02*
X006765Y004516D01*
X006765Y004674D02*
X004764Y004674D01*
X004716Y004833D02*
X006765Y004833D01*
X006765Y004991D02*
X004650Y004991D01*
X004584Y005150D02*
X006765Y005150D01*
X006765Y005308D02*
X004504Y005308D01*
X004382Y005467D02*
X006765Y005467D01*
X006765Y005625D02*
X004261Y005625D01*
X004107Y005784D02*
X006765Y005784D01*
X006765Y005942D02*
X003900Y005942D01*
X003664Y006101D02*
X006765Y006101D01*
X006765Y006259D02*
X003281Y006259D01*
X001969Y006259D02*
X000625Y006259D01*
X000625Y006101D02*
X001586Y006101D01*
X001350Y005942D02*
X000625Y005942D01*
X000625Y005784D02*
X001143Y005784D01*
X001065Y005723D02*
X001065Y005723D01*
X000989Y005625D02*
X000625Y005625D01*
X000625Y005467D02*
X000868Y005467D01*
X000746Y005308D02*
X000625Y005308D01*
X000625Y005150D02*
X000666Y005150D01*
X000625Y006418D02*
X006765Y006418D01*
X006765Y006576D02*
X000625Y006576D01*
X000625Y006735D02*
X006765Y006735D01*
X006765Y006893D02*
X000625Y006893D01*
X000625Y007052D02*
X006765Y007052D01*
X006765Y007210D02*
X000625Y007210D01*
X000625Y007369D02*
X006822Y007369D01*
X006980Y007527D02*
X000625Y007527D01*
X000625Y007686D02*
X007139Y007686D01*
X007297Y007844D02*
X000625Y007844D01*
X000625Y008003D02*
X007456Y008003D01*
X007614Y008161D02*
X000625Y008161D01*
X000625Y008320D02*
X007765Y008320D01*
X007765Y008478D02*
X000625Y008478D01*
X000625Y008637D02*
X007765Y008637D01*
X007765Y008795D02*
X000625Y008795D01*
X000625Y008954D02*
X007765Y008954D01*
X007765Y009112D02*
X000625Y009112D01*
X000625Y009271D02*
X007765Y009271D01*
X007765Y009429D02*
X000625Y009429D01*
X000625Y009588D02*
X003546Y009588D01*
X003442Y009616D02*
X003714Y009543D01*
X003996Y009543D01*
X004268Y009616D01*
X004512Y009757D01*
X004711Y009956D01*
X004852Y010200D01*
X004925Y010472D01*
X004925Y010754D01*
X004852Y011026D01*
X004711Y011270D01*
X004512Y011469D01*
X004268Y011610D01*
X003996Y011683D01*
X003714Y011683D01*
X003442Y011610D01*
X003198Y011469D01*
X002999Y011270D01*
X002858Y011026D01*
X002785Y010754D01*
X002785Y010472D01*
X002858Y010200D01*
X002999Y009956D01*
X003198Y009757D01*
X003442Y009616D01*
X003216Y009746D02*
X000625Y009746D01*
X000625Y009905D02*
X003050Y009905D01*
X002937Y010063D02*
X000625Y010063D01*
X000625Y010222D02*
X002852Y010222D01*
X002810Y010380D02*
X000625Y010380D01*
X000625Y010539D02*
X002785Y010539D01*
X002785Y010697D02*
X000625Y010697D01*
X000625Y010856D02*
X002812Y010856D01*
X002855Y011014D02*
X000625Y011014D01*
X000625Y011173D02*
X002943Y011173D01*
X003060Y011331D02*
X000625Y011331D01*
X000625Y011490D02*
X003234Y011490D01*
X003585Y011648D02*
X000625Y011648D01*
X000625Y011807D02*
X005978Y011807D01*
X005912Y011965D02*
X000625Y011965D01*
X000625Y012124D02*
X005860Y012124D01*
X005860Y012282D02*
X000625Y012282D01*
X000625Y012441D02*
X005862Y012441D01*
X005928Y012599D02*
X000625Y012599D01*
X000625Y012758D02*
X005997Y012758D01*
X006155Y012916D02*
X004286Y012916D01*
X004268Y012906D02*
X004512Y013047D01*
X004711Y013246D01*
X004852Y013490D01*
X004925Y013762D01*
X004925Y014044D01*
X004852Y014316D01*
X004711Y014560D01*
X004512Y014759D01*
X004268Y014900D01*
X003996Y014973D01*
X003714Y014973D01*
X003442Y014900D01*
X003198Y014759D01*
X002999Y014560D01*
X002858Y014316D01*
X002785Y014044D01*
X002785Y013762D01*
X002858Y013490D01*
X002999Y013246D01*
X003198Y013047D01*
X003442Y012906D01*
X003714Y012833D01*
X003996Y012833D01*
X004268Y012906D01*
X004540Y013075D02*
X006425Y013075D01*
X006181Y013233D02*
X004699Y013233D01*
X004796Y013392D02*
X006023Y013392D01*
X005939Y013550D02*
X004868Y013550D01*
X004911Y013709D02*
X005873Y013709D01*
X005860Y013867D02*
X004925Y013867D01*
X004925Y014026D02*
X005860Y014026D01*
X005901Y014184D02*
X004887Y014184D01*
X004836Y014343D02*
X005786Y014343D01*
X005627Y014501D02*
X004745Y014501D01*
X004611Y014660D02*
X005469Y014660D01*
X005310Y014818D02*
X004409Y014818D01*
X004835Y015294D02*
X000625Y015294D01*
X000625Y015452D02*
X001326Y015452D01*
X001168Y015611D02*
X000625Y015611D01*
X000625Y015769D02*
X001015Y015769D01*
X001121Y015658D02*
X001121Y015658D01*
X000965Y015928D02*
X000625Y015928D01*
X000625Y016086D02*
X000965Y016086D01*
X000965Y016245D02*
X000625Y016245D01*
X000625Y016403D02*
X000965Y016403D01*
X000965Y016562D02*
X000625Y016562D01*
X000625Y016720D02*
X000965Y016720D01*
X000965Y016879D02*
X000625Y016879D01*
X000625Y017037D02*
X000965Y017037D01*
X000965Y017196D02*
X000625Y017196D01*
X000625Y017354D02*
X000965Y017354D01*
X000965Y017513D02*
X000625Y017513D01*
X000625Y017671D02*
X000965Y017671D01*
X000965Y017830D02*
X000625Y017830D01*
X000625Y017988D02*
X000965Y017988D01*
X000965Y018147D02*
X000625Y018147D01*
X000625Y018305D02*
X000965Y018305D01*
X000965Y018464D02*
X000625Y018464D01*
X000625Y018622D02*
X000965Y018622D01*
X000965Y018781D02*
X000625Y018781D01*
X000625Y018939D02*
X000965Y018939D01*
X000965Y019098D02*
X000625Y019098D01*
X000625Y019256D02*
X000965Y019256D01*
X000965Y019415D02*
X000625Y019415D01*
X000625Y019573D02*
X000965Y019573D01*
X000965Y019732D02*
X000625Y019732D01*
X000625Y019890D02*
X000965Y019890D01*
X000965Y020049D02*
X000625Y020049D01*
X000625Y020207D02*
X000965Y020207D01*
X000965Y020366D02*
X000625Y020366D01*
X000625Y020524D02*
X000965Y020524D01*
X000965Y020683D02*
X000625Y020683D01*
X000625Y020841D02*
X000965Y020841D01*
X000965Y021000D02*
X000625Y021000D01*
X000625Y021158D02*
X000965Y021158D01*
X000965Y021317D02*
X000625Y021317D01*
X000625Y021475D02*
X000965Y021475D01*
X000965Y021634D02*
X000625Y021634D01*
X000625Y021792D02*
X000965Y021792D01*
X000965Y021951D02*
X000625Y021951D01*
X000625Y022109D02*
X000965Y022109D01*
X000965Y022268D02*
X000625Y022268D01*
X000625Y022426D02*
X000965Y022426D01*
X000965Y022585D02*
X000625Y022585D01*
X000625Y022743D02*
X000965Y022743D01*
X000965Y022902D02*
X000625Y022902D01*
X000625Y023060D02*
X000965Y023060D01*
X000965Y023219D02*
X000625Y023219D01*
X000625Y023377D02*
X000965Y023377D01*
X000965Y023536D02*
X000625Y023536D01*
X000625Y023694D02*
X000965Y023694D01*
X000965Y023853D02*
X000625Y023853D01*
X000625Y024011D02*
X000965Y024011D01*
X000965Y024170D02*
X000625Y024170D01*
X000625Y024328D02*
X000965Y024328D01*
X000965Y024487D02*
X000625Y024487D01*
X000625Y024645D02*
X000965Y024645D01*
X000965Y024804D02*
X000625Y024804D01*
X000625Y024962D02*
X000965Y024962D01*
X000965Y025121D02*
X000625Y025121D01*
X000625Y025279D02*
X000965Y025279D01*
X000965Y025438D02*
X000625Y025438D01*
X000625Y025596D02*
X000965Y025596D01*
X000965Y025755D02*
X000625Y025755D01*
X000625Y025913D02*
X000965Y025913D01*
X000965Y026072D02*
X000625Y026072D01*
X000625Y026230D02*
X000965Y026230D01*
X000965Y026389D02*
X000625Y026389D01*
X000625Y026547D02*
X000965Y026547D01*
X000965Y026706D02*
X000625Y026706D01*
X000625Y026864D02*
X000965Y026864D01*
X000965Y027023D02*
X000625Y027023D01*
X000625Y027181D02*
X000965Y027181D01*
X000965Y027340D02*
X000625Y027340D01*
X000625Y027498D02*
X000965Y027498D01*
X000965Y027657D02*
X000625Y027657D01*
X000625Y027815D02*
X000965Y027815D01*
X000965Y027974D02*
X000625Y027974D01*
X000625Y028132D02*
X000965Y028132D01*
X000965Y028291D02*
X000625Y028291D01*
X000625Y028449D02*
X000965Y028449D01*
X000965Y028608D02*
X000625Y028608D01*
X000625Y028766D02*
X000965Y028766D01*
X000965Y028925D02*
X000625Y028925D01*
X000625Y029083D02*
X000965Y029083D01*
X000965Y029242D02*
X000625Y029242D01*
X000625Y029400D02*
X000965Y029400D01*
X000965Y029559D02*
X000625Y029559D01*
X000625Y029717D02*
X000965Y029717D01*
X000965Y029876D02*
X000625Y029876D01*
X000625Y030034D02*
X000965Y030034D01*
X000965Y030193D02*
X000625Y030193D01*
X000625Y030351D02*
X000965Y030351D01*
X000965Y030510D02*
X000625Y030510D01*
X000625Y030668D02*
X000965Y030668D01*
X000965Y030827D02*
X000625Y030827D01*
X000625Y030985D02*
X000965Y030985D01*
X000965Y031144D02*
X000625Y031144D01*
X000625Y031302D02*
X000965Y031302D01*
X000965Y031461D02*
X000625Y031461D01*
X000625Y031619D02*
X000965Y031619D01*
X000965Y031778D02*
X000625Y031778D01*
X000625Y031936D02*
X000965Y031936D01*
X000965Y032095D02*
X000625Y032095D01*
X000625Y032253D02*
X000965Y032253D01*
X000965Y032412D02*
X000625Y032412D01*
X000625Y032570D02*
X000980Y032570D01*
X001082Y032729D02*
X000625Y032729D01*
X000625Y032887D02*
X001240Y032887D01*
X001121Y032768D02*
X001121Y032768D01*
X001399Y033046D02*
X000625Y033046D01*
X000625Y033204D02*
X001609Y033204D01*
X000625Y033363D02*
X003616Y033363D01*
X003774Y033521D02*
X000625Y033521D01*
X000625Y033680D02*
X003933Y033680D01*
X004317Y033046D02*
X004987Y033046D01*
X005263Y033046D02*
X025505Y033046D01*
X025505Y033204D02*
X005486Y033204D01*
X005558Y033363D02*
X025505Y033363D01*
X025505Y033521D02*
X005563Y033521D01*
X005509Y033680D02*
X025505Y033680D01*
X025505Y033838D02*
X005363Y033838D01*
X004887Y033838D02*
X000625Y033838D01*
X000625Y033997D02*
X025505Y033997D01*
X025505Y034155D02*
X000625Y034155D01*
X000625Y034314D02*
X025505Y034314D01*
X025126Y034472D02*
X025124Y034472D01*
X024626Y034472D02*
X024624Y034472D01*
X024126Y034472D02*
X023624Y034472D01*
X023875Y034514D02*
X023875Y035432D01*
X023875Y034514D01*
X023875Y034631D02*
X023875Y034631D01*
X023875Y034789D02*
X023875Y034789D01*
X023875Y034948D02*
X023875Y034948D01*
X023875Y035106D02*
X023875Y035106D01*
X023875Y035265D02*
X023875Y035265D01*
X023875Y035423D02*
X023875Y035423D01*
X023875Y035432D02*
X023875Y035432D01*
X023875Y035433D02*
X023875Y036351D01*
X023937Y036351D01*
X023885Y036475D01*
X023885Y036650D01*
X023952Y036812D01*
X024055Y036915D01*
X024055Y036975D01*
X023875Y036975D01*
X023875Y037893D01*
X023875Y037893D01*
X023875Y036975D01*
X023813Y036975D01*
X023865Y036850D01*
X023990Y036850D01*
X023865Y036850D02*
X023865Y036675D01*
X023798Y036514D01*
X023674Y036390D01*
X023652Y036381D01*
X023668Y036374D01*
X023927Y036374D01*
X023875Y036351D02*
X023875Y035433D01*
X023875Y035433D01*
X023875Y035582D02*
X023875Y035582D01*
X023875Y035740D02*
X023875Y035740D01*
X023875Y035899D02*
X023875Y035899D01*
X023875Y036057D02*
X023875Y036057D01*
X023875Y036216D02*
X023875Y036216D01*
X023875Y036351D02*
X023694Y036351D01*
X023692Y036350D01*
X023668Y036374D01*
X023806Y036533D02*
X023885Y036533D01*
X023902Y036691D02*
X023865Y036691D01*
X023875Y037008D02*
X023875Y037008D01*
X023875Y037167D02*
X023875Y037167D01*
X023875Y037325D02*
X023875Y037325D01*
X023875Y037484D02*
X023875Y037484D01*
X023875Y037642D02*
X023875Y037642D01*
X023875Y037801D02*
X023875Y037801D01*
X023375Y037893D02*
X023375Y036813D01*
X023425Y036763D01*
X022925Y036563D02*
X022875Y036613D01*
X022875Y037893D01*
X022375Y037893D02*
X022375Y036913D01*
X022425Y036863D01*
X021925Y036563D02*
X021875Y036613D01*
X021875Y037893D01*
X021375Y037893D02*
X021375Y036913D01*
X021425Y036863D01*
X020925Y036563D02*
X020875Y036613D01*
X020875Y037893D01*
X020375Y037893D02*
X020375Y036975D01*
X020555Y036975D01*
X020555Y036815D01*
X020552Y036812D01*
X020485Y036650D01*
X020485Y036475D01*
X020537Y036351D01*
X020375Y036351D01*
X020313Y036351D01*
X020365Y036475D01*
X020365Y036650D01*
X020298Y036812D01*
X020174Y036936D01*
X020152Y036945D01*
X020168Y036951D01*
X020192Y036975D01*
X020194Y036975D01*
X020375Y036975D01*
X020375Y037893D01*
X020375Y037893D01*
X020375Y037801D02*
X020375Y037801D01*
X020375Y037642D02*
X020375Y037642D01*
X020375Y037484D02*
X020375Y037484D01*
X020375Y037325D02*
X020375Y037325D01*
X020375Y037167D02*
X020375Y037167D01*
X020375Y037008D02*
X020375Y037008D01*
X020260Y036850D02*
X020555Y036850D01*
X020502Y036691D02*
X020348Y036691D01*
X020365Y036533D02*
X020485Y036533D01*
X020527Y036374D02*
X020323Y036374D01*
X020375Y036351D02*
X020375Y035433D01*
X020375Y035433D01*
X020375Y036351D01*
X020375Y036216D02*
X020375Y036216D01*
X020375Y036057D02*
X020375Y036057D01*
X020375Y035899D02*
X020375Y035899D01*
X020375Y035740D02*
X020375Y035740D01*
X020375Y035582D02*
X020375Y035582D01*
X020375Y035432D02*
X020375Y034514D01*
X020375Y035432D01*
X020375Y035432D01*
X020375Y035423D02*
X020375Y035423D01*
X020375Y035265D02*
X020375Y035265D01*
X020375Y035106D02*
X020375Y035106D01*
X020375Y034948D02*
X020375Y034948D01*
X020375Y034789D02*
X020375Y034789D01*
X020375Y034631D02*
X020375Y034631D01*
X020124Y034472D02*
X020626Y034472D01*
X021124Y034472D02*
X021126Y034472D01*
X021624Y034472D02*
X021626Y034472D01*
X022124Y034472D02*
X022126Y034472D01*
X022624Y034472D02*
X022626Y034472D01*
X023124Y034472D02*
X023126Y034472D01*
X025825Y035163D02*
X025825Y028863D01*
X025125Y028163D01*
X025125Y027163D01*
X024625Y026663D01*
X024625Y025663D01*
X023125Y024163D01*
X015125Y024163D01*
X015125Y023163D02*
X015125Y015163D01*
X015524Y014977D02*
X048805Y014977D01*
X048805Y015135D02*
X015565Y015135D01*
X015547Y015294D02*
X048805Y015294D01*
X048805Y015452D02*
X015458Y015452D01*
X015445Y015611D02*
X048805Y015611D01*
X048805Y015769D02*
X015445Y015769D01*
X015445Y015928D02*
X048805Y015928D01*
X048805Y016086D02*
X015445Y016086D01*
X015445Y016245D02*
X048805Y016245D01*
X048805Y016403D02*
X015445Y016403D01*
X015445Y016562D02*
X048805Y016562D01*
X048805Y016720D02*
X015445Y016720D01*
X015445Y016879D02*
X048805Y016879D01*
X048805Y017037D02*
X015445Y017037D01*
X015445Y017196D02*
X048805Y017196D01*
X048805Y017354D02*
X015445Y017354D01*
X015445Y017513D02*
X048805Y017513D01*
X048805Y017671D02*
X015445Y017671D01*
X015445Y017830D02*
X048805Y017830D01*
X048805Y017988D02*
X015445Y017988D01*
X015445Y018147D02*
X048805Y018147D01*
X048805Y018305D02*
X015445Y018305D01*
X015445Y018464D02*
X048805Y018464D01*
X048805Y018622D02*
X015445Y018622D01*
X015445Y018781D02*
X048805Y018781D01*
X048805Y018939D02*
X015445Y018939D01*
X015445Y019098D02*
X048805Y019098D01*
X048805Y019256D02*
X015445Y019256D01*
X015445Y019415D02*
X048805Y019415D01*
X048805Y019573D02*
X015445Y019573D01*
X015445Y019732D02*
X048805Y019732D01*
X048805Y019890D02*
X015445Y019890D01*
X015445Y020049D02*
X048805Y020049D01*
X048805Y020207D02*
X015445Y020207D01*
X015445Y020366D02*
X048805Y020366D01*
X048805Y020524D02*
X015445Y020524D01*
X015445Y020683D02*
X048805Y020683D01*
X048805Y020841D02*
X015445Y020841D01*
X015445Y021000D02*
X048805Y021000D01*
X048805Y021158D02*
X015445Y021158D01*
X015445Y021317D02*
X048805Y021317D01*
X048805Y021475D02*
X015445Y021475D01*
X015445Y021634D02*
X048805Y021634D01*
X048805Y021792D02*
X015445Y021792D01*
X015445Y021951D02*
X048805Y021951D01*
X048805Y022109D02*
X015445Y022109D01*
X015445Y022268D02*
X048822Y022268D01*
X048936Y022426D02*
X015445Y022426D01*
X015445Y022585D02*
X049094Y022585D01*
X049253Y022743D02*
X015445Y022743D01*
X015484Y022902D02*
X049411Y022902D01*
X049570Y023060D02*
X015557Y023060D01*
X015563Y023219D02*
X049728Y023219D01*
X049887Y023377D02*
X023849Y023377D01*
X024007Y023536D02*
X050045Y023536D01*
X050187Y023694D02*
X024166Y023694D01*
X024324Y023853D02*
X050230Y023853D01*
X050354Y024011D02*
X024483Y024011D01*
X024641Y024170D02*
X051054Y024170D01*
X051110Y024011D02*
X050896Y024011D01*
X050896Y024328D02*
X024800Y024328D01*
X024958Y024487D02*
X050885Y024487D01*
X050885Y024645D02*
X025117Y024645D01*
X025275Y024804D02*
X050902Y024804D01*
X051061Y024962D02*
X025434Y024962D01*
X025592Y025121D02*
X051103Y025121D01*
X050945Y025279D02*
X025751Y025279D01*
X025909Y025438D02*
X050885Y025438D01*
X050885Y025596D02*
X025985Y025596D01*
X025985Y025755D02*
X050885Y025755D01*
X051012Y025913D02*
X025985Y025913D01*
X025985Y026072D02*
X051105Y026072D01*
X051105Y026230D02*
X039956Y026230D01*
X040115Y026389D02*
X051105Y026389D01*
X050988Y026547D02*
X040165Y026547D01*
X040165Y026706D02*
X050829Y026706D01*
X050825Y027163D02*
X051425Y026563D01*
X051425Y025563D01*
X051925Y025063D02*
X051925Y026863D01*
X051225Y027563D01*
X048025Y027563D01*
X042825Y032763D01*
X042825Y034963D01*
X042925Y035063D01*
X042825Y035163D01*
X042825Y035463D01*
X042875Y035413D01*
X042875Y035433D01*
X042875Y035413D02*
X042925Y035363D01*
X043325Y035383D02*
X043375Y035433D01*
X043325Y035383D02*
X043325Y033163D01*
X048225Y028263D01*
X051825Y028263D01*
X053525Y026563D01*
X053525Y024463D01*
X053125Y024063D01*
X051925Y024063D01*
X051425Y023563D01*
X050625Y023663D02*
X049125Y022163D01*
X049125Y011163D01*
X049625Y010663D01*
X052125Y010663D01*
X052563Y010697D02*
X053638Y010697D01*
X053702Y010539D02*
X052548Y010539D01*
X052462Y010380D02*
X053788Y010380D01*
X054125Y010663D02*
X053625Y011163D01*
X050125Y011163D01*
X049625Y011663D01*
X049625Y021663D01*
X050625Y022663D01*
X051425Y022563D02*
X051625Y022563D01*
X052125Y023063D01*
X053425Y023063D01*
X054125Y023763D01*
X054125Y026963D01*
X052125Y028963D01*
X048425Y028963D01*
X043825Y033563D01*
X043825Y035383D01*
X043875Y035433D01*
X044375Y035432D02*
X044375Y035432D01*
X044375Y034514D01*
X044556Y034514D01*
X044602Y034527D01*
X044625Y034540D01*
X044648Y034527D01*
X044694Y034514D01*
X044875Y034514D01*
X045056Y034514D01*
X045102Y034527D01*
X045143Y034550D01*
X045177Y034584D01*
X045200Y034625D01*
X045212Y034671D01*
X045212Y035433D01*
X045212Y036060D01*
X045367Y035905D01*
X045695Y035769D01*
X046051Y035769D01*
X046379Y035905D01*
X046630Y036157D01*
X046766Y036485D01*
X046766Y036841D01*
X046630Y037169D01*
X046379Y037420D01*
X046051Y037556D01*
X045695Y037556D01*
X045367Y037420D01*
X045212Y037266D01*
X045212Y037893D01*
X044875Y037893D01*
X044875Y036975D01*
X045035Y036975D01*
X044980Y036841D01*
X044980Y036485D01*
X045035Y036351D01*
X044875Y036351D01*
X044694Y036351D01*
X044648Y036338D01*
X044625Y036325D01*
X044602Y036338D01*
X044556Y036351D01*
X044375Y036351D01*
X044311Y036351D01*
X044363Y036476D01*
X044363Y036650D01*
X044296Y036811D01*
X044245Y036862D01*
X044245Y036975D01*
X044375Y036975D01*
X044556Y036975D01*
X044602Y036987D01*
X044625Y037001D01*
X044648Y036987D01*
X044694Y036975D01*
X044875Y036975D01*
X044875Y037893D01*
X044875Y037893D01*
X044875Y037893D01*
X044538Y037893D01*
X044375Y037893D01*
X044375Y036975D01*
X044375Y037893D01*
X044375Y037893D01*
X044375Y037893D01*
X044875Y037893D01*
X044875Y037893D01*
X045212Y037893D01*
X045212Y038655D01*
X045200Y038701D01*
X045177Y038742D01*
X045143Y038775D01*
X045102Y038799D01*
X045056Y038811D01*
X044875Y038811D01*
X044694Y038811D01*
X044648Y038799D01*
X044625Y038786D01*
X044602Y038799D01*
X044556Y038811D01*
X044375Y038811D01*
X044194Y038811D01*
X044192Y038811D01*
X044168Y038835D01*
X044149Y038843D01*
X046392Y038843D01*
X054405Y030830D01*
X054405Y027123D01*
X054396Y027144D01*
X052396Y029144D01*
X052306Y029234D01*
X052189Y029283D01*
X048558Y029283D01*
X044145Y033695D01*
X044145Y034481D01*
X044168Y034491D01*
X044192Y034515D01*
X044194Y034514D01*
X044375Y034514D01*
X044375Y035432D01*
X044375Y035433D02*
X044375Y035433D01*
X044375Y036351D01*
X044375Y035433D01*
X044375Y035433D01*
X044875Y035433D01*
X044875Y036351D01*
X044875Y035433D01*
X044875Y035433D01*
X044875Y035433D01*
X045212Y035433D01*
X044875Y035433D01*
X044875Y035433D01*
X044538Y035433D01*
X044375Y035433D01*
X044375Y035423D02*
X044375Y035423D01*
X044375Y035265D02*
X044375Y035265D01*
X044375Y035106D02*
X044375Y035106D01*
X044375Y034948D02*
X044375Y034948D01*
X044375Y034789D02*
X044375Y034789D01*
X044375Y034631D02*
X044375Y034631D01*
X044145Y034472D02*
X050763Y034472D01*
X050921Y034314D02*
X044145Y034314D01*
X044145Y034155D02*
X051080Y034155D01*
X051238Y033997D02*
X044145Y033997D01*
X044145Y033838D02*
X051397Y033838D01*
X051555Y033680D02*
X044160Y033680D01*
X044319Y033521D02*
X051714Y033521D01*
X051872Y033363D02*
X044477Y033363D01*
X044636Y033204D02*
X052031Y033204D01*
X052189Y033046D02*
X044794Y033046D01*
X044953Y032887D02*
X052348Y032887D01*
X052506Y032729D02*
X045111Y032729D01*
X045270Y032570D02*
X052665Y032570D01*
X052823Y032412D02*
X045428Y032412D01*
X045587Y032253D02*
X052982Y032253D01*
X053140Y032095D02*
X045745Y032095D01*
X045904Y031936D02*
X053299Y031936D01*
X053457Y031778D02*
X046063Y031778D01*
X046221Y031619D02*
X053616Y031619D01*
X053774Y031461D02*
X046380Y031461D01*
X046538Y031302D02*
X053933Y031302D01*
X054091Y031144D02*
X046697Y031144D01*
X046855Y030985D02*
X054250Y030985D01*
X054405Y030827D02*
X047014Y030827D01*
X047172Y030668D02*
X054405Y030668D01*
X054405Y030510D02*
X047331Y030510D01*
X047489Y030351D02*
X054405Y030351D01*
X054405Y030193D02*
X047648Y030193D01*
X047806Y030034D02*
X054405Y030034D01*
X054405Y029876D02*
X047965Y029876D01*
X048123Y029717D02*
X054405Y029717D01*
X054405Y029559D02*
X048282Y029559D01*
X048440Y029400D02*
X054405Y029400D01*
X054405Y029242D02*
X052288Y029242D01*
X052457Y029083D02*
X054405Y029083D01*
X054405Y028925D02*
X052616Y028925D01*
X052774Y028766D02*
X054405Y028766D01*
X054405Y028608D02*
X052933Y028608D01*
X053091Y028449D02*
X054405Y028449D01*
X054405Y028291D02*
X053250Y028291D01*
X053408Y028132D02*
X054405Y028132D01*
X054405Y027974D02*
X053567Y027974D01*
X053725Y027815D02*
X054405Y027815D01*
X054405Y027657D02*
X053884Y027657D01*
X054042Y027498D02*
X054405Y027498D01*
X054405Y027340D02*
X054201Y027340D01*
X054359Y027181D02*
X054405Y027181D01*
X053205Y026430D02*
X053205Y024595D01*
X052992Y024383D01*
X052965Y024383D01*
X052965Y024786D01*
X052649Y025103D01*
X052644Y025103D01*
X052905Y025364D01*
X052905Y025543D01*
X052445Y025543D01*
X052445Y025583D01*
X052405Y025583D01*
X052405Y026043D01*
X052245Y026043D01*
X052245Y026926D01*
X052196Y027044D01*
X051496Y027744D01*
X051406Y027834D01*
X051289Y027883D01*
X048158Y027883D01*
X048052Y027988D01*
X048161Y027943D01*
X051692Y027943D01*
X053205Y026430D01*
X053205Y026389D02*
X052245Y026389D01*
X052245Y026547D02*
X053088Y026547D01*
X052929Y026706D02*
X052245Y026706D01*
X052245Y026864D02*
X052771Y026864D01*
X052612Y027023D02*
X052205Y027023D01*
X052059Y027181D02*
X052454Y027181D01*
X052295Y027340D02*
X051901Y027340D01*
X051742Y027498D02*
X052137Y027498D01*
X051978Y027657D02*
X051584Y027657D01*
X051425Y027815D02*
X051820Y027815D01*
X050825Y027163D02*
X047625Y027163D01*
X042425Y032363D01*
X042425Y035383D01*
X042375Y035433D01*
X041875Y035432D02*
X041875Y034514D01*
X041875Y035432D01*
X041875Y035432D01*
X041875Y035433D02*
X041875Y036351D01*
X041694Y036351D01*
X041692Y036350D01*
X041668Y036374D01*
X042082Y036374D01*
X042098Y036381D01*
X042076Y036390D01*
X041952Y036514D01*
X041885Y036675D01*
X041885Y036850D01*
X041365Y036850D01*
X041313Y036975D01*
X041375Y036975D01*
X041556Y036975D01*
X041602Y036987D01*
X041625Y037001D01*
X041648Y036987D01*
X041694Y036975D01*
X041875Y036975D01*
X041937Y036975D01*
X041885Y036850D01*
X041875Y036975D02*
X041875Y037893D01*
X041875Y037893D01*
X041875Y036975D01*
X041875Y037008D02*
X041875Y037008D01*
X041875Y037167D02*
X041875Y037167D01*
X041875Y037325D02*
X041875Y037325D01*
X041875Y037484D02*
X041875Y037484D01*
X041875Y037642D02*
X041875Y037642D01*
X041875Y037801D02*
X041875Y037801D01*
X041875Y037893D02*
X041538Y037893D01*
X041375Y037893D01*
X041375Y036975D01*
X041375Y037893D01*
X041375Y037893D01*
X041375Y037893D01*
X041875Y037893D01*
X041875Y037893D01*
X041875Y038811D01*
X041694Y038811D01*
X041648Y038799D01*
X041625Y038786D01*
X041602Y038799D01*
X041556Y038811D01*
X041375Y038811D01*
X041194Y038811D01*
X041192Y038811D01*
X041168Y038835D01*
X041149Y038843D01*
X042101Y038843D01*
X042082Y038835D01*
X042058Y038811D01*
X042056Y038811D01*
X041875Y038811D01*
X041875Y037893D01*
X041875Y037893D01*
X041875Y037959D02*
X041875Y037959D01*
X041875Y038118D02*
X041875Y038118D01*
X041875Y038276D02*
X041875Y038276D01*
X041875Y038435D02*
X041875Y038435D01*
X041875Y038593D02*
X041875Y038593D01*
X041875Y038752D02*
X041875Y038752D01*
X041375Y038752D02*
X041375Y038752D01*
X041375Y038811D02*
X041375Y037893D01*
X041375Y037893D01*
X041375Y038811D01*
X041375Y038593D02*
X041375Y038593D01*
X041375Y038435D02*
X041375Y038435D01*
X041375Y038276D02*
X041375Y038276D01*
X041375Y038118D02*
X041375Y038118D01*
X041375Y037959D02*
X041375Y037959D01*
X041375Y037801D02*
X041375Y037801D01*
X041375Y037642D02*
X041375Y037642D01*
X041375Y037484D02*
X041375Y037484D01*
X041375Y037325D02*
X041375Y037325D01*
X041375Y037167D02*
X041375Y037167D01*
X041375Y037008D02*
X041375Y037008D01*
X041365Y036850D02*
X041365Y036675D01*
X041298Y036514D01*
X041195Y036411D01*
X041580Y036411D01*
X041668Y036374D01*
X041875Y036351D02*
X041875Y035433D01*
X041875Y035433D01*
X041875Y035423D02*
X041875Y035423D01*
X041875Y035265D02*
X041875Y035265D01*
X041875Y035106D02*
X041875Y035106D01*
X041875Y034948D02*
X041875Y034948D01*
X041875Y034789D02*
X041875Y034789D01*
X041875Y034631D02*
X041875Y034631D01*
X042105Y034472D02*
X041624Y034472D01*
X041195Y034314D02*
X042105Y034314D01*
X042105Y034155D02*
X041195Y034155D01*
X041195Y033997D02*
X042105Y033997D01*
X042105Y033838D02*
X041195Y033838D01*
X041195Y033680D02*
X042105Y033680D01*
X042105Y033521D02*
X041195Y033521D01*
X041195Y033363D02*
X042105Y033363D01*
X042105Y033204D02*
X041195Y033204D01*
X041195Y033046D02*
X042105Y033046D01*
X042105Y032887D02*
X041195Y032887D01*
X041195Y032729D02*
X042105Y032729D01*
X042105Y032570D02*
X041195Y032570D01*
X041195Y032412D02*
X042105Y032412D01*
X042124Y032253D02*
X041195Y032253D01*
X041195Y032095D02*
X042240Y032095D01*
X042244Y032092D02*
X042244Y032092D01*
X042399Y031936D02*
X041195Y031936D01*
X041195Y031778D02*
X042557Y031778D01*
X042716Y031619D02*
X041195Y031619D01*
X041195Y031461D02*
X042874Y031461D01*
X043033Y031302D02*
X041195Y031302D01*
X041195Y031144D02*
X043191Y031144D01*
X043350Y030985D02*
X041195Y030985D01*
X041195Y030827D02*
X043508Y030827D01*
X043667Y030668D02*
X041195Y030668D01*
X041195Y030510D02*
X043825Y030510D01*
X043984Y030351D02*
X041195Y030351D01*
X041195Y030193D02*
X044142Y030193D01*
X044301Y030034D02*
X041195Y030034D01*
X041195Y029876D02*
X044459Y029876D01*
X044618Y029717D02*
X041195Y029717D01*
X041195Y029559D02*
X044776Y029559D01*
X044935Y029400D02*
X041195Y029400D01*
X041195Y029242D02*
X045093Y029242D01*
X045252Y029083D02*
X041195Y029083D01*
X041195Y028925D02*
X045410Y028925D01*
X045569Y028766D02*
X041195Y028766D01*
X041195Y028608D02*
X045727Y028608D01*
X045886Y028449D02*
X041195Y028449D01*
X041195Y028291D02*
X046044Y028291D01*
X046203Y028132D02*
X041195Y028132D01*
X041195Y027974D02*
X046361Y027974D01*
X046520Y027815D02*
X041181Y027815D01*
X041072Y027657D02*
X046678Y027657D01*
X046837Y027498D02*
X040913Y027498D01*
X040755Y027340D02*
X046995Y027340D01*
X047154Y027181D02*
X040596Y027181D01*
X040438Y027023D02*
X047312Y027023D01*
X047509Y026864D02*
X040279Y026864D01*
X040125Y027163D02*
X039625Y026663D01*
X039294Y026230D02*
X038956Y026230D01*
X039115Y026389D02*
X039135Y026389D01*
X038625Y026663D02*
X039125Y027163D01*
X039125Y028263D01*
X039875Y029013D01*
X039875Y035433D01*
X039375Y035433D02*
X039375Y030013D01*
X038725Y029363D01*
X038725Y027763D01*
X038625Y027663D01*
X038125Y027163D02*
X038125Y030263D01*
X038875Y031013D01*
X038875Y035433D01*
X038375Y035433D02*
X038375Y031113D01*
X037725Y030463D01*
X037725Y027763D01*
X037625Y027663D01*
X037125Y027163D02*
X037125Y028363D01*
X037375Y028613D01*
X037375Y035433D01*
X037875Y035432D02*
X037875Y035432D01*
X037875Y034514D01*
X038055Y034514D01*
X038055Y031245D01*
X037695Y030885D01*
X037695Y034514D01*
X037875Y034514D01*
X037875Y035432D01*
X037875Y035433D02*
X037875Y036351D01*
X038037Y036351D01*
X037985Y036475D01*
X037985Y036650D01*
X038052Y036812D01*
X038105Y036865D01*
X038105Y036942D01*
X038082Y036951D01*
X038058Y036975D01*
X038056Y036975D01*
X037875Y036975D01*
X037875Y037893D01*
X037875Y037893D01*
X037875Y036975D01*
X037855Y036975D01*
X037865Y036950D01*
X037865Y036775D01*
X037798Y036614D01*
X037674Y036490D01*
X037513Y036423D01*
X037343Y036423D01*
X037338Y036411D01*
X037580Y036411D01*
X037668Y036374D01*
X038027Y036374D01*
X037875Y036351D02*
X037875Y035433D01*
X037875Y035433D01*
X037875Y035423D02*
X037875Y035423D01*
X037875Y035265D02*
X037875Y035265D01*
X037875Y035106D02*
X037875Y035106D01*
X037875Y034948D02*
X037875Y034948D01*
X037875Y034789D02*
X037875Y034789D01*
X037875Y034631D02*
X037875Y034631D01*
X037695Y034472D02*
X038055Y034472D01*
X038055Y034314D02*
X037695Y034314D01*
X037695Y034155D02*
X038055Y034155D01*
X038055Y033997D02*
X037695Y033997D01*
X037695Y033838D02*
X038055Y033838D01*
X038055Y033680D02*
X037695Y033680D01*
X037695Y033521D02*
X038055Y033521D01*
X038055Y033363D02*
X037695Y033363D01*
X037695Y033204D02*
X038055Y033204D01*
X038055Y033046D02*
X037695Y033046D01*
X037695Y032887D02*
X038055Y032887D01*
X038055Y032729D02*
X037695Y032729D01*
X037695Y032570D02*
X038055Y032570D01*
X038055Y032412D02*
X037695Y032412D01*
X037695Y032253D02*
X038055Y032253D01*
X038055Y032095D02*
X037695Y032095D01*
X037695Y031936D02*
X038055Y031936D01*
X038055Y031778D02*
X037695Y031778D01*
X037695Y031619D02*
X038055Y031619D01*
X038055Y031461D02*
X037695Y031461D01*
X037695Y031302D02*
X038055Y031302D01*
X037953Y031144D02*
X037695Y031144D01*
X037695Y030985D02*
X037795Y030985D01*
X035875Y029613D02*
X035525Y029263D01*
X035525Y027763D01*
X035625Y027663D01*
X035205Y028006D02*
X035085Y027886D01*
X035085Y027882D01*
X034824Y028143D01*
X034645Y028143D01*
X034645Y027683D01*
X034605Y027683D01*
X034605Y028143D01*
X034445Y028143D01*
X034445Y028430D01*
X034906Y028892D01*
X035096Y029082D01*
X035205Y029190D01*
X035205Y028006D01*
X035172Y027974D02*
X034993Y027974D01*
X034834Y028132D02*
X035205Y028132D01*
X035205Y028291D02*
X034445Y028291D01*
X034464Y028449D02*
X035205Y028449D01*
X035205Y028608D02*
X034623Y028608D01*
X034781Y028766D02*
X035205Y028766D01*
X035205Y028925D02*
X034940Y028925D01*
X035098Y029083D02*
X035205Y029083D01*
X034825Y029263D02*
X034725Y029163D01*
X034125Y028563D01*
X034125Y027163D01*
X033625Y026663D01*
X033294Y026230D02*
X032956Y026230D01*
X033115Y026389D02*
X033135Y026389D01*
X032625Y026663D02*
X033125Y027163D01*
X033125Y028463D01*
X033875Y029213D01*
X033875Y035433D01*
X034375Y035432D02*
X034375Y035432D01*
X034375Y034514D01*
X034195Y034514D01*
X034195Y029485D01*
X034555Y029845D01*
X034555Y034514D01*
X034375Y034514D01*
X034375Y035432D01*
X034375Y035433D02*
X034375Y036351D01*
X034537Y036351D01*
X034485Y036475D01*
X034485Y036650D01*
X034552Y036812D01*
X034605Y036865D01*
X034605Y036942D01*
X034582Y036951D01*
X034558Y036975D01*
X034556Y036975D01*
X034375Y036975D01*
X034375Y037893D01*
X034375Y037893D01*
X034375Y036975D01*
X034355Y036975D01*
X034365Y036950D01*
X034365Y036775D01*
X034298Y036614D01*
X034174Y036490D01*
X034013Y036423D01*
X033843Y036423D01*
X033838Y036411D01*
X034080Y036411D01*
X034168Y036374D01*
X034527Y036374D01*
X034375Y036351D02*
X034375Y035433D01*
X034375Y035433D01*
X034375Y035423D02*
X034375Y035423D01*
X034375Y035265D02*
X034375Y035265D01*
X034375Y035106D02*
X034375Y035106D01*
X034375Y034948D02*
X034375Y034948D01*
X034375Y034789D02*
X034375Y034789D01*
X034375Y034631D02*
X034375Y034631D01*
X034195Y034472D02*
X034555Y034472D01*
X034555Y034314D02*
X034195Y034314D01*
X034195Y034155D02*
X034555Y034155D01*
X034555Y033997D02*
X034195Y033997D01*
X034195Y033838D02*
X034555Y033838D01*
X034555Y033680D02*
X034195Y033680D01*
X034195Y033521D02*
X034555Y033521D01*
X034555Y033363D02*
X034195Y033363D01*
X034195Y033204D02*
X034555Y033204D01*
X034555Y033046D02*
X034195Y033046D01*
X034195Y032887D02*
X034555Y032887D01*
X034555Y032729D02*
X034195Y032729D01*
X034195Y032570D02*
X034555Y032570D01*
X034555Y032412D02*
X034195Y032412D01*
X034195Y032253D02*
X034555Y032253D01*
X034555Y032095D02*
X034195Y032095D01*
X034195Y031936D02*
X034555Y031936D01*
X034555Y031778D02*
X034195Y031778D01*
X034195Y031619D02*
X034555Y031619D01*
X034555Y031461D02*
X034195Y031461D01*
X034195Y031302D02*
X034555Y031302D01*
X034555Y031144D02*
X034195Y031144D01*
X034195Y030985D02*
X034555Y030985D01*
X034555Y030827D02*
X034195Y030827D01*
X034195Y030668D02*
X034555Y030668D01*
X034555Y030510D02*
X034195Y030510D01*
X034195Y030351D02*
X034555Y030351D01*
X034555Y030193D02*
X034195Y030193D01*
X034195Y030034D02*
X034555Y030034D01*
X034555Y029876D02*
X034195Y029876D01*
X034195Y029717D02*
X034427Y029717D01*
X034268Y029559D02*
X034195Y029559D01*
X034375Y029213D02*
X034175Y029013D01*
X033625Y028463D01*
X033625Y027663D01*
X032625Y027663D02*
X032625Y028663D01*
X033375Y029413D01*
X033375Y035433D01*
X032875Y035433D02*
X032875Y029713D01*
X032125Y028963D01*
X032125Y027163D01*
X031625Y026663D01*
X031294Y026230D02*
X030956Y026230D01*
X031115Y026389D02*
X031135Y026389D01*
X030625Y026663D02*
X031125Y027163D01*
X031125Y028963D01*
X031875Y029713D01*
X031875Y035433D01*
X031375Y035433D02*
X031375Y029813D01*
X030625Y029063D01*
X030625Y027663D01*
X030125Y027163D02*
X030125Y029063D01*
X030375Y029313D01*
X030375Y035433D01*
X030875Y035432D02*
X030875Y035432D01*
X030875Y034514D01*
X031055Y034514D01*
X031055Y029945D01*
X030695Y029585D01*
X030695Y034514D01*
X030875Y034514D01*
X030875Y035432D01*
X030875Y035433D02*
X030875Y036351D01*
X030937Y036351D01*
X030885Y036475D01*
X030885Y036650D01*
X030952Y036812D01*
X031005Y036865D01*
X031005Y036975D01*
X030875Y036975D01*
X030875Y037893D01*
X030875Y037893D01*
X030875Y036975D01*
X030755Y036975D01*
X030765Y036950D01*
X030765Y036775D01*
X030698Y036614D01*
X030574Y036490D01*
X030413Y036423D01*
X030243Y036423D01*
X030238Y036411D01*
X030580Y036411D01*
X030668Y036374D01*
X030927Y036374D01*
X030875Y036351D02*
X030875Y035433D01*
X030875Y035433D01*
X030875Y035423D02*
X030875Y035423D01*
X030875Y035265D02*
X030875Y035265D01*
X030875Y035106D02*
X030875Y035106D01*
X030875Y034948D02*
X030875Y034948D01*
X030875Y034789D02*
X030875Y034789D01*
X030875Y034631D02*
X030875Y034631D01*
X030695Y034472D02*
X031055Y034472D01*
X031055Y034314D02*
X030695Y034314D01*
X030695Y034155D02*
X031055Y034155D01*
X031055Y033997D02*
X030695Y033997D01*
X030695Y033838D02*
X031055Y033838D01*
X031055Y033680D02*
X030695Y033680D01*
X030695Y033521D02*
X031055Y033521D01*
X031055Y033363D02*
X030695Y033363D01*
X030695Y033204D02*
X031055Y033204D01*
X031055Y033046D02*
X030695Y033046D01*
X030695Y032887D02*
X031055Y032887D01*
X031055Y032729D02*
X030695Y032729D01*
X030695Y032570D02*
X031055Y032570D01*
X031055Y032412D02*
X030695Y032412D01*
X030695Y032253D02*
X031055Y032253D01*
X031055Y032095D02*
X030695Y032095D01*
X030695Y031936D02*
X031055Y031936D01*
X031055Y031778D02*
X030695Y031778D01*
X030695Y031619D02*
X031055Y031619D01*
X031055Y031461D02*
X030695Y031461D01*
X030695Y031302D02*
X031055Y031302D01*
X031055Y031144D02*
X030695Y031144D01*
X030695Y030985D02*
X031055Y030985D01*
X031055Y030827D02*
X030695Y030827D01*
X030695Y030668D02*
X031055Y030668D01*
X031055Y030510D02*
X030695Y030510D01*
X030695Y030351D02*
X031055Y030351D01*
X031055Y030193D02*
X030695Y030193D01*
X030695Y030034D02*
X031055Y030034D01*
X030985Y029876D02*
X030695Y029876D01*
X030695Y029717D02*
X030827Y029717D01*
X029875Y029513D02*
X029625Y029263D01*
X029625Y027663D01*
X029125Y027163D02*
X029125Y029263D01*
X029375Y029513D01*
X029375Y035433D01*
X028875Y035433D02*
X028875Y029663D01*
X028825Y029663D01*
X028625Y029463D01*
X028625Y027663D01*
X028525Y027563D01*
X028125Y027163D02*
X028125Y029663D01*
X028375Y029913D01*
X028375Y035433D01*
X027875Y035433D02*
X027875Y030063D01*
X027625Y029813D01*
X027625Y027663D01*
X027125Y027163D02*
X027125Y029063D01*
X026875Y029313D01*
X026875Y035433D01*
X027375Y035432D02*
X027375Y035432D01*
X027375Y034514D01*
X027555Y034514D01*
X027555Y030195D01*
X027354Y029994D01*
X027305Y029876D01*
X027195Y029876D01*
X027305Y029876D02*
X027305Y029335D01*
X027195Y029445D01*
X027195Y034514D01*
X027375Y034514D01*
X027375Y035432D01*
X027375Y035433D02*
X027375Y036351D01*
X027437Y036351D01*
X027385Y036475D01*
X027385Y036650D01*
X027452Y036812D01*
X027555Y036915D01*
X027555Y036975D01*
X027375Y036975D01*
X027375Y037893D01*
X027375Y037893D01*
X027375Y036975D01*
X027355Y036975D01*
X027365Y036950D01*
X027365Y036775D01*
X027298Y036614D01*
X027174Y036490D01*
X027013Y036423D01*
X026837Y036423D01*
X026757Y036456D01*
X026738Y036411D01*
X027080Y036411D01*
X027168Y036374D01*
X027427Y036374D01*
X027375Y036351D02*
X027375Y035433D01*
X027375Y035433D01*
X027375Y035423D02*
X027375Y035423D01*
X027375Y035265D02*
X027375Y035265D01*
X027375Y035106D02*
X027375Y035106D01*
X027375Y034948D02*
X027375Y034948D01*
X027375Y034789D02*
X027375Y034789D01*
X027375Y034631D02*
X027375Y034631D01*
X027195Y034472D02*
X027555Y034472D01*
X027555Y034314D02*
X027195Y034314D01*
X027195Y034155D02*
X027555Y034155D01*
X027555Y033997D02*
X027195Y033997D01*
X027195Y033838D02*
X027555Y033838D01*
X027555Y033680D02*
X027195Y033680D01*
X027195Y033521D02*
X027555Y033521D01*
X027555Y033363D02*
X027195Y033363D01*
X027195Y033204D02*
X027555Y033204D01*
X027555Y033046D02*
X027195Y033046D01*
X027195Y032887D02*
X027555Y032887D01*
X027555Y032729D02*
X027195Y032729D01*
X027195Y032570D02*
X027555Y032570D01*
X027555Y032412D02*
X027195Y032412D01*
X027195Y032253D02*
X027555Y032253D01*
X027555Y032095D02*
X027195Y032095D01*
X027195Y031936D02*
X027555Y031936D01*
X027555Y031778D02*
X027195Y031778D01*
X027195Y031619D02*
X027555Y031619D01*
X027555Y031461D02*
X027195Y031461D01*
X027195Y031302D02*
X027555Y031302D01*
X027555Y031144D02*
X027195Y031144D01*
X027195Y030985D02*
X027555Y030985D01*
X027555Y030827D02*
X027195Y030827D01*
X027195Y030668D02*
X027555Y030668D01*
X027555Y030510D02*
X027195Y030510D01*
X027195Y030351D02*
X027555Y030351D01*
X027552Y030193D02*
X027195Y030193D01*
X027195Y030034D02*
X027394Y030034D01*
X027305Y029717D02*
X027195Y029717D01*
X027195Y029559D02*
X027305Y029559D01*
X027305Y029400D02*
X027240Y029400D01*
X026055Y028640D02*
X026055Y027912D01*
X025824Y028143D01*
X025645Y028143D01*
X025645Y027683D01*
X025605Y027683D01*
X025605Y028143D01*
X025558Y028143D01*
X026055Y028640D01*
X026055Y028608D02*
X026023Y028608D01*
X026055Y028449D02*
X025864Y028449D01*
X025706Y028291D02*
X026055Y028291D01*
X026055Y028132D02*
X025834Y028132D01*
X025645Y028132D02*
X025605Y028132D01*
X025605Y027974D02*
X025645Y027974D01*
X025645Y027815D02*
X025605Y027815D01*
X025645Y027683D02*
X026085Y027683D01*
X026085Y027643D01*
X025645Y027643D01*
X025645Y027683D01*
X025645Y027657D02*
X026085Y027657D01*
X026085Y027444D02*
X025844Y027203D01*
X025849Y027203D01*
X026125Y026926D01*
X026361Y027163D01*
X026085Y027439D01*
X026085Y027444D01*
X026184Y027340D02*
X025981Y027340D01*
X026125Y027263D02*
X026125Y026163D01*
X026325Y025963D01*
X026294Y026230D02*
X025985Y026230D01*
X026115Y026389D02*
X026135Y026389D01*
X026625Y026663D02*
X027125Y027163D01*
X026625Y027663D02*
X026625Y027763D01*
X026625Y027663D02*
X026525Y027663D01*
X026625Y027663D02*
X026375Y027913D01*
X026375Y035433D01*
X025875Y035433D02*
X025875Y035213D01*
X025825Y035163D01*
X025325Y036563D02*
X025375Y036613D01*
X025375Y037893D01*
X025875Y037893D02*
X025875Y036913D01*
X025825Y036863D01*
X026325Y036563D02*
X026375Y036613D01*
X026375Y037893D01*
X026875Y037893D02*
X026875Y036913D01*
X026925Y036863D01*
X027330Y036691D02*
X027402Y036691D01*
X027385Y036533D02*
X027217Y036533D01*
X027168Y036374D02*
X027192Y036350D01*
X027194Y036351D01*
X027375Y036351D01*
X027375Y036216D02*
X027375Y036216D01*
X027375Y036057D02*
X027375Y036057D01*
X027375Y035899D02*
X027375Y035899D01*
X027375Y035740D02*
X027375Y035740D01*
X027375Y035582D02*
X027375Y035582D01*
X027825Y036563D02*
X027875Y036613D01*
X027875Y037893D01*
X028375Y037893D02*
X028375Y036913D01*
X028325Y036863D01*
X028825Y036563D02*
X028875Y036613D01*
X028875Y037893D01*
X029375Y037893D02*
X029375Y036913D01*
X029325Y036863D01*
X029825Y036563D02*
X029875Y036613D01*
X029875Y037893D01*
X030375Y037893D02*
X030375Y036913D01*
X030325Y036863D01*
X030730Y036691D02*
X030902Y036691D01*
X030885Y036533D02*
X030617Y036533D01*
X030668Y036374D02*
X030692Y036350D01*
X030694Y036351D01*
X030875Y036351D01*
X030875Y036216D02*
X030875Y036216D01*
X030875Y036057D02*
X030875Y036057D01*
X030875Y035899D02*
X030875Y035899D01*
X030875Y035740D02*
X030875Y035740D01*
X030875Y035582D02*
X030875Y035582D01*
X029875Y035433D02*
X029875Y029513D01*
X031725Y029063D02*
X032375Y029713D01*
X032375Y035433D01*
X032425Y036563D02*
X032425Y037843D01*
X032375Y037893D01*
X031925Y037843D02*
X031875Y037893D01*
X031925Y037843D02*
X031925Y036863D01*
X031325Y036563D02*
X031325Y037463D01*
X031425Y037563D01*
X031425Y037843D01*
X031375Y037893D01*
X030875Y037801D02*
X030875Y037801D01*
X030875Y037642D02*
X030875Y037642D01*
X030875Y037484D02*
X030875Y037484D01*
X030875Y037325D02*
X030875Y037325D01*
X030875Y037167D02*
X030875Y037167D01*
X030875Y037008D02*
X030875Y037008D01*
X030765Y036850D02*
X030990Y036850D01*
X032925Y036863D02*
X032925Y037843D01*
X032875Y037893D01*
X033375Y037893D02*
X033425Y037843D01*
X033425Y036563D01*
X033925Y036863D02*
X033925Y037863D01*
X033905Y037863D01*
X033875Y037893D01*
X034375Y037801D02*
X034375Y037801D01*
X034375Y037642D02*
X034375Y037642D01*
X034375Y037484D02*
X034375Y037484D01*
X034375Y037325D02*
X034375Y037325D01*
X034375Y037167D02*
X034375Y037167D01*
X034375Y037008D02*
X034375Y037008D01*
X034365Y036850D02*
X034590Y036850D01*
X034502Y036691D02*
X034330Y036691D01*
X034217Y036533D02*
X034485Y036533D01*
X034375Y036351D02*
X034194Y036351D01*
X034192Y036350D01*
X034168Y036374D01*
X034375Y036216D02*
X034375Y036216D01*
X034375Y036057D02*
X034375Y036057D01*
X034375Y035899D02*
X034375Y035899D01*
X034375Y035740D02*
X034375Y035740D01*
X034375Y035582D02*
X034375Y035582D01*
X034875Y035433D02*
X034875Y029713D01*
X034375Y029213D01*
X034825Y029263D02*
X035375Y029813D01*
X035375Y035433D01*
X035875Y035433D02*
X035875Y029613D01*
X036375Y029063D02*
X036125Y028813D01*
X036125Y027163D01*
X035625Y026663D01*
X035221Y027023D02*
X035029Y027023D01*
X035125Y026926D02*
X034849Y027203D01*
X034844Y027203D01*
X035085Y027444D01*
X035085Y027439D01*
X035361Y027163D01*
X035125Y026926D01*
X035125Y027163D02*
X035125Y026263D01*
X035225Y026163D01*
X035294Y026230D02*
X034956Y026230D01*
X035115Y026389D02*
X035135Y026389D01*
X035956Y026230D02*
X036294Y026230D01*
X036135Y026389D02*
X036115Y026389D01*
X036625Y026663D02*
X037125Y027163D01*
X036625Y027663D02*
X036625Y028613D01*
X036875Y028863D01*
X036875Y035433D01*
X036375Y035433D02*
X036375Y029063D01*
X034645Y028132D02*
X034605Y028132D01*
X034605Y027974D02*
X034645Y027974D01*
X034645Y027815D02*
X034605Y027815D01*
X034625Y027663D02*
X035125Y027163D01*
X035184Y027340D02*
X034981Y027340D01*
X034870Y027181D02*
X035343Y027181D01*
X034135Y026389D02*
X034115Y026389D01*
X033956Y026230D02*
X034294Y026230D01*
X032294Y026230D02*
X031956Y026230D01*
X032115Y026389D02*
X032135Y026389D01*
X031625Y027663D02*
X031725Y027763D01*
X031725Y029063D01*
X030125Y027163D02*
X029625Y026663D01*
X029294Y026230D02*
X028956Y026230D01*
X029115Y026389D02*
X029135Y026389D01*
X028625Y026663D02*
X029125Y027163D01*
X028125Y027163D02*
X027625Y026663D01*
X027956Y026230D02*
X028294Y026230D01*
X028135Y026389D02*
X028115Y026389D01*
X027294Y026230D02*
X026956Y026230D01*
X027115Y026389D02*
X027135Y026389D01*
X026221Y027023D02*
X026029Y027023D01*
X025870Y027181D02*
X026343Y027181D01*
X026125Y027263D02*
X025725Y027663D01*
X025625Y027663D01*
X025993Y027974D02*
X026055Y027974D01*
X025276Y028766D02*
X024274Y028766D01*
X024433Y028608D02*
X025117Y028608D01*
X024959Y028449D02*
X024591Y028449D01*
X024750Y028291D02*
X024832Y028291D01*
X024625Y027963D02*
X022625Y029963D01*
X006325Y029963D01*
X004425Y031863D01*
X003625Y031863D01*
X003998Y032253D02*
X025505Y032253D01*
X025505Y032095D02*
X004645Y032095D01*
X004804Y031936D02*
X025505Y031936D01*
X025505Y031778D02*
X004963Y031778D01*
X005121Y031619D02*
X025505Y031619D01*
X025505Y031461D02*
X005280Y031461D01*
X005438Y031302D02*
X025505Y031302D01*
X025505Y031144D02*
X005597Y031144D01*
X005755Y030985D02*
X025505Y030985D01*
X025505Y030827D02*
X005914Y030827D01*
X006072Y030668D02*
X025505Y030668D01*
X025505Y030510D02*
X006231Y030510D01*
X006389Y030351D02*
X025505Y030351D01*
X025505Y030193D02*
X022848Y030193D01*
X023006Y030034D02*
X025505Y030034D01*
X025505Y029876D02*
X023165Y029876D01*
X023323Y029717D02*
X025505Y029717D01*
X025505Y029559D02*
X023482Y029559D01*
X023640Y029400D02*
X025505Y029400D01*
X025505Y029242D02*
X023799Y029242D01*
X023957Y029083D02*
X025505Y029083D01*
X025434Y028925D02*
X024116Y028925D01*
X024625Y027963D02*
X024625Y027663D01*
X023625Y027663D02*
X023625Y027863D01*
X022125Y029363D01*
X006325Y029363D01*
X004325Y031363D01*
X003125Y031363D01*
X002625Y031863D01*
X002998Y032253D02*
X003252Y032253D01*
X003842Y032570D02*
X025505Y032570D01*
X025505Y032412D02*
X001783Y032412D01*
X001685Y032253D02*
X002252Y032253D01*
X002093Y032095D02*
X001685Y032095D01*
X001685Y031936D02*
X002085Y031936D01*
X002085Y031778D02*
X001685Y031778D01*
X001685Y031619D02*
X002105Y031619D01*
X002263Y031461D02*
X001685Y031461D01*
X001685Y031302D02*
X002301Y031302D01*
X002142Y031144D02*
X001685Y031144D01*
X001685Y030985D02*
X002085Y030985D01*
X002085Y030827D02*
X001685Y030827D01*
X001685Y030668D02*
X002085Y030668D01*
X002214Y030510D02*
X001685Y030510D01*
X001685Y030351D02*
X002350Y030351D01*
X002191Y030193D02*
X001685Y030193D01*
X001685Y030034D02*
X002085Y030034D01*
X002085Y029876D02*
X001685Y029876D01*
X001685Y029717D02*
X002085Y029717D01*
X002165Y029559D02*
X001685Y029559D01*
X001685Y029400D02*
X002324Y029400D01*
X002240Y029242D02*
X001685Y029242D01*
X001685Y029083D02*
X002085Y029083D01*
X002085Y028925D02*
X001685Y028925D01*
X001685Y028766D02*
X002085Y028766D01*
X002116Y028608D02*
X001685Y028608D01*
X001685Y028449D02*
X002275Y028449D01*
X002488Y028291D02*
X001685Y028291D01*
X001685Y028132D02*
X002646Y028132D01*
X002805Y027974D02*
X001685Y027974D01*
X001685Y027815D02*
X003023Y027815D01*
X004122Y027657D02*
X001685Y027657D01*
X001685Y027498D02*
X004280Y027498D01*
X004439Y027340D02*
X001685Y027340D01*
X001685Y027181D02*
X004597Y027181D01*
X004756Y027023D02*
X001685Y027023D01*
X001685Y026864D02*
X004914Y026864D01*
X005725Y027663D02*
X004025Y029363D01*
X003125Y029363D01*
X002625Y029863D01*
X003125Y030363D02*
X002625Y030863D01*
X003125Y030363D02*
X004125Y030363D01*
X006125Y028263D01*
X021025Y028263D01*
X021625Y027663D01*
X020625Y027663D02*
X005725Y027663D01*
X005858Y027983D02*
X004206Y029634D01*
X004105Y029676D01*
X004105Y029843D01*
X003645Y029843D01*
X003645Y029883D01*
X004105Y029883D01*
X004105Y029920D01*
X005852Y028085D01*
X005854Y028082D01*
X005896Y028039D01*
X005937Y027996D01*
X005941Y027994D01*
X005944Y027992D01*
X005965Y027983D01*
X005858Y027983D01*
X005807Y028132D02*
X005708Y028132D01*
X005656Y028291D02*
X005550Y028291D01*
X005505Y028449D02*
X005391Y028449D01*
X005354Y028608D02*
X005233Y028608D01*
X005204Y028766D02*
X005074Y028766D01*
X005053Y028925D02*
X004916Y028925D01*
X004902Y029083D02*
X004757Y029083D01*
X004751Y029242D02*
X004599Y029242D01*
X004600Y029400D02*
X004440Y029400D01*
X004449Y029559D02*
X004282Y029559D01*
X004298Y029717D02*
X004105Y029717D01*
X004147Y029876D02*
X003645Y029876D01*
X003725Y030763D02*
X003625Y030863D01*
X003725Y030763D02*
X004225Y030763D01*
X006125Y028863D01*
X021625Y028863D01*
X022625Y027863D01*
X022625Y027663D01*
X022725Y027763D01*
X022625Y026663D02*
X022625Y025863D01*
X021925Y025163D01*
X011625Y025163D01*
X011125Y025663D02*
X021125Y025663D01*
X021625Y026163D01*
X021625Y026663D01*
X020625Y026663D02*
X020125Y026163D01*
X010625Y026163D01*
X009682Y025596D02*
X001685Y025596D01*
X001685Y025438D02*
X009841Y025438D01*
X009999Y025279D02*
X001685Y025279D01*
X001685Y025121D02*
X010158Y025121D01*
X010316Y024962D02*
X001685Y024962D01*
X001685Y024804D02*
X010475Y024804D01*
X010633Y024645D02*
X001685Y024645D01*
X001685Y024487D02*
X010792Y024487D01*
X010950Y024328D02*
X001685Y024328D01*
X001685Y024170D02*
X011109Y024170D01*
X011267Y024011D02*
X001685Y024011D01*
X001685Y023853D02*
X011426Y023853D01*
X011584Y023694D02*
X001685Y023694D01*
X001685Y023536D02*
X011743Y023536D01*
X011901Y023377D02*
X001685Y023377D01*
X001685Y023219D02*
X014687Y023219D01*
X014693Y023060D02*
X005810Y023060D01*
X005873Y023034D02*
X005712Y023101D01*
X005538Y023101D01*
X005377Y023034D01*
X005254Y022911D01*
X005187Y022750D01*
X005187Y022576D01*
X005254Y022415D01*
X005377Y022291D01*
X005538Y022225D01*
X005611Y022225D01*
X006305Y021530D01*
X006305Y021462D01*
X006254Y021411D01*
X006187Y021250D01*
X006187Y021076D01*
X006254Y020915D01*
X006377Y020791D01*
X006538Y020725D01*
X006712Y020725D01*
X006873Y020791D01*
X006996Y020915D01*
X007063Y021076D01*
X007063Y021250D01*
X006996Y021411D01*
X006945Y021462D01*
X006945Y021726D01*
X006896Y021844D01*
X006806Y021934D01*
X006063Y022677D01*
X006063Y022750D01*
X005996Y022911D01*
X005873Y023034D01*
X006000Y022902D02*
X014766Y022902D01*
X014805Y022743D02*
X006063Y022743D01*
X006156Y022585D02*
X014805Y022585D01*
X014805Y022426D02*
X006314Y022426D01*
X006473Y022268D02*
X014805Y022268D01*
X014805Y022109D02*
X006631Y022109D01*
X006790Y021951D02*
X014805Y021951D01*
X014805Y021792D02*
X006918Y021792D01*
X006945Y021634D02*
X014805Y021634D01*
X014805Y021475D02*
X006945Y021475D01*
X007035Y021317D02*
X014805Y021317D01*
X014805Y021158D02*
X007063Y021158D01*
X007032Y021000D02*
X014805Y021000D01*
X014805Y020841D02*
X006923Y020841D01*
X006625Y021163D02*
X006625Y021663D01*
X005625Y022663D01*
X005440Y023060D02*
X002923Y023060D01*
X002897Y023086D02*
X002656Y023186D01*
X002394Y023186D01*
X002153Y023086D01*
X001968Y022901D01*
X001868Y022660D01*
X001868Y022398D01*
X001968Y022157D01*
X002153Y021972D01*
X002394Y021872D01*
X002656Y021872D01*
X002897Y021972D01*
X003082Y022157D01*
X003182Y022398D01*
X003182Y022660D01*
X003082Y022901D01*
X002897Y023086D01*
X003081Y022902D02*
X005250Y022902D01*
X005187Y022743D02*
X003148Y022743D01*
X003182Y022585D02*
X005187Y022585D01*
X005249Y022426D02*
X003182Y022426D01*
X003128Y022268D02*
X005434Y022268D01*
X005726Y022109D02*
X003035Y022109D01*
X002847Y021951D02*
X005884Y021951D01*
X006043Y021792D02*
X001685Y021792D01*
X001685Y021634D02*
X006201Y021634D01*
X006305Y021475D02*
X001685Y021475D01*
X001685Y021317D02*
X002116Y021317D01*
X002153Y021354D02*
X001968Y021169D01*
X001868Y020927D01*
X001868Y020666D01*
X001968Y020424D01*
X002153Y020240D01*
X002394Y020140D01*
X002656Y020140D01*
X002897Y020240D01*
X003082Y020424D01*
X003182Y020666D01*
X003182Y020927D01*
X003082Y021169D01*
X002897Y021354D01*
X002656Y021454D01*
X002394Y021454D01*
X002153Y021354D01*
X001963Y021158D02*
X001685Y021158D01*
X001685Y021000D02*
X001898Y021000D01*
X001868Y020841D02*
X001685Y020841D01*
X001685Y020683D02*
X001868Y020683D01*
X001926Y020524D02*
X001685Y020524D01*
X001685Y020366D02*
X002026Y020366D01*
X002231Y020207D02*
X001685Y020207D01*
X001685Y020049D02*
X014805Y020049D01*
X014805Y020207D02*
X002819Y020207D01*
X003024Y020366D02*
X014805Y020366D01*
X014805Y020524D02*
X003124Y020524D01*
X003182Y020683D02*
X014805Y020683D01*
X014805Y019890D02*
X001685Y019890D01*
X001685Y019732D02*
X014805Y019732D01*
X014805Y019573D02*
X001685Y019573D01*
X001685Y019415D02*
X014805Y019415D01*
X014805Y019256D02*
X001685Y019256D01*
X001685Y019098D02*
X014805Y019098D01*
X014805Y018939D02*
X001685Y018939D01*
X001685Y018781D02*
X014805Y018781D01*
X014805Y018622D02*
X001685Y018622D01*
X001685Y018464D02*
X014805Y018464D01*
X014805Y018305D02*
X001685Y018305D01*
X001685Y018147D02*
X014805Y018147D01*
X014805Y017988D02*
X001685Y017988D01*
X001685Y017830D02*
X014805Y017830D01*
X014805Y017671D02*
X001685Y017671D01*
X001685Y017513D02*
X014805Y017513D01*
X014805Y017354D02*
X001685Y017354D01*
X001685Y017196D02*
X014805Y017196D01*
X014805Y017037D02*
X001685Y017037D01*
X001685Y016879D02*
X014805Y016879D01*
X014805Y016720D02*
X001685Y016720D01*
X001685Y016562D02*
X014805Y016562D01*
X014805Y016403D02*
X001685Y016403D01*
X001685Y016245D02*
X014805Y016245D01*
X014805Y016086D02*
X001711Y016086D01*
X000625Y015135D02*
X004993Y015135D01*
X005152Y014977D02*
X000625Y014977D01*
X000625Y014818D02*
X003301Y014818D01*
X003099Y014660D02*
X000625Y014660D01*
X000625Y014501D02*
X002965Y014501D01*
X002874Y014343D02*
X000625Y014343D01*
X000625Y014184D02*
X002823Y014184D01*
X002785Y014026D02*
X000625Y014026D01*
X000625Y013867D02*
X002785Y013867D01*
X002799Y013709D02*
X000625Y013709D01*
X000625Y013550D02*
X002842Y013550D01*
X002914Y013392D02*
X000625Y013392D01*
X000625Y013233D02*
X003011Y013233D01*
X003170Y013075D02*
X000625Y013075D01*
X000625Y012916D02*
X003424Y012916D01*
X004125Y011648D02*
X006116Y011648D01*
X006331Y011490D02*
X004476Y011490D01*
X004650Y011331D02*
X006360Y011331D01*
X006147Y011173D02*
X004767Y011173D01*
X004855Y011014D02*
X006027Y011014D01*
X005957Y010856D02*
X004898Y010856D01*
X004925Y010697D02*
X005924Y010697D01*
X005954Y010380D02*
X004900Y010380D01*
X004925Y010539D02*
X006645Y010539D01*
X006645Y010380D02*
X006805Y010380D01*
X006805Y010533D02*
X006805Y009811D01*
X006882Y009822D01*
X006984Y009849D01*
X007082Y009889D01*
X007173Y009942D01*
X007257Y010006D01*
X007332Y010081D01*
X007396Y010165D01*
X007449Y010256D01*
X007489Y010354D01*
X007516Y010455D01*
X007526Y010533D01*
X006805Y010533D01*
X006805Y010539D02*
X007765Y010539D01*
X007765Y010697D02*
X007526Y010697D01*
X007493Y010856D02*
X007623Y010856D01*
X007464Y011014D02*
X007423Y011014D01*
X007306Y011173D02*
X007303Y011173D01*
X007147Y011331D02*
X007090Y011331D01*
X007496Y010380D02*
X007765Y010380D01*
X007765Y010222D02*
X007429Y010222D01*
X007314Y010063D02*
X007765Y010063D01*
X007765Y009905D02*
X007109Y009905D01*
X006805Y009905D02*
X006645Y009905D01*
X006645Y010063D02*
X006805Y010063D01*
X006805Y010222D02*
X006645Y010222D01*
X006341Y009905D02*
X004660Y009905D01*
X004773Y010063D02*
X006136Y010063D01*
X006021Y010222D02*
X004858Y010222D01*
X004494Y009746D02*
X007765Y009746D01*
X007765Y009588D02*
X004164Y009588D01*
X007985Y006303D02*
X011976Y006303D01*
X012350Y005928D01*
X012285Y005770D01*
X012285Y005555D01*
X012367Y005357D01*
X012519Y005205D01*
X012621Y005163D01*
X012519Y005121D01*
X012367Y004969D01*
X012285Y004770D01*
X012285Y004555D01*
X012367Y004357D01*
X012519Y004205D01*
X012704Y004128D01*
X012641Y004108D01*
X012573Y004073D01*
X012512Y004029D01*
X012459Y003976D01*
X012414Y003914D01*
X012380Y003847D01*
X012357Y003775D01*
X012345Y003701D01*
X012345Y003683D01*
X013105Y003683D01*
X013105Y003643D01*
X012345Y003643D01*
X012345Y003625D01*
X012357Y003550D01*
X012380Y003479D01*
X012414Y003411D01*
X012459Y003350D01*
X012486Y003323D01*
X011407Y003323D01*
X011565Y003481D01*
X011565Y003663D01*
X011565Y003845D01*
X011307Y004103D01*
X011125Y004103D01*
X010943Y004103D01*
X010685Y003845D01*
X010685Y003663D01*
X011125Y003663D01*
X011125Y004103D01*
X011125Y003663D01*
X011125Y003663D01*
X011125Y003663D01*
X011565Y003663D01*
X011125Y003663D01*
X011125Y003663D01*
X010685Y003663D01*
X010685Y003481D01*
X010843Y003323D01*
X007974Y003323D01*
X007485Y003812D01*
X007485Y004745D01*
X007537Y004723D01*
X007713Y004723D01*
X007874Y004790D01*
X007998Y004914D01*
X008065Y005075D01*
X008065Y005250D01*
X007998Y005412D01*
X007985Y005425D01*
X007985Y006303D01*
X007985Y006259D02*
X012019Y006259D01*
X012178Y006101D02*
X011394Y006101D01*
X011332Y006163D02*
X010918Y006163D01*
X010625Y005870D01*
X010625Y005456D01*
X010918Y005163D01*
X011332Y005163D01*
X011625Y005456D01*
X011625Y005870D01*
X011332Y006163D01*
X011553Y005942D02*
X012336Y005942D01*
X012291Y005784D02*
X011625Y005784D01*
X011625Y005625D02*
X012285Y005625D01*
X012322Y005467D02*
X011625Y005467D01*
X011478Y005308D02*
X012416Y005308D01*
X012590Y005150D02*
X011345Y005150D01*
X011332Y005163D02*
X010918Y005163D01*
X010625Y004870D01*
X010625Y004456D01*
X010918Y004163D01*
X011332Y004163D01*
X011625Y004456D01*
X011625Y004870D01*
X011332Y005163D01*
X011504Y004991D02*
X012390Y004991D01*
X012311Y004833D02*
X011625Y004833D01*
X011625Y004674D02*
X012285Y004674D01*
X012301Y004516D02*
X011625Y004516D01*
X011527Y004357D02*
X012367Y004357D01*
X012534Y004199D02*
X011368Y004199D01*
X011370Y004040D02*
X012528Y004040D01*
X012398Y003882D02*
X011528Y003882D01*
X011565Y003723D02*
X012349Y003723D01*
X012355Y003565D02*
X011565Y003565D01*
X011491Y003406D02*
X012418Y003406D01*
X013145Y003643D02*
X013145Y003683D01*
X013905Y003683D01*
X013905Y003701D01*
X013893Y003775D01*
X013870Y003847D01*
X013836Y003914D01*
X013791Y003976D01*
X013738Y004029D01*
X013677Y004073D01*
X013609Y004108D01*
X013546Y004128D01*
X013731Y004205D01*
X013883Y004357D01*
X013965Y004555D01*
X013965Y004770D01*
X013883Y004969D01*
X013731Y005121D01*
X013629Y005163D01*
X013731Y005205D01*
X013883Y005357D01*
X013965Y005555D01*
X013965Y005770D01*
X013900Y005928D01*
X014274Y006303D01*
X018976Y006303D01*
X019350Y005928D01*
X019285Y005770D01*
X019285Y005555D01*
X019367Y005357D01*
X019519Y005205D01*
X019621Y005163D01*
X019519Y005121D01*
X019367Y004969D01*
X019285Y004770D01*
X019285Y004555D01*
X019367Y004357D01*
X019519Y004205D01*
X019704Y004128D01*
X019641Y004108D01*
X019573Y004073D01*
X019512Y004029D01*
X019459Y003976D01*
X019414Y003914D01*
X019380Y003847D01*
X019357Y003775D01*
X019345Y003701D01*
X019345Y003683D01*
X020105Y003683D01*
X020105Y003643D01*
X019345Y003643D01*
X019345Y003625D01*
X019357Y003550D01*
X019380Y003479D01*
X019414Y003411D01*
X019459Y003350D01*
X019486Y003323D01*
X018407Y003323D01*
X018565Y003481D01*
X018565Y003663D01*
X018565Y003845D01*
X018307Y004103D01*
X018125Y004103D01*
X017943Y004103D01*
X017685Y003845D01*
X017685Y003663D01*
X018125Y003663D01*
X018125Y004103D01*
X018125Y003663D01*
X018125Y003663D01*
X018125Y003663D01*
X018565Y003663D01*
X018125Y003663D01*
X018125Y003663D01*
X017685Y003663D01*
X017685Y003481D01*
X017843Y003323D01*
X013764Y003323D01*
X013791Y003350D01*
X013836Y003411D01*
X013870Y003479D01*
X013893Y003550D01*
X013905Y003625D01*
X013905Y003643D01*
X013145Y003643D01*
X013722Y004040D02*
X017880Y004040D01*
X017918Y004163D02*
X018332Y004163D01*
X018625Y004456D01*
X018625Y004870D01*
X018332Y005163D01*
X018625Y005456D01*
X018625Y005870D01*
X018332Y006163D01*
X017918Y006163D01*
X017625Y005870D01*
X017625Y005456D01*
X017918Y005163D01*
X018332Y005163D01*
X017918Y005163D01*
X017625Y004870D01*
X017625Y004456D01*
X017918Y004163D01*
X017882Y004199D02*
X017368Y004199D01*
X017332Y004163D02*
X017625Y004456D01*
X017625Y004870D01*
X017332Y005163D01*
X016918Y005163D01*
X016625Y004870D01*
X016625Y004456D01*
X016918Y004163D01*
X017332Y004163D01*
X017527Y004357D02*
X017723Y004357D01*
X017625Y004516D02*
X017625Y004516D01*
X017625Y004674D02*
X017625Y004674D01*
X017625Y004833D02*
X017625Y004833D01*
X017504Y004991D02*
X017746Y004991D01*
X017905Y005150D02*
X017345Y005150D01*
X017625Y005467D02*
X013928Y005467D01*
X013965Y005625D02*
X017625Y005625D01*
X017625Y005784D02*
X013959Y005784D01*
X013914Y005942D02*
X017697Y005942D01*
X017856Y006101D02*
X014072Y006101D01*
X014231Y006259D02*
X019019Y006259D01*
X019178Y006101D02*
X018394Y006101D01*
X018553Y005942D02*
X019336Y005942D01*
X019291Y005784D02*
X018625Y005784D01*
X018625Y005625D02*
X019285Y005625D01*
X019322Y005467D02*
X018625Y005467D01*
X018478Y005308D02*
X019416Y005308D01*
X019590Y005150D02*
X018345Y005150D01*
X018504Y004991D02*
X019390Y004991D01*
X019311Y004833D02*
X018625Y004833D01*
X018625Y004674D02*
X019285Y004674D01*
X019301Y004516D02*
X018625Y004516D01*
X018527Y004357D02*
X019367Y004357D01*
X019534Y004199D02*
X018368Y004199D01*
X018370Y004040D02*
X019528Y004040D01*
X019398Y003882D02*
X018528Y003882D01*
X018565Y003723D02*
X019349Y003723D01*
X019355Y003565D02*
X018565Y003565D01*
X018491Y003406D02*
X019418Y003406D01*
X020145Y003643D02*
X020145Y003683D01*
X020905Y003683D01*
X020905Y003701D01*
X020893Y003775D01*
X020870Y003847D01*
X020836Y003914D01*
X020791Y003976D01*
X020738Y004029D01*
X020677Y004073D01*
X020609Y004108D01*
X020546Y004128D01*
X020731Y004205D01*
X020883Y004357D01*
X020965Y004555D01*
X020965Y004770D01*
X020883Y004969D01*
X020731Y005121D01*
X020629Y005163D01*
X020731Y005205D01*
X020883Y005357D01*
X020965Y005555D01*
X020965Y005770D01*
X020883Y005969D01*
X020761Y006090D01*
X020974Y006303D01*
X025976Y006303D01*
X026350Y005928D01*
X026285Y005770D01*
X026285Y005555D01*
X026367Y005357D01*
X026519Y005205D01*
X026621Y005163D01*
X026519Y005121D01*
X026367Y004969D01*
X026285Y004770D01*
X026285Y004555D01*
X026367Y004357D01*
X026519Y004205D01*
X026704Y004128D01*
X026641Y004108D01*
X026573Y004073D01*
X026512Y004029D01*
X026459Y003976D01*
X026414Y003914D01*
X026380Y003847D01*
X026357Y003775D01*
X026345Y003701D01*
X026345Y003683D01*
X027105Y003683D01*
X027105Y003643D01*
X026345Y003643D01*
X026345Y003625D01*
X026357Y003550D01*
X026380Y003479D01*
X026414Y003411D01*
X026459Y003350D01*
X026486Y003323D01*
X025407Y003323D01*
X025565Y003481D01*
X025565Y003663D01*
X025565Y003845D01*
X025307Y004103D01*
X025125Y004103D01*
X024943Y004103D01*
X024685Y003845D01*
X024685Y003663D01*
X025125Y003663D01*
X025125Y004103D01*
X025125Y003663D01*
X025125Y003663D01*
X025125Y003663D01*
X025565Y003663D01*
X025125Y003663D01*
X025125Y003663D01*
X024685Y003663D01*
X024685Y003481D01*
X024843Y003323D01*
X020764Y003323D01*
X020791Y003350D01*
X020836Y003411D01*
X020870Y003479D01*
X020893Y003550D01*
X020905Y003625D01*
X020905Y003643D01*
X020145Y003643D01*
X020722Y004040D02*
X024880Y004040D01*
X024918Y004163D02*
X025332Y004163D01*
X025625Y004456D01*
X025625Y004870D01*
X025332Y005163D01*
X025625Y005456D01*
X025625Y005870D01*
X025332Y006163D01*
X024918Y006163D01*
X024625Y005870D01*
X024625Y005456D01*
X024918Y005163D01*
X025332Y005163D01*
X024918Y005163D01*
X024625Y004870D01*
X024625Y004456D01*
X024918Y004163D01*
X024882Y004199D02*
X024368Y004199D01*
X024332Y004163D02*
X024625Y004456D01*
X024625Y004870D01*
X024332Y005163D01*
X023918Y005163D01*
X023625Y004870D01*
X023625Y004456D01*
X023918Y004163D01*
X024332Y004163D01*
X024527Y004357D02*
X024723Y004357D01*
X024625Y004516D02*
X024625Y004516D01*
X024625Y004674D02*
X024625Y004674D01*
X024625Y004833D02*
X024625Y004833D01*
X024504Y004991D02*
X024746Y004991D01*
X024905Y005150D02*
X024345Y005150D01*
X024625Y005467D02*
X020928Y005467D01*
X020965Y005625D02*
X024625Y005625D01*
X024625Y005784D02*
X020959Y005784D01*
X020894Y005942D02*
X024697Y005942D01*
X024856Y006101D02*
X020772Y006101D01*
X020931Y006259D02*
X026019Y006259D01*
X026178Y006101D02*
X025394Y006101D01*
X025553Y005942D02*
X026336Y005942D01*
X026291Y005784D02*
X025625Y005784D01*
X025625Y005625D02*
X026285Y005625D01*
X026322Y005467D02*
X025625Y005467D01*
X025478Y005308D02*
X026416Y005308D01*
X026590Y005150D02*
X025345Y005150D01*
X025504Y004991D02*
X026390Y004991D01*
X026311Y004833D02*
X025625Y004833D01*
X025625Y004674D02*
X026285Y004674D01*
X026301Y004516D02*
X025625Y004516D01*
X025527Y004357D02*
X026367Y004357D01*
X026534Y004199D02*
X025368Y004199D01*
X025370Y004040D02*
X026528Y004040D01*
X026398Y003882D02*
X025528Y003882D01*
X025565Y003723D02*
X026349Y003723D01*
X026355Y003565D02*
X025565Y003565D01*
X025491Y003406D02*
X026418Y003406D01*
X027145Y003643D02*
X027145Y003683D01*
X027905Y003683D01*
X027905Y003701D01*
X027893Y003775D01*
X027870Y003847D01*
X027836Y003914D01*
X027791Y003976D01*
X027738Y004029D01*
X027677Y004073D01*
X027609Y004108D01*
X027546Y004128D01*
X027731Y004205D01*
X027883Y004357D01*
X027965Y004555D01*
X027965Y004770D01*
X027883Y004969D01*
X027731Y005121D01*
X027629Y005163D01*
X027731Y005205D01*
X027883Y005357D01*
X027965Y005555D01*
X027965Y005770D01*
X027900Y005928D01*
X028274Y006303D01*
X032976Y006303D01*
X033350Y005928D01*
X033285Y005770D01*
X033285Y005555D01*
X033367Y005357D01*
X033519Y005205D01*
X033621Y005163D01*
X033519Y005121D01*
X033367Y004969D01*
X033285Y004770D01*
X033285Y004555D01*
X033367Y004357D01*
X033519Y004205D01*
X033704Y004128D01*
X033641Y004108D01*
X033573Y004073D01*
X033512Y004029D01*
X033459Y003976D01*
X033414Y003914D01*
X033380Y003847D01*
X033357Y003775D01*
X033345Y003701D01*
X033345Y003683D01*
X034105Y003683D01*
X034105Y003643D01*
X033345Y003643D01*
X033345Y003625D01*
X033357Y003550D01*
X033380Y003479D01*
X033414Y003411D01*
X033459Y003350D01*
X033486Y003323D01*
X032407Y003323D01*
X032565Y003481D01*
X032565Y003663D01*
X032565Y003845D01*
X032307Y004103D01*
X032125Y004103D01*
X031943Y004103D01*
X031685Y003845D01*
X031685Y003663D01*
X032125Y003663D01*
X032125Y004103D01*
X032125Y003663D01*
X032125Y003663D01*
X032125Y003663D01*
X032565Y003663D01*
X032125Y003663D01*
X032125Y003663D01*
X031685Y003663D01*
X031685Y003481D01*
X031843Y003323D01*
X027764Y003323D01*
X027791Y003350D01*
X027836Y003411D01*
X027870Y003479D01*
X027893Y003550D01*
X027905Y003625D01*
X027905Y003643D01*
X027145Y003643D01*
X027722Y004040D02*
X031880Y004040D01*
X031918Y004163D02*
X032332Y004163D01*
X032625Y004456D01*
X032625Y004870D01*
X032332Y005163D01*
X032625Y005456D01*
X032625Y005870D01*
X032332Y006163D01*
X031918Y006163D01*
X031625Y005870D01*
X031625Y005456D01*
X031918Y005163D01*
X032332Y005163D01*
X031918Y005163D01*
X031625Y004870D01*
X031625Y004456D01*
X031918Y004163D01*
X031882Y004199D02*
X031368Y004199D01*
X031332Y004163D02*
X031625Y004456D01*
X031625Y004870D01*
X031332Y005163D01*
X030918Y005163D01*
X030625Y004870D01*
X030625Y004456D01*
X030918Y004163D01*
X031332Y004163D01*
X031527Y004357D02*
X031723Y004357D01*
X031625Y004516D02*
X031625Y004516D01*
X031625Y004674D02*
X031625Y004674D01*
X031625Y004833D02*
X031625Y004833D01*
X031504Y004991D02*
X031746Y004991D01*
X031905Y005150D02*
X031345Y005150D01*
X031625Y005467D02*
X027928Y005467D01*
X027965Y005625D02*
X031625Y005625D01*
X031625Y005784D02*
X027959Y005784D01*
X027914Y005942D02*
X031697Y005942D01*
X031856Y006101D02*
X028072Y006101D01*
X028231Y006259D02*
X033019Y006259D01*
X033178Y006101D02*
X032394Y006101D01*
X032553Y005942D02*
X033336Y005942D01*
X033291Y005784D02*
X032625Y005784D01*
X032625Y005625D02*
X033285Y005625D01*
X033322Y005467D02*
X032625Y005467D01*
X032478Y005308D02*
X033416Y005308D01*
X033590Y005150D02*
X032345Y005150D01*
X032504Y004991D02*
X033390Y004991D01*
X033311Y004833D02*
X032625Y004833D01*
X032625Y004674D02*
X033285Y004674D01*
X033301Y004516D02*
X032625Y004516D01*
X032527Y004357D02*
X033367Y004357D01*
X033534Y004199D02*
X032368Y004199D01*
X032370Y004040D02*
X033528Y004040D01*
X033398Y003882D02*
X032528Y003882D01*
X032565Y003723D02*
X033349Y003723D01*
X033355Y003565D02*
X032565Y003565D01*
X032491Y003406D02*
X033418Y003406D01*
X034145Y003643D02*
X034145Y003683D01*
X034905Y003683D01*
X034905Y003701D01*
X034893Y003775D01*
X034870Y003847D01*
X034836Y003914D01*
X034791Y003976D01*
X034738Y004029D01*
X034677Y004073D01*
X034609Y004108D01*
X034546Y004128D01*
X034731Y004205D01*
X034883Y004357D01*
X034965Y004555D01*
X034965Y004770D01*
X034883Y004969D01*
X034731Y005121D01*
X034629Y005163D01*
X034731Y005205D01*
X034883Y005357D01*
X034965Y005555D01*
X034965Y005770D01*
X034900Y005928D01*
X035274Y006303D01*
X039876Y006303D01*
X040321Y005858D01*
X040285Y005770D01*
X040285Y005555D01*
X040367Y005357D01*
X040519Y005205D01*
X040621Y005163D01*
X040519Y005121D01*
X040367Y004969D01*
X040285Y004770D01*
X040285Y004555D01*
X040367Y004357D01*
X040519Y004205D01*
X040704Y004128D01*
X040641Y004108D01*
X040573Y004073D01*
X040512Y004029D01*
X040459Y003976D01*
X040414Y003914D01*
X040380Y003847D01*
X040357Y003775D01*
X040345Y003701D01*
X040345Y003683D01*
X041105Y003683D01*
X041105Y003643D01*
X040345Y003643D01*
X040345Y003625D01*
X040357Y003550D01*
X040380Y003479D01*
X040414Y003411D01*
X040459Y003350D01*
X040486Y003323D01*
X039407Y003323D01*
X039565Y003481D01*
X039565Y003663D01*
X039565Y003845D01*
X039307Y004103D01*
X039125Y004103D01*
X038943Y004103D01*
X038685Y003845D01*
X038685Y003663D01*
X039125Y003663D01*
X039125Y004103D01*
X039125Y003663D01*
X039125Y003663D01*
X039125Y003663D01*
X039565Y003663D01*
X039125Y003663D01*
X039125Y003663D01*
X038685Y003663D01*
X038685Y003481D01*
X038843Y003323D01*
X034764Y003323D01*
X034791Y003350D01*
X034836Y003411D01*
X034870Y003479D01*
X034893Y003550D01*
X034905Y003625D01*
X034905Y003643D01*
X034145Y003643D01*
X034722Y004040D02*
X038880Y004040D01*
X038918Y004163D02*
X039332Y004163D01*
X039625Y004456D01*
X039625Y004870D01*
X039332Y005163D01*
X039625Y005456D01*
X039625Y005870D01*
X039332Y006163D01*
X038918Y006163D01*
X038625Y005870D01*
X038625Y005456D01*
X038918Y005163D01*
X039332Y005163D01*
X038918Y005163D01*
X038625Y004870D01*
X038625Y004456D01*
X038918Y004163D01*
X038882Y004199D02*
X038368Y004199D01*
X038332Y004163D02*
X037918Y004163D01*
X037625Y004456D01*
X037625Y004870D01*
X037918Y005163D01*
X038332Y005163D01*
X038625Y004870D01*
X038625Y004456D01*
X038332Y004163D01*
X038527Y004357D02*
X038723Y004357D01*
X038625Y004516D02*
X038625Y004516D01*
X038625Y004674D02*
X038625Y004674D01*
X038625Y004833D02*
X038625Y004833D01*
X038504Y004991D02*
X038746Y004991D01*
X038905Y005150D02*
X038345Y005150D01*
X038625Y005467D02*
X034928Y005467D01*
X034965Y005625D02*
X038625Y005625D01*
X038625Y005784D02*
X034959Y005784D01*
X034914Y005942D02*
X038697Y005942D01*
X038856Y006101D02*
X035072Y006101D01*
X035231Y006259D02*
X039919Y006259D01*
X040078Y006101D02*
X039394Y006101D01*
X039553Y005942D02*
X040236Y005942D01*
X040291Y005784D02*
X039625Y005784D01*
X039625Y005625D02*
X040285Y005625D01*
X040322Y005467D02*
X039625Y005467D01*
X039478Y005308D02*
X040416Y005308D01*
X040590Y005150D02*
X039345Y005150D01*
X039504Y004991D02*
X040390Y004991D01*
X040311Y004833D02*
X039625Y004833D01*
X039625Y004674D02*
X040285Y004674D01*
X040301Y004516D02*
X039625Y004516D01*
X039527Y004357D02*
X040367Y004357D01*
X040534Y004199D02*
X039368Y004199D01*
X039370Y004040D02*
X040528Y004040D01*
X040398Y003882D02*
X039528Y003882D01*
X039565Y003723D02*
X040349Y003723D01*
X040355Y003565D02*
X039565Y003565D01*
X039491Y003406D02*
X040418Y003406D01*
X041145Y003643D02*
X041145Y003683D01*
X041905Y003683D01*
X041905Y003701D01*
X041893Y003775D01*
X041870Y003847D01*
X041836Y003914D01*
X041791Y003976D01*
X041738Y004029D01*
X041677Y004073D01*
X041609Y004108D01*
X041546Y004128D01*
X041731Y004205D01*
X041883Y004357D01*
X041965Y004555D01*
X041965Y004770D01*
X041883Y004969D01*
X041731Y005121D01*
X041629Y005163D01*
X041731Y005205D01*
X041883Y005357D01*
X041965Y005555D01*
X041965Y005770D01*
X041900Y005928D01*
X042274Y006303D01*
X046976Y006303D01*
X047350Y005928D01*
X047285Y005770D01*
X047285Y005555D01*
X047367Y005357D01*
X047519Y005205D01*
X047621Y005163D01*
X047519Y005121D01*
X047367Y004969D01*
X047285Y004770D01*
X047285Y004555D01*
X047367Y004357D01*
X047519Y004205D01*
X047704Y004128D01*
X047641Y004108D01*
X047573Y004073D01*
X047512Y004029D01*
X047459Y003976D01*
X047414Y003914D01*
X047380Y003847D01*
X047357Y003775D01*
X047345Y003701D01*
X047345Y003683D01*
X048105Y003683D01*
X048105Y003643D01*
X047345Y003643D01*
X047345Y003625D01*
X047357Y003550D01*
X047380Y003479D01*
X047414Y003411D01*
X047459Y003350D01*
X047486Y003323D01*
X046407Y003323D01*
X046565Y003481D01*
X046565Y003663D01*
X046565Y003845D01*
X046307Y004103D01*
X046125Y004103D01*
X045943Y004103D01*
X045685Y003845D01*
X045685Y003663D01*
X046125Y003663D01*
X046125Y004103D01*
X046125Y003663D01*
X046125Y003663D01*
X046125Y003663D01*
X046565Y003663D01*
X046125Y003663D01*
X046125Y003663D01*
X045685Y003663D01*
X045685Y003481D01*
X045843Y003323D01*
X041764Y003323D01*
X041791Y003350D01*
X041836Y003411D01*
X041870Y003479D01*
X041893Y003550D01*
X041905Y003625D01*
X041905Y003643D01*
X041145Y003643D01*
X041722Y004040D02*
X045880Y004040D01*
X045918Y004163D02*
X046332Y004163D01*
X046625Y004456D01*
X046625Y004870D01*
X046332Y005163D01*
X046625Y005456D01*
X046625Y005870D01*
X046332Y006163D01*
X045918Y006163D01*
X045625Y005870D01*
X045625Y005456D01*
X045918Y005163D01*
X046332Y005163D01*
X045918Y005163D01*
X045625Y004870D01*
X045625Y004456D01*
X045918Y004163D01*
X045882Y004199D02*
X045368Y004199D01*
X045332Y004163D02*
X045625Y004456D01*
X045625Y004870D01*
X045332Y005163D01*
X044918Y005163D01*
X044625Y004870D01*
X044625Y004456D01*
X044918Y004163D01*
X045332Y004163D01*
X045527Y004357D02*
X045723Y004357D01*
X045625Y004516D02*
X045625Y004516D01*
X045625Y004674D02*
X045625Y004674D01*
X045625Y004833D02*
X045625Y004833D01*
X045504Y004991D02*
X045746Y004991D01*
X045905Y005150D02*
X045345Y005150D01*
X045625Y005467D02*
X041928Y005467D01*
X041965Y005625D02*
X045625Y005625D01*
X045625Y005784D02*
X041959Y005784D01*
X041914Y005942D02*
X045697Y005942D01*
X045856Y006101D02*
X042072Y006101D01*
X042231Y006259D02*
X047019Y006259D01*
X047178Y006101D02*
X046394Y006101D01*
X046553Y005942D02*
X047336Y005942D01*
X047291Y005784D02*
X046625Y005784D01*
X046625Y005625D02*
X047285Y005625D01*
X047322Y005467D02*
X046625Y005467D01*
X046478Y005308D02*
X047416Y005308D01*
X047590Y005150D02*
X046345Y005150D01*
X046504Y004991D02*
X047390Y004991D01*
X047311Y004833D02*
X046625Y004833D01*
X046625Y004674D02*
X047285Y004674D01*
X047301Y004516D02*
X046625Y004516D01*
X046527Y004357D02*
X047367Y004357D01*
X047534Y004199D02*
X046368Y004199D01*
X046370Y004040D02*
X047528Y004040D01*
X047398Y003882D02*
X046528Y003882D01*
X046565Y003723D02*
X047349Y003723D01*
X047355Y003565D02*
X046565Y003565D01*
X046491Y003406D02*
X047418Y003406D01*
X048145Y003643D02*
X048145Y003683D01*
X048905Y003683D01*
X048905Y003701D01*
X048893Y003775D01*
X048870Y003847D01*
X048836Y003914D01*
X048791Y003976D01*
X048738Y004029D01*
X048677Y004073D01*
X048609Y004108D01*
X048546Y004128D01*
X048731Y004205D01*
X048883Y004357D01*
X048965Y004555D01*
X048965Y004770D01*
X048883Y004969D01*
X048731Y005121D01*
X048629Y005163D01*
X048731Y005205D01*
X048883Y005357D01*
X048965Y005555D01*
X048965Y005770D01*
X048900Y005928D01*
X049274Y006303D01*
X050548Y006303D01*
X050485Y006150D01*
X050485Y005975D01*
X050552Y005814D01*
X050565Y005801D01*
X050565Y004312D01*
X049576Y003323D01*
X048764Y003323D01*
X048791Y003350D01*
X048836Y003411D01*
X048870Y003479D01*
X048893Y003550D01*
X048905Y003625D01*
X048905Y003643D01*
X048145Y003643D01*
X048722Y004040D02*
X050293Y004040D01*
X050135Y003882D02*
X048852Y003882D01*
X048901Y003723D02*
X049976Y003723D01*
X049818Y003565D02*
X048895Y003565D01*
X048832Y003406D02*
X049659Y003406D01*
X050202Y002931D02*
X055813Y002931D01*
X055701Y003089D02*
X050361Y003089D01*
X050519Y003248D02*
X052418Y003248D01*
X052443Y003223D02*
X052185Y003481D01*
X052185Y003663D01*
X052625Y003663D01*
X052625Y004103D01*
X052443Y004103D01*
X052185Y003845D01*
X052185Y003663D01*
X052625Y003663D01*
X052625Y003663D01*
X052625Y004103D01*
X052807Y004103D01*
X053065Y003845D01*
X053065Y003663D01*
X052625Y003663D01*
X052625Y003663D01*
X052625Y003663D01*
X053065Y003663D01*
X053065Y003481D01*
X052807Y003223D01*
X052625Y003223D01*
X052625Y003663D01*
X052625Y003663D01*
X052625Y003223D01*
X052443Y003223D01*
X052625Y003248D02*
X052625Y003248D01*
X052625Y003406D02*
X052625Y003406D01*
X052625Y003565D02*
X052625Y003565D01*
X052625Y003723D02*
X052625Y003723D01*
X052625Y003882D02*
X052625Y003882D01*
X052625Y004040D02*
X052625Y004040D01*
X052870Y004040D02*
X053828Y004040D01*
X053834Y004199D02*
X052868Y004199D01*
X053027Y004357D02*
X053667Y004357D01*
X053601Y004516D02*
X053125Y004516D01*
X053125Y004674D02*
X053585Y004674D01*
X053611Y004833D02*
X053125Y004833D01*
X053004Y004991D02*
X053690Y004991D01*
X053890Y005150D02*
X052845Y005150D01*
X052978Y005308D02*
X053716Y005308D01*
X053622Y005467D02*
X053125Y005467D01*
X053125Y005625D02*
X053585Y005625D01*
X053591Y005784D02*
X053125Y005784D01*
X053053Y005942D02*
X053536Y005942D01*
X053378Y006101D02*
X052894Y006101D01*
X053219Y006259D02*
X051320Y006259D01*
X051365Y006101D02*
X052356Y006101D01*
X052197Y005942D02*
X051351Y005942D01*
X051285Y005784D02*
X052125Y005784D01*
X052125Y005625D02*
X051285Y005625D01*
X051285Y005467D02*
X052125Y005467D01*
X052272Y005308D02*
X051285Y005308D01*
X051285Y005150D02*
X051405Y005150D01*
X051845Y005150D02*
X052405Y005150D01*
X052246Y004991D02*
X052004Y004991D01*
X052125Y004833D02*
X052125Y004833D01*
X052125Y004674D02*
X052125Y004674D01*
X052125Y004516D02*
X052125Y004516D01*
X052027Y004357D02*
X052223Y004357D01*
X052382Y004199D02*
X051868Y004199D01*
X052222Y003882D02*
X051153Y003882D01*
X051264Y004040D02*
X052380Y004040D01*
X052185Y003723D02*
X050995Y003723D01*
X050836Y003565D02*
X052185Y003565D01*
X052259Y003406D02*
X050678Y003406D01*
X050452Y004199D02*
X048716Y004199D01*
X048883Y004357D02*
X050565Y004357D01*
X050565Y004516D02*
X048949Y004516D01*
X048965Y004674D02*
X050565Y004674D01*
X050565Y004833D02*
X048939Y004833D01*
X048860Y004991D02*
X050565Y004991D01*
X050565Y005150D02*
X048660Y005150D01*
X048834Y005308D02*
X050565Y005308D01*
X050565Y005467D02*
X048928Y005467D01*
X048965Y005625D02*
X050565Y005625D01*
X050565Y005784D02*
X048959Y005784D01*
X048914Y005942D02*
X050499Y005942D01*
X050485Y006101D02*
X049072Y006101D01*
X049231Y006259D02*
X050530Y006259D01*
X048846Y006893D02*
X047404Y006893D01*
X047562Y006735D02*
X048688Y006735D01*
X048529Y006576D02*
X047721Y006576D01*
X047879Y006418D02*
X048371Y006418D01*
X048212Y006259D02*
X048038Y006259D01*
X045772Y005308D02*
X041834Y005308D01*
X041660Y005150D02*
X044905Y005150D01*
X044746Y004991D02*
X041860Y004991D01*
X041939Y004833D02*
X044625Y004833D01*
X044625Y004674D02*
X041965Y004674D01*
X041949Y004516D02*
X044625Y004516D01*
X044723Y004357D02*
X041883Y004357D01*
X041716Y004199D02*
X044882Y004199D01*
X045722Y003882D02*
X041852Y003882D01*
X041901Y003723D02*
X045685Y003723D01*
X045685Y003565D02*
X041895Y003565D01*
X041832Y003406D02*
X045759Y003406D01*
X046125Y003723D02*
X046125Y003723D01*
X046125Y003882D02*
X046125Y003882D01*
X046125Y004040D02*
X046125Y004040D01*
X049823Y002614D02*
X056056Y002614D01*
X055934Y002772D02*
X050044Y002772D01*
X051285Y004199D02*
X051382Y004199D01*
X052991Y003406D02*
X053718Y003406D01*
X053655Y003565D02*
X053065Y003565D01*
X053065Y003723D02*
X053649Y003723D01*
X053698Y003882D02*
X053028Y003882D01*
X052832Y003248D02*
X053882Y003248D01*
X054405Y003248D02*
X054445Y003248D01*
X054445Y003183D02*
X054763Y003183D01*
X054837Y003195D01*
X054909Y003218D01*
X054977Y003252D01*
X055038Y003297D01*
X055091Y003350D01*
X055136Y003411D01*
X055170Y003479D01*
X055193Y003550D01*
X055205Y003625D01*
X055205Y003643D01*
X054445Y003643D01*
X054445Y003183D01*
X054445Y003406D02*
X054405Y003406D01*
X054405Y003565D02*
X054445Y003565D01*
X054968Y003248D02*
X055636Y003248D01*
X055570Y003406D02*
X055132Y003406D01*
X055195Y003565D02*
X055505Y003565D01*
X055476Y003723D02*
X055201Y003723D01*
X055152Y003882D02*
X055455Y003882D01*
X055434Y004040D02*
X055022Y004040D01*
X055016Y004199D02*
X055423Y004199D01*
X055444Y004357D02*
X055183Y004357D01*
X055249Y004516D02*
X055465Y004516D01*
X055486Y004674D02*
X055265Y004674D01*
X055239Y004833D02*
X055534Y004833D01*
X055600Y004991D02*
X055160Y004991D01*
X054960Y005150D02*
X055666Y005150D01*
X055746Y005308D02*
X055134Y005308D01*
X055238Y005467D02*
X055868Y005467D01*
X055989Y005625D02*
X055397Y005625D01*
X055555Y005784D02*
X056143Y005784D01*
X056065Y005723D02*
X056065Y005723D01*
X056350Y005942D02*
X055714Y005942D01*
X055872Y006101D02*
X056586Y006101D01*
X056969Y006259D02*
X056031Y006259D01*
X056189Y006418D02*
X059625Y006418D01*
X059625Y006576D02*
X056348Y006576D01*
X056506Y006735D02*
X059625Y006735D01*
X059625Y006893D02*
X056665Y006893D01*
X056823Y007052D02*
X059625Y007052D01*
X059625Y007210D02*
X056982Y007210D01*
X057140Y007369D02*
X059625Y007369D01*
X059625Y007527D02*
X057299Y007527D01*
X057457Y007686D02*
X059625Y007686D01*
X059625Y007844D02*
X057616Y007844D01*
X057774Y008003D02*
X059625Y008003D01*
X059625Y008161D02*
X058187Y008161D01*
X058346Y008320D02*
X059625Y008320D01*
X059625Y008478D02*
X058365Y008478D01*
X058365Y008637D02*
X059625Y008637D01*
X059625Y008795D02*
X058356Y008795D01*
X058198Y008954D02*
X059625Y008954D01*
X059625Y009112D02*
X058138Y009112D01*
X058297Y009271D02*
X059625Y009271D01*
X059625Y009429D02*
X058365Y009429D01*
X058365Y009588D02*
X059625Y009588D01*
X059625Y009746D02*
X058365Y009746D01*
X058247Y009905D02*
X059625Y009905D01*
X059625Y010063D02*
X058089Y010063D01*
X058248Y010222D02*
X059625Y010222D01*
X059625Y010380D02*
X058365Y010380D01*
X058365Y010539D02*
X059625Y010539D01*
X059625Y010697D02*
X058365Y010697D01*
X058296Y010856D02*
X059625Y010856D01*
X059625Y011014D02*
X058137Y011014D01*
X058199Y011173D02*
X059625Y011173D01*
X059625Y011331D02*
X058357Y011331D01*
X058365Y011490D02*
X059625Y011490D01*
X059625Y011648D02*
X058365Y011648D01*
X058345Y011807D02*
X059625Y011807D01*
X059625Y011965D02*
X058186Y011965D01*
X058150Y012124D02*
X059625Y012124D01*
X059625Y012282D02*
X058308Y012282D01*
X058365Y012441D02*
X059625Y012441D01*
X059625Y012599D02*
X058365Y012599D01*
X058365Y012758D02*
X059625Y012758D01*
X059625Y012916D02*
X058235Y012916D01*
X058101Y013075D02*
X059625Y013075D01*
X059625Y013233D02*
X058259Y013233D01*
X058365Y013392D02*
X059625Y013392D01*
X059625Y013550D02*
X058365Y013550D01*
X058365Y013709D02*
X059625Y013709D01*
X059625Y013867D02*
X058284Y013867D01*
X058126Y014026D02*
X059625Y014026D01*
X059625Y014184D02*
X056199Y014184D01*
X056041Y014026D02*
X056609Y014026D01*
X056805Y014026D02*
X056845Y014026D01*
X056845Y013867D02*
X056805Y013867D01*
X056805Y013709D02*
X056845Y013709D01*
X056805Y013550D02*
X055565Y013550D01*
X055407Y013392D02*
X056345Y013392D01*
X056476Y013233D02*
X052859Y013233D01*
X052701Y013075D02*
X056573Y013075D01*
X056415Y012916D02*
X055381Y012916D01*
X055539Y012758D02*
X056285Y012758D01*
X056285Y012599D02*
X055698Y012599D01*
X055856Y012441D02*
X056285Y012441D01*
X056342Y012282D02*
X055965Y012282D01*
X055985Y012124D02*
X056500Y012124D01*
X056464Y011965D02*
X055985Y011965D01*
X055985Y011807D02*
X056305Y011807D01*
X056285Y011648D02*
X055985Y011648D01*
X055985Y011490D02*
X056285Y011490D01*
X056293Y011331D02*
X055985Y011331D01*
X055985Y011173D02*
X056451Y011173D01*
X056513Y011014D02*
X055985Y011014D01*
X055985Y010856D02*
X056354Y010856D01*
X056285Y010697D02*
X055985Y010697D01*
X055985Y010539D02*
X056285Y010539D01*
X056285Y010380D02*
X055985Y010380D01*
X055985Y010222D02*
X056402Y010222D01*
X056561Y010063D02*
X055985Y010063D01*
X055985Y009905D02*
X056403Y009905D01*
X056285Y009746D02*
X055985Y009746D01*
X055985Y009588D02*
X056285Y009588D01*
X056285Y009429D02*
X055985Y009429D01*
X056026Y009271D02*
X056353Y009271D01*
X056512Y009112D02*
X056185Y009112D01*
X056343Y008954D02*
X056452Y008954D01*
X055800Y008478D02*
X055523Y008478D01*
X055563Y008637D02*
X055642Y008637D01*
X055402Y008320D02*
X055959Y008320D01*
X056463Y008161D02*
X014633Y008161D01*
X014791Y008320D02*
X054848Y008320D01*
X054727Y008478D02*
X014950Y008478D01*
X015108Y008637D02*
X054687Y008637D01*
X054706Y008795D02*
X015267Y008795D01*
X015425Y008954D02*
X054796Y008954D01*
X054805Y009112D02*
X039938Y009112D01*
X039849Y009023D02*
X040165Y009339D01*
X040165Y009786D01*
X039889Y010063D01*
X040165Y010339D01*
X040165Y010786D01*
X039849Y011103D01*
X039401Y011103D01*
X039125Y010826D01*
X038849Y011103D01*
X038401Y011103D01*
X038125Y010826D01*
X037849Y011103D01*
X037401Y011103D01*
X037125Y010826D01*
X036849Y011103D01*
X036401Y011103D01*
X036125Y010826D01*
X035849Y011103D01*
X035401Y011103D01*
X035125Y010826D01*
X034849Y011103D01*
X034401Y011103D01*
X034125Y010826D01*
X033849Y011103D01*
X033401Y011103D01*
X033125Y010826D01*
X032849Y011103D01*
X032401Y011103D01*
X032125Y010826D01*
X031849Y011103D01*
X031401Y011103D01*
X031125Y010826D01*
X030849Y011103D01*
X030401Y011103D01*
X030125Y010826D01*
X029849Y011103D01*
X029401Y011103D01*
X029125Y010826D01*
X028849Y011103D01*
X028401Y011103D01*
X028125Y010826D01*
X027849Y011103D01*
X027401Y011103D01*
X027125Y010826D01*
X026849Y011103D01*
X026401Y011103D01*
X026125Y010826D01*
X025849Y011103D01*
X025401Y011103D01*
X025125Y010826D01*
X024849Y011103D01*
X024401Y011103D01*
X024125Y010826D01*
X023849Y011103D01*
X023401Y011103D01*
X023125Y010826D01*
X022849Y011103D01*
X022401Y011103D01*
X022125Y010826D01*
X021849Y011103D01*
X021401Y011103D01*
X021125Y010826D01*
X020849Y011103D01*
X020401Y011103D01*
X020085Y010786D01*
X020085Y010339D01*
X020361Y010063D01*
X020085Y009786D01*
X020085Y009339D01*
X020401Y009023D01*
X020849Y009023D01*
X021125Y009299D01*
X021401Y009023D01*
X021849Y009023D01*
X022125Y009299D01*
X022401Y009023D01*
X022849Y009023D01*
X023125Y009299D01*
X023401Y009023D01*
X023849Y009023D01*
X024125Y009299D01*
X024401Y009023D01*
X024849Y009023D01*
X025165Y009339D01*
X025165Y009344D01*
X025426Y009083D01*
X025605Y009083D01*
X025605Y009543D01*
X025645Y009543D01*
X025645Y009083D01*
X025824Y009083D01*
X026085Y009344D01*
X026085Y009339D01*
X026401Y009023D01*
X026849Y009023D01*
X027125Y009299D01*
X027401Y009023D01*
X027849Y009023D01*
X028125Y009299D01*
X028401Y009023D01*
X028849Y009023D01*
X029125Y009299D01*
X029401Y009023D01*
X029849Y009023D01*
X030125Y009299D01*
X030401Y009023D01*
X030849Y009023D01*
X031125Y009299D01*
X031401Y009023D01*
X031849Y009023D01*
X032125Y009299D01*
X032401Y009023D01*
X032849Y009023D01*
X033125Y009299D01*
X033401Y009023D01*
X033849Y009023D01*
X034165Y009339D01*
X034165Y009344D01*
X034426Y009083D01*
X034605Y009083D01*
X034605Y009543D01*
X034645Y009543D01*
X034645Y009083D01*
X034824Y009083D01*
X035085Y009344D01*
X035085Y009339D01*
X035401Y009023D01*
X035849Y009023D01*
X036125Y009299D01*
X036401Y009023D01*
X036849Y009023D01*
X037125Y009299D01*
X037401Y009023D01*
X037849Y009023D01*
X038125Y009299D01*
X038401Y009023D01*
X038849Y009023D01*
X039125Y009299D01*
X039401Y009023D01*
X039849Y009023D01*
X040097Y009271D02*
X054427Y009271D01*
X054248Y009429D02*
X040165Y009429D01*
X040165Y009588D02*
X054187Y009588D01*
X054187Y009746D02*
X040165Y009746D01*
X040047Y009905D02*
X054251Y009905D01*
X054305Y010063D02*
X039889Y010063D01*
X040048Y010222D02*
X054305Y010222D01*
X054625Y009663D02*
X054625Y011163D01*
X054125Y011663D01*
X050625Y011663D01*
X050125Y012163D01*
X050125Y021163D01*
X050625Y021663D01*
X051325Y021563D02*
X051425Y021563D01*
X051925Y022063D01*
X053125Y022063D01*
X054725Y023663D01*
X054725Y030963D01*
X046525Y039163D01*
X020225Y039163D01*
X019875Y038813D01*
X019875Y037893D01*
X019375Y037893D02*
X019325Y037943D01*
X019325Y038863D01*
X019925Y039463D01*
X046725Y039463D01*
X055225Y030963D01*
X055225Y023463D01*
X052925Y021163D01*
X052825Y021163D01*
X052725Y021063D01*
X051725Y021063D01*
X051425Y020763D01*
X051425Y020563D01*
X051925Y020063D02*
X051425Y019563D01*
X051825Y019063D02*
X051425Y018663D01*
X051425Y018563D01*
X051825Y019063D02*
X053025Y019063D01*
X056225Y022263D01*
X056225Y030963D01*
X047125Y040063D01*
X019525Y040063D01*
X018375Y038913D01*
X018375Y037893D01*
X017875Y037893D02*
X017875Y038913D01*
X019325Y040363D01*
X047325Y040363D01*
X056625Y031063D01*
X056625Y021763D01*
X052925Y018063D01*
X051925Y018063D01*
X051425Y017563D01*
X051925Y017063D02*
X052925Y017063D01*
X057225Y021363D01*
X057225Y022263D01*
X057225Y022463D01*
X057225Y030963D01*
X047525Y040663D01*
X019125Y040663D01*
X017375Y038913D01*
X017375Y037893D01*
X016875Y037893D02*
X016875Y037893D01*
X016875Y036975D01*
X016875Y037893D01*
X016875Y037893D01*
X016875Y038811D01*
X016875Y037893D01*
X016875Y037959D02*
X016875Y037959D01*
X016875Y037801D02*
X016875Y037801D01*
X016875Y037642D02*
X016875Y037642D01*
X016875Y037484D02*
X016875Y037484D01*
X016875Y037325D02*
X016875Y037325D01*
X016875Y037167D02*
X016875Y037167D01*
X016875Y037008D02*
X016875Y037008D01*
X016985Y036850D02*
X016985Y036675D01*
X017044Y036533D02*
X015270Y036533D01*
X015375Y036351D02*
X015556Y036351D01*
X015558Y036350D01*
X015582Y036374D01*
X015375Y036216D02*
X015375Y036216D01*
X015375Y036057D02*
X015375Y036057D01*
X015375Y035899D02*
X015375Y035899D01*
X015375Y035740D02*
X015375Y035740D01*
X015375Y035582D02*
X015375Y035582D01*
X015375Y035432D02*
X015375Y034514D01*
X015375Y035432D01*
X015375Y035432D01*
X015375Y035423D02*
X015375Y035423D01*
X015375Y035265D02*
X015375Y035265D01*
X015375Y035106D02*
X015375Y035106D01*
X015375Y034948D02*
X015375Y034948D01*
X015375Y034789D02*
X015375Y034789D01*
X015375Y034631D02*
X015375Y034631D01*
X015626Y034472D02*
X004098Y034472D01*
X003949Y034323D02*
X004265Y034639D01*
X004265Y035086D01*
X003989Y035363D01*
X004265Y035639D01*
X004265Y036086D01*
X003949Y036403D01*
X003501Y036403D01*
X003225Y036126D01*
X002949Y036403D01*
X002501Y036403D01*
X002185Y036086D01*
X002185Y035639D01*
X002461Y035363D01*
X002185Y035086D01*
X002185Y034639D01*
X002501Y034323D01*
X002949Y034323D01*
X003225Y034599D01*
X003501Y034323D01*
X003949Y034323D01*
X004257Y034631D02*
X015048Y034631D01*
X015038Y034789D02*
X004265Y034789D01*
X004265Y034948D02*
X015038Y034948D01*
X015038Y035106D02*
X004245Y035106D01*
X004087Y035265D02*
X015038Y035265D01*
X015038Y035423D02*
X004049Y035423D01*
X004208Y035582D02*
X015038Y035582D01*
X015038Y035740D02*
X004265Y035740D01*
X004265Y035899D02*
X013887Y035899D01*
X013719Y036057D02*
X004265Y036057D01*
X004136Y036216D02*
X013595Y036216D01*
X013529Y036374D02*
X003977Y036374D01*
X003473Y036374D02*
X002977Y036374D01*
X003136Y036216D02*
X003314Y036216D01*
X002473Y036374D02*
X000625Y036374D01*
X000625Y036216D02*
X002314Y036216D01*
X002185Y036057D02*
X000625Y036057D01*
X000625Y035899D02*
X002185Y035899D01*
X002185Y035740D02*
X000625Y035740D01*
X000625Y035582D02*
X002242Y035582D01*
X002401Y035423D02*
X000625Y035423D01*
X000625Y035265D02*
X002363Y035265D01*
X002205Y035106D02*
X000625Y035106D01*
X000625Y034948D02*
X002185Y034948D01*
X002185Y034789D02*
X000625Y034789D01*
X000625Y034631D02*
X002193Y034631D01*
X002352Y034472D02*
X000625Y034472D01*
X003098Y034472D02*
X003352Y034472D01*
X004159Y032887D02*
X025505Y032887D01*
X025505Y032729D02*
X004000Y032729D01*
X000625Y036533D02*
X013484Y036533D01*
X013484Y036691D02*
X000625Y036691D01*
X000625Y036850D02*
X013487Y036850D01*
X013553Y037008D02*
X003023Y037008D01*
X003524Y037167D02*
X013619Y037167D01*
X013776Y037325D02*
X003824Y037325D01*
X004031Y037484D02*
X014025Y037484D01*
X014729Y037484D02*
X015038Y037484D01*
X015038Y037642D02*
X004216Y037642D01*
X004338Y037801D02*
X015038Y037801D01*
X015038Y037893D02*
X015375Y037893D01*
X015375Y036975D01*
X015375Y037893D01*
X015375Y037893D01*
X015375Y037893D01*
X015038Y037893D01*
X015038Y037959D02*
X004459Y037959D01*
X004560Y038118D02*
X015038Y038118D01*
X015038Y038276D02*
X004626Y038276D01*
X004692Y038435D02*
X015038Y038435D01*
X015038Y038593D02*
X004757Y038593D01*
X004778Y038752D02*
X015084Y038752D01*
X015375Y038752D02*
X015375Y038752D01*
X015375Y038811D02*
X015375Y037893D01*
X015375Y037893D01*
X015375Y038811D01*
X015375Y038593D02*
X015375Y038593D01*
X015375Y038435D02*
X015375Y038435D01*
X015375Y038276D02*
X015375Y038276D01*
X015375Y038118D02*
X015375Y038118D01*
X015375Y037959D02*
X015375Y037959D01*
X015375Y037801D02*
X015375Y037801D01*
X015375Y037642D02*
X015375Y037642D01*
X015375Y037484D02*
X015375Y037484D01*
X015375Y037325D02*
X015375Y037325D01*
X015375Y037167D02*
X015375Y037167D01*
X015375Y037008D02*
X015375Y037008D01*
X015038Y037325D02*
X014978Y037325D01*
X015035Y036057D02*
X015038Y036057D01*
X015038Y035899D02*
X014867Y035899D01*
X016668Y036374D02*
X016692Y036350D01*
X016694Y036351D01*
X016875Y036351D01*
X016875Y035433D01*
X016875Y035433D01*
X016875Y036351D01*
X017056Y036351D01*
X017058Y036350D01*
X017082Y036374D01*
X016875Y036216D02*
X016875Y036216D01*
X016875Y036057D02*
X016875Y036057D01*
X016875Y035899D02*
X016875Y035899D01*
X016875Y035740D02*
X016875Y035740D01*
X016875Y035582D02*
X016875Y035582D01*
X016875Y035432D02*
X016875Y034514D01*
X016875Y035432D01*
X016875Y035432D01*
X016875Y035423D02*
X016875Y035423D01*
X016875Y035265D02*
X016875Y035265D01*
X016875Y035106D02*
X016875Y035106D01*
X016875Y034948D02*
X016875Y034948D01*
X016875Y034789D02*
X016875Y034789D01*
X016875Y034631D02*
X016875Y034631D01*
X016624Y034472D02*
X017126Y034472D01*
X017624Y034472D02*
X017626Y034472D01*
X018124Y034472D02*
X018126Y034472D01*
X018624Y034472D02*
X018626Y034472D01*
X019124Y034472D02*
X019126Y034472D01*
X019624Y034472D02*
X019626Y034472D01*
X019875Y035433D02*
X019925Y035483D01*
X019925Y036563D01*
X019425Y036763D02*
X019425Y035483D01*
X019375Y035433D01*
X018925Y035483D02*
X018875Y035433D01*
X018925Y035483D02*
X018925Y036563D01*
X018425Y036763D02*
X018425Y035383D01*
X018375Y035433D01*
X018425Y035383D02*
X018425Y035363D01*
X017925Y035463D02*
X017895Y035433D01*
X017875Y035433D01*
X017895Y035433D02*
X017825Y035363D01*
X017925Y035463D02*
X017925Y036563D01*
X017425Y036763D02*
X017425Y035483D01*
X017375Y035433D01*
X016126Y034472D02*
X016124Y034472D01*
X018875Y037893D02*
X018875Y038913D01*
X019725Y039763D01*
X046925Y039763D01*
X055725Y030963D01*
X055725Y022763D01*
X053025Y020063D01*
X051925Y020063D01*
X050625Y020663D02*
X050625Y012663D01*
X051125Y012163D01*
X054625Y012163D01*
X055125Y011663D01*
X055125Y008663D01*
X056280Y007527D02*
X013999Y007527D01*
X014157Y007686D02*
X056439Y007686D01*
X056597Y007844D02*
X014316Y007844D01*
X014474Y008003D02*
X056756Y008003D01*
X056122Y007369D02*
X013840Y007369D01*
X013682Y007210D02*
X055963Y007210D01*
X055805Y007052D02*
X013745Y007052D01*
X013202Y006576D02*
X012721Y006576D01*
X012879Y006418D02*
X013361Y006418D01*
X013212Y006259D02*
X013038Y006259D01*
X013044Y006735D02*
X012562Y006735D01*
X012404Y006893D02*
X012885Y006893D01*
X012781Y007052D02*
X008523Y007052D01*
X008682Y007210D02*
X012765Y007210D01*
X012822Y007369D02*
X008840Y007369D01*
X008999Y007527D02*
X012980Y007527D01*
X012921Y007468D02*
X012921Y007468D01*
X013139Y007686D02*
X009141Y007686D01*
X009185Y007844D02*
X013297Y007844D01*
X013456Y008003D02*
X009185Y008003D01*
X009185Y008161D02*
X013614Y008161D01*
X013773Y008320D02*
X009185Y008320D01*
X009185Y008478D02*
X013931Y008478D01*
X014090Y008637D02*
X009185Y008637D01*
X009185Y008795D02*
X014248Y008795D01*
X014407Y008954D02*
X009185Y008954D01*
X009185Y009112D02*
X014565Y009112D01*
X014724Y009271D02*
X009185Y009271D01*
X009185Y009429D02*
X014882Y009429D01*
X015041Y009588D02*
X009185Y009588D01*
X009185Y009746D02*
X015199Y009746D01*
X015358Y009905D02*
X009185Y009905D01*
X009185Y010063D02*
X015516Y010063D01*
X015615Y010222D02*
X009185Y010222D01*
X009185Y010380D02*
X015720Y010380D01*
X016330Y010380D02*
X020085Y010380D01*
X020085Y010539D02*
X009185Y010539D01*
X009185Y010697D02*
X020085Y010697D01*
X020154Y010856D02*
X009185Y010856D01*
X009185Y011014D02*
X020313Y011014D01*
X020937Y011014D02*
X021313Y011014D01*
X021154Y010856D02*
X021096Y010856D01*
X021937Y011014D02*
X022313Y011014D01*
X022154Y010856D02*
X022096Y010856D01*
X022937Y011014D02*
X023313Y011014D01*
X023154Y010856D02*
X023096Y010856D01*
X023937Y011014D02*
X024313Y011014D01*
X024154Y010856D02*
X024096Y010856D01*
X024937Y011014D02*
X025313Y011014D01*
X025154Y010856D02*
X025096Y010856D01*
X025625Y010563D02*
X025725Y010663D01*
X025937Y011014D02*
X026313Y011014D01*
X026154Y010856D02*
X026096Y010856D01*
X026937Y011014D02*
X027313Y011014D01*
X027154Y010856D02*
X027096Y010856D01*
X027937Y011014D02*
X028313Y011014D01*
X028154Y010856D02*
X028096Y010856D01*
X028937Y011014D02*
X029313Y011014D01*
X029154Y010856D02*
X029096Y010856D01*
X029937Y011014D02*
X030313Y011014D01*
X030154Y010856D02*
X030096Y010856D01*
X030937Y011014D02*
X031313Y011014D01*
X031154Y010856D02*
X031096Y010856D01*
X031937Y011014D02*
X032313Y011014D01*
X032154Y010856D02*
X032096Y010856D01*
X032937Y011014D02*
X033313Y011014D01*
X033154Y010856D02*
X033096Y010856D01*
X033937Y011014D02*
X034313Y011014D01*
X034154Y010856D02*
X034096Y010856D01*
X034937Y011014D02*
X035313Y011014D01*
X035154Y010856D02*
X035096Y010856D01*
X035937Y011014D02*
X036313Y011014D01*
X036154Y010856D02*
X036096Y010856D01*
X036937Y011014D02*
X037313Y011014D01*
X037154Y010856D02*
X037096Y010856D01*
X037937Y011014D02*
X038313Y011014D01*
X038154Y010856D02*
X038096Y010856D01*
X038937Y011014D02*
X039313Y011014D01*
X039154Y010856D02*
X039096Y010856D01*
X039937Y011014D02*
X048840Y011014D01*
X048805Y011173D02*
X009185Y011173D01*
X009185Y011331D02*
X048805Y011331D01*
X048805Y011490D02*
X009185Y011490D01*
X009185Y011648D02*
X048805Y011648D01*
X048805Y011807D02*
X009185Y011807D01*
X009151Y011965D02*
X048805Y011965D01*
X048805Y012124D02*
X009023Y012124D01*
X008865Y012282D02*
X048805Y012282D01*
X048805Y012441D02*
X008706Y012441D01*
X008548Y012599D02*
X048805Y012599D01*
X048805Y012758D02*
X008389Y012758D01*
X008231Y012916D02*
X048805Y012916D01*
X048805Y013075D02*
X008072Y013075D01*
X007914Y013233D02*
X048805Y013233D01*
X048805Y013392D02*
X007755Y013392D01*
X007597Y013550D02*
X048805Y013550D01*
X048805Y013709D02*
X007577Y013709D01*
X007590Y013867D02*
X048805Y013867D01*
X048805Y014026D02*
X007590Y014026D01*
X007549Y014184D02*
X048805Y014184D01*
X048805Y014343D02*
X007483Y014343D01*
X007360Y014501D02*
X048805Y014501D01*
X048805Y014660D02*
X007182Y014660D01*
X006329Y014818D02*
X014847Y014818D01*
X014726Y014977D02*
X006170Y014977D01*
X006012Y015135D02*
X014685Y015135D01*
X014703Y015294D02*
X005853Y015294D01*
X005695Y015452D02*
X014792Y015452D01*
X014805Y015611D02*
X005536Y015611D01*
X005378Y015769D02*
X014805Y015769D01*
X014805Y015928D02*
X005219Y015928D01*
X006327Y020841D02*
X003182Y020841D01*
X003152Y021000D02*
X006218Y021000D01*
X006187Y021158D02*
X003087Y021158D01*
X002934Y021317D02*
X006215Y021317D01*
X002203Y021951D02*
X001685Y021951D01*
X001685Y022109D02*
X002015Y022109D01*
X001922Y022268D02*
X001685Y022268D01*
X001685Y022426D02*
X001868Y022426D01*
X001868Y022585D02*
X001685Y022585D01*
X001685Y022743D02*
X001902Y022743D01*
X001969Y022902D02*
X001685Y022902D01*
X001685Y023060D02*
X002127Y023060D01*
X001685Y025755D02*
X009524Y025755D01*
X009365Y025913D02*
X001685Y025913D01*
X001685Y026072D02*
X009207Y026072D01*
X009048Y026230D02*
X001685Y026230D01*
X001685Y026389D02*
X008890Y026389D01*
X008731Y026547D02*
X001685Y026547D01*
X001685Y026706D02*
X008573Y026706D01*
X012125Y024663D02*
X022625Y024663D01*
X023625Y025663D01*
X023625Y026663D01*
X024625Y025663D02*
X024625Y025563D01*
X029956Y026230D02*
X030294Y026230D01*
X030135Y026389D02*
X030115Y026389D01*
X036956Y026230D02*
X037294Y026230D01*
X037135Y026389D02*
X037115Y026389D01*
X037625Y026663D02*
X038125Y027163D01*
X038115Y026389D02*
X038135Y026389D01*
X038294Y026230D02*
X037956Y026230D01*
X040125Y027163D02*
X040225Y027263D01*
X040875Y027913D01*
X040875Y035433D01*
X040375Y035433D02*
X040375Y028013D01*
X040225Y027863D01*
X040025Y027663D01*
X039625Y027663D01*
X048067Y027974D02*
X048086Y027974D01*
X052245Y026230D02*
X053205Y026230D01*
X053205Y026072D02*
X052245Y026072D01*
X052445Y026043D02*
X052445Y025583D01*
X052905Y025583D01*
X052905Y025762D01*
X052624Y026043D01*
X052445Y026043D01*
X052445Y025913D02*
X052405Y025913D01*
X052405Y025755D02*
X052445Y025755D01*
X052445Y025596D02*
X052405Y025596D01*
X052753Y025913D02*
X053205Y025913D01*
X053205Y025755D02*
X052905Y025755D01*
X052905Y025596D02*
X053205Y025596D01*
X053205Y025438D02*
X052905Y025438D01*
X052820Y025279D02*
X053205Y025279D01*
X053205Y025121D02*
X052662Y025121D01*
X052789Y024962D02*
X053205Y024962D01*
X053205Y024804D02*
X052948Y024804D01*
X052965Y024645D02*
X053205Y024645D01*
X053096Y024487D02*
X052965Y024487D01*
X051925Y025063D02*
X051425Y024563D01*
X056839Y020524D02*
X059625Y020524D01*
X059625Y020366D02*
X056681Y020366D01*
X056522Y020207D02*
X059625Y020207D01*
X059625Y020049D02*
X057559Y020049D01*
X057646Y019890D02*
X059625Y019890D01*
X059625Y019732D02*
X057663Y019732D01*
X057621Y019573D02*
X059625Y019573D01*
X059625Y019415D02*
X057545Y019415D01*
X057545Y019256D02*
X057999Y019256D01*
X057907Y019098D02*
X057545Y019098D01*
X057545Y018939D02*
X057887Y018939D01*
X057926Y018781D02*
X057545Y018781D01*
X057545Y018622D02*
X058005Y018622D01*
X058325Y018963D02*
X058325Y015763D01*
X058125Y015563D01*
X058476Y015294D02*
X059625Y015294D01*
X059625Y015452D02*
X058553Y015452D01*
X058608Y015611D02*
X059625Y015611D01*
X059625Y015769D02*
X058645Y015769D01*
X058645Y015928D02*
X059625Y015928D01*
X059625Y016086D02*
X058645Y016086D01*
X058645Y016245D02*
X059625Y016245D01*
X059625Y016403D02*
X058645Y016403D01*
X058645Y016562D02*
X059625Y016562D01*
X059625Y016720D02*
X058645Y016720D01*
X058645Y016879D02*
X059625Y016879D01*
X059625Y017037D02*
X058645Y017037D01*
X058645Y017196D02*
X059625Y017196D01*
X059625Y017354D02*
X058645Y017354D01*
X058645Y017513D02*
X059625Y017513D01*
X059625Y017671D02*
X058645Y017671D01*
X058645Y017830D02*
X059625Y017830D01*
X059625Y017988D02*
X058645Y017988D01*
X058645Y018147D02*
X059625Y018147D01*
X059625Y018305D02*
X058645Y018305D01*
X058645Y018464D02*
X059625Y018464D01*
X059625Y018622D02*
X058645Y018622D01*
X058724Y018781D02*
X059625Y018781D01*
X059625Y018939D02*
X058763Y018939D01*
X058743Y019098D02*
X059625Y019098D01*
X059625Y019256D02*
X058651Y019256D01*
X057225Y019763D02*
X057225Y015663D01*
X055125Y013563D01*
X052425Y013563D01*
X052274Y013023D02*
X052274Y013023D01*
X051525Y013563D02*
X051425Y013563D01*
X051725Y014063D02*
X051425Y014363D01*
X051425Y014563D01*
X051725Y014063D02*
X054825Y014063D01*
X056525Y015763D01*
X056525Y019763D01*
X056859Y020049D02*
X056891Y020049D01*
X056998Y020683D02*
X059625Y020683D01*
X059625Y020841D02*
X057156Y020841D01*
X057315Y021000D02*
X059625Y021000D01*
X059625Y021158D02*
X057473Y021158D01*
X057545Y021317D02*
X059625Y021317D01*
X059625Y021475D02*
X057545Y021475D01*
X057545Y021634D02*
X059625Y021634D01*
X059625Y021792D02*
X057545Y021792D01*
X057545Y021951D02*
X059625Y021951D01*
X059625Y022109D02*
X057545Y022109D01*
X057545Y022268D02*
X059625Y022268D01*
X059625Y022426D02*
X057545Y022426D01*
X057545Y022585D02*
X059625Y022585D01*
X059625Y022743D02*
X057545Y022743D01*
X057545Y022902D02*
X059625Y022902D01*
X059625Y023060D02*
X057545Y023060D01*
X057545Y023219D02*
X059625Y023219D01*
X059625Y023377D02*
X057545Y023377D01*
X057545Y023536D02*
X059625Y023536D01*
X059625Y023694D02*
X057545Y023694D01*
X057545Y023853D02*
X059625Y023853D01*
X059625Y024011D02*
X057545Y024011D01*
X057545Y024170D02*
X059625Y024170D01*
X059625Y024328D02*
X057545Y024328D01*
X057545Y024487D02*
X059625Y024487D01*
X059625Y024645D02*
X057545Y024645D01*
X057545Y024804D02*
X059625Y024804D01*
X059625Y024962D02*
X057545Y024962D01*
X057545Y025121D02*
X059625Y025121D01*
X059625Y025279D02*
X057545Y025279D01*
X057545Y025438D02*
X059625Y025438D01*
X059625Y025596D02*
X057545Y025596D01*
X057545Y025755D02*
X059625Y025755D01*
X059625Y025913D02*
X057545Y025913D01*
X057545Y026072D02*
X059625Y026072D01*
X059625Y026230D02*
X057545Y026230D01*
X057545Y026389D02*
X059625Y026389D01*
X059625Y026547D02*
X057545Y026547D01*
X057545Y026706D02*
X059625Y026706D01*
X059625Y026864D02*
X057545Y026864D01*
X057545Y027023D02*
X059625Y027023D01*
X059625Y027181D02*
X057545Y027181D01*
X057545Y027340D02*
X059625Y027340D01*
X059625Y027498D02*
X057545Y027498D01*
X057545Y027657D02*
X059625Y027657D01*
X059625Y027815D02*
X057545Y027815D01*
X057545Y027974D02*
X059625Y027974D01*
X059625Y028132D02*
X057545Y028132D01*
X057545Y028291D02*
X059625Y028291D01*
X059625Y028449D02*
X057545Y028449D01*
X057545Y028608D02*
X059625Y028608D01*
X059625Y028766D02*
X057545Y028766D01*
X057545Y028925D02*
X059625Y028925D01*
X059625Y029083D02*
X057545Y029083D01*
X057545Y029242D02*
X059625Y029242D01*
X059625Y029400D02*
X057545Y029400D01*
X057545Y029559D02*
X059625Y029559D01*
X059625Y029717D02*
X057545Y029717D01*
X057545Y029876D02*
X059625Y029876D01*
X059625Y030034D02*
X057545Y030034D01*
X057545Y030193D02*
X059625Y030193D01*
X059625Y030351D02*
X057545Y030351D01*
X057545Y030510D02*
X059625Y030510D01*
X059625Y030668D02*
X057545Y030668D01*
X057545Y030827D02*
X059625Y030827D01*
X059625Y030985D02*
X057545Y030985D01*
X057496Y031144D02*
X059625Y031144D01*
X059625Y031302D02*
X057338Y031302D01*
X057180Y031461D02*
X059625Y031461D01*
X059625Y031619D02*
X057021Y031619D01*
X056863Y031778D02*
X059625Y031778D01*
X059625Y031936D02*
X056704Y031936D01*
X056545Y032095D02*
X059625Y032095D01*
X059625Y032253D02*
X056387Y032253D01*
X056228Y032412D02*
X059625Y032412D01*
X059625Y032570D02*
X056070Y032570D01*
X055911Y032729D02*
X059625Y032729D01*
X059625Y032887D02*
X055753Y032887D01*
X055594Y033046D02*
X059625Y033046D01*
X059625Y033204D02*
X055436Y033204D01*
X055277Y033363D02*
X059625Y033363D01*
X059625Y033521D02*
X055119Y033521D01*
X054960Y033680D02*
X059625Y033680D01*
X059625Y033838D02*
X054802Y033838D01*
X054643Y033997D02*
X059625Y033997D01*
X059625Y034155D02*
X054485Y034155D01*
X054326Y034314D02*
X059625Y034314D01*
X059625Y034472D02*
X054168Y034472D01*
X054009Y034631D02*
X059625Y034631D01*
X059625Y034789D02*
X053851Y034789D01*
X053692Y034948D02*
X059625Y034948D01*
X059625Y035106D02*
X053534Y035106D01*
X053375Y035265D02*
X059625Y035265D01*
X059625Y035423D02*
X053217Y035423D01*
X053058Y035582D02*
X059625Y035582D01*
X059625Y035740D02*
X052900Y035740D01*
X052741Y035899D02*
X059625Y035899D01*
X059625Y036057D02*
X052583Y036057D01*
X052424Y036216D02*
X059625Y036216D01*
X059625Y036374D02*
X052266Y036374D01*
X052107Y036533D02*
X059625Y036533D01*
X059625Y036691D02*
X051949Y036691D01*
X051790Y036850D02*
X059625Y036850D01*
X059625Y037008D02*
X058023Y037008D01*
X058524Y037167D02*
X059625Y037167D01*
X059625Y037325D02*
X058824Y037325D01*
X059031Y037484D02*
X059625Y037484D01*
X059625Y037642D02*
X059216Y037642D01*
X059338Y037801D02*
X059625Y037801D01*
X059625Y037959D02*
X059459Y037959D01*
X059560Y038118D02*
X059625Y038118D01*
X057227Y037008D02*
X051632Y037008D01*
X051473Y037167D02*
X056726Y037167D01*
X056426Y037325D02*
X051315Y037325D01*
X051156Y037484D02*
X056219Y037484D01*
X056034Y037642D02*
X050998Y037642D01*
X050839Y037801D02*
X055912Y037801D01*
X055791Y037959D02*
X050681Y037959D01*
X050522Y038118D02*
X055690Y038118D01*
X055624Y038276D02*
X050364Y038276D01*
X050205Y038435D02*
X055558Y038435D01*
X055493Y038593D02*
X050047Y038593D01*
X049888Y038752D02*
X055472Y038752D01*
X055451Y038910D02*
X049730Y038910D01*
X049571Y039069D02*
X055431Y039069D01*
X055427Y039227D02*
X049413Y039227D01*
X049254Y039386D02*
X055448Y039386D01*
X055468Y039544D02*
X049096Y039544D01*
X048937Y039703D02*
X055489Y039703D01*
X055546Y039861D02*
X048779Y039861D01*
X048620Y040020D02*
X055612Y040020D01*
X055677Y040178D02*
X048462Y040178D01*
X048303Y040337D02*
X055768Y040337D01*
X055890Y040495D02*
X048145Y040495D01*
X047986Y040654D02*
X056011Y040654D01*
X056065Y040723D02*
X056065Y040723D01*
X056181Y040812D02*
X047828Y040812D01*
X047617Y040971D02*
X056387Y040971D01*
X056655Y041129D02*
X003595Y041129D01*
X003863Y040971D02*
X019033Y040971D01*
X018822Y040812D02*
X004069Y040812D01*
X004239Y040654D02*
X018664Y040654D01*
X018505Y040495D02*
X004360Y040495D01*
X004482Y040337D02*
X018347Y040337D01*
X018188Y040178D02*
X004573Y040178D01*
X004638Y040020D02*
X018030Y040020D01*
X017871Y039861D02*
X004704Y039861D01*
X004761Y039703D02*
X017713Y039703D01*
X017554Y039544D02*
X004782Y039544D01*
X004802Y039386D02*
X017396Y039386D01*
X017237Y039227D02*
X004823Y039227D01*
X004819Y039069D02*
X017093Y039069D01*
X017055Y038910D02*
X004799Y038910D01*
X002227Y037008D02*
X000625Y037008D01*
X000625Y037167D02*
X001726Y037167D01*
X001426Y037325D02*
X000625Y037325D01*
X000625Y037484D02*
X001219Y037484D01*
X001034Y037642D02*
X000625Y037642D01*
X000625Y037801D02*
X000912Y037801D01*
X000791Y037959D02*
X000625Y037959D01*
X000625Y038118D02*
X000690Y038118D01*
X016875Y038118D02*
X016875Y038118D01*
X016875Y038276D02*
X016875Y038276D01*
X016875Y038435D02*
X016875Y038435D01*
X016875Y038593D02*
X016875Y038593D01*
X016875Y038752D02*
X016875Y038752D01*
X024375Y037893D02*
X024375Y036613D01*
X024325Y036563D01*
X024825Y036863D02*
X024875Y036913D01*
X024875Y037893D01*
X027375Y037801D02*
X027375Y037801D01*
X027375Y037642D02*
X027375Y037642D01*
X027375Y037484D02*
X027375Y037484D01*
X027375Y037325D02*
X027375Y037325D01*
X027375Y037167D02*
X027375Y037167D01*
X027375Y037008D02*
X027375Y037008D01*
X027365Y036850D02*
X027490Y036850D01*
X034925Y036563D02*
X034925Y037843D01*
X034875Y037893D01*
X035375Y037893D02*
X035375Y036913D01*
X035425Y036863D01*
X035875Y036613D02*
X035925Y036563D01*
X035925Y036663D01*
X035875Y036613D02*
X035875Y037893D01*
X036375Y037893D02*
X036375Y036913D01*
X036425Y036863D01*
X036875Y036613D02*
X036925Y036563D01*
X036875Y036613D02*
X036875Y037893D01*
X037375Y037893D02*
X037375Y036913D01*
X037425Y036863D01*
X037830Y036691D02*
X038002Y036691D01*
X037985Y036533D02*
X037717Y036533D01*
X037668Y036374D02*
X037692Y036350D01*
X037694Y036351D01*
X037875Y036351D01*
X037875Y036216D02*
X037875Y036216D01*
X037875Y036057D02*
X037875Y036057D01*
X037875Y035899D02*
X037875Y035899D01*
X037875Y035740D02*
X037875Y035740D01*
X037875Y035582D02*
X037875Y035582D01*
X038425Y036563D02*
X038425Y037843D01*
X038423Y037856D01*
X038418Y037868D01*
X038410Y037878D01*
X038400Y037886D01*
X038388Y037891D01*
X038375Y037893D01*
X038875Y037893D02*
X038890Y037876D01*
X038902Y037857D01*
X038912Y037837D01*
X038919Y037816D01*
X038924Y037794D01*
X038925Y037772D01*
X038925Y036863D01*
X039325Y036563D02*
X039325Y037843D01*
X039327Y037856D01*
X039332Y037868D01*
X039340Y037878D01*
X039350Y037886D01*
X039362Y037891D01*
X039375Y037893D01*
X039825Y037802D02*
X039825Y036763D01*
X040325Y036563D02*
X040325Y037802D01*
X040354Y037872D02*
X040375Y037893D01*
X040354Y037873D02*
X040342Y037858D01*
X040333Y037840D01*
X040327Y037822D01*
X040325Y037802D01*
X039854Y037873D02*
X039842Y037858D01*
X039833Y037840D01*
X039827Y037822D01*
X039825Y037802D01*
X039854Y037872D02*
X039875Y037893D01*
X040825Y037963D02*
X040925Y038063D01*
X040925Y037863D01*
X040925Y037463D01*
X040925Y036763D01*
X041306Y036533D02*
X041944Y036533D01*
X041885Y036691D02*
X041365Y036691D01*
X041875Y036351D02*
X042056Y036351D01*
X042058Y036350D01*
X042082Y036374D01*
X041875Y036216D02*
X041875Y036216D01*
X041875Y036057D02*
X041875Y036057D01*
X041875Y035899D02*
X041875Y035899D01*
X041875Y035740D02*
X041875Y035740D01*
X041875Y035582D02*
X041875Y035582D01*
X042375Y036713D02*
X042325Y036763D01*
X042325Y037843D01*
X042375Y037893D01*
X042825Y037843D02*
X042825Y036563D01*
X043425Y036763D02*
X043425Y037843D01*
X043375Y037893D01*
X043875Y037893D02*
X043925Y037843D01*
X043925Y036563D01*
X044321Y036374D02*
X045026Y036374D01*
X044980Y036533D02*
X044363Y036533D01*
X044346Y036691D02*
X044980Y036691D01*
X044984Y036850D02*
X044258Y036850D01*
X044375Y037008D02*
X044375Y037008D01*
X044375Y037167D02*
X044375Y037167D01*
X044375Y037325D02*
X044375Y037325D01*
X044375Y037484D02*
X044375Y037484D01*
X044375Y037642D02*
X044375Y037642D01*
X044375Y037801D02*
X044375Y037801D01*
X044375Y037893D02*
X044375Y038811D01*
X044375Y037893D01*
X044375Y037893D01*
X044375Y037959D02*
X044375Y037959D01*
X044375Y038118D02*
X044375Y038118D01*
X044375Y038276D02*
X044375Y038276D01*
X044375Y038435D02*
X044375Y038435D01*
X044375Y038593D02*
X044375Y038593D01*
X044375Y038752D02*
X044375Y038752D01*
X044875Y038752D02*
X044875Y038752D01*
X044875Y038811D02*
X044875Y037893D01*
X044875Y037893D01*
X044875Y038811D01*
X044875Y038593D02*
X044875Y038593D01*
X044875Y038435D02*
X044875Y038435D01*
X044875Y038276D02*
X044875Y038276D01*
X044875Y038118D02*
X044875Y038118D01*
X044875Y037959D02*
X044875Y037959D01*
X044875Y037801D02*
X044875Y037801D01*
X044875Y037642D02*
X044875Y037642D01*
X044875Y037484D02*
X044875Y037484D01*
X044875Y037325D02*
X044875Y037325D01*
X044875Y037167D02*
X044875Y037167D01*
X044875Y037008D02*
X044875Y037008D01*
X045212Y037325D02*
X045272Y037325D01*
X045212Y037484D02*
X045521Y037484D01*
X045212Y037642D02*
X047593Y037642D01*
X047751Y037484D02*
X046225Y037484D01*
X046474Y037325D02*
X047910Y037325D01*
X048068Y037167D02*
X046631Y037167D01*
X046697Y037008D02*
X048227Y037008D01*
X048385Y036850D02*
X046763Y036850D01*
X046766Y036691D02*
X048544Y036691D01*
X048702Y036533D02*
X046766Y036533D01*
X046721Y036374D02*
X048861Y036374D01*
X049019Y036216D02*
X046655Y036216D01*
X046531Y036057D02*
X049178Y036057D01*
X049336Y035899D02*
X046363Y035899D01*
X045383Y035899D02*
X045212Y035899D01*
X045212Y036057D02*
X045215Y036057D01*
X045212Y035740D02*
X049495Y035740D01*
X049653Y035582D02*
X045212Y035582D01*
X045212Y035423D02*
X049812Y035423D01*
X049970Y035265D02*
X045212Y035265D01*
X045212Y035106D02*
X050129Y035106D01*
X050287Y034948D02*
X045212Y034948D01*
X045212Y034789D02*
X050446Y034789D01*
X050604Y034631D02*
X045202Y034631D01*
X044875Y034631D02*
X044875Y034631D01*
X044875Y034514D02*
X044875Y035432D01*
X044875Y035432D01*
X044875Y034514D01*
X044875Y034789D02*
X044875Y034789D01*
X044875Y034948D02*
X044875Y034948D01*
X044875Y035106D02*
X044875Y035106D01*
X044875Y035265D02*
X044875Y035265D01*
X044875Y035423D02*
X044875Y035423D01*
X044875Y035582D02*
X044875Y035582D01*
X044875Y035740D02*
X044875Y035740D01*
X044875Y035899D02*
X044875Y035899D01*
X044875Y036057D02*
X044875Y036057D01*
X044875Y036216D02*
X044875Y036216D01*
X044375Y036216D02*
X044375Y036216D01*
X044375Y036057D02*
X044375Y036057D01*
X044375Y035899D02*
X044375Y035899D01*
X044375Y035740D02*
X044375Y035740D01*
X044375Y035582D02*
X044375Y035582D01*
X045212Y037801D02*
X047434Y037801D01*
X047276Y037959D02*
X045212Y037959D01*
X045212Y038118D02*
X047117Y038118D01*
X046959Y038276D02*
X045212Y038276D01*
X045212Y038435D02*
X046800Y038435D01*
X046642Y038593D02*
X045212Y038593D01*
X045166Y038752D02*
X046483Y038752D01*
X042875Y037893D02*
X042825Y037843D01*
X040875Y037893D02*
X040875Y037913D01*
X040825Y037963D01*
X038090Y036850D02*
X037865Y036850D01*
X037875Y037008D02*
X037875Y037008D01*
X037875Y037167D02*
X037875Y037167D01*
X037875Y037325D02*
X037875Y037325D01*
X037875Y037484D02*
X037875Y037484D01*
X037875Y037642D02*
X037875Y037642D01*
X037875Y037801D02*
X037875Y037801D01*
X055925Y019263D02*
X055925Y015763D01*
X055225Y015063D01*
X051925Y015063D01*
X051425Y015563D01*
X051425Y016563D02*
X051925Y017063D01*
X048805Y014818D02*
X015403Y014818D01*
X016435Y010222D02*
X020202Y010222D01*
X020361Y010063D02*
X016465Y010063D01*
X016436Y009905D02*
X020203Y009905D01*
X020085Y009746D02*
X016331Y009746D01*
X016059Y009588D02*
X020085Y009588D01*
X020085Y009429D02*
X015901Y009429D01*
X015742Y009271D02*
X020153Y009271D01*
X020312Y009112D02*
X015584Y009112D01*
X019404Y006893D02*
X020546Y006893D01*
X020388Y006735D02*
X019562Y006735D01*
X019721Y006576D02*
X020229Y006576D01*
X020071Y006418D02*
X019879Y006418D01*
X019975Y005813D02*
X020125Y005663D01*
X020660Y005150D02*
X023905Y005150D01*
X023746Y004991D02*
X020860Y004991D01*
X020939Y004833D02*
X023625Y004833D01*
X023625Y004674D02*
X020965Y004674D01*
X020949Y004516D02*
X023625Y004516D01*
X023723Y004357D02*
X020883Y004357D01*
X020716Y004199D02*
X023882Y004199D01*
X024722Y003882D02*
X020852Y003882D01*
X020901Y003723D02*
X024685Y003723D01*
X024685Y003565D02*
X020895Y003565D01*
X020832Y003406D02*
X024759Y003406D01*
X025125Y003723D02*
X025125Y003723D01*
X025125Y003882D02*
X025125Y003882D01*
X025125Y004040D02*
X025125Y004040D01*
X024772Y005308D02*
X020834Y005308D01*
X018125Y004040D02*
X018125Y004040D01*
X018125Y003882D02*
X018125Y003882D01*
X018125Y003723D02*
X018125Y003723D01*
X017722Y003882D02*
X013852Y003882D01*
X013901Y003723D02*
X017685Y003723D01*
X017685Y003565D02*
X013895Y003565D01*
X013832Y003406D02*
X017759Y003406D01*
X016882Y004199D02*
X013716Y004199D01*
X013883Y004357D02*
X016723Y004357D01*
X016625Y004516D02*
X013949Y004516D01*
X013965Y004674D02*
X016625Y004674D01*
X016625Y004833D02*
X013939Y004833D01*
X013860Y004991D02*
X016746Y004991D01*
X016905Y005150D02*
X013660Y005150D01*
X013834Y005308D02*
X017772Y005308D01*
X020938Y009112D02*
X021312Y009112D01*
X021153Y009271D02*
X021097Y009271D01*
X021938Y009112D02*
X022312Y009112D01*
X022153Y009271D02*
X022097Y009271D01*
X022938Y009112D02*
X023312Y009112D01*
X023153Y009271D02*
X023097Y009271D01*
X023938Y009112D02*
X024312Y009112D01*
X024153Y009271D02*
X024097Y009271D01*
X024938Y009112D02*
X025397Y009112D01*
X025605Y009112D02*
X025645Y009112D01*
X025645Y009271D02*
X025605Y009271D01*
X025605Y009429D02*
X025645Y009429D01*
X025853Y009112D02*
X026312Y009112D01*
X026153Y009271D02*
X026012Y009271D01*
X026938Y009112D02*
X027312Y009112D01*
X027153Y009271D02*
X027097Y009271D01*
X027938Y009112D02*
X028312Y009112D01*
X028153Y009271D02*
X028097Y009271D01*
X028938Y009112D02*
X029312Y009112D01*
X029153Y009271D02*
X029097Y009271D01*
X029938Y009112D02*
X030312Y009112D01*
X030153Y009271D02*
X030097Y009271D01*
X030938Y009112D02*
X031312Y009112D01*
X031153Y009271D02*
X031097Y009271D01*
X031938Y009112D02*
X032312Y009112D01*
X032153Y009271D02*
X032097Y009271D01*
X032938Y009112D02*
X033312Y009112D01*
X033153Y009271D02*
X033097Y009271D01*
X033938Y009112D02*
X034397Y009112D01*
X034605Y009112D02*
X034645Y009112D01*
X034645Y009271D02*
X034605Y009271D01*
X034605Y009429D02*
X034645Y009429D01*
X034853Y009112D02*
X035312Y009112D01*
X035153Y009271D02*
X035012Y009271D01*
X035938Y009112D02*
X036312Y009112D01*
X036153Y009271D02*
X036097Y009271D01*
X036938Y009112D02*
X037312Y009112D01*
X037153Y009271D02*
X037097Y009271D01*
X037938Y009112D02*
X038312Y009112D01*
X038153Y009271D02*
X038097Y009271D01*
X038938Y009112D02*
X039312Y009112D01*
X039153Y009271D02*
X039097Y009271D01*
X040165Y010380D02*
X049471Y010380D01*
X049296Y010539D02*
X040165Y010539D01*
X040165Y010697D02*
X049138Y010697D01*
X048979Y010856D02*
X040096Y010856D01*
X040304Y006893D02*
X041846Y006893D01*
X041688Y006735D02*
X040462Y006735D01*
X040621Y006576D02*
X041529Y006576D01*
X041371Y006418D02*
X040779Y006418D01*
X040938Y006259D02*
X041212Y006259D01*
X041125Y005663D02*
X041025Y005663D01*
X038772Y005308D02*
X034834Y005308D01*
X034660Y005150D02*
X037905Y005150D01*
X037746Y004991D02*
X034860Y004991D01*
X034939Y004833D02*
X037625Y004833D01*
X037625Y004674D02*
X034965Y004674D01*
X034949Y004516D02*
X037625Y004516D01*
X037723Y004357D02*
X034883Y004357D01*
X034716Y004199D02*
X037882Y004199D01*
X038722Y003882D02*
X034852Y003882D01*
X034901Y003723D02*
X038685Y003723D01*
X038685Y003565D02*
X034895Y003565D01*
X034832Y003406D02*
X038759Y003406D01*
X039125Y003723D02*
X039125Y003723D01*
X039125Y003882D02*
X039125Y003882D01*
X039125Y004040D02*
X039125Y004040D01*
X034846Y006893D02*
X033404Y006893D01*
X033562Y006735D02*
X034688Y006735D01*
X034529Y006576D02*
X033721Y006576D01*
X033879Y006418D02*
X034371Y006418D01*
X034212Y006259D02*
X034038Y006259D01*
X031772Y005308D02*
X027834Y005308D01*
X027660Y005150D02*
X030905Y005150D01*
X030746Y004991D02*
X027860Y004991D01*
X027939Y004833D02*
X030625Y004833D01*
X030625Y004674D02*
X027965Y004674D01*
X027949Y004516D02*
X030625Y004516D01*
X030723Y004357D02*
X027883Y004357D01*
X027716Y004199D02*
X030882Y004199D01*
X031722Y003882D02*
X027852Y003882D01*
X027901Y003723D02*
X031685Y003723D01*
X031685Y003565D02*
X027895Y003565D01*
X027832Y003406D02*
X031759Y003406D01*
X032125Y003723D02*
X032125Y003723D01*
X032125Y003882D02*
X032125Y003882D01*
X032125Y004040D02*
X032125Y004040D01*
X027846Y006893D02*
X026404Y006893D01*
X026562Y006735D02*
X027688Y006735D01*
X027529Y006576D02*
X026721Y006576D01*
X026879Y006418D02*
X027371Y006418D01*
X027212Y006259D02*
X027038Y006259D01*
X025238Y009271D02*
X025097Y009271D01*
X034097Y009271D02*
X034238Y009271D01*
X053604Y006893D02*
X055646Y006893D01*
X055488Y006735D02*
X053762Y006735D01*
X053921Y006576D02*
X055329Y006576D01*
X055171Y006418D02*
X054079Y006418D01*
X054238Y006259D02*
X055012Y006259D01*
X058281Y006259D02*
X059625Y006259D01*
X059625Y006101D02*
X058664Y006101D01*
X058900Y005942D02*
X059625Y005942D01*
X059625Y005784D02*
X059107Y005784D01*
X059261Y005625D02*
X059625Y005625D01*
X059625Y005467D02*
X059382Y005467D01*
X059504Y005308D02*
X059625Y005308D01*
X059625Y005150D02*
X059584Y005150D01*
X056345Y013709D02*
X055724Y013709D01*
X055882Y013867D02*
X056451Y013867D01*
X056358Y014343D02*
X056925Y014343D01*
X056818Y014501D02*
X056516Y014501D01*
X056675Y014660D02*
X056787Y014660D01*
X057225Y014663D02*
X057625Y015063D01*
X057625Y018063D01*
X057725Y018163D01*
X057945Y015135D02*
X058012Y015135D01*
X057936Y014977D02*
X059625Y014977D01*
X059625Y015135D02*
X058238Y015135D01*
X057833Y014818D02*
X059625Y014818D01*
X059625Y014660D02*
X057675Y014660D01*
X057632Y014501D02*
X059625Y014501D01*
X059625Y014343D02*
X057525Y014343D01*
X057524Y014026D02*
X057041Y014026D01*
X057199Y013867D02*
X057366Y013867D01*
X055396Y013382D02*
X055396Y013382D01*
X010856Y006101D02*
X007985Y006101D01*
X007985Y005942D02*
X010697Y005942D01*
X010625Y005784D02*
X007985Y005784D01*
X007985Y005625D02*
X010625Y005625D01*
X010625Y005467D02*
X007985Y005467D01*
X008041Y005308D02*
X010772Y005308D01*
X010905Y005150D02*
X010345Y005150D01*
X010332Y005163D02*
X009918Y005163D01*
X009625Y004870D01*
X009625Y004456D01*
X009918Y004163D01*
X010332Y004163D01*
X010625Y004456D01*
X010625Y004870D01*
X010332Y005163D01*
X010504Y004991D02*
X010746Y004991D01*
X010625Y004833D02*
X010625Y004833D01*
X010625Y004674D02*
X010625Y004674D01*
X010625Y004516D02*
X010625Y004516D01*
X010527Y004357D02*
X010723Y004357D01*
X010882Y004199D02*
X010368Y004199D01*
X010722Y003882D02*
X007485Y003882D01*
X007485Y004040D02*
X010880Y004040D01*
X011125Y004040D02*
X011125Y004040D01*
X011125Y003882D02*
X011125Y003882D01*
X011125Y003723D02*
X011125Y003723D01*
X010685Y003723D02*
X007574Y003723D01*
X007732Y003565D02*
X010685Y003565D01*
X010759Y003406D02*
X007891Y003406D01*
X007485Y004199D02*
X009882Y004199D01*
X009723Y004357D02*
X007485Y004357D01*
X007485Y004516D02*
X009625Y004516D01*
X009625Y004674D02*
X007485Y004674D01*
X007917Y004833D02*
X009625Y004833D01*
X009746Y004991D02*
X008030Y004991D01*
X008065Y005150D02*
X009905Y005150D01*
X009029Y007558D02*
X009029Y007558D01*
D17*
X008825Y007863D02*
X008825Y011813D01*
X006725Y013913D01*
X004975Y015663D01*
X001625Y015663D01*
X001325Y015963D01*
X001325Y032463D01*
X001725Y032863D01*
X003625Y032863D01*
X004225Y033463D01*
X005125Y033463D01*
X002625Y028863D02*
X002625Y028663D01*
X003125Y028163D01*
X004125Y028163D01*
X005125Y027163D01*
X008625Y027163D01*
X012125Y023663D01*
X023625Y023663D01*
X025625Y025663D01*
X025625Y026663D01*
X008125Y010863D02*
X006725Y012263D01*
X008125Y010863D02*
X008125Y008163D01*
X007125Y007163D01*
X007125Y003663D01*
X007825Y002963D01*
X049725Y002963D01*
X050925Y004163D01*
X050925Y006063D01*
X049125Y006663D02*
X048125Y005663D01*
X047125Y006663D01*
X042125Y006663D01*
X041125Y005663D01*
X041025Y005663D02*
X040025Y006663D01*
X035125Y006663D01*
X034125Y005663D01*
X033125Y006663D01*
X028125Y006663D01*
X027125Y005663D01*
X026125Y006663D01*
X020825Y006663D01*
X019975Y005813D01*
X019125Y006663D01*
X014125Y006663D01*
X013625Y006663D01*
X013125Y007163D01*
X016025Y010063D01*
X014125Y006663D02*
X013125Y005663D01*
X012125Y006663D01*
X007625Y006663D01*
X008825Y007863D01*
X007625Y006663D02*
X007625Y005163D01*
X049125Y006663D02*
X053325Y006663D01*
X054325Y005663D01*
X054425Y005663D01*
X054925Y005663D01*
X057825Y008563D01*
X056825Y008563D02*
X056225Y008563D01*
X055625Y009163D01*
X055625Y012163D01*
X055125Y012663D01*
X052125Y012663D01*
X051525Y013263D01*
X051525Y013563D01*
D18*
X048125Y013663D03*
X046125Y013663D03*
X044125Y013663D03*
X042125Y013663D03*
X042125Y015663D03*
X044125Y015663D03*
X046125Y015663D03*
X048125Y015663D03*
X048125Y017663D03*
X046125Y017663D03*
X044125Y017663D03*
X042125Y017663D03*
X042125Y019663D03*
X042125Y021663D03*
X044125Y021663D03*
X046125Y021663D03*
X048125Y021663D03*
X048125Y019663D03*
X046125Y019663D03*
X044125Y019663D03*
X044125Y023663D03*
X046125Y023663D03*
X048125Y023663D03*
X048125Y025663D03*
X046125Y025663D03*
X046125Y027663D03*
X050125Y029663D03*
X052125Y029663D03*
X050125Y031663D03*
X048125Y031663D03*
X048125Y033663D03*
X046125Y033663D03*
X043925Y036563D03*
X043425Y036763D03*
X041625Y034163D03*
X041625Y033663D03*
X037925Y033663D03*
X037925Y034163D03*
X034425Y034163D03*
X034425Y033663D03*
X030825Y033663D03*
X030825Y034163D03*
X027325Y034163D03*
X027325Y033663D03*
X023825Y033663D03*
X023825Y034163D03*
X018125Y033663D03*
X016125Y033663D03*
X014125Y031663D03*
X012125Y031663D03*
X010125Y031663D03*
X008125Y031663D03*
X006125Y031663D03*
X006125Y033663D03*
X005125Y033463D03*
X008125Y033663D03*
X010125Y033663D03*
X012125Y033663D03*
X012125Y035663D03*
X010125Y035663D03*
X008125Y035663D03*
X008125Y037663D03*
X006125Y037663D03*
X006125Y039663D03*
X008125Y039663D03*
X010125Y039663D03*
X012125Y039663D03*
X014125Y039663D03*
X016125Y039663D03*
X012125Y037663D03*
X010125Y037663D03*
X002125Y027663D03*
X002125Y025663D03*
X004125Y025663D03*
X006125Y025663D03*
X008125Y025663D03*
X009425Y024563D03*
X011125Y025663D03*
X010625Y026163D03*
X011625Y025163D03*
X012125Y024663D03*
X015125Y024163D03*
X015125Y023163D03*
X016125Y021663D03*
X016125Y019663D03*
X014125Y019663D03*
X012125Y019663D03*
X010625Y019163D03*
X010125Y017663D03*
X012125Y017663D03*
X014125Y017663D03*
X016125Y017663D03*
X018125Y017663D03*
X018125Y019663D03*
X018125Y015663D03*
X016125Y015663D03*
X016125Y013663D03*
X018125Y013663D03*
X018125Y011663D03*
X018125Y009663D03*
X010125Y007663D03*
X006125Y007663D03*
X004125Y007663D03*
X002125Y007663D03*
X006125Y005663D03*
X008125Y013663D03*
X008125Y015663D03*
X006125Y017663D03*
X004125Y017663D03*
X002125Y017663D03*
X005625Y021163D03*
X006625Y021163D03*
X008125Y020163D03*
X005625Y022663D03*
X005625Y023663D03*
X006125Y023663D03*
X012125Y021663D03*
X038125Y007663D03*
X040125Y007663D03*
X042125Y007663D03*
X044125Y007663D03*
X046125Y007663D03*
X048125Y007663D03*
X048125Y009663D03*
X046125Y009663D03*
X044125Y009663D03*
X044125Y011663D03*
X046125Y011663D03*
X048125Y011663D03*
X052125Y010663D03*
X054125Y010663D03*
X054625Y009663D03*
X055125Y008663D03*
X055125Y007163D03*
X054125Y007163D03*
X057625Y007163D03*
X058625Y007163D03*
X057225Y014663D03*
X058125Y015563D03*
X057725Y018163D03*
X058325Y018963D03*
X057225Y019763D03*
X056525Y019763D03*
X055925Y019263D03*
X050625Y020663D03*
X050625Y021663D03*
X050625Y022663D03*
X050625Y023663D03*
X050125Y025663D03*
X058125Y031663D03*
X058125Y033663D03*
X056125Y033663D03*
X056125Y035663D03*
X058125Y035663D03*
X054125Y035663D03*
X054125Y037663D03*
X052125Y037663D03*
X052125Y039663D03*
X050125Y039663D03*
X054125Y039663D03*
X042125Y011663D03*
X042125Y009663D03*
M02*
