G75*
G70*
%OFA0B0*%
%FSLAX24Y24*%
%IPPOS*%
%LPD*%
%AMOC8*
5,1,8,0,0,1.08239X$1,22.5*
%
%ADD10OC8,0.0600*%
%ADD11C,0.0860*%
%ADD12C,0.1230*%
%ADD13C,0.0645*%
%ADD14R,0.0669X0.0709*%
%ADD15R,0.0709X0.0669*%
%ADD16C,0.0500*%
%ADD17C,0.0660*%
%ADD18C,0.0500*%
%ADD19C,0.0100*%
%ADD20C,0.0160*%
%ADD21C,0.0240*%
%ADD22C,0.0120*%
%ADD23C,0.1880*%
D10*
X003300Y023348D03*
X004300Y023348D03*
X004300Y024348D03*
X003300Y024348D03*
X003300Y025348D03*
X004300Y025348D03*
X004300Y026348D03*
X003300Y026348D03*
D11*
X003300Y015848D03*
X003300Y013848D03*
X003300Y011848D03*
X021800Y004848D03*
X023800Y004848D03*
X025800Y004848D03*
X027800Y004848D03*
X029800Y004848D03*
X038800Y024848D03*
X038800Y026848D03*
X034300Y030848D03*
X032300Y030848D03*
D12*
X037800Y013348D03*
X030800Y012348D03*
D13*
X032300Y018348D03*
X036300Y018348D03*
D14*
X009800Y020041D03*
X009800Y021655D03*
X009800Y014655D03*
X009800Y013041D03*
X009800Y007655D03*
X009800Y006041D03*
D15*
X033493Y018348D03*
X035107Y018348D03*
D16*
X036300Y018348D01*
X009800Y018848D02*
X009800Y020041D01*
X009800Y021655D02*
X009800Y022848D01*
X009800Y015848D02*
X009800Y014655D01*
X009800Y013041D02*
X009800Y011848D01*
X009800Y008848D02*
X009800Y007655D01*
X009800Y006041D02*
X009800Y004848D01*
D17*
X009800Y004848D03*
X009800Y008848D03*
X008300Y008848D03*
X007300Y008848D03*
X009800Y011848D03*
X009800Y015848D03*
X008300Y015848D03*
X007300Y015848D03*
X009800Y018848D03*
X009800Y022848D03*
X008300Y022848D03*
X007300Y022848D03*
X009800Y024848D03*
X008050Y027598D03*
X005300Y028598D03*
X016800Y019348D03*
X016800Y018598D03*
X018800Y019848D03*
X018800Y012848D03*
X016800Y012348D03*
X016800Y011598D03*
X018800Y005848D03*
X016800Y005348D03*
X016800Y004598D03*
X030550Y024098D03*
X028550Y027598D03*
D18*
X025300Y027098D03*
X023300Y027098D03*
X021300Y027098D03*
X019300Y027098D03*
X017300Y027098D03*
X017300Y028348D03*
X015300Y028348D03*
X015300Y027098D03*
X013300Y027098D03*
X013300Y028348D03*
X011550Y030098D03*
X010050Y029598D03*
X010050Y027848D03*
X009300Y027848D03*
X010800Y027848D03*
X007800Y028848D03*
X012050Y025098D03*
X014050Y025098D03*
X016050Y025098D03*
X018050Y025098D03*
X020050Y025098D03*
X020050Y024098D03*
X021050Y024098D03*
X022050Y025098D03*
X024050Y025098D03*
X021050Y021598D03*
X020050Y021598D03*
X020050Y017098D03*
X020050Y014598D03*
D19*
X002300Y003848D02*
X002300Y031848D01*
X002466Y031848D01*
X002430Y031598D01*
X002506Y031071D01*
X002727Y030587D01*
X003075Y030185D01*
X003523Y029897D01*
X003523Y029897D01*
X004034Y029747D01*
X004566Y029747D01*
X005077Y029897D01*
X005525Y030185D01*
X005873Y030587D01*
X005873Y030587D01*
X006094Y031071D01*
X006094Y031071D01*
X006170Y031598D01*
X006134Y031848D01*
X036466Y031848D01*
X036430Y031598D01*
X036506Y031071D01*
X036727Y030587D01*
X037075Y030185D01*
X037523Y029897D01*
X037523Y029897D01*
X038034Y029747D01*
X038566Y029747D01*
X039077Y029897D01*
X039525Y030185D01*
X039873Y030587D01*
X039873Y030587D01*
X040094Y031071D01*
X040094Y031071D01*
X040170Y031598D01*
X040134Y031848D01*
X040300Y031848D01*
X040300Y003848D01*
X040134Y003848D01*
X040170Y004098D01*
X040094Y004625D01*
X039873Y005109D01*
X039873Y005109D01*
X039525Y005511D01*
X039525Y005511D01*
X039077Y005799D01*
X039077Y005799D01*
X038566Y005949D01*
X038034Y005949D01*
X037523Y005799D01*
X037075Y005511D01*
X036727Y005109D01*
X036506Y004625D01*
X036430Y004098D01*
X036466Y003848D01*
X006134Y003848D01*
X006170Y004098D01*
X006094Y004625D01*
X005873Y005109D01*
X005873Y005109D01*
X005525Y005511D01*
X005525Y005511D01*
X005077Y005799D01*
X005077Y005799D01*
X004566Y005949D01*
X004034Y005949D01*
X003523Y005799D01*
X003075Y005511D01*
X002727Y005109D01*
X002506Y004625D01*
X002430Y004098D01*
X002466Y003848D01*
X002300Y003848D01*
X002300Y003932D02*
X002454Y003932D01*
X002440Y004030D02*
X002300Y004030D01*
X002300Y004129D02*
X002434Y004129D01*
X002430Y004098D02*
X002430Y004098D01*
X002449Y004227D02*
X002300Y004227D01*
X002300Y004326D02*
X002463Y004326D01*
X002477Y004424D02*
X002300Y004424D01*
X002300Y004523D02*
X002491Y004523D01*
X002505Y004621D02*
X002300Y004621D01*
X002300Y004720D02*
X002549Y004720D01*
X002506Y004625D02*
X002506Y004625D01*
X002594Y004818D02*
X002300Y004818D01*
X002300Y004917D02*
X002639Y004917D01*
X002684Y005015D02*
X002300Y005015D01*
X002300Y005114D02*
X002731Y005114D01*
X002727Y005109D02*
X002727Y005109D01*
X002816Y005212D02*
X002300Y005212D01*
X002300Y005311D02*
X002901Y005311D01*
X002987Y005409D02*
X002300Y005409D01*
X002300Y005508D02*
X003072Y005508D01*
X003075Y005511D02*
X003075Y005511D01*
X003075Y005511D01*
X003223Y005606D02*
X002300Y005606D01*
X002300Y005705D02*
X003376Y005705D01*
X003523Y005799D02*
X003523Y005799D01*
X003537Y005803D02*
X002300Y005803D01*
X002300Y005902D02*
X003872Y005902D01*
X004728Y005902D02*
X009175Y005902D01*
X009175Y006000D02*
X002300Y006000D01*
X002300Y006099D02*
X009175Y006099D01*
X009175Y006197D02*
X002300Y006197D01*
X002300Y006296D02*
X009175Y006296D01*
X009175Y006394D02*
X002300Y006394D01*
X002300Y006493D02*
X009192Y006493D01*
X009175Y006453D02*
X009220Y006560D01*
X009301Y006641D01*
X009408Y006685D01*
X010192Y006685D01*
X010299Y006641D01*
X010380Y006560D01*
X010425Y006453D01*
X010425Y005629D01*
X010380Y005522D01*
X010340Y005482D01*
X010340Y005165D01*
X010420Y004971D01*
X010420Y004725D01*
X010326Y004497D01*
X010151Y004323D01*
X009923Y004228D01*
X009677Y004228D01*
X009449Y004323D01*
X009274Y004497D01*
X009180Y004725D01*
X009180Y004971D01*
X009260Y005165D01*
X009260Y005482D01*
X009220Y005522D01*
X009175Y005629D01*
X009175Y006453D01*
X009251Y006591D02*
X002300Y006591D01*
X002300Y006690D02*
X040300Y006690D01*
X040300Y006788D02*
X002300Y006788D01*
X002300Y006887D02*
X040300Y006887D01*
X040300Y006985D02*
X002300Y006985D01*
X002300Y007084D02*
X009272Y007084D01*
X009301Y007055D02*
X009408Y007011D01*
X010192Y007011D01*
X010299Y007055D01*
X010380Y007137D01*
X010425Y007243D01*
X010425Y008067D01*
X010380Y008174D01*
X010340Y008214D01*
X010340Y008532D01*
X010420Y008725D01*
X010420Y008971D01*
X010326Y009199D01*
X010151Y009374D01*
X009923Y009468D01*
X009677Y009468D01*
X009449Y009374D01*
X009274Y009199D01*
X009180Y008971D01*
X009180Y008725D01*
X009260Y008532D01*
X009260Y008214D01*
X009220Y008174D01*
X009175Y008067D01*
X009175Y007243D01*
X009220Y007137D01*
X009301Y007055D01*
X009201Y007182D02*
X002300Y007182D01*
X002300Y007281D02*
X009175Y007281D01*
X009175Y007379D02*
X002300Y007379D01*
X002300Y007478D02*
X009175Y007478D01*
X009175Y007576D02*
X002300Y007576D01*
X002300Y007675D02*
X009175Y007675D01*
X009175Y007773D02*
X002300Y007773D01*
X002300Y007872D02*
X009175Y007872D01*
X009175Y007970D02*
X002300Y007970D01*
X002300Y008069D02*
X009176Y008069D01*
X009217Y008167D02*
X002300Y008167D01*
X002300Y008266D02*
X009260Y008266D01*
X009260Y008364D02*
X002300Y008364D01*
X002300Y008463D02*
X009260Y008463D01*
X009248Y008561D02*
X002300Y008561D01*
X002300Y008660D02*
X009207Y008660D01*
X009180Y008758D02*
X002300Y008758D01*
X002300Y008857D02*
X009180Y008857D01*
X009180Y008955D02*
X002300Y008955D01*
X002300Y009054D02*
X009214Y009054D01*
X009255Y009152D02*
X002300Y009152D01*
X002300Y009251D02*
X009326Y009251D01*
X009424Y009349D02*
X002300Y009349D01*
X002300Y009448D02*
X009627Y009448D01*
X009973Y009448D02*
X040300Y009448D01*
X040300Y009546D02*
X002300Y009546D01*
X002300Y009645D02*
X040300Y009645D01*
X040300Y009743D02*
X002300Y009743D01*
X002300Y009842D02*
X040300Y009842D01*
X040300Y009940D02*
X002300Y009940D01*
X002300Y010039D02*
X040300Y010039D01*
X040300Y010137D02*
X002300Y010137D01*
X002300Y010236D02*
X040300Y010236D01*
X040300Y010334D02*
X002300Y010334D01*
X002300Y010433D02*
X040300Y010433D01*
X040300Y010531D02*
X002300Y010531D01*
X002300Y010630D02*
X040300Y010630D01*
X040300Y010728D02*
X002300Y010728D01*
X002300Y010827D02*
X040300Y010827D01*
X040300Y010925D02*
X002300Y010925D01*
X002300Y011024D02*
X040300Y011024D01*
X040300Y011122D02*
X002300Y011122D01*
X002300Y011221D02*
X002933Y011221D01*
X002892Y011238D02*
X003157Y011128D01*
X003443Y011128D01*
X003708Y011238D01*
X003910Y011440D01*
X004020Y011705D01*
X004020Y011991D01*
X003910Y012256D01*
X003708Y012459D01*
X003443Y012568D01*
X003157Y012568D01*
X002892Y012459D01*
X002690Y012256D01*
X002580Y011991D01*
X002580Y011705D01*
X002690Y011440D01*
X002892Y011238D01*
X002811Y011319D02*
X002300Y011319D01*
X002300Y011418D02*
X002712Y011418D01*
X002658Y011516D02*
X002300Y011516D01*
X002300Y011615D02*
X002617Y011615D01*
X002580Y011713D02*
X002300Y011713D01*
X002300Y011812D02*
X002580Y011812D01*
X002580Y011910D02*
X002300Y011910D01*
X002300Y012009D02*
X002587Y012009D01*
X002628Y012107D02*
X002300Y012107D01*
X002300Y012206D02*
X002669Y012206D01*
X002738Y012304D02*
X002300Y012304D01*
X002300Y012403D02*
X002836Y012403D01*
X002995Y012501D02*
X002300Y012501D01*
X002300Y012600D02*
X009188Y012600D01*
X009175Y012629D02*
X009220Y012522D01*
X009260Y012482D01*
X009260Y012165D01*
X009180Y011971D01*
X009180Y011725D01*
X009274Y011497D01*
X009449Y011323D01*
X009677Y011228D01*
X009923Y011228D01*
X010151Y011323D01*
X010326Y011497D01*
X010420Y011725D01*
X010420Y011971D01*
X010340Y012165D01*
X010340Y012482D01*
X010380Y012522D01*
X010425Y012629D01*
X010425Y013453D01*
X010380Y013560D01*
X010299Y013641D01*
X010192Y013685D01*
X009408Y013685D01*
X009301Y013641D01*
X009220Y013560D01*
X009175Y013453D01*
X009175Y012629D01*
X009175Y012698D02*
X002300Y012698D01*
X002300Y012797D02*
X009175Y012797D01*
X009175Y012895D02*
X002300Y012895D01*
X002300Y012994D02*
X009175Y012994D01*
X009175Y013092D02*
X002300Y013092D01*
X002300Y013191D02*
X003006Y013191D01*
X002892Y013238D02*
X003157Y013128D01*
X003443Y013128D01*
X003708Y013238D01*
X003910Y013440D01*
X004020Y013705D01*
X004020Y013991D01*
X003910Y014256D01*
X003708Y014459D01*
X003443Y014568D01*
X003157Y014568D01*
X002892Y014459D01*
X002690Y014256D01*
X002580Y013991D01*
X002580Y013705D01*
X002690Y013440D01*
X002892Y013238D01*
X002841Y013289D02*
X002300Y013289D01*
X002300Y013388D02*
X002742Y013388D01*
X002671Y013486D02*
X002300Y013486D01*
X002300Y013585D02*
X002630Y013585D01*
X002589Y013683D02*
X002300Y013683D01*
X002300Y013782D02*
X002580Y013782D01*
X002580Y013880D02*
X002300Y013880D01*
X002300Y013979D02*
X002580Y013979D01*
X002616Y014077D02*
X002300Y014077D01*
X002300Y014176D02*
X002656Y014176D01*
X002708Y014274D02*
X002300Y014274D01*
X002300Y014373D02*
X002806Y014373D01*
X002923Y014471D02*
X002300Y014471D01*
X002300Y014570D02*
X009175Y014570D01*
X009175Y014668D02*
X002300Y014668D01*
X002300Y014767D02*
X009175Y014767D01*
X009175Y014865D02*
X002300Y014865D01*
X002300Y014964D02*
X009175Y014964D01*
X009175Y015062D02*
X002300Y015062D01*
X002300Y015161D02*
X003078Y015161D01*
X003157Y015128D02*
X003443Y015128D01*
X003708Y015238D01*
X003910Y015440D01*
X004020Y015705D01*
X004020Y015991D01*
X003910Y016256D01*
X003708Y016459D01*
X003443Y016568D01*
X003157Y016568D01*
X002892Y016459D01*
X002690Y016256D01*
X002580Y015991D01*
X002580Y015705D01*
X002690Y015440D01*
X002892Y015238D01*
X003157Y015128D01*
X002871Y015259D02*
X002300Y015259D01*
X002300Y015358D02*
X002772Y015358D01*
X002683Y015456D02*
X002300Y015456D01*
X002300Y015555D02*
X002642Y015555D01*
X002601Y015653D02*
X002300Y015653D01*
X002300Y015752D02*
X002580Y015752D01*
X002580Y015850D02*
X002300Y015850D01*
X002300Y015949D02*
X002580Y015949D01*
X002603Y016047D02*
X002300Y016047D01*
X002300Y016146D02*
X002644Y016146D01*
X002685Y016244D02*
X002300Y016244D01*
X002300Y016343D02*
X002776Y016343D01*
X002875Y016441D02*
X002300Y016441D01*
X002300Y016540D02*
X003088Y016540D01*
X003512Y016540D02*
X019680Y016540D01*
X019680Y016638D02*
X002300Y016638D01*
X002300Y016737D02*
X019648Y016737D01*
X019680Y016704D02*
X019592Y016792D01*
X019510Y016991D01*
X019510Y017206D01*
X019592Y017404D01*
X019744Y017556D01*
X019943Y017638D01*
X020157Y017638D01*
X020356Y017556D01*
X020508Y017404D01*
X020590Y017206D01*
X020590Y016991D01*
X020508Y016792D01*
X020420Y016704D01*
X020420Y014992D01*
X020508Y014904D01*
X020590Y014706D01*
X020590Y014491D01*
X020508Y014292D01*
X020356Y014140D01*
X020157Y014058D01*
X019943Y014058D01*
X019744Y014140D01*
X019592Y014292D01*
X019510Y014491D01*
X019510Y014706D01*
X019592Y014904D01*
X019680Y014992D01*
X019680Y016704D01*
X019574Y016835D02*
X002300Y016835D01*
X002300Y016934D02*
X019534Y016934D01*
X019510Y017032D02*
X002300Y017032D01*
X002300Y017131D02*
X019510Y017131D01*
X019520Y017229D02*
X002300Y017229D01*
X002300Y017328D02*
X019561Y017328D01*
X019614Y017426D02*
X002300Y017426D01*
X002300Y017525D02*
X019713Y017525D01*
X019906Y017623D02*
X002300Y017623D01*
X002300Y017722D02*
X040300Y017722D01*
X040300Y017820D02*
X036626Y017820D01*
X036647Y017829D02*
X036422Y017736D01*
X036178Y017736D01*
X036003Y017808D01*
X035666Y017808D01*
X035626Y017768D01*
X035519Y017724D01*
X034695Y017724D01*
X034588Y017768D01*
X034507Y017849D01*
X034463Y017956D01*
X034463Y018740D01*
X034507Y018847D01*
X034588Y018929D01*
X034695Y018973D01*
X035519Y018973D01*
X035626Y018929D01*
X035666Y018888D01*
X036003Y018888D01*
X036178Y018961D01*
X036422Y018961D01*
X036647Y018867D01*
X036819Y018695D01*
X036912Y018470D01*
X036912Y018226D01*
X036819Y018001D01*
X036647Y017829D01*
X036737Y017919D02*
X040300Y017919D01*
X040300Y018017D02*
X036826Y018017D01*
X036867Y018116D02*
X040300Y018116D01*
X040300Y018214D02*
X036907Y018214D01*
X036912Y018313D02*
X040300Y018313D01*
X040300Y018411D02*
X036912Y018411D01*
X036896Y018510D02*
X040300Y018510D01*
X040300Y018608D02*
X036855Y018608D01*
X036808Y018707D02*
X040300Y018707D01*
X040300Y018805D02*
X036709Y018805D01*
X036559Y018904D02*
X040300Y018904D01*
X040300Y019002D02*
X010407Y019002D01*
X010420Y018971D02*
X010340Y019165D01*
X010340Y019482D01*
X010380Y019522D01*
X010425Y019629D01*
X010425Y020453D01*
X010380Y020560D01*
X010299Y020641D01*
X010192Y020685D01*
X009408Y020685D01*
X009301Y020641D01*
X009220Y020560D01*
X009175Y020453D01*
X009175Y019629D01*
X009220Y019522D01*
X009260Y019482D01*
X009260Y019165D01*
X009180Y018971D01*
X009180Y018725D01*
X009274Y018497D01*
X009449Y018323D01*
X009677Y018228D01*
X009923Y018228D01*
X010151Y018323D01*
X010326Y018497D01*
X010420Y018725D01*
X010420Y018971D01*
X010420Y018904D02*
X034564Y018904D01*
X034490Y018805D02*
X033935Y018805D01*
X033939Y018803D02*
X033905Y018823D01*
X033867Y018833D01*
X033543Y018833D01*
X033543Y018398D01*
X033997Y018398D01*
X033997Y018703D01*
X033987Y018741D01*
X033967Y018775D01*
X033939Y018803D01*
X033996Y018707D02*
X034463Y018707D01*
X034463Y018608D02*
X033997Y018608D01*
X033997Y018510D02*
X034463Y018510D01*
X034463Y018411D02*
X033997Y018411D01*
X033997Y018298D02*
X033543Y018298D01*
X033543Y017864D01*
X033867Y017864D01*
X033905Y017874D01*
X033939Y017893D01*
X033967Y017921D01*
X033987Y017956D01*
X033997Y017994D01*
X033997Y018298D01*
X033997Y018214D02*
X034463Y018214D01*
X034463Y018116D02*
X033997Y018116D01*
X033997Y018017D02*
X034463Y018017D01*
X034478Y017919D02*
X033965Y017919D01*
X033543Y017919D02*
X033443Y017919D01*
X033443Y017864D02*
X033119Y017864D01*
X033081Y017874D01*
X033046Y017893D01*
X033019Y017921D01*
X032999Y017956D01*
X032989Y017994D01*
X032989Y018298D01*
X033443Y018298D01*
X033543Y018298D01*
X033543Y018398D01*
X033443Y018398D01*
X033443Y018298D01*
X033443Y017864D01*
X033443Y018017D02*
X033543Y018017D01*
X033543Y018116D02*
X033443Y018116D01*
X033443Y018214D02*
X033543Y018214D01*
X033543Y018313D02*
X034463Y018313D01*
X034536Y017820D02*
X002300Y017820D01*
X002300Y017919D02*
X032102Y017919D01*
X032119Y017910D02*
X032189Y017887D01*
X032250Y017878D01*
X032250Y018298D01*
X032350Y018298D01*
X032350Y017878D01*
X032411Y017887D01*
X032481Y017910D01*
X032548Y017944D01*
X032608Y017988D01*
X032660Y018040D01*
X032704Y018101D01*
X032738Y018167D01*
X032761Y018238D01*
X032770Y018298D01*
X032350Y018298D01*
X032350Y018398D01*
X032770Y018398D01*
X032761Y018459D01*
X032738Y018530D01*
X032704Y018596D01*
X032660Y018656D01*
X032608Y018709D01*
X032548Y018752D01*
X032481Y018786D01*
X032411Y018809D01*
X032350Y018819D01*
X032350Y018398D01*
X032250Y018398D01*
X032250Y018298D01*
X031830Y018298D01*
X031839Y018238D01*
X031862Y018167D01*
X031896Y018101D01*
X031940Y018040D01*
X031992Y017988D01*
X032052Y017944D01*
X032119Y017910D01*
X032250Y017919D02*
X032350Y017919D01*
X032350Y018017D02*
X032250Y018017D01*
X032250Y018116D02*
X032350Y018116D01*
X032350Y018214D02*
X032250Y018214D01*
X032250Y018313D02*
X010127Y018313D01*
X010240Y018411D02*
X031832Y018411D01*
X031830Y018398D02*
X032250Y018398D01*
X032250Y018819D01*
X032189Y018809D01*
X032119Y018786D01*
X032052Y018752D01*
X031992Y018709D01*
X031940Y018656D01*
X031896Y018596D01*
X031862Y018530D01*
X031839Y018459D01*
X031830Y018398D01*
X031856Y018510D02*
X010331Y018510D01*
X010372Y018608D02*
X031905Y018608D01*
X031990Y018707D02*
X010412Y018707D01*
X010420Y018805D02*
X032178Y018805D01*
X032250Y018805D02*
X032350Y018805D01*
X032422Y018805D02*
X033051Y018805D01*
X033046Y018803D02*
X033019Y018775D01*
X032999Y018741D01*
X032989Y018703D01*
X032989Y018398D01*
X033443Y018398D01*
X033443Y018833D01*
X033119Y018833D01*
X033081Y018823D01*
X033046Y018803D01*
X032990Y018707D02*
X032610Y018707D01*
X032695Y018608D02*
X032989Y018608D01*
X032989Y018510D02*
X032744Y018510D01*
X032768Y018411D02*
X032989Y018411D01*
X032989Y018214D02*
X032753Y018214D01*
X032712Y018116D02*
X032989Y018116D01*
X032989Y018017D02*
X032637Y018017D01*
X032498Y017919D02*
X033021Y017919D01*
X033443Y018313D02*
X032350Y018313D01*
X032350Y018411D02*
X032250Y018411D01*
X032250Y018510D02*
X032350Y018510D01*
X032350Y018608D02*
X032250Y018608D01*
X032250Y018707D02*
X032350Y018707D01*
X031847Y018214D02*
X002300Y018214D01*
X002300Y018116D02*
X031888Y018116D01*
X031963Y018017D02*
X002300Y018017D01*
X002300Y018313D02*
X009473Y018313D01*
X009360Y018411D02*
X002300Y018411D01*
X002300Y018510D02*
X009269Y018510D01*
X009228Y018608D02*
X002300Y018608D01*
X002300Y018707D02*
X009188Y018707D01*
X009180Y018805D02*
X002300Y018805D01*
X002300Y018904D02*
X009180Y018904D01*
X009193Y019002D02*
X002300Y019002D01*
X002300Y019101D02*
X009234Y019101D01*
X009260Y019199D02*
X002300Y019199D01*
X002300Y019298D02*
X009260Y019298D01*
X009260Y019396D02*
X002300Y019396D01*
X002300Y019495D02*
X009247Y019495D01*
X009190Y019593D02*
X002300Y019593D01*
X002300Y019692D02*
X009175Y019692D01*
X009175Y019790D02*
X002300Y019790D01*
X002300Y019889D02*
X009175Y019889D01*
X009175Y019987D02*
X002300Y019987D01*
X002300Y020086D02*
X009175Y020086D01*
X009175Y020184D02*
X002300Y020184D01*
X002300Y020283D02*
X009175Y020283D01*
X009175Y020381D02*
X002300Y020381D01*
X002300Y020480D02*
X009186Y020480D01*
X009238Y020578D02*
X002300Y020578D01*
X002300Y020677D02*
X009387Y020677D01*
X009408Y021011D02*
X009301Y021055D01*
X009220Y021137D01*
X009175Y021243D01*
X009175Y022067D01*
X009220Y022174D01*
X009260Y022214D01*
X009260Y022532D01*
X009180Y022725D01*
X009180Y022971D01*
X009274Y023199D01*
X009449Y023374D01*
X009677Y023468D01*
X009923Y023468D01*
X010151Y023374D01*
X010326Y023199D01*
X010420Y022971D01*
X010420Y022725D01*
X010340Y022532D01*
X010340Y022214D01*
X010380Y022174D01*
X010425Y022067D01*
X010425Y021243D01*
X010380Y021137D01*
X010299Y021055D01*
X010192Y021011D01*
X009408Y021011D01*
X009285Y021071D02*
X002300Y021071D01*
X002300Y021169D02*
X009206Y021169D01*
X009175Y021268D02*
X002300Y021268D01*
X002300Y021366D02*
X009175Y021366D01*
X009175Y021465D02*
X002300Y021465D01*
X002300Y021563D02*
X009175Y021563D01*
X009175Y021662D02*
X002300Y021662D01*
X002300Y021760D02*
X009175Y021760D01*
X009175Y021859D02*
X002300Y021859D01*
X002300Y021957D02*
X009175Y021957D01*
X009175Y022056D02*
X002300Y022056D01*
X002300Y022154D02*
X009211Y022154D01*
X009260Y022253D02*
X002300Y022253D01*
X002300Y022351D02*
X009260Y022351D01*
X009260Y022450D02*
X002300Y022450D01*
X002300Y022548D02*
X009253Y022548D01*
X009212Y022647D02*
X002300Y022647D01*
X002300Y022745D02*
X009180Y022745D01*
X009180Y022844D02*
X004630Y022844D01*
X004544Y022758D02*
X004890Y023104D01*
X004890Y023593D01*
X004634Y023848D01*
X004890Y024104D01*
X004890Y024593D01*
X004634Y024848D01*
X004890Y025104D01*
X004890Y025593D01*
X004634Y025848D01*
X004890Y026104D01*
X004890Y026593D01*
X004544Y026938D01*
X004056Y026938D01*
X003710Y026593D01*
X003710Y026575D01*
X003486Y026798D01*
X003350Y026798D01*
X003350Y026398D01*
X003250Y026398D01*
X003250Y026298D01*
X003350Y026298D01*
X003350Y025898D01*
X003486Y025898D01*
X003710Y026122D01*
X003710Y026104D01*
X003966Y025848D01*
X003710Y025593D01*
X003710Y025575D01*
X003486Y025798D01*
X003350Y025798D01*
X003350Y025398D01*
X003250Y025398D01*
X003250Y025298D01*
X002850Y025298D01*
X002850Y025162D01*
X003074Y024938D01*
X003056Y024938D01*
X002710Y024593D01*
X002710Y024104D01*
X002966Y023848D01*
X002710Y023593D01*
X002710Y023104D01*
X003056Y022758D01*
X003544Y022758D01*
X003800Y023014D01*
X004056Y022758D01*
X004544Y022758D01*
X004728Y022942D02*
X009180Y022942D01*
X009209Y023041D02*
X004827Y023041D01*
X004890Y023139D02*
X009249Y023139D01*
X009313Y023238D02*
X004890Y023238D01*
X004890Y023336D02*
X009411Y023336D01*
X009596Y023435D02*
X004890Y023435D01*
X004890Y023533D02*
X019680Y023533D01*
X019680Y023435D02*
X010004Y023435D01*
X010189Y023336D02*
X019680Y023336D01*
X019680Y023238D02*
X010287Y023238D01*
X010351Y023139D02*
X019680Y023139D01*
X019680Y023041D02*
X010391Y023041D01*
X010420Y022942D02*
X019680Y022942D01*
X019680Y022844D02*
X010420Y022844D01*
X010420Y022745D02*
X019680Y022745D01*
X019680Y022647D02*
X010388Y022647D01*
X010347Y022548D02*
X019680Y022548D01*
X019680Y022450D02*
X010340Y022450D01*
X010340Y022351D02*
X019680Y022351D01*
X019680Y022253D02*
X010340Y022253D01*
X010389Y022154D02*
X019680Y022154D01*
X019680Y022056D02*
X010425Y022056D01*
X010425Y021957D02*
X019645Y021957D01*
X019680Y021992D02*
X019592Y021904D01*
X019510Y021706D01*
X019510Y021491D01*
X019592Y021292D01*
X019744Y021140D01*
X019943Y021058D01*
X020157Y021058D01*
X020356Y021140D01*
X020508Y021292D01*
X020550Y021394D01*
X020592Y021292D01*
X020744Y021140D01*
X020943Y021058D01*
X021157Y021058D01*
X021356Y021140D01*
X021508Y021292D01*
X021590Y021491D01*
X021590Y021706D01*
X021508Y021904D01*
X021420Y021992D01*
X021420Y023704D01*
X021508Y023792D01*
X021590Y023991D01*
X021590Y024206D01*
X021508Y024404D01*
X021356Y024556D01*
X021157Y024638D01*
X020943Y024638D01*
X020744Y024556D01*
X020592Y024404D01*
X020550Y024302D01*
X020508Y024404D01*
X020356Y024556D01*
X020157Y024638D01*
X019943Y024638D01*
X019744Y024556D01*
X019592Y024404D01*
X019510Y024206D01*
X019510Y023991D01*
X019592Y023792D01*
X019680Y023704D01*
X019680Y021992D01*
X019573Y021859D02*
X010425Y021859D01*
X010425Y021760D02*
X019533Y021760D01*
X019510Y021662D02*
X010425Y021662D01*
X010425Y021563D02*
X019510Y021563D01*
X019521Y021465D02*
X010425Y021465D01*
X010425Y021366D02*
X019562Y021366D01*
X019617Y021268D02*
X010425Y021268D01*
X010394Y021169D02*
X019715Y021169D01*
X019912Y021071D02*
X010315Y021071D01*
X010213Y020677D02*
X040300Y020677D01*
X040300Y020775D02*
X002300Y020775D01*
X002300Y020874D02*
X040300Y020874D01*
X040300Y020972D02*
X002300Y020972D01*
X002300Y022844D02*
X002970Y022844D01*
X002872Y022942D02*
X002300Y022942D01*
X002300Y023041D02*
X002773Y023041D01*
X002710Y023139D02*
X002300Y023139D01*
X002300Y023238D02*
X002710Y023238D01*
X002710Y023336D02*
X002300Y023336D01*
X002300Y023435D02*
X002710Y023435D01*
X002710Y023533D02*
X002300Y023533D01*
X002300Y023632D02*
X002749Y023632D01*
X002848Y023730D02*
X002300Y023730D01*
X002300Y023829D02*
X002946Y023829D01*
X002887Y023927D02*
X002300Y023927D01*
X002300Y024026D02*
X002788Y024026D01*
X002710Y024124D02*
X002300Y024124D01*
X002300Y024223D02*
X002710Y024223D01*
X002710Y024321D02*
X002300Y024321D01*
X002300Y024420D02*
X002710Y024420D01*
X002710Y024518D02*
X002300Y024518D01*
X002300Y024617D02*
X002734Y024617D01*
X002833Y024715D02*
X002300Y024715D01*
X002300Y024814D02*
X002931Y024814D01*
X003030Y024912D02*
X002300Y024912D01*
X002300Y025011D02*
X003001Y025011D01*
X002903Y025109D02*
X002300Y025109D01*
X002300Y025208D02*
X002850Y025208D01*
X002850Y025398D02*
X003250Y025398D01*
X003250Y025798D01*
X003114Y025798D01*
X002850Y025535D01*
X002850Y025398D01*
X002850Y025405D02*
X002300Y025405D01*
X002300Y025503D02*
X002850Y025503D01*
X002917Y025602D02*
X002300Y025602D01*
X002300Y025700D02*
X003016Y025700D01*
X003114Y025898D02*
X002850Y026162D01*
X002850Y026298D01*
X003250Y026298D01*
X003250Y025898D01*
X003114Y025898D01*
X003016Y025996D02*
X002300Y025996D01*
X002300Y026094D02*
X002918Y026094D01*
X002850Y026193D02*
X002300Y026193D01*
X002300Y026291D02*
X002850Y026291D01*
X002850Y026398D02*
X003250Y026398D01*
X003250Y026798D01*
X003114Y026798D01*
X002850Y026535D01*
X002850Y026398D01*
X002850Y026488D02*
X002300Y026488D01*
X002300Y026390D02*
X003250Y026390D01*
X003250Y026488D02*
X003350Y026488D01*
X003350Y026587D02*
X003250Y026587D01*
X003250Y026685D02*
X003350Y026685D01*
X003350Y026784D02*
X003250Y026784D01*
X003099Y026784D02*
X002300Y026784D01*
X002300Y026882D02*
X004000Y026882D01*
X003901Y026784D02*
X003501Y026784D01*
X003599Y026685D02*
X003803Y026685D01*
X003710Y026587D02*
X003698Y026587D01*
X003350Y026291D02*
X003250Y026291D01*
X003250Y026193D02*
X003350Y026193D01*
X003350Y026094D02*
X003250Y026094D01*
X003250Y025996D02*
X003350Y025996D01*
X003584Y025996D02*
X003818Y025996D01*
X003720Y026094D02*
X003682Y026094D01*
X003917Y025897D02*
X002300Y025897D01*
X002300Y025799D02*
X003916Y025799D01*
X003818Y025700D02*
X003584Y025700D01*
X003683Y025602D02*
X003719Y025602D01*
X003350Y025602D02*
X003250Y025602D01*
X003250Y025700D02*
X003350Y025700D01*
X003350Y025503D02*
X003250Y025503D01*
X003250Y025405D02*
X003350Y025405D01*
X003250Y025306D02*
X002300Y025306D01*
X002300Y026587D02*
X002902Y026587D01*
X003001Y026685D02*
X002300Y026685D01*
X002300Y026981D02*
X007920Y026981D01*
X007927Y026978D02*
X008173Y026978D01*
X008401Y027073D01*
X008576Y027247D01*
X008670Y027475D01*
X008670Y027721D01*
X008576Y027949D01*
X008401Y028124D01*
X008173Y028218D01*
X007927Y028218D01*
X007699Y028124D01*
X007583Y028008D01*
X006470Y028008D01*
X005920Y028558D01*
X005920Y028721D01*
X005826Y028949D01*
X005651Y029124D01*
X005423Y029218D01*
X005177Y029218D01*
X004949Y029124D01*
X004774Y028949D01*
X004680Y028721D01*
X004680Y028475D01*
X004774Y028247D01*
X004949Y028073D01*
X005177Y027978D01*
X005340Y027978D01*
X006068Y027251D01*
X006218Y027188D01*
X007583Y027188D01*
X007699Y027073D01*
X007927Y026978D01*
X008180Y026981D02*
X038234Y026981D01*
X038234Y026984D02*
X038221Y026898D01*
X038750Y026898D01*
X038750Y026798D01*
X038850Y026798D01*
X038850Y026269D01*
X038936Y026282D01*
X039023Y026311D01*
X039104Y026352D01*
X039178Y026406D01*
X039242Y026470D01*
X039296Y026544D01*
X039338Y026626D01*
X039366Y026712D01*
X039379Y026798D01*
X038850Y026798D01*
X038850Y026898D01*
X039379Y026898D01*
X039366Y026984D01*
X039338Y027071D01*
X039296Y027152D01*
X039242Y027226D01*
X039178Y027291D01*
X039104Y027344D01*
X039023Y027386D01*
X038936Y027414D01*
X038850Y027427D01*
X038850Y026898D01*
X038750Y026898D01*
X038750Y027427D01*
X038664Y027414D01*
X038577Y027386D01*
X038496Y027344D01*
X038422Y027291D01*
X038358Y027226D01*
X038304Y027152D01*
X038262Y027071D01*
X038234Y026984D01*
X038267Y027079D02*
X008408Y027079D01*
X008506Y027178D02*
X038323Y027178D01*
X038408Y027276D02*
X008588Y027276D01*
X008629Y027375D02*
X009032Y027375D01*
X008994Y027390D02*
X009193Y027308D01*
X009407Y027308D01*
X009606Y027390D01*
X009675Y027459D01*
X009744Y027390D01*
X009943Y027308D01*
X010157Y027308D01*
X010356Y027390D01*
X010425Y027459D01*
X010494Y027390D01*
X010693Y027308D01*
X010907Y027308D01*
X011106Y027390D01*
X011258Y027542D01*
X011340Y027741D01*
X011340Y027893D01*
X011695Y028248D01*
X012760Y028248D01*
X012760Y028241D01*
X012842Y028042D01*
X012994Y027890D01*
X013193Y027808D01*
X013407Y027808D01*
X013606Y027890D01*
X013758Y028042D01*
X013840Y028241D01*
X013840Y028456D01*
X013822Y028498D01*
X014655Y028498D01*
X014760Y028393D01*
X014760Y028241D01*
X014842Y028042D01*
X014994Y027890D01*
X015193Y027808D01*
X015407Y027808D01*
X015606Y027890D01*
X015758Y028042D01*
X015840Y028241D01*
X015840Y028456D01*
X015758Y028654D01*
X015664Y028748D01*
X016405Y028748D01*
X016760Y028393D01*
X016760Y028241D01*
X016842Y028042D01*
X016994Y027890D01*
X017193Y027808D01*
X017407Y027808D01*
X017606Y027890D01*
X017758Y028042D01*
X017840Y028241D01*
X017840Y028456D01*
X017758Y028654D01*
X017606Y028806D01*
X017407Y028888D01*
X017255Y028888D01*
X016748Y029395D01*
X016620Y029448D01*
X010572Y029448D01*
X010590Y029491D01*
X010590Y029706D01*
X010508Y029904D01*
X010356Y030056D01*
X010157Y030138D01*
X009943Y030138D01*
X009744Y030056D01*
X009636Y029948D01*
X008480Y029948D01*
X008352Y029895D01*
X007845Y029388D01*
X007693Y029388D01*
X007494Y029306D01*
X007342Y029154D01*
X007260Y028956D01*
X007260Y028741D01*
X007342Y028542D01*
X007494Y028390D01*
X007693Y028308D01*
X007907Y028308D01*
X008106Y028390D01*
X008258Y028542D01*
X008340Y028741D01*
X008340Y028893D01*
X008695Y029248D01*
X009636Y029248D01*
X009744Y029140D01*
X009943Y029058D01*
X010015Y029058D01*
X009345Y028388D01*
X009193Y028388D01*
X008994Y028306D01*
X008842Y028154D01*
X008760Y027956D01*
X008760Y027741D01*
X008842Y027542D01*
X008994Y027390D01*
X008911Y027473D02*
X008669Y027473D01*
X008670Y027572D02*
X008830Y027572D01*
X008789Y027670D02*
X008670Y027670D01*
X008650Y027769D02*
X008760Y027769D01*
X008760Y027867D02*
X008610Y027867D01*
X008559Y027966D02*
X008764Y027966D01*
X008805Y028064D02*
X008461Y028064D01*
X008307Y028163D02*
X008851Y028163D01*
X008949Y028261D02*
X006217Y028261D01*
X006315Y028163D02*
X007793Y028163D01*
X007639Y028064D02*
X006414Y028064D01*
X006118Y028360D02*
X007568Y028360D01*
X007426Y028458D02*
X006020Y028458D01*
X005921Y028557D02*
X007336Y028557D01*
X007295Y028655D02*
X005920Y028655D01*
X005907Y028754D02*
X007260Y028754D01*
X007260Y028852D02*
X005866Y028852D01*
X005824Y028951D02*
X007260Y028951D01*
X007299Y029049D02*
X005726Y029049D01*
X005593Y029148D02*
X007340Y029148D01*
X007434Y029246D02*
X002300Y029246D01*
X002300Y029148D02*
X005007Y029148D01*
X004874Y029049D02*
X002300Y029049D01*
X002300Y028951D02*
X004776Y028951D01*
X004734Y028852D02*
X002300Y028852D01*
X002300Y028754D02*
X004693Y028754D01*
X004680Y028655D02*
X002300Y028655D01*
X002300Y028557D02*
X004680Y028557D01*
X004687Y028458D02*
X002300Y028458D01*
X002300Y028360D02*
X004728Y028360D01*
X004768Y028261D02*
X002300Y028261D01*
X002300Y028163D02*
X004859Y028163D01*
X004969Y028064D02*
X002300Y028064D01*
X002300Y027966D02*
X005353Y027966D01*
X005451Y027867D02*
X002300Y027867D01*
X002300Y027769D02*
X005550Y027769D01*
X005648Y027670D02*
X002300Y027670D01*
X002300Y027572D02*
X005747Y027572D01*
X005845Y027473D02*
X002300Y027473D01*
X002300Y027375D02*
X005944Y027375D01*
X006042Y027276D02*
X002300Y027276D01*
X002300Y027178D02*
X007594Y027178D01*
X007692Y027079D02*
X002300Y027079D01*
X004600Y026882D02*
X038750Y026882D01*
X038750Y026798D02*
X038221Y026798D01*
X038234Y026712D01*
X038262Y026626D01*
X038304Y026544D01*
X038358Y026470D01*
X038422Y026406D01*
X038496Y026352D01*
X038577Y026311D01*
X038664Y026282D01*
X038750Y026269D01*
X038750Y026798D01*
X038750Y026784D02*
X038850Y026784D01*
X038850Y026882D02*
X040300Y026882D01*
X040300Y026784D02*
X039377Y026784D01*
X039357Y026685D02*
X040300Y026685D01*
X040300Y026587D02*
X039318Y026587D01*
X039255Y026488D02*
X040300Y026488D01*
X040300Y026390D02*
X039156Y026390D01*
X038963Y026291D02*
X040300Y026291D01*
X040300Y026193D02*
X004890Y026193D01*
X004890Y026291D02*
X038637Y026291D01*
X038750Y026291D02*
X038850Y026291D01*
X038850Y026390D02*
X038750Y026390D01*
X038750Y026488D02*
X038850Y026488D01*
X038850Y026587D02*
X038750Y026587D01*
X038750Y026685D02*
X038850Y026685D01*
X038850Y026981D02*
X038750Y026981D01*
X038750Y027079D02*
X038850Y027079D01*
X038850Y027178D02*
X038750Y027178D01*
X038750Y027276D02*
X038850Y027276D01*
X038850Y027375D02*
X038750Y027375D01*
X038556Y027375D02*
X011068Y027375D01*
X011189Y027473D02*
X040300Y027473D01*
X040300Y027375D02*
X039044Y027375D01*
X039192Y027276D02*
X040300Y027276D01*
X040300Y027178D02*
X039277Y027178D01*
X039333Y027079D02*
X040300Y027079D01*
X040300Y026981D02*
X039366Y026981D01*
X038444Y026390D02*
X004890Y026390D01*
X004890Y026488D02*
X038345Y026488D01*
X038282Y026587D02*
X004890Y026587D01*
X004797Y026685D02*
X038243Y026685D01*
X038223Y026784D02*
X004699Y026784D01*
X004880Y026094D02*
X040300Y026094D01*
X040300Y025996D02*
X004782Y025996D01*
X004683Y025897D02*
X040300Y025897D01*
X040300Y025799D02*
X004684Y025799D01*
X004782Y025700D02*
X040300Y025700D01*
X040300Y025602D02*
X004881Y025602D01*
X004890Y025503D02*
X038500Y025503D01*
X038392Y025459D02*
X038190Y025256D01*
X038080Y024991D01*
X038080Y024705D01*
X038190Y024440D01*
X038392Y024238D01*
X038657Y024128D01*
X038943Y024128D01*
X039208Y024238D01*
X039410Y024440D01*
X039520Y024705D01*
X039520Y024991D01*
X039410Y025256D01*
X039208Y025459D01*
X038943Y025568D01*
X038657Y025568D01*
X038392Y025459D01*
X038338Y025405D02*
X004890Y025405D01*
X004890Y025306D02*
X038240Y025306D01*
X038170Y025208D02*
X004890Y025208D01*
X004890Y025109D02*
X038129Y025109D01*
X038088Y025011D02*
X004797Y025011D01*
X004698Y024912D02*
X038080Y024912D01*
X038080Y024814D02*
X004669Y024814D01*
X004767Y024715D02*
X038080Y024715D01*
X038117Y024617D02*
X021209Y024617D01*
X021394Y024518D02*
X038157Y024518D01*
X038210Y024420D02*
X021492Y024420D01*
X021542Y024321D02*
X038309Y024321D01*
X038429Y024223D02*
X021583Y024223D01*
X021590Y024124D02*
X040300Y024124D01*
X040300Y024026D02*
X021590Y024026D01*
X021564Y023927D02*
X040300Y023927D01*
X040300Y023829D02*
X021523Y023829D01*
X021446Y023730D02*
X040300Y023730D01*
X040300Y023632D02*
X021420Y023632D01*
X021420Y023533D02*
X040300Y023533D01*
X040300Y023435D02*
X021420Y023435D01*
X021420Y023336D02*
X040300Y023336D01*
X040300Y023238D02*
X021420Y023238D01*
X021420Y023139D02*
X040300Y023139D01*
X040300Y023041D02*
X021420Y023041D01*
X021420Y022942D02*
X040300Y022942D01*
X040300Y022844D02*
X021420Y022844D01*
X021420Y022745D02*
X040300Y022745D01*
X040300Y022647D02*
X021420Y022647D01*
X021420Y022548D02*
X040300Y022548D01*
X040300Y022450D02*
X021420Y022450D01*
X021420Y022351D02*
X040300Y022351D01*
X040300Y022253D02*
X021420Y022253D01*
X021420Y022154D02*
X040300Y022154D01*
X040300Y022056D02*
X021420Y022056D01*
X021455Y021957D02*
X040300Y021957D01*
X040300Y021859D02*
X021527Y021859D01*
X021567Y021760D02*
X040300Y021760D01*
X040300Y021662D02*
X021590Y021662D01*
X021590Y021563D02*
X040300Y021563D01*
X040300Y021465D02*
X021579Y021465D01*
X021538Y021366D02*
X040300Y021366D01*
X040300Y021268D02*
X021483Y021268D01*
X021385Y021169D02*
X040300Y021169D01*
X040300Y021071D02*
X021188Y021071D01*
X020912Y021071D02*
X020188Y021071D01*
X020385Y021169D02*
X020715Y021169D01*
X020617Y021268D02*
X020483Y021268D01*
X020538Y021366D02*
X020562Y021366D01*
X019680Y023632D02*
X004851Y023632D01*
X004752Y023730D02*
X019654Y023730D01*
X019577Y023829D02*
X004654Y023829D01*
X004713Y023927D02*
X019536Y023927D01*
X019510Y024026D02*
X004812Y024026D01*
X004890Y024124D02*
X019510Y024124D01*
X019517Y024223D02*
X004890Y024223D01*
X004890Y024321D02*
X019558Y024321D01*
X019608Y024420D02*
X004890Y024420D01*
X004890Y024518D02*
X019706Y024518D01*
X019891Y024617D02*
X004866Y024617D01*
X003872Y022942D02*
X003728Y022942D01*
X003630Y022844D02*
X003970Y022844D01*
X009568Y027375D02*
X009782Y027375D01*
X010318Y027375D02*
X010532Y027375D01*
X011270Y027572D02*
X040300Y027572D01*
X040300Y027670D02*
X011311Y027670D01*
X011340Y027769D02*
X040300Y027769D01*
X040300Y027867D02*
X017550Y027867D01*
X017681Y027966D02*
X040300Y027966D01*
X040300Y028064D02*
X017767Y028064D01*
X017808Y028163D02*
X040300Y028163D01*
X040300Y028261D02*
X017840Y028261D01*
X017840Y028360D02*
X040300Y028360D01*
X040300Y028458D02*
X017839Y028458D01*
X017798Y028557D02*
X040300Y028557D01*
X040300Y028655D02*
X017757Y028655D01*
X017658Y028754D02*
X040300Y028754D01*
X040300Y028852D02*
X017494Y028852D01*
X017192Y028951D02*
X040300Y028951D01*
X040300Y029049D02*
X017094Y029049D01*
X016995Y029148D02*
X040300Y029148D01*
X040300Y029246D02*
X016897Y029246D01*
X016798Y029345D02*
X040300Y029345D01*
X040300Y029443D02*
X016632Y029443D01*
X016498Y028655D02*
X015757Y028655D01*
X015798Y028557D02*
X016596Y028557D01*
X016695Y028458D02*
X015839Y028458D01*
X015840Y028360D02*
X016760Y028360D01*
X016760Y028261D02*
X015840Y028261D01*
X015808Y028163D02*
X016792Y028163D01*
X016833Y028064D02*
X015767Y028064D01*
X015681Y027966D02*
X016919Y027966D01*
X017050Y027867D02*
X015550Y027867D01*
X015050Y027867D02*
X013550Y027867D01*
X013681Y027966D02*
X014919Y027966D01*
X014833Y028064D02*
X013767Y028064D01*
X013808Y028163D02*
X014792Y028163D01*
X014760Y028261D02*
X013840Y028261D01*
X013840Y028360D02*
X014760Y028360D01*
X014695Y028458D02*
X013839Y028458D01*
X013050Y027867D02*
X011340Y027867D01*
X011413Y027966D02*
X012919Y027966D01*
X012833Y028064D02*
X011511Y028064D01*
X011610Y028163D02*
X012792Y028163D01*
X010590Y029542D02*
X040300Y029542D01*
X040300Y029640D02*
X010590Y029640D01*
X010576Y029739D02*
X040300Y029739D01*
X040300Y029837D02*
X038873Y029837D01*
X039077Y029897D02*
X039077Y029897D01*
X039137Y029936D02*
X040300Y029936D01*
X040300Y030034D02*
X039290Y030034D01*
X039443Y030133D02*
X040300Y030133D01*
X040300Y030231D02*
X039565Y030231D01*
X039525Y030185D02*
X039525Y030185D01*
X039650Y030330D02*
X040300Y030330D01*
X040300Y030428D02*
X039735Y030428D01*
X039821Y030527D02*
X040300Y030527D01*
X040300Y030625D02*
X039891Y030625D01*
X039936Y030724D02*
X040300Y030724D01*
X040300Y030822D02*
X039980Y030822D01*
X040025Y030921D02*
X040300Y030921D01*
X040300Y031019D02*
X040070Y031019D01*
X040101Y031118D02*
X040300Y031118D01*
X040300Y031216D02*
X040115Y031216D01*
X040129Y031315D02*
X040300Y031315D01*
X040300Y031413D02*
X040143Y031413D01*
X040158Y031512D02*
X040300Y031512D01*
X040300Y031610D02*
X040168Y031610D01*
X040154Y031709D02*
X040300Y031709D01*
X040300Y031807D02*
X040140Y031807D01*
X037727Y029837D02*
X010535Y029837D01*
X010476Y029936D02*
X037463Y029936D01*
X037310Y030034D02*
X010378Y030034D01*
X010171Y030133D02*
X032146Y030133D01*
X032157Y030128D02*
X032443Y030128D01*
X032708Y030238D01*
X032910Y030440D01*
X033020Y030705D01*
X033020Y030991D01*
X032910Y031256D01*
X032708Y031459D01*
X032443Y031568D01*
X032157Y031568D01*
X031892Y031459D01*
X031690Y031256D01*
X031580Y030991D01*
X031580Y030705D01*
X031690Y030440D01*
X031892Y030238D01*
X032157Y030128D01*
X031908Y030231D02*
X005565Y030231D01*
X005525Y030185D02*
X005525Y030185D01*
X005525Y030185D01*
X005443Y030133D02*
X009929Y030133D01*
X009722Y030034D02*
X005290Y030034D01*
X005137Y029936D02*
X008450Y029936D01*
X008294Y029837D02*
X004873Y029837D01*
X005077Y029897D02*
X005077Y029897D01*
X005650Y030330D02*
X031800Y030330D01*
X031702Y030428D02*
X005735Y030428D01*
X005821Y030527D02*
X031654Y030527D01*
X031613Y030625D02*
X005891Y030625D01*
X005936Y030724D02*
X031580Y030724D01*
X031580Y030822D02*
X005980Y030822D01*
X006025Y030921D02*
X031580Y030921D01*
X031592Y031019D02*
X006070Y031019D01*
X006101Y031118D02*
X031632Y031118D01*
X031673Y031216D02*
X006115Y031216D01*
X006129Y031315D02*
X031748Y031315D01*
X031847Y031413D02*
X006143Y031413D01*
X006158Y031512D02*
X032021Y031512D01*
X032579Y031512D02*
X034021Y031512D01*
X033892Y031459D02*
X033690Y031256D01*
X033580Y030991D01*
X033580Y030705D01*
X033690Y030440D01*
X033892Y030238D01*
X034157Y030128D01*
X034443Y030128D01*
X034708Y030238D01*
X034910Y030440D01*
X035020Y030705D01*
X035020Y030991D01*
X034910Y031256D01*
X034708Y031459D01*
X034443Y031568D01*
X034157Y031568D01*
X033892Y031459D01*
X033847Y031413D02*
X032753Y031413D01*
X032852Y031315D02*
X033748Y031315D01*
X033673Y031216D02*
X032927Y031216D01*
X032968Y031118D02*
X033632Y031118D01*
X033592Y031019D02*
X033008Y031019D01*
X033020Y030921D02*
X033580Y030921D01*
X033580Y030822D02*
X033020Y030822D01*
X033020Y030724D02*
X033580Y030724D01*
X033613Y030625D02*
X032987Y030625D01*
X032946Y030527D02*
X033654Y030527D01*
X033702Y030428D02*
X032898Y030428D01*
X032800Y030330D02*
X033800Y030330D01*
X033908Y030231D02*
X032692Y030231D01*
X032454Y030133D02*
X034146Y030133D01*
X034454Y030133D02*
X037157Y030133D01*
X037075Y030185D02*
X037075Y030185D01*
X037035Y030231D02*
X034692Y030231D01*
X034800Y030330D02*
X036950Y030330D01*
X036865Y030428D02*
X034898Y030428D01*
X034946Y030527D02*
X036779Y030527D01*
X036727Y030587D02*
X036727Y030587D01*
X036709Y030625D02*
X034987Y030625D01*
X035020Y030724D02*
X036664Y030724D01*
X036620Y030822D02*
X035020Y030822D01*
X035020Y030921D02*
X036575Y030921D01*
X036530Y031019D02*
X035008Y031019D01*
X034968Y031118D02*
X036499Y031118D01*
X036506Y031071D02*
X036506Y031071D01*
X036485Y031216D02*
X034927Y031216D01*
X034852Y031315D02*
X036471Y031315D01*
X036457Y031413D02*
X034753Y031413D01*
X034579Y031512D02*
X036442Y031512D01*
X036430Y031598D02*
X036430Y031598D01*
X036432Y031610D02*
X006168Y031610D01*
X006154Y031709D02*
X036446Y031709D01*
X036460Y031807D02*
X006140Y031807D01*
X008196Y029739D02*
X002300Y029739D01*
X002300Y029837D02*
X003727Y029837D01*
X003463Y029936D02*
X002300Y029936D01*
X002300Y030034D02*
X003310Y030034D01*
X003157Y030133D02*
X002300Y030133D01*
X002300Y030231D02*
X003035Y030231D01*
X003075Y030185D02*
X003075Y030185D01*
X002950Y030330D02*
X002300Y030330D01*
X002300Y030428D02*
X002865Y030428D01*
X002779Y030527D02*
X002300Y030527D01*
X002300Y030625D02*
X002709Y030625D01*
X002727Y030587D02*
X002727Y030587D01*
X002664Y030724D02*
X002300Y030724D01*
X002300Y030822D02*
X002620Y030822D01*
X002575Y030921D02*
X002300Y030921D01*
X002300Y031019D02*
X002530Y031019D01*
X002506Y031071D02*
X002506Y031071D01*
X002499Y031118D02*
X002300Y031118D01*
X002300Y031216D02*
X002485Y031216D01*
X002471Y031315D02*
X002300Y031315D01*
X002300Y031413D02*
X002457Y031413D01*
X002442Y031512D02*
X002300Y031512D01*
X002300Y031610D02*
X002432Y031610D01*
X002430Y031598D02*
X002430Y031598D01*
X002446Y031709D02*
X002300Y031709D01*
X002300Y031807D02*
X002460Y031807D01*
X002300Y029640D02*
X008097Y029640D01*
X007999Y029542D02*
X002300Y029542D01*
X002300Y029443D02*
X007900Y029443D01*
X007588Y029345D02*
X002300Y029345D01*
X008032Y028360D02*
X009124Y028360D01*
X009415Y028458D02*
X008174Y028458D01*
X008264Y028557D02*
X009514Y028557D01*
X009612Y028655D02*
X008305Y028655D01*
X008340Y028754D02*
X009711Y028754D01*
X009809Y028852D02*
X008340Y028852D01*
X008398Y028951D02*
X009908Y028951D01*
X010006Y029049D02*
X008496Y029049D01*
X008595Y029148D02*
X009737Y029148D01*
X009638Y029246D02*
X008693Y029246D01*
X010362Y020578D02*
X040300Y020578D01*
X040300Y020480D02*
X010414Y020480D01*
X010425Y020381D02*
X040300Y020381D01*
X040300Y020283D02*
X010425Y020283D01*
X010425Y020184D02*
X040300Y020184D01*
X040300Y020086D02*
X010425Y020086D01*
X010425Y019987D02*
X040300Y019987D01*
X040300Y019889D02*
X010425Y019889D01*
X010425Y019790D02*
X040300Y019790D01*
X040300Y019692D02*
X010425Y019692D01*
X010410Y019593D02*
X040300Y019593D01*
X040300Y019495D02*
X010353Y019495D01*
X010340Y019396D02*
X040300Y019396D01*
X040300Y019298D02*
X010340Y019298D01*
X010340Y019199D02*
X040300Y019199D01*
X040300Y019101D02*
X010366Y019101D01*
X009923Y016468D02*
X009677Y016468D01*
X009449Y016374D01*
X009274Y016199D01*
X009180Y015971D01*
X009180Y015725D01*
X009260Y015532D01*
X009260Y015214D01*
X009220Y015174D01*
X009175Y015067D01*
X009175Y014243D01*
X009220Y014137D01*
X009301Y014055D01*
X009408Y014011D01*
X010192Y014011D01*
X010299Y014055D01*
X010380Y014137D01*
X010425Y014243D01*
X010425Y015067D01*
X010380Y015174D01*
X010340Y015214D01*
X010340Y015532D01*
X010420Y015725D01*
X010420Y015971D01*
X010326Y016199D01*
X010151Y016374D01*
X009923Y016468D01*
X009988Y016441D02*
X019680Y016441D01*
X019680Y016343D02*
X010182Y016343D01*
X010281Y016244D02*
X019680Y016244D01*
X019680Y016146D02*
X010348Y016146D01*
X010389Y016047D02*
X019680Y016047D01*
X019680Y015949D02*
X010420Y015949D01*
X010420Y015850D02*
X019680Y015850D01*
X019680Y015752D02*
X010420Y015752D01*
X010390Y015653D02*
X019680Y015653D01*
X019680Y015555D02*
X010350Y015555D01*
X010340Y015456D02*
X019680Y015456D01*
X019680Y015358D02*
X010340Y015358D01*
X010340Y015259D02*
X019680Y015259D01*
X019680Y015161D02*
X010386Y015161D01*
X010425Y015062D02*
X019680Y015062D01*
X019652Y014964D02*
X010425Y014964D01*
X010425Y014865D02*
X019576Y014865D01*
X019535Y014767D02*
X010425Y014767D01*
X010425Y014668D02*
X019510Y014668D01*
X019510Y014570D02*
X010425Y014570D01*
X010425Y014471D02*
X019518Y014471D01*
X019559Y014373D02*
X010425Y014373D01*
X010425Y014274D02*
X019610Y014274D01*
X019709Y014176D02*
X010397Y014176D01*
X010321Y014077D02*
X019897Y014077D01*
X020203Y014077D02*
X037249Y014077D01*
X037287Y014115D02*
X037033Y013861D01*
X036895Y013528D01*
X036895Y013168D01*
X037033Y012836D01*
X037287Y012581D01*
X037620Y012443D01*
X037980Y012443D01*
X038313Y012581D01*
X038567Y012836D01*
X038705Y013168D01*
X038705Y013528D01*
X038567Y013861D01*
X038313Y014115D01*
X037980Y014253D01*
X037620Y014253D01*
X037287Y014115D01*
X037433Y014176D02*
X020391Y014176D01*
X020490Y014274D02*
X040300Y014274D01*
X040300Y014176D02*
X038167Y014176D01*
X038351Y014077D02*
X040300Y014077D01*
X040300Y013979D02*
X038449Y013979D01*
X038548Y013880D02*
X040300Y013880D01*
X040300Y013782D02*
X038600Y013782D01*
X038641Y013683D02*
X040300Y013683D01*
X040300Y013585D02*
X038682Y013585D01*
X038705Y013486D02*
X040300Y013486D01*
X040300Y013388D02*
X038705Y013388D01*
X038705Y013289D02*
X040300Y013289D01*
X040300Y013191D02*
X038705Y013191D01*
X038674Y013092D02*
X040300Y013092D01*
X040300Y012994D02*
X038633Y012994D01*
X038592Y012895D02*
X040300Y012895D01*
X040300Y012797D02*
X038528Y012797D01*
X038430Y012698D02*
X040300Y012698D01*
X040300Y012600D02*
X038331Y012600D01*
X038120Y012501D02*
X040300Y012501D01*
X040300Y012403D02*
X031705Y012403D01*
X031705Y012501D02*
X037480Y012501D01*
X037269Y012600D02*
X031675Y012600D01*
X031705Y012528D02*
X031567Y012861D01*
X031313Y013115D01*
X030980Y013253D01*
X030620Y013253D01*
X030287Y013115D01*
X030033Y012861D01*
X029895Y012528D01*
X029895Y012168D01*
X030033Y011836D01*
X030287Y011581D01*
X030620Y011443D01*
X030980Y011443D01*
X031313Y011581D01*
X031567Y011836D01*
X031705Y012168D01*
X031705Y012528D01*
X031635Y012698D02*
X037170Y012698D01*
X037072Y012797D02*
X031594Y012797D01*
X031533Y012895D02*
X037008Y012895D01*
X036967Y012994D02*
X031434Y012994D01*
X031336Y013092D02*
X036926Y013092D01*
X036895Y013191D02*
X031131Y013191D01*
X030469Y013191D02*
X010425Y013191D01*
X010425Y013289D02*
X036895Y013289D01*
X036895Y013388D02*
X010425Y013388D01*
X010411Y013486D02*
X036895Y013486D01*
X036918Y013585D02*
X010355Y013585D01*
X010198Y013683D02*
X036959Y013683D01*
X037000Y013782D02*
X004020Y013782D01*
X004020Y013880D02*
X037052Y013880D01*
X037151Y013979D02*
X004020Y013979D01*
X003984Y014077D02*
X009279Y014077D01*
X009203Y014176D02*
X003944Y014176D01*
X003892Y014274D02*
X009175Y014274D01*
X009175Y014373D02*
X003794Y014373D01*
X003677Y014471D02*
X009175Y014471D01*
X009214Y015161D02*
X003522Y015161D01*
X003729Y015259D02*
X009260Y015259D01*
X009260Y015358D02*
X003828Y015358D01*
X003917Y015456D02*
X009260Y015456D01*
X009250Y015555D02*
X003958Y015555D01*
X003999Y015653D02*
X009210Y015653D01*
X009180Y015752D02*
X004020Y015752D01*
X004020Y015850D02*
X009180Y015850D01*
X009180Y015949D02*
X004020Y015949D01*
X003997Y016047D02*
X009211Y016047D01*
X009252Y016146D02*
X003956Y016146D01*
X003915Y016244D02*
X009319Y016244D01*
X009418Y016343D02*
X003824Y016343D01*
X003725Y016441D02*
X009612Y016441D01*
X009402Y013683D02*
X004011Y013683D01*
X003970Y013585D02*
X009245Y013585D01*
X009189Y013486D02*
X003929Y013486D01*
X003858Y013388D02*
X009175Y013388D01*
X009175Y013289D02*
X003759Y013289D01*
X003594Y013191D02*
X009175Y013191D01*
X009241Y012501D02*
X003605Y012501D01*
X003764Y012403D02*
X009260Y012403D01*
X009260Y012304D02*
X003862Y012304D01*
X003931Y012206D02*
X009260Y012206D01*
X009236Y012107D02*
X003972Y012107D01*
X004013Y012009D02*
X009195Y012009D01*
X009180Y011910D02*
X004020Y011910D01*
X004020Y011812D02*
X009180Y011812D01*
X009185Y011713D02*
X004020Y011713D01*
X003983Y011615D02*
X009226Y011615D01*
X009266Y011516D02*
X003942Y011516D01*
X003888Y011418D02*
X009354Y011418D01*
X009457Y011319D02*
X003789Y011319D01*
X003667Y011221D02*
X040300Y011221D01*
X040300Y011319D02*
X010143Y011319D01*
X010246Y011418D02*
X040300Y011418D01*
X040300Y011516D02*
X031156Y011516D01*
X031346Y011615D02*
X040300Y011615D01*
X040300Y011713D02*
X031445Y011713D01*
X031543Y011812D02*
X040300Y011812D01*
X040300Y011910D02*
X031598Y011910D01*
X031639Y012009D02*
X040300Y012009D01*
X040300Y012107D02*
X031680Y012107D01*
X031705Y012206D02*
X040300Y012206D01*
X040300Y012304D02*
X031705Y012304D01*
X030444Y011516D02*
X010334Y011516D01*
X010374Y011615D02*
X030254Y011615D01*
X030155Y011713D02*
X010415Y011713D01*
X010420Y011812D02*
X030057Y011812D01*
X030002Y011910D02*
X010420Y011910D01*
X010405Y012009D02*
X029961Y012009D01*
X029920Y012107D02*
X010364Y012107D01*
X010340Y012206D02*
X029895Y012206D01*
X029895Y012304D02*
X010340Y012304D01*
X010340Y012403D02*
X029895Y012403D01*
X029895Y012501D02*
X010359Y012501D01*
X010412Y012600D02*
X029925Y012600D01*
X029965Y012698D02*
X010425Y012698D01*
X010425Y012797D02*
X030006Y012797D01*
X030067Y012895D02*
X010425Y012895D01*
X010425Y012994D02*
X030166Y012994D01*
X030264Y013092D02*
X010425Y013092D01*
X010176Y009349D02*
X040300Y009349D01*
X040300Y009251D02*
X010274Y009251D01*
X010345Y009152D02*
X040300Y009152D01*
X040300Y009054D02*
X010386Y009054D01*
X010420Y008955D02*
X040300Y008955D01*
X040300Y008857D02*
X010420Y008857D01*
X010420Y008758D02*
X040300Y008758D01*
X040300Y008660D02*
X010393Y008660D01*
X010352Y008561D02*
X040300Y008561D01*
X040300Y008463D02*
X010340Y008463D01*
X010340Y008364D02*
X040300Y008364D01*
X040300Y008266D02*
X010340Y008266D01*
X010383Y008167D02*
X040300Y008167D01*
X040300Y008069D02*
X010424Y008069D01*
X010425Y007970D02*
X040300Y007970D01*
X040300Y007872D02*
X010425Y007872D01*
X010425Y007773D02*
X040300Y007773D01*
X040300Y007675D02*
X010425Y007675D01*
X010425Y007576D02*
X040300Y007576D01*
X040300Y007478D02*
X010425Y007478D01*
X010425Y007379D02*
X040300Y007379D01*
X040300Y007281D02*
X010425Y007281D01*
X010399Y007182D02*
X040300Y007182D01*
X040300Y007084D02*
X010328Y007084D01*
X010349Y006591D02*
X040300Y006591D01*
X040300Y006493D02*
X010408Y006493D01*
X010425Y006394D02*
X040300Y006394D01*
X040300Y006296D02*
X010425Y006296D01*
X010425Y006197D02*
X040300Y006197D01*
X040300Y006099D02*
X010425Y006099D01*
X010425Y006000D02*
X040300Y006000D01*
X040300Y005902D02*
X038728Y005902D01*
X039063Y005803D02*
X040300Y005803D01*
X040300Y005705D02*
X039224Y005705D01*
X039377Y005606D02*
X040300Y005606D01*
X040300Y005508D02*
X039528Y005508D01*
X039613Y005409D02*
X040300Y005409D01*
X040300Y005311D02*
X039699Y005311D01*
X039784Y005212D02*
X040300Y005212D01*
X040300Y005114D02*
X039869Y005114D01*
X039916Y005015D02*
X040300Y005015D01*
X040300Y004917D02*
X039961Y004917D01*
X040006Y004818D02*
X040300Y004818D01*
X040300Y004720D02*
X040051Y004720D01*
X040094Y004625D02*
X040094Y004625D01*
X040095Y004621D02*
X040300Y004621D01*
X040300Y004523D02*
X040109Y004523D01*
X040123Y004424D02*
X040300Y004424D01*
X040300Y004326D02*
X040137Y004326D01*
X040151Y004227D02*
X040300Y004227D01*
X040300Y004129D02*
X040166Y004129D01*
X040160Y004030D02*
X040300Y004030D01*
X040300Y003932D02*
X040146Y003932D01*
X037872Y005902D02*
X010425Y005902D01*
X010425Y005803D02*
X037537Y005803D01*
X037523Y005799D02*
X037523Y005799D01*
X037376Y005705D02*
X010425Y005705D01*
X010415Y005606D02*
X037223Y005606D01*
X037075Y005511D02*
X037075Y005511D01*
X037075Y005511D01*
X037072Y005508D02*
X030089Y005508D01*
X030208Y005459D02*
X029943Y005568D01*
X029657Y005568D01*
X029392Y005459D01*
X029190Y005256D01*
X029080Y004991D01*
X029080Y004705D01*
X029190Y004440D01*
X029392Y004238D01*
X029657Y004128D01*
X029943Y004128D01*
X030208Y004238D01*
X030410Y004440D01*
X030520Y004705D01*
X030520Y004991D01*
X030410Y005256D01*
X030208Y005459D01*
X030257Y005409D02*
X036987Y005409D01*
X036901Y005311D02*
X030356Y005311D01*
X030429Y005212D02*
X036816Y005212D01*
X036731Y005114D02*
X030469Y005114D01*
X030510Y005015D02*
X036684Y005015D01*
X036727Y005109D02*
X036727Y005109D01*
X036639Y004917D02*
X030520Y004917D01*
X030520Y004818D02*
X036594Y004818D01*
X036549Y004720D02*
X030520Y004720D01*
X030485Y004621D02*
X036505Y004621D01*
X036506Y004625D02*
X036506Y004625D01*
X036491Y004523D02*
X030444Y004523D01*
X030394Y004424D02*
X036477Y004424D01*
X036463Y004326D02*
X030296Y004326D01*
X030182Y004227D02*
X036449Y004227D01*
X036434Y004129D02*
X029944Y004129D01*
X029656Y004129D02*
X027944Y004129D01*
X027943Y004128D02*
X028208Y004238D01*
X028410Y004440D01*
X028520Y004705D01*
X028520Y004991D01*
X028410Y005256D01*
X028208Y005459D01*
X027943Y005568D01*
X027657Y005568D01*
X027392Y005459D01*
X027190Y005256D01*
X027080Y004991D01*
X027080Y004705D01*
X027190Y004440D01*
X027392Y004238D01*
X027657Y004128D01*
X027943Y004128D01*
X028182Y004227D02*
X029418Y004227D01*
X029304Y004326D02*
X028296Y004326D01*
X028394Y004424D02*
X029206Y004424D01*
X029156Y004523D02*
X028444Y004523D01*
X028485Y004621D02*
X029115Y004621D01*
X029080Y004720D02*
X028520Y004720D01*
X028520Y004818D02*
X029080Y004818D01*
X029080Y004917D02*
X028520Y004917D01*
X028510Y005015D02*
X029090Y005015D01*
X029131Y005114D02*
X028469Y005114D01*
X028429Y005212D02*
X029171Y005212D01*
X029244Y005311D02*
X028356Y005311D01*
X028257Y005409D02*
X029343Y005409D01*
X029511Y005508D02*
X028089Y005508D01*
X027511Y005508D02*
X026089Y005508D01*
X026208Y005459D02*
X025943Y005568D01*
X025657Y005568D01*
X025392Y005459D01*
X025190Y005256D01*
X025080Y004991D01*
X025080Y004705D01*
X025190Y004440D01*
X025392Y004238D01*
X025657Y004128D01*
X025943Y004128D01*
X026208Y004238D01*
X026410Y004440D01*
X026520Y004705D01*
X026520Y004991D01*
X026410Y005256D01*
X026208Y005459D01*
X026257Y005409D02*
X027343Y005409D01*
X027244Y005311D02*
X026356Y005311D01*
X026429Y005212D02*
X027171Y005212D01*
X027131Y005114D02*
X026469Y005114D01*
X026510Y005015D02*
X027090Y005015D01*
X027080Y004917D02*
X026520Y004917D01*
X026520Y004818D02*
X027080Y004818D01*
X027080Y004720D02*
X026520Y004720D01*
X026485Y004621D02*
X027115Y004621D01*
X027156Y004523D02*
X026444Y004523D01*
X026394Y004424D02*
X027206Y004424D01*
X027304Y004326D02*
X026296Y004326D01*
X026182Y004227D02*
X027418Y004227D01*
X027656Y004129D02*
X025944Y004129D01*
X025656Y004129D02*
X023944Y004129D01*
X023943Y004128D02*
X024208Y004238D01*
X024410Y004440D01*
X024520Y004705D01*
X024520Y004991D01*
X024410Y005256D01*
X024208Y005459D01*
X023943Y005568D01*
X023657Y005568D01*
X023392Y005459D01*
X023190Y005256D01*
X023080Y004991D01*
X023080Y004705D01*
X023190Y004440D01*
X023392Y004238D01*
X023657Y004128D01*
X023943Y004128D01*
X024182Y004227D02*
X025418Y004227D01*
X025304Y004326D02*
X024296Y004326D01*
X024394Y004424D02*
X025206Y004424D01*
X025156Y004523D02*
X024444Y004523D01*
X024485Y004621D02*
X025115Y004621D01*
X025080Y004720D02*
X024520Y004720D01*
X024520Y004818D02*
X025080Y004818D01*
X025080Y004917D02*
X024520Y004917D01*
X024510Y005015D02*
X025090Y005015D01*
X025131Y005114D02*
X024469Y005114D01*
X024429Y005212D02*
X025171Y005212D01*
X025244Y005311D02*
X024356Y005311D01*
X024257Y005409D02*
X025343Y005409D01*
X025511Y005508D02*
X024089Y005508D01*
X023511Y005508D02*
X010366Y005508D01*
X010340Y005409D02*
X021650Y005409D01*
X021664Y005414D02*
X021577Y005386D01*
X021496Y005344D01*
X021422Y005291D01*
X021358Y005226D01*
X021304Y005152D01*
X021262Y005071D01*
X021234Y004984D01*
X021221Y004898D01*
X021750Y004898D01*
X021750Y004798D01*
X021850Y004798D01*
X021850Y004269D01*
X021936Y004282D01*
X022023Y004311D01*
X022104Y004352D01*
X022178Y004406D01*
X022242Y004470D01*
X022296Y004544D01*
X022338Y004626D01*
X022366Y004712D01*
X022379Y004798D01*
X021850Y004798D01*
X021850Y004898D01*
X022379Y004898D01*
X022366Y004984D01*
X022338Y005071D01*
X022296Y005152D01*
X022242Y005226D01*
X022178Y005291D01*
X022104Y005344D01*
X022023Y005386D01*
X021936Y005414D01*
X021850Y005427D01*
X021850Y004898D01*
X021750Y004898D01*
X021750Y005427D01*
X021664Y005414D01*
X021750Y005409D02*
X021850Y005409D01*
X021850Y005311D02*
X021750Y005311D01*
X021750Y005212D02*
X021850Y005212D01*
X021850Y005114D02*
X021750Y005114D01*
X021750Y005015D02*
X021850Y005015D01*
X021850Y004917D02*
X021750Y004917D01*
X021750Y004818D02*
X010420Y004818D01*
X010418Y004720D02*
X021233Y004720D01*
X021234Y004712D02*
X021262Y004626D01*
X021304Y004544D01*
X021358Y004470D01*
X021422Y004406D01*
X021496Y004352D01*
X021577Y004311D01*
X021664Y004282D01*
X021750Y004269D01*
X021750Y004798D01*
X021221Y004798D01*
X021234Y004712D01*
X021265Y004621D02*
X010377Y004621D01*
X010336Y004523D02*
X021320Y004523D01*
X021404Y004424D02*
X010253Y004424D01*
X010154Y004326D02*
X021548Y004326D01*
X021750Y004326D02*
X021850Y004326D01*
X021850Y004424D02*
X021750Y004424D01*
X021750Y004523D02*
X021850Y004523D01*
X021850Y004621D02*
X021750Y004621D01*
X021750Y004720D02*
X021850Y004720D01*
X021850Y004818D02*
X023080Y004818D01*
X023080Y004720D02*
X022367Y004720D01*
X022335Y004621D02*
X023115Y004621D01*
X023156Y004523D02*
X022280Y004523D01*
X022196Y004424D02*
X023206Y004424D01*
X023304Y004326D02*
X022052Y004326D01*
X022376Y004917D02*
X023080Y004917D01*
X023090Y005015D02*
X022356Y005015D01*
X022316Y005114D02*
X023131Y005114D01*
X023171Y005212D02*
X022252Y005212D01*
X022150Y005311D02*
X023244Y005311D01*
X023343Y005409D02*
X021950Y005409D01*
X021450Y005311D02*
X010340Y005311D01*
X010340Y005212D02*
X021348Y005212D01*
X021284Y005114D02*
X010361Y005114D01*
X010402Y005015D02*
X021244Y005015D01*
X021224Y004917D02*
X010420Y004917D01*
X009446Y004326D02*
X006137Y004326D01*
X006123Y004424D02*
X009347Y004424D01*
X009264Y004523D02*
X006109Y004523D01*
X006095Y004621D02*
X009223Y004621D01*
X009182Y004720D02*
X006051Y004720D01*
X006094Y004625D02*
X006094Y004625D01*
X006006Y004818D02*
X009180Y004818D01*
X009180Y004917D02*
X005961Y004917D01*
X005916Y005015D02*
X009198Y005015D01*
X009239Y005114D02*
X005869Y005114D01*
X005784Y005212D02*
X009260Y005212D01*
X009260Y005311D02*
X005699Y005311D01*
X005613Y005409D02*
X009260Y005409D01*
X009234Y005508D02*
X005528Y005508D01*
X005377Y005606D02*
X009185Y005606D01*
X009175Y005705D02*
X005224Y005705D01*
X005063Y005803D02*
X009175Y005803D01*
X006151Y004227D02*
X023418Y004227D01*
X023656Y004129D02*
X006166Y004129D01*
X006160Y004030D02*
X036440Y004030D01*
X036430Y004098D02*
X036430Y004098D01*
X036454Y003932D02*
X006146Y003932D01*
X020541Y014373D02*
X040300Y014373D01*
X040300Y014471D02*
X020582Y014471D01*
X020590Y014570D02*
X040300Y014570D01*
X040300Y014668D02*
X020590Y014668D01*
X020565Y014767D02*
X040300Y014767D01*
X040300Y014865D02*
X020524Y014865D01*
X020448Y014964D02*
X040300Y014964D01*
X040300Y015062D02*
X020420Y015062D01*
X020420Y015161D02*
X040300Y015161D01*
X040300Y015259D02*
X020420Y015259D01*
X020420Y015358D02*
X040300Y015358D01*
X040300Y015456D02*
X020420Y015456D01*
X020420Y015555D02*
X040300Y015555D01*
X040300Y015653D02*
X020420Y015653D01*
X020420Y015752D02*
X040300Y015752D01*
X040300Y015850D02*
X020420Y015850D01*
X020420Y015949D02*
X040300Y015949D01*
X040300Y016047D02*
X020420Y016047D01*
X020420Y016146D02*
X040300Y016146D01*
X040300Y016244D02*
X020420Y016244D01*
X020420Y016343D02*
X040300Y016343D01*
X040300Y016441D02*
X020420Y016441D01*
X020420Y016540D02*
X040300Y016540D01*
X040300Y016638D02*
X020420Y016638D01*
X020452Y016737D02*
X040300Y016737D01*
X040300Y016835D02*
X020526Y016835D01*
X020566Y016934D02*
X040300Y016934D01*
X040300Y017032D02*
X020590Y017032D01*
X020590Y017131D02*
X040300Y017131D01*
X040300Y017229D02*
X020580Y017229D01*
X020539Y017328D02*
X040300Y017328D01*
X040300Y017426D02*
X020486Y017426D01*
X020387Y017525D02*
X040300Y017525D01*
X040300Y017623D02*
X020194Y017623D01*
X020542Y024321D02*
X020558Y024321D01*
X020608Y024420D02*
X020492Y024420D01*
X020394Y024518D02*
X020706Y024518D01*
X020891Y024617D02*
X020209Y024617D01*
X033443Y018805D02*
X033543Y018805D01*
X033543Y018707D02*
X033443Y018707D01*
X033443Y018608D02*
X033543Y018608D01*
X033543Y018510D02*
X033443Y018510D01*
X033443Y018411D02*
X033543Y018411D01*
X035651Y018904D02*
X036041Y018904D01*
X039171Y024223D02*
X040300Y024223D01*
X040300Y024321D02*
X039291Y024321D01*
X039390Y024420D02*
X040300Y024420D01*
X040300Y024518D02*
X039443Y024518D01*
X039483Y024617D02*
X040300Y024617D01*
X040300Y024715D02*
X039520Y024715D01*
X039520Y024814D02*
X040300Y024814D01*
X040300Y024912D02*
X039520Y024912D01*
X039512Y025011D02*
X040300Y025011D01*
X040300Y025109D02*
X039471Y025109D01*
X039430Y025208D02*
X040300Y025208D01*
X040300Y025306D02*
X039360Y025306D01*
X039262Y025405D02*
X040300Y025405D01*
X040300Y025503D02*
X039100Y025503D01*
D20*
X021050Y024098D02*
X021050Y021598D01*
X020050Y021598D02*
X020050Y024098D01*
X020050Y017098D02*
X020050Y014598D01*
D21*
X008050Y027598D02*
X006300Y027598D01*
X005300Y028598D01*
D22*
X007800Y028848D02*
X008550Y029598D01*
X010050Y029598D01*
X010550Y029098D02*
X016550Y029098D01*
X017300Y028348D01*
X015300Y028348D02*
X014800Y028848D01*
X011050Y028848D01*
X010050Y027848D01*
X009300Y027848D02*
X010550Y029098D01*
X011550Y028598D02*
X010800Y027848D01*
X011550Y028598D02*
X013050Y028598D01*
X013300Y028348D01*
D23*
X004300Y031598D03*
X004300Y004098D03*
X038300Y004098D03*
X038300Y031598D03*
M02*
