G75*
%MOIN*%
%OFA0B0*%
%FSLAX25Y25*%
%IPPOS*%
%LPD*%
%AMOC8*
5,1,8,0,0,1.08239X$1,22.5*
%
%ADD10C,0.00500*%
%ADD11C,0.07000*%
%ADD12OC8,0.12000*%
%ADD13C,0.10000*%
%ADD14C,0.05000*%
%ADD15C,0.08600*%
%ADD16C,0.03200*%
%ADD17C,0.05906*%
%ADD18OC8,0.10000*%
D10*
X0271048Y0018920D02*
X0271965Y0018920D01*
X0273800Y0017085D01*
X0273800Y0015250D02*
X0273800Y0018920D01*
X0275655Y0018002D02*
X0275655Y0017085D01*
X0279325Y0017085D01*
X0279325Y0018002D02*
X0278407Y0018920D01*
X0276572Y0018920D01*
X0275655Y0018002D01*
X0276572Y0015250D02*
X0278407Y0015250D01*
X0279325Y0016167D01*
X0279325Y0018002D01*
X0281180Y0018920D02*
X0283015Y0015250D01*
X0284849Y0018920D01*
X0286704Y0018002D02*
X0287622Y0018920D01*
X0289457Y0018920D01*
X0290374Y0018002D01*
X0290374Y0016167D01*
X0289457Y0015250D01*
X0287622Y0015250D01*
X0286704Y0017085D02*
X0290374Y0017085D01*
X0292222Y0015250D02*
X0294057Y0015250D01*
X0293140Y0015250D02*
X0293140Y0018920D01*
X0294057Y0018920D01*
X0295912Y0018920D02*
X0298665Y0018920D01*
X0299582Y0018002D01*
X0299582Y0016167D01*
X0298665Y0015250D01*
X0295912Y0015250D01*
X0301437Y0017085D02*
X0305107Y0017085D01*
X0305107Y0018002D02*
X0304189Y0018920D01*
X0302354Y0018920D01*
X0301437Y0018002D01*
X0301437Y0017085D01*
X0302354Y0015250D02*
X0304189Y0015250D01*
X0305107Y0016167D01*
X0305107Y0018002D01*
X0306962Y0018002D02*
X0306962Y0019837D01*
X0307879Y0020755D01*
X0310631Y0020755D01*
X0310631Y0015250D01*
X0310631Y0017085D02*
X0307879Y0017085D01*
X0306962Y0018002D01*
X0308797Y0017085D02*
X0306962Y0015250D01*
X0318004Y0015250D02*
X0319839Y0015250D01*
X0318922Y0015250D02*
X0318922Y0020755D01*
X0319839Y0020755D01*
X0318919Y0022415D02*
X0317084Y0024250D01*
X0318001Y0024250D01*
X0318001Y0025167D01*
X0317084Y0025167D01*
X0317084Y0024250D01*
X0320773Y0024250D02*
X0322608Y0026085D01*
X0324443Y0024250D01*
X0324443Y0029755D01*
X0326298Y0029755D02*
X0326298Y0026085D01*
X0328133Y0024250D01*
X0329968Y0026085D01*
X0329968Y0029755D01*
X0320773Y0029755D02*
X0320773Y0024250D01*
X0322605Y0020755D02*
X0322605Y0015250D01*
X0323522Y0015250D02*
X0321688Y0015250D01*
X0325377Y0017085D02*
X0329047Y0017085D01*
X0329047Y0018002D02*
X0328130Y0018920D01*
X0326295Y0018920D01*
X0325377Y0018002D01*
X0325377Y0017085D01*
X0326295Y0015250D02*
X0328130Y0015250D01*
X0329047Y0016167D01*
X0329047Y0018002D01*
X0330902Y0018002D02*
X0331820Y0018920D01*
X0334572Y0018920D01*
X0334572Y0020755D02*
X0334572Y0015250D01*
X0331820Y0015250D01*
X0330902Y0016167D01*
X0330902Y0018002D01*
X0336423Y0018920D02*
X0337341Y0018920D01*
X0339176Y0017085D01*
X0339176Y0015250D02*
X0339176Y0018920D01*
X0341031Y0018002D02*
X0341948Y0018920D01*
X0343783Y0018920D01*
X0344701Y0018002D01*
X0344701Y0016167D01*
X0343783Y0015250D01*
X0341948Y0015250D01*
X0341031Y0016167D01*
X0341031Y0018002D01*
X0346555Y0018002D02*
X0346555Y0016167D01*
X0347473Y0015250D01*
X0349308Y0015250D01*
X0350225Y0016167D01*
X0350225Y0018002D01*
X0349308Y0018920D01*
X0347473Y0018920D01*
X0346555Y0018002D01*
X0352080Y0016167D02*
X0352080Y0019837D01*
X0352998Y0020755D01*
X0355750Y0020755D01*
X0355750Y0015250D01*
X0352998Y0015250D01*
X0352080Y0016167D01*
X0352998Y0011755D02*
X0354833Y0011755D01*
X0355750Y0010837D01*
X0355750Y0007167D01*
X0354833Y0006250D01*
X0352998Y0006250D01*
X0352080Y0007167D01*
X0350225Y0007167D02*
X0349308Y0006250D01*
X0347473Y0006250D01*
X0346555Y0007167D01*
X0346555Y0009002D01*
X0347473Y0009920D01*
X0349308Y0009920D01*
X0350225Y0009002D01*
X0350225Y0007167D01*
X0352080Y0010837D02*
X0352998Y0011755D01*
X0344701Y0009920D02*
X0343783Y0009920D01*
X0342866Y0009002D01*
X0341948Y0009920D01*
X0341031Y0009002D01*
X0341031Y0006250D01*
X0342866Y0006250D02*
X0342866Y0009002D01*
X0344701Y0009920D02*
X0344701Y0006250D01*
X0339176Y0006250D02*
X0336423Y0006250D01*
X0335506Y0007167D01*
X0335506Y0009002D01*
X0336423Y0009920D01*
X0339176Y0009920D01*
X0339176Y0004415D01*
X0333651Y0007167D02*
X0332734Y0006250D01*
X0330899Y0006250D01*
X0329981Y0007167D01*
X0329981Y0009002D01*
X0330899Y0009920D01*
X0332734Y0009920D01*
X0333651Y0009002D01*
X0333651Y0007167D01*
X0328126Y0006250D02*
X0328126Y0009920D01*
X0325374Y0009920D01*
X0324457Y0009002D01*
X0324457Y0006250D01*
X0322602Y0007167D02*
X0322602Y0009002D01*
X0321684Y0009920D01*
X0319849Y0009920D01*
X0318932Y0009002D01*
X0318932Y0008085D01*
X0322602Y0008085D01*
X0322602Y0007167D02*
X0321684Y0006250D01*
X0319849Y0006250D01*
X0317077Y0006250D02*
X0317077Y0009920D01*
X0314325Y0009920D01*
X0313407Y0009002D01*
X0313407Y0006250D01*
X0310635Y0007167D02*
X0309717Y0006250D01*
X0310635Y0007167D02*
X0310635Y0010837D01*
X0311552Y0009920D02*
X0309717Y0009920D01*
X0302344Y0009002D02*
X0301427Y0009920D01*
X0298675Y0009920D01*
X0296820Y0009920D02*
X0295902Y0009920D01*
X0295902Y0006250D01*
X0294985Y0006250D02*
X0296820Y0006250D01*
X0298675Y0007167D02*
X0299592Y0008085D01*
X0301427Y0008085D01*
X0302344Y0009002D01*
X0302344Y0006250D02*
X0299592Y0006250D01*
X0298675Y0007167D01*
X0293137Y0007167D02*
X0293137Y0009002D01*
X0292219Y0009920D01*
X0289467Y0009920D01*
X0289467Y0011755D02*
X0289467Y0006250D01*
X0292219Y0006250D01*
X0293137Y0007167D01*
X0287612Y0007167D02*
X0287612Y0009002D01*
X0286694Y0009920D01*
X0284859Y0009920D01*
X0283942Y0009002D01*
X0283942Y0008085D01*
X0287612Y0008085D01*
X0287612Y0007167D02*
X0286694Y0006250D01*
X0284859Y0006250D01*
X0295902Y0011755D02*
X0295902Y0012672D01*
X0286704Y0017085D02*
X0286704Y0018002D01*
X0293140Y0020755D02*
X0293140Y0021672D01*
X0296826Y0024250D02*
X0298661Y0022415D01*
X0297744Y0024250D02*
X0296826Y0024250D01*
X0296826Y0025167D01*
X0297744Y0025167D01*
X0297744Y0024250D01*
X0300516Y0024250D02*
X0300516Y0029755D01*
X0304186Y0029755D02*
X0304186Y0024250D01*
X0306041Y0025167D02*
X0306041Y0029755D01*
X0309711Y0029755D02*
X0309711Y0025167D01*
X0308793Y0024250D01*
X0306958Y0024250D01*
X0306041Y0025167D01*
X0304186Y0027002D02*
X0300516Y0027002D01*
X0289453Y0025167D02*
X0288536Y0024250D01*
X0287619Y0024250D01*
X0286701Y0025167D01*
X0286701Y0029755D01*
X0285784Y0029755D02*
X0287619Y0029755D01*
X0283929Y0029755D02*
X0280259Y0029755D01*
X0282094Y0029755D02*
X0282094Y0024250D01*
X0322605Y0020755D02*
X0323522Y0020755D01*
X0337341Y0024250D02*
X0339176Y0022415D01*
X0338258Y0024250D02*
X0337341Y0024250D01*
X0337341Y0025167D01*
X0338258Y0025167D01*
X0338258Y0024250D01*
X0341031Y0024250D02*
X0341031Y0029755D01*
X0344701Y0029755D02*
X0344701Y0024250D01*
X0346555Y0024250D02*
X0346555Y0029755D01*
X0350225Y0029755D02*
X0350225Y0024250D01*
X0352080Y0024250D02*
X0355750Y0024250D01*
X0355750Y0029755D01*
X0350225Y0027002D02*
X0346555Y0027002D01*
X0344701Y0027002D02*
X0341031Y0027002D01*
D11*
X0392500Y0036000D02*
X0399500Y0036000D01*
X0399500Y0046000D02*
X0392500Y0046000D01*
X0392500Y0056000D02*
X0399500Y0056000D01*
X0354500Y0086000D02*
X0347500Y0086000D01*
X0351000Y0086000D02*
X0311000Y0086000D01*
X0331000Y0096000D02*
X0351000Y0096000D01*
X0347500Y0096000D02*
X0354500Y0096000D01*
X0354500Y0106000D02*
X0347500Y0106000D01*
X0311000Y0117500D02*
X0311000Y0124500D01*
X0301000Y0124500D02*
X0301000Y0117500D01*
X0301000Y0137500D02*
X0301000Y0144500D01*
X0311000Y0144500D02*
X0311000Y0137500D01*
X0159500Y0136000D02*
X0152500Y0136000D01*
X0152500Y0126000D02*
X0159500Y0126000D01*
X0159500Y0116000D02*
X0152500Y0116000D01*
X0152500Y0106000D02*
X0159500Y0106000D01*
X0159500Y0096000D02*
X0152500Y0096000D01*
X0152500Y0086000D02*
X0159500Y0086000D01*
X0159500Y0076000D02*
X0152500Y0076000D01*
X0129500Y0076000D02*
X0122500Y0076000D01*
X0122500Y0086000D02*
X0129500Y0086000D01*
X0129500Y0096000D02*
X0122500Y0096000D01*
X0104500Y0096000D02*
X0097500Y0096000D01*
X0097500Y0106000D02*
X0104500Y0106000D01*
X0122500Y0106000D02*
X0129500Y0106000D01*
X0129500Y0116000D02*
X0122500Y0116000D01*
X0122500Y0126000D02*
X0129500Y0126000D01*
X0129500Y0136000D02*
X0122500Y0136000D01*
X0122500Y0066000D02*
X0129500Y0066000D01*
X0129500Y0056000D02*
X0122500Y0056000D01*
X0152500Y0056000D02*
X0159500Y0056000D01*
X0159500Y0066000D02*
X0152500Y0066000D01*
D12*
X0191000Y0066000D03*
X0211000Y0066000D03*
X0251000Y0066000D03*
X0286000Y0066000D03*
X0326000Y0066000D03*
X0286000Y0086000D03*
X0251000Y0083500D03*
X0251000Y0101000D03*
X0211000Y0101000D03*
X0191000Y0101000D03*
X0191000Y0083500D03*
X0211000Y0083500D03*
X0211000Y0046000D03*
X0191000Y0046000D03*
X0191000Y0031000D03*
X0211000Y0031000D03*
X0251000Y0031000D03*
X0251000Y0046000D03*
X0326000Y0101000D03*
X0256000Y0156000D03*
X0216000Y0156000D03*
X0196000Y0171000D03*
X0166000Y0171000D03*
X0156000Y0156000D03*
X0126000Y0171000D03*
X0101000Y0156000D03*
X0071000Y0156000D03*
X0051000Y0156000D03*
X0011000Y0156000D03*
X0011000Y0136000D03*
X0051000Y0136000D03*
X0071000Y0136000D03*
X0071000Y0116000D03*
X0051000Y0116000D03*
X0051000Y0098500D03*
X0071000Y0098500D03*
X0011000Y0098500D03*
X0011000Y0116000D03*
X0011000Y0071000D03*
X0051000Y0071000D03*
X0071000Y0071000D03*
X0071000Y0051000D03*
X0051000Y0051000D03*
X0011000Y0051000D03*
X0331000Y0171000D03*
D13*
X0281000Y0141000D02*
X0271000Y0141000D01*
X0271000Y0121000D02*
X0281000Y0121000D01*
D14*
X0276000Y0121000D02*
X0196000Y0121000D01*
X0176000Y0106000D01*
X0156000Y0106000D01*
X0156000Y0116000D02*
X0171000Y0116000D01*
X0191000Y0136000D01*
X0256000Y0136000D01*
X0276000Y0141000D01*
X0301000Y0141000D01*
X0311000Y0141000D02*
X0311000Y0121000D01*
X0311000Y0086000D01*
X0326000Y0101000D02*
X0331000Y0096000D01*
X0351000Y0106000D02*
X0351000Y0156000D01*
X0256000Y0156000D01*
X0216000Y0156000D02*
X0216000Y0146000D01*
X0186000Y0146000D01*
X0166000Y0126000D01*
X0156000Y0136000D02*
X0156000Y0156000D01*
X0126000Y0146000D02*
X0126000Y0171000D01*
X0143500Y0171000D02*
X0143500Y0096000D01*
X0156000Y0096000D01*
X0171000Y0086000D02*
X0191000Y0101000D01*
X0191000Y0083500D02*
X0211000Y0083500D01*
X0191000Y0083500D02*
X0176000Y0076000D01*
X0191000Y0066000D02*
X0156000Y0066000D01*
X0156000Y0056000D02*
X0166000Y0046000D01*
X0191000Y0046000D01*
X0211000Y0046000D01*
X0211000Y0031000D02*
X0191000Y0031000D01*
X0126000Y0031000D01*
X0126000Y0056000D01*
X0126000Y0066000D02*
X0086000Y0056000D01*
X0071000Y0051000D01*
X0051000Y0051000D01*
X0051000Y0071000D02*
X0071000Y0071000D01*
X0126000Y0076000D01*
X0126000Y0086000D02*
X0111000Y0086000D01*
X0101000Y0096000D02*
X0093500Y0084750D01*
X0101000Y0096000D02*
X0126000Y0096000D01*
X0126000Y0106000D02*
X0101000Y0106000D01*
X0091000Y0116000D02*
X0126000Y0116000D01*
X0126000Y0126000D02*
X0081000Y0126000D01*
X0071000Y0116000D01*
X0051000Y0116000D01*
X0051000Y0098500D02*
X0071000Y0098500D01*
X0091000Y0116000D01*
X0071000Y0136000D02*
X0051000Y0136000D01*
X0071000Y0136000D02*
X0126000Y0136000D01*
X0101000Y0156000D02*
X0071000Y0156000D01*
X0051000Y0156000D01*
X0251000Y0086000D02*
X0251000Y0083500D01*
X0211000Y0066000D02*
X0191000Y0066000D01*
X0251000Y0046000D02*
X0396000Y0046000D01*
X0396000Y0036000D02*
X0266000Y0036000D01*
X0266000Y0011000D01*
X0111000Y0011000D01*
X0051000Y0021000D02*
X0251000Y0021000D01*
X0251000Y0031000D01*
X0276000Y0121000D02*
X0301000Y0121000D01*
D15*
X0051000Y0021000D02*
X0011000Y0051000D01*
X0011000Y0071000D01*
X0011000Y0084750D01*
X0093500Y0084750D01*
X0011000Y0084750D02*
X0011000Y0098500D01*
X0011000Y0116000D01*
X0011000Y0136000D01*
X0011000Y0156000D01*
X0143500Y0171000D02*
X0166000Y0171000D01*
X0196000Y0171000D01*
X0331000Y0171000D01*
X0376000Y0171000D01*
X0376000Y0066000D01*
X0326000Y0066000D01*
X0286000Y0066000D01*
X0251000Y0066000D02*
X0251000Y0046000D01*
X0251000Y0031000D01*
X0251000Y0066000D02*
X0251000Y0083500D01*
X0251000Y0086000D02*
X0286000Y0086000D01*
X0311000Y0086000D01*
X0251000Y0086000D02*
X0251000Y0101000D01*
X0376000Y0066000D02*
X0396000Y0066000D01*
X0396000Y0056000D01*
D16*
X0136594Y0106000D02*
X0126000Y0106000D01*
X0136594Y0106000D02*
X0136594Y0146000D01*
X0126000Y0146000D01*
D17*
X0156000Y0126000D02*
X0166000Y0126000D01*
X0191000Y0101000D02*
X0211000Y0101000D01*
X0171000Y0086000D02*
X0156000Y0086000D01*
X0156000Y0076000D02*
X0176000Y0076000D01*
D18*
X0111000Y0086000D03*
X0111000Y0011000D03*
M02*
