G75*
%MOIN*%
%OFA0B0*%
%FSLAX25Y25*%
%IPPOS*%
%LPD*%
%AMOC8*
5,1,8,0,0,1.08239X$1,22.5*
%
%ADD10C,0.00400*%
%ADD11C,0.07000*%
%ADD12OC8,0.08600*%
%ADD13C,0.10000*%
%ADD14OC8,0.07000*%
%ADD15C,0.08600*%
%ADD16C,0.15000*%
%ADD17C,0.07600*%
%ADD18C,0.05600*%
%ADD19C,0.06600*%
%ADD20C,0.03150*%
%ADD21OC8,0.06600*%
%ADD22OC8,0.05600*%
%ADD23C,0.05000*%
%ADD24C,0.04000*%
%ADD25C,0.03937*%
%ADD26C,0.03200*%
%ADD27C,0.08600*%
D10*
X0009130Y0014950D02*
X0009130Y0019554D01*
X0009130Y0017252D02*
X0012199Y0017252D01*
X0013734Y0015717D02*
X0013734Y0019554D01*
X0012199Y0019554D02*
X0012199Y0014950D01*
X0013734Y0015717D02*
X0014501Y0014950D01*
X0016036Y0014950D01*
X0016803Y0015717D01*
X0016803Y0019554D01*
X0022941Y0015717D02*
X0023709Y0015717D01*
X0023709Y0014950D01*
X0022941Y0014950D01*
X0022941Y0015717D01*
X0022941Y0014950D02*
X0024476Y0013415D01*
X0027545Y0014950D02*
X0027545Y0019554D01*
X0026011Y0019554D02*
X0029080Y0019554D01*
X0030615Y0019554D02*
X0032149Y0019554D01*
X0031382Y0019554D02*
X0031382Y0015717D01*
X0032149Y0014950D01*
X0032917Y0014950D01*
X0033684Y0015717D01*
X0034451Y0012054D02*
X0035986Y0012054D01*
X0036753Y0011287D01*
X0036753Y0008217D01*
X0035986Y0007450D01*
X0034451Y0007450D01*
X0033684Y0008217D01*
X0032149Y0007450D02*
X0029847Y0007450D01*
X0029080Y0008217D01*
X0029080Y0008985D01*
X0029847Y0009752D01*
X0032149Y0009752D01*
X0033684Y0011287D02*
X0034451Y0012054D01*
X0032149Y0012054D02*
X0029847Y0012054D01*
X0029080Y0011287D01*
X0029080Y0010519D01*
X0029847Y0009752D01*
X0032149Y0007450D02*
X0032149Y0012054D01*
X0038288Y0011287D02*
X0038288Y0009752D01*
X0039055Y0008985D01*
X0041357Y0008985D01*
X0041357Y0007450D02*
X0041357Y0012054D01*
X0039055Y0012054D01*
X0038288Y0011287D01*
X0041357Y0013415D02*
X0039823Y0014950D01*
X0040590Y0014950D01*
X0040590Y0015717D01*
X0039823Y0015717D01*
X0039823Y0014950D01*
X0042892Y0014950D02*
X0042892Y0019554D01*
X0044426Y0016485D02*
X0042892Y0014950D01*
X0044426Y0016485D02*
X0045961Y0014950D01*
X0045961Y0019554D01*
X0047496Y0019554D02*
X0047496Y0016485D01*
X0049030Y0014950D01*
X0050565Y0016485D01*
X0050565Y0019554D01*
X0056704Y0015717D02*
X0057471Y0015717D01*
X0057471Y0014950D01*
X0056704Y0014950D01*
X0056704Y0015717D01*
X0056704Y0014950D02*
X0058238Y0013415D01*
X0059773Y0014950D02*
X0059773Y0019554D01*
X0059773Y0017252D02*
X0062842Y0017252D01*
X0064377Y0017252D02*
X0067446Y0017252D01*
X0067446Y0014950D02*
X0067446Y0019554D01*
X0064377Y0019554D02*
X0064377Y0014950D01*
X0062842Y0014950D02*
X0062842Y0019554D01*
X0068981Y0014950D02*
X0072050Y0014950D01*
X0072050Y0019554D01*
X0072050Y0012054D02*
X0069748Y0012054D01*
X0068981Y0011287D01*
X0068981Y0009752D01*
X0069748Y0008985D01*
X0072050Y0008985D01*
X0070515Y0008985D02*
X0068981Y0007450D01*
X0067446Y0008217D02*
X0067446Y0009752D01*
X0066679Y0010519D01*
X0065144Y0010519D01*
X0064377Y0009752D01*
X0064377Y0008985D01*
X0067446Y0008985D01*
X0067446Y0008217D02*
X0066679Y0007450D01*
X0065144Y0007450D01*
X0062842Y0007450D02*
X0062842Y0010519D01*
X0062075Y0010519D01*
X0061308Y0009752D01*
X0060540Y0010519D01*
X0059773Y0009752D01*
X0059773Y0007450D01*
X0061308Y0007450D02*
X0061308Y0009752D01*
X0058238Y0009752D02*
X0058238Y0008217D01*
X0057471Y0007450D01*
X0055936Y0007450D01*
X0055169Y0008217D01*
X0055169Y0009752D01*
X0055936Y0010519D01*
X0057471Y0010519D01*
X0058238Y0009752D01*
X0053634Y0010519D02*
X0052100Y0010519D01*
X0052867Y0011287D02*
X0052867Y0008217D01*
X0052100Y0007450D01*
X0050565Y0008217D02*
X0050565Y0009752D01*
X0049798Y0010519D01*
X0048263Y0010519D01*
X0047496Y0009752D01*
X0047496Y0008985D01*
X0050565Y0008985D01*
X0050565Y0008217D02*
X0049798Y0007450D01*
X0048263Y0007450D01*
X0072050Y0007450D02*
X0072050Y0012054D01*
D11*
X0086000Y0031000D02*
X0061000Y0066000D01*
X0063500Y0093500D01*
X0056000Y0108500D02*
X0056000Y0111000D01*
X0046000Y0121000D01*
X0046000Y0137250D01*
X0046000Y0121000D02*
X0041000Y0121000D01*
X0081000Y0121000D02*
X0086000Y0116000D01*
X0098500Y0131000D01*
X0086000Y0116000D02*
X0091000Y0111000D01*
X0116000Y0121000D02*
X0121000Y0121000D01*
X0119500Y0156000D02*
X0112500Y0156000D01*
X0112500Y0166000D02*
X0119500Y0166000D01*
X0119500Y0176000D02*
X0112500Y0176000D01*
X0112500Y0186000D02*
X0119500Y0186000D01*
X0119500Y0196000D02*
X0112500Y0196000D01*
X0112500Y0206000D02*
X0119500Y0206000D01*
X0119500Y0216000D02*
X0112500Y0216000D01*
X0112500Y0226000D02*
X0119500Y0226000D01*
X0119500Y0236000D02*
X0112500Y0236000D01*
X0089500Y0236000D02*
X0082500Y0236000D01*
X0082500Y0226000D02*
X0089500Y0226000D01*
X0089500Y0216000D02*
X0082500Y0216000D01*
X0082500Y0206000D02*
X0089500Y0206000D01*
X0089500Y0196000D02*
X0082500Y0196000D01*
X0082500Y0186000D02*
X0089500Y0186000D01*
X0089500Y0176000D02*
X0082500Y0176000D01*
X0082500Y0166000D02*
X0089500Y0166000D01*
X0089500Y0156000D02*
X0082500Y0156000D01*
X0147500Y0081000D02*
X0154500Y0081000D01*
X0154500Y0071000D02*
X0147500Y0071000D01*
X0147500Y0061000D02*
X0154500Y0061000D01*
X0154500Y0051000D02*
X0147500Y0051000D01*
X0147500Y0041000D02*
X0154500Y0041000D01*
X0154500Y0031000D02*
X0147500Y0031000D01*
X0147500Y0021000D02*
X0154500Y0021000D01*
X0134500Y0041000D02*
X0127500Y0041000D01*
X0127500Y0051000D02*
X0134500Y0051000D01*
X0134500Y0061000D02*
X0127500Y0061000D01*
X0093500Y0031000D02*
X0086000Y0031000D01*
X0177500Y0031000D02*
X0184500Y0031000D01*
X0184500Y0021000D02*
X0177500Y0021000D01*
X0177500Y0041000D02*
X0184500Y0041000D01*
X0184500Y0051000D02*
X0177500Y0051000D01*
X0177500Y0061000D02*
X0184500Y0061000D01*
X0184500Y0071000D02*
X0177500Y0071000D01*
X0177500Y0081000D02*
X0184500Y0081000D01*
X0186000Y0186000D02*
X0186000Y0226000D01*
X0191000Y0231000D01*
X0191000Y0251000D01*
D12*
X0191000Y0251000D03*
X0171000Y0251000D03*
X0156000Y0251000D03*
X0141000Y0251000D03*
X0126000Y0251000D03*
X0103500Y0251000D03*
X0091000Y0251000D03*
X0071000Y0251000D03*
X0056000Y0251000D03*
X0041000Y0251000D03*
X0041000Y0236000D03*
X0026000Y0251000D03*
X0011000Y0251000D03*
X0011000Y0206000D03*
X0031000Y0206000D03*
X0021000Y0178500D03*
X0033500Y0176000D03*
X0033500Y0156000D03*
X0021000Y0138500D03*
X0041000Y0121000D03*
X0056000Y0108500D03*
X0041000Y0101000D03*
X0021000Y0101000D03*
X0011000Y0071000D03*
X0071000Y0101000D03*
X0081000Y0101000D03*
X0081000Y0121000D03*
X0098500Y0131000D03*
X0121000Y0121000D03*
X0133500Y0136000D03*
X0151000Y0136000D03*
X0161000Y0121000D03*
X0161000Y0101000D03*
X0151000Y0096000D03*
X0133500Y0096000D03*
X0133500Y0083500D03*
X0121000Y0101000D03*
X0113500Y0083500D03*
X0098500Y0091000D03*
X0056000Y0148500D03*
X0146000Y0186000D03*
X0151000Y0206000D03*
X0151000Y0226000D03*
X0186000Y0186000D03*
X0191000Y0151000D03*
X0191000Y0136000D03*
X0191000Y0096000D03*
D13*
X0056000Y0176000D02*
X0046000Y0176000D01*
X0046000Y0196000D02*
X0056000Y0196000D01*
D14*
X0031000Y0226000D03*
X0021000Y0226000D03*
X0011000Y0226000D03*
D15*
X0166000Y0226000D03*
X0176000Y0216000D03*
X0186000Y0226000D03*
D16*
X0046000Y0092250D02*
X0041000Y0096000D01*
X0041000Y0101000D02*
X0021000Y0101000D01*
X0011000Y0071000D02*
X0011000Y0056000D01*
X0021000Y0046000D01*
X0013776Y0046000D02*
X0028776Y0046000D01*
X0092516Y0046000D02*
X0107516Y0046000D01*
D17*
X0101000Y0046000D02*
X0100016Y0046000D01*
X0101000Y0046000D02*
X0126000Y0021000D01*
X0151000Y0021000D01*
X0113500Y0083500D02*
X0101000Y0083500D01*
X0101000Y0091000D01*
X0100016Y0091000D01*
X0099750Y0091000D01*
X0099750Y0116000D01*
X0111000Y0132250D02*
X0111000Y0136000D01*
X0101000Y0146000D01*
X0101000Y0196000D01*
X0119750Y0141000D02*
X0111000Y0132250D01*
X0119750Y0141000D02*
X0121000Y0141000D01*
X0126000Y0136000D01*
X0133500Y0136000D01*
X0151000Y0136000D01*
X0156000Y0104750D02*
X0161000Y0101000D01*
X0191000Y0136000D02*
X0191000Y0151000D01*
X0182250Y0159750D02*
X0181000Y0171000D01*
X0186000Y0186000D01*
X0081000Y0101000D02*
X0071000Y0101000D01*
X0071000Y0107250D01*
X0041000Y0101000D02*
X0041000Y0096000D01*
X0033500Y0148500D02*
X0056000Y0148500D01*
X0033500Y0148500D02*
X0033500Y0156000D01*
X0011000Y0156000D01*
X0011000Y0206000D01*
X0011000Y0226000D01*
X0011000Y0251000D01*
X0026000Y0251000D01*
D18*
X0021000Y0226000D02*
X0021000Y0178500D01*
X0031000Y0206000D02*
X0041000Y0206000D01*
X0051000Y0196000D01*
X0061000Y0186000D01*
X0086000Y0186000D01*
X0086000Y0166000D02*
X0063500Y0163500D01*
X0113500Y0109750D02*
X0116000Y0111000D01*
X0113500Y0101000D02*
X0121000Y0101000D01*
X0126000Y0101000D01*
X0131000Y0104750D01*
X0142250Y0104750D01*
X0142250Y0089750D01*
X0151000Y0096000D02*
X0156000Y0091000D01*
X0161000Y0091000D01*
X0172250Y0096000D01*
X0173500Y0121000D01*
X0161000Y0121000D01*
X0161000Y0132250D02*
X0161000Y0146000D01*
X0141000Y0166000D01*
X0116000Y0166000D01*
X0116000Y0156000D02*
X0142250Y0151000D01*
X0146000Y0176000D02*
X0116000Y0176000D01*
X0116000Y0186000D02*
X0146000Y0186000D01*
X0151000Y0206000D01*
X0151000Y0226000D02*
X0166000Y0226000D01*
X0176000Y0216000D02*
X0176000Y0246000D01*
X0171000Y0251000D01*
X0116000Y0236000D02*
X0101000Y0251000D01*
X0091000Y0251000D02*
X0086000Y0246000D01*
X0086000Y0236000D01*
X0146000Y0176000D02*
X0171000Y0157250D01*
X0173500Y0121000D01*
X0156000Y0104750D02*
X0142250Y0104750D01*
X0146000Y0121000D02*
X0121000Y0121000D01*
X0146000Y0061000D02*
X0136000Y0051000D01*
X0146000Y0041000D01*
X0181000Y0051000D02*
X0194750Y0051000D01*
X0194750Y0004750D01*
X0182250Y0086000D02*
X0182250Y0159750D01*
D19*
X0191000Y0096000D02*
X0182250Y0086000D01*
X0176000Y0081000D01*
X0151000Y0081000D01*
X0142250Y0089750D01*
X0133500Y0083500D02*
X0131000Y0081000D01*
X0131000Y0071000D01*
X0151000Y0071000D01*
X0156000Y0051000D02*
X0176000Y0071000D01*
X0181000Y0071000D02*
X0181000Y0061000D01*
X0136000Y0051000D02*
X0131000Y0051000D01*
X0131000Y0061000D02*
X0131000Y0071000D01*
X0093500Y0031000D02*
X0113500Y0014750D01*
X0106000Y0006000D02*
X0071000Y0026000D01*
X0032250Y0082250D01*
X0007250Y0088500D01*
X0007250Y0138500D01*
X0021000Y0138500D01*
X0033500Y0176000D02*
X0051000Y0176000D01*
X0086000Y0176000D01*
X0086000Y0196000D02*
X0071000Y0196000D01*
X0081000Y0206000D02*
X0059750Y0212250D01*
X0054750Y0217250D01*
X0054750Y0229750D01*
X0046000Y0246000D02*
X0041000Y0251000D01*
X0041000Y0236000D02*
X0031000Y0226000D01*
X0081000Y0206000D02*
X0086000Y0206000D01*
X0101000Y0196000D02*
X0111000Y0196000D01*
X0101000Y0146000D02*
X0056000Y0146000D01*
X0081000Y0101000D02*
X0091000Y0101000D01*
D20*
X0089750Y0109750D02*
X0091000Y0111000D01*
X0098500Y0091000D02*
X0101000Y0091000D01*
X0056000Y0146000D02*
X0056000Y0148500D01*
X0081000Y0196000D02*
X0086000Y0196000D01*
X0111000Y0196000D02*
X0116000Y0196000D01*
X0176000Y0081000D02*
X0181000Y0081000D01*
X0181000Y0071000D02*
X0176000Y0071000D01*
D21*
X0142250Y0113500D03*
X0113500Y0109750D03*
X0089750Y0109750D03*
X0063500Y0093500D03*
X0046000Y0137250D03*
X0046000Y0158500D03*
X0063500Y0163500D03*
X0071000Y0196000D03*
X0142250Y0151000D03*
D22*
X0113500Y0101000D03*
X0091000Y0101000D03*
D23*
X0109750Y0094750D02*
X0114750Y0092250D01*
X0124750Y0092250D01*
X0133500Y0096000D01*
X0071000Y0107250D02*
X0046000Y0092250D01*
D24*
X0059750Y0156000D02*
X0057250Y0158500D01*
X0046000Y0158500D01*
X0059750Y0156000D02*
X0086000Y0156000D01*
X0111000Y0132250D02*
X0103500Y0124750D01*
X0098500Y0117250D01*
X0099750Y0116000D01*
X0116000Y0111000D02*
X0142250Y0113500D01*
X0146000Y0121000D02*
X0161000Y0132250D01*
X0161000Y0031000D02*
X0151000Y0031000D01*
X0161000Y0031000D02*
X0161000Y0012250D01*
X0116000Y0012250D01*
X0113500Y0014750D01*
X0114750Y0012250D02*
X0116000Y0012250D01*
X0106000Y0006000D02*
X0106000Y0004750D01*
X0194750Y0004750D01*
D25*
X0156000Y0051000D02*
X0151000Y0051000D01*
X0151000Y0041000D02*
X0146000Y0041000D01*
X0146000Y0061000D02*
X0151000Y0061000D01*
X0133500Y0096000D02*
X0131000Y0096000D01*
X0116000Y0176000D02*
X0111000Y0176000D01*
X0116000Y0196000D02*
X0121000Y0196000D01*
X0151000Y0226000D01*
X0142250Y0227250D02*
X0142250Y0237250D01*
X0156000Y0251000D01*
X0141000Y0251000D02*
X0136000Y0246000D01*
X0136000Y0231000D01*
X0121000Y0216000D01*
X0116000Y0216000D01*
X0116000Y0206000D02*
X0121000Y0206000D01*
X0142250Y0227250D01*
X0126000Y0231000D02*
X0126000Y0251000D01*
X0126000Y0231000D02*
X0121000Y0226000D01*
X0116000Y0226000D01*
X0103500Y0251000D02*
X0101000Y0251000D01*
X0086000Y0226000D02*
X0081000Y0226000D01*
X0071000Y0236000D01*
X0071000Y0251000D01*
X0056000Y0251000D02*
X0056000Y0241000D01*
X0081000Y0216000D01*
X0086000Y0216000D01*
X0054750Y0229750D02*
X0046000Y0246000D01*
X0021276Y0046000D02*
X0021000Y0046000D01*
D26*
X0108500Y0096000D02*
X0107250Y0098500D01*
X0107250Y0112250D01*
X0107253Y0112461D01*
X0107260Y0112673D01*
X0107273Y0112884D01*
X0107291Y0113094D01*
X0107314Y0113305D01*
X0107342Y0113514D01*
X0107375Y0113723D01*
X0107413Y0113931D01*
X0107456Y0114138D01*
X0107504Y0114344D01*
X0107557Y0114549D01*
X0107615Y0114752D01*
X0107678Y0114954D01*
X0107746Y0115154D01*
X0107819Y0115353D01*
X0107896Y0115550D01*
X0107978Y0115744D01*
X0108065Y0115937D01*
X0108156Y0116128D01*
X0108252Y0116316D01*
X0108353Y0116502D01*
X0108458Y0116686D01*
X0108567Y0116867D01*
X0108681Y0117045D01*
X0108799Y0117221D01*
X0108921Y0117393D01*
X0109047Y0117563D01*
X0109178Y0117729D01*
X0109312Y0117892D01*
X0109451Y0118052D01*
X0109593Y0118209D01*
X0109739Y0118362D01*
X0109888Y0118511D01*
X0110041Y0118657D01*
X0110198Y0118799D01*
X0110358Y0118938D01*
X0110521Y0119072D01*
X0110687Y0119203D01*
X0110857Y0119329D01*
X0111029Y0119451D01*
X0111205Y0119569D01*
X0111383Y0119683D01*
X0111564Y0119792D01*
X0111748Y0119897D01*
X0111934Y0119998D01*
X0112122Y0120094D01*
X0112313Y0120185D01*
X0112506Y0120272D01*
X0112700Y0120354D01*
X0112897Y0120431D01*
X0113096Y0120504D01*
X0113296Y0120572D01*
X0113498Y0120635D01*
X0113701Y0120693D01*
X0113906Y0120746D01*
X0114112Y0120794D01*
X0114319Y0120837D01*
X0114527Y0120875D01*
X0114736Y0120908D01*
X0114945Y0120936D01*
X0115156Y0120959D01*
X0115366Y0120977D01*
X0115577Y0120990D01*
X0115789Y0120997D01*
X0116000Y0121000D01*
X0108500Y0096000D02*
X0109750Y0094750D01*
D27*
X0100016Y0091000D02*
X0100016Y0046000D01*
M02*
