G75*
%MOIN*%
%OFA0B0*%
%FSLAX24Y24*%
%IPPOS*%
%LPD*%
%AMOC8*
5,1,8,0,0,1.08239X$1,22.5*
%
%ADD10R,0.0600X0.0600*%
%ADD11C,0.0600*%
%ADD12C,0.0660*%
%ADD13R,0.0660X0.0660*%
%ADD14C,0.0100*%
%ADD15C,0.0400*%
%ADD16C,0.0120*%
D10*
X003295Y003269D03*
X008000Y015600D03*
D11*
X008290Y004270D03*
X007290Y004270D03*
X006290Y004270D03*
X005290Y004270D03*
X004290Y004270D03*
X003290Y004270D03*
X004290Y003270D03*
X005290Y003270D03*
X006290Y003270D03*
X007290Y003270D03*
X008290Y003270D03*
X009290Y003270D03*
X010290Y003270D03*
X011290Y003270D03*
X012290Y003270D03*
X013290Y003270D03*
X014290Y003270D03*
X015290Y003270D03*
X016290Y003270D03*
X017290Y003270D03*
X018290Y003270D03*
X019290Y003270D03*
X020290Y003270D03*
X021290Y003270D03*
X022290Y003270D03*
X022290Y004270D03*
X021290Y004270D03*
X020290Y004270D03*
X019290Y004270D03*
X018290Y004270D03*
X017290Y004270D03*
X016290Y004270D03*
X015290Y004270D03*
X014290Y004270D03*
X013290Y004270D03*
X012290Y004270D03*
X011290Y004270D03*
X010290Y004270D03*
X009290Y004270D03*
D12*
X008000Y008600D03*
X008000Y009600D03*
X008000Y010600D03*
X008000Y011600D03*
X008000Y012600D03*
X008000Y013600D03*
X008000Y014600D03*
X017000Y014600D03*
X017000Y013600D03*
X017000Y012600D03*
X017000Y011600D03*
X017000Y010600D03*
X017000Y009600D03*
X017000Y008600D03*
D13*
X017000Y015600D03*
D14*
X018500Y014100D01*
X017500Y013600D02*
X017000Y013600D01*
X017500Y013600D02*
X020000Y011100D01*
X019500Y011100D02*
X018000Y012600D01*
X017000Y012600D01*
X017000Y011600D02*
X017500Y011600D01*
X018000Y011100D01*
X017000Y010600D02*
X020500Y010600D01*
X020500Y013100D01*
X017000Y016600D01*
X006500Y016600D01*
X006000Y016100D01*
X005000Y015600D02*
X008000Y015600D01*
X008000Y012600D02*
X005500Y012600D01*
X005500Y008600D01*
X003500Y006600D01*
X001500Y006600D01*
X001000Y006100D01*
X001000Y003100D01*
X002500Y001600D01*
X013000Y001600D01*
X012500Y002100D02*
X002500Y002100D01*
X001500Y003100D01*
X001500Y006100D01*
X003500Y006100D01*
X006000Y008600D01*
X006000Y011600D01*
X008000Y011600D01*
X008000Y010600D02*
X006500Y010600D01*
X006500Y009100D01*
X008000Y007600D01*
X018500Y007600D01*
X019000Y007100D01*
X019500Y006600D02*
X009000Y006600D01*
X008000Y005600D01*
X008500Y005600D02*
X013000Y005600D01*
X011500Y005100D02*
X016500Y005100D01*
X018500Y005100D01*
X019500Y004100D01*
X019290Y004270D01*
X019000Y005100D02*
X022500Y005100D01*
X023000Y004600D01*
X023000Y002600D01*
X022500Y003100D02*
X022290Y003270D01*
X022500Y003100D02*
X022000Y002600D01*
X016000Y002600D01*
X015500Y003100D01*
X015290Y003270D01*
X017290Y004270D02*
X017500Y004100D01*
X016500Y005100D01*
X017000Y005600D02*
X018500Y005600D01*
X019500Y006100D02*
X009500Y006100D01*
X008500Y005100D02*
X011500Y005100D01*
X012500Y004100D01*
X012290Y004270D01*
X011500Y003100D02*
X011290Y003270D01*
X011500Y003100D02*
X011000Y002600D01*
X004000Y002600D01*
X003500Y003100D01*
X003295Y003269D01*
X003000Y003100D01*
X002000Y003100D01*
X002000Y004100D01*
X006500Y008600D01*
X007000Y009100D02*
X007500Y009100D01*
X008000Y009600D01*
X006000Y007600D02*
X002500Y004100D01*
X005290Y004270D02*
X005500Y004100D01*
X006500Y005100D01*
X008500Y005100D01*
X009500Y004100D01*
X009290Y004270D01*
X006500Y001100D02*
X003000Y001100D01*
X017000Y009600D02*
X017500Y010100D01*
X019000Y010100D01*
X018000Y009600D02*
X021000Y006600D01*
X024000Y006600D01*
X024000Y003100D01*
X022500Y001600D01*
X021500Y001600D01*
X021000Y001100D01*
X021500Y001100D02*
X023000Y001100D01*
X022000Y002100D02*
X019500Y002100D01*
X022000Y006100D02*
X023500Y004600D01*
X022000Y006100D02*
X020500Y006100D01*
X019500Y012100D02*
X017000Y014600D01*
D15*
X018500Y014100D03*
X019500Y012100D03*
X019500Y011100D03*
X020000Y011100D03*
X019000Y010100D03*
X018000Y009600D03*
X018000Y011100D03*
X019000Y007100D03*
X019500Y006600D03*
X019500Y006100D03*
X020500Y006100D03*
X019000Y005100D03*
X018500Y005600D03*
X017000Y005600D03*
X013000Y005600D03*
X009500Y006100D03*
X008500Y005600D03*
X008000Y005600D03*
X006000Y007600D03*
X006500Y008600D03*
X007000Y009100D03*
X002500Y004100D03*
X003000Y001100D03*
X006500Y001100D03*
X012500Y002100D03*
X013000Y001600D03*
X019500Y002100D03*
X021000Y001100D03*
X021500Y001100D03*
X022000Y002100D03*
X023000Y002600D03*
X023000Y001100D03*
X023500Y004600D03*
X006000Y016100D03*
X005000Y015600D03*
D16*
X000960Y002871D02*
X000960Y000560D01*
X024540Y000560D01*
X024540Y006100D01*
X024535Y006170D01*
X024499Y006307D01*
X024428Y006429D01*
X024329Y006528D01*
X024207Y006599D01*
X024190Y006603D01*
X024190Y003021D01*
X024079Y002910D01*
X022579Y001410D01*
X021640Y001410D01*
X021693Y001388D01*
X021788Y001293D01*
X021789Y001290D01*
X022711Y001290D01*
X022712Y001293D01*
X022807Y001388D01*
X022932Y001440D01*
X023068Y001440D01*
X023193Y001388D01*
X023288Y001293D01*
X023340Y001168D01*
X023340Y001032D01*
X023288Y000907D01*
X023193Y000812D01*
X023068Y000760D01*
X022932Y000760D01*
X022807Y000812D01*
X022712Y000907D01*
X022711Y000910D01*
X021789Y000910D01*
X021788Y000907D01*
X021693Y000812D01*
X021568Y000760D01*
X021432Y000760D01*
X021307Y000812D01*
X021250Y000869D01*
X021193Y000812D01*
X021068Y000760D01*
X020932Y000760D01*
X020807Y000812D01*
X020712Y000907D01*
X020660Y001032D01*
X020660Y001168D01*
X020712Y001293D01*
X020807Y001388D01*
X020932Y001440D01*
X021068Y001440D01*
X021070Y001439D01*
X021310Y001679D01*
X021310Y001679D01*
X021421Y001790D01*
X021860Y001790D01*
X021807Y001812D01*
X021712Y001907D01*
X021711Y001910D01*
X019789Y001910D01*
X019788Y001907D01*
X019693Y001812D01*
X019568Y001760D01*
X019432Y001760D01*
X019307Y001812D01*
X019212Y001907D01*
X019160Y002032D01*
X019160Y002168D01*
X019212Y002293D01*
X019307Y002388D01*
X019432Y002440D01*
X019568Y002440D01*
X019693Y002388D01*
X019788Y002293D01*
X019789Y002290D01*
X021711Y002290D01*
X021712Y002293D01*
X021807Y002388D01*
X021932Y002440D01*
X022068Y002440D01*
X022193Y002388D01*
X022288Y002293D01*
X022340Y002168D01*
X022340Y002032D01*
X022288Y001907D01*
X022193Y001812D01*
X022140Y001790D01*
X022421Y001790D01*
X022903Y002272D01*
X022807Y002312D01*
X022712Y002407D01*
X022660Y002532D01*
X022660Y002668D01*
X022712Y002793D01*
X022807Y002888D01*
X022810Y002889D01*
X022810Y004521D01*
X022421Y004910D01*
X019289Y004910D01*
X019288Y004907D01*
X019193Y004812D01*
X019068Y004760D01*
X018932Y004760D01*
X018807Y004812D01*
X018712Y004907D01*
X018660Y005032D01*
X018660Y005168D01*
X018712Y005293D01*
X018807Y005388D01*
X018932Y005440D01*
X019068Y005440D01*
X019193Y005388D01*
X019288Y005293D01*
X019289Y005290D01*
X022541Y005290D01*
X021921Y005910D01*
X020789Y005910D01*
X020788Y005907D01*
X020693Y005812D01*
X020568Y005760D01*
X020432Y005760D01*
X020307Y005812D01*
X020212Y005907D01*
X020160Y006032D01*
X020160Y006168D01*
X020212Y006293D01*
X020307Y006388D01*
X020432Y006440D01*
X020568Y006440D01*
X020693Y006388D01*
X020788Y006293D01*
X020789Y006290D01*
X022079Y006290D01*
X022190Y006179D01*
X023430Y004939D01*
X023432Y004940D01*
X023568Y004940D01*
X023693Y004888D01*
X023788Y004793D01*
X023810Y004740D01*
X023810Y006410D01*
X020921Y006410D01*
X018070Y009261D01*
X018068Y009260D01*
X017932Y009260D01*
X017807Y009312D01*
X017712Y009407D01*
X017660Y009532D01*
X017660Y009668D01*
X017712Y009793D01*
X017807Y009888D01*
X017860Y009910D01*
X017579Y009910D01*
X017438Y009770D01*
X017470Y009693D01*
X017470Y009507D01*
X017398Y009334D01*
X017266Y009202D01*
X017093Y009130D01*
X016907Y009130D01*
X016755Y009193D01*
X016724Y009116D01*
X016707Y009100D01*
X016724Y009084D01*
X016749Y009022D01*
X016812Y009054D01*
X016885Y009078D01*
X016960Y009090D01*
X016960Y008640D01*
X017040Y008640D01*
X017040Y009090D01*
X017115Y009078D01*
X017188Y009054D01*
X017257Y009019D01*
X017319Y008974D01*
X017374Y008919D01*
X017419Y008857D01*
X017454Y008788D01*
X017478Y008715D01*
X017490Y008640D01*
X017040Y008640D01*
X017040Y008560D01*
X017490Y008560D01*
X017478Y008485D01*
X017454Y008412D01*
X017419Y008343D01*
X017374Y008281D01*
X017319Y008226D01*
X017257Y008181D01*
X017188Y008146D01*
X017115Y008122D01*
X017040Y008110D01*
X017040Y008560D01*
X016960Y008560D01*
X016960Y008110D01*
X016885Y008122D01*
X016812Y008146D01*
X016749Y008178D01*
X016724Y008116D01*
X016500Y007893D01*
X016500Y007850D01*
X016420Y007850D01*
X016275Y007790D01*
X018579Y007790D01*
X018690Y007679D01*
X018930Y007439D01*
X018932Y007440D01*
X019068Y007440D01*
X019193Y007388D01*
X019288Y007293D01*
X019340Y007168D01*
X019340Y007032D01*
X019288Y006907D01*
X019193Y006812D01*
X019140Y006790D01*
X019211Y006790D01*
X019212Y006793D01*
X019307Y006888D01*
X019432Y006940D01*
X019568Y006940D01*
X019693Y006888D01*
X019788Y006793D01*
X019840Y006668D01*
X019840Y006532D01*
X019788Y006407D01*
X019731Y006350D01*
X019788Y006293D01*
X019840Y006168D01*
X019840Y006032D01*
X019788Y005907D01*
X019693Y005812D01*
X019568Y005760D01*
X019432Y005760D01*
X019307Y005812D01*
X019212Y005907D01*
X019211Y005910D01*
X018640Y005910D01*
X018693Y005888D01*
X018788Y005793D01*
X018840Y005668D01*
X018840Y005532D01*
X018788Y005407D01*
X018693Y005312D01*
X018568Y005260D01*
X018432Y005260D01*
X018307Y005312D01*
X018212Y005407D01*
X018211Y005410D01*
X017289Y005410D01*
X017288Y005407D01*
X017193Y005312D01*
X017068Y005260D01*
X016932Y005260D01*
X016807Y005312D01*
X016712Y005407D01*
X016660Y005532D01*
X016660Y005668D01*
X016712Y005793D01*
X016807Y005888D01*
X016860Y005910D01*
X013140Y005910D01*
X013193Y005888D01*
X013288Y005793D01*
X013340Y005668D01*
X013340Y005532D01*
X013288Y005407D01*
X013193Y005312D01*
X013068Y005260D01*
X012932Y005260D01*
X012807Y005312D01*
X012712Y005407D01*
X012711Y005410D01*
X008789Y005410D01*
X008788Y005407D01*
X008693Y005312D01*
X008568Y005260D01*
X008432Y005260D01*
X008307Y005312D01*
X008250Y005369D01*
X008193Y005312D01*
X008068Y005260D01*
X007932Y005260D01*
X007807Y005312D01*
X007712Y005407D01*
X007660Y005532D01*
X007660Y005668D01*
X007712Y005793D01*
X007807Y005888D01*
X007932Y005940D01*
X008068Y005940D01*
X008070Y005939D01*
X008746Y006615D01*
X007904Y006615D01*
X007725Y006689D01*
X007589Y006825D01*
X007515Y007004D01*
X007515Y007196D01*
X007589Y007375D01*
X007725Y007511D01*
X007792Y007539D01*
X006828Y008503D01*
X006788Y008407D01*
X006693Y008312D01*
X006568Y008260D01*
X006432Y008260D01*
X006430Y008261D01*
X006097Y007928D01*
X006193Y007888D01*
X006288Y007793D01*
X006340Y007668D01*
X006340Y007532D01*
X006288Y007407D01*
X006193Y007312D01*
X006068Y007260D01*
X005932Y007260D01*
X005930Y007261D01*
X003378Y004710D01*
X003539Y004643D01*
X003663Y004519D01*
X003730Y004358D01*
X003730Y004182D01*
X003663Y004021D01*
X003539Y003897D01*
X003378Y003830D01*
X003202Y003830D01*
X003041Y003897D01*
X002917Y004021D01*
X002850Y004182D01*
X002839Y004170D01*
X002840Y004168D01*
X002840Y004032D01*
X002788Y003907D01*
X002693Y003812D01*
X002568Y003760D01*
X002432Y003760D01*
X002307Y003812D01*
X002212Y003907D01*
X002190Y003960D01*
X002190Y003290D01*
X002855Y003290D01*
X002855Y003627D01*
X002937Y003709D01*
X003653Y003709D01*
X003735Y003627D01*
X003735Y003133D01*
X004079Y002790D01*
X010921Y002790D01*
X011035Y002903D01*
X010917Y003021D01*
X010850Y003182D01*
X010850Y003358D01*
X010917Y003519D01*
X011041Y003643D01*
X011202Y003710D01*
X011378Y003710D01*
X011539Y003643D01*
X011663Y003519D01*
X011730Y003358D01*
X011730Y003182D01*
X011692Y003091D01*
X011697Y003042D01*
X011690Y003033D01*
X011690Y003021D01*
X011641Y002973D01*
X011598Y002919D01*
X011587Y002918D01*
X011079Y002410D01*
X003921Y002410D01*
X003810Y002521D01*
X003502Y002829D01*
X002937Y002829D01*
X002857Y002910D01*
X001959Y002910D01*
X002579Y002290D01*
X012211Y002290D01*
X012212Y002293D01*
X012307Y002388D01*
X012432Y002440D01*
X012568Y002440D01*
X012693Y002388D01*
X012788Y002293D01*
X012840Y002168D01*
X012840Y002032D01*
X012788Y001907D01*
X012693Y001812D01*
X012640Y001790D01*
X012711Y001790D01*
X012712Y001793D01*
X012807Y001888D01*
X012932Y001940D01*
X013068Y001940D01*
X013193Y001888D01*
X013288Y001793D01*
X013340Y001668D01*
X013340Y001532D01*
X013288Y001407D01*
X013193Y001312D01*
X013068Y001260D01*
X012932Y001260D01*
X012807Y001312D01*
X012712Y001407D01*
X012711Y001410D01*
X006640Y001410D01*
X006693Y001388D01*
X006788Y001293D01*
X006840Y001168D01*
X006840Y001032D01*
X006788Y000907D01*
X006693Y000812D01*
X006568Y000760D01*
X006432Y000760D01*
X006307Y000812D01*
X006212Y000907D01*
X006211Y000910D01*
X003289Y000910D01*
X003288Y000907D01*
X003193Y000812D01*
X003068Y000760D01*
X002932Y000760D01*
X002807Y000812D01*
X002712Y000907D01*
X002660Y001032D01*
X002660Y001168D01*
X002712Y001293D01*
X002807Y001388D01*
X002860Y001410D01*
X002421Y001410D01*
X000960Y002871D01*
X000960Y002826D02*
X001006Y002826D01*
X000960Y002707D02*
X001124Y002707D01*
X001243Y002589D02*
X000960Y002589D01*
X000960Y002470D02*
X001361Y002470D01*
X001480Y002352D02*
X000960Y002352D01*
X000960Y002233D02*
X001598Y002233D01*
X001717Y002115D02*
X000960Y002115D01*
X000960Y001996D02*
X001835Y001996D01*
X001954Y001878D02*
X000960Y001878D01*
X000960Y001759D02*
X002072Y001759D01*
X002191Y001641D02*
X000960Y001641D01*
X000960Y001522D02*
X002309Y001522D01*
X002709Y001285D02*
X000960Y001285D01*
X000960Y001167D02*
X002660Y001167D01*
X002660Y001048D02*
X000960Y001048D01*
X000960Y000930D02*
X002703Y000930D01*
X002809Y000811D02*
X000960Y000811D01*
X000960Y000693D02*
X024540Y000693D01*
X024540Y000811D02*
X023191Y000811D01*
X023297Y000930D02*
X024540Y000930D01*
X024540Y001048D02*
X023340Y001048D01*
X023340Y001167D02*
X024540Y001167D01*
X024540Y001285D02*
X023291Y001285D01*
X023156Y001404D02*
X024540Y001404D01*
X024540Y001522D02*
X022691Y001522D01*
X022809Y001641D02*
X024540Y001641D01*
X024540Y001759D02*
X022928Y001759D01*
X023046Y001878D02*
X024540Y001878D01*
X024540Y001996D02*
X023165Y001996D01*
X023283Y002115D02*
X024540Y002115D01*
X024540Y002233D02*
X023402Y002233D01*
X023520Y002352D02*
X024540Y002352D01*
X024540Y002470D02*
X023639Y002470D01*
X023757Y002589D02*
X024540Y002589D01*
X024540Y002707D02*
X023876Y002707D01*
X023994Y002826D02*
X024540Y002826D01*
X024540Y002944D02*
X024113Y002944D01*
X024190Y003063D02*
X024540Y003063D01*
X024540Y003181D02*
X024190Y003181D01*
X024190Y003300D02*
X024540Y003300D01*
X024540Y003418D02*
X024190Y003418D01*
X024190Y003537D02*
X024540Y003537D01*
X024540Y003655D02*
X024190Y003655D01*
X024190Y003774D02*
X024540Y003774D01*
X024540Y003892D02*
X024190Y003892D01*
X024190Y004011D02*
X024540Y004011D01*
X024540Y004129D02*
X024190Y004129D01*
X024190Y004248D02*
X024540Y004248D01*
X024540Y004366D02*
X024190Y004366D01*
X024190Y004485D02*
X024540Y004485D01*
X024540Y004603D02*
X024190Y004603D01*
X024190Y004722D02*
X024540Y004722D01*
X024540Y004840D02*
X024190Y004840D01*
X024190Y004959D02*
X024540Y004959D01*
X024540Y005077D02*
X024190Y005077D01*
X024190Y005196D02*
X024540Y005196D01*
X024540Y005314D02*
X024190Y005314D01*
X024190Y005433D02*
X024540Y005433D01*
X024540Y005551D02*
X024190Y005551D01*
X024190Y005670D02*
X024540Y005670D01*
X024540Y005788D02*
X024190Y005788D01*
X024190Y005907D02*
X024540Y005907D01*
X024540Y006025D02*
X024190Y006025D01*
X024190Y006144D02*
X024537Y006144D01*
X024511Y006262D02*
X024190Y006262D01*
X024190Y006381D02*
X024456Y006381D01*
X024358Y006499D02*
X024190Y006499D01*
X023810Y006381D02*
X020700Y006381D01*
X020832Y006499D02*
X019826Y006499D01*
X019840Y006618D02*
X020714Y006618D01*
X020595Y006736D02*
X019812Y006736D01*
X019726Y006855D02*
X020477Y006855D01*
X020358Y006973D02*
X019315Y006973D01*
X019340Y007092D02*
X020240Y007092D01*
X020121Y007210D02*
X019322Y007210D01*
X019252Y007329D02*
X020003Y007329D01*
X019884Y007447D02*
X018922Y007447D01*
X018803Y007566D02*
X019766Y007566D01*
X019647Y007684D02*
X018685Y007684D01*
X019173Y008158D02*
X017212Y008158D01*
X017040Y008158D02*
X016960Y008158D01*
X016960Y008277D02*
X017040Y008277D01*
X017040Y008395D02*
X016960Y008395D01*
X016960Y008514D02*
X017040Y008514D01*
X017040Y008632D02*
X018699Y008632D01*
X018581Y008751D02*
X017466Y008751D01*
X017410Y008869D02*
X018462Y008869D01*
X018344Y008988D02*
X017300Y008988D01*
X017289Y009225D02*
X018107Y009225D01*
X018225Y009106D02*
X016713Y009106D01*
X016960Y008988D02*
X017040Y008988D01*
X017040Y008869D02*
X016960Y008869D01*
X016960Y008751D02*
X017040Y008751D01*
X017482Y008514D02*
X018818Y008514D01*
X018936Y008395D02*
X017445Y008395D01*
X017369Y008277D02*
X019055Y008277D01*
X019292Y008040D02*
X016647Y008040D01*
X016741Y008158D02*
X016788Y008158D01*
X016528Y007921D02*
X019410Y007921D01*
X019529Y007803D02*
X016306Y007803D01*
X017402Y009343D02*
X017776Y009343D01*
X017689Y009462D02*
X017451Y009462D01*
X017470Y009580D02*
X017660Y009580D01*
X017673Y009699D02*
X017468Y009699D01*
X017486Y009817D02*
X017736Y009817D01*
X019235Y006855D02*
X019274Y006855D01*
X019761Y006381D02*
X020300Y006381D01*
X020199Y006262D02*
X019801Y006262D01*
X019840Y006144D02*
X020160Y006144D01*
X020163Y006025D02*
X019837Y006025D01*
X019787Y005907D02*
X020213Y005907D01*
X020365Y005788D02*
X019635Y005788D01*
X019365Y005788D02*
X018790Y005788D01*
X018839Y005670D02*
X022162Y005670D01*
X022043Y005788D02*
X020635Y005788D01*
X020787Y005907D02*
X021925Y005907D01*
X022225Y006144D02*
X023810Y006144D01*
X023810Y006262D02*
X022107Y006262D01*
X022344Y006025D02*
X023810Y006025D01*
X023810Y005907D02*
X022462Y005907D01*
X022581Y005788D02*
X023810Y005788D01*
X023810Y005670D02*
X022699Y005670D01*
X022818Y005551D02*
X023810Y005551D01*
X023810Y005433D02*
X022936Y005433D01*
X023055Y005314D02*
X023810Y005314D01*
X023810Y005196D02*
X023173Y005196D01*
X023292Y005077D02*
X023810Y005077D01*
X023810Y004959D02*
X023410Y004959D01*
X023741Y004840D02*
X023810Y004840D01*
X022810Y004485D02*
X022677Y004485D01*
X022663Y004519D02*
X022539Y004643D01*
X022378Y004710D01*
X022202Y004710D01*
X022041Y004643D01*
X021917Y004519D01*
X021850Y004358D01*
X021850Y004182D01*
X021917Y004021D01*
X022041Y003897D01*
X022202Y003830D01*
X022378Y003830D01*
X022539Y003897D01*
X022663Y004021D01*
X022730Y004182D01*
X022730Y004358D01*
X022663Y004519D01*
X022728Y004603D02*
X022579Y004603D01*
X022610Y004722D02*
X019380Y004722D01*
X019398Y004719D02*
X019330Y004729D01*
X019330Y004310D01*
X019749Y004310D01*
X019739Y004378D01*
X019716Y004447D01*
X019683Y004511D01*
X019641Y004570D01*
X019590Y004621D01*
X019531Y004663D01*
X019467Y004696D01*
X019398Y004719D01*
X019330Y004722D02*
X019250Y004722D01*
X019250Y004729D02*
X019182Y004719D01*
X019113Y004696D01*
X019049Y004663D01*
X018990Y004621D01*
X018939Y004570D01*
X018897Y004511D01*
X018864Y004447D01*
X018841Y004378D01*
X018831Y004310D01*
X019250Y004310D01*
X019250Y004729D01*
X019200Y004722D02*
X017380Y004722D01*
X017398Y004719D02*
X017330Y004729D01*
X017330Y004310D01*
X017749Y004310D01*
X017739Y004378D01*
X017716Y004447D01*
X017683Y004511D01*
X017641Y004570D01*
X017590Y004621D01*
X017531Y004663D01*
X017467Y004696D01*
X017398Y004719D01*
X017330Y004722D02*
X017250Y004722D01*
X017250Y004729D02*
X017182Y004719D01*
X017113Y004696D01*
X017049Y004663D01*
X016990Y004621D01*
X016939Y004570D01*
X016897Y004511D01*
X016864Y004447D01*
X016841Y004378D01*
X016831Y004310D01*
X017250Y004310D01*
X017250Y004729D01*
X017200Y004722D02*
X012380Y004722D01*
X012398Y004719D02*
X012330Y004729D01*
X012330Y004310D01*
X012749Y004310D01*
X012739Y004378D01*
X012716Y004447D01*
X012683Y004511D01*
X012641Y004570D01*
X012590Y004621D01*
X012531Y004663D01*
X012467Y004696D01*
X012398Y004719D01*
X012330Y004722D02*
X012250Y004722D01*
X012250Y004729D02*
X012182Y004719D01*
X012113Y004696D01*
X012049Y004663D01*
X011990Y004621D01*
X011939Y004570D01*
X011897Y004511D01*
X011864Y004447D01*
X011841Y004378D01*
X011831Y004310D01*
X012250Y004310D01*
X012250Y004729D01*
X012200Y004722D02*
X009380Y004722D01*
X009398Y004719D02*
X009330Y004729D01*
X009330Y004310D01*
X009749Y004310D01*
X009739Y004378D01*
X009716Y004447D01*
X009683Y004511D01*
X009641Y004570D01*
X009590Y004621D01*
X009531Y004663D01*
X009467Y004696D01*
X009398Y004719D01*
X009330Y004722D02*
X009250Y004722D01*
X009250Y004729D02*
X009182Y004719D01*
X009113Y004696D01*
X009049Y004663D01*
X008990Y004621D01*
X008939Y004570D01*
X008897Y004511D01*
X008864Y004447D01*
X008841Y004378D01*
X008831Y004310D01*
X009250Y004310D01*
X009250Y004729D01*
X009200Y004722D02*
X005380Y004722D01*
X005398Y004719D02*
X005330Y004729D01*
X005330Y004310D01*
X005749Y004310D01*
X005739Y004378D01*
X005716Y004447D01*
X005683Y004511D01*
X005641Y004570D01*
X005590Y004621D01*
X005531Y004663D01*
X005467Y004696D01*
X005398Y004719D01*
X005330Y004722D02*
X005250Y004722D01*
X005250Y004729D02*
X005182Y004719D01*
X005113Y004696D01*
X005049Y004663D01*
X004990Y004621D01*
X004939Y004570D01*
X004897Y004511D01*
X004864Y004447D01*
X004841Y004378D01*
X004831Y004310D01*
X005250Y004310D01*
X005250Y004729D01*
X005200Y004722D02*
X003390Y004722D01*
X003509Y004840D02*
X018779Y004840D01*
X018691Y004959D02*
X003627Y004959D01*
X003746Y005077D02*
X018660Y005077D01*
X018672Y005196D02*
X003864Y005196D01*
X003983Y005314D02*
X007805Y005314D01*
X007701Y005433D02*
X004101Y005433D01*
X004220Y005551D02*
X007660Y005551D01*
X007661Y005670D02*
X004338Y005670D01*
X004457Y005788D02*
X007710Y005788D01*
X007852Y005907D02*
X004575Y005907D01*
X004694Y006025D02*
X008156Y006025D01*
X008275Y006144D02*
X004812Y006144D01*
X004931Y006262D02*
X008393Y006262D01*
X008512Y006381D02*
X005049Y006381D01*
X005168Y006499D02*
X008630Y006499D01*
X007897Y006618D02*
X005286Y006618D01*
X005405Y006736D02*
X007678Y006736D01*
X007577Y006855D02*
X005523Y006855D01*
X005642Y006973D02*
X007528Y006973D01*
X007515Y007092D02*
X005760Y007092D01*
X005879Y007210D02*
X007521Y007210D01*
X007570Y007329D02*
X006209Y007329D01*
X006305Y007447D02*
X007661Y007447D01*
X007766Y007566D02*
X006340Y007566D01*
X006333Y007684D02*
X007647Y007684D01*
X007529Y007803D02*
X006278Y007803D01*
X006113Y007921D02*
X007410Y007921D01*
X007292Y008040D02*
X006208Y008040D01*
X006327Y008158D02*
X007173Y008158D01*
X007055Y008277D02*
X006608Y008277D01*
X006776Y008395D02*
X006936Y008395D01*
X007237Y008632D02*
X007960Y008632D01*
X007960Y008640D02*
X007960Y008560D01*
X008040Y008560D01*
X008040Y008110D01*
X008115Y008122D01*
X008188Y008146D01*
X008251Y008178D01*
X008276Y008116D01*
X008500Y007893D01*
X008500Y007850D01*
X008580Y007850D01*
X008725Y007790D01*
X008079Y007790D01*
X007097Y008772D01*
X007193Y008812D01*
X007288Y008907D01*
X007289Y008910D01*
X007579Y008910D01*
X007690Y009021D01*
X007830Y009162D01*
X007907Y009130D01*
X008093Y009130D01*
X008245Y009193D01*
X008276Y009116D01*
X008293Y009100D01*
X008276Y009084D01*
X008251Y009022D01*
X008188Y009054D01*
X008115Y009078D01*
X008040Y009090D01*
X008040Y008640D01*
X007960Y008640D01*
X007960Y009090D01*
X007885Y009078D01*
X007812Y009054D01*
X007743Y009019D01*
X007681Y008974D01*
X007626Y008919D01*
X007581Y008857D01*
X007546Y008788D01*
X007522Y008715D01*
X007510Y008640D01*
X007960Y008640D01*
X007960Y008560D02*
X007510Y008560D01*
X007522Y008485D01*
X007546Y008412D01*
X007581Y008343D01*
X007626Y008281D01*
X007681Y008226D01*
X007743Y008181D01*
X007812Y008146D01*
X007885Y008122D01*
X007960Y008110D01*
X007960Y008560D01*
X007960Y008514D02*
X008040Y008514D01*
X008040Y008395D02*
X007960Y008395D01*
X007960Y008277D02*
X008040Y008277D01*
X008040Y008158D02*
X007960Y008158D01*
X007788Y008158D02*
X007711Y008158D01*
X007631Y008277D02*
X007592Y008277D01*
X007555Y008395D02*
X007474Y008395D01*
X007518Y008514D02*
X007355Y008514D01*
X007534Y008751D02*
X007118Y008751D01*
X007250Y008869D02*
X007590Y008869D01*
X007656Y008988D02*
X007700Y008988D01*
X007775Y009106D02*
X008287Y009106D01*
X008040Y008988D02*
X007960Y008988D01*
X007960Y008869D02*
X008040Y008869D01*
X008040Y008751D02*
X007960Y008751D01*
X008212Y008158D02*
X008259Y008158D01*
X008353Y008040D02*
X007829Y008040D01*
X007948Y007921D02*
X008472Y007921D01*
X008694Y007803D02*
X008066Y007803D01*
X008195Y005314D02*
X008305Y005314D01*
X008695Y005314D02*
X012805Y005314D01*
X013195Y005314D02*
X016805Y005314D01*
X016701Y005433D02*
X013299Y005433D01*
X013340Y005551D02*
X016660Y005551D01*
X016661Y005670D02*
X013339Y005670D01*
X013290Y005788D02*
X016710Y005788D01*
X016852Y005907D02*
X013148Y005907D01*
X013202Y004710D02*
X013041Y004643D01*
X012917Y004519D01*
X012850Y004358D01*
X012850Y004182D01*
X012917Y004021D01*
X013041Y003897D01*
X013202Y003830D01*
X013378Y003830D01*
X013539Y003897D01*
X013663Y004021D01*
X013730Y004182D01*
X013730Y004358D01*
X013663Y004519D01*
X013539Y004643D01*
X013378Y004710D01*
X013202Y004710D01*
X013001Y004603D02*
X012608Y004603D01*
X012697Y004485D02*
X012903Y004485D01*
X012854Y004366D02*
X012741Y004366D01*
X012749Y004230D02*
X012330Y004230D01*
X012330Y004310D01*
X012250Y004310D01*
X012250Y004230D01*
X012330Y004230D01*
X012330Y003811D01*
X012398Y003821D01*
X012467Y003844D01*
X012531Y003877D01*
X012590Y003919D01*
X012641Y003970D01*
X012683Y004029D01*
X012716Y004093D01*
X012739Y004162D01*
X012749Y004230D01*
X012850Y004248D02*
X012330Y004248D01*
X012250Y004248D02*
X011730Y004248D01*
X011730Y004182D02*
X011730Y004358D01*
X011663Y004519D01*
X011539Y004643D01*
X011378Y004710D01*
X011202Y004710D01*
X011041Y004643D01*
X010917Y004519D01*
X010850Y004358D01*
X010850Y004182D01*
X010917Y004021D01*
X011041Y003897D01*
X011202Y003830D01*
X011378Y003830D01*
X011539Y003897D01*
X011663Y004021D01*
X011730Y004182D01*
X011708Y004129D02*
X011852Y004129D01*
X011841Y004162D02*
X011864Y004093D01*
X011897Y004029D01*
X011939Y003970D01*
X011990Y003919D01*
X012049Y003877D01*
X012113Y003844D01*
X012182Y003821D01*
X012250Y003811D01*
X012250Y004230D01*
X011831Y004230D01*
X011841Y004162D01*
X011910Y004011D02*
X011653Y004011D01*
X011527Y003892D02*
X012028Y003892D01*
X012250Y003892D02*
X012330Y003892D01*
X012330Y004011D02*
X012250Y004011D01*
X012250Y004129D02*
X012330Y004129D01*
X012330Y004366D02*
X012250Y004366D01*
X012250Y004485D02*
X012330Y004485D01*
X012330Y004603D02*
X012250Y004603D01*
X011972Y004603D02*
X011579Y004603D01*
X011677Y004485D02*
X011883Y004485D01*
X011839Y004366D02*
X011726Y004366D01*
X011053Y003892D02*
X010527Y003892D01*
X010539Y003897D02*
X010663Y004021D01*
X010730Y004182D01*
X010730Y004358D01*
X010663Y004519D01*
X010539Y004643D01*
X010378Y004710D01*
X010202Y004710D01*
X010041Y004643D01*
X009917Y004519D01*
X009850Y004358D01*
X009850Y004182D01*
X009917Y004021D01*
X010041Y003897D01*
X010202Y003830D01*
X010378Y003830D01*
X010539Y003897D01*
X010653Y004011D02*
X010927Y004011D01*
X010872Y004129D02*
X010708Y004129D01*
X010730Y004248D02*
X010850Y004248D01*
X010854Y004366D02*
X010726Y004366D01*
X010677Y004485D02*
X010903Y004485D01*
X011001Y004603D02*
X010579Y004603D01*
X010001Y004603D02*
X009608Y004603D01*
X009697Y004485D02*
X009903Y004485D01*
X009854Y004366D02*
X009741Y004366D01*
X009749Y004230D02*
X009330Y004230D01*
X009330Y004310D01*
X009250Y004310D01*
X009250Y004230D01*
X009330Y004230D01*
X009330Y003811D01*
X009398Y003821D01*
X009467Y003844D01*
X009531Y003877D01*
X009590Y003919D01*
X009641Y003970D01*
X009683Y004029D01*
X009716Y004093D01*
X009739Y004162D01*
X009749Y004230D01*
X009850Y004248D02*
X009330Y004248D01*
X009250Y004248D02*
X008730Y004248D01*
X008730Y004182D02*
X008730Y004358D01*
X008663Y004519D01*
X008539Y004643D01*
X008378Y004710D01*
X008202Y004710D01*
X008041Y004643D01*
X007917Y004519D01*
X007850Y004358D01*
X007850Y004182D01*
X007917Y004021D01*
X008041Y003897D01*
X008202Y003830D01*
X008378Y003830D01*
X008539Y003897D01*
X008663Y004021D01*
X008730Y004182D01*
X008708Y004129D02*
X008852Y004129D01*
X008841Y004162D02*
X008864Y004093D01*
X008897Y004029D01*
X008939Y003970D01*
X008990Y003919D01*
X009049Y003877D01*
X009113Y003844D01*
X009182Y003821D01*
X009250Y003811D01*
X009250Y004230D01*
X008831Y004230D01*
X008841Y004162D01*
X008910Y004011D02*
X008653Y004011D01*
X008527Y003892D02*
X009028Y003892D01*
X009250Y003892D02*
X009330Y003892D01*
X009330Y004011D02*
X009250Y004011D01*
X009250Y004129D02*
X009330Y004129D01*
X009330Y004366D02*
X009250Y004366D01*
X009250Y004485D02*
X009330Y004485D01*
X009330Y004603D02*
X009250Y004603D01*
X008972Y004603D02*
X008579Y004603D01*
X008677Y004485D02*
X008883Y004485D01*
X008839Y004366D02*
X008726Y004366D01*
X008053Y003892D02*
X007527Y003892D01*
X007539Y003897D02*
X007378Y003830D01*
X007202Y003830D01*
X007041Y003897D01*
X006917Y004021D01*
X006850Y004182D01*
X006850Y004358D01*
X006917Y004519D01*
X007041Y004643D01*
X007202Y004710D01*
X007378Y004710D01*
X007539Y004643D01*
X007663Y004519D01*
X007730Y004358D01*
X007730Y004182D01*
X007663Y004021D01*
X007539Y003897D01*
X007653Y004011D02*
X007927Y004011D01*
X007872Y004129D02*
X007708Y004129D01*
X007730Y004248D02*
X007850Y004248D01*
X007854Y004366D02*
X007726Y004366D01*
X007677Y004485D02*
X007903Y004485D01*
X008001Y004603D02*
X007579Y004603D01*
X007001Y004603D02*
X006579Y004603D01*
X006539Y004643D02*
X006378Y004710D01*
X006202Y004710D01*
X006041Y004643D01*
X005917Y004519D01*
X005850Y004358D01*
X005850Y004182D01*
X005917Y004021D01*
X006041Y003897D01*
X006202Y003830D01*
X006378Y003830D01*
X006539Y003897D01*
X006663Y004021D01*
X006730Y004182D01*
X006730Y004358D01*
X006663Y004519D01*
X006539Y004643D01*
X006677Y004485D02*
X006903Y004485D01*
X006854Y004366D02*
X006726Y004366D01*
X006730Y004248D02*
X006850Y004248D01*
X006872Y004129D02*
X006708Y004129D01*
X006653Y004011D02*
X006927Y004011D01*
X007053Y003892D02*
X006527Y003892D01*
X006378Y003710D02*
X006202Y003710D01*
X006041Y003643D01*
X005917Y003519D01*
X005850Y003358D01*
X005850Y003182D01*
X005917Y003021D01*
X006041Y002897D01*
X006202Y002830D01*
X006378Y002830D01*
X006539Y002897D01*
X006663Y003021D01*
X006730Y003182D01*
X006730Y003358D01*
X006663Y003519D01*
X006539Y003643D01*
X006378Y003710D01*
X006510Y003655D02*
X007037Y003655D01*
X007049Y003663D02*
X006990Y003621D01*
X006939Y003570D01*
X006897Y003511D01*
X006864Y003447D01*
X006841Y003378D01*
X006831Y003310D01*
X007250Y003310D01*
X007250Y003729D01*
X007182Y003719D01*
X007113Y003696D01*
X007049Y003663D01*
X006915Y003537D02*
X006646Y003537D01*
X006705Y003418D02*
X006854Y003418D01*
X006730Y003300D02*
X007250Y003300D01*
X007250Y003310D02*
X007250Y003230D01*
X007330Y003230D01*
X007330Y003310D01*
X007749Y003310D01*
X007739Y003378D01*
X007716Y003447D01*
X007683Y003511D01*
X007641Y003570D01*
X007590Y003621D01*
X007531Y003663D01*
X007467Y003696D01*
X007398Y003719D01*
X007330Y003729D01*
X007330Y003310D01*
X007250Y003310D01*
X007250Y003230D02*
X006831Y003230D01*
X006841Y003162D01*
X006864Y003093D01*
X006897Y003029D01*
X006939Y002970D01*
X006990Y002919D01*
X007049Y002877D01*
X007113Y002844D01*
X007182Y002821D01*
X007250Y002811D01*
X007250Y003230D01*
X007250Y003181D02*
X007330Y003181D01*
X007330Y003230D02*
X007330Y002811D01*
X007398Y002821D01*
X007467Y002844D01*
X007531Y002877D01*
X007590Y002919D01*
X007641Y002970D01*
X007683Y003029D01*
X007716Y003093D01*
X007739Y003162D01*
X007749Y003230D01*
X007330Y003230D01*
X007330Y003300D02*
X007850Y003300D01*
X007850Y003358D02*
X007850Y003182D01*
X007917Y003021D01*
X008041Y002897D01*
X008202Y002830D01*
X008378Y002830D01*
X008539Y002897D01*
X008663Y003021D01*
X008730Y003182D01*
X008730Y003358D01*
X008663Y003519D01*
X008539Y003643D01*
X008378Y003710D01*
X008202Y003710D01*
X008041Y003643D01*
X007917Y003519D01*
X007850Y003358D01*
X007875Y003418D02*
X007726Y003418D01*
X007665Y003537D02*
X007934Y003537D01*
X008070Y003655D02*
X007543Y003655D01*
X007330Y003655D02*
X007250Y003655D01*
X007250Y003537D02*
X007330Y003537D01*
X007330Y003418D02*
X007250Y003418D01*
X006838Y003181D02*
X006729Y003181D01*
X006680Y003063D02*
X006879Y003063D01*
X006965Y002944D02*
X006586Y002944D01*
X007169Y002826D02*
X004043Y002826D01*
X004041Y002897D02*
X004202Y002830D01*
X004378Y002830D01*
X004539Y002897D01*
X004663Y003021D01*
X004730Y003182D01*
X004730Y003358D01*
X004663Y003519D01*
X004539Y003643D01*
X004378Y003710D01*
X004202Y003710D01*
X004041Y003643D01*
X003917Y003519D01*
X003850Y003358D01*
X003850Y003182D01*
X003917Y003021D01*
X004041Y002897D01*
X003994Y002944D02*
X003925Y002944D01*
X003900Y003063D02*
X003806Y003063D01*
X003851Y003181D02*
X003735Y003181D01*
X003735Y003300D02*
X003850Y003300D01*
X003875Y003418D02*
X003735Y003418D01*
X003735Y003537D02*
X003934Y003537D01*
X004070Y003655D02*
X003708Y003655D01*
X003527Y003892D02*
X004053Y003892D01*
X004041Y003897D02*
X004202Y003830D01*
X004378Y003830D01*
X004539Y003897D01*
X004663Y004021D01*
X004730Y004182D01*
X004730Y004358D01*
X004663Y004519D01*
X004539Y004643D01*
X004378Y004710D01*
X004202Y004710D01*
X004041Y004643D01*
X003917Y004519D01*
X003850Y004358D01*
X003850Y004182D01*
X003917Y004021D01*
X004041Y003897D01*
X003927Y004011D02*
X003653Y004011D01*
X003708Y004129D02*
X003872Y004129D01*
X003850Y004248D02*
X003730Y004248D01*
X003726Y004366D02*
X003854Y004366D01*
X003903Y004485D02*
X003677Y004485D01*
X003579Y004603D02*
X004001Y004603D01*
X004579Y004603D02*
X004972Y004603D01*
X004883Y004485D02*
X004677Y004485D01*
X004726Y004366D02*
X004839Y004366D01*
X004831Y004230D02*
X004841Y004162D01*
X004864Y004093D01*
X004897Y004029D01*
X004939Y003970D01*
X004990Y003919D01*
X005049Y003877D01*
X005113Y003844D01*
X005182Y003821D01*
X005250Y003811D01*
X005250Y004230D01*
X005330Y004230D01*
X005330Y004310D01*
X005250Y004310D01*
X005250Y004230D01*
X004831Y004230D01*
X004730Y004248D02*
X005250Y004248D01*
X005330Y004248D02*
X005850Y004248D01*
X005749Y004230D02*
X005739Y004162D01*
X005716Y004093D01*
X005683Y004029D01*
X005641Y003970D01*
X005590Y003919D01*
X005531Y003877D01*
X005467Y003844D01*
X005398Y003821D01*
X005330Y003811D01*
X005330Y004230D01*
X005749Y004230D01*
X005728Y004129D02*
X005872Y004129D01*
X005927Y004011D02*
X005670Y004011D01*
X005552Y003892D02*
X006053Y003892D01*
X006070Y003655D02*
X005510Y003655D01*
X005539Y003643D02*
X005378Y003710D01*
X005202Y003710D01*
X005041Y003643D01*
X004917Y003519D01*
X004850Y003358D01*
X004850Y003182D01*
X004917Y003021D01*
X005041Y002897D01*
X005202Y002830D01*
X005378Y002830D01*
X005539Y002897D01*
X005663Y003021D01*
X005730Y003182D01*
X005730Y003358D01*
X005663Y003519D01*
X005539Y003643D01*
X005646Y003537D02*
X005934Y003537D01*
X005875Y003418D02*
X005705Y003418D01*
X005730Y003300D02*
X005850Y003300D01*
X005851Y003181D02*
X005729Y003181D01*
X005680Y003063D02*
X005900Y003063D01*
X005994Y002944D02*
X005586Y002944D01*
X004994Y002944D02*
X004586Y002944D01*
X004680Y003063D02*
X004900Y003063D01*
X004851Y003181D02*
X004729Y003181D01*
X004730Y003300D02*
X004850Y003300D01*
X004875Y003418D02*
X004705Y003418D01*
X004646Y003537D02*
X004934Y003537D01*
X005070Y003655D02*
X004510Y003655D01*
X004527Y003892D02*
X005028Y003892D01*
X004910Y004011D02*
X004653Y004011D01*
X004708Y004129D02*
X004852Y004129D01*
X005250Y004129D02*
X005330Y004129D01*
X005330Y004011D02*
X005250Y004011D01*
X005250Y003892D02*
X005330Y003892D01*
X005330Y004366D02*
X005250Y004366D01*
X005250Y004485D02*
X005330Y004485D01*
X005330Y004603D02*
X005250Y004603D01*
X005608Y004603D02*
X006001Y004603D01*
X005903Y004485D02*
X005697Y004485D01*
X005741Y004366D02*
X005854Y004366D01*
X007250Y003063D02*
X007330Y003063D01*
X007330Y002944D02*
X007250Y002944D01*
X007250Y002826D02*
X007330Y002826D01*
X007411Y002826D02*
X010957Y002826D01*
X010994Y002944D02*
X010586Y002944D01*
X010539Y002897D02*
X010663Y003021D01*
X010730Y003182D01*
X010730Y003358D01*
X010663Y003519D01*
X010539Y003643D01*
X010378Y003710D01*
X010202Y003710D01*
X010041Y003643D01*
X009917Y003519D01*
X009850Y003358D01*
X009850Y003182D01*
X009917Y003021D01*
X010041Y002897D01*
X010202Y002830D01*
X010378Y002830D01*
X010539Y002897D01*
X010680Y003063D02*
X010900Y003063D01*
X010851Y003181D02*
X010729Y003181D01*
X010730Y003300D02*
X010850Y003300D01*
X010875Y003418D02*
X010705Y003418D01*
X010646Y003537D02*
X010934Y003537D01*
X011070Y003655D02*
X010510Y003655D01*
X010070Y003655D02*
X009510Y003655D01*
X009539Y003643D02*
X009378Y003710D01*
X009202Y003710D01*
X009041Y003643D01*
X008917Y003519D01*
X008850Y003358D01*
X008850Y003182D01*
X008917Y003021D01*
X009041Y002897D01*
X009202Y002830D01*
X009378Y002830D01*
X009539Y002897D01*
X009663Y003021D01*
X009730Y003182D01*
X009730Y003358D01*
X009663Y003519D01*
X009539Y003643D01*
X009646Y003537D02*
X009934Y003537D01*
X009875Y003418D02*
X009705Y003418D01*
X009730Y003300D02*
X009850Y003300D01*
X009851Y003181D02*
X009729Y003181D01*
X009680Y003063D02*
X009900Y003063D01*
X009994Y002944D02*
X009586Y002944D01*
X008994Y002944D02*
X008586Y002944D01*
X008680Y003063D02*
X008900Y003063D01*
X008851Y003181D02*
X008729Y003181D01*
X008730Y003300D02*
X008850Y003300D01*
X008875Y003418D02*
X008705Y003418D01*
X008646Y003537D02*
X008934Y003537D01*
X009070Y003655D02*
X008510Y003655D01*
X007851Y003181D02*
X007742Y003181D01*
X007701Y003063D02*
X007900Y003063D01*
X007994Y002944D02*
X007615Y002944D01*
X009552Y003892D02*
X010053Y003892D01*
X009927Y004011D02*
X009670Y004011D01*
X009728Y004129D02*
X009872Y004129D01*
X011510Y003655D02*
X012070Y003655D01*
X012041Y003643D02*
X012202Y003710D01*
X012378Y003710D01*
X012539Y003643D01*
X012663Y003519D01*
X012730Y003358D01*
X012730Y003182D01*
X012663Y003021D01*
X012539Y002897D01*
X012378Y002830D01*
X012202Y002830D01*
X012041Y002897D01*
X011917Y003021D01*
X011850Y003182D01*
X011850Y003358D01*
X011917Y003519D01*
X012041Y003643D01*
X011934Y003537D02*
X011646Y003537D01*
X011705Y003418D02*
X011875Y003418D01*
X011850Y003300D02*
X011730Y003300D01*
X011729Y003181D02*
X011851Y003181D01*
X011900Y003063D02*
X011695Y003063D01*
X011618Y002944D02*
X011994Y002944D01*
X011494Y002826D02*
X015169Y002826D01*
X015182Y002821D02*
X015250Y002811D01*
X015250Y003230D01*
X015330Y003230D01*
X015330Y003310D01*
X015749Y003310D01*
X015739Y003378D01*
X015716Y003447D01*
X015683Y003511D01*
X015641Y003570D01*
X015590Y003621D01*
X015531Y003663D01*
X015467Y003696D01*
X015398Y003719D01*
X015330Y003729D01*
X015330Y003310D01*
X015250Y003310D01*
X015250Y003729D01*
X015182Y003719D01*
X015113Y003696D01*
X015049Y003663D01*
X014990Y003621D01*
X014939Y003570D01*
X014897Y003511D01*
X014864Y003447D01*
X014841Y003378D01*
X014831Y003310D01*
X015250Y003310D01*
X015250Y003230D01*
X014831Y003230D01*
X014841Y003162D01*
X014864Y003093D01*
X014897Y003029D01*
X014939Y002970D01*
X014990Y002919D01*
X015049Y002877D01*
X015113Y002844D01*
X015182Y002821D01*
X015250Y002826D02*
X015330Y002826D01*
X015330Y002811D02*
X015398Y002821D01*
X015467Y002844D01*
X015531Y002877D01*
X015590Y002919D01*
X015641Y002970D01*
X015683Y003029D01*
X015716Y003093D01*
X015739Y003162D01*
X015749Y003230D01*
X015330Y003230D01*
X015330Y002811D01*
X015411Y002826D02*
X022169Y002826D01*
X022182Y002821D02*
X022250Y002811D01*
X022250Y003230D01*
X022330Y003230D01*
X022330Y003310D01*
X022749Y003310D01*
X022739Y003378D01*
X022716Y003447D01*
X022683Y003511D01*
X022641Y003570D01*
X022590Y003621D01*
X022531Y003663D01*
X022467Y003696D01*
X022398Y003719D01*
X022330Y003729D01*
X022330Y003310D01*
X022250Y003310D01*
X022250Y003729D01*
X022182Y003719D01*
X022113Y003696D01*
X022049Y003663D01*
X021990Y003621D01*
X021939Y003570D01*
X021897Y003511D01*
X021864Y003447D01*
X021841Y003378D01*
X021831Y003310D01*
X022250Y003310D01*
X022250Y003230D01*
X021831Y003230D01*
X021841Y003162D01*
X021864Y003093D01*
X021897Y003029D01*
X021939Y002970D01*
X021990Y002919D01*
X022049Y002877D01*
X022113Y002844D01*
X022182Y002821D01*
X022250Y002826D02*
X022330Y002826D01*
X022330Y002811D02*
X022398Y002821D01*
X022467Y002844D01*
X022531Y002877D01*
X022590Y002919D01*
X022641Y002970D01*
X022683Y003029D01*
X022716Y003093D01*
X022739Y003162D01*
X022749Y003230D01*
X022330Y003230D01*
X022330Y002811D01*
X022411Y002826D02*
X022745Y002826D01*
X022810Y002944D02*
X022615Y002944D01*
X022701Y003063D02*
X022810Y003063D01*
X022810Y003181D02*
X022742Y003181D01*
X022810Y003300D02*
X022330Y003300D01*
X022250Y003300D02*
X021730Y003300D01*
X021730Y003358D02*
X021663Y003519D01*
X021539Y003643D01*
X021378Y003710D01*
X021202Y003710D01*
X021041Y003643D01*
X020917Y003519D01*
X020850Y003358D01*
X020850Y003182D01*
X020917Y003021D01*
X021041Y002897D01*
X021202Y002830D01*
X021378Y002830D01*
X021539Y002897D01*
X021663Y003021D01*
X021730Y003182D01*
X021730Y003358D01*
X021705Y003418D02*
X021854Y003418D01*
X021915Y003537D02*
X021646Y003537D01*
X021510Y003655D02*
X022037Y003655D01*
X022250Y003655D02*
X022330Y003655D01*
X022330Y003537D02*
X022250Y003537D01*
X022250Y003418D02*
X022330Y003418D01*
X022330Y003181D02*
X022250Y003181D01*
X022250Y003063D02*
X022330Y003063D01*
X022330Y002944D02*
X022250Y002944D01*
X021965Y002944D02*
X021586Y002944D01*
X021680Y003063D02*
X021879Y003063D01*
X021838Y003181D02*
X021729Y003181D01*
X020994Y002944D02*
X020586Y002944D01*
X020539Y002897D02*
X020663Y003021D01*
X020730Y003182D01*
X020730Y003358D01*
X020663Y003519D01*
X020539Y003643D01*
X020378Y003710D01*
X020202Y003710D01*
X020041Y003643D01*
X019917Y003519D01*
X019850Y003358D01*
X019850Y003182D01*
X019917Y003021D01*
X020041Y002897D01*
X020202Y002830D01*
X020378Y002830D01*
X020539Y002897D01*
X020680Y003063D02*
X020900Y003063D01*
X020851Y003181D02*
X020729Y003181D01*
X020730Y003300D02*
X020850Y003300D01*
X020875Y003418D02*
X020705Y003418D01*
X020646Y003537D02*
X020934Y003537D01*
X021070Y003655D02*
X020510Y003655D01*
X020378Y003830D02*
X020202Y003830D01*
X020041Y003897D01*
X019917Y004021D01*
X019850Y004182D01*
X019850Y004358D01*
X019917Y004519D01*
X020041Y004643D01*
X020202Y004710D01*
X020378Y004710D01*
X020539Y004643D01*
X020663Y004519D01*
X020730Y004358D01*
X020730Y004182D01*
X020663Y004021D01*
X020539Y003897D01*
X020378Y003830D01*
X020527Y003892D02*
X021053Y003892D01*
X021041Y003897D02*
X021202Y003830D01*
X021378Y003830D01*
X021539Y003897D01*
X021663Y004021D01*
X021730Y004182D01*
X021730Y004358D01*
X021663Y004519D01*
X021539Y004643D01*
X021378Y004710D01*
X021202Y004710D01*
X021041Y004643D01*
X020917Y004519D01*
X020850Y004358D01*
X020850Y004182D01*
X020917Y004021D01*
X021041Y003897D01*
X020927Y004011D02*
X020653Y004011D01*
X020708Y004129D02*
X020872Y004129D01*
X020850Y004248D02*
X020730Y004248D01*
X020726Y004366D02*
X020854Y004366D01*
X020903Y004485D02*
X020677Y004485D01*
X020579Y004603D02*
X021001Y004603D01*
X021579Y004603D02*
X022001Y004603D01*
X021903Y004485D02*
X021677Y004485D01*
X021726Y004366D02*
X021854Y004366D01*
X021850Y004248D02*
X021730Y004248D01*
X021708Y004129D02*
X021872Y004129D01*
X021927Y004011D02*
X021653Y004011D01*
X021527Y003892D02*
X022053Y003892D01*
X022527Y003892D02*
X022810Y003892D01*
X022810Y003774D02*
X002600Y003774D01*
X002400Y003774D02*
X002190Y003774D01*
X002190Y003892D02*
X002227Y003892D01*
X002190Y003655D02*
X002883Y003655D01*
X002855Y003537D02*
X002190Y003537D01*
X002190Y003418D02*
X002855Y003418D01*
X002855Y003300D02*
X002190Y003300D01*
X002043Y002826D02*
X003506Y002826D01*
X003624Y002707D02*
X002162Y002707D01*
X002280Y002589D02*
X003743Y002589D01*
X003861Y002470D02*
X002399Y002470D01*
X002517Y002352D02*
X012271Y002352D01*
X012729Y002352D02*
X019271Y002352D01*
X019187Y002233D02*
X012813Y002233D01*
X012840Y002115D02*
X019160Y002115D01*
X019175Y001996D02*
X012825Y001996D01*
X012797Y001878D02*
X012758Y001878D01*
X013203Y001878D02*
X019242Y001878D01*
X019758Y001878D02*
X021742Y001878D01*
X021390Y001759D02*
X013302Y001759D01*
X013340Y001641D02*
X021272Y001641D01*
X021153Y001522D02*
X013336Y001522D01*
X013284Y001404D02*
X020844Y001404D01*
X020709Y001285D02*
X013128Y001285D01*
X012872Y001285D02*
X006791Y001285D01*
X006840Y001167D02*
X020660Y001167D01*
X020660Y001048D02*
X006840Y001048D01*
X006797Y000930D02*
X020703Y000930D01*
X020809Y000811D02*
X006691Y000811D01*
X006309Y000811D02*
X003191Y000811D01*
X002844Y001404D02*
X000960Y001404D01*
X000960Y000574D02*
X024540Y000574D01*
X022844Y001404D02*
X021656Y001404D01*
X021691Y000811D02*
X022809Y000811D01*
X022509Y001878D02*
X022258Y001878D01*
X022325Y001996D02*
X022627Y001996D01*
X022746Y002115D02*
X022340Y002115D01*
X022313Y002233D02*
X022864Y002233D01*
X022768Y002352D02*
X022229Y002352D01*
X021771Y002352D02*
X019729Y002352D01*
X019539Y002897D02*
X019663Y003021D01*
X019730Y003182D01*
X019730Y003358D01*
X019663Y003519D01*
X019539Y003643D01*
X019378Y003710D01*
X019202Y003710D01*
X019041Y003643D01*
X018917Y003519D01*
X018850Y003358D01*
X018850Y003182D01*
X018917Y003021D01*
X019041Y002897D01*
X019202Y002830D01*
X019378Y002830D01*
X019539Y002897D01*
X019586Y002944D02*
X019994Y002944D01*
X019900Y003063D02*
X019680Y003063D01*
X019729Y003181D02*
X019851Y003181D01*
X019850Y003300D02*
X019730Y003300D01*
X019705Y003418D02*
X019875Y003418D01*
X019934Y003537D02*
X019646Y003537D01*
X019510Y003655D02*
X020070Y003655D01*
X020053Y003892D02*
X019552Y003892D01*
X019531Y003877D02*
X019590Y003919D01*
X019641Y003970D01*
X019683Y004029D01*
X019716Y004093D01*
X019739Y004162D01*
X019749Y004230D01*
X019330Y004230D01*
X019330Y004310D01*
X019250Y004310D01*
X019250Y004230D01*
X019330Y004230D01*
X019330Y003811D01*
X019398Y003821D01*
X019467Y003844D01*
X019531Y003877D01*
X019670Y004011D02*
X019927Y004011D01*
X019872Y004129D02*
X019728Y004129D01*
X019850Y004248D02*
X019330Y004248D01*
X019250Y004248D02*
X018730Y004248D01*
X018730Y004182D02*
X018730Y004358D01*
X018663Y004519D01*
X018539Y004643D01*
X018378Y004710D01*
X018202Y004710D01*
X018041Y004643D01*
X017917Y004519D01*
X017850Y004358D01*
X017850Y004182D01*
X017917Y004021D01*
X018041Y003897D01*
X018202Y003830D01*
X018378Y003830D01*
X018539Y003897D01*
X018663Y004021D01*
X018730Y004182D01*
X018708Y004129D02*
X018852Y004129D01*
X018841Y004162D02*
X018864Y004093D01*
X018897Y004029D01*
X018939Y003970D01*
X018990Y003919D01*
X019049Y003877D01*
X019113Y003844D01*
X019182Y003821D01*
X019250Y003811D01*
X019250Y004230D01*
X018831Y004230D01*
X018841Y004162D01*
X018910Y004011D02*
X018653Y004011D01*
X018527Y003892D02*
X019028Y003892D01*
X019250Y003892D02*
X019330Y003892D01*
X019330Y004011D02*
X019250Y004011D01*
X019250Y004129D02*
X019330Y004129D01*
X019330Y004366D02*
X019250Y004366D01*
X019250Y004485D02*
X019330Y004485D01*
X019330Y004603D02*
X019250Y004603D01*
X019221Y004840D02*
X022491Y004840D01*
X022517Y005314D02*
X019267Y005314D01*
X019086Y005433D02*
X022399Y005433D01*
X022280Y005551D02*
X018840Y005551D01*
X018799Y005433D02*
X018914Y005433D01*
X018733Y005314D02*
X018695Y005314D01*
X018305Y005314D02*
X017195Y005314D01*
X017250Y004603D02*
X017330Y004603D01*
X017330Y004485D02*
X017250Y004485D01*
X017250Y004366D02*
X017330Y004366D01*
X017330Y004310D02*
X017250Y004310D01*
X017250Y004230D01*
X017330Y004230D01*
X017330Y004310D01*
X017330Y004248D02*
X017850Y004248D01*
X017749Y004230D02*
X017739Y004162D01*
X017716Y004093D01*
X017683Y004029D01*
X017641Y003970D01*
X017590Y003919D01*
X017531Y003877D01*
X017467Y003844D01*
X017398Y003821D01*
X017330Y003811D01*
X017330Y004230D01*
X017749Y004230D01*
X017728Y004129D02*
X017872Y004129D01*
X017927Y004011D02*
X017670Y004011D01*
X017552Y003892D02*
X018053Y003892D01*
X018202Y003710D02*
X018041Y003643D01*
X017917Y003519D01*
X017850Y003358D01*
X017850Y003182D01*
X017917Y003021D01*
X018041Y002897D01*
X018202Y002830D01*
X018378Y002830D01*
X018539Y002897D01*
X018663Y003021D01*
X018730Y003182D01*
X018730Y003358D01*
X018663Y003519D01*
X018539Y003643D01*
X018378Y003710D01*
X018202Y003710D01*
X018070Y003655D02*
X017510Y003655D01*
X017539Y003643D02*
X017378Y003710D01*
X017202Y003710D01*
X017041Y003643D01*
X016917Y003519D01*
X016850Y003358D01*
X016850Y003182D01*
X016917Y003021D01*
X017041Y002897D01*
X017202Y002830D01*
X017378Y002830D01*
X017539Y002897D01*
X017663Y003021D01*
X017730Y003182D01*
X017730Y003358D01*
X017663Y003519D01*
X017539Y003643D01*
X017646Y003537D02*
X017934Y003537D01*
X017875Y003418D02*
X017705Y003418D01*
X017730Y003300D02*
X017850Y003300D01*
X017851Y003181D02*
X017729Y003181D01*
X017680Y003063D02*
X017900Y003063D01*
X017994Y002944D02*
X017586Y002944D01*
X016994Y002944D02*
X016586Y002944D01*
X016539Y002897D02*
X016663Y003021D01*
X016730Y003182D01*
X016730Y003358D01*
X016663Y003519D01*
X016539Y003643D01*
X016378Y003710D01*
X016202Y003710D01*
X016041Y003643D01*
X015917Y003519D01*
X015850Y003358D01*
X015850Y003182D01*
X015917Y003021D01*
X016041Y002897D01*
X016202Y002830D01*
X016378Y002830D01*
X016539Y002897D01*
X016680Y003063D02*
X016900Y003063D01*
X016851Y003181D02*
X016729Y003181D01*
X016730Y003300D02*
X016850Y003300D01*
X016875Y003418D02*
X016705Y003418D01*
X016646Y003537D02*
X016934Y003537D01*
X017070Y003655D02*
X016510Y003655D01*
X016378Y003830D02*
X016202Y003830D01*
X016041Y003897D01*
X015917Y004021D01*
X015850Y004182D01*
X015850Y004358D01*
X015917Y004519D01*
X016041Y004643D01*
X016202Y004710D01*
X016378Y004710D01*
X016539Y004643D01*
X016663Y004519D01*
X016730Y004358D01*
X016730Y004182D01*
X016663Y004021D01*
X016539Y003897D01*
X016378Y003830D01*
X016527Y003892D02*
X017028Y003892D01*
X017049Y003877D02*
X017113Y003844D01*
X017182Y003821D01*
X017250Y003811D01*
X017250Y004230D01*
X016831Y004230D01*
X016841Y004162D01*
X016864Y004093D01*
X016897Y004029D01*
X016939Y003970D01*
X016990Y003919D01*
X017049Y003877D01*
X016910Y004011D02*
X016653Y004011D01*
X016708Y004129D02*
X016852Y004129D01*
X016730Y004248D02*
X017250Y004248D01*
X017250Y004129D02*
X017330Y004129D01*
X017330Y004011D02*
X017250Y004011D01*
X017250Y003892D02*
X017330Y003892D01*
X017741Y004366D02*
X017854Y004366D01*
X017903Y004485D02*
X017697Y004485D01*
X017608Y004603D02*
X018001Y004603D01*
X018579Y004603D02*
X018972Y004603D01*
X018883Y004485D02*
X018677Y004485D01*
X018726Y004366D02*
X018839Y004366D01*
X019070Y003655D02*
X018510Y003655D01*
X018646Y003537D02*
X018934Y003537D01*
X018875Y003418D02*
X018705Y003418D01*
X018730Y003300D02*
X018850Y003300D01*
X018851Y003181D02*
X018729Y003181D01*
X018680Y003063D02*
X018900Y003063D01*
X018994Y002944D02*
X018586Y002944D01*
X019741Y004366D02*
X019854Y004366D01*
X019903Y004485D02*
X019697Y004485D01*
X019608Y004603D02*
X020001Y004603D01*
X019213Y005907D02*
X018648Y005907D01*
X016972Y004603D02*
X016579Y004603D01*
X016677Y004485D02*
X016883Y004485D01*
X016839Y004366D02*
X016726Y004366D01*
X016001Y004603D02*
X015579Y004603D01*
X015539Y004643D02*
X015663Y004519D01*
X015730Y004358D01*
X015730Y004182D01*
X015663Y004021D01*
X015539Y003897D01*
X015378Y003830D01*
X015202Y003830D01*
X015041Y003897D01*
X014917Y004021D01*
X014850Y004182D01*
X014850Y004358D01*
X014917Y004519D01*
X015041Y004643D01*
X015202Y004710D01*
X015378Y004710D01*
X015539Y004643D01*
X015677Y004485D02*
X015903Y004485D01*
X015854Y004366D02*
X015726Y004366D01*
X015730Y004248D02*
X015850Y004248D01*
X015872Y004129D02*
X015708Y004129D01*
X015653Y004011D02*
X015927Y004011D01*
X016053Y003892D02*
X015527Y003892D01*
X015543Y003655D02*
X016070Y003655D01*
X015934Y003537D02*
X015665Y003537D01*
X015726Y003418D02*
X015875Y003418D01*
X015850Y003300D02*
X015330Y003300D01*
X015250Y003300D02*
X014730Y003300D01*
X014730Y003358D02*
X014663Y003519D01*
X014539Y003643D01*
X014378Y003710D01*
X014202Y003710D01*
X014041Y003643D01*
X013917Y003519D01*
X013850Y003358D01*
X013850Y003182D01*
X013917Y003021D01*
X014041Y002897D01*
X014202Y002830D01*
X014378Y002830D01*
X014539Y002897D01*
X014663Y003021D01*
X014730Y003182D01*
X014730Y003358D01*
X014705Y003418D02*
X014854Y003418D01*
X014915Y003537D02*
X014646Y003537D01*
X014510Y003655D02*
X015037Y003655D01*
X015250Y003655D02*
X015330Y003655D01*
X015330Y003537D02*
X015250Y003537D01*
X015250Y003418D02*
X015330Y003418D01*
X015330Y003181D02*
X015250Y003181D01*
X015250Y003063D02*
X015330Y003063D01*
X015330Y002944D02*
X015250Y002944D01*
X014965Y002944D02*
X014586Y002944D01*
X014680Y003063D02*
X014879Y003063D01*
X014838Y003181D02*
X014729Y003181D01*
X013994Y002944D02*
X013586Y002944D01*
X013539Y002897D02*
X013663Y003021D01*
X013730Y003182D01*
X013730Y003358D01*
X013663Y003519D01*
X013539Y003643D01*
X013378Y003710D01*
X013202Y003710D01*
X013041Y003643D01*
X012917Y003519D01*
X012850Y003358D01*
X012850Y003182D01*
X012917Y003021D01*
X013041Y002897D01*
X013202Y002830D01*
X013378Y002830D01*
X013539Y002897D01*
X013680Y003063D02*
X013900Y003063D01*
X013851Y003181D02*
X013729Y003181D01*
X013730Y003300D02*
X013850Y003300D01*
X013875Y003418D02*
X013705Y003418D01*
X013646Y003537D02*
X013934Y003537D01*
X014070Y003655D02*
X013510Y003655D01*
X013527Y003892D02*
X014053Y003892D01*
X014041Y003897D02*
X014202Y003830D01*
X014378Y003830D01*
X014539Y003897D01*
X014663Y004021D01*
X014730Y004182D01*
X014730Y004358D01*
X014663Y004519D01*
X014539Y004643D01*
X014378Y004710D01*
X014202Y004710D01*
X014041Y004643D01*
X013917Y004519D01*
X013850Y004358D01*
X013850Y004182D01*
X013917Y004021D01*
X014041Y003897D01*
X013927Y004011D02*
X013653Y004011D01*
X013708Y004129D02*
X013872Y004129D01*
X013850Y004248D02*
X013730Y004248D01*
X013726Y004366D02*
X013854Y004366D01*
X013903Y004485D02*
X013677Y004485D01*
X013579Y004603D02*
X014001Y004603D01*
X014579Y004603D02*
X015001Y004603D01*
X014903Y004485D02*
X014677Y004485D01*
X014726Y004366D02*
X014854Y004366D01*
X014850Y004248D02*
X014730Y004248D01*
X014708Y004129D02*
X014872Y004129D01*
X014927Y004011D02*
X014653Y004011D01*
X014527Y003892D02*
X015053Y003892D01*
X015742Y003181D02*
X015851Y003181D01*
X015900Y003063D02*
X015701Y003063D01*
X015615Y002944D02*
X015994Y002944D01*
X013070Y003655D02*
X012510Y003655D01*
X012646Y003537D02*
X012934Y003537D01*
X012875Y003418D02*
X012705Y003418D01*
X012730Y003300D02*
X012850Y003300D01*
X012851Y003181D02*
X012729Y003181D01*
X012680Y003063D02*
X012900Y003063D01*
X012994Y002944D02*
X012586Y002944D01*
X012552Y003892D02*
X013053Y003892D01*
X012927Y004011D02*
X012670Y004011D01*
X012728Y004129D02*
X012872Y004129D01*
X011376Y002707D02*
X022676Y002707D01*
X022660Y002589D02*
X011257Y002589D01*
X011139Y002470D02*
X022686Y002470D01*
X022726Y003418D02*
X022810Y003418D01*
X022810Y003537D02*
X022665Y003537D01*
X022543Y003655D02*
X022810Y003655D01*
X022810Y004011D02*
X022653Y004011D01*
X022708Y004129D02*
X022810Y004129D01*
X022810Y004248D02*
X022730Y004248D01*
X022726Y004366D02*
X022810Y004366D01*
X021309Y000811D02*
X021191Y000811D01*
X012716Y001404D02*
X006656Y001404D01*
X003053Y003892D02*
X002773Y003892D01*
X002831Y004011D02*
X002927Y004011D01*
X002872Y004129D02*
X002840Y004129D01*
M02*
