G75*
G70*
%OFA0B0*%
%FSLAX24Y24*%
%IPPOS*%
%LPD*%
%AMOC8*
5,1,8,0,0,1.08239X$1,22.5*
%
%ADD10C,0.0110*%
%ADD11OC8,0.0594*%
%ADD12C,0.0594*%
%ADD13OC8,0.0554*%
%ADD14C,0.0554*%
%ADD15R,0.0594X0.0594*%
%ADD16C,0.0554*%
%ADD17C,0.1000*%
%ADD18OC8,0.1000*%
%ADD19OC8,0.0630*%
%ADD20C,0.0630*%
%ADD21C,0.0827*%
%ADD22C,0.0650*%
%ADD23C,0.0160*%
%ADD24OC8,0.0475*%
%ADD25OC8,0.0945*%
%ADD26C,0.0240*%
%ADD27C,0.0400*%
%ADD28OC8,0.0531*%
D10*
X001060Y000696D02*
X001060Y001287D01*
X001257Y001287D02*
X000863Y001287D01*
X001508Y001188D02*
X001508Y000794D01*
X001606Y000696D01*
X001803Y000696D01*
X001901Y000794D01*
X001901Y001188D01*
X001803Y001287D01*
X001606Y001287D01*
X001508Y001188D01*
X002152Y001188D02*
X002152Y001090D01*
X002251Y000991D01*
X002546Y000991D01*
X002546Y000696D02*
X002546Y001287D01*
X002251Y001287D01*
X002152Y001188D01*
X002251Y000991D02*
X002152Y000893D01*
X002152Y000794D01*
X002251Y000696D01*
X002546Y000696D01*
D11*
X003511Y001041D03*
X003511Y002041D03*
X007511Y002041D03*
X009011Y002141D03*
X010111Y002141D03*
X009011Y001041D03*
X007511Y001041D03*
X013011Y001041D03*
X015511Y001041D03*
X015511Y002041D03*
X015511Y003041D03*
X016511Y004041D03*
X015511Y005141D03*
X015511Y006141D03*
X018511Y004041D03*
X019511Y005141D03*
X019511Y006141D03*
X019511Y003041D03*
X019511Y002041D03*
X019511Y001041D03*
X011011Y006051D03*
X010111Y004141D03*
X009011Y004141D03*
X003611Y007141D03*
X002611Y007141D03*
X002611Y008141D03*
X003611Y008141D03*
X003611Y009141D03*
X002611Y009141D03*
X002611Y010141D03*
X003611Y010141D03*
X003611Y011141D03*
X002611Y011141D03*
X002611Y012141D03*
X003611Y012141D03*
X005611Y013041D03*
X005611Y014041D03*
X003611Y014141D03*
X002611Y014141D03*
X002611Y013141D03*
X003611Y013141D03*
X003611Y015141D03*
X002611Y015141D03*
X003611Y016141D03*
X005611Y016041D03*
X005511Y020941D03*
X004511Y020941D03*
X003511Y020941D03*
X003511Y021941D03*
X004511Y021941D03*
X005511Y021941D03*
X015311Y022041D03*
X015311Y021041D03*
X015311Y020041D03*
X015311Y019041D03*
X019311Y019041D03*
X019311Y020041D03*
X019311Y021041D03*
X019311Y022041D03*
X021811Y017341D03*
X021811Y012341D03*
X011011Y010051D03*
X005611Y011041D03*
D12*
X011731Y014734D02*
X011731Y015328D01*
X013731Y015328D02*
X013731Y014734D01*
X020911Y016044D02*
X020911Y016638D01*
X022814Y016941D02*
X023408Y016941D01*
X023408Y015941D02*
X022814Y015941D01*
X022814Y014941D02*
X023408Y014941D01*
X023408Y013941D02*
X022814Y013941D01*
X022814Y012941D02*
X023408Y012941D01*
X023408Y011941D02*
X022814Y011941D01*
X020911Y012044D02*
X020911Y012638D01*
X014408Y010641D02*
X013814Y010641D01*
X013814Y009641D02*
X014408Y009641D01*
X014408Y008641D02*
X013814Y008641D01*
X013814Y007641D02*
X014408Y007641D01*
X015514Y008341D02*
X016108Y008341D01*
X015834Y007181D02*
X016428Y007181D01*
X014408Y006641D02*
X013814Y006641D01*
X013814Y005641D02*
X014408Y005641D01*
X018834Y007181D02*
X019428Y007181D01*
X019514Y008341D02*
X020108Y008341D01*
X014408Y002341D02*
X013814Y002341D01*
X013814Y001341D02*
X014408Y001341D01*
X007808Y002941D02*
X007214Y002941D01*
X003808Y002941D02*
X003214Y002941D01*
X001618Y019341D02*
X001024Y019341D01*
X005024Y019341D02*
X005618Y019341D01*
X006534Y020451D02*
X007128Y020451D01*
X009094Y020451D02*
X009688Y020451D01*
X009688Y022231D02*
X009094Y022231D01*
X007128Y022231D02*
X006534Y022231D01*
D13*
X010511Y021841D03*
X012111Y016891D03*
X011291Y013601D03*
X011291Y012601D03*
X013111Y013141D03*
X014041Y013601D03*
X014041Y012601D03*
X012111Y009391D03*
X013111Y005641D03*
X011811Y003741D03*
X011061Y003241D03*
X011811Y002741D03*
X020861Y004741D03*
X021611Y004241D03*
X021611Y005241D03*
X025111Y005641D03*
X024111Y009391D03*
X025111Y013141D03*
X024111Y016891D03*
X024711Y018791D03*
X024711Y019791D03*
D14*
X023611Y019218D02*
X023611Y018664D01*
X022611Y018664D02*
X022611Y019218D01*
X021611Y019218D02*
X021611Y018664D01*
X020611Y018664D02*
X020611Y019218D01*
X020611Y021664D02*
X020611Y022218D01*
X021611Y022218D02*
X021611Y021664D01*
X022611Y021664D02*
X022611Y022218D01*
X023611Y022218D02*
X023611Y021664D01*
X009988Y019041D02*
X009434Y019041D01*
X009434Y018041D02*
X009988Y018041D01*
X009988Y017041D02*
X009434Y017041D01*
X009434Y016041D02*
X009988Y016041D01*
X009988Y015041D02*
X009434Y015041D01*
X009434Y014041D02*
X009988Y014041D01*
X009988Y013041D02*
X009434Y013041D01*
X009434Y012041D02*
X009988Y012041D01*
X009988Y011041D02*
X009434Y011041D01*
X009434Y010041D02*
X009988Y010041D01*
X009988Y009041D02*
X009434Y009041D01*
X009434Y008041D02*
X009988Y008041D01*
X009988Y007041D02*
X009434Y007041D01*
X009434Y006041D02*
X009988Y006041D01*
X006988Y006041D02*
X006434Y006041D01*
X006434Y007041D02*
X006988Y007041D01*
X006988Y008041D02*
X006434Y008041D01*
X006434Y009041D02*
X006988Y009041D01*
X006988Y010041D02*
X006434Y010041D01*
X006434Y011041D02*
X006988Y011041D01*
X006988Y012041D02*
X006434Y012041D01*
X006434Y013041D02*
X006988Y013041D01*
X006988Y014041D02*
X006434Y014041D01*
X006434Y015041D02*
X006988Y015041D01*
X006988Y016041D02*
X006434Y016041D01*
X006434Y017041D02*
X006988Y017041D01*
X006988Y018041D02*
X006434Y018041D01*
X006434Y019041D02*
X006988Y019041D01*
X015234Y014141D02*
X015788Y014141D01*
X015788Y013141D02*
X015234Y013141D01*
X015234Y012141D02*
X015788Y012141D01*
X015788Y011141D02*
X015234Y011141D01*
X015234Y010141D02*
X015788Y010141D01*
X022834Y009741D02*
X023388Y009741D01*
X023388Y008741D02*
X022834Y008741D01*
X022834Y007741D02*
X023388Y007741D01*
X023388Y006741D02*
X022834Y006741D01*
X021688Y003041D02*
X021134Y003041D01*
X021134Y002041D02*
X021688Y002041D01*
X021688Y001041D02*
X021134Y001041D01*
X022834Y010741D02*
X023388Y010741D01*
D15*
X002611Y016141D03*
D16*
X010511Y020841D03*
X013111Y016891D03*
X012111Y013141D03*
X013111Y009391D03*
X012111Y005641D03*
X024111Y005641D03*
X025111Y009391D03*
X024111Y013141D03*
X025111Y016891D03*
D17*
X013811Y019441D03*
D18*
X011811Y019441D03*
D19*
X018361Y012641D03*
D20*
X018361Y011641D03*
D21*
X007987Y004141D02*
X007160Y004141D01*
X001987Y004141D02*
X001160Y004141D01*
D22*
X017027Y015716D02*
X017027Y016366D01*
X018995Y016366D02*
X018995Y015716D01*
D23*
X020111Y016041D02*
X020611Y015541D01*
X021711Y015541D01*
X022011Y015241D01*
X022011Y014341D01*
X022411Y013941D01*
X023111Y013941D01*
X024111Y013141D02*
X024111Y012941D01*
X023611Y012441D01*
X022611Y012441D01*
X022311Y012141D01*
X022311Y011841D01*
X022011Y011541D01*
X022011Y010341D01*
X022611Y009741D01*
X023111Y009741D01*
X022611Y009241D02*
X021211Y010641D01*
X014111Y010641D01*
X010811Y010641D01*
X010211Y010041D01*
X009711Y010041D01*
X009011Y010041D01*
X008511Y010541D01*
X005111Y010541D01*
X004711Y010941D01*
X004711Y011241D01*
X004311Y011641D01*
X003111Y011641D01*
X002611Y012141D01*
X002311Y012641D02*
X002011Y012341D01*
X002011Y010741D01*
X002611Y010141D01*
X003111Y010541D02*
X003211Y010541D01*
X003311Y010641D01*
X004411Y010641D01*
X004461Y010691D01*
X005111Y010041D01*
X006711Y010041D01*
X006211Y009541D02*
X007211Y009541D01*
X007811Y010141D01*
X007911Y010141D01*
X007911Y010881D02*
X007460Y010881D01*
X007485Y010942D01*
X007485Y011140D01*
X007460Y011201D01*
X007479Y011201D01*
X007603Y011253D01*
X009003Y012653D01*
X009089Y012739D01*
X009136Y012692D01*
X009194Y012650D01*
X009258Y012617D01*
X009327Y012595D01*
X009398Y012584D01*
X009702Y012584D01*
X009702Y013032D01*
X009719Y013032D01*
X009719Y012584D01*
X010024Y012584D01*
X010095Y012595D01*
X010164Y012617D01*
X010228Y012650D01*
X010286Y012692D01*
X010337Y012743D01*
X010379Y012801D01*
X010412Y012866D01*
X010434Y012934D01*
X010445Y013005D01*
X010445Y013032D01*
X009720Y013032D01*
X009720Y013050D01*
X010445Y013050D01*
X010445Y013077D01*
X010434Y013148D01*
X010412Y013217D01*
X010379Y013281D01*
X010337Y013339D01*
X010286Y013390D01*
X010228Y013432D01*
X010164Y013465D01*
X010095Y013487D01*
X010024Y013498D01*
X009719Y013498D01*
X009719Y013050D01*
X009702Y013050D01*
X009702Y013498D01*
X009398Y013498D01*
X009327Y013487D01*
X009258Y013465D01*
X009194Y013432D01*
X009151Y013401D01*
X009151Y013621D01*
X009152Y013620D01*
X009335Y013544D01*
X010087Y013544D01*
X010270Y013620D01*
X010351Y013701D01*
X010794Y013701D01*
X010794Y013395D01*
X011085Y013104D01*
X011497Y013104D01*
X011614Y013221D01*
X011614Y013042D01*
X011689Y012859D01*
X011829Y012720D01*
X012012Y012644D01*
X012210Y012644D01*
X012392Y012720D01*
X012532Y012859D01*
X012608Y013042D01*
X012608Y013240D01*
X012532Y013423D01*
X012392Y013563D01*
X012210Y013638D01*
X012012Y013638D01*
X011829Y013563D01*
X011788Y013521D01*
X011788Y013701D01*
X013243Y013701D01*
X013379Y013701D01*
X013503Y013753D01*
X013544Y013793D01*
X013544Y013411D01*
X013317Y013638D01*
X012905Y013638D01*
X012614Y013347D01*
X012614Y012935D01*
X012619Y012930D01*
X012418Y012729D01*
X012323Y012634D01*
X012323Y012634D01*
X012070Y012381D01*
X011717Y012381D01*
X011748Y012412D01*
X011748Y012592D01*
X011300Y012592D01*
X011300Y012610D01*
X011748Y012610D01*
X011748Y012790D01*
X011480Y013058D01*
X011299Y013058D01*
X011299Y012610D01*
X011282Y012610D01*
X011282Y013058D01*
X011101Y013058D01*
X010834Y012790D01*
X010834Y012610D01*
X011282Y012610D01*
X011282Y012592D01*
X010834Y012592D01*
X010834Y012412D01*
X010887Y012358D01*
X010818Y012329D01*
X010723Y012234D01*
X010485Y011996D01*
X010485Y012140D01*
X010409Y012323D01*
X010270Y012463D01*
X010087Y012538D01*
X009335Y012538D01*
X009152Y012463D01*
X009012Y012323D01*
X008937Y012140D01*
X008937Y011942D01*
X008962Y011881D01*
X008843Y011881D01*
X008718Y011829D01*
X008623Y011734D01*
X008229Y011340D01*
X008084Y011280D01*
X007972Y011168D01*
X007911Y011021D01*
X007911Y010881D01*
X007911Y010922D02*
X007477Y010922D01*
X007485Y011081D02*
X007936Y011081D01*
X008043Y011239D02*
X007570Y011239D01*
X007748Y011398D02*
X008287Y011398D01*
X008445Y011556D02*
X007907Y011556D01*
X008065Y011715D02*
X008604Y011715D01*
X008824Y011873D02*
X008224Y011873D01*
X008382Y012032D02*
X008937Y012032D01*
X008957Y012190D02*
X008541Y012190D01*
X008699Y012349D02*
X009038Y012349D01*
X008858Y012507D02*
X009261Y012507D01*
X009172Y012666D02*
X009017Y012666D01*
X008811Y012941D02*
X008811Y015741D01*
X009111Y016041D01*
X009711Y016041D01*
X010411Y016041D01*
X010511Y015941D01*
X015511Y015941D01*
X017111Y014441D01*
X017111Y013691D01*
X017792Y013142D02*
X021729Y013142D01*
X021571Y013300D02*
X017951Y013300D01*
X018109Y013459D02*
X021412Y013459D01*
X021254Y013617D02*
X018268Y013617D01*
X018426Y013776D02*
X021095Y013776D01*
X020937Y013934D02*
X018585Y013934D01*
X018652Y014001D02*
X017099Y012449D01*
X017003Y012353D01*
X016879Y012301D01*
X016260Y012301D01*
X016285Y012240D01*
X016285Y012042D01*
X016260Y011981D01*
X017944Y011981D01*
X018058Y012095D01*
X018182Y012146D01*
X018156Y012146D01*
X017866Y012436D01*
X017866Y012632D01*
X018352Y012632D01*
X018352Y012650D01*
X018352Y013136D01*
X018156Y013136D01*
X017866Y012846D01*
X017866Y012650D01*
X018352Y012650D01*
X018369Y012650D01*
X018369Y013136D01*
X018566Y013136D01*
X018856Y012846D01*
X018856Y012650D01*
X018370Y012650D01*
X018370Y012632D01*
X018856Y012632D01*
X018856Y012436D01*
X018566Y012146D01*
X018540Y012146D01*
X018664Y012095D01*
X018774Y011985D01*
X018826Y011963D01*
X018918Y011871D01*
X020466Y011871D01*
X020446Y011933D01*
X020434Y012007D01*
X020434Y012323D01*
X020892Y012323D01*
X020892Y012360D01*
X020892Y013115D01*
X020873Y013115D01*
X020799Y013103D01*
X020728Y013080D01*
X020661Y013046D01*
X020600Y013002D01*
X020547Y012949D01*
X020503Y012888D01*
X020469Y012821D01*
X020446Y012750D01*
X020434Y012675D01*
X020434Y012360D01*
X020892Y012360D01*
X020929Y012360D01*
X020929Y013115D01*
X020948Y013115D01*
X021023Y013103D01*
X021094Y013080D01*
X021161Y013046D01*
X021221Y013002D01*
X021275Y012949D01*
X021319Y012888D01*
X021353Y012821D01*
X021376Y012750D01*
X021388Y012675D01*
X021388Y012649D01*
X021597Y012858D01*
X022013Y012858D01*
X020870Y014001D01*
X018652Y014001D01*
X018511Y014341D02*
X016811Y012641D01*
X015011Y012641D01*
X014411Y012041D01*
X013011Y012041D01*
X012611Y012441D01*
X012211Y012041D01*
X011011Y012041D01*
X010511Y011541D01*
X008911Y011541D01*
X008311Y010941D01*
X007411Y011541D02*
X008811Y012941D01*
X008411Y013341D02*
X008411Y016641D01*
X008811Y017041D01*
X009711Y017041D01*
X012011Y017041D01*
X012111Y016941D01*
X012111Y016891D01*
X012111Y016641D01*
X012411Y016341D01*
X013411Y016341D01*
X014211Y017141D01*
X019811Y017141D01*
X020111Y016841D01*
X020111Y016041D01*
X020711Y017541D02*
X022311Y015941D01*
X023111Y015941D01*
X023811Y015941D01*
X024111Y016241D01*
X024111Y016891D01*
X024441Y017264D02*
X024780Y017264D01*
X024829Y017313D02*
X024689Y017173D01*
X024614Y016990D01*
X024614Y016792D01*
X024689Y016609D01*
X024829Y016470D01*
X025012Y016394D01*
X025210Y016394D01*
X025392Y016470D01*
X025532Y016609D01*
X025608Y016792D01*
X025608Y016990D01*
X025532Y017173D01*
X025392Y017313D01*
X025210Y017388D01*
X025012Y017388D01*
X024829Y017313D01*
X024661Y017105D02*
X024600Y017105D01*
X024608Y017097D02*
X024608Y016685D01*
X024451Y016528D01*
X024451Y016309D01*
X024451Y016173D01*
X024399Y016049D01*
X024099Y015749D01*
X024003Y015653D01*
X023879Y015601D01*
X023799Y015601D01*
X023700Y015503D01*
X023551Y015441D01*
X023700Y015379D01*
X023846Y015234D01*
X023879Y015154D01*
X023899Y015134D01*
X025399Y013634D01*
X025451Y013509D01*
X025451Y013504D01*
X025608Y013347D01*
X025608Y013125D01*
X026181Y012551D01*
X026181Y020612D01*
X026055Y020486D01*
X025797Y020337D01*
X025510Y020260D01*
X025212Y020260D01*
X024924Y020337D01*
X024666Y020486D01*
X024456Y020697D01*
X024307Y020954D01*
X024230Y021242D01*
X024230Y021540D01*
X024307Y021828D01*
X024456Y022086D01*
X024666Y022296D01*
X024924Y022445D01*
X025061Y022482D01*
X024040Y022482D01*
X024108Y022317D01*
X024108Y021565D01*
X024032Y021382D01*
X023892Y021242D01*
X023710Y021167D01*
X023512Y021167D01*
X023329Y021242D01*
X023189Y021382D01*
X023114Y021565D01*
X023114Y022317D01*
X023182Y022482D01*
X023040Y022482D01*
X023108Y022317D01*
X023108Y021565D01*
X023032Y021382D01*
X022892Y021242D01*
X022710Y021167D01*
X022512Y021167D01*
X022329Y021242D01*
X022189Y021382D01*
X022114Y021565D01*
X022114Y022317D01*
X022182Y022482D01*
X022040Y022482D01*
X022108Y022317D01*
X022108Y021565D01*
X022032Y021382D01*
X021892Y021242D01*
X021710Y021167D01*
X021512Y021167D01*
X021329Y021242D01*
X021189Y021382D01*
X021114Y021565D01*
X021114Y021601D01*
X021108Y021601D01*
X021108Y021565D01*
X021032Y021382D01*
X020951Y021301D01*
X020951Y019581D01*
X021032Y019500D01*
X021108Y019317D01*
X021108Y018565D01*
X021032Y018382D01*
X020931Y018281D01*
X021291Y018281D01*
X021189Y018382D01*
X021114Y018565D01*
X021114Y019317D01*
X021189Y019500D01*
X021329Y019640D01*
X021512Y019715D01*
X021710Y019715D01*
X021892Y019640D01*
X022032Y019500D01*
X022108Y019317D01*
X022108Y018565D01*
X022032Y018382D01*
X021931Y018281D01*
X022291Y018281D01*
X022189Y018382D01*
X022114Y018565D01*
X022114Y019317D01*
X022189Y019500D01*
X022271Y019581D01*
X022271Y019609D01*
X022323Y019734D01*
X022723Y020134D01*
X022818Y020229D01*
X022943Y020281D01*
X024493Y020281D01*
X024498Y020281D01*
X024505Y020288D01*
X024917Y020288D01*
X025208Y019997D01*
X025208Y019585D01*
X024917Y019294D01*
X024505Y019294D01*
X024214Y019585D01*
X024214Y019601D01*
X023862Y019601D01*
X023909Y019567D01*
X023960Y019516D01*
X024002Y019458D01*
X024034Y019394D01*
X024057Y019325D01*
X024474Y019325D01*
X024521Y019248D02*
X024254Y018980D01*
X024254Y018800D01*
X024702Y018800D01*
X024702Y019248D01*
X024521Y019248D01*
X024440Y019166D02*
X024068Y019166D01*
X024068Y019254D02*
X024068Y018950D01*
X023620Y018950D01*
X023620Y018932D01*
X024068Y018932D01*
X024068Y018628D01*
X024057Y018557D01*
X024034Y018488D01*
X024002Y018424D01*
X023960Y018366D01*
X023909Y018315D01*
X023850Y018273D01*
X023786Y018240D01*
X023718Y018218D01*
X023647Y018207D01*
X023619Y018207D01*
X023619Y018932D01*
X023602Y018932D01*
X023602Y018207D01*
X023575Y018207D01*
X023504Y018218D01*
X023435Y018240D01*
X023371Y018273D01*
X023313Y018315D01*
X023262Y018366D01*
X023220Y018424D01*
X023187Y018488D01*
X023165Y018557D01*
X023154Y018628D01*
X023154Y018932D01*
X023602Y018932D01*
X023602Y018950D01*
X023154Y018950D01*
X023154Y019254D01*
X023165Y019325D01*
X023105Y019325D01*
X023108Y019317D02*
X023038Y019487D01*
X023152Y019601D01*
X023360Y019601D01*
X023313Y019567D01*
X023262Y019516D01*
X023220Y019458D01*
X023187Y019394D01*
X023165Y019325D01*
X023108Y019317D02*
X023108Y018565D01*
X023032Y018382D01*
X022892Y018242D01*
X022882Y018238D01*
X022903Y018229D01*
X022999Y018134D01*
X023399Y017734D01*
X023451Y017609D01*
X023451Y017473D01*
X023451Y017458D01*
X023511Y017458D01*
X023700Y017379D01*
X023798Y017281D01*
X023905Y017388D01*
X024317Y017388D01*
X024608Y017097D01*
X024608Y016947D02*
X024614Y016947D01*
X024608Y016788D02*
X024615Y016788D01*
X024552Y016630D02*
X024681Y016630D01*
X024828Y016471D02*
X024451Y016471D01*
X024451Y016313D02*
X026181Y016313D01*
X026181Y016471D02*
X025394Y016471D01*
X025541Y016630D02*
X026181Y016630D01*
X026181Y016788D02*
X025606Y016788D01*
X025608Y016947D02*
X026181Y016947D01*
X026181Y017105D02*
X025560Y017105D01*
X025441Y017264D02*
X026181Y017264D01*
X026181Y017422D02*
X023596Y017422D01*
X023451Y017581D02*
X026181Y017581D01*
X026181Y017739D02*
X023393Y017739D01*
X023235Y017898D02*
X026181Y017898D01*
X026181Y018056D02*
X023076Y018056D01*
X022918Y018215D02*
X023523Y018215D01*
X023602Y018215D02*
X023619Y018215D01*
X023699Y018215D02*
X026181Y018215D01*
X026181Y018374D02*
X024940Y018374D01*
X024900Y018334D02*
X025168Y018602D01*
X025168Y018782D01*
X024720Y018782D01*
X024720Y018800D01*
X025168Y018800D01*
X025168Y018980D01*
X024900Y019248D01*
X024719Y019248D01*
X024719Y018800D01*
X024702Y018800D01*
X024702Y018782D01*
X024719Y018782D01*
X024719Y018334D01*
X024900Y018334D01*
X024719Y018374D02*
X024702Y018374D01*
X024702Y018334D02*
X024702Y018782D01*
X024254Y018782D01*
X024254Y018602D01*
X024521Y018334D01*
X024702Y018334D01*
X024702Y018532D02*
X024719Y018532D01*
X024702Y018691D02*
X024719Y018691D01*
X024711Y018791D02*
X023761Y018791D01*
X023611Y018941D01*
X023602Y018849D02*
X023619Y018849D01*
X023602Y018691D02*
X023619Y018691D01*
X023602Y018532D02*
X023619Y018532D01*
X023602Y018374D02*
X023619Y018374D01*
X023965Y018374D02*
X024482Y018374D01*
X024323Y018532D02*
X024049Y018532D01*
X024068Y018691D02*
X024254Y018691D01*
X024254Y018849D02*
X024068Y018849D01*
X024068Y019008D02*
X024281Y019008D01*
X024068Y019254D02*
X024057Y019325D01*
X023983Y019483D02*
X024315Y019483D01*
X024711Y019791D02*
X024561Y019941D01*
X023011Y019941D01*
X022611Y019541D01*
X022611Y018941D01*
X023108Y019008D02*
X023154Y019008D01*
X023154Y019166D02*
X023108Y019166D01*
X023108Y018849D02*
X023154Y018849D01*
X023154Y018691D02*
X023108Y018691D01*
X023094Y018532D02*
X023173Y018532D01*
X023257Y018374D02*
X023024Y018374D01*
X022711Y017941D02*
X020511Y017941D01*
X020011Y018441D01*
X020011Y020041D01*
X020011Y021641D01*
X019711Y021941D01*
X019311Y022041D01*
X018794Y022020D02*
X018571Y022020D01*
X018729Y022179D02*
X018794Y022179D01*
X018794Y022244D02*
X018794Y021827D01*
X019080Y021541D01*
X018794Y021255D01*
X018794Y020827D01*
X019080Y020541D01*
X018794Y020255D01*
X018794Y019827D01*
X019097Y019524D01*
X019525Y019524D01*
X019671Y019670D01*
X019671Y019355D01*
X019508Y019518D01*
X019329Y019518D01*
X019329Y019060D01*
X019292Y019060D01*
X019292Y019518D01*
X019113Y019518D01*
X018834Y019239D01*
X018834Y019060D01*
X019292Y019060D01*
X019292Y019023D01*
X018834Y019023D01*
X018834Y018844D01*
X019113Y018564D01*
X019292Y018564D01*
X019292Y019022D01*
X019329Y019022D01*
X019329Y018564D01*
X019508Y018564D01*
X019671Y018727D01*
X019671Y018373D01*
X019723Y018249D01*
X019818Y018153D01*
X020090Y017881D01*
X010460Y017881D01*
X010485Y017942D01*
X010485Y018140D01*
X010460Y018201D01*
X013443Y018201D01*
X013579Y018201D01*
X013703Y018253D01*
X014003Y018553D01*
X014099Y018649D01*
X014151Y018773D01*
X014151Y018803D01*
X014219Y018831D01*
X014421Y019033D01*
X014531Y019298D01*
X014531Y019584D01*
X014421Y019849D01*
X014219Y020051D01*
X013954Y020161D01*
X013668Y020161D01*
X013403Y020051D01*
X013200Y019849D01*
X013091Y019584D01*
X013091Y019298D01*
X013200Y019033D01*
X013353Y018881D01*
X012212Y018881D01*
X012491Y019159D01*
X012491Y019413D01*
X011839Y019413D01*
X011839Y019469D01*
X012491Y019469D01*
X012491Y019723D01*
X012092Y020121D01*
X011839Y020121D01*
X011839Y019470D01*
X011783Y019470D01*
X011783Y020121D01*
X011529Y020121D01*
X011131Y019723D01*
X011131Y019469D01*
X011782Y019469D01*
X011782Y019413D01*
X011131Y019413D01*
X011131Y019159D01*
X011409Y018881D01*
X010532Y018881D01*
X010703Y019053D01*
X010703Y019053D01*
X010799Y019149D01*
X010851Y019273D01*
X010851Y020478D01*
X010932Y020559D01*
X011008Y020742D01*
X011008Y020940D01*
X010932Y021123D01*
X010792Y021263D01*
X010610Y021338D01*
X010412Y021338D01*
X010258Y021275D01*
X009810Y021722D01*
X009980Y021793D01*
X010014Y021826D01*
X010014Y021635D01*
X010305Y021344D01*
X010717Y021344D01*
X011008Y021635D01*
X011008Y021701D01*
X014920Y021701D01*
X015080Y021541D01*
X014794Y021255D01*
X014794Y020827D01*
X015080Y020541D01*
X014794Y020255D01*
X014794Y019827D01*
X015080Y019541D01*
X014794Y019255D01*
X014794Y018827D01*
X015097Y018524D01*
X015525Y018524D01*
X015828Y018827D01*
X015828Y019255D01*
X015542Y019541D01*
X015828Y019827D01*
X015828Y020255D01*
X015542Y020541D01*
X015702Y020701D01*
X017043Y020701D01*
X017179Y020701D01*
X017303Y020753D01*
X018794Y022244D01*
X018794Y021862D02*
X018412Y021862D01*
X018254Y021703D02*
X018918Y021703D01*
X019077Y021544D02*
X018095Y021544D01*
X017936Y021386D02*
X018925Y021386D01*
X018794Y021227D02*
X017778Y021227D01*
X017619Y021069D02*
X018794Y021069D01*
X018794Y020910D02*
X017461Y020910D01*
X017301Y020752D02*
X018869Y020752D01*
X019028Y020593D02*
X015594Y020593D01*
X015648Y020435D02*
X018974Y020435D01*
X018815Y020276D02*
X015807Y020276D01*
X015828Y020118D02*
X018794Y020118D01*
X018794Y019959D02*
X015828Y019959D01*
X015801Y019800D02*
X018821Y019800D01*
X018979Y019642D02*
X015643Y019642D01*
X015599Y019483D02*
X019079Y019483D01*
X019292Y019483D02*
X019329Y019483D01*
X019329Y019325D02*
X019292Y019325D01*
X019292Y019166D02*
X019329Y019166D01*
X019311Y019041D02*
X018811Y019041D01*
X018311Y019541D01*
X015011Y019541D01*
X014211Y020341D01*
X012011Y020341D01*
X011811Y020141D01*
X011811Y019441D01*
X011783Y019483D02*
X011839Y019483D01*
X011839Y019642D02*
X011783Y019642D01*
X011783Y019800D02*
X011839Y019800D01*
X011839Y019959D02*
X011783Y019959D01*
X011783Y020118D02*
X011839Y020118D01*
X012096Y020118D02*
X013563Y020118D01*
X013311Y019959D02*
X012255Y019959D01*
X012413Y019800D02*
X013180Y019800D01*
X013115Y019642D02*
X012491Y019642D01*
X012491Y019483D02*
X013091Y019483D01*
X013091Y019325D02*
X012491Y019325D01*
X012491Y019166D02*
X013145Y019166D01*
X013226Y019008D02*
X012339Y019008D01*
X013511Y018541D02*
X013811Y018841D01*
X013811Y019441D01*
X014476Y019166D02*
X014794Y019166D01*
X014794Y019008D02*
X014396Y019008D01*
X014237Y018849D02*
X014794Y018849D01*
X014930Y018691D02*
X014116Y018691D01*
X013983Y018532D02*
X015089Y018532D01*
X015533Y018532D02*
X019671Y018532D01*
X019671Y018374D02*
X013824Y018374D01*
X013612Y018215D02*
X019756Y018215D01*
X019915Y018056D02*
X010485Y018056D01*
X010467Y017898D02*
X020073Y017898D01*
X020711Y017541D02*
X008011Y017541D01*
X008011Y013941D01*
X007611Y013541D01*
X004711Y013541D01*
X004611Y013641D01*
X003111Y013641D01*
X002611Y013141D01*
X002311Y012641D02*
X004611Y012641D01*
X004711Y012541D01*
X007611Y012541D01*
X008411Y013341D01*
X009151Y013459D02*
X009246Y013459D01*
X009158Y013617D02*
X009151Y013617D01*
X009702Y013459D02*
X009719Y013459D01*
X009702Y013300D02*
X009719Y013300D01*
X009702Y013142D02*
X009719Y013142D01*
X009711Y013041D02*
X010311Y013041D01*
X010811Y012541D01*
X011111Y012541D01*
X011121Y012551D01*
X011291Y012601D01*
X011282Y012666D02*
X011299Y012666D01*
X011282Y012825D02*
X011299Y012825D01*
X011282Y012983D02*
X011299Y012983D01*
X011555Y012983D02*
X011638Y012983D01*
X011614Y013142D02*
X011534Y013142D01*
X011047Y013142D02*
X010435Y013142D01*
X010442Y012983D02*
X011026Y012983D01*
X010868Y012825D02*
X010391Y012825D01*
X010250Y012666D02*
X010834Y012666D01*
X010834Y012507D02*
X010161Y012507D01*
X010383Y012349D02*
X010866Y012349D01*
X010679Y012190D02*
X010464Y012190D01*
X010485Y012032D02*
X010521Y012032D01*
X011211Y011591D02*
X011611Y011591D01*
X011661Y011641D01*
X018361Y011641D01*
X018727Y012032D02*
X020434Y012032D01*
X020434Y012190D02*
X018610Y012190D01*
X018769Y012349D02*
X020892Y012349D01*
X020911Y012341D02*
X020211Y012341D01*
X019911Y012641D01*
X018361Y012641D01*
X018352Y012666D02*
X018369Y012666D01*
X018352Y012825D02*
X018369Y012825D01*
X018352Y012983D02*
X018369Y012983D01*
X018719Y012983D02*
X020582Y012983D01*
X020471Y012825D02*
X018856Y012825D01*
X018856Y012666D02*
X020434Y012666D01*
X020434Y012507D02*
X018856Y012507D01*
X018112Y012190D02*
X016285Y012190D01*
X016281Y012032D02*
X017995Y012032D01*
X017953Y012349D02*
X016994Y012349D01*
X017158Y012507D02*
X017866Y012507D01*
X017866Y012666D02*
X017317Y012666D01*
X017475Y012825D02*
X017866Y012825D01*
X018003Y012983D02*
X017634Y012983D01*
X018916Y011873D02*
X020465Y011873D01*
X020892Y012507D02*
X020929Y012507D01*
X020929Y012666D02*
X020892Y012666D01*
X020892Y012825D02*
X020929Y012825D01*
X020929Y012983D02*
X020892Y012983D01*
X021240Y012983D02*
X021888Y012983D01*
X021563Y012825D02*
X021351Y012825D01*
X021388Y012666D02*
X021405Y012666D01*
X022411Y012941D02*
X021011Y014341D01*
X018511Y014341D01*
X015511Y013141D02*
X014711Y013941D01*
X014711Y015141D01*
X014411Y015441D01*
X013731Y015031D02*
X013731Y014961D01*
X013711Y014941D01*
X013711Y014441D01*
X013311Y014041D01*
X009711Y014041D01*
X010264Y013617D02*
X010794Y013617D01*
X010794Y013459D02*
X010175Y013459D01*
X010365Y013300D02*
X010889Y013300D01*
X011714Y012825D02*
X011724Y012825D01*
X011748Y012666D02*
X011959Y012666D01*
X011748Y012507D02*
X012196Y012507D01*
X012263Y012666D02*
X012355Y012666D01*
X012418Y012729D02*
X012418Y012729D01*
X012497Y012825D02*
X012514Y012825D01*
X012584Y012983D02*
X012614Y012983D01*
X012608Y013142D02*
X012614Y013142D01*
X012614Y013300D02*
X012583Y013300D01*
X012496Y013459D02*
X012725Y013459D01*
X012884Y013617D02*
X012260Y013617D01*
X011961Y013617D02*
X011788Y013617D01*
X012711Y014441D02*
X012711Y015041D01*
X013111Y015441D01*
X011721Y015081D02*
X011721Y015041D01*
X011731Y015041D01*
X011731Y015031D01*
X011711Y015031D02*
X011611Y015041D01*
X011711Y015041D01*
X011721Y015081D01*
X011711Y015031D01*
X011611Y015041D02*
X009711Y015041D01*
X007548Y014541D02*
X004011Y014541D01*
X003611Y014141D01*
X003611Y015141D02*
X004011Y015541D01*
X007211Y015541D01*
X007611Y015941D01*
X007611Y017141D01*
X007211Y017541D01*
X006211Y017541D01*
X005911Y017841D01*
X005911Y018341D01*
X006111Y018541D01*
X007211Y018541D01*
X007711Y019041D01*
X009711Y019041D01*
X010211Y019041D01*
X010511Y019341D01*
X010511Y020841D01*
X010211Y020841D01*
X009411Y021641D01*
X009411Y022141D01*
X009391Y022161D01*
X009391Y022231D01*
X009401Y022231D01*
X009411Y022241D01*
X009391Y022231D02*
X006831Y022231D01*
X006173Y021862D02*
X005988Y021862D01*
X005988Y021923D02*
X005530Y021923D01*
X005530Y021960D01*
X005988Y021960D01*
X005988Y022139D01*
X005708Y022418D01*
X005529Y022418D01*
X005529Y021960D01*
X005492Y021960D01*
X005492Y022418D01*
X005313Y022418D01*
X005034Y022139D01*
X005034Y021960D01*
X005492Y021960D01*
X005492Y021923D01*
X005034Y021923D01*
X005034Y021744D01*
X005313Y021464D01*
X005492Y021464D01*
X005492Y021922D01*
X005529Y021922D01*
X005529Y021464D01*
X005708Y021464D01*
X005988Y021744D01*
X005988Y021923D01*
X005911Y021941D02*
X005511Y021941D01*
X005492Y022020D02*
X005529Y022020D01*
X005529Y021862D02*
X005492Y021862D01*
X005492Y021703D02*
X005529Y021703D01*
X005529Y021544D02*
X005492Y021544D01*
X005297Y021458D02*
X005011Y021172D01*
X004742Y021441D01*
X005028Y021727D01*
X005028Y022155D01*
X004725Y022458D01*
X004297Y022458D01*
X004011Y022172D01*
X003725Y022458D01*
X003297Y022458D01*
X002994Y022155D01*
X002994Y021727D01*
X003280Y021441D01*
X002994Y021155D01*
X002994Y020727D01*
X003140Y020581D01*
X002690Y020581D01*
X002592Y020679D01*
X002498Y020679D01*
X002516Y020697D01*
X002665Y020954D01*
X002742Y021242D01*
X002742Y021540D01*
X002665Y021828D01*
X002516Y022086D01*
X002305Y022296D01*
X002047Y022445D01*
X001911Y022482D01*
X006078Y022482D01*
X006017Y022334D01*
X006017Y022128D01*
X006096Y021938D01*
X006241Y021793D01*
X006431Y021714D01*
X007231Y021714D01*
X007420Y021793D01*
X007519Y021891D01*
X008703Y021891D01*
X008801Y021793D01*
X008991Y021714D01*
X009071Y021714D01*
X009071Y021573D01*
X009123Y021449D01*
X009218Y021353D01*
X009643Y020928D01*
X009409Y020928D01*
X009409Y020470D01*
X009372Y020470D01*
X009372Y020928D01*
X009056Y020928D01*
X008982Y020916D01*
X008911Y020893D01*
X008844Y020859D01*
X008783Y020815D01*
X008730Y020762D01*
X008686Y020701D01*
X008652Y020634D01*
X008629Y020563D01*
X008617Y020489D01*
X008617Y020470D01*
X009372Y020470D01*
X009372Y020433D01*
X008617Y020433D01*
X008617Y020414D01*
X008629Y020339D01*
X008652Y020268D01*
X008686Y020201D01*
X008730Y020140D01*
X008783Y020087D01*
X008844Y020043D01*
X008911Y020009D01*
X008982Y019986D01*
X009056Y019974D01*
X009372Y019974D01*
X009372Y020432D01*
X009409Y020432D01*
X009409Y019974D01*
X009725Y019974D01*
X009799Y019986D01*
X009871Y020009D01*
X009938Y020043D01*
X009998Y020087D01*
X010051Y020140D01*
X010096Y020201D01*
X010130Y020268D01*
X010153Y020339D01*
X010165Y020414D01*
X010165Y020433D01*
X009410Y020433D01*
X009410Y020470D01*
X010165Y020470D01*
X010165Y020484D01*
X010171Y020478D01*
X010171Y019503D01*
X010087Y019538D01*
X009335Y019538D01*
X009152Y019463D01*
X009071Y019381D01*
X007643Y019381D01*
X007518Y019329D01*
X007439Y019250D01*
X007409Y019323D01*
X007270Y019463D01*
X007087Y019538D01*
X006644Y019538D01*
X006149Y020034D01*
X006053Y020129D01*
X005929Y020181D01*
X005632Y020181D01*
X005703Y020253D01*
X005799Y020349D01*
X005851Y020473D01*
X005851Y020550D01*
X006028Y020727D01*
X006028Y021155D01*
X005725Y021458D01*
X005297Y021458D01*
X005225Y021386D02*
X004797Y021386D01*
X004845Y021544D02*
X005233Y021544D01*
X005075Y021703D02*
X005004Y021703D01*
X005028Y021862D02*
X005034Y021862D01*
X005028Y022020D02*
X005034Y022020D01*
X005004Y022179D02*
X005074Y022179D01*
X005233Y022337D02*
X004846Y022337D01*
X005492Y022337D02*
X005529Y022337D01*
X005529Y022179D02*
X005492Y022179D01*
X005789Y022337D02*
X006019Y022337D01*
X006017Y022179D02*
X005948Y022179D01*
X005988Y022020D02*
X006062Y022020D01*
X005911Y021941D02*
X006831Y021021D01*
X006831Y020451D01*
X006850Y020435D02*
X009372Y020435D01*
X009410Y020435D02*
X010171Y020435D01*
X010171Y020276D02*
X010132Y020276D01*
X010171Y020118D02*
X010029Y020118D01*
X010171Y019959D02*
X006224Y019959D01*
X006284Y020043D02*
X006351Y020009D01*
X006422Y019986D01*
X006496Y019974D01*
X006812Y019974D01*
X006812Y020432D01*
X006849Y020432D01*
X006849Y019974D01*
X007165Y019974D01*
X007239Y019986D01*
X007311Y020009D01*
X007378Y020043D01*
X007438Y020087D01*
X007491Y020140D01*
X007536Y020201D01*
X007570Y020268D01*
X007593Y020339D01*
X007605Y020414D01*
X007605Y020433D01*
X006850Y020433D01*
X006850Y020470D01*
X007605Y020470D01*
X007605Y020489D01*
X007593Y020563D01*
X007570Y020634D01*
X007536Y020701D01*
X007491Y020762D01*
X007438Y020815D01*
X007378Y020859D01*
X007311Y020893D01*
X007239Y020916D01*
X007165Y020928D01*
X006849Y020928D01*
X006849Y020470D01*
X006812Y020470D01*
X006812Y020928D01*
X006496Y020928D01*
X006422Y020916D01*
X006351Y020893D01*
X006284Y020859D01*
X006223Y020815D01*
X006170Y020762D01*
X006126Y020701D01*
X006092Y020634D01*
X006069Y020563D01*
X006057Y020489D01*
X006057Y020470D01*
X006812Y020470D01*
X006812Y020433D01*
X006057Y020433D01*
X006057Y020414D01*
X006069Y020339D01*
X006092Y020268D01*
X006126Y020201D01*
X006170Y020140D01*
X006223Y020087D01*
X006284Y020043D01*
X006193Y020118D02*
X006065Y020118D01*
X006149Y020034D02*
X006149Y020034D01*
X006089Y020276D02*
X005727Y020276D01*
X005835Y020435D02*
X006812Y020435D01*
X006812Y020593D02*
X006849Y020593D01*
X006849Y020752D02*
X006812Y020752D01*
X006812Y020910D02*
X006849Y020910D01*
X007258Y020910D02*
X008964Y020910D01*
X008723Y020752D02*
X007499Y020752D01*
X007583Y020593D02*
X008639Y020593D01*
X008649Y020276D02*
X007572Y020276D01*
X007469Y020118D02*
X008753Y020118D01*
X009372Y020118D02*
X009409Y020118D01*
X009409Y020276D02*
X009372Y020276D01*
X009372Y020593D02*
X009409Y020593D01*
X009409Y020752D02*
X009372Y020752D01*
X009372Y020910D02*
X009409Y020910D01*
X009502Y021069D02*
X006028Y021069D01*
X006028Y020910D02*
X006404Y020910D01*
X006163Y020752D02*
X006028Y020752D01*
X006079Y020593D02*
X005894Y020593D01*
X005511Y020541D02*
X005511Y020941D01*
X005955Y021227D02*
X009344Y021227D01*
X009185Y021386D02*
X005797Y021386D01*
X005789Y021544D02*
X009083Y021544D01*
X009071Y021703D02*
X005947Y021703D01*
X005066Y021227D02*
X004955Y021227D01*
X005511Y020541D02*
X005211Y020241D01*
X002411Y020241D01*
X002677Y020593D02*
X003128Y020593D01*
X002994Y020752D02*
X002548Y020752D01*
X002639Y020910D02*
X002994Y020910D01*
X002994Y021069D02*
X002696Y021069D01*
X002738Y021227D02*
X003066Y021227D01*
X003225Y021386D02*
X002742Y021386D01*
X002741Y021544D02*
X003177Y021544D01*
X003018Y021703D02*
X002698Y021703D01*
X002645Y021862D02*
X002994Y021862D01*
X002994Y022020D02*
X002554Y022020D01*
X002423Y022179D02*
X003017Y022179D01*
X003176Y022337D02*
X002235Y022337D01*
X003846Y022337D02*
X004176Y022337D01*
X004017Y022179D02*
X004004Y022179D01*
X006812Y020276D02*
X006849Y020276D01*
X006849Y020118D02*
X006812Y020118D01*
X006382Y019800D02*
X010171Y019800D01*
X010171Y019642D02*
X006541Y019642D01*
X006661Y019041D02*
X005861Y019841D01*
X002811Y019841D01*
X002461Y019491D01*
X002461Y018691D01*
X001511Y017741D01*
X001511Y017341D01*
X001176Y017057D02*
X001330Y016904D01*
X001692Y016904D01*
X001948Y017160D01*
X001948Y017522D01*
X001861Y017610D01*
X002653Y018403D01*
X002749Y018499D01*
X002801Y018623D01*
X002801Y019350D01*
X002952Y019501D01*
X004531Y019501D01*
X004507Y019444D01*
X004507Y019238D01*
X004586Y019048D01*
X004731Y018903D01*
X004921Y018824D01*
X005721Y018824D01*
X005910Y018903D01*
X005940Y018933D01*
X005974Y018852D01*
X005918Y018829D01*
X005823Y018734D01*
X005623Y018534D01*
X005571Y018409D01*
X005571Y018273D01*
X005571Y017773D01*
X005623Y017649D01*
X005718Y017553D01*
X005890Y017381D01*
X003643Y017381D01*
X003518Y017329D01*
X003423Y017234D01*
X002847Y016658D01*
X002223Y016658D01*
X002094Y016529D01*
X002094Y016481D01*
X001176Y016481D01*
X001176Y017057D01*
X001176Y016947D02*
X001287Y016947D01*
X001176Y016788D02*
X002977Y016788D01*
X003136Y016947D02*
X001735Y016947D01*
X001894Y017105D02*
X003294Y017105D01*
X003453Y017264D02*
X001948Y017264D01*
X001948Y017422D02*
X005849Y017422D01*
X005690Y017581D02*
X001890Y017581D01*
X001990Y017739D02*
X005585Y017739D01*
X005571Y017898D02*
X002149Y017898D01*
X002307Y018056D02*
X005571Y018056D01*
X005571Y018215D02*
X002466Y018215D01*
X002624Y018374D02*
X005571Y018374D01*
X005622Y018532D02*
X002763Y018532D01*
X002801Y018691D02*
X005780Y018691D01*
X005781Y018849D02*
X005966Y018849D01*
X006661Y019041D02*
X006711Y019041D01*
X007407Y019325D02*
X007514Y019325D01*
X007219Y019483D02*
X009202Y019483D01*
X008411Y018541D02*
X013511Y018541D01*
X014531Y019325D02*
X014864Y019325D01*
X015022Y019483D02*
X014531Y019483D01*
X014507Y019642D02*
X014979Y019642D01*
X014821Y019800D02*
X014441Y019800D01*
X014311Y019959D02*
X014794Y019959D01*
X014794Y020118D02*
X014059Y020118D01*
X014815Y020276D02*
X010851Y020276D01*
X010851Y020118D02*
X011526Y020118D01*
X011367Y019959D02*
X010851Y019959D01*
X010851Y019800D02*
X011209Y019800D01*
X011131Y019642D02*
X010851Y019642D01*
X010851Y019483D02*
X011131Y019483D01*
X011131Y019325D02*
X010851Y019325D01*
X010806Y019166D02*
X011131Y019166D01*
X011283Y019008D02*
X010658Y019008D01*
X010851Y020435D02*
X014974Y020435D01*
X015028Y020593D02*
X010946Y020593D01*
X011008Y020752D02*
X014869Y020752D01*
X014794Y020910D02*
X011008Y020910D01*
X010955Y021069D02*
X014794Y021069D01*
X014794Y021227D02*
X010828Y021227D01*
X010759Y021386D02*
X014925Y021386D01*
X015077Y021544D02*
X010917Y021544D01*
X010263Y021386D02*
X010147Y021386D01*
X010104Y021544D02*
X009988Y021544D01*
X010014Y021703D02*
X009830Y021703D01*
X010511Y021841D02*
X010711Y022041D01*
X015311Y022041D01*
X015311Y021041D02*
X017111Y021041D01*
X018811Y022741D01*
X020311Y022741D01*
X020611Y022441D01*
X020611Y022141D01*
X020711Y022041D01*
X020611Y021941D01*
X020611Y018941D01*
X021108Y019008D02*
X021114Y019008D01*
X021108Y019166D02*
X021114Y019166D01*
X021105Y019325D02*
X021117Y019325D01*
X021183Y019483D02*
X021039Y019483D01*
X020951Y019642D02*
X021335Y019642D01*
X020951Y019800D02*
X022389Y019800D01*
X022285Y019642D02*
X021887Y019642D01*
X022039Y019483D02*
X022183Y019483D01*
X022117Y019325D02*
X022105Y019325D01*
X022108Y019166D02*
X022114Y019166D01*
X022108Y019008D02*
X022114Y019008D01*
X022108Y018849D02*
X022114Y018849D01*
X022108Y018691D02*
X022114Y018691D01*
X022127Y018532D02*
X022094Y018532D01*
X022024Y018374D02*
X022198Y018374D01*
X022711Y017941D02*
X023111Y017541D01*
X023111Y016941D01*
X024443Y016154D02*
X026181Y016154D01*
X026181Y015995D02*
X024346Y015995D01*
X024187Y015837D02*
X026181Y015837D01*
X026181Y015678D02*
X024029Y015678D01*
X023717Y015520D02*
X026181Y015520D01*
X026181Y015361D02*
X023718Y015361D01*
X023859Y015203D02*
X026181Y015203D01*
X026181Y015044D02*
X023989Y015044D01*
X024147Y014886D02*
X026181Y014886D01*
X026181Y014727D02*
X024306Y014727D01*
X024464Y014569D02*
X026181Y014569D01*
X026181Y014410D02*
X024623Y014410D01*
X024781Y014251D02*
X026181Y014251D01*
X026181Y014093D02*
X024940Y014093D01*
X025098Y013934D02*
X026181Y013934D01*
X026181Y013776D02*
X025257Y013776D01*
X025406Y013617D02*
X026181Y013617D01*
X026181Y013459D02*
X025496Y013459D01*
X025608Y013300D02*
X026181Y013300D01*
X026181Y013142D02*
X025608Y013142D01*
X025750Y012983D02*
X026181Y012983D01*
X026181Y012825D02*
X025908Y012825D01*
X026067Y012666D02*
X026181Y012666D01*
X026111Y012141D02*
X025111Y013141D01*
X025111Y013441D01*
X023611Y014941D01*
X023111Y014941D01*
X023111Y012941D02*
X022411Y012941D01*
X023111Y011941D02*
X025211Y011941D01*
X025711Y011441D01*
X025711Y005241D01*
X024011Y003541D01*
X015611Y003541D01*
X014811Y004341D01*
X011611Y004341D01*
X011111Y004841D01*
X009711Y004841D01*
X008911Y005641D01*
X008911Y006541D01*
X003211Y006541D01*
X002611Y007141D01*
X002647Y006624D02*
X002408Y006624D01*
X003552Y005481D01*
X008609Y005481D01*
X008571Y005573D01*
X008571Y005709D01*
X008571Y006201D01*
X007460Y006201D01*
X007485Y006140D01*
X007485Y005942D01*
X007409Y005759D01*
X007270Y005620D01*
X007087Y005544D01*
X006335Y005544D01*
X006152Y005620D01*
X006012Y005759D01*
X005937Y005942D01*
X005937Y006140D01*
X005962Y006201D01*
X003143Y006201D01*
X003018Y006253D01*
X002923Y006349D01*
X002647Y006624D01*
X002550Y006483D02*
X002788Y006483D01*
X002708Y006324D02*
X002947Y006324D01*
X002867Y006166D02*
X005947Y006166D01*
X005937Y006007D02*
X003026Y006007D01*
X003184Y005849D02*
X005975Y005849D01*
X006082Y005690D02*
X003343Y005690D01*
X003501Y005532D02*
X008588Y005532D01*
X008571Y005690D02*
X007340Y005690D01*
X007446Y005849D02*
X008571Y005849D01*
X008571Y006007D02*
X007485Y006007D01*
X007475Y006166D02*
X008571Y006166D01*
X008911Y006541D02*
X008911Y006891D01*
X009061Y007041D01*
X009711Y007041D01*
X010211Y007541D02*
X010511Y007241D01*
X010511Y006441D01*
X011011Y006051D02*
X011011Y006041D01*
X009711Y006041D01*
X010511Y005641D02*
X010711Y005641D01*
X011111Y005241D01*
X011311Y005241D01*
X011811Y004741D01*
X014911Y004741D01*
X015411Y004241D01*
X016311Y004241D01*
X016511Y004041D01*
X016861Y004422D02*
X018161Y004422D01*
X018297Y004558D02*
X017994Y004255D01*
X017994Y003881D01*
X017028Y003881D01*
X017028Y004255D01*
X016725Y004558D01*
X016434Y004558D01*
X016379Y004581D01*
X015552Y004581D01*
X015468Y004664D01*
X015492Y004664D01*
X015492Y005122D01*
X015529Y005122D01*
X015529Y004664D01*
X015708Y004664D01*
X015988Y004944D01*
X015988Y005123D01*
X015530Y005123D01*
X015530Y005160D01*
X015988Y005160D01*
X015988Y005339D01*
X015708Y005618D01*
X015529Y005618D01*
X015529Y005160D01*
X015492Y005160D01*
X015492Y005618D01*
X015313Y005618D01*
X015034Y005339D01*
X015034Y005160D01*
X015492Y005160D01*
X015492Y005123D01*
X015034Y005123D01*
X015034Y005058D01*
X014979Y005081D01*
X014843Y005081D01*
X011952Y005081D01*
X011503Y005529D01*
X011379Y005581D01*
X011272Y005581D01*
X011528Y005837D01*
X011528Y006265D01*
X011492Y006301D01*
X012290Y006301D01*
X012127Y006138D01*
X012012Y006138D01*
X011829Y006063D01*
X011689Y005923D01*
X011614Y005740D01*
X011614Y005542D01*
X011689Y005359D01*
X011829Y005220D01*
X012012Y005144D01*
X012210Y005144D01*
X012392Y005220D01*
X012532Y005359D01*
X012608Y005542D01*
X012608Y005657D01*
X012614Y005663D01*
X012614Y005435D01*
X012905Y005144D01*
X013317Y005144D01*
X013477Y005304D01*
X013503Y005277D01*
X013564Y005233D01*
X013631Y005199D01*
X013702Y005176D01*
X013776Y005164D01*
X014092Y005164D01*
X014092Y005622D01*
X014129Y005622D01*
X014129Y005164D01*
X014445Y005164D01*
X014519Y005176D01*
X014591Y005199D01*
X014658Y005233D01*
X014718Y005277D01*
X014771Y005330D01*
X014816Y005391D01*
X014850Y005458D01*
X014873Y005529D01*
X014885Y005604D01*
X014885Y005623D01*
X014130Y005623D01*
X014130Y005660D01*
X014885Y005660D01*
X014885Y005679D01*
X014873Y005753D01*
X014850Y005824D01*
X014824Y005874D01*
X014994Y006044D01*
X014994Y005927D01*
X015297Y005624D01*
X015725Y005624D01*
X016028Y005927D01*
X016028Y006355D01*
X015725Y006658D01*
X015297Y006658D01*
X015251Y006612D01*
X015251Y006773D01*
X015251Y006909D01*
X015199Y007034D01*
X014857Y007376D01*
X014925Y007538D01*
X014925Y007744D01*
X014846Y007934D01*
X014700Y008079D01*
X014551Y008141D01*
X014700Y008203D01*
X014846Y008348D01*
X014925Y008538D01*
X014925Y008744D01*
X014846Y008934D01*
X014700Y009079D01*
X014551Y009141D01*
X014700Y009203D01*
X014846Y009348D01*
X014925Y009538D01*
X014925Y009744D01*
X014922Y009749D01*
X014952Y009720D01*
X015135Y009644D01*
X015171Y009644D01*
X015171Y009420D01*
X015073Y009322D01*
X015073Y009215D01*
X015071Y009209D01*
X015071Y009073D01*
X015073Y009067D01*
X015073Y008960D01*
X015244Y008789D01*
X015221Y008779D01*
X015076Y008634D01*
X014997Y008444D01*
X014997Y008238D01*
X015076Y008048D01*
X015221Y007903D01*
X015411Y007824D01*
X016211Y007824D01*
X016371Y007891D01*
X016371Y007809D01*
X016371Y007698D01*
X015731Y007698D01*
X015541Y007619D01*
X015396Y007474D01*
X015317Y007284D01*
X015317Y007078D01*
X015396Y006888D01*
X015541Y006743D01*
X015731Y006664D01*
X016531Y006664D01*
X016720Y006743D01*
X016866Y006888D01*
X016929Y007042D01*
X017523Y006449D01*
X017618Y006353D01*
X017743Y006301D01*
X018994Y006301D01*
X018994Y005927D01*
X019280Y005641D01*
X018994Y005355D01*
X018994Y004927D01*
X019297Y004624D01*
X019547Y004624D01*
X019623Y004549D01*
X019718Y004453D01*
X019843Y004401D01*
X020498Y004401D01*
X020655Y004244D01*
X021067Y004244D01*
X021114Y004291D01*
X021114Y004035D01*
X021268Y003881D01*
X019028Y003881D01*
X019028Y004255D01*
X018725Y004558D01*
X018297Y004558D01*
X018002Y004263D02*
X017020Y004263D01*
X017028Y004105D02*
X017994Y004105D01*
X017994Y003946D02*
X017028Y003946D01*
X016380Y004580D02*
X019591Y004580D01*
X019623Y004549D02*
X019623Y004549D01*
X019793Y004422D02*
X018861Y004422D01*
X019020Y004263D02*
X020636Y004263D01*
X021086Y004263D02*
X021114Y004263D01*
X021114Y004105D02*
X019028Y004105D01*
X019028Y003946D02*
X021203Y003946D01*
X021954Y003881D02*
X022108Y004035D01*
X022108Y004447D01*
X021817Y004738D01*
X021405Y004738D01*
X021358Y004691D01*
X021358Y004847D01*
X021421Y004784D01*
X021602Y004784D01*
X021602Y005232D01*
X021619Y005232D01*
X021619Y004784D01*
X021800Y004784D01*
X022068Y005052D01*
X022068Y005232D01*
X021620Y005232D01*
X021620Y005250D01*
X022068Y005250D01*
X022068Y005430D01*
X021800Y005698D01*
X021619Y005698D01*
X021619Y005250D01*
X021602Y005250D01*
X021602Y005698D01*
X021421Y005698D01*
X021154Y005430D01*
X021154Y005250D01*
X021602Y005250D01*
X021602Y005232D01*
X021154Y005232D01*
X021154Y005151D01*
X021067Y005238D01*
X020655Y005238D01*
X020498Y005081D01*
X020052Y005081D01*
X020028Y005105D01*
X020028Y005355D01*
X019742Y005641D01*
X020028Y005927D01*
X020028Y006301D01*
X022243Y006301D01*
X022379Y006301D01*
X022503Y006353D01*
X022511Y006361D01*
X022552Y006320D01*
X022735Y006244D01*
X023487Y006244D01*
X023670Y006320D01*
X023779Y006429D01*
X023771Y006409D01*
X023771Y006273D01*
X023771Y006004D01*
X023689Y005923D01*
X023614Y005740D01*
X023614Y005542D01*
X023689Y005359D01*
X023829Y005220D01*
X024012Y005144D01*
X024210Y005144D01*
X024392Y005220D01*
X024532Y005359D01*
X024608Y005542D01*
X024608Y005740D01*
X024532Y005923D01*
X024451Y006004D01*
X024451Y006200D01*
X024499Y006249D01*
X024551Y006373D01*
X024551Y006820D01*
X024771Y006600D01*
X024771Y006004D01*
X024614Y005847D01*
X024614Y005435D01*
X024905Y005144D01*
X025133Y005144D01*
X023870Y003881D01*
X021954Y003881D01*
X022019Y003946D02*
X023935Y003946D01*
X024094Y004105D02*
X022108Y004105D01*
X022108Y004263D02*
X024252Y004263D01*
X024411Y004422D02*
X022108Y004422D01*
X021975Y004580D02*
X024569Y004580D01*
X024728Y004739D02*
X021358Y004739D01*
X021602Y004897D02*
X021619Y004897D01*
X021602Y005056D02*
X021619Y005056D01*
X021602Y005214D02*
X021619Y005214D01*
X021611Y005241D02*
X021211Y005641D01*
X016011Y005641D01*
X015511Y005141D01*
X015011Y005641D01*
X014111Y005641D01*
X014092Y005532D02*
X014129Y005532D01*
X014129Y005373D02*
X014092Y005373D01*
X014092Y005214D02*
X014129Y005214D01*
X014621Y005214D02*
X015034Y005214D01*
X015068Y005373D02*
X014802Y005373D01*
X014873Y005532D02*
X015227Y005532D01*
X015231Y005690D02*
X014883Y005690D01*
X014837Y005849D02*
X015072Y005849D01*
X014994Y006007D02*
X014958Y006007D01*
X014611Y006141D02*
X014911Y006441D01*
X014911Y006841D01*
X014111Y007641D01*
X014111Y007541D01*
X012111Y007541D01*
X010911Y008741D01*
X010411Y008741D01*
X010211Y008541D01*
X007711Y008541D01*
X007111Y007941D01*
X006811Y007941D01*
X006711Y008041D01*
X006011Y008041D01*
X004911Y009141D01*
X003611Y009141D01*
X003111Y008741D02*
X003111Y007841D01*
X002911Y007641D01*
X002311Y007641D01*
X001711Y007041D01*
X001711Y006841D01*
X003411Y005141D01*
X008811Y005141D01*
X009511Y004441D01*
X009511Y003941D01*
X009811Y003641D01*
X009911Y003641D01*
X011311Y002241D01*
X012011Y002241D01*
X013011Y003241D01*
X014511Y003241D01*
X015211Y002541D01*
X023511Y002541D01*
X026111Y005141D01*
X026111Y012141D01*
X025111Y009391D02*
X025111Y008941D01*
X024911Y008741D01*
X023111Y008741D01*
X023611Y008241D02*
X021711Y008241D01*
X019711Y010241D01*
X017811Y010241D01*
X017515Y009971D02*
X016256Y009971D01*
X016285Y010042D02*
X016209Y009859D01*
X016070Y009720D01*
X015887Y009644D01*
X015851Y009644D01*
X015851Y009481D01*
X016379Y009481D01*
X016503Y009429D01*
X016599Y009334D01*
X016999Y008934D01*
X017051Y008809D01*
X017051Y008673D01*
X017051Y007882D01*
X017952Y006981D01*
X018357Y006981D01*
X018317Y007078D01*
X018317Y007284D01*
X018396Y007474D01*
X018541Y007619D01*
X018731Y007698D01*
X019531Y007698D01*
X019720Y007619D01*
X019866Y007474D01*
X019945Y007284D01*
X019945Y007078D01*
X019904Y006981D01*
X022170Y006981D01*
X022218Y007029D01*
X022343Y007081D01*
X022471Y007081D01*
X022552Y007163D01*
X022735Y007238D01*
X023487Y007238D01*
X023670Y007163D01*
X023809Y007023D01*
X023871Y006874D01*
X023871Y007000D01*
X023586Y007285D01*
X023487Y007244D01*
X022735Y007244D01*
X022552Y007320D01*
X022412Y007459D01*
X022337Y007642D01*
X022337Y007840D01*
X022362Y007901D01*
X021779Y007901D01*
X021643Y007901D01*
X021518Y007953D01*
X019570Y009901D01*
X018035Y009901D01*
X017890Y009841D01*
X017731Y009841D01*
X017584Y009902D01*
X017472Y010014D01*
X017411Y010161D01*
X017411Y010301D01*
X016260Y010301D01*
X016285Y010240D01*
X016285Y010042D01*
X016285Y010129D02*
X017424Y010129D01*
X017411Y010288D02*
X016265Y010288D01*
X016162Y009812D02*
X019659Y009812D01*
X019817Y009654D02*
X015910Y009654D01*
X015851Y009495D02*
X019976Y009495D01*
X020135Y009337D02*
X016596Y009337D01*
X016755Y009178D02*
X020293Y009178D01*
X020452Y009020D02*
X016913Y009020D01*
X017029Y008861D02*
X020610Y008861D01*
X020477Y008702D02*
X020769Y008702D01*
X020927Y008544D02*
X020583Y008544D01*
X020546Y008634D02*
X020400Y008779D01*
X020211Y008858D01*
X019411Y008858D01*
X019221Y008779D01*
X019076Y008634D01*
X018997Y008444D01*
X018997Y008238D01*
X019076Y008048D01*
X019221Y007903D01*
X019411Y007824D01*
X020211Y007824D01*
X020400Y007903D01*
X020546Y008048D01*
X020625Y008238D01*
X020625Y008444D01*
X020546Y008634D01*
X020625Y008385D02*
X021086Y008385D01*
X021244Y008227D02*
X020620Y008227D01*
X020554Y008068D02*
X021403Y008068D01*
X021622Y007910D02*
X020407Y007910D01*
X019882Y007434D02*
X022438Y007434D01*
X022357Y007593D02*
X019747Y007593D01*
X019945Y007276D02*
X022658Y007276D01*
X022506Y007117D02*
X019945Y007117D01*
X019214Y007910D02*
X017051Y007910D01*
X017051Y008068D02*
X019068Y008068D01*
X019002Y008227D02*
X017051Y008227D01*
X017051Y008385D02*
X018997Y008385D01*
X019039Y008544D02*
X017051Y008544D01*
X017051Y008702D02*
X019144Y008702D01*
X017182Y007751D02*
X022337Y007751D01*
X023111Y007741D02*
X023611Y007741D01*
X024211Y007141D01*
X024211Y006441D01*
X024111Y006341D01*
X024111Y005641D01*
X024563Y005849D02*
X024615Y005849D01*
X024608Y005690D02*
X024614Y005690D01*
X024604Y005532D02*
X024614Y005532D01*
X024676Y005373D02*
X024538Y005373D01*
X024380Y005214D02*
X024834Y005214D01*
X025045Y005056D02*
X022068Y005056D01*
X022068Y005214D02*
X023842Y005214D01*
X023684Y005373D02*
X022068Y005373D01*
X021967Y005532D02*
X023618Y005532D01*
X023614Y005690D02*
X021808Y005690D01*
X021619Y005690D02*
X021602Y005690D01*
X021602Y005532D02*
X021619Y005532D01*
X021602Y005373D02*
X021619Y005373D01*
X021255Y005532D02*
X019851Y005532D01*
X019791Y005690D02*
X021413Y005690D01*
X021154Y005373D02*
X020010Y005373D01*
X020028Y005214D02*
X020631Y005214D01*
X021091Y005214D02*
X021154Y005214D01*
X020861Y004741D02*
X019911Y004741D01*
X019511Y005141D01*
X019182Y004739D02*
X015783Y004739D01*
X015941Y004897D02*
X019024Y004897D01*
X018994Y005056D02*
X015988Y005056D01*
X015988Y005214D02*
X018994Y005214D01*
X019012Y005373D02*
X015953Y005373D01*
X015795Y005532D02*
X019170Y005532D01*
X019231Y005690D02*
X015791Y005690D01*
X015949Y005849D02*
X019072Y005849D01*
X018994Y006007D02*
X016028Y006007D01*
X016028Y006166D02*
X018994Y006166D01*
X019949Y005849D02*
X023659Y005849D01*
X023771Y006007D02*
X020028Y006007D01*
X020028Y006166D02*
X023771Y006166D01*
X023771Y006324D02*
X023674Y006324D01*
X023111Y006741D02*
X022411Y006741D01*
X022311Y006641D01*
X017811Y006641D01*
X016711Y007741D01*
X016711Y008741D01*
X016311Y009141D01*
X015511Y009141D01*
X015411Y009141D01*
X015511Y009141D02*
X015511Y010141D01*
X015111Y009654D02*
X014925Y009654D01*
X014907Y009495D02*
X015171Y009495D01*
X015088Y009337D02*
X014834Y009337D01*
X014640Y009178D02*
X015071Y009178D01*
X015073Y009020D02*
X014760Y009020D01*
X014876Y008861D02*
X015172Y008861D01*
X015144Y008702D02*
X014925Y008702D01*
X014925Y008544D02*
X015039Y008544D01*
X014997Y008385D02*
X014861Y008385D01*
X014724Y008227D02*
X015002Y008227D01*
X015068Y008068D02*
X014711Y008068D01*
X014856Y007910D02*
X015214Y007910D01*
X014922Y007751D02*
X016371Y007751D01*
X015515Y007593D02*
X014925Y007593D01*
X014881Y007434D02*
X015379Y007434D01*
X015317Y007276D02*
X014957Y007276D01*
X015116Y007117D02*
X015317Y007117D01*
X015367Y006958D02*
X015230Y006958D01*
X015251Y006800D02*
X015484Y006800D01*
X015280Y006641D02*
X015251Y006641D01*
X015741Y006641D02*
X017330Y006641D01*
X017488Y006483D02*
X015900Y006483D01*
X016028Y006324D02*
X017687Y006324D01*
X017171Y006800D02*
X016777Y006800D01*
X016895Y006958D02*
X017013Y006958D01*
X017499Y007434D02*
X018379Y007434D01*
X018317Y007276D02*
X017657Y007276D01*
X017816Y007117D02*
X018317Y007117D01*
X018515Y007593D02*
X017340Y007593D01*
X014611Y006141D02*
X013611Y006141D01*
X013111Y005641D01*
X012614Y005532D02*
X012604Y005532D01*
X012538Y005373D02*
X012676Y005373D01*
X012834Y005214D02*
X012380Y005214D01*
X012111Y005641D02*
X012711Y006241D01*
X013011Y006241D01*
X012155Y006166D02*
X011528Y006166D01*
X011528Y006007D02*
X011774Y006007D01*
X011659Y005849D02*
X011528Y005849D01*
X011614Y005690D02*
X011381Y005690D01*
X011498Y005532D02*
X011618Y005532D01*
X011660Y005373D02*
X011684Y005373D01*
X011818Y005214D02*
X011842Y005214D01*
X013387Y005214D02*
X013601Y005214D01*
X014670Y004001D02*
X012254Y004001D01*
X012308Y003947D01*
X012308Y003535D01*
X012017Y003244D01*
X011605Y003244D01*
X011558Y003291D01*
X011558Y003135D01*
X011621Y003198D01*
X011802Y003198D01*
X011802Y002750D01*
X011819Y002750D01*
X011819Y003198D01*
X012000Y003198D01*
X012244Y002955D01*
X012818Y003529D01*
X012943Y003581D01*
X013079Y003581D01*
X014579Y003581D01*
X014703Y003529D01*
X014799Y003434D01*
X014994Y003239D01*
X014994Y003255D01*
X015205Y003466D01*
X014670Y004001D01*
X014725Y003946D02*
X012308Y003946D01*
X012308Y003788D02*
X014884Y003788D01*
X015042Y003629D02*
X012308Y003629D01*
X012243Y003471D02*
X012760Y003471D01*
X012601Y003312D02*
X012085Y003312D01*
X012045Y003153D02*
X012442Y003153D01*
X012284Y002995D02*
X012204Y002995D01*
X011819Y002995D02*
X011802Y002995D01*
X011802Y003153D02*
X011819Y003153D01*
X011577Y003153D02*
X011558Y003153D01*
X011354Y002831D02*
X011278Y002755D01*
X011354Y002679D01*
X011354Y002732D01*
X011802Y002732D01*
X011802Y002750D01*
X011354Y002750D01*
X011354Y002831D01*
X011802Y002836D02*
X011819Y002836D01*
X011211Y001841D02*
X010111Y002941D01*
X009011Y002941D01*
X009011Y004141D01*
X008633Y003788D02*
X008463Y003788D01*
X008439Y003755D02*
X008494Y003830D01*
X008527Y003894D01*
X008671Y003750D01*
X008671Y003281D01*
X008199Y003281D01*
X008100Y003379D01*
X007911Y003458D01*
X007111Y003458D01*
X006921Y003379D01*
X006776Y003234D01*
X006697Y003044D01*
X006697Y002838D01*
X006776Y002648D01*
X006921Y002503D01*
X007111Y002424D01*
X007163Y002424D01*
X006994Y002255D01*
X006994Y001827D01*
X007280Y001541D01*
X006994Y001255D01*
X006994Y000890D01*
X003988Y000890D01*
X003988Y001023D01*
X003530Y001023D01*
X003530Y001060D01*
X003988Y001060D01*
X003988Y001239D01*
X003708Y001518D01*
X003529Y001518D01*
X003529Y001060D01*
X003492Y001060D01*
X003492Y001518D01*
X003313Y001518D01*
X003034Y001239D01*
X003034Y001060D01*
X003492Y001060D01*
X003492Y001023D01*
X003034Y001023D01*
X003034Y000890D01*
X002861Y000890D01*
X002861Y000929D01*
X002861Y001054D01*
X002861Y001224D01*
X002861Y001349D01*
X002813Y001465D01*
X002724Y001554D01*
X002609Y001602D01*
X002605Y001602D01*
X002665Y001704D01*
X002742Y001992D01*
X002742Y002290D01*
X002665Y002578D01*
X002516Y002836D01*
X002305Y003046D01*
X002047Y003195D01*
X001760Y003272D01*
X001462Y003272D01*
X001174Y003195D01*
X000916Y003046D01*
X000792Y002921D01*
X000792Y003614D01*
X000801Y003604D01*
X001034Y003508D01*
X002113Y003508D01*
X002346Y003604D01*
X002524Y003782D01*
X002531Y003801D01*
X002970Y003801D01*
X003171Y003600D01*
X003171Y003458D01*
X003111Y003458D01*
X002921Y003379D01*
X002776Y003234D01*
X002697Y003044D01*
X002697Y002838D01*
X002776Y002648D01*
X002921Y002503D01*
X003111Y002424D01*
X003220Y002424D01*
X003034Y002239D01*
X003034Y002060D01*
X003492Y002060D01*
X003492Y002023D01*
X003034Y002023D01*
X003034Y001844D01*
X003313Y001564D01*
X003492Y001564D01*
X003492Y002022D01*
X003529Y002022D01*
X003529Y001564D01*
X003708Y001564D01*
X003988Y001844D01*
X003988Y002023D01*
X003530Y002023D01*
X003530Y002060D01*
X003988Y002060D01*
X003988Y002239D01*
X003802Y002424D01*
X003911Y002424D01*
X004100Y002503D01*
X004246Y002648D01*
X004325Y002838D01*
X004325Y003044D01*
X004246Y003234D01*
X004100Y003379D01*
X003911Y003458D01*
X003851Y003458D01*
X003851Y003809D01*
X003799Y003934D01*
X003703Y004029D01*
X003303Y004429D01*
X003179Y004481D01*
X003043Y004481D01*
X002531Y004481D01*
X002524Y004500D01*
X002346Y004678D01*
X002113Y004774D01*
X001858Y004774D01*
X001176Y005457D01*
X001176Y008561D01*
X001223Y008449D01*
X001318Y008353D01*
X001818Y007853D01*
X001943Y007801D01*
X001990Y007801D01*
X001423Y007234D01*
X001371Y007109D01*
X001371Y006973D01*
X001371Y006773D01*
X001423Y006649D01*
X001518Y006553D01*
X003218Y004853D01*
X003343Y004801D01*
X003479Y004801D01*
X008670Y004801D01*
X008813Y004658D01*
X008797Y004658D01*
X008527Y004388D01*
X008494Y004452D01*
X008439Y004528D01*
X008373Y004594D01*
X008298Y004649D01*
X008215Y004691D01*
X008126Y004720D01*
X008033Y004734D01*
X007631Y004734D01*
X007631Y004199D01*
X007516Y004199D01*
X007516Y004734D01*
X007113Y004734D01*
X007021Y004720D01*
X006932Y004691D01*
X006849Y004649D01*
X006773Y004594D01*
X006707Y004528D01*
X006652Y004452D01*
X006610Y004369D01*
X006581Y004280D01*
X006568Y004199D01*
X007515Y004199D01*
X007515Y004083D01*
X006568Y004083D01*
X006581Y004002D01*
X006610Y003913D01*
X006652Y003830D01*
X006707Y003755D01*
X006773Y003688D01*
X006849Y003634D01*
X006932Y003591D01*
X007021Y003562D01*
X007113Y003548D01*
X007516Y003548D01*
X007516Y004083D01*
X007631Y004083D01*
X007631Y003548D01*
X008033Y003548D01*
X008126Y003562D01*
X008215Y003591D01*
X008298Y003634D01*
X008373Y003688D01*
X008439Y003755D01*
X008289Y003629D02*
X008671Y003629D01*
X008671Y003471D02*
X003851Y003471D01*
X003851Y003629D02*
X006858Y003629D01*
X006683Y003788D02*
X003851Y003788D01*
X003787Y003946D02*
X006599Y003946D01*
X006311Y004141D02*
X007573Y004141D01*
X007515Y004105D02*
X003628Y004105D01*
X003469Y004263D02*
X006579Y004263D01*
X006637Y004422D02*
X003311Y004422D01*
X003111Y004141D02*
X003511Y003741D01*
X003511Y003041D01*
X003611Y002941D01*
X003511Y002941D01*
X002764Y002678D02*
X002607Y002678D01*
X002681Y002519D02*
X002905Y002519D01*
X002723Y002361D02*
X003156Y002361D01*
X003034Y002202D02*
X002742Y002202D01*
X002742Y002044D02*
X003492Y002044D01*
X003511Y002041D02*
X004211Y002041D01*
X006311Y004141D01*
X006760Y004580D02*
X002443Y004580D01*
X002199Y004739D02*
X008732Y004739D01*
X008719Y004580D02*
X008387Y004580D01*
X008510Y004422D02*
X008561Y004422D01*
X007631Y004422D02*
X007516Y004422D01*
X007516Y004580D02*
X007631Y004580D01*
X007631Y004263D02*
X007516Y004263D01*
X007516Y003946D02*
X007631Y003946D01*
X007631Y003788D02*
X007516Y003788D01*
X007516Y003629D02*
X007631Y003629D01*
X008168Y003312D02*
X008671Y003312D01*
X009011Y002941D02*
X007511Y002941D01*
X007511Y002041D01*
X007094Y001727D02*
X003871Y001727D01*
X003988Y001885D02*
X006994Y001885D01*
X006994Y002044D02*
X003530Y002044D01*
X003511Y002041D02*
X003511Y001041D01*
X003492Y001092D02*
X003529Y001092D01*
X003529Y001251D02*
X003492Y001251D01*
X003492Y001409D02*
X003529Y001409D01*
X003529Y001568D02*
X003492Y001568D01*
X003492Y001727D02*
X003529Y001727D01*
X003529Y001885D02*
X003492Y001885D01*
X003151Y001727D02*
X002671Y001727D01*
X002690Y001568D02*
X003310Y001568D01*
X003205Y001409D02*
X002836Y001409D01*
X002861Y001251D02*
X003046Y001251D01*
X003034Y001092D02*
X002861Y001092D01*
X002861Y000934D02*
X003034Y000934D01*
X003817Y001409D02*
X007148Y001409D01*
X007253Y001568D02*
X003712Y001568D01*
X003975Y001251D02*
X006994Y001251D01*
X006994Y001092D02*
X003988Y001092D01*
X003988Y000934D02*
X006994Y000934D01*
X007511Y001041D02*
X009011Y001041D01*
X009011Y002141D01*
X009364Y002519D02*
X009815Y002519D01*
X009897Y002601D02*
X009634Y002339D01*
X009634Y002160D01*
X010092Y002160D01*
X010092Y002123D01*
X009634Y002123D01*
X009634Y001944D01*
X009913Y001664D01*
X010092Y001664D01*
X010092Y002122D01*
X010129Y002122D01*
X010129Y001664D01*
X010308Y001664D01*
X010588Y001944D01*
X010588Y001984D01*
X011018Y001553D01*
X011143Y001501D01*
X011279Y001501D01*
X012740Y001501D01*
X012494Y001255D01*
X012494Y000890D01*
X009528Y000890D01*
X009528Y001255D01*
X009351Y001432D01*
X009351Y001750D01*
X009528Y001927D01*
X009528Y002355D01*
X009282Y002601D01*
X009897Y002601D01*
X009656Y002361D02*
X009522Y002361D01*
X009528Y002202D02*
X009634Y002202D01*
X009634Y002044D02*
X009528Y002044D01*
X009486Y001885D02*
X009693Y001885D01*
X009851Y001727D02*
X009351Y001727D01*
X009351Y001568D02*
X011003Y001568D01*
X010845Y001727D02*
X010371Y001727D01*
X010529Y001885D02*
X010686Y001885D01*
X011211Y001841D02*
X014711Y001841D01*
X015511Y001041D01*
X012648Y001409D02*
X009373Y001409D01*
X009528Y001251D02*
X012494Y001251D01*
X012494Y001092D02*
X009528Y001092D01*
X009528Y000934D02*
X012494Y000934D01*
X010129Y001727D02*
X010092Y001727D01*
X010092Y001885D02*
X010129Y001885D01*
X010129Y002044D02*
X010092Y002044D01*
X007100Y002361D02*
X003866Y002361D01*
X003988Y002202D02*
X006994Y002202D01*
X006905Y002519D02*
X004117Y002519D01*
X004258Y002678D02*
X006764Y002678D01*
X006698Y002836D02*
X004324Y002836D01*
X004325Y002995D02*
X006697Y002995D01*
X006743Y003153D02*
X004279Y003153D01*
X004168Y003312D02*
X006854Y003312D01*
X003171Y003471D02*
X000792Y003471D01*
X000792Y003312D02*
X002854Y003312D01*
X002743Y003153D02*
X002120Y003153D01*
X002357Y002995D02*
X002697Y002995D01*
X002698Y002836D02*
X002515Y002836D01*
X002370Y003629D02*
X003142Y003629D01*
X002984Y003788D02*
X002526Y003788D01*
X003111Y004141D02*
X001573Y004141D01*
X001573Y004579D01*
X000836Y005316D01*
X000836Y016141D01*
X002611Y016141D01*
X003111Y016441D02*
X003111Y015641D01*
X002611Y015141D01*
X003451Y015658D02*
X003451Y015664D01*
X003592Y015664D01*
X003592Y016122D01*
X003629Y016122D01*
X003629Y015664D01*
X003653Y015664D01*
X003647Y015658D01*
X003451Y015658D01*
X003592Y015678D02*
X003629Y015678D01*
X003629Y015837D02*
X003592Y015837D01*
X003592Y015995D02*
X003629Y015995D01*
X003630Y016123D02*
X003630Y016160D01*
X004088Y016160D01*
X004088Y016339D01*
X003808Y016618D01*
X003768Y016618D01*
X003852Y016701D01*
X006071Y016701D01*
X006152Y016620D01*
X006335Y016544D01*
X007087Y016544D01*
X007270Y016620D01*
X007271Y016621D01*
X007271Y016461D01*
X007270Y016463D01*
X007087Y016538D01*
X006335Y016538D01*
X006152Y016463D01*
X006012Y016323D01*
X006010Y016317D01*
X005808Y016518D01*
X005629Y016518D01*
X005629Y016060D01*
X005592Y016060D01*
X005592Y016518D01*
X005413Y016518D01*
X005134Y016239D01*
X005134Y016060D01*
X005592Y016060D01*
X005592Y016023D01*
X005134Y016023D01*
X005134Y015881D01*
X004025Y015881D01*
X004088Y015944D01*
X004088Y016123D01*
X003630Y016123D01*
X003611Y016141D02*
X005511Y016141D01*
X005611Y016041D01*
X005592Y016154D02*
X005629Y016154D01*
X005629Y016313D02*
X005592Y016313D01*
X005592Y016471D02*
X005629Y016471D01*
X005855Y016471D02*
X006173Y016471D01*
X006142Y016630D02*
X003780Y016630D01*
X003955Y016471D02*
X005366Y016471D01*
X005208Y016313D02*
X004088Y016313D01*
X004088Y015995D02*
X005134Y015995D01*
X005134Y016154D02*
X003630Y016154D01*
X003111Y016441D02*
X003711Y017041D01*
X006711Y017041D01*
X007249Y016471D02*
X007271Y016471D01*
X007711Y017541D02*
X008011Y017541D01*
X007711Y017541D02*
X007211Y018041D01*
X006711Y018041D01*
X004861Y018849D02*
X002801Y018849D01*
X002801Y019008D02*
X004626Y019008D01*
X004537Y019166D02*
X002801Y019166D01*
X002801Y019325D02*
X004507Y019325D01*
X004524Y019483D02*
X002934Y019483D01*
X001321Y019341D02*
X001311Y019341D01*
X001311Y018941D01*
X000836Y018466D01*
X000836Y016141D01*
X001176Y016630D02*
X002195Y016630D01*
X001511Y015341D02*
X001511Y008641D01*
X002011Y008141D01*
X002611Y008141D01*
X001940Y007751D02*
X001176Y007751D01*
X001176Y007593D02*
X001782Y007593D01*
X001623Y007434D02*
X001176Y007434D01*
X001176Y007276D02*
X001465Y007276D01*
X001374Y007117D02*
X001176Y007117D01*
X001176Y006958D02*
X001371Y006958D01*
X001371Y006800D02*
X001176Y006800D01*
X001176Y006641D02*
X001430Y006641D01*
X001588Y006483D02*
X001176Y006483D01*
X001176Y006324D02*
X001747Y006324D01*
X001905Y006166D02*
X001176Y006166D01*
X001176Y006007D02*
X002064Y006007D01*
X002222Y005849D02*
X001176Y005849D01*
X001176Y005690D02*
X002381Y005690D01*
X002540Y005532D02*
X001176Y005532D01*
X001260Y005373D02*
X002698Y005373D01*
X002857Y005214D02*
X001418Y005214D01*
X001577Y005056D02*
X003015Y005056D01*
X003174Y004897D02*
X001735Y004897D01*
X001102Y003153D02*
X000792Y003153D01*
X000792Y002995D02*
X000865Y002995D01*
X002713Y001885D02*
X003034Y001885D01*
X010911Y007041D02*
X011311Y006641D01*
X014111Y006641D01*
X013354Y007881D02*
X012252Y007881D01*
X011199Y008934D01*
X011103Y009029D01*
X010979Y009081D01*
X010485Y009081D01*
X010485Y009140D01*
X010460Y009201D01*
X011614Y009201D01*
X011614Y009185D01*
X011905Y008894D01*
X012077Y008894D01*
X012523Y008449D01*
X012618Y008353D01*
X012743Y008301D01*
X013423Y008301D01*
X013521Y008203D01*
X013671Y008141D01*
X013521Y008079D01*
X013376Y007934D01*
X013354Y007881D01*
X013366Y007910D02*
X012223Y007910D01*
X012064Y008068D02*
X013510Y008068D01*
X013497Y008227D02*
X011906Y008227D01*
X011747Y008385D02*
X012586Y008385D01*
X012427Y008544D02*
X011589Y008544D01*
X011430Y008702D02*
X012269Y008702D01*
X012110Y008861D02*
X011272Y008861D01*
X011113Y009020D02*
X011779Y009020D01*
X011621Y009178D02*
X010469Y009178D01*
X009161Y009541D02*
X008911Y009341D01*
X008911Y009091D01*
X008711Y008891D01*
X007661Y008891D01*
X007511Y009041D01*
X006711Y009041D01*
X006611Y009141D01*
X005511Y009141D01*
X005461Y009091D01*
X005511Y009041D01*
X005461Y009091D02*
X004911Y009641D01*
X003111Y009641D01*
X002611Y009141D01*
X001444Y008227D02*
X001176Y008227D01*
X001176Y008385D02*
X001286Y008385D01*
X001183Y008544D02*
X001176Y008544D01*
X001176Y008068D02*
X001603Y008068D01*
X001761Y007910D02*
X001176Y007910D01*
X003611Y007141D02*
X005711Y007141D01*
X006111Y007541D01*
X008511Y007541D01*
X009011Y008041D01*
X009711Y008041D01*
X010611Y008041D01*
X010911Y007741D01*
X010911Y007041D01*
X010211Y007541D02*
X009011Y007541D01*
X008611Y007141D01*
X008511Y007141D01*
X011911Y009541D02*
X012111Y009341D01*
X012811Y008641D01*
X014111Y008641D01*
X013111Y009391D02*
X013111Y009441D01*
X012361Y010191D01*
X012061Y010191D01*
X011911Y009541D02*
X009161Y009541D01*
X006211Y009541D02*
X006111Y009641D01*
X005511Y009641D01*
X004461Y010691D02*
X004311Y010841D01*
X004311Y011041D01*
X005051Y011082D02*
X005134Y010999D01*
X005134Y011023D01*
X005592Y011023D01*
X005592Y011060D01*
X005134Y011060D01*
X005134Y011239D01*
X005140Y011244D01*
X005118Y011253D01*
X005043Y011329D01*
X005051Y011309D01*
X005051Y011082D01*
X005052Y011081D02*
X005134Y011081D01*
X005135Y011239D02*
X005051Y011239D01*
X005311Y011541D02*
X007411Y011541D01*
X006702Y012032D02*
X005977Y012032D01*
X005301Y012032D01*
X005452Y011881D02*
X005132Y012201D01*
X006005Y012201D01*
X005988Y012148D01*
X005977Y012077D01*
X005977Y012050D01*
X006702Y012050D01*
X006702Y012032D01*
X006005Y011881D02*
X005452Y011881D01*
X005311Y011541D02*
X004711Y012141D01*
X003611Y012141D01*
X005142Y012190D02*
X006002Y012190D01*
X005977Y012032D02*
X005977Y012005D01*
X005988Y011934D01*
X006005Y011881D01*
X005611Y013041D02*
X006711Y013041D01*
X005611Y013041D02*
X005511Y013041D01*
X005611Y014041D02*
X006711Y014041D01*
X009702Y012983D02*
X009719Y012983D01*
X009702Y012825D02*
X009719Y012825D01*
X009702Y012666D02*
X009719Y012666D01*
X012611Y012441D02*
X013111Y012941D01*
X013111Y013141D01*
X013608Y013142D02*
X013797Y013142D01*
X013835Y013104D02*
X014247Y013104D01*
X014538Y013395D01*
X014538Y013633D01*
X014794Y013378D01*
X014737Y013240D01*
X014737Y013042D01*
X014794Y012905D01*
X014481Y012592D01*
X014050Y012592D01*
X014050Y012610D01*
X014498Y012610D01*
X014498Y012790D01*
X014230Y013058D01*
X014049Y013058D01*
X014049Y012610D01*
X014032Y012610D01*
X014032Y013058D01*
X013851Y013058D01*
X013584Y012790D01*
X013584Y012610D01*
X014032Y012610D01*
X014032Y012592D01*
X013584Y012592D01*
X013584Y012412D01*
X013614Y012381D01*
X013152Y012381D01*
X013092Y012441D01*
X013294Y012644D01*
X013317Y012644D01*
X013608Y012935D01*
X013608Y013331D01*
X013835Y013104D01*
X013776Y012983D02*
X013608Y012983D01*
X013618Y012825D02*
X013497Y012825D01*
X013584Y012666D02*
X013339Y012666D01*
X013158Y012507D02*
X013584Y012507D01*
X014032Y012666D02*
X014049Y012666D01*
X014032Y012825D02*
X014049Y012825D01*
X014032Y012983D02*
X014049Y012983D01*
X014305Y012983D02*
X014761Y012983D01*
X014737Y013142D02*
X014284Y013142D01*
X014443Y013300D02*
X014761Y013300D01*
X014712Y013459D02*
X014538Y013459D01*
X014538Y013617D02*
X014554Y013617D01*
X013639Y013300D02*
X013608Y013300D01*
X013544Y013459D02*
X013496Y013459D01*
X013544Y013617D02*
X013338Y013617D01*
X013526Y013776D02*
X013544Y013776D01*
X014464Y012825D02*
X014714Y012825D01*
X014555Y012666D02*
X014498Y012666D01*
X013611Y011141D02*
X015511Y011141D01*
X013611Y011141D02*
X013511Y011041D01*
X012611Y011041D01*
X012111Y009391D02*
X012111Y009341D01*
X015492Y005532D02*
X015529Y005532D01*
X015529Y005373D02*
X015492Y005373D01*
X015492Y005214D02*
X015529Y005214D01*
X015529Y005056D02*
X015492Y005056D01*
X015492Y004897D02*
X015529Y004897D01*
X015529Y004739D02*
X015492Y004739D01*
X015201Y003471D02*
X014762Y003471D01*
X014921Y003312D02*
X015051Y003312D01*
X019511Y003041D02*
X021411Y003041D01*
X021511Y002141D02*
X021411Y002041D01*
X019511Y002041D01*
X019511Y001041D02*
X021411Y001041D01*
X021914Y004897D02*
X024886Y004897D01*
X025111Y005641D02*
X025111Y006741D01*
X023611Y008241D01*
X023596Y007276D02*
X023563Y007276D01*
X023715Y007117D02*
X023754Y007117D01*
X023836Y006958D02*
X023871Y006958D01*
X024551Y006800D02*
X024571Y006800D01*
X024551Y006641D02*
X024730Y006641D01*
X024771Y006483D02*
X024551Y006483D01*
X024530Y006324D02*
X024771Y006324D01*
X024771Y006166D02*
X024451Y006166D01*
X024451Y006007D02*
X024771Y006007D01*
X022547Y006324D02*
X022434Y006324D01*
X022611Y009241D02*
X023711Y009241D01*
X023861Y009391D01*
X024111Y009391D01*
X021198Y018374D02*
X021024Y018374D01*
X021094Y018532D02*
X021127Y018532D01*
X021114Y018691D02*
X021108Y018691D01*
X021108Y018849D02*
X021114Y018849D01*
X019671Y018691D02*
X019635Y018691D01*
X019329Y018691D02*
X019292Y018691D01*
X019292Y018849D02*
X019329Y018849D01*
X019329Y019008D02*
X019292Y019008D01*
X018834Y019008D02*
X015828Y019008D01*
X015828Y019166D02*
X018834Y019166D01*
X018920Y019325D02*
X015758Y019325D01*
X015828Y018849D02*
X018834Y018849D01*
X018987Y018691D02*
X015691Y018691D01*
X019311Y020041D02*
X019311Y020141D01*
X019411Y020041D01*
X020011Y020041D01*
X019671Y019642D02*
X019643Y019642D01*
X019671Y019483D02*
X019543Y019483D01*
X020951Y019959D02*
X022548Y019959D01*
X022707Y020118D02*
X020951Y020118D01*
X020951Y020276D02*
X022931Y020276D01*
X023039Y019483D02*
X023238Y019483D01*
X024702Y019166D02*
X024719Y019166D01*
X024702Y019008D02*
X024719Y019008D01*
X024702Y018849D02*
X024719Y018849D01*
X024982Y019166D02*
X026181Y019166D01*
X026181Y019008D02*
X025141Y019008D01*
X025168Y018849D02*
X026181Y018849D01*
X026181Y018691D02*
X025168Y018691D01*
X025098Y018532D02*
X026181Y018532D01*
X026181Y019325D02*
X024948Y019325D01*
X025106Y019483D02*
X026181Y019483D01*
X026181Y019642D02*
X025208Y019642D01*
X025208Y019800D02*
X026181Y019800D01*
X026181Y019959D02*
X025208Y019959D01*
X025087Y020118D02*
X026181Y020118D01*
X026181Y020276D02*
X025570Y020276D01*
X025151Y020276D02*
X024929Y020276D01*
X024755Y020435D02*
X020951Y020435D01*
X020951Y020593D02*
X024559Y020593D01*
X024424Y020752D02*
X020951Y020752D01*
X020951Y020910D02*
X024332Y020910D01*
X024276Y021069D02*
X020951Y021069D01*
X020951Y021227D02*
X021366Y021227D01*
X021188Y021386D02*
X021034Y021386D01*
X021099Y021544D02*
X021122Y021544D01*
X021856Y021227D02*
X022366Y021227D01*
X022188Y021386D02*
X022034Y021386D01*
X022099Y021544D02*
X022122Y021544D01*
X022108Y021703D02*
X022114Y021703D01*
X022108Y021862D02*
X022114Y021862D01*
X022108Y022020D02*
X022114Y022020D01*
X022108Y022179D02*
X022114Y022179D01*
X022100Y022337D02*
X022122Y022337D01*
X021611Y021941D02*
X020611Y021941D01*
X022856Y021227D02*
X023366Y021227D01*
X023188Y021386D02*
X023034Y021386D01*
X023099Y021544D02*
X023122Y021544D01*
X023108Y021703D02*
X023114Y021703D01*
X023108Y021862D02*
X023114Y021862D01*
X023108Y022020D02*
X023114Y022020D01*
X023108Y022179D02*
X023114Y022179D01*
X023100Y022337D02*
X023122Y022337D01*
X024100Y022337D02*
X024737Y022337D01*
X024549Y022179D02*
X024108Y022179D01*
X024108Y022020D02*
X024418Y022020D01*
X024326Y021862D02*
X024108Y021862D01*
X024108Y021703D02*
X024273Y021703D01*
X024231Y021544D02*
X024099Y021544D01*
X024034Y021386D02*
X024230Y021386D01*
X024234Y021227D02*
X023856Y021227D01*
X025967Y020435D02*
X026181Y020435D01*
X026181Y020593D02*
X026163Y020593D01*
X008733Y021862D02*
X007489Y021862D01*
D24*
X002411Y020241D03*
X005111Y018541D03*
X001511Y017341D03*
X001511Y015341D03*
X007548Y014541D03*
X011211Y011591D03*
X012061Y010191D03*
X015511Y009141D03*
X012211Y008191D03*
X008011Y006041D03*
X018111Y006141D03*
X023886Y004516D03*
X017111Y013691D03*
X019811Y013891D03*
X011111Y018041D03*
D25*
X019436Y009516D03*
D26*
X018761Y011491D02*
X018611Y011641D01*
X018361Y011641D01*
X018761Y011491D02*
X021361Y011491D01*
X021811Y011941D01*
X021811Y012341D01*
D27*
X017811Y010241D03*
X012611Y011041D03*
X008311Y010941D03*
X007911Y010141D03*
X005511Y009641D03*
X003111Y008741D03*
X003111Y010541D03*
X004311Y011041D03*
X008511Y007141D03*
X010511Y006441D03*
X010511Y005641D03*
X013011Y006241D03*
X012711Y014441D03*
X013111Y015441D03*
X014411Y015441D03*
D28*
X008411Y018541D03*
M02*
