G75*
%MOIN*%
%OFA0B0*%
%FSLAX25Y25*%
%IPPOS*%
%LPD*%
%AMOC8*
5,1,8,0,0,1.08239X$1,22.5*
%
%ADD10C,0.05600*%
%ADD11C,0.05150*%
%ADD12OC8,0.05150*%
%ADD13R,0.12000X0.12000*%
%ADD14R,0.10039X0.10039*%
%ADD15OC8,0.15000*%
%ADD16OC8,0.06600*%
%ADD17C,0.10000*%
%ADD18C,0.01600*%
%ADD19C,0.05000*%
%ADD20C,0.05000*%
D10*
X0171957Y0100800D03*
X0191643Y0100800D03*
X0191643Y0155800D03*
X0171957Y0155800D03*
D11*
X0170800Y0200800D03*
X0170800Y0210800D03*
X0160800Y0210800D03*
X0150800Y0210800D03*
X0150800Y0200800D03*
X0160800Y0200800D03*
X0140800Y0200800D03*
X0140800Y0210800D03*
X0130800Y0210800D03*
X0120800Y0210800D03*
X0120800Y0200800D03*
X0130800Y0200800D03*
X0110800Y0200800D03*
X0110800Y0210800D03*
X0100800Y0210800D03*
X0100800Y0200800D03*
X0186800Y0200800D03*
X0196800Y0200800D03*
X0196800Y0210800D03*
X0186800Y0210800D03*
X0206800Y0210800D03*
X0206800Y0200800D03*
X0216800Y0200800D03*
X0226800Y0200800D03*
X0226800Y0210800D03*
X0216800Y0210800D03*
X0236800Y0210800D03*
X0236800Y0200800D03*
X0246800Y0200800D03*
X0256800Y0200800D03*
X0256800Y0210800D03*
X0246800Y0210800D03*
X0246800Y0030800D03*
X0256800Y0030800D03*
X0256800Y0020800D03*
X0246800Y0020800D03*
X0236800Y0020800D03*
X0226800Y0020800D03*
X0216800Y0020800D03*
X0206800Y0020800D03*
X0206800Y0030800D03*
X0216800Y0030800D03*
X0226800Y0030800D03*
X0236800Y0030800D03*
X0186800Y0020800D03*
X0176800Y0020800D03*
X0166800Y0020800D03*
X0156800Y0020800D03*
X0146800Y0020800D03*
X0136800Y0020800D03*
D12*
X0211800Y0084383D03*
X0211800Y0090091D03*
X0211800Y0095800D03*
X0211800Y0101509D03*
X0211800Y0107217D03*
X0211800Y0139383D03*
X0211800Y0145091D03*
X0211800Y0150800D03*
X0211800Y0156509D03*
X0211800Y0162217D03*
D13*
X0090776Y0105800D03*
X0090776Y0065800D03*
D14*
X0075186Y0065800D03*
X0059595Y0065800D03*
X0044005Y0065800D03*
X0028414Y0065800D03*
X0012824Y0065800D03*
X0012824Y0105800D03*
X0028414Y0105800D03*
X0044005Y0105800D03*
X0059595Y0105800D03*
X0075186Y0105800D03*
D15*
X0071800Y0150564D03*
X0026800Y0150564D03*
X0026800Y0210800D03*
X0071800Y0210800D03*
D16*
X0071800Y0035800D03*
X0091800Y0035800D03*
X0091800Y0015800D03*
X0071800Y0015800D03*
X0041800Y0015800D03*
X0021800Y0015800D03*
X0021800Y0035800D03*
X0041800Y0035800D03*
D17*
X0044005Y0065800D02*
X0044005Y0105800D01*
X0044005Y0133359D01*
X0026800Y0150564D01*
X0026800Y0210800D01*
X0071800Y0210800D02*
X0071800Y0150564D01*
X0090776Y0131587D01*
X0090776Y0105800D01*
X0090776Y0065800D01*
D18*
X0006600Y0059439D02*
X0006600Y0010600D01*
X0100919Y0010600D01*
X0100019Y0011500D01*
X0094712Y0011500D01*
X0093912Y0010700D01*
X0089688Y0010700D01*
X0088888Y0011500D01*
X0074712Y0011500D01*
X0073912Y0010700D01*
X0069688Y0010700D01*
X0068888Y0011500D01*
X0044712Y0011500D01*
X0043912Y0010700D01*
X0039688Y0010700D01*
X0038888Y0011500D01*
X0039688Y0010700D01*
X0043912Y0010700D01*
X0044712Y0011500D01*
X0068888Y0011500D01*
X0069688Y0010700D01*
X0073912Y0010700D01*
X0074712Y0011500D01*
X0088888Y0011500D01*
X0089688Y0010700D01*
X0093912Y0010700D01*
X0094712Y0011500D01*
X0100019Y0011500D01*
X0100919Y0010600D01*
X0006600Y0010600D01*
X0006600Y0059439D01*
X0007058Y0058980D01*
X0018589Y0058980D01*
X0019643Y0060035D01*
X0019643Y0071565D01*
X0018589Y0072620D01*
X0007058Y0072620D01*
X0006600Y0072161D01*
X0006600Y0099439D01*
X0007058Y0098980D01*
X0018589Y0098980D01*
X0019643Y0100035D01*
X0019643Y0111565D01*
X0018589Y0112620D01*
X0007058Y0112620D01*
X0006600Y0112161D01*
X0006600Y0221000D01*
X0267000Y0221000D01*
X0267000Y0010600D01*
X0142681Y0010600D01*
X0149098Y0017016D01*
X0149278Y0017091D01*
X0150509Y0018322D01*
X0151175Y0019930D01*
X0151175Y0021670D01*
X0150509Y0023278D01*
X0149278Y0024509D01*
X0147670Y0025175D01*
X0145930Y0025175D01*
X0144322Y0024509D01*
X0143091Y0023278D01*
X0143016Y0023098D01*
X0141175Y0021256D01*
X0141175Y0021670D01*
X0140509Y0023278D01*
X0139278Y0024509D01*
X0137670Y0025175D01*
X0135930Y0025175D01*
X0134322Y0024509D01*
X0133091Y0023278D01*
X0132425Y0021670D01*
X0132425Y0019930D01*
X0133091Y0018322D01*
X0134322Y0017091D01*
X0135930Y0016425D01*
X0136344Y0016425D01*
X0135019Y0015100D01*
X0108581Y0015100D01*
X0104236Y0019445D01*
X0102655Y0020100D01*
X0094712Y0020100D01*
X0093912Y0020900D01*
X0089688Y0020900D01*
X0088888Y0020100D01*
X0074712Y0020100D01*
X0073912Y0020900D01*
X0069688Y0020900D01*
X0068888Y0020100D01*
X0044712Y0020100D01*
X0043912Y0020900D01*
X0039688Y0020900D01*
X0038888Y0020100D01*
X0024712Y0020100D01*
X0023912Y0020900D01*
X0022781Y0020900D01*
X0016100Y0027581D01*
X0016100Y0039019D01*
X0023581Y0046500D01*
X0055295Y0046500D01*
X0055295Y0037149D01*
X0055950Y0035569D01*
X0057160Y0034359D01*
X0069364Y0022155D01*
X0070945Y0021500D01*
X0097655Y0021500D01*
X0099236Y0022155D01*
X0119236Y0042155D01*
X0120445Y0043364D01*
X0121100Y0044945D01*
X0121100Y0116655D01*
X0120445Y0118236D01*
X0119236Y0119445D01*
X0117655Y0120100D01*
X0115945Y0120100D01*
X0114364Y0119445D01*
X0113155Y0118236D01*
X0112500Y0116655D01*
X0112500Y0047581D01*
X0095019Y0030100D01*
X0073581Y0030100D01*
X0072981Y0030700D01*
X0073912Y0030700D01*
X0076900Y0033688D01*
X0076900Y0037912D01*
X0073912Y0040900D01*
X0069688Y0040900D01*
X0066700Y0037912D01*
X0066700Y0036981D01*
X0063895Y0039786D01*
X0063895Y0058980D01*
X0065361Y0058980D01*
X0066415Y0060035D01*
X0066415Y0071565D01*
X0065361Y0072620D01*
X0063895Y0072620D01*
X0063895Y0098980D01*
X0065361Y0098980D01*
X0066415Y0100035D01*
X0066415Y0111565D01*
X0065361Y0112620D01*
X0053830Y0112620D01*
X0052776Y0111565D01*
X0052776Y0100035D01*
X0053830Y0098980D01*
X0055295Y0098980D01*
X0055295Y0072620D01*
X0053830Y0072620D01*
X0052776Y0071565D01*
X0052776Y0060035D01*
X0053830Y0058980D01*
X0055295Y0058980D01*
X0055295Y0055376D01*
X0055019Y0055100D01*
X0020945Y0055100D01*
X0019364Y0054445D01*
X0009364Y0044445D01*
X0008155Y0043236D01*
X0007500Y0041655D01*
X0007500Y0024945D01*
X0008155Y0023364D01*
X0016700Y0014819D01*
X0016700Y0013688D01*
X0019688Y0010700D01*
X0023912Y0010700D01*
X0024712Y0011500D01*
X0038888Y0011500D01*
X0024712Y0011500D01*
X0023912Y0010700D01*
X0019688Y0010700D01*
X0016700Y0013688D01*
X0016700Y0014819D01*
X0008155Y0023364D01*
X0007500Y0024945D01*
X0007500Y0041655D01*
X0008155Y0043236D01*
X0009364Y0044445D01*
X0019364Y0054445D01*
X0020945Y0055100D01*
X0055019Y0055100D01*
X0055295Y0055376D01*
X0055295Y0058980D01*
X0053830Y0058980D01*
X0052776Y0060035D01*
X0052776Y0071565D01*
X0053830Y0072620D01*
X0055295Y0072620D01*
X0055295Y0098980D01*
X0053830Y0098980D01*
X0052776Y0100035D01*
X0052776Y0111565D01*
X0053830Y0112620D01*
X0065361Y0112620D01*
X0066415Y0111565D01*
X0066415Y0100035D01*
X0065361Y0098980D01*
X0063895Y0098980D01*
X0063895Y0072620D01*
X0065361Y0072620D01*
X0066415Y0071565D01*
X0066415Y0060035D01*
X0065361Y0058980D01*
X0063895Y0058980D01*
X0063895Y0039786D01*
X0066700Y0036981D01*
X0066700Y0037912D01*
X0069688Y0040900D01*
X0073912Y0040900D01*
X0076900Y0037912D01*
X0076900Y0033688D01*
X0073912Y0030700D01*
X0072981Y0030700D01*
X0073581Y0030100D01*
X0095019Y0030100D01*
X0112500Y0047581D01*
X0112500Y0116655D01*
X0113155Y0118236D01*
X0114364Y0119445D01*
X0115945Y0120100D01*
X0117655Y0120100D01*
X0119236Y0119445D01*
X0120445Y0118236D01*
X0121100Y0116655D01*
X0121100Y0044945D01*
X0120445Y0043364D01*
X0119236Y0042155D01*
X0099236Y0022155D01*
X0097655Y0021500D01*
X0070945Y0021500D01*
X0069364Y0022155D01*
X0057160Y0034359D01*
X0055950Y0035569D01*
X0055295Y0037149D01*
X0055295Y0046500D01*
X0023581Y0046500D01*
X0016100Y0039019D01*
X0016100Y0027581D01*
X0022781Y0020900D01*
X0023912Y0020900D01*
X0024712Y0020100D01*
X0038888Y0020100D01*
X0039688Y0020900D01*
X0043912Y0020900D01*
X0044712Y0020100D01*
X0068888Y0020100D01*
X0069688Y0020900D01*
X0073912Y0020900D01*
X0074712Y0020100D01*
X0088888Y0020100D01*
X0089688Y0020900D01*
X0093912Y0020900D01*
X0094712Y0020100D01*
X0102655Y0020100D01*
X0104236Y0019445D01*
X0108581Y0015100D01*
X0135019Y0015100D01*
X0136344Y0016425D01*
X0135930Y0016425D01*
X0134322Y0017091D01*
X0133091Y0018322D01*
X0132425Y0019930D01*
X0132425Y0021670D01*
X0133091Y0023278D01*
X0134322Y0024509D01*
X0135930Y0025175D01*
X0137670Y0025175D01*
X0139278Y0024509D01*
X0140509Y0023278D01*
X0141175Y0021670D01*
X0141175Y0021256D01*
X0143016Y0023098D01*
X0143091Y0023278D01*
X0144322Y0024509D01*
X0145930Y0025175D01*
X0147670Y0025175D01*
X0149278Y0024509D01*
X0150509Y0023278D01*
X0151175Y0021670D01*
X0151175Y0019930D01*
X0150509Y0018322D01*
X0149278Y0017091D01*
X0149098Y0017016D01*
X0142681Y0010600D01*
X0267000Y0010600D01*
X0267000Y0221000D01*
X0006600Y0221000D01*
X0006600Y0112161D01*
X0007058Y0112620D01*
X0018589Y0112620D01*
X0019643Y0111565D01*
X0019643Y0100035D01*
X0018589Y0098980D01*
X0007058Y0098980D01*
X0006600Y0099439D01*
X0006600Y0072161D01*
X0007058Y0072620D01*
X0018589Y0072620D01*
X0019643Y0071565D01*
X0019643Y0060035D01*
X0018589Y0058980D01*
X0007058Y0058980D01*
X0006600Y0059439D01*
X0006600Y0058551D02*
X0055295Y0058551D01*
X0006600Y0058551D01*
X0006600Y0056952D02*
X0055295Y0056952D01*
X0006600Y0056952D01*
X0006600Y0055354D02*
X0055273Y0055354D01*
X0006600Y0055354D01*
X0006600Y0053755D02*
X0018674Y0053755D01*
X0006600Y0053755D01*
X0006600Y0052157D02*
X0017076Y0052157D01*
X0006600Y0052157D01*
X0006600Y0050558D02*
X0015477Y0050558D01*
X0006600Y0050558D01*
X0006600Y0048960D02*
X0013879Y0048960D01*
X0006600Y0048960D01*
X0006600Y0047361D02*
X0012280Y0047361D01*
X0006600Y0047361D01*
X0006600Y0045763D02*
X0010682Y0045763D01*
X0006600Y0045763D01*
X0006600Y0044164D02*
X0009083Y0044164D01*
X0006600Y0044164D01*
X0006600Y0042566D02*
X0007877Y0042566D01*
X0006600Y0042566D01*
X0006600Y0040967D02*
X0007500Y0040967D01*
X0006600Y0040967D01*
X0006600Y0039369D02*
X0007500Y0039369D01*
X0006600Y0039369D01*
X0006600Y0037770D02*
X0007500Y0037770D01*
X0006600Y0037770D01*
X0006600Y0036172D02*
X0007500Y0036172D01*
X0006600Y0036172D01*
X0006600Y0034573D02*
X0007500Y0034573D01*
X0006600Y0034573D01*
X0006600Y0032975D02*
X0007500Y0032975D01*
X0006600Y0032975D01*
X0006600Y0031376D02*
X0007500Y0031376D01*
X0006600Y0031376D01*
X0006600Y0029778D02*
X0007500Y0029778D01*
X0006600Y0029778D01*
X0006600Y0028179D02*
X0007500Y0028179D01*
X0006600Y0028179D01*
X0006600Y0026581D02*
X0007500Y0026581D01*
X0006600Y0026581D01*
X0006600Y0024982D02*
X0007500Y0024982D01*
X0006600Y0024982D01*
X0006600Y0023384D02*
X0008147Y0023384D01*
X0006600Y0023384D01*
X0006600Y0021785D02*
X0009734Y0021785D01*
X0006600Y0021785D01*
X0006600Y0020187D02*
X0011332Y0020187D01*
X0006600Y0020187D01*
X0006600Y0018588D02*
X0012931Y0018588D01*
X0006600Y0018588D01*
X0006600Y0016990D02*
X0014529Y0016990D01*
X0006600Y0016990D01*
X0006600Y0015391D02*
X0016128Y0015391D01*
X0006600Y0015391D01*
X0006600Y0013793D02*
X0016700Y0013793D01*
X0006600Y0013793D01*
X0006600Y0012194D02*
X0018193Y0012194D01*
X0006600Y0012194D01*
X0018699Y0024982D02*
X0066537Y0024982D01*
X0018699Y0024982D01*
X0020297Y0023384D02*
X0068135Y0023384D01*
X0020297Y0023384D01*
X0021896Y0021785D02*
X0070256Y0021785D01*
X0021896Y0021785D01*
X0024626Y0020187D02*
X0038974Y0020187D01*
X0024626Y0020187D01*
X0017100Y0026581D02*
X0064938Y0026581D01*
X0017100Y0026581D01*
X0016100Y0028179D02*
X0063340Y0028179D01*
X0016100Y0028179D01*
X0016100Y0029778D02*
X0061741Y0029778D01*
X0016100Y0029778D01*
X0016100Y0031376D02*
X0019011Y0031376D01*
X0016100Y0031376D01*
X0016100Y0032975D02*
X0017413Y0032975D01*
X0016100Y0032975D01*
X0016700Y0033688D02*
X0019688Y0030700D01*
X0023912Y0030700D01*
X0026900Y0033688D01*
X0026900Y0037912D01*
X0023912Y0040900D01*
X0019688Y0040900D01*
X0016700Y0037912D01*
X0016700Y0033688D01*
X0019688Y0030700D01*
X0023912Y0030700D01*
X0026900Y0033688D01*
X0026900Y0037912D01*
X0023912Y0040900D01*
X0019688Y0040900D01*
X0016700Y0037912D01*
X0016700Y0033688D01*
X0016700Y0034573D02*
X0016100Y0034573D01*
X0016700Y0034573D01*
X0016700Y0036172D02*
X0016100Y0036172D01*
X0016700Y0036172D01*
X0016700Y0037770D02*
X0016100Y0037770D01*
X0016700Y0037770D01*
X0016450Y0039369D02*
X0018156Y0039369D01*
X0016450Y0039369D01*
X0018048Y0040967D02*
X0055295Y0040967D01*
X0018048Y0040967D01*
X0019647Y0042566D02*
X0055295Y0042566D01*
X0019647Y0042566D01*
X0021245Y0044164D02*
X0055295Y0044164D01*
X0021245Y0044164D01*
X0022844Y0045763D02*
X0055295Y0045763D01*
X0022844Y0045763D01*
X0025444Y0039369D02*
X0038156Y0039369D01*
X0025444Y0039369D01*
X0026900Y0037770D02*
X0036700Y0037770D01*
X0026900Y0037770D01*
X0026900Y0036172D02*
X0036700Y0036172D01*
X0026900Y0036172D01*
X0026900Y0034573D02*
X0036700Y0034573D01*
X0026900Y0034573D01*
X0026187Y0032975D02*
X0037413Y0032975D01*
X0026187Y0032975D01*
X0024589Y0031376D02*
X0039011Y0031376D01*
X0024589Y0031376D01*
X0036700Y0033688D02*
X0039688Y0030700D01*
X0043912Y0030700D01*
X0046900Y0033688D01*
X0046900Y0037912D01*
X0043912Y0040900D01*
X0039688Y0040900D01*
X0036700Y0037912D01*
X0036700Y0033688D01*
X0039688Y0030700D01*
X0043912Y0030700D01*
X0046900Y0033688D01*
X0046900Y0037912D01*
X0043912Y0040900D01*
X0039688Y0040900D01*
X0036700Y0037912D01*
X0036700Y0033688D01*
X0044589Y0031376D02*
X0060143Y0031376D01*
X0044589Y0031376D01*
X0046187Y0032975D02*
X0058544Y0032975D01*
X0046187Y0032975D01*
X0046900Y0034573D02*
X0056946Y0034573D01*
X0046900Y0034573D01*
X0046900Y0036172D02*
X0055700Y0036172D01*
X0046900Y0036172D01*
X0046900Y0037770D02*
X0055295Y0037770D01*
X0046900Y0037770D01*
X0045444Y0039369D02*
X0055295Y0039369D01*
X0045444Y0039369D01*
X0063895Y0040967D02*
X0105886Y0040967D01*
X0063895Y0040967D01*
X0063895Y0042566D02*
X0078953Y0042566D01*
X0063895Y0042566D01*
X0063895Y0044164D02*
X0077355Y0044164D01*
X0063895Y0044164D01*
X0063895Y0045763D02*
X0075756Y0045763D01*
X0063895Y0045763D01*
X0063895Y0047361D02*
X0074158Y0047361D01*
X0063895Y0047361D01*
X0063895Y0048960D02*
X0072559Y0048960D01*
X0063895Y0048960D01*
X0063895Y0050558D02*
X0071300Y0050558D01*
X0063895Y0050558D01*
X0063895Y0052157D02*
X0070886Y0052157D01*
X0063895Y0052157D01*
X0063895Y0053755D02*
X0070886Y0053755D01*
X0063895Y0053755D01*
X0063895Y0055354D02*
X0070886Y0055354D01*
X0063895Y0055354D01*
X0063895Y0056952D02*
X0070886Y0056952D01*
X0063895Y0056952D01*
X0063895Y0058551D02*
X0070886Y0058551D01*
X0063895Y0058551D01*
X0066415Y0060149D02*
X0068366Y0060149D01*
X0066415Y0060149D01*
X0066415Y0061748D02*
X0068366Y0061748D01*
X0066415Y0061748D01*
X0066415Y0063346D02*
X0068366Y0063346D01*
X0066415Y0063346D01*
X0066415Y0064945D02*
X0068366Y0064945D01*
X0066415Y0064945D01*
X0066415Y0066543D02*
X0068366Y0066543D01*
X0066415Y0066543D01*
X0066415Y0068142D02*
X0068366Y0068142D01*
X0066415Y0068142D01*
X0066415Y0069740D02*
X0068366Y0069740D01*
X0066415Y0069740D01*
X0066415Y0071339D02*
X0068366Y0071339D01*
X0066415Y0071339D01*
X0068366Y0071565D02*
X0068366Y0060035D01*
X0069421Y0058980D01*
X0070886Y0058980D01*
X0070886Y0051559D01*
X0071540Y0049978D01*
X0072750Y0048769D01*
X0079364Y0042155D01*
X0080945Y0041500D01*
X0097655Y0041500D01*
X0099236Y0042155D01*
X0100445Y0043364D01*
X0109236Y0052155D01*
X0110445Y0053364D01*
X0111100Y0054945D01*
X0111100Y0119019D01*
X0113581Y0121500D01*
X0117655Y0121500D01*
X0119236Y0122155D01*
X0120445Y0123364D01*
X0121100Y0124945D01*
X0121100Y0126655D01*
X0120445Y0128236D01*
X0119236Y0129445D01*
X0117655Y0130100D01*
X0110945Y0130100D01*
X0109364Y0129445D01*
X0108155Y0128236D01*
X0103155Y0123236D01*
X0102500Y0121655D01*
X0102500Y0057581D01*
X0095019Y0050100D01*
X0083581Y0050100D01*
X0079486Y0054195D01*
X0079486Y0058980D01*
X0080951Y0058980D01*
X0082005Y0060035D01*
X0082005Y0071565D01*
X0080951Y0072620D01*
X0079486Y0072620D01*
X0079486Y0098980D01*
X0080951Y0098980D01*
X0082005Y0100035D01*
X0082005Y0111565D01*
X0080951Y0112620D01*
X0069421Y0112620D01*
X0068366Y0111565D01*
X0068366Y0100035D01*
X0069421Y0098980D01*
X0070886Y0098980D01*
X0070886Y0072620D01*
X0069421Y0072620D01*
X0068366Y0071565D01*
X0068366Y0060035D01*
X0069421Y0058980D01*
X0070886Y0058980D01*
X0070886Y0051559D01*
X0071540Y0049978D01*
X0072750Y0048769D01*
X0079364Y0042155D01*
X0080945Y0041500D01*
X0097655Y0041500D01*
X0099236Y0042155D01*
X0100445Y0043364D01*
X0109236Y0052155D01*
X0110445Y0053364D01*
X0111100Y0054945D01*
X0111100Y0119019D01*
X0113581Y0121500D01*
X0117655Y0121500D01*
X0119236Y0122155D01*
X0120445Y0123364D01*
X0121100Y0124945D01*
X0121100Y0126655D01*
X0120445Y0128236D01*
X0119236Y0129445D01*
X0117655Y0130100D01*
X0110945Y0130100D01*
X0109364Y0129445D01*
X0108155Y0128236D01*
X0103155Y0123236D01*
X0102500Y0121655D01*
X0102500Y0057581D01*
X0095019Y0050100D01*
X0083581Y0050100D01*
X0079486Y0054195D01*
X0079486Y0058980D01*
X0080951Y0058980D01*
X0082005Y0060035D01*
X0082005Y0071565D01*
X0080951Y0072620D01*
X0079486Y0072620D01*
X0079486Y0098980D01*
X0080951Y0098980D01*
X0082005Y0100035D01*
X0082005Y0111565D01*
X0080951Y0112620D01*
X0069421Y0112620D01*
X0068366Y0111565D01*
X0068366Y0100035D01*
X0069421Y0098980D01*
X0070886Y0098980D01*
X0070886Y0072620D01*
X0069421Y0072620D01*
X0068366Y0071565D01*
X0070886Y0072937D02*
X0063895Y0072937D01*
X0070886Y0072937D01*
X0070886Y0074536D02*
X0063895Y0074536D01*
X0070886Y0074536D01*
X0070886Y0076134D02*
X0063895Y0076134D01*
X0070886Y0076134D01*
X0070886Y0077733D02*
X0063895Y0077733D01*
X0070886Y0077733D01*
X0070886Y0079332D02*
X0063895Y0079332D01*
X0070886Y0079332D01*
X0070886Y0080930D02*
X0063895Y0080930D01*
X0070886Y0080930D01*
X0070886Y0082529D02*
X0063895Y0082529D01*
X0070886Y0082529D01*
X0070886Y0084127D02*
X0063895Y0084127D01*
X0070886Y0084127D01*
X0070886Y0085726D02*
X0063895Y0085726D01*
X0070886Y0085726D01*
X0070886Y0087324D02*
X0063895Y0087324D01*
X0070886Y0087324D01*
X0070886Y0088923D02*
X0063895Y0088923D01*
X0070886Y0088923D01*
X0070886Y0090521D02*
X0063895Y0090521D01*
X0070886Y0090521D01*
X0070886Y0092120D02*
X0063895Y0092120D01*
X0070886Y0092120D01*
X0070886Y0093718D02*
X0063895Y0093718D01*
X0070886Y0093718D01*
X0070886Y0095317D02*
X0063895Y0095317D01*
X0070886Y0095317D01*
X0070886Y0096915D02*
X0063895Y0096915D01*
X0070886Y0096915D01*
X0070886Y0098514D02*
X0063895Y0098514D01*
X0070886Y0098514D01*
X0068366Y0100112D02*
X0066415Y0100112D01*
X0068366Y0100112D01*
X0068366Y0101711D02*
X0066415Y0101711D01*
X0068366Y0101711D01*
X0068366Y0103309D02*
X0066415Y0103309D01*
X0068366Y0103309D01*
X0068366Y0104908D02*
X0066415Y0104908D01*
X0068366Y0104908D01*
X0068366Y0106506D02*
X0066415Y0106506D01*
X0068366Y0106506D01*
X0068366Y0108105D02*
X0066415Y0108105D01*
X0068366Y0108105D01*
X0068366Y0109703D02*
X0066415Y0109703D01*
X0068366Y0109703D01*
X0068366Y0111302D02*
X0066415Y0111302D01*
X0068366Y0111302D01*
X0082005Y0111302D02*
X0082976Y0111302D01*
X0082005Y0111302D01*
X0082976Y0112546D02*
X0082976Y0099054D01*
X0083976Y0098054D01*
X0083976Y0073546D01*
X0082976Y0072546D01*
X0082976Y0059054D01*
X0084031Y0058000D01*
X0097522Y0058000D01*
X0098576Y0059054D01*
X0098576Y0072546D01*
X0097576Y0073546D01*
X0097576Y0098054D01*
X0098576Y0099054D01*
X0098576Y0112546D01*
X0097576Y0113546D01*
X0097576Y0132940D01*
X0096867Y0134651D01*
X0098155Y0133364D01*
X0099364Y0132155D01*
X0100945Y0131500D01*
X0145019Y0131500D01*
X0168155Y0108364D01*
X0169364Y0107155D01*
X0170945Y0106500D01*
X0206436Y0106500D01*
X0207425Y0105511D01*
X0207425Y0105405D01*
X0208467Y0104363D01*
X0207425Y0103321D01*
X0207425Y0099697D01*
X0208467Y0098654D01*
X0207425Y0097612D01*
X0207425Y0094391D01*
X0184447Y0094391D01*
X0176157Y0102681D01*
X0175857Y0103406D01*
X0174563Y0104700D01*
X0172872Y0105400D01*
X0171042Y0105400D01*
X0169352Y0104700D01*
X0168058Y0103406D01*
X0167357Y0101715D01*
X0167357Y0099885D01*
X0168058Y0098194D01*
X0169352Y0096900D01*
X0170076Y0096600D01*
X0179021Y0087656D01*
X0180230Y0086446D01*
X0181811Y0085791D01*
X0207425Y0085791D01*
X0207425Y0082571D01*
X0209988Y0080008D01*
X0213612Y0080008D01*
X0216175Y0082571D01*
X0216175Y0086195D01*
X0215133Y0087237D01*
X0216175Y0088279D01*
X0216175Y0091903D01*
X0215133Y0092946D01*
X0216175Y0093988D01*
X0216175Y0097612D01*
X0215133Y0098654D01*
X0216175Y0099697D01*
X0216175Y0103321D01*
X0215133Y0104363D01*
X0216175Y0105405D01*
X0216175Y0109029D01*
X0213612Y0111592D01*
X0213506Y0111592D01*
X0210653Y0114445D01*
X0209073Y0115100D01*
X0173581Y0115100D01*
X0149236Y0139445D01*
X0147655Y0140100D01*
X0103581Y0140100D01*
X0089472Y0154209D01*
X0087892Y0154864D01*
X0082181Y0154864D01*
X0098817Y0171500D01*
X0196436Y0171500D01*
X0207425Y0160511D01*
X0207425Y0160405D01*
X0208467Y0159363D01*
X0207425Y0158321D01*
X0207425Y0154697D01*
X0208467Y0153654D01*
X0207425Y0152612D01*
X0207425Y0149391D01*
X0184447Y0149391D01*
X0176157Y0157681D01*
X0175857Y0158406D01*
X0174563Y0159700D01*
X0172872Y0160400D01*
X0171042Y0160400D01*
X0169352Y0159700D01*
X0168058Y0158406D01*
X0167357Y0156715D01*
X0167357Y0154885D01*
X0168058Y0153194D01*
X0169352Y0151900D01*
X0170076Y0151600D01*
X0180230Y0141446D01*
X0181811Y0140791D01*
X0207425Y0140791D01*
X0207425Y0137571D01*
X0209988Y0135008D01*
X0213612Y0135008D01*
X0216175Y0137571D01*
X0216175Y0141195D01*
X0215133Y0142237D01*
X0216175Y0143279D01*
X0216175Y0146903D01*
X0215133Y0147946D01*
X0216175Y0148988D01*
X0216175Y0152612D01*
X0215133Y0153654D01*
X0216175Y0154697D01*
X0216175Y0158321D01*
X0215133Y0159363D01*
X0216175Y0160405D01*
X0216175Y0164029D01*
X0213612Y0166592D01*
X0213506Y0166592D01*
X0201863Y0178236D01*
X0200653Y0179445D01*
X0199073Y0180100D01*
X0096181Y0180100D01*
X0094600Y0179445D01*
X0078600Y0163445D01*
X0078600Y0204448D01*
X0081100Y0206948D01*
X0081100Y0214652D01*
X0075652Y0220100D01*
X0067948Y0220100D01*
X0062500Y0214652D01*
X0062500Y0206948D01*
X0065000Y0204448D01*
X0065000Y0156916D01*
X0062500Y0154416D01*
X0062500Y0146712D01*
X0067948Y0141264D01*
X0071483Y0141264D01*
X0083976Y0128771D01*
X0083976Y0113546D01*
X0082976Y0112546D01*
X0082976Y0099054D01*
X0083976Y0098054D01*
X0083976Y0073546D01*
X0082976Y0072546D01*
X0082976Y0059054D01*
X0084031Y0058000D01*
X0097522Y0058000D01*
X0098576Y0059054D01*
X0098576Y0072546D01*
X0097576Y0073546D01*
X0097576Y0098054D01*
X0098576Y0099054D01*
X0098576Y0112546D01*
X0097576Y0113546D01*
X0097576Y0132940D01*
X0096867Y0134651D01*
X0098155Y0133364D01*
X0099364Y0132155D01*
X0100945Y0131500D01*
X0145019Y0131500D01*
X0168155Y0108364D01*
X0169364Y0107155D01*
X0170945Y0106500D01*
X0206436Y0106500D01*
X0207425Y0105511D01*
X0207425Y0105405D01*
X0208467Y0104363D01*
X0207425Y0103321D01*
X0207425Y0099697D01*
X0208467Y0098654D01*
X0207425Y0097612D01*
X0207425Y0095800D01*
X0211800Y0095800D01*
X0216175Y0095800D01*
X0216175Y0097612D01*
X0215133Y0098654D01*
X0216175Y0099697D01*
X0216175Y0103321D01*
X0215133Y0104363D01*
X0216175Y0105405D01*
X0216175Y0109029D01*
X0213612Y0111592D01*
X0213506Y0111592D01*
X0210653Y0114445D01*
X0209073Y0115100D01*
X0173581Y0115100D01*
X0149236Y0139445D01*
X0147655Y0140100D01*
X0103581Y0140100D01*
X0089472Y0154209D01*
X0087892Y0154864D01*
X0082181Y0154864D01*
X0098817Y0171500D01*
X0196436Y0171500D01*
X0207425Y0160511D01*
X0207425Y0160405D01*
X0208467Y0159363D01*
X0207425Y0158321D01*
X0207425Y0154697D01*
X0208467Y0153654D01*
X0207425Y0152612D01*
X0207425Y0150800D01*
X0211800Y0150800D01*
X0216175Y0150800D01*
X0216175Y0152612D01*
X0215133Y0153654D01*
X0216175Y0154697D01*
X0216175Y0158321D01*
X0215133Y0159363D01*
X0216175Y0160405D01*
X0216175Y0164029D01*
X0213612Y0166592D01*
X0213506Y0166592D01*
X0201863Y0178236D01*
X0200653Y0179445D01*
X0199073Y0180100D01*
X0096181Y0180100D01*
X0094600Y0179445D01*
X0078600Y0163445D01*
X0078600Y0204448D01*
X0081100Y0206948D01*
X0081100Y0214652D01*
X0075652Y0220100D01*
X0067948Y0220100D01*
X0062500Y0214652D01*
X0062500Y0206948D01*
X0065000Y0204448D01*
X0065000Y0156916D01*
X0062500Y0154416D01*
X0062500Y0146712D01*
X0067948Y0141264D01*
X0071483Y0141264D01*
X0083976Y0128771D01*
X0083976Y0113546D01*
X0082976Y0112546D01*
X0083331Y0112900D02*
X0006600Y0112900D01*
X0037205Y0112900D01*
X0037880Y0112260D02*
X0037545Y0111925D01*
X0037308Y0111514D01*
X0037185Y0111057D01*
X0037185Y0106600D01*
X0043205Y0106600D01*
X0043205Y0112620D01*
X0038748Y0112620D01*
X0038290Y0112497D01*
X0037880Y0112260D01*
X0037205Y0111585D02*
X0037185Y0111565D01*
X0037185Y0100035D01*
X0037205Y0100015D01*
X0037205Y0071585D01*
X0037185Y0071565D01*
X0037185Y0060035D01*
X0038239Y0058980D01*
X0049770Y0058980D01*
X0050824Y0060035D01*
X0050824Y0071565D01*
X0050805Y0071585D01*
X0050805Y0100015D01*
X0050824Y0100035D01*
X0050824Y0111565D01*
X0050805Y0111585D01*
X0050805Y0134712D01*
X0049769Y0137211D01*
X0047857Y0139124D01*
X0036100Y0150880D01*
X0036100Y0154416D01*
X0033600Y0156916D01*
X0033600Y0204448D01*
X0036100Y0206948D01*
X0036100Y0214652D01*
X0030652Y0220100D01*
X0022948Y0220100D01*
X0017500Y0214652D01*
X0017500Y0206948D01*
X0020000Y0204448D01*
X0020000Y0156916D01*
X0017500Y0154416D01*
X0017500Y0146712D01*
X0022948Y0141264D01*
X0026483Y0141264D01*
X0037205Y0130542D01*
X0037205Y0111585D01*
X0037185Y0111302D02*
X0035234Y0111302D01*
X0037251Y0111302D01*
X0037185Y0109703D02*
X0035234Y0109703D01*
X0037185Y0109703D01*
X0037185Y0108105D02*
X0035234Y0108105D01*
X0037185Y0108105D01*
X0037185Y0106506D02*
X0035234Y0106506D01*
X0043205Y0106506D01*
X0043205Y0106600D02*
X0043205Y0105000D01*
X0044805Y0105000D01*
X0044805Y0106600D01*
X0050824Y0106600D01*
X0050824Y0111057D01*
X0050702Y0111514D01*
X0050465Y0111925D01*
X0050130Y0112260D01*
X0049719Y0112497D01*
X0049261Y0112620D01*
X0044805Y0112620D01*
X0044805Y0106600D01*
X0043205Y0106600D01*
X0043205Y0108105D02*
X0044805Y0108105D01*
X0044805Y0109703D02*
X0043205Y0109703D01*
X0043205Y0111302D02*
X0044805Y0111302D01*
X0050759Y0111302D02*
X0052776Y0111302D01*
X0050824Y0111302D01*
X0050805Y0112900D02*
X0083331Y0112900D01*
X0083976Y0114499D02*
X0050805Y0114499D01*
X0050805Y0116097D02*
X0083976Y0116097D01*
X0006600Y0116097D01*
X0037205Y0116097D01*
X0037205Y0114499D02*
X0006600Y0114499D01*
X0083976Y0114499D01*
X0083976Y0117696D02*
X0050805Y0117696D01*
X0050805Y0119294D02*
X0083976Y0119294D01*
X0006600Y0119294D01*
X0037205Y0119294D01*
X0037205Y0117696D02*
X0006600Y0117696D01*
X0083976Y0117696D01*
X0083976Y0120893D02*
X0050805Y0120893D01*
X0050805Y0122491D02*
X0083976Y0122491D01*
X0006600Y0122491D01*
X0037205Y0122491D01*
X0037205Y0120893D02*
X0006600Y0120893D01*
X0083976Y0120893D01*
X0083976Y0124090D02*
X0050805Y0124090D01*
X0050805Y0125688D02*
X0083976Y0125688D01*
X0006600Y0125688D01*
X0037205Y0125688D01*
X0037205Y0124090D02*
X0006600Y0124090D01*
X0083976Y0124090D01*
X0083976Y0127287D02*
X0050805Y0127287D01*
X0050805Y0128885D02*
X0083862Y0128885D01*
X0006600Y0128885D01*
X0037205Y0128885D01*
X0037205Y0127287D02*
X0006600Y0127287D01*
X0083976Y0127287D01*
X0082263Y0130484D02*
X0050805Y0130484D01*
X0050805Y0132082D02*
X0080665Y0132082D01*
X0006600Y0132082D01*
X0035665Y0132082D01*
X0037205Y0130484D02*
X0006600Y0130484D01*
X0082263Y0130484D01*
X0079066Y0133681D02*
X0050805Y0133681D01*
X0050570Y0135279D02*
X0077468Y0135279D01*
X0006600Y0135279D01*
X0032468Y0135279D01*
X0034066Y0133681D02*
X0006600Y0133681D01*
X0079066Y0133681D01*
X0075869Y0136878D02*
X0049907Y0136878D01*
X0048504Y0138476D02*
X0074271Y0138476D01*
X0006600Y0138476D01*
X0029271Y0138476D01*
X0030869Y0136878D02*
X0006600Y0136878D01*
X0075869Y0136878D01*
X0072672Y0140075D02*
X0046905Y0140075D01*
X0045307Y0141673D02*
X0067538Y0141673D01*
X0031062Y0141673D01*
X0030652Y0141264D02*
X0027600Y0141264D01*
X0027600Y0149764D01*
X0027600Y0151364D01*
X0026000Y0151364D01*
X0026000Y0159864D01*
X0022948Y0159864D01*
X0017500Y0154416D01*
X0017500Y0151364D01*
X0026000Y0151364D01*
X0026000Y0149764D01*
X0017500Y0149764D01*
X0017500Y0146712D01*
X0022948Y0141264D01*
X0026000Y0141264D01*
X0026000Y0149764D01*
X0027600Y0149764D01*
X0036100Y0149764D01*
X0036100Y0146712D01*
X0030652Y0141264D01*
X0032660Y0143272D02*
X0065940Y0143272D01*
X0043708Y0143272D01*
X0042110Y0144870D02*
X0064341Y0144870D01*
X0034259Y0144870D01*
X0035857Y0146469D02*
X0062743Y0146469D01*
X0040511Y0146469D01*
X0038913Y0148068D02*
X0062500Y0148068D01*
X0036100Y0148068D01*
X0036100Y0149666D02*
X0062500Y0149666D01*
X0037314Y0149666D01*
X0036100Y0151265D02*
X0062500Y0151265D01*
X0027600Y0151265D01*
X0027600Y0151364D02*
X0036100Y0151364D01*
X0036100Y0154416D01*
X0030652Y0159864D01*
X0027600Y0159864D01*
X0027600Y0151364D01*
X0027600Y0152863D02*
X0026000Y0152863D01*
X0026000Y0151265D02*
X0006600Y0151265D01*
X0017500Y0151265D01*
X0017500Y0152863D02*
X0006600Y0152863D01*
X0017500Y0152863D01*
X0017546Y0154462D02*
X0006600Y0154462D01*
X0017546Y0154462D01*
X0019144Y0156060D02*
X0006600Y0156060D01*
X0019144Y0156060D01*
X0020000Y0157659D02*
X0006600Y0157659D01*
X0020743Y0157659D01*
X0020000Y0159257D02*
X0006600Y0159257D01*
X0022341Y0159257D01*
X0020000Y0160856D02*
X0006600Y0160856D01*
X0065000Y0160856D01*
X0033600Y0160856D01*
X0033600Y0162454D02*
X0065000Y0162454D01*
X0006600Y0162454D01*
X0020000Y0162454D01*
X0020000Y0164053D02*
X0006600Y0164053D01*
X0065000Y0164053D01*
X0033600Y0164053D01*
X0033600Y0165651D02*
X0065000Y0165651D01*
X0006600Y0165651D01*
X0020000Y0165651D01*
X0020000Y0167250D02*
X0006600Y0167250D01*
X0065000Y0167250D01*
X0033600Y0167250D01*
X0033600Y0168848D02*
X0065000Y0168848D01*
X0006600Y0168848D01*
X0020000Y0168848D01*
X0020000Y0170447D02*
X0006600Y0170447D01*
X0065000Y0170447D01*
X0033600Y0170447D01*
X0033600Y0172045D02*
X0065000Y0172045D01*
X0006600Y0172045D01*
X0020000Y0172045D01*
X0020000Y0173644D02*
X0006600Y0173644D01*
X0065000Y0173644D01*
X0033600Y0173644D01*
X0033600Y0175242D02*
X0065000Y0175242D01*
X0006600Y0175242D01*
X0020000Y0175242D01*
X0020000Y0176841D02*
X0006600Y0176841D01*
X0065000Y0176841D01*
X0033600Y0176841D01*
X0033600Y0178439D02*
X0065000Y0178439D01*
X0006600Y0178439D01*
X0020000Y0178439D01*
X0020000Y0180038D02*
X0006600Y0180038D01*
X0065000Y0180038D01*
X0033600Y0180038D01*
X0033600Y0181636D02*
X0065000Y0181636D01*
X0006600Y0181636D01*
X0020000Y0181636D01*
X0020000Y0183235D02*
X0006600Y0183235D01*
X0065000Y0183235D01*
X0033600Y0183235D01*
X0033600Y0184833D02*
X0065000Y0184833D01*
X0006600Y0184833D01*
X0020000Y0184833D01*
X0020000Y0186432D02*
X0006600Y0186432D01*
X0065000Y0186432D01*
X0033600Y0186432D01*
X0033600Y0188030D02*
X0065000Y0188030D01*
X0006600Y0188030D01*
X0020000Y0188030D01*
X0020000Y0189629D02*
X0006600Y0189629D01*
X0065000Y0189629D01*
X0033600Y0189629D01*
X0033600Y0191227D02*
X0065000Y0191227D01*
X0006600Y0191227D01*
X0020000Y0191227D01*
X0020000Y0192826D02*
X0006600Y0192826D01*
X0065000Y0192826D01*
X0033600Y0192826D01*
X0033600Y0194424D02*
X0065000Y0194424D01*
X0006600Y0194424D01*
X0020000Y0194424D01*
X0020000Y0196023D02*
X0006600Y0196023D01*
X0065000Y0196023D01*
X0033600Y0196023D01*
X0033600Y0197621D02*
X0065000Y0197621D01*
X0006600Y0197621D01*
X0020000Y0197621D01*
X0020000Y0199220D02*
X0006600Y0199220D01*
X0065000Y0199220D01*
X0033600Y0199220D01*
X0033600Y0200818D02*
X0065000Y0200818D01*
X0006600Y0200818D01*
X0020000Y0200818D01*
X0020000Y0202417D02*
X0006600Y0202417D01*
X0022031Y0202417D01*
X0022948Y0201500D02*
X0026000Y0201500D01*
X0026000Y0210000D01*
X0027600Y0210000D01*
X0027600Y0211600D01*
X0036100Y0211600D01*
X0036100Y0214652D01*
X0030652Y0220100D01*
X0027600Y0220100D01*
X0027600Y0211600D01*
X0026000Y0211600D01*
X0026000Y0220100D01*
X0022948Y0220100D01*
X0017500Y0214652D01*
X0017500Y0211600D01*
X0026000Y0211600D01*
X0026000Y0210000D01*
X0017500Y0210000D01*
X0017500Y0206948D01*
X0022948Y0201500D01*
X0026000Y0202417D02*
X0027600Y0202417D01*
X0027600Y0201500D02*
X0030652Y0201500D01*
X0036100Y0206948D01*
X0036100Y0210000D01*
X0027600Y0210000D01*
X0027600Y0201500D01*
X0031569Y0202417D02*
X0065000Y0202417D01*
X0033600Y0202417D01*
X0033600Y0204015D02*
X0065000Y0204015D01*
X0033168Y0204015D01*
X0034766Y0205614D02*
X0063834Y0205614D01*
X0034766Y0205614D01*
X0036100Y0207212D02*
X0062500Y0207212D01*
X0036100Y0207212D01*
X0036100Y0208811D02*
X0062500Y0208811D01*
X0036100Y0208811D01*
X0036100Y0210409D02*
X0062500Y0210409D01*
X0027600Y0210409D01*
X0027600Y0208811D02*
X0026000Y0208811D01*
X0026000Y0210409D02*
X0006600Y0210409D01*
X0017500Y0210409D01*
X0017500Y0208811D02*
X0006600Y0208811D01*
X0017500Y0208811D01*
X0017500Y0207212D02*
X0006600Y0207212D01*
X0017500Y0207212D01*
X0018834Y0205614D02*
X0006600Y0205614D01*
X0018834Y0205614D01*
X0020000Y0204015D02*
X0006600Y0204015D01*
X0020432Y0204015D01*
X0026000Y0204015D02*
X0027600Y0204015D01*
X0027600Y0205614D02*
X0026000Y0205614D01*
X0026000Y0207212D02*
X0027600Y0207212D01*
X0027600Y0212008D02*
X0026000Y0212008D01*
X0026000Y0213606D02*
X0027600Y0213606D01*
X0027600Y0215205D02*
X0026000Y0215205D01*
X0026000Y0216803D02*
X0027600Y0216803D01*
X0027600Y0218402D02*
X0026000Y0218402D01*
X0026000Y0220001D02*
X0027600Y0220001D01*
X0030752Y0220001D02*
X0067848Y0220001D01*
X0030752Y0220001D01*
X0032350Y0218402D02*
X0066250Y0218402D01*
X0032350Y0218402D01*
X0033949Y0216803D02*
X0064651Y0216803D01*
X0033949Y0216803D01*
X0035547Y0215205D02*
X0063053Y0215205D01*
X0035547Y0215205D01*
X0036100Y0213606D02*
X0062500Y0213606D01*
X0036100Y0213606D01*
X0036100Y0212008D02*
X0062500Y0212008D01*
X0036100Y0212008D01*
X0022848Y0220001D02*
X0006600Y0220001D01*
X0022848Y0220001D01*
X0021250Y0218402D02*
X0006600Y0218402D01*
X0021250Y0218402D01*
X0019651Y0216803D02*
X0006600Y0216803D01*
X0019651Y0216803D01*
X0018053Y0215205D02*
X0006600Y0215205D01*
X0018053Y0215205D01*
X0017500Y0213606D02*
X0006600Y0213606D01*
X0017500Y0213606D01*
X0017500Y0212008D02*
X0006600Y0212008D01*
X0017500Y0212008D01*
X0075752Y0220001D02*
X0267000Y0220001D01*
X0075752Y0220001D01*
X0077350Y0218402D02*
X0267000Y0218402D01*
X0077350Y0218402D01*
X0078949Y0216803D02*
X0267000Y0216803D01*
X0078949Y0216803D01*
X0080547Y0215205D02*
X0267000Y0215205D01*
X0080547Y0215205D01*
X0081100Y0213606D02*
X0097420Y0213606D01*
X0081100Y0213606D01*
X0081100Y0212008D02*
X0096565Y0212008D01*
X0081100Y0212008D01*
X0081100Y0210409D02*
X0096425Y0210409D01*
X0081100Y0210409D01*
X0081100Y0208811D02*
X0096889Y0208811D01*
X0081100Y0208811D01*
X0081100Y0207212D02*
X0098201Y0207212D01*
X0081100Y0207212D01*
X0079766Y0205614D02*
X0267000Y0205614D01*
X0079766Y0205614D01*
X0078600Y0204015D02*
X0097828Y0204015D01*
X0078600Y0204015D01*
X0078600Y0202417D02*
X0096734Y0202417D01*
X0078600Y0202417D01*
X0078600Y0200818D02*
X0096425Y0200818D01*
X0078600Y0200818D01*
X0078600Y0199220D02*
X0096719Y0199220D01*
X0078600Y0199220D01*
X0078600Y0197621D02*
X0097792Y0197621D01*
X0078600Y0197621D01*
X0078600Y0196023D02*
X0267000Y0196023D01*
X0078600Y0196023D01*
X0078600Y0194424D02*
X0267000Y0194424D01*
X0078600Y0194424D01*
X0078600Y0192826D02*
X0267000Y0192826D01*
X0078600Y0192826D01*
X0078600Y0191227D02*
X0267000Y0191227D01*
X0078600Y0191227D01*
X0078600Y0189629D02*
X0267000Y0189629D01*
X0078600Y0189629D01*
X0078600Y0188030D02*
X0267000Y0188030D01*
X0078600Y0188030D01*
X0078600Y0186432D02*
X0267000Y0186432D01*
X0078600Y0186432D01*
X0078600Y0184833D02*
X0267000Y0184833D01*
X0078600Y0184833D01*
X0078600Y0183235D02*
X0267000Y0183235D01*
X0078600Y0183235D01*
X0078600Y0181636D02*
X0267000Y0181636D01*
X0078600Y0181636D01*
X0078600Y0180038D02*
X0096031Y0180038D01*
X0078600Y0180038D01*
X0078600Y0178439D02*
X0093594Y0178439D01*
X0078600Y0178439D01*
X0078600Y0176841D02*
X0091996Y0176841D01*
X0078600Y0176841D01*
X0078600Y0175242D02*
X0090397Y0175242D01*
X0078600Y0175242D01*
X0078600Y0173644D02*
X0088799Y0173644D01*
X0078600Y0173644D01*
X0078600Y0172045D02*
X0087200Y0172045D01*
X0078600Y0172045D01*
X0078600Y0170447D02*
X0085602Y0170447D01*
X0078600Y0170447D01*
X0078600Y0168848D02*
X0084003Y0168848D01*
X0078600Y0168848D01*
X0078600Y0167250D02*
X0082405Y0167250D01*
X0078600Y0167250D01*
X0078600Y0165651D02*
X0080806Y0165651D01*
X0078600Y0165651D01*
X0078600Y0164053D02*
X0079208Y0164053D01*
X0078600Y0164053D01*
X0084976Y0157659D02*
X0167748Y0157659D01*
X0084976Y0157659D01*
X0086574Y0159257D02*
X0168909Y0159257D01*
X0086574Y0159257D01*
X0088173Y0160856D02*
X0207081Y0160856D01*
X0088173Y0160856D01*
X0089771Y0162454D02*
X0205482Y0162454D01*
X0089771Y0162454D01*
X0091370Y0164053D02*
X0203884Y0164053D01*
X0091370Y0164053D01*
X0092968Y0165651D02*
X0202285Y0165651D01*
X0092968Y0165651D01*
X0094567Y0167250D02*
X0200687Y0167250D01*
X0094567Y0167250D01*
X0096165Y0168848D02*
X0199088Y0168848D01*
X0096165Y0168848D01*
X0097764Y0170447D02*
X0197490Y0170447D01*
X0097764Y0170447D01*
X0083377Y0156060D02*
X0167357Y0156060D01*
X0083377Y0156060D01*
X0088863Y0154462D02*
X0104403Y0154462D01*
X0104364Y0154445D02*
X0103155Y0153236D01*
X0102500Y0151655D01*
X0102500Y0149945D01*
X0103155Y0148364D01*
X0104364Y0147155D01*
X0105945Y0146500D01*
X0107655Y0146500D01*
X0109236Y0147155D01*
X0110445Y0148364D01*
X0111100Y0149945D01*
X0111100Y0151655D01*
X0110445Y0153236D01*
X0109236Y0154445D01*
X0107655Y0155100D01*
X0105945Y0155100D01*
X0104364Y0154445D01*
X0103000Y0152863D02*
X0090818Y0152863D01*
X0168389Y0152863D01*
X0110600Y0152863D01*
X0111100Y0151265D02*
X0170412Y0151265D01*
X0092417Y0151265D01*
X0102500Y0151265D01*
X0102615Y0149666D02*
X0094015Y0149666D01*
X0172010Y0149666D01*
X0110985Y0149666D01*
X0110149Y0148068D02*
X0173609Y0148068D01*
X0095614Y0148068D01*
X0103451Y0148068D01*
X0098811Y0144870D02*
X0176806Y0144870D01*
X0098811Y0144870D01*
X0100409Y0143272D02*
X0178404Y0143272D01*
X0100409Y0143272D01*
X0102008Y0141673D02*
X0180003Y0141673D01*
X0102008Y0141673D01*
X0097212Y0146469D02*
X0175207Y0146469D01*
X0097212Y0146469D01*
X0088863Y0154462D02*
X0167533Y0154462D01*
X0109197Y0154462D01*
X0097838Y0133681D02*
X0097269Y0133681D01*
X0097838Y0133681D01*
X0097576Y0132082D02*
X0099539Y0132082D01*
X0097576Y0132082D01*
X0097576Y0130484D02*
X0146035Y0130484D01*
X0097576Y0130484D01*
X0097576Y0128885D02*
X0108804Y0128885D01*
X0097576Y0128885D01*
X0097576Y0127287D02*
X0107206Y0127287D01*
X0097576Y0127287D01*
X0097576Y0125688D02*
X0105607Y0125688D01*
X0097576Y0125688D01*
X0097576Y0124090D02*
X0104009Y0124090D01*
X0097576Y0124090D01*
X0097576Y0122491D02*
X0102846Y0122491D01*
X0097576Y0122491D01*
X0097576Y0120893D02*
X0102500Y0120893D01*
X0097576Y0120893D01*
X0097576Y0119294D02*
X0102500Y0119294D01*
X0097576Y0119294D01*
X0097576Y0117696D02*
X0102500Y0117696D01*
X0097576Y0117696D01*
X0097576Y0116097D02*
X0102500Y0116097D01*
X0097576Y0116097D01*
X0097576Y0114499D02*
X0102500Y0114499D01*
X0097576Y0114499D01*
X0098222Y0112900D02*
X0102500Y0112900D01*
X0098222Y0112900D01*
X0098576Y0111302D02*
X0102500Y0111302D01*
X0098576Y0111302D01*
X0098576Y0109703D02*
X0102500Y0109703D01*
X0098576Y0109703D01*
X0098576Y0108105D02*
X0102500Y0108105D01*
X0098576Y0108105D01*
X0098576Y0106506D02*
X0102500Y0106506D01*
X0098576Y0106506D01*
X0098576Y0104908D02*
X0102500Y0104908D01*
X0098576Y0104908D01*
X0098576Y0103309D02*
X0102500Y0103309D01*
X0098576Y0103309D01*
X0098576Y0101711D02*
X0102500Y0101711D01*
X0098576Y0101711D01*
X0098576Y0100112D02*
X0102500Y0100112D01*
X0098576Y0100112D01*
X0098036Y0098514D02*
X0102500Y0098514D01*
X0098036Y0098514D01*
X0097576Y0096915D02*
X0102500Y0096915D01*
X0097576Y0096915D01*
X0097576Y0095317D02*
X0102500Y0095317D01*
X0097576Y0095317D01*
X0097576Y0093718D02*
X0102500Y0093718D01*
X0097576Y0093718D01*
X0097576Y0092120D02*
X0102500Y0092120D01*
X0097576Y0092120D01*
X0097576Y0090521D02*
X0102500Y0090521D01*
X0097576Y0090521D01*
X0097576Y0088923D02*
X0102500Y0088923D01*
X0097576Y0088923D01*
X0097576Y0087324D02*
X0102500Y0087324D01*
X0097576Y0087324D01*
X0097576Y0085726D02*
X0102500Y0085726D01*
X0097576Y0085726D01*
X0097576Y0084127D02*
X0102500Y0084127D01*
X0097576Y0084127D01*
X0097576Y0082529D02*
X0102500Y0082529D01*
X0097576Y0082529D01*
X0097576Y0080930D02*
X0102500Y0080930D01*
X0097576Y0080930D01*
X0097576Y0079332D02*
X0102500Y0079332D01*
X0097576Y0079332D01*
X0097576Y0077733D02*
X0102500Y0077733D01*
X0097576Y0077733D01*
X0097576Y0076134D02*
X0102500Y0076134D01*
X0097576Y0076134D01*
X0097576Y0074536D02*
X0102500Y0074536D01*
X0097576Y0074536D01*
X0098184Y0072937D02*
X0102500Y0072937D01*
X0098184Y0072937D01*
X0098576Y0071339D02*
X0102500Y0071339D01*
X0098576Y0071339D01*
X0098576Y0069740D02*
X0102500Y0069740D01*
X0098576Y0069740D01*
X0098576Y0068142D02*
X0102500Y0068142D01*
X0098576Y0068142D01*
X0098576Y0066543D02*
X0102500Y0066543D01*
X0098576Y0066543D01*
X0098576Y0064945D02*
X0102500Y0064945D01*
X0098576Y0064945D01*
X0098576Y0063346D02*
X0102500Y0063346D01*
X0098576Y0063346D01*
X0098576Y0061748D02*
X0102500Y0061748D01*
X0098576Y0061748D01*
X0098576Y0060149D02*
X0102500Y0060149D01*
X0098576Y0060149D01*
X0098073Y0058551D02*
X0102500Y0058551D01*
X0098073Y0058551D01*
X0100273Y0055354D02*
X0079486Y0055354D01*
X0100273Y0055354D01*
X0101871Y0056952D02*
X0079486Y0056952D01*
X0101871Y0056952D01*
X0098674Y0053755D02*
X0079926Y0053755D01*
X0098674Y0053755D01*
X0097076Y0052157D02*
X0081524Y0052157D01*
X0097076Y0052157D01*
X0095477Y0050558D02*
X0083123Y0050558D01*
X0095477Y0050558D01*
X0101245Y0044164D02*
X0109083Y0044164D01*
X0101245Y0044164D01*
X0099647Y0042566D02*
X0107485Y0042566D01*
X0099647Y0042566D01*
X0102844Y0045763D02*
X0110682Y0045763D01*
X0102844Y0045763D01*
X0104442Y0047361D02*
X0112280Y0047361D01*
X0104442Y0047361D01*
X0106041Y0048960D02*
X0112500Y0048960D01*
X0106041Y0048960D01*
X0107639Y0050558D02*
X0112500Y0050558D01*
X0107639Y0050558D01*
X0109238Y0052157D02*
X0112500Y0052157D01*
X0109238Y0052157D01*
X0110607Y0053755D02*
X0112500Y0053755D01*
X0110607Y0053755D01*
X0111100Y0055354D02*
X0112500Y0055354D01*
X0111100Y0055354D01*
X0111100Y0056952D02*
X0112500Y0056952D01*
X0111100Y0056952D01*
X0111100Y0058551D02*
X0112500Y0058551D01*
X0111100Y0058551D01*
X0111100Y0060149D02*
X0112500Y0060149D01*
X0111100Y0060149D01*
X0111100Y0061748D02*
X0112500Y0061748D01*
X0111100Y0061748D01*
X0111100Y0063346D02*
X0112500Y0063346D01*
X0111100Y0063346D01*
X0111100Y0064945D02*
X0112500Y0064945D01*
X0111100Y0064945D01*
X0111100Y0066543D02*
X0112500Y0066543D01*
X0111100Y0066543D01*
X0111100Y0068142D02*
X0112500Y0068142D01*
X0111100Y0068142D01*
X0111100Y0069740D02*
X0112500Y0069740D01*
X0111100Y0069740D01*
X0111100Y0071339D02*
X0112500Y0071339D01*
X0111100Y0071339D01*
X0111100Y0072937D02*
X0112500Y0072937D01*
X0111100Y0072937D01*
X0111100Y0074536D02*
X0112500Y0074536D01*
X0111100Y0074536D01*
X0111100Y0076134D02*
X0112500Y0076134D01*
X0111100Y0076134D01*
X0111100Y0077733D02*
X0112500Y0077733D01*
X0111100Y0077733D01*
X0111100Y0079332D02*
X0112500Y0079332D01*
X0111100Y0079332D01*
X0111100Y0080930D02*
X0112500Y0080930D01*
X0111100Y0080930D01*
X0111100Y0082529D02*
X0112500Y0082529D01*
X0111100Y0082529D01*
X0111100Y0084127D02*
X0112500Y0084127D01*
X0111100Y0084127D01*
X0111100Y0085726D02*
X0112500Y0085726D01*
X0111100Y0085726D01*
X0111100Y0087324D02*
X0112500Y0087324D01*
X0111100Y0087324D01*
X0111100Y0088923D02*
X0112500Y0088923D01*
X0111100Y0088923D01*
X0111100Y0090521D02*
X0112500Y0090521D01*
X0111100Y0090521D01*
X0111100Y0092120D02*
X0112500Y0092120D01*
X0111100Y0092120D01*
X0111100Y0093718D02*
X0112500Y0093718D01*
X0111100Y0093718D01*
X0111100Y0095317D02*
X0112500Y0095317D01*
X0111100Y0095317D01*
X0111100Y0096915D02*
X0112500Y0096915D01*
X0111100Y0096915D01*
X0111100Y0098514D02*
X0112500Y0098514D01*
X0111100Y0098514D01*
X0111100Y0100112D02*
X0112500Y0100112D01*
X0111100Y0100112D01*
X0111100Y0101711D02*
X0112500Y0101711D01*
X0111100Y0101711D01*
X0111100Y0103309D02*
X0112500Y0103309D01*
X0111100Y0103309D01*
X0111100Y0104908D02*
X0112500Y0104908D01*
X0111100Y0104908D01*
X0111100Y0106506D02*
X0112500Y0106506D01*
X0111100Y0106506D01*
X0111100Y0108105D02*
X0112500Y0108105D01*
X0111100Y0108105D01*
X0111100Y0109703D02*
X0112500Y0109703D01*
X0111100Y0109703D01*
X0111100Y0111302D02*
X0112500Y0111302D01*
X0111100Y0111302D01*
X0111100Y0112900D02*
X0112500Y0112900D01*
X0111100Y0112900D01*
X0111100Y0114499D02*
X0112500Y0114499D01*
X0111100Y0114499D01*
X0111100Y0116097D02*
X0112500Y0116097D01*
X0111100Y0116097D01*
X0111100Y0117696D02*
X0112931Y0117696D01*
X0111100Y0117696D01*
X0111375Y0119294D02*
X0114213Y0119294D01*
X0111375Y0119294D01*
X0112974Y0120893D02*
X0155626Y0120893D01*
X0112974Y0120893D01*
X0119387Y0119294D02*
X0157225Y0119294D01*
X0119387Y0119294D01*
X0120669Y0117696D02*
X0158823Y0117696D01*
X0120669Y0117696D01*
X0121100Y0116097D02*
X0160422Y0116097D01*
X0121100Y0116097D01*
X0121100Y0114499D02*
X0162020Y0114499D01*
X0121100Y0114499D01*
X0121100Y0112900D02*
X0163619Y0112900D01*
X0121100Y0112900D01*
X0121100Y0111302D02*
X0165217Y0111302D01*
X0121100Y0111302D01*
X0121100Y0109703D02*
X0166816Y0109703D01*
X0121100Y0109703D01*
X0121100Y0108105D02*
X0168414Y0108105D01*
X0121100Y0108105D01*
X0121100Y0106506D02*
X0170930Y0106506D01*
X0121100Y0106506D01*
X0121100Y0104908D02*
X0169854Y0104908D01*
X0121100Y0104908D01*
X0121100Y0103309D02*
X0168018Y0103309D01*
X0121100Y0103309D01*
X0121100Y0101711D02*
X0167357Y0101711D01*
X0121100Y0101711D01*
X0121100Y0100112D02*
X0167357Y0100112D01*
X0121100Y0100112D01*
X0121100Y0098514D02*
X0167926Y0098514D01*
X0121100Y0098514D01*
X0121100Y0096915D02*
X0169337Y0096915D01*
X0121100Y0096915D01*
X0121100Y0095317D02*
X0171360Y0095317D01*
X0121100Y0095317D01*
X0121100Y0093718D02*
X0172958Y0093718D01*
X0121100Y0093718D01*
X0121100Y0092120D02*
X0174557Y0092120D01*
X0121100Y0092120D01*
X0121100Y0090521D02*
X0176155Y0090521D01*
X0121100Y0090521D01*
X0121100Y0088923D02*
X0177754Y0088923D01*
X0121100Y0088923D01*
X0121100Y0087324D02*
X0179352Y0087324D01*
X0121100Y0087324D01*
X0121100Y0085726D02*
X0207425Y0085726D01*
X0121100Y0085726D01*
X0121100Y0084127D02*
X0207425Y0084127D01*
X0121100Y0084127D01*
X0121100Y0082529D02*
X0207467Y0082529D01*
X0121100Y0082529D01*
X0121100Y0080930D02*
X0209066Y0080930D01*
X0121100Y0080930D01*
X0121100Y0079332D02*
X0267000Y0079332D01*
X0121100Y0079332D01*
X0121100Y0077733D02*
X0267000Y0077733D01*
X0121100Y0077733D01*
X0121100Y0076134D02*
X0267000Y0076134D01*
X0121100Y0076134D01*
X0121100Y0074536D02*
X0267000Y0074536D01*
X0121100Y0074536D01*
X0121100Y0072937D02*
X0267000Y0072937D01*
X0121100Y0072937D01*
X0121100Y0071339D02*
X0267000Y0071339D01*
X0121100Y0071339D01*
X0121100Y0069740D02*
X0267000Y0069740D01*
X0121100Y0069740D01*
X0121100Y0068142D02*
X0267000Y0068142D01*
X0121100Y0068142D01*
X0121100Y0066543D02*
X0267000Y0066543D01*
X0121100Y0066543D01*
X0121100Y0064945D02*
X0267000Y0064945D01*
X0121100Y0064945D01*
X0121100Y0063346D02*
X0267000Y0063346D01*
X0121100Y0063346D01*
X0121100Y0061748D02*
X0267000Y0061748D01*
X0121100Y0061748D01*
X0121100Y0060149D02*
X0267000Y0060149D01*
X0121100Y0060149D01*
X0121100Y0058551D02*
X0267000Y0058551D01*
X0121100Y0058551D01*
X0121100Y0056952D02*
X0267000Y0056952D01*
X0121100Y0056952D01*
X0121100Y0055354D02*
X0267000Y0055354D01*
X0121100Y0055354D01*
X0121100Y0053755D02*
X0267000Y0053755D01*
X0121100Y0053755D01*
X0121100Y0052157D02*
X0267000Y0052157D01*
X0121100Y0052157D01*
X0121100Y0050558D02*
X0267000Y0050558D01*
X0121100Y0050558D01*
X0121100Y0048960D02*
X0267000Y0048960D01*
X0121100Y0048960D01*
X0121100Y0047361D02*
X0267000Y0047361D01*
X0121100Y0047361D01*
X0121100Y0045763D02*
X0267000Y0045763D01*
X0121100Y0045763D01*
X0120777Y0044164D02*
X0267000Y0044164D01*
X0120777Y0044164D01*
X0119647Y0042566D02*
X0267000Y0042566D01*
X0119647Y0042566D01*
X0118048Y0040967D02*
X0267000Y0040967D01*
X0118048Y0040967D01*
X0116450Y0039369D02*
X0267000Y0039369D01*
X0116450Y0039369D01*
X0114851Y0037770D02*
X0267000Y0037770D01*
X0114851Y0037770D01*
X0113253Y0036172D02*
X0267000Y0036172D01*
X0113253Y0036172D01*
X0111654Y0034573D02*
X0204477Y0034573D01*
X0111654Y0034573D01*
X0110056Y0032975D02*
X0202966Y0032975D01*
X0110056Y0032975D01*
X0108457Y0031376D02*
X0202425Y0031376D01*
X0108457Y0031376D01*
X0106859Y0029778D02*
X0202488Y0029778D01*
X0106859Y0029778D01*
X0105260Y0028179D02*
X0203234Y0028179D01*
X0105260Y0028179D01*
X0103662Y0026581D02*
X0205554Y0026581D01*
X0103662Y0026581D01*
X0102063Y0024982D02*
X0135465Y0024982D01*
X0102063Y0024982D01*
X0100465Y0023384D02*
X0133197Y0023384D01*
X0100465Y0023384D01*
X0098344Y0021785D02*
X0132473Y0021785D01*
X0098344Y0021785D01*
X0094626Y0020187D02*
X0132425Y0020187D01*
X0094626Y0020187D01*
X0088974Y0020187D02*
X0074626Y0020187D01*
X0088974Y0020187D01*
X0089688Y0030700D02*
X0093912Y0030700D01*
X0096900Y0033688D01*
X0096900Y0037912D01*
X0093912Y0040900D01*
X0089688Y0040900D01*
X0086700Y0037912D01*
X0086700Y0033688D01*
X0089688Y0030700D01*
X0093912Y0030700D01*
X0096900Y0033688D01*
X0096900Y0037912D01*
X0093912Y0040900D01*
X0089688Y0040900D01*
X0086700Y0037912D01*
X0086700Y0033688D01*
X0089688Y0030700D01*
X0089011Y0031376D02*
X0074589Y0031376D01*
X0089011Y0031376D01*
X0087413Y0032975D02*
X0076187Y0032975D01*
X0087413Y0032975D01*
X0086700Y0034573D02*
X0076900Y0034573D01*
X0086700Y0034573D01*
X0086700Y0036172D02*
X0076900Y0036172D01*
X0086700Y0036172D01*
X0086700Y0037770D02*
X0076900Y0037770D01*
X0086700Y0037770D01*
X0088156Y0039369D02*
X0075444Y0039369D01*
X0088156Y0039369D01*
X0095444Y0039369D02*
X0104288Y0039369D01*
X0095444Y0039369D01*
X0096900Y0037770D02*
X0102689Y0037770D01*
X0096900Y0037770D01*
X0096900Y0036172D02*
X0101091Y0036172D01*
X0096900Y0036172D01*
X0096900Y0034573D02*
X0099492Y0034573D01*
X0096900Y0034573D01*
X0096187Y0032975D02*
X0097894Y0032975D01*
X0096187Y0032975D01*
X0096295Y0031376D02*
X0094589Y0031376D01*
X0096295Y0031376D01*
X0105093Y0018588D02*
X0132981Y0018588D01*
X0105093Y0018588D01*
X0106692Y0016990D02*
X0134567Y0016990D01*
X0106692Y0016990D01*
X0108290Y0015391D02*
X0135310Y0015391D01*
X0108290Y0015391D01*
X0138135Y0024982D02*
X0145465Y0024982D01*
X0138135Y0024982D01*
X0140403Y0023384D02*
X0143197Y0023384D01*
X0140403Y0023384D01*
X0141127Y0021785D02*
X0141704Y0021785D01*
X0141127Y0021785D01*
X0148135Y0024982D02*
X0155465Y0024982D01*
X0148135Y0024982D01*
X0150403Y0023384D02*
X0153197Y0023384D01*
X0150403Y0023384D01*
X0151127Y0021785D02*
X0152473Y0021785D01*
X0151127Y0021785D01*
X0152425Y0021670D02*
X0152425Y0019930D01*
X0153091Y0018322D01*
X0154322Y0017091D01*
X0155930Y0016425D01*
X0157670Y0016425D01*
X0159278Y0017091D01*
X0160509Y0018322D01*
X0161175Y0019930D01*
X0161175Y0021670D01*
X0160509Y0023278D01*
X0159278Y0024509D01*
X0157670Y0025175D01*
X0155930Y0025175D01*
X0154322Y0024509D01*
X0153091Y0023278D01*
X0152425Y0021670D01*
X0152425Y0019930D01*
X0153091Y0018322D01*
X0154322Y0017091D01*
X0155930Y0016425D01*
X0157670Y0016425D01*
X0159278Y0017091D01*
X0160509Y0018322D01*
X0161175Y0019930D01*
X0161175Y0021670D01*
X0160509Y0023278D01*
X0159278Y0024509D01*
X0157670Y0025175D01*
X0155930Y0025175D01*
X0154322Y0024509D01*
X0153091Y0023278D01*
X0152425Y0021670D01*
X0152425Y0020187D02*
X0151175Y0020187D01*
X0152425Y0020187D01*
X0152981Y0018588D02*
X0150619Y0018588D01*
X0152981Y0018588D01*
X0154567Y0016990D02*
X0149071Y0016990D01*
X0154567Y0016990D01*
X0159033Y0016990D02*
X0164567Y0016990D01*
X0164642Y0016990D02*
X0159033Y0016990D01*
X0160619Y0018588D02*
X0162981Y0018588D01*
X0163017Y0018588D02*
X0160619Y0018588D01*
X0161175Y0020187D02*
X0162425Y0020187D01*
X0162468Y0020187D02*
X0161175Y0020187D01*
X0162425Y0019930D02*
X0163091Y0018322D01*
X0164322Y0017091D01*
X0165930Y0016425D01*
X0167670Y0016425D01*
X0169278Y0017091D01*
X0170509Y0018322D01*
X0171175Y0019930D01*
X0171175Y0021670D01*
X0170509Y0023278D01*
X0169278Y0024509D01*
X0167670Y0025175D01*
X0165930Y0025175D01*
X0164322Y0024509D01*
X0163091Y0023278D01*
X0162425Y0021670D01*
X0162425Y0019930D01*
X0162533Y0019776D02*
X0162746Y0019121D01*
X0163058Y0018507D01*
X0163463Y0017950D01*
X0163950Y0017463D01*
X0164507Y0017058D01*
X0165121Y0016746D01*
X0165776Y0016533D01*
X0166456Y0016425D01*
X0166800Y0016425D01*
X0167144Y0016425D01*
X0167824Y0016533D01*
X0168479Y0016746D01*
X0169093Y0017058D01*
X0169650Y0017463D01*
X0170137Y0017950D01*
X0170542Y0018507D01*
X0170854Y0019121D01*
X0171067Y0019776D01*
X0171175Y0020456D01*
X0171175Y0020800D01*
X0171175Y0021144D01*
X0171067Y0021824D01*
X0170854Y0022479D01*
X0170542Y0023093D01*
X0170137Y0023650D01*
X0169650Y0024137D01*
X0169093Y0024542D01*
X0168479Y0024854D01*
X0167824Y0025067D01*
X0167144Y0025175D01*
X0166800Y0025175D01*
X0166456Y0025175D01*
X0165776Y0025067D01*
X0165121Y0024854D01*
X0164507Y0024542D01*
X0163950Y0024137D01*
X0163463Y0023650D01*
X0163058Y0023093D01*
X0162746Y0022479D01*
X0162533Y0021824D01*
X0162425Y0021144D01*
X0162425Y0020800D01*
X0166800Y0020800D01*
X0171175Y0020800D01*
X0166800Y0020800D01*
X0166800Y0020800D01*
X0166800Y0020800D01*
X0166800Y0025175D01*
X0166800Y0020800D01*
X0166800Y0016425D01*
X0166800Y0020800D01*
X0166800Y0020800D01*
X0166800Y0020800D01*
X0162425Y0020800D01*
X0162425Y0020456D01*
X0162533Y0019776D01*
X0162527Y0021785D02*
X0161127Y0021785D01*
X0162473Y0021785D01*
X0163197Y0023384D02*
X0160403Y0023384D01*
X0163270Y0023384D01*
X0165465Y0024982D02*
X0158135Y0024982D01*
X0165514Y0024982D01*
X0166800Y0024982D02*
X0166800Y0024982D01*
X0168086Y0024982D02*
X0175514Y0024982D01*
X0175465Y0024982D02*
X0168135Y0024982D01*
X0166800Y0023384D02*
X0166800Y0023384D01*
X0166800Y0021785D02*
X0166800Y0021785D01*
X0166800Y0020187D02*
X0166800Y0020187D01*
X0166800Y0018588D02*
X0166800Y0018588D01*
X0166800Y0016990D02*
X0166800Y0016990D01*
X0168958Y0016990D02*
X0174642Y0016990D01*
X0174567Y0016990D02*
X0169033Y0016990D01*
X0170583Y0018588D02*
X0173017Y0018588D01*
X0172981Y0018588D02*
X0170619Y0018588D01*
X0171132Y0020187D02*
X0172468Y0020187D01*
X0172425Y0020187D02*
X0171175Y0020187D01*
X0172425Y0019930D02*
X0173091Y0018322D01*
X0174322Y0017091D01*
X0175930Y0016425D01*
X0177670Y0016425D01*
X0179278Y0017091D01*
X0180509Y0018322D01*
X0181175Y0019930D01*
X0181175Y0021670D01*
X0180509Y0023278D01*
X0179278Y0024509D01*
X0177670Y0025175D01*
X0175930Y0025175D01*
X0174322Y0024509D01*
X0173091Y0023278D01*
X0172425Y0021670D01*
X0172425Y0019930D01*
X0172533Y0019776D02*
X0172746Y0019121D01*
X0173058Y0018507D01*
X0173463Y0017950D01*
X0173950Y0017463D01*
X0174507Y0017058D01*
X0175121Y0016746D01*
X0175776Y0016533D01*
X0176456Y0016425D01*
X0176800Y0016425D01*
X0177144Y0016425D01*
X0177824Y0016533D01*
X0178479Y0016746D01*
X0179093Y0017058D01*
X0179650Y0017463D01*
X0180137Y0017950D01*
X0180542Y0018507D01*
X0180854Y0019121D01*
X0181067Y0019776D01*
X0181175Y0020456D01*
X0181175Y0020800D01*
X0181175Y0021144D01*
X0181067Y0021824D01*
X0180854Y0022479D01*
X0180542Y0023093D01*
X0180137Y0023650D01*
X0179650Y0024137D01*
X0179093Y0024542D01*
X0178479Y0024854D01*
X0177824Y0025067D01*
X0177144Y0025175D01*
X0176800Y0025175D01*
X0176456Y0025175D01*
X0175776Y0025067D01*
X0175121Y0024854D01*
X0174507Y0024542D01*
X0173950Y0024137D01*
X0173463Y0023650D01*
X0173058Y0023093D01*
X0172746Y0022479D01*
X0172533Y0021824D01*
X0172425Y0021144D01*
X0172425Y0020800D01*
X0176800Y0020800D01*
X0181175Y0020800D01*
X0176800Y0020800D01*
X0176800Y0020800D01*
X0176800Y0020800D01*
X0176800Y0025175D01*
X0176800Y0020800D01*
X0176800Y0016425D01*
X0176800Y0020800D01*
X0176800Y0020800D01*
X0176800Y0020800D01*
X0172425Y0020800D01*
X0172425Y0020456D01*
X0172533Y0019776D01*
X0172527Y0021785D02*
X0171073Y0021785D01*
X0171127Y0021785D02*
X0172473Y0021785D01*
X0173197Y0023384D02*
X0170403Y0023384D01*
X0170330Y0023384D02*
X0173270Y0023384D01*
X0176800Y0023384D02*
X0176800Y0023384D01*
X0176800Y0024982D02*
X0176800Y0024982D01*
X0178086Y0024982D02*
X0185465Y0024982D01*
X0178135Y0024982D01*
X0180330Y0023384D02*
X0183197Y0023384D01*
X0180403Y0023384D01*
X0181073Y0021785D02*
X0182473Y0021785D01*
X0181127Y0021785D01*
X0182425Y0021670D02*
X0182425Y0019930D01*
X0183091Y0018322D01*
X0184322Y0017091D01*
X0185930Y0016425D01*
X0187670Y0016425D01*
X0189278Y0017091D01*
X0190509Y0018322D01*
X0191175Y0019930D01*
X0191175Y0021670D01*
X0190509Y0023278D01*
X0189278Y0024509D01*
X0187670Y0025175D01*
X0185930Y0025175D01*
X0184322Y0024509D01*
X0183091Y0023278D01*
X0182425Y0021670D01*
X0182425Y0019930D01*
X0183091Y0018322D01*
X0184322Y0017091D01*
X0185930Y0016425D01*
X0187670Y0016425D01*
X0189278Y0017091D01*
X0190509Y0018322D01*
X0191175Y0019930D01*
X0191175Y0021670D01*
X0190509Y0023278D01*
X0189278Y0024509D01*
X0187670Y0025175D01*
X0185930Y0025175D01*
X0184322Y0024509D01*
X0183091Y0023278D01*
X0182425Y0021670D01*
X0182425Y0020187D02*
X0181175Y0020187D01*
X0181132Y0020187D02*
X0182425Y0020187D01*
X0182981Y0018588D02*
X0180619Y0018588D01*
X0180583Y0018588D02*
X0182981Y0018588D01*
X0184567Y0016990D02*
X0179033Y0016990D01*
X0178958Y0016990D02*
X0184567Y0016990D01*
X0189033Y0016990D02*
X0204567Y0016990D01*
X0189033Y0016990D01*
X0190619Y0018588D02*
X0202981Y0018588D01*
X0190619Y0018588D01*
X0191175Y0020187D02*
X0202425Y0020187D01*
X0191175Y0020187D01*
X0191127Y0021785D02*
X0202473Y0021785D01*
X0191127Y0021785D01*
X0190403Y0023384D02*
X0203197Y0023384D01*
X0190403Y0023384D01*
X0188135Y0024982D02*
X0205465Y0024982D01*
X0188135Y0024982D01*
X0176800Y0021785D02*
X0176800Y0021785D01*
X0176800Y0020187D02*
X0176800Y0020187D01*
X0176800Y0018588D02*
X0176800Y0018588D01*
X0176800Y0016990D02*
X0176800Y0016990D01*
X0202425Y0019930D02*
X0203091Y0018322D01*
X0204322Y0017091D01*
X0205930Y0016425D01*
X0207670Y0016425D01*
X0209278Y0017091D01*
X0210509Y0018322D01*
X0211175Y0019930D01*
X0211175Y0021670D01*
X0210509Y0023278D01*
X0209278Y0024509D01*
X0207670Y0025175D01*
X0205930Y0025175D01*
X0204322Y0024509D01*
X0203091Y0023278D01*
X0202425Y0021670D01*
X0202425Y0019930D01*
X0203091Y0018322D01*
X0204322Y0017091D01*
X0205930Y0016425D01*
X0207670Y0016425D01*
X0209278Y0017091D01*
X0210509Y0018322D01*
X0211175Y0019930D01*
X0211175Y0021670D01*
X0210509Y0023278D01*
X0209278Y0024509D01*
X0207670Y0025175D01*
X0205930Y0025175D01*
X0204322Y0024509D01*
X0203091Y0023278D01*
X0202425Y0021670D01*
X0202425Y0019930D01*
X0209033Y0016990D02*
X0214567Y0016990D01*
X0209033Y0016990D01*
X0210619Y0018588D02*
X0212981Y0018588D01*
X0210619Y0018588D01*
X0211175Y0020187D02*
X0212425Y0020187D01*
X0211175Y0020187D01*
X0212425Y0019930D02*
X0213091Y0018322D01*
X0214322Y0017091D01*
X0215930Y0016425D01*
X0217670Y0016425D01*
X0219278Y0017091D01*
X0220509Y0018322D01*
X0221175Y0019930D01*
X0221175Y0021670D01*
X0220509Y0023278D01*
X0219278Y0024509D01*
X0217670Y0025175D01*
X0215930Y0025175D01*
X0214322Y0024509D01*
X0213091Y0023278D01*
X0212425Y0021670D01*
X0212425Y0019930D01*
X0213091Y0018322D01*
X0214322Y0017091D01*
X0215930Y0016425D01*
X0217670Y0016425D01*
X0219278Y0017091D01*
X0220509Y0018322D01*
X0221175Y0019930D01*
X0221175Y0021670D01*
X0220509Y0023278D01*
X0219278Y0024509D01*
X0217670Y0025175D01*
X0215930Y0025175D01*
X0214322Y0024509D01*
X0213091Y0023278D01*
X0212425Y0021670D01*
X0212425Y0019930D01*
X0212473Y0021785D02*
X0211127Y0021785D01*
X0212473Y0021785D01*
X0213197Y0023384D02*
X0210403Y0023384D01*
X0213197Y0023384D01*
X0215465Y0024982D02*
X0208135Y0024982D01*
X0215465Y0024982D01*
X0215930Y0026425D02*
X0217670Y0026425D01*
X0219278Y0027091D01*
X0220509Y0028322D01*
X0221175Y0029930D01*
X0221175Y0031670D01*
X0220509Y0033278D01*
X0219278Y0034509D01*
X0217670Y0035175D01*
X0215930Y0035175D01*
X0214322Y0034509D01*
X0213091Y0033278D01*
X0212425Y0031670D01*
X0212425Y0029930D01*
X0213091Y0028322D01*
X0214322Y0027091D01*
X0215930Y0026425D01*
X0217670Y0026425D01*
X0219278Y0027091D01*
X0220509Y0028322D01*
X0221175Y0029930D01*
X0221175Y0031670D01*
X0220509Y0033278D01*
X0219278Y0034509D01*
X0217670Y0035175D01*
X0215930Y0035175D01*
X0214322Y0034509D01*
X0213091Y0033278D01*
X0212425Y0031670D01*
X0212425Y0029930D01*
X0213091Y0028322D01*
X0214322Y0027091D01*
X0215930Y0026425D01*
X0215554Y0026581D02*
X0208045Y0026581D01*
X0215554Y0026581D01*
X0218045Y0026581D02*
X0225554Y0026581D01*
X0218045Y0026581D01*
X0218135Y0024982D02*
X0225465Y0024982D01*
X0218135Y0024982D01*
X0220403Y0023384D02*
X0223197Y0023384D01*
X0220403Y0023384D01*
X0221127Y0021785D02*
X0222473Y0021785D01*
X0221127Y0021785D01*
X0222425Y0021670D02*
X0222425Y0019930D01*
X0223091Y0018322D01*
X0224322Y0017091D01*
X0225930Y0016425D01*
X0227670Y0016425D01*
X0229278Y0017091D01*
X0230509Y0018322D01*
X0231175Y0019930D01*
X0231175Y0021670D01*
X0230509Y0023278D01*
X0229278Y0024509D01*
X0227670Y0025175D01*
X0225930Y0025175D01*
X0224322Y0024509D01*
X0223091Y0023278D01*
X0222425Y0021670D01*
X0222425Y0019930D01*
X0223091Y0018322D01*
X0224322Y0017091D01*
X0225930Y0016425D01*
X0227670Y0016425D01*
X0229278Y0017091D01*
X0230509Y0018322D01*
X0231175Y0019930D01*
X0231175Y0021670D01*
X0230509Y0023278D01*
X0229278Y0024509D01*
X0227670Y0025175D01*
X0225930Y0025175D01*
X0224322Y0024509D01*
X0223091Y0023278D01*
X0222425Y0021670D01*
X0222425Y0020187D02*
X0221175Y0020187D01*
X0222425Y0020187D01*
X0222981Y0018588D02*
X0220619Y0018588D01*
X0222981Y0018588D01*
X0224567Y0016990D02*
X0219033Y0016990D01*
X0224567Y0016990D01*
X0229033Y0016990D02*
X0234567Y0016990D01*
X0229033Y0016990D01*
X0230619Y0018588D02*
X0232981Y0018588D01*
X0230619Y0018588D01*
X0231175Y0020187D02*
X0232425Y0020187D01*
X0231175Y0020187D01*
X0232425Y0019930D02*
X0233091Y0018322D01*
X0234322Y0017091D01*
X0235930Y0016425D01*
X0237670Y0016425D01*
X0239278Y0017091D01*
X0240509Y0018322D01*
X0241175Y0019930D01*
X0241175Y0021670D01*
X0240509Y0023278D01*
X0239278Y0024509D01*
X0237670Y0025175D01*
X0235930Y0025175D01*
X0234322Y0024509D01*
X0233091Y0023278D01*
X0232425Y0021670D01*
X0232425Y0019930D01*
X0233091Y0018322D01*
X0234322Y0017091D01*
X0235930Y0016425D01*
X0237670Y0016425D01*
X0239278Y0017091D01*
X0240509Y0018322D01*
X0241175Y0019930D01*
X0241175Y0021670D01*
X0240509Y0023278D01*
X0239278Y0024509D01*
X0237670Y0025175D01*
X0235930Y0025175D01*
X0234322Y0024509D01*
X0233091Y0023278D01*
X0232425Y0021670D01*
X0232425Y0019930D01*
X0232473Y0021785D02*
X0231127Y0021785D01*
X0232473Y0021785D01*
X0233197Y0023384D02*
X0230403Y0023384D01*
X0233197Y0023384D01*
X0235465Y0024982D02*
X0228135Y0024982D01*
X0235465Y0024982D01*
X0235930Y0026425D02*
X0234322Y0027091D01*
X0233091Y0028322D01*
X0232425Y0029930D01*
X0232425Y0031670D01*
X0233091Y0033278D01*
X0234322Y0034509D01*
X0235930Y0035175D01*
X0237670Y0035175D01*
X0239278Y0034509D01*
X0240509Y0033278D01*
X0241175Y0031670D01*
X0241175Y0029930D01*
X0240509Y0028322D01*
X0239278Y0027091D01*
X0237670Y0026425D01*
X0235930Y0026425D01*
X0237670Y0026425D01*
X0239278Y0027091D01*
X0240509Y0028322D01*
X0241175Y0029930D01*
X0241175Y0031670D01*
X0240509Y0033278D01*
X0239278Y0034509D01*
X0237670Y0035175D01*
X0235930Y0035175D01*
X0234322Y0034509D01*
X0233091Y0033278D01*
X0232425Y0031670D01*
X0232425Y0029930D01*
X0233091Y0028322D01*
X0234322Y0027091D01*
X0235930Y0026425D01*
X0235554Y0026581D02*
X0228045Y0026581D01*
X0235554Y0026581D01*
X0238045Y0026581D02*
X0245554Y0026581D01*
X0238045Y0026581D01*
X0238135Y0024982D02*
X0245465Y0024982D01*
X0238135Y0024982D01*
X0240403Y0023384D02*
X0243197Y0023384D01*
X0240403Y0023384D01*
X0241127Y0021785D02*
X0242473Y0021785D01*
X0241127Y0021785D01*
X0242425Y0021670D02*
X0242425Y0019930D01*
X0243091Y0018322D01*
X0244322Y0017091D01*
X0245930Y0016425D01*
X0247670Y0016425D01*
X0249278Y0017091D01*
X0250509Y0018322D01*
X0251175Y0019930D01*
X0251175Y0021670D01*
X0250509Y0023278D01*
X0249278Y0024509D01*
X0247670Y0025175D01*
X0245930Y0025175D01*
X0244322Y0024509D01*
X0243091Y0023278D01*
X0242425Y0021670D01*
X0242425Y0019930D01*
X0243091Y0018322D01*
X0244322Y0017091D01*
X0245930Y0016425D01*
X0247670Y0016425D01*
X0249278Y0017091D01*
X0250509Y0018322D01*
X0251175Y0019930D01*
X0251175Y0021670D01*
X0250509Y0023278D01*
X0249278Y0024509D01*
X0247670Y0025175D01*
X0245930Y0025175D01*
X0244322Y0024509D01*
X0243091Y0023278D01*
X0242425Y0021670D01*
X0242425Y0020187D02*
X0241175Y0020187D01*
X0242425Y0020187D01*
X0242981Y0018588D02*
X0240619Y0018588D01*
X0242981Y0018588D01*
X0244567Y0016990D02*
X0239033Y0016990D01*
X0244567Y0016990D01*
X0249033Y0016990D02*
X0254567Y0016990D01*
X0249033Y0016990D01*
X0250619Y0018588D02*
X0252981Y0018588D01*
X0250619Y0018588D01*
X0251175Y0020187D02*
X0252425Y0020187D01*
X0251175Y0020187D01*
X0252425Y0019930D02*
X0253091Y0018322D01*
X0254322Y0017091D01*
X0255930Y0016425D01*
X0257670Y0016425D01*
X0259278Y0017091D01*
X0260509Y0018322D01*
X0261175Y0019930D01*
X0261175Y0021670D01*
X0260509Y0023278D01*
X0259278Y0024509D01*
X0257670Y0025175D01*
X0255930Y0025175D01*
X0254322Y0024509D01*
X0253091Y0023278D01*
X0252425Y0021670D01*
X0252425Y0019930D01*
X0253091Y0018322D01*
X0254322Y0017091D01*
X0255930Y0016425D01*
X0257670Y0016425D01*
X0259278Y0017091D01*
X0260509Y0018322D01*
X0261175Y0019930D01*
X0261175Y0021670D01*
X0260509Y0023278D01*
X0259278Y0024509D01*
X0257670Y0025175D01*
X0255930Y0025175D01*
X0254322Y0024509D01*
X0253091Y0023278D01*
X0252425Y0021670D01*
X0252425Y0019930D01*
X0252473Y0021785D02*
X0251127Y0021785D01*
X0252473Y0021785D01*
X0253197Y0023384D02*
X0250403Y0023384D01*
X0253197Y0023384D01*
X0255465Y0024982D02*
X0248135Y0024982D01*
X0255465Y0024982D01*
X0255930Y0026425D02*
X0254322Y0027091D01*
X0253091Y0028322D01*
X0252425Y0029930D01*
X0252425Y0031670D01*
X0253091Y0033278D01*
X0254322Y0034509D01*
X0255930Y0035175D01*
X0257670Y0035175D01*
X0259278Y0034509D01*
X0260509Y0033278D01*
X0261175Y0031670D01*
X0261175Y0029930D01*
X0260509Y0028322D01*
X0259278Y0027091D01*
X0257670Y0026425D01*
X0255930Y0026425D01*
X0257670Y0026425D01*
X0259278Y0027091D01*
X0260509Y0028322D01*
X0261175Y0029930D01*
X0261175Y0031670D01*
X0260509Y0033278D01*
X0259278Y0034509D01*
X0257670Y0035175D01*
X0255930Y0035175D01*
X0254322Y0034509D01*
X0253091Y0033278D01*
X0252425Y0031670D01*
X0252425Y0029930D01*
X0253091Y0028322D01*
X0254322Y0027091D01*
X0255930Y0026425D01*
X0255554Y0026581D02*
X0248045Y0026581D01*
X0255554Y0026581D01*
X0258045Y0026581D02*
X0267000Y0026581D01*
X0258045Y0026581D01*
X0258135Y0024982D02*
X0267000Y0024982D01*
X0258135Y0024982D01*
X0260403Y0023384D02*
X0267000Y0023384D01*
X0260403Y0023384D01*
X0261127Y0021785D02*
X0267000Y0021785D01*
X0261127Y0021785D01*
X0261175Y0020187D02*
X0267000Y0020187D01*
X0261175Y0020187D01*
X0260619Y0018588D02*
X0267000Y0018588D01*
X0260619Y0018588D01*
X0259033Y0016990D02*
X0267000Y0016990D01*
X0259033Y0016990D01*
X0267000Y0015391D02*
X0147472Y0015391D01*
X0267000Y0015391D01*
X0267000Y0013793D02*
X0145874Y0013793D01*
X0267000Y0013793D01*
X0267000Y0012194D02*
X0144275Y0012194D01*
X0267000Y0012194D01*
X0250509Y0028322D02*
X0249278Y0027091D01*
X0247670Y0026425D01*
X0245930Y0026425D01*
X0244322Y0027091D01*
X0243091Y0028322D01*
X0242425Y0029930D01*
X0242425Y0031670D01*
X0243091Y0033278D01*
X0244322Y0034509D01*
X0245930Y0035175D01*
X0247670Y0035175D01*
X0249278Y0034509D01*
X0250509Y0033278D01*
X0251175Y0031670D01*
X0251175Y0029930D01*
X0250509Y0028322D01*
X0251175Y0029930D01*
X0251175Y0031670D01*
X0250509Y0033278D01*
X0249278Y0034509D01*
X0247670Y0035175D01*
X0245930Y0035175D01*
X0244322Y0034509D01*
X0243091Y0033278D01*
X0242425Y0031670D01*
X0242425Y0029930D01*
X0243091Y0028322D01*
X0244322Y0027091D01*
X0245930Y0026425D01*
X0247670Y0026425D01*
X0249278Y0027091D01*
X0250509Y0028322D01*
X0250366Y0028179D02*
X0253234Y0028179D01*
X0250366Y0028179D01*
X0251112Y0029778D02*
X0252488Y0029778D01*
X0251112Y0029778D01*
X0251175Y0031376D02*
X0252425Y0031376D01*
X0251175Y0031376D01*
X0250634Y0032975D02*
X0252966Y0032975D01*
X0250634Y0032975D01*
X0249123Y0034573D02*
X0254477Y0034573D01*
X0249123Y0034573D01*
X0244477Y0034573D02*
X0239123Y0034573D01*
X0244477Y0034573D01*
X0242966Y0032975D02*
X0240634Y0032975D01*
X0242966Y0032975D01*
X0242425Y0031376D02*
X0241175Y0031376D01*
X0242425Y0031376D01*
X0242488Y0029778D02*
X0241112Y0029778D01*
X0242488Y0029778D01*
X0243234Y0028179D02*
X0240366Y0028179D01*
X0243234Y0028179D01*
X0233234Y0028179D02*
X0230366Y0028179D01*
X0233234Y0028179D01*
X0232488Y0029778D02*
X0231112Y0029778D01*
X0232488Y0029778D01*
X0231175Y0029930D02*
X0230509Y0028322D01*
X0229278Y0027091D01*
X0227670Y0026425D01*
X0225930Y0026425D01*
X0224322Y0027091D01*
X0223091Y0028322D01*
X0222425Y0029930D01*
X0222425Y0031670D01*
X0223091Y0033278D01*
X0224322Y0034509D01*
X0225930Y0035175D01*
X0227670Y0035175D01*
X0229278Y0034509D01*
X0230509Y0033278D01*
X0231175Y0031670D01*
X0231175Y0029930D01*
X0230509Y0028322D01*
X0229278Y0027091D01*
X0227670Y0026425D01*
X0225930Y0026425D01*
X0224322Y0027091D01*
X0223091Y0028322D01*
X0222425Y0029930D01*
X0222425Y0031670D01*
X0223091Y0033278D01*
X0224322Y0034509D01*
X0225930Y0035175D01*
X0227670Y0035175D01*
X0229278Y0034509D01*
X0230509Y0033278D01*
X0231175Y0031670D01*
X0231175Y0029930D01*
X0231175Y0031376D02*
X0232425Y0031376D01*
X0231175Y0031376D01*
X0230634Y0032975D02*
X0232966Y0032975D01*
X0230634Y0032975D01*
X0229123Y0034573D02*
X0234477Y0034573D01*
X0229123Y0034573D01*
X0224477Y0034573D02*
X0219123Y0034573D01*
X0224477Y0034573D01*
X0222966Y0032975D02*
X0220634Y0032975D01*
X0222966Y0032975D01*
X0222425Y0031376D02*
X0221175Y0031376D01*
X0222425Y0031376D01*
X0222488Y0029778D02*
X0221112Y0029778D01*
X0222488Y0029778D01*
X0223234Y0028179D02*
X0220366Y0028179D01*
X0223234Y0028179D01*
X0214477Y0034573D02*
X0209123Y0034573D01*
X0214477Y0034573D01*
X0212966Y0032975D02*
X0210634Y0032975D01*
X0212966Y0032975D01*
X0212425Y0031376D02*
X0211175Y0031376D01*
X0212425Y0031376D01*
X0211175Y0031670D02*
X0210509Y0033278D01*
X0209278Y0034509D01*
X0207670Y0035175D01*
X0205930Y0035175D01*
X0204322Y0034509D01*
X0203091Y0033278D01*
X0202425Y0031670D01*
X0202425Y0029930D01*
X0203091Y0028322D01*
X0204322Y0027091D01*
X0205930Y0026425D01*
X0207670Y0026425D01*
X0209278Y0027091D01*
X0210509Y0028322D01*
X0211175Y0029930D01*
X0211175Y0031670D01*
X0210509Y0033278D01*
X0209278Y0034509D01*
X0207670Y0035175D01*
X0205930Y0035175D01*
X0204322Y0034509D01*
X0203091Y0033278D01*
X0202425Y0031670D01*
X0202425Y0029930D01*
X0203091Y0028322D01*
X0204322Y0027091D01*
X0205930Y0026425D01*
X0207670Y0026425D01*
X0209278Y0027091D01*
X0210509Y0028322D01*
X0211175Y0029930D01*
X0211175Y0031670D01*
X0211112Y0029778D02*
X0212488Y0029778D01*
X0211112Y0029778D01*
X0210366Y0028179D02*
X0213234Y0028179D01*
X0210366Y0028179D01*
X0259123Y0034573D02*
X0267000Y0034573D01*
X0259123Y0034573D01*
X0260634Y0032975D02*
X0267000Y0032975D01*
X0260634Y0032975D01*
X0261175Y0031376D02*
X0267000Y0031376D01*
X0261175Y0031376D01*
X0261112Y0029778D02*
X0267000Y0029778D01*
X0261112Y0029778D01*
X0260366Y0028179D02*
X0267000Y0028179D01*
X0260366Y0028179D01*
X0267000Y0080930D02*
X0214534Y0080930D01*
X0267000Y0080930D01*
X0267000Y0082529D02*
X0216133Y0082529D01*
X0267000Y0082529D01*
X0267000Y0084127D02*
X0216175Y0084127D01*
X0267000Y0084127D01*
X0267000Y0085726D02*
X0216175Y0085726D01*
X0267000Y0085726D01*
X0267000Y0087324D02*
X0215220Y0087324D01*
X0267000Y0087324D01*
X0267000Y0088923D02*
X0216175Y0088923D01*
X0267000Y0088923D01*
X0267000Y0090521D02*
X0216175Y0090521D01*
X0267000Y0090521D01*
X0267000Y0092120D02*
X0215959Y0092120D01*
X0267000Y0092120D01*
X0267000Y0093718D02*
X0215905Y0093718D01*
X0267000Y0093718D01*
X0267000Y0095317D02*
X0216175Y0095317D01*
X0267000Y0095317D01*
X0267000Y0096915D02*
X0216175Y0096915D01*
X0267000Y0096915D01*
X0267000Y0098514D02*
X0215273Y0098514D01*
X0267000Y0098514D01*
X0267000Y0100112D02*
X0216175Y0100112D01*
X0267000Y0100112D01*
X0267000Y0101711D02*
X0216175Y0101711D01*
X0267000Y0101711D01*
X0267000Y0103309D02*
X0216175Y0103309D01*
X0267000Y0103309D01*
X0267000Y0104908D02*
X0215677Y0104908D01*
X0267000Y0104908D01*
X0267000Y0106506D02*
X0216175Y0106506D01*
X0267000Y0106506D01*
X0267000Y0108105D02*
X0216175Y0108105D01*
X0267000Y0108105D01*
X0267000Y0109703D02*
X0215501Y0109703D01*
X0267000Y0109703D01*
X0267000Y0111302D02*
X0213902Y0111302D01*
X0267000Y0111302D01*
X0267000Y0112900D02*
X0212198Y0112900D01*
X0267000Y0112900D01*
X0267000Y0114499D02*
X0210524Y0114499D01*
X0267000Y0114499D01*
X0267000Y0116097D02*
X0172584Y0116097D01*
X0267000Y0116097D01*
X0267000Y0117696D02*
X0170985Y0117696D01*
X0267000Y0117696D01*
X0267000Y0119294D02*
X0169387Y0119294D01*
X0267000Y0119294D01*
X0267000Y0120893D02*
X0167788Y0120893D01*
X0267000Y0120893D01*
X0267000Y0122491D02*
X0166190Y0122491D01*
X0267000Y0122491D01*
X0267000Y0124090D02*
X0164591Y0124090D01*
X0267000Y0124090D01*
X0267000Y0125688D02*
X0162993Y0125688D01*
X0267000Y0125688D01*
X0267000Y0127287D02*
X0161394Y0127287D01*
X0267000Y0127287D01*
X0267000Y0128885D02*
X0159796Y0128885D01*
X0267000Y0128885D01*
X0267000Y0130484D02*
X0158197Y0130484D01*
X0267000Y0130484D01*
X0267000Y0132082D02*
X0156599Y0132082D01*
X0267000Y0132082D01*
X0267000Y0133681D02*
X0155000Y0133681D01*
X0267000Y0133681D01*
X0267000Y0135279D02*
X0213884Y0135279D01*
X0267000Y0135279D01*
X0267000Y0136878D02*
X0215482Y0136878D01*
X0267000Y0136878D01*
X0267000Y0138476D02*
X0216175Y0138476D01*
X0267000Y0138476D01*
X0267000Y0140075D02*
X0216175Y0140075D01*
X0267000Y0140075D01*
X0267000Y0141673D02*
X0215696Y0141673D01*
X0267000Y0141673D01*
X0267000Y0143272D02*
X0216168Y0143272D01*
X0267000Y0143272D01*
X0267000Y0144870D02*
X0216175Y0144870D01*
X0267000Y0144870D01*
X0267000Y0146469D02*
X0216175Y0146469D01*
X0267000Y0146469D01*
X0267000Y0148068D02*
X0215254Y0148068D01*
X0267000Y0148068D01*
X0267000Y0149666D02*
X0216175Y0149666D01*
X0267000Y0149666D01*
X0267000Y0151265D02*
X0216175Y0151265D01*
X0267000Y0151265D01*
X0267000Y0152863D02*
X0215924Y0152863D01*
X0267000Y0152863D01*
X0267000Y0154462D02*
X0215940Y0154462D01*
X0267000Y0154462D01*
X0267000Y0156060D02*
X0216175Y0156060D01*
X0267000Y0156060D01*
X0267000Y0157659D02*
X0216175Y0157659D01*
X0267000Y0157659D01*
X0267000Y0159257D02*
X0215238Y0159257D01*
X0267000Y0159257D01*
X0267000Y0160856D02*
X0216175Y0160856D01*
X0267000Y0160856D01*
X0267000Y0162454D02*
X0216175Y0162454D01*
X0267000Y0162454D01*
X0267000Y0164053D02*
X0216152Y0164053D01*
X0267000Y0164053D01*
X0267000Y0165651D02*
X0214553Y0165651D01*
X0267000Y0165651D01*
X0267000Y0167250D02*
X0212849Y0167250D01*
X0267000Y0167250D01*
X0267000Y0168848D02*
X0211250Y0168848D01*
X0267000Y0168848D01*
X0267000Y0170447D02*
X0209652Y0170447D01*
X0267000Y0170447D01*
X0267000Y0172045D02*
X0208053Y0172045D01*
X0267000Y0172045D01*
X0267000Y0173644D02*
X0206455Y0173644D01*
X0267000Y0173644D01*
X0267000Y0175242D02*
X0204856Y0175242D01*
X0267000Y0175242D01*
X0267000Y0176841D02*
X0203258Y0176841D01*
X0267000Y0176841D01*
X0267000Y0178439D02*
X0201659Y0178439D01*
X0267000Y0178439D01*
X0267000Y0180038D02*
X0199223Y0180038D01*
X0267000Y0180038D01*
X0259278Y0197091D02*
X0257670Y0196425D01*
X0255930Y0196425D01*
X0254322Y0197091D01*
X0253091Y0198322D01*
X0252425Y0199930D01*
X0252425Y0201670D01*
X0253091Y0203278D01*
X0254322Y0204509D01*
X0255930Y0205175D01*
X0257670Y0205175D01*
X0259278Y0204509D01*
X0260509Y0203278D01*
X0261175Y0201670D01*
X0261175Y0199930D01*
X0260509Y0198322D01*
X0259278Y0197091D01*
X0260509Y0198322D01*
X0261175Y0199930D01*
X0261175Y0201670D01*
X0260509Y0203278D01*
X0259278Y0204509D01*
X0257670Y0205175D01*
X0255930Y0205175D01*
X0254322Y0204509D01*
X0253091Y0203278D01*
X0252425Y0201670D01*
X0252425Y0199930D01*
X0253091Y0198322D01*
X0254322Y0197091D01*
X0255930Y0196425D01*
X0257670Y0196425D01*
X0259278Y0197091D01*
X0259808Y0197621D02*
X0267000Y0197621D01*
X0259808Y0197621D01*
X0260881Y0199220D02*
X0267000Y0199220D01*
X0260881Y0199220D01*
X0261175Y0200818D02*
X0267000Y0200818D01*
X0261175Y0200818D01*
X0260866Y0202417D02*
X0267000Y0202417D01*
X0260866Y0202417D01*
X0259771Y0204015D02*
X0267000Y0204015D01*
X0259771Y0204015D01*
X0259278Y0207091D02*
X0260509Y0208322D01*
X0261175Y0209930D01*
X0261175Y0211670D01*
X0260509Y0213278D01*
X0259278Y0214509D01*
X0257670Y0215175D01*
X0255930Y0215175D01*
X0254322Y0214509D01*
X0253091Y0213278D01*
X0252425Y0211670D01*
X0252425Y0209930D01*
X0253091Y0208322D01*
X0254322Y0207091D01*
X0255930Y0206425D01*
X0257670Y0206425D01*
X0259278Y0207091D01*
X0260509Y0208322D01*
X0261175Y0209930D01*
X0261175Y0211670D01*
X0260509Y0213278D01*
X0259278Y0214509D01*
X0257670Y0215175D01*
X0255930Y0215175D01*
X0254322Y0214509D01*
X0253091Y0213278D01*
X0252425Y0211670D01*
X0252425Y0209930D01*
X0253091Y0208322D01*
X0254322Y0207091D01*
X0255930Y0206425D01*
X0257670Y0206425D01*
X0259278Y0207091D01*
X0259399Y0207212D02*
X0267000Y0207212D01*
X0259399Y0207212D01*
X0260711Y0208811D02*
X0267000Y0208811D01*
X0260711Y0208811D01*
X0261175Y0210409D02*
X0267000Y0210409D01*
X0261175Y0210409D01*
X0261035Y0212008D02*
X0267000Y0212008D01*
X0261035Y0212008D01*
X0260180Y0213606D02*
X0267000Y0213606D01*
X0260180Y0213606D01*
X0253420Y0213606D02*
X0250180Y0213606D01*
X0253420Y0213606D01*
X0252565Y0212008D02*
X0251035Y0212008D01*
X0252565Y0212008D01*
X0251175Y0211670D02*
X0251175Y0209930D01*
X0250509Y0208322D01*
X0249278Y0207091D01*
X0247670Y0206425D01*
X0245930Y0206425D01*
X0244322Y0207091D01*
X0243091Y0208322D01*
X0242425Y0209930D01*
X0242425Y0211670D01*
X0243091Y0213278D01*
X0244322Y0214509D01*
X0245930Y0215175D01*
X0247670Y0215175D01*
X0249278Y0214509D01*
X0250509Y0213278D01*
X0251175Y0211670D01*
X0250509Y0213278D01*
X0249278Y0214509D01*
X0247670Y0215175D01*
X0245930Y0215175D01*
X0244322Y0214509D01*
X0243091Y0213278D01*
X0242425Y0211670D01*
X0242425Y0209930D01*
X0243091Y0208322D01*
X0244322Y0207091D01*
X0245930Y0206425D01*
X0247670Y0206425D01*
X0249278Y0207091D01*
X0250509Y0208322D01*
X0251175Y0209930D01*
X0251175Y0211670D01*
X0251175Y0210409D02*
X0252425Y0210409D01*
X0251175Y0210409D01*
X0250711Y0208811D02*
X0252889Y0208811D01*
X0250711Y0208811D01*
X0249399Y0207212D02*
X0254201Y0207212D01*
X0249399Y0207212D01*
X0247670Y0205175D02*
X0245930Y0205175D01*
X0244322Y0204509D01*
X0243091Y0203278D01*
X0242425Y0201670D01*
X0242425Y0199930D01*
X0243091Y0198322D01*
X0244322Y0197091D01*
X0245930Y0196425D01*
X0247670Y0196425D01*
X0249278Y0197091D01*
X0250509Y0198322D01*
X0251175Y0199930D01*
X0251175Y0201670D01*
X0250509Y0203278D01*
X0249278Y0204509D01*
X0247670Y0205175D01*
X0245930Y0205175D01*
X0244322Y0204509D01*
X0243091Y0203278D01*
X0242425Y0201670D01*
X0242425Y0199930D01*
X0243091Y0198322D01*
X0244322Y0197091D01*
X0245930Y0196425D01*
X0247670Y0196425D01*
X0249278Y0197091D01*
X0250509Y0198322D01*
X0251175Y0199930D01*
X0251175Y0201670D01*
X0250509Y0203278D01*
X0249278Y0204509D01*
X0247670Y0205175D01*
X0249771Y0204015D02*
X0253828Y0204015D01*
X0249771Y0204015D01*
X0250866Y0202417D02*
X0252734Y0202417D01*
X0250866Y0202417D01*
X0251175Y0200818D02*
X0252425Y0200818D01*
X0251175Y0200818D01*
X0250881Y0199220D02*
X0252719Y0199220D01*
X0250881Y0199220D01*
X0249808Y0197621D02*
X0253792Y0197621D01*
X0249808Y0197621D01*
X0243792Y0197621D02*
X0239808Y0197621D01*
X0243792Y0197621D01*
X0242719Y0199220D02*
X0240881Y0199220D01*
X0242719Y0199220D01*
X0242425Y0200818D02*
X0241175Y0200818D01*
X0242425Y0200818D01*
X0241175Y0201670D02*
X0241175Y0199930D01*
X0240509Y0198322D01*
X0239278Y0197091D01*
X0237670Y0196425D01*
X0235930Y0196425D01*
X0234322Y0197091D01*
X0233091Y0198322D01*
X0232425Y0199930D01*
X0232425Y0201670D01*
X0233091Y0203278D01*
X0234322Y0204509D01*
X0235930Y0205175D01*
X0237670Y0205175D01*
X0239278Y0204509D01*
X0240509Y0203278D01*
X0241175Y0201670D01*
X0240509Y0203278D01*
X0239278Y0204509D01*
X0237670Y0205175D01*
X0235930Y0205175D01*
X0234322Y0204509D01*
X0233091Y0203278D01*
X0232425Y0201670D01*
X0232425Y0199930D01*
X0233091Y0198322D01*
X0234322Y0197091D01*
X0235930Y0196425D01*
X0237670Y0196425D01*
X0239278Y0197091D01*
X0240509Y0198322D01*
X0241175Y0199930D01*
X0241175Y0201670D01*
X0240866Y0202417D02*
X0242734Y0202417D01*
X0240866Y0202417D01*
X0239771Y0204015D02*
X0243828Y0204015D01*
X0239771Y0204015D01*
X0239278Y0207091D02*
X0237670Y0206425D01*
X0235930Y0206425D01*
X0234322Y0207091D01*
X0233091Y0208322D01*
X0232425Y0209930D01*
X0232425Y0211670D01*
X0233091Y0213278D01*
X0234322Y0214509D01*
X0235930Y0215175D01*
X0237670Y0215175D01*
X0239278Y0214509D01*
X0240509Y0213278D01*
X0241175Y0211670D01*
X0241175Y0209930D01*
X0240509Y0208322D01*
X0239278Y0207091D01*
X0240509Y0208322D01*
X0241175Y0209930D01*
X0241175Y0211670D01*
X0240509Y0213278D01*
X0239278Y0214509D01*
X0237670Y0215175D01*
X0235930Y0215175D01*
X0234322Y0214509D01*
X0233091Y0213278D01*
X0232425Y0211670D01*
X0232425Y0209930D01*
X0233091Y0208322D01*
X0234322Y0207091D01*
X0235930Y0206425D01*
X0237670Y0206425D01*
X0239278Y0207091D01*
X0239399Y0207212D02*
X0244201Y0207212D01*
X0239399Y0207212D01*
X0240711Y0208811D02*
X0242889Y0208811D01*
X0240711Y0208811D01*
X0241175Y0210409D02*
X0242425Y0210409D01*
X0241175Y0210409D01*
X0241035Y0212008D02*
X0242565Y0212008D01*
X0241035Y0212008D01*
X0240180Y0213606D02*
X0243420Y0213606D01*
X0240180Y0213606D01*
X0233420Y0213606D02*
X0230180Y0213606D01*
X0233420Y0213606D01*
X0232565Y0212008D02*
X0231035Y0212008D01*
X0232565Y0212008D01*
X0231175Y0211670D02*
X0231175Y0209930D01*
X0230509Y0208322D01*
X0229278Y0207091D01*
X0227670Y0206425D01*
X0225930Y0206425D01*
X0224322Y0207091D01*
X0223091Y0208322D01*
X0222425Y0209930D01*
X0222425Y0211670D01*
X0223091Y0213278D01*
X0224322Y0214509D01*
X0225930Y0215175D01*
X0227670Y0215175D01*
X0229278Y0214509D01*
X0230509Y0213278D01*
X0231175Y0211670D01*
X0230509Y0213278D01*
X0229278Y0214509D01*
X0227670Y0215175D01*
X0225930Y0215175D01*
X0224322Y0214509D01*
X0223091Y0213278D01*
X0222425Y0211670D01*
X0222425Y0209930D01*
X0223091Y0208322D01*
X0224322Y0207091D01*
X0225930Y0206425D01*
X0227670Y0206425D01*
X0229278Y0207091D01*
X0230509Y0208322D01*
X0231175Y0209930D01*
X0231175Y0211670D01*
X0231175Y0210409D02*
X0232425Y0210409D01*
X0231175Y0210409D01*
X0230711Y0208811D02*
X0232889Y0208811D01*
X0230711Y0208811D01*
X0229399Y0207212D02*
X0234201Y0207212D01*
X0229399Y0207212D01*
X0227670Y0205175D02*
X0225930Y0205175D01*
X0224322Y0204509D01*
X0223091Y0203278D01*
X0222425Y0201670D01*
X0222425Y0199930D01*
X0223091Y0198322D01*
X0224322Y0197091D01*
X0225930Y0196425D01*
X0227670Y0196425D01*
X0229278Y0197091D01*
X0230509Y0198322D01*
X0231175Y0199930D01*
X0231175Y0201670D01*
X0230509Y0203278D01*
X0229278Y0204509D01*
X0227670Y0205175D01*
X0225930Y0205175D01*
X0224322Y0204509D01*
X0223091Y0203278D01*
X0222425Y0201670D01*
X0222425Y0199930D01*
X0223091Y0198322D01*
X0224322Y0197091D01*
X0225930Y0196425D01*
X0227670Y0196425D01*
X0229278Y0197091D01*
X0230509Y0198322D01*
X0231175Y0199930D01*
X0231175Y0201670D01*
X0230509Y0203278D01*
X0229278Y0204509D01*
X0227670Y0205175D01*
X0229771Y0204015D02*
X0233828Y0204015D01*
X0229771Y0204015D01*
X0230866Y0202417D02*
X0232734Y0202417D01*
X0230866Y0202417D01*
X0231175Y0200818D02*
X0232425Y0200818D01*
X0231175Y0200818D01*
X0230881Y0199220D02*
X0232719Y0199220D01*
X0230881Y0199220D01*
X0229808Y0197621D02*
X0233792Y0197621D01*
X0229808Y0197621D01*
X0223792Y0197621D02*
X0219808Y0197621D01*
X0223792Y0197621D01*
X0222719Y0199220D02*
X0220881Y0199220D01*
X0222719Y0199220D01*
X0222425Y0200818D02*
X0221175Y0200818D01*
X0222425Y0200818D01*
X0221175Y0201670D02*
X0220509Y0203278D01*
X0219278Y0204509D01*
X0217670Y0205175D01*
X0215930Y0205175D01*
X0214322Y0204509D01*
X0213091Y0203278D01*
X0212425Y0201670D01*
X0212425Y0199930D01*
X0213091Y0198322D01*
X0214322Y0197091D01*
X0215930Y0196425D01*
X0217670Y0196425D01*
X0219278Y0197091D01*
X0220509Y0198322D01*
X0221175Y0199930D01*
X0221175Y0201670D01*
X0220509Y0203278D01*
X0219278Y0204509D01*
X0217670Y0205175D01*
X0215930Y0205175D01*
X0214322Y0204509D01*
X0213091Y0203278D01*
X0212425Y0201670D01*
X0212425Y0199930D01*
X0213091Y0198322D01*
X0214322Y0197091D01*
X0215930Y0196425D01*
X0217670Y0196425D01*
X0219278Y0197091D01*
X0220509Y0198322D01*
X0221175Y0199930D01*
X0221175Y0201670D01*
X0220866Y0202417D02*
X0222734Y0202417D01*
X0220866Y0202417D01*
X0219771Y0204015D02*
X0223828Y0204015D01*
X0219771Y0204015D01*
X0219278Y0207091D02*
X0217670Y0206425D01*
X0215930Y0206425D01*
X0214322Y0207091D01*
X0213091Y0208322D01*
X0212425Y0209930D01*
X0212425Y0211670D01*
X0213091Y0213278D01*
X0214322Y0214509D01*
X0215930Y0215175D01*
X0217670Y0215175D01*
X0219278Y0214509D01*
X0220509Y0213278D01*
X0221175Y0211670D01*
X0221175Y0209930D01*
X0220509Y0208322D01*
X0219278Y0207091D01*
X0220509Y0208322D01*
X0221175Y0209930D01*
X0221175Y0211670D01*
X0220509Y0213278D01*
X0219278Y0214509D01*
X0217670Y0215175D01*
X0215930Y0215175D01*
X0214322Y0214509D01*
X0213091Y0213278D01*
X0212425Y0211670D01*
X0212425Y0209930D01*
X0213091Y0208322D01*
X0214322Y0207091D01*
X0215930Y0206425D01*
X0217670Y0206425D01*
X0219278Y0207091D01*
X0219399Y0207212D02*
X0224201Y0207212D01*
X0219399Y0207212D01*
X0220711Y0208811D02*
X0222889Y0208811D01*
X0220711Y0208811D01*
X0221175Y0210409D02*
X0222425Y0210409D01*
X0221175Y0210409D01*
X0221035Y0212008D02*
X0222565Y0212008D01*
X0221035Y0212008D01*
X0220180Y0213606D02*
X0223420Y0213606D01*
X0220180Y0213606D01*
X0213420Y0213606D02*
X0210180Y0213606D01*
X0213420Y0213606D01*
X0212565Y0212008D02*
X0211035Y0212008D01*
X0212565Y0212008D01*
X0211175Y0211670D02*
X0210509Y0213278D01*
X0209278Y0214509D01*
X0207670Y0215175D01*
X0205930Y0215175D01*
X0204322Y0214509D01*
X0203091Y0213278D01*
X0202425Y0211670D01*
X0202425Y0209930D01*
X0203091Y0208322D01*
X0204322Y0207091D01*
X0205930Y0206425D01*
X0207670Y0206425D01*
X0209278Y0207091D01*
X0210509Y0208322D01*
X0211175Y0209930D01*
X0211175Y0211670D01*
X0210509Y0213278D01*
X0209278Y0214509D01*
X0207670Y0215175D01*
X0205930Y0215175D01*
X0204322Y0214509D01*
X0203091Y0213278D01*
X0202425Y0211670D01*
X0202425Y0209930D01*
X0203091Y0208322D01*
X0204322Y0207091D01*
X0205930Y0206425D01*
X0207670Y0206425D01*
X0209278Y0207091D01*
X0210509Y0208322D01*
X0211175Y0209930D01*
X0211175Y0211670D01*
X0211175Y0210409D02*
X0212425Y0210409D01*
X0211175Y0210409D01*
X0210711Y0208811D02*
X0212889Y0208811D01*
X0210711Y0208811D01*
X0209399Y0207212D02*
X0214201Y0207212D01*
X0209399Y0207212D01*
X0207670Y0205175D02*
X0205930Y0205175D01*
X0204322Y0204509D01*
X0203091Y0203278D01*
X0202425Y0201670D01*
X0202425Y0199930D01*
X0203091Y0198322D01*
X0204322Y0197091D01*
X0205930Y0196425D01*
X0207670Y0196425D01*
X0209278Y0197091D01*
X0210509Y0198322D01*
X0211175Y0199930D01*
X0211175Y0201670D01*
X0210509Y0203278D01*
X0209278Y0204509D01*
X0207670Y0205175D01*
X0205930Y0205175D01*
X0204322Y0204509D01*
X0203091Y0203278D01*
X0202425Y0201670D01*
X0202425Y0199930D01*
X0203091Y0198322D01*
X0204322Y0197091D01*
X0205930Y0196425D01*
X0207670Y0196425D01*
X0209278Y0197091D01*
X0210509Y0198322D01*
X0211175Y0199930D01*
X0211175Y0201670D01*
X0210509Y0203278D01*
X0209278Y0204509D01*
X0207670Y0205175D01*
X0209771Y0204015D02*
X0213828Y0204015D01*
X0209771Y0204015D01*
X0210866Y0202417D02*
X0212734Y0202417D01*
X0210866Y0202417D01*
X0211175Y0200818D02*
X0212425Y0200818D01*
X0211175Y0200818D01*
X0210881Y0199220D02*
X0212719Y0199220D01*
X0210881Y0199220D01*
X0209808Y0197621D02*
X0213792Y0197621D01*
X0209808Y0197621D01*
X0203792Y0197621D02*
X0199808Y0197621D01*
X0203792Y0197621D01*
X0202719Y0199220D02*
X0200881Y0199220D01*
X0202719Y0199220D01*
X0202425Y0200818D02*
X0201175Y0200818D01*
X0202425Y0200818D01*
X0201175Y0201670D02*
X0201175Y0199930D01*
X0200509Y0198322D01*
X0199278Y0197091D01*
X0197670Y0196425D01*
X0195930Y0196425D01*
X0194322Y0197091D01*
X0193091Y0198322D01*
X0192425Y0199930D01*
X0192425Y0201670D01*
X0193091Y0203278D01*
X0194322Y0204509D01*
X0195930Y0205175D01*
X0197670Y0205175D01*
X0199278Y0204509D01*
X0200509Y0203278D01*
X0201175Y0201670D01*
X0200509Y0203278D01*
X0199278Y0204509D01*
X0197670Y0205175D01*
X0195930Y0205175D01*
X0194322Y0204509D01*
X0193091Y0203278D01*
X0192425Y0201670D01*
X0192425Y0199930D01*
X0193091Y0198322D01*
X0194322Y0197091D01*
X0195930Y0196425D01*
X0197670Y0196425D01*
X0199278Y0197091D01*
X0200509Y0198322D01*
X0201175Y0199930D01*
X0201175Y0201670D01*
X0200866Y0202417D02*
X0202734Y0202417D01*
X0200866Y0202417D01*
X0199771Y0204015D02*
X0203828Y0204015D01*
X0199771Y0204015D01*
X0199278Y0207091D02*
X0200509Y0208322D01*
X0201175Y0209930D01*
X0201175Y0211670D01*
X0200509Y0213278D01*
X0199278Y0214509D01*
X0197670Y0215175D01*
X0195930Y0215175D01*
X0194322Y0214509D01*
X0193091Y0213278D01*
X0192425Y0211670D01*
X0192425Y0209930D01*
X0193091Y0208322D01*
X0194322Y0207091D01*
X0195930Y0206425D01*
X0197670Y0206425D01*
X0199278Y0207091D01*
X0200509Y0208322D01*
X0201175Y0209930D01*
X0201175Y0211670D01*
X0200509Y0213278D01*
X0199278Y0214509D01*
X0197670Y0215175D01*
X0195930Y0215175D01*
X0194322Y0214509D01*
X0193091Y0213278D01*
X0192425Y0211670D01*
X0192425Y0209930D01*
X0193091Y0208322D01*
X0194322Y0207091D01*
X0195930Y0206425D01*
X0197670Y0206425D01*
X0199278Y0207091D01*
X0199399Y0207212D02*
X0204201Y0207212D01*
X0199399Y0207212D01*
X0200711Y0208811D02*
X0202889Y0208811D01*
X0200711Y0208811D01*
X0201175Y0210409D02*
X0202425Y0210409D01*
X0201175Y0210409D01*
X0201035Y0212008D02*
X0202565Y0212008D01*
X0201035Y0212008D01*
X0200180Y0213606D02*
X0203420Y0213606D01*
X0200180Y0213606D01*
X0193420Y0213606D02*
X0190180Y0213606D01*
X0193420Y0213606D01*
X0192565Y0212008D02*
X0191035Y0212008D01*
X0192565Y0212008D01*
X0191175Y0211670D02*
X0191175Y0209930D01*
X0190509Y0208322D01*
X0189278Y0207091D01*
X0187670Y0206425D01*
X0185930Y0206425D01*
X0184322Y0207091D01*
X0183091Y0208322D01*
X0182425Y0209930D01*
X0182425Y0211670D01*
X0183091Y0213278D01*
X0184322Y0214509D01*
X0185930Y0215175D01*
X0187670Y0215175D01*
X0189278Y0214509D01*
X0190509Y0213278D01*
X0191175Y0211670D01*
X0190509Y0213278D01*
X0189278Y0214509D01*
X0187670Y0215175D01*
X0185930Y0215175D01*
X0184322Y0214509D01*
X0183091Y0213278D01*
X0182425Y0211670D01*
X0182425Y0209930D01*
X0183091Y0208322D01*
X0184322Y0207091D01*
X0185930Y0206425D01*
X0187670Y0206425D01*
X0189278Y0207091D01*
X0190509Y0208322D01*
X0191175Y0209930D01*
X0191175Y0211670D01*
X0191175Y0210409D02*
X0192425Y0210409D01*
X0191175Y0210409D01*
X0190711Y0208811D02*
X0192889Y0208811D01*
X0190711Y0208811D01*
X0189399Y0207212D02*
X0194201Y0207212D01*
X0189399Y0207212D01*
X0187670Y0205175D02*
X0185930Y0205175D01*
X0184322Y0204509D01*
X0183091Y0203278D01*
X0182425Y0201670D01*
X0182425Y0199930D01*
X0183091Y0198322D01*
X0184322Y0197091D01*
X0185930Y0196425D01*
X0187670Y0196425D01*
X0189278Y0197091D01*
X0190509Y0198322D01*
X0191175Y0199930D01*
X0191175Y0201670D01*
X0190509Y0203278D01*
X0189278Y0204509D01*
X0187670Y0205175D01*
X0185930Y0205175D01*
X0184322Y0204509D01*
X0183091Y0203278D01*
X0182425Y0201670D01*
X0182425Y0199930D01*
X0183091Y0198322D01*
X0184322Y0197091D01*
X0185930Y0196425D01*
X0187670Y0196425D01*
X0189278Y0197091D01*
X0190509Y0198322D01*
X0191175Y0199930D01*
X0191175Y0201670D01*
X0190509Y0203278D01*
X0189278Y0204509D01*
X0187670Y0205175D01*
X0189771Y0204015D02*
X0193828Y0204015D01*
X0189771Y0204015D01*
X0190866Y0202417D02*
X0192734Y0202417D01*
X0190866Y0202417D01*
X0191175Y0200818D02*
X0192425Y0200818D01*
X0191175Y0200818D01*
X0190881Y0199220D02*
X0192719Y0199220D01*
X0190881Y0199220D01*
X0189808Y0197621D02*
X0193792Y0197621D01*
X0189808Y0197621D01*
X0183792Y0197621D02*
X0173808Y0197621D01*
X0183792Y0197621D01*
X0182719Y0199220D02*
X0174881Y0199220D01*
X0182719Y0199220D01*
X0182425Y0200818D02*
X0175175Y0200818D01*
X0182425Y0200818D01*
X0182734Y0202417D02*
X0174866Y0202417D01*
X0182734Y0202417D01*
X0183828Y0204015D02*
X0173771Y0204015D01*
X0183828Y0204015D01*
X0184201Y0207212D02*
X0173399Y0207212D01*
X0184201Y0207212D01*
X0182889Y0208811D02*
X0174711Y0208811D01*
X0182889Y0208811D01*
X0182425Y0210409D02*
X0175175Y0210409D01*
X0182425Y0210409D01*
X0182565Y0212008D02*
X0175035Y0212008D01*
X0182565Y0212008D01*
X0183420Y0213606D02*
X0174180Y0213606D01*
X0183420Y0213606D01*
X0175175Y0211670D02*
X0175175Y0209930D01*
X0174509Y0208322D01*
X0173278Y0207091D01*
X0171670Y0206425D01*
X0169930Y0206425D01*
X0168322Y0207091D01*
X0167091Y0208322D01*
X0166425Y0209930D01*
X0166425Y0211670D01*
X0167091Y0213278D01*
X0168322Y0214509D01*
X0169930Y0215175D01*
X0171670Y0215175D01*
X0173278Y0214509D01*
X0174509Y0213278D01*
X0175175Y0211670D01*
X0174509Y0213278D01*
X0173278Y0214509D01*
X0171670Y0215175D01*
X0169930Y0215175D01*
X0168322Y0214509D01*
X0167091Y0213278D01*
X0166425Y0211670D01*
X0166425Y0209930D01*
X0167091Y0208322D01*
X0168322Y0207091D01*
X0169930Y0206425D01*
X0171670Y0206425D01*
X0173278Y0207091D01*
X0174509Y0208322D01*
X0175175Y0209930D01*
X0175175Y0211670D01*
X0171670Y0205175D02*
X0169930Y0205175D01*
X0168322Y0204509D01*
X0167091Y0203278D01*
X0166425Y0201670D01*
X0166425Y0199930D01*
X0167091Y0198322D01*
X0168322Y0197091D01*
X0169930Y0196425D01*
X0171670Y0196425D01*
X0173278Y0197091D01*
X0174509Y0198322D01*
X0175175Y0199930D01*
X0175175Y0201670D01*
X0174509Y0203278D01*
X0173278Y0204509D01*
X0171670Y0205175D01*
X0169930Y0205175D01*
X0168322Y0204509D01*
X0167091Y0203278D01*
X0166425Y0201670D01*
X0166425Y0199930D01*
X0167091Y0198322D01*
X0168322Y0197091D01*
X0169930Y0196425D01*
X0171670Y0196425D01*
X0173278Y0197091D01*
X0174509Y0198322D01*
X0175175Y0199930D01*
X0175175Y0201670D01*
X0174509Y0203278D01*
X0173278Y0204509D01*
X0171670Y0205175D01*
X0167828Y0204015D02*
X0163771Y0204015D01*
X0167828Y0204015D01*
X0166734Y0202417D02*
X0164866Y0202417D01*
X0166734Y0202417D01*
X0166425Y0200818D02*
X0165175Y0200818D01*
X0166425Y0200818D01*
X0165175Y0201670D02*
X0165175Y0199930D01*
X0164509Y0198322D01*
X0163278Y0197091D01*
X0161670Y0196425D01*
X0159930Y0196425D01*
X0158322Y0197091D01*
X0157091Y0198322D01*
X0156425Y0199930D01*
X0156425Y0201670D01*
X0157091Y0203278D01*
X0158322Y0204509D01*
X0159930Y0205175D01*
X0161670Y0205175D01*
X0163278Y0204509D01*
X0164509Y0203278D01*
X0165175Y0201670D01*
X0164509Y0203278D01*
X0163278Y0204509D01*
X0161670Y0205175D01*
X0159930Y0205175D01*
X0158322Y0204509D01*
X0157091Y0203278D01*
X0156425Y0201670D01*
X0156425Y0199930D01*
X0157091Y0198322D01*
X0158322Y0197091D01*
X0159930Y0196425D01*
X0161670Y0196425D01*
X0163278Y0197091D01*
X0164509Y0198322D01*
X0165175Y0199930D01*
X0165175Y0201670D01*
X0164881Y0199220D02*
X0166719Y0199220D01*
X0164881Y0199220D01*
X0163808Y0197621D02*
X0167792Y0197621D01*
X0163808Y0197621D01*
X0157792Y0197621D02*
X0153808Y0197621D01*
X0157792Y0197621D01*
X0156719Y0199220D02*
X0154881Y0199220D01*
X0156719Y0199220D01*
X0156425Y0200818D02*
X0155175Y0200818D01*
X0156425Y0200818D01*
X0155175Y0201670D02*
X0154509Y0203278D01*
X0153278Y0204509D01*
X0151670Y0205175D01*
X0149930Y0205175D01*
X0148322Y0204509D01*
X0147091Y0203278D01*
X0146425Y0201670D01*
X0146425Y0199930D01*
X0147091Y0198322D01*
X0148322Y0197091D01*
X0149930Y0196425D01*
X0151670Y0196425D01*
X0153278Y0197091D01*
X0154509Y0198322D01*
X0155175Y0199930D01*
X0155175Y0201670D01*
X0154509Y0203278D01*
X0153278Y0204509D01*
X0151670Y0205175D01*
X0149930Y0205175D01*
X0148322Y0204509D01*
X0147091Y0203278D01*
X0146425Y0201670D01*
X0146425Y0199930D01*
X0147091Y0198322D01*
X0148322Y0197091D01*
X0149930Y0196425D01*
X0151670Y0196425D01*
X0153278Y0197091D01*
X0154509Y0198322D01*
X0155175Y0199930D01*
X0155175Y0201670D01*
X0154866Y0202417D02*
X0156734Y0202417D01*
X0154866Y0202417D01*
X0153771Y0204015D02*
X0157828Y0204015D01*
X0153771Y0204015D01*
X0153278Y0207091D02*
X0151670Y0206425D01*
X0149930Y0206425D01*
X0148322Y0207091D01*
X0147091Y0208322D01*
X0146425Y0209930D01*
X0146425Y0211670D01*
X0147091Y0213278D01*
X0148322Y0214509D01*
X0149930Y0215175D01*
X0151670Y0215175D01*
X0153278Y0214509D01*
X0154509Y0213278D01*
X0155175Y0211670D01*
X0155175Y0209930D01*
X0154509Y0208322D01*
X0153278Y0207091D01*
X0154509Y0208322D01*
X0155175Y0209930D01*
X0155175Y0211670D01*
X0154509Y0213278D01*
X0153278Y0214509D01*
X0151670Y0215175D01*
X0149930Y0215175D01*
X0148322Y0214509D01*
X0147091Y0213278D01*
X0146425Y0211670D01*
X0146425Y0209930D01*
X0147091Y0208322D01*
X0148322Y0207091D01*
X0149930Y0206425D01*
X0151670Y0206425D01*
X0153278Y0207091D01*
X0153399Y0207212D02*
X0158201Y0207212D01*
X0153399Y0207212D01*
X0154711Y0208811D02*
X0156889Y0208811D01*
X0154711Y0208811D01*
X0155175Y0210409D02*
X0156425Y0210409D01*
X0155175Y0210409D01*
X0156425Y0209930D02*
X0157091Y0208322D01*
X0158322Y0207091D01*
X0159930Y0206425D01*
X0161670Y0206425D01*
X0163278Y0207091D01*
X0164509Y0208322D01*
X0165175Y0209930D01*
X0165175Y0211670D01*
X0164509Y0213278D01*
X0163278Y0214509D01*
X0161670Y0215175D01*
X0159930Y0215175D01*
X0158322Y0214509D01*
X0157091Y0213278D01*
X0156425Y0211670D01*
X0156425Y0209930D01*
X0157091Y0208322D01*
X0158322Y0207091D01*
X0159930Y0206425D01*
X0161670Y0206425D01*
X0163278Y0207091D01*
X0164509Y0208322D01*
X0165175Y0209930D01*
X0165175Y0211670D01*
X0164509Y0213278D01*
X0163278Y0214509D01*
X0161670Y0215175D01*
X0159930Y0215175D01*
X0158322Y0214509D01*
X0157091Y0213278D01*
X0156425Y0211670D01*
X0156425Y0209930D01*
X0156565Y0212008D02*
X0155035Y0212008D01*
X0156565Y0212008D01*
X0157420Y0213606D02*
X0154180Y0213606D01*
X0157420Y0213606D01*
X0164180Y0213606D02*
X0167420Y0213606D01*
X0164180Y0213606D01*
X0165035Y0212008D02*
X0166565Y0212008D01*
X0165035Y0212008D01*
X0165175Y0210409D02*
X0166425Y0210409D01*
X0165175Y0210409D01*
X0164711Y0208811D02*
X0166889Y0208811D01*
X0164711Y0208811D01*
X0163399Y0207212D02*
X0168201Y0207212D01*
X0163399Y0207212D01*
X0148201Y0207212D02*
X0143399Y0207212D01*
X0148201Y0207212D01*
X0146889Y0208811D02*
X0144711Y0208811D01*
X0146889Y0208811D01*
X0146425Y0210409D02*
X0145175Y0210409D01*
X0146425Y0210409D01*
X0145175Y0209930D02*
X0144509Y0208322D01*
X0143278Y0207091D01*
X0141670Y0206425D01*
X0139930Y0206425D01*
X0138322Y0207091D01*
X0137091Y0208322D01*
X0136425Y0209930D01*
X0136425Y0211670D01*
X0137091Y0213278D01*
X0138322Y0214509D01*
X0139930Y0215175D01*
X0141670Y0215175D01*
X0143278Y0214509D01*
X0144509Y0213278D01*
X0145175Y0211670D01*
X0145175Y0209930D01*
X0144509Y0208322D01*
X0143278Y0207091D01*
X0141670Y0206425D01*
X0139930Y0206425D01*
X0138322Y0207091D01*
X0137091Y0208322D01*
X0136425Y0209930D01*
X0136425Y0211670D01*
X0137091Y0213278D01*
X0138322Y0214509D01*
X0139930Y0215175D01*
X0141670Y0215175D01*
X0143278Y0214509D01*
X0144509Y0213278D01*
X0145175Y0211670D01*
X0145175Y0209930D01*
X0145035Y0212008D02*
X0146565Y0212008D01*
X0145035Y0212008D01*
X0144180Y0213606D02*
X0147420Y0213606D01*
X0144180Y0213606D01*
X0137420Y0213606D02*
X0134180Y0213606D01*
X0137420Y0213606D01*
X0136565Y0212008D02*
X0135035Y0212008D01*
X0136565Y0212008D01*
X0135175Y0211670D02*
X0134509Y0213278D01*
X0133278Y0214509D01*
X0131670Y0215175D01*
X0129930Y0215175D01*
X0128322Y0214509D01*
X0127091Y0213278D01*
X0126425Y0211670D01*
X0126425Y0209930D01*
X0127091Y0208322D01*
X0128322Y0207091D01*
X0129930Y0206425D01*
X0131670Y0206425D01*
X0133278Y0207091D01*
X0134509Y0208322D01*
X0135175Y0209930D01*
X0135175Y0211670D01*
X0134509Y0213278D01*
X0133278Y0214509D01*
X0131670Y0215175D01*
X0129930Y0215175D01*
X0128322Y0214509D01*
X0127091Y0213278D01*
X0126425Y0211670D01*
X0126425Y0209930D01*
X0127091Y0208322D01*
X0128322Y0207091D01*
X0129930Y0206425D01*
X0131670Y0206425D01*
X0133278Y0207091D01*
X0134509Y0208322D01*
X0135175Y0209930D01*
X0135175Y0211670D01*
X0135175Y0210409D02*
X0136425Y0210409D01*
X0135175Y0210409D01*
X0134711Y0208811D02*
X0136889Y0208811D01*
X0134711Y0208811D01*
X0133399Y0207212D02*
X0138201Y0207212D01*
X0133399Y0207212D01*
X0131670Y0205175D02*
X0129930Y0205175D01*
X0128322Y0204509D01*
X0127091Y0203278D01*
X0126425Y0201670D01*
X0126425Y0199930D01*
X0127091Y0198322D01*
X0128322Y0197091D01*
X0129930Y0196425D01*
X0131670Y0196425D01*
X0133278Y0197091D01*
X0134509Y0198322D01*
X0135175Y0199930D01*
X0135175Y0201670D01*
X0134509Y0203278D01*
X0133278Y0204509D01*
X0131670Y0205175D01*
X0129930Y0205175D01*
X0128322Y0204509D01*
X0127091Y0203278D01*
X0126425Y0201670D01*
X0126425Y0199930D01*
X0127091Y0198322D01*
X0128322Y0197091D01*
X0129930Y0196425D01*
X0131670Y0196425D01*
X0133278Y0197091D01*
X0134509Y0198322D01*
X0135175Y0199930D01*
X0135175Y0201670D01*
X0134509Y0203278D01*
X0133278Y0204509D01*
X0131670Y0205175D01*
X0133771Y0204015D02*
X0137828Y0204015D01*
X0133771Y0204015D01*
X0134866Y0202417D02*
X0136734Y0202417D01*
X0134866Y0202417D01*
X0135175Y0200818D02*
X0136425Y0200818D01*
X0135175Y0200818D01*
X0136425Y0201670D02*
X0136425Y0199930D01*
X0137091Y0198322D01*
X0138322Y0197091D01*
X0139930Y0196425D01*
X0141670Y0196425D01*
X0143278Y0197091D01*
X0144509Y0198322D01*
X0145175Y0199930D01*
X0145175Y0201670D01*
X0144509Y0203278D01*
X0143278Y0204509D01*
X0141670Y0205175D01*
X0139930Y0205175D01*
X0138322Y0204509D01*
X0137091Y0203278D01*
X0136425Y0201670D01*
X0136425Y0199930D01*
X0137091Y0198322D01*
X0138322Y0197091D01*
X0139930Y0196425D01*
X0141670Y0196425D01*
X0143278Y0197091D01*
X0144509Y0198322D01*
X0145175Y0199930D01*
X0145175Y0201670D01*
X0144509Y0203278D01*
X0143278Y0204509D01*
X0141670Y0205175D01*
X0139930Y0205175D01*
X0138322Y0204509D01*
X0137091Y0203278D01*
X0136425Y0201670D01*
X0136719Y0199220D02*
X0134881Y0199220D01*
X0136719Y0199220D01*
X0137792Y0197621D02*
X0133808Y0197621D01*
X0137792Y0197621D01*
X0143808Y0197621D02*
X0147792Y0197621D01*
X0143808Y0197621D01*
X0144881Y0199220D02*
X0146719Y0199220D01*
X0144881Y0199220D01*
X0145175Y0200818D02*
X0146425Y0200818D01*
X0145175Y0200818D01*
X0144866Y0202417D02*
X0146734Y0202417D01*
X0144866Y0202417D01*
X0143771Y0204015D02*
X0147828Y0204015D01*
X0143771Y0204015D01*
X0128201Y0207212D02*
X0123399Y0207212D01*
X0128201Y0207212D01*
X0126889Y0208811D02*
X0124711Y0208811D01*
X0126889Y0208811D01*
X0126425Y0210409D02*
X0125175Y0210409D01*
X0126425Y0210409D01*
X0125175Y0209930D02*
X0124509Y0208322D01*
X0123278Y0207091D01*
X0121670Y0206425D01*
X0119930Y0206425D01*
X0118322Y0207091D01*
X0117091Y0208322D01*
X0116425Y0209930D01*
X0116425Y0211670D01*
X0117091Y0213278D01*
X0118322Y0214509D01*
X0119930Y0215175D01*
X0121670Y0215175D01*
X0123278Y0214509D01*
X0124509Y0213278D01*
X0125175Y0211670D01*
X0125175Y0209930D01*
X0124509Y0208322D01*
X0123278Y0207091D01*
X0121670Y0206425D01*
X0119930Y0206425D01*
X0118322Y0207091D01*
X0117091Y0208322D01*
X0116425Y0209930D01*
X0116425Y0211670D01*
X0117091Y0213278D01*
X0118322Y0214509D01*
X0119930Y0215175D01*
X0121670Y0215175D01*
X0123278Y0214509D01*
X0124509Y0213278D01*
X0125175Y0211670D01*
X0125175Y0209930D01*
X0125035Y0212008D02*
X0126565Y0212008D01*
X0125035Y0212008D01*
X0124180Y0213606D02*
X0127420Y0213606D01*
X0124180Y0213606D01*
X0117420Y0213606D02*
X0114180Y0213606D01*
X0117420Y0213606D01*
X0116565Y0212008D02*
X0115035Y0212008D01*
X0116565Y0212008D01*
X0115175Y0211670D02*
X0114509Y0213278D01*
X0113278Y0214509D01*
X0111670Y0215175D01*
X0109930Y0215175D01*
X0108322Y0214509D01*
X0107091Y0213278D01*
X0106425Y0211670D01*
X0106425Y0209930D01*
X0107091Y0208322D01*
X0108322Y0207091D01*
X0109930Y0206425D01*
X0111670Y0206425D01*
X0113278Y0207091D01*
X0114509Y0208322D01*
X0115175Y0209930D01*
X0115175Y0211670D01*
X0114509Y0213278D01*
X0113278Y0214509D01*
X0111670Y0215175D01*
X0109930Y0215175D01*
X0108322Y0214509D01*
X0107091Y0213278D01*
X0106425Y0211670D01*
X0106425Y0209930D01*
X0107091Y0208322D01*
X0108322Y0207091D01*
X0109930Y0206425D01*
X0111670Y0206425D01*
X0113278Y0207091D01*
X0114509Y0208322D01*
X0115175Y0209930D01*
X0115175Y0211670D01*
X0115175Y0210409D02*
X0116425Y0210409D01*
X0115175Y0210409D01*
X0114711Y0208811D02*
X0116889Y0208811D01*
X0114711Y0208811D01*
X0113399Y0207212D02*
X0118201Y0207212D01*
X0113399Y0207212D01*
X0111670Y0205175D02*
X0109930Y0205175D01*
X0108322Y0204509D01*
X0107091Y0203278D01*
X0106425Y0201670D01*
X0106425Y0199930D01*
X0107091Y0198322D01*
X0108322Y0197091D01*
X0109930Y0196425D01*
X0111670Y0196425D01*
X0113278Y0197091D01*
X0114509Y0198322D01*
X0115175Y0199930D01*
X0115175Y0201670D01*
X0114509Y0203278D01*
X0113278Y0204509D01*
X0111670Y0205175D01*
X0109930Y0205175D01*
X0108322Y0204509D01*
X0107091Y0203278D01*
X0106425Y0201670D01*
X0106425Y0199930D01*
X0107091Y0198322D01*
X0108322Y0197091D01*
X0109930Y0196425D01*
X0111670Y0196425D01*
X0113278Y0197091D01*
X0114509Y0198322D01*
X0115175Y0199930D01*
X0115175Y0201670D01*
X0114509Y0203278D01*
X0113278Y0204509D01*
X0111670Y0205175D01*
X0113771Y0204015D02*
X0117828Y0204015D01*
X0113771Y0204015D01*
X0114866Y0202417D02*
X0116734Y0202417D01*
X0114866Y0202417D01*
X0115175Y0200818D02*
X0116425Y0200818D01*
X0115175Y0200818D01*
X0116425Y0201670D02*
X0116425Y0199930D01*
X0117091Y0198322D01*
X0118322Y0197091D01*
X0119930Y0196425D01*
X0121670Y0196425D01*
X0123278Y0197091D01*
X0124509Y0198322D01*
X0125175Y0199930D01*
X0125175Y0201670D01*
X0124509Y0203278D01*
X0123278Y0204509D01*
X0121670Y0205175D01*
X0119930Y0205175D01*
X0118322Y0204509D01*
X0117091Y0203278D01*
X0116425Y0201670D01*
X0116425Y0199930D01*
X0117091Y0198322D01*
X0118322Y0197091D01*
X0119930Y0196425D01*
X0121670Y0196425D01*
X0123278Y0197091D01*
X0124509Y0198322D01*
X0125175Y0199930D01*
X0125175Y0201670D01*
X0124509Y0203278D01*
X0123278Y0204509D01*
X0121670Y0205175D01*
X0119930Y0205175D01*
X0118322Y0204509D01*
X0117091Y0203278D01*
X0116425Y0201670D01*
X0116719Y0199220D02*
X0114881Y0199220D01*
X0116719Y0199220D01*
X0117792Y0197621D02*
X0113808Y0197621D01*
X0117792Y0197621D01*
X0123808Y0197621D02*
X0127792Y0197621D01*
X0123808Y0197621D01*
X0124881Y0199220D02*
X0126719Y0199220D01*
X0124881Y0199220D01*
X0125175Y0200818D02*
X0126425Y0200818D01*
X0125175Y0200818D01*
X0124866Y0202417D02*
X0126734Y0202417D01*
X0124866Y0202417D01*
X0123771Y0204015D02*
X0127828Y0204015D01*
X0123771Y0204015D01*
X0108201Y0207212D02*
X0103399Y0207212D01*
X0108201Y0207212D01*
X0106889Y0208811D02*
X0104711Y0208811D01*
X0106889Y0208811D01*
X0106425Y0210409D02*
X0105175Y0210409D01*
X0106425Y0210409D01*
X0105175Y0209930D02*
X0104509Y0208322D01*
X0103278Y0207091D01*
X0101670Y0206425D01*
X0099930Y0206425D01*
X0098322Y0207091D01*
X0097091Y0208322D01*
X0096425Y0209930D01*
X0096425Y0211670D01*
X0097091Y0213278D01*
X0098322Y0214509D01*
X0099930Y0215175D01*
X0101670Y0215175D01*
X0103278Y0214509D01*
X0104509Y0213278D01*
X0105175Y0211670D01*
X0105175Y0209930D01*
X0104509Y0208322D01*
X0103278Y0207091D01*
X0101670Y0206425D01*
X0099930Y0206425D01*
X0098322Y0207091D01*
X0097091Y0208322D01*
X0096425Y0209930D01*
X0096425Y0211670D01*
X0097091Y0213278D01*
X0098322Y0214509D01*
X0099930Y0215175D01*
X0101670Y0215175D01*
X0103278Y0214509D01*
X0104509Y0213278D01*
X0105175Y0211670D01*
X0105175Y0209930D01*
X0105035Y0212008D02*
X0106565Y0212008D01*
X0105035Y0212008D01*
X0104180Y0213606D02*
X0107420Y0213606D01*
X0104180Y0213606D01*
X0101670Y0205175D02*
X0099930Y0205175D01*
X0098322Y0204509D01*
X0097091Y0203278D01*
X0096425Y0201670D01*
X0096425Y0199930D01*
X0097091Y0198322D01*
X0098322Y0197091D01*
X0099930Y0196425D01*
X0101670Y0196425D01*
X0103278Y0197091D01*
X0104509Y0198322D01*
X0105175Y0199930D01*
X0105175Y0201670D01*
X0104509Y0203278D01*
X0103278Y0204509D01*
X0101670Y0205175D01*
X0099930Y0205175D01*
X0098322Y0204509D01*
X0097091Y0203278D01*
X0096425Y0201670D01*
X0096425Y0199930D01*
X0097091Y0198322D01*
X0098322Y0197091D01*
X0099930Y0196425D01*
X0101670Y0196425D01*
X0103278Y0197091D01*
X0104509Y0198322D01*
X0105175Y0199930D01*
X0105175Y0201670D01*
X0104509Y0203278D01*
X0103278Y0204509D01*
X0101670Y0205175D01*
X0103771Y0204015D02*
X0107828Y0204015D01*
X0103771Y0204015D01*
X0104866Y0202417D02*
X0106734Y0202417D01*
X0104866Y0202417D01*
X0105175Y0200818D02*
X0106425Y0200818D01*
X0105175Y0200818D01*
X0104881Y0199220D02*
X0106719Y0199220D01*
X0104881Y0199220D01*
X0103808Y0197621D02*
X0107792Y0197621D01*
X0103808Y0197621D01*
X0065000Y0159257D02*
X0033600Y0159257D01*
X0033600Y0157659D02*
X0065000Y0157659D01*
X0032857Y0157659D01*
X0031259Y0159257D02*
X0065000Y0159257D01*
X0064144Y0156060D02*
X0034456Y0156060D01*
X0064144Y0156060D01*
X0062546Y0154462D02*
X0036054Y0154462D01*
X0062546Y0154462D01*
X0062500Y0152863D02*
X0036100Y0152863D01*
X0062500Y0152863D01*
X0072672Y0140075D02*
X0006600Y0140075D01*
X0027672Y0140075D01*
X0027600Y0141673D02*
X0026000Y0141673D01*
X0026000Y0143272D02*
X0027600Y0143272D01*
X0027600Y0144870D02*
X0026000Y0144870D01*
X0026000Y0146469D02*
X0027600Y0146469D01*
X0027600Y0148068D02*
X0026000Y0148068D01*
X0026000Y0149666D02*
X0027600Y0149666D01*
X0027600Y0154462D02*
X0026000Y0154462D01*
X0026000Y0156060D02*
X0027600Y0156060D01*
X0027600Y0157659D02*
X0026000Y0157659D01*
X0026000Y0159257D02*
X0027600Y0159257D01*
X0017500Y0149666D02*
X0006600Y0149666D01*
X0017500Y0149666D01*
X0017500Y0148068D02*
X0006600Y0148068D01*
X0017500Y0148068D01*
X0017743Y0146469D02*
X0006600Y0146469D01*
X0017743Y0146469D01*
X0019341Y0144870D02*
X0006600Y0144870D01*
X0019341Y0144870D01*
X0020940Y0143272D02*
X0006600Y0143272D01*
X0020940Y0143272D01*
X0022538Y0141673D02*
X0006600Y0141673D01*
X0022538Y0141673D01*
X0022649Y0112620D02*
X0021594Y0111565D01*
X0021594Y0100035D01*
X0022649Y0098980D01*
X0034179Y0098980D01*
X0035234Y0100035D01*
X0035234Y0111565D01*
X0034179Y0112620D01*
X0022649Y0112620D01*
X0021594Y0111565D01*
X0021594Y0100035D01*
X0022649Y0098980D01*
X0034179Y0098980D01*
X0035234Y0100035D01*
X0035234Y0111565D01*
X0034179Y0112620D01*
X0022649Y0112620D01*
X0021594Y0111302D02*
X0019643Y0111302D01*
X0021594Y0111302D01*
X0021594Y0109703D02*
X0019643Y0109703D01*
X0021594Y0109703D01*
X0021594Y0108105D02*
X0019643Y0108105D01*
X0021594Y0108105D01*
X0021594Y0106506D02*
X0019643Y0106506D01*
X0021594Y0106506D01*
X0021594Y0104908D02*
X0019643Y0104908D01*
X0021594Y0104908D01*
X0021594Y0103309D02*
X0019643Y0103309D01*
X0021594Y0103309D01*
X0021594Y0101711D02*
X0019643Y0101711D01*
X0021594Y0101711D01*
X0021594Y0100112D02*
X0019643Y0100112D01*
X0021594Y0100112D01*
X0035234Y0100112D02*
X0037185Y0100112D01*
X0037301Y0100112D02*
X0035234Y0100112D01*
X0035234Y0101711D02*
X0037185Y0101711D01*
X0035234Y0101711D01*
X0035234Y0103309D02*
X0037185Y0103309D01*
X0035234Y0103309D01*
X0035234Y0104908D02*
X0037185Y0104908D01*
X0035234Y0104908D01*
X0037185Y0105000D02*
X0037185Y0100543D01*
X0037308Y0100086D01*
X0037545Y0099675D01*
X0037880Y0099340D01*
X0038290Y0099103D01*
X0038748Y0098980D01*
X0043205Y0098980D01*
X0043205Y0105000D01*
X0037185Y0105000D01*
X0043205Y0104908D02*
X0044805Y0104908D01*
X0044805Y0105000D02*
X0044805Y0098980D01*
X0049261Y0098980D01*
X0049719Y0099103D01*
X0050130Y0099340D01*
X0050465Y0099675D01*
X0050702Y0100086D01*
X0050824Y0100543D01*
X0050824Y0105000D01*
X0044805Y0105000D01*
X0044805Y0106506D02*
X0052776Y0106506D01*
X0050824Y0106506D01*
X0050824Y0104908D02*
X0052776Y0104908D01*
X0050824Y0104908D01*
X0050824Y0103309D02*
X0052776Y0103309D01*
X0050824Y0103309D01*
X0050824Y0101711D02*
X0052776Y0101711D01*
X0050824Y0101711D01*
X0050824Y0100112D02*
X0052776Y0100112D01*
X0050709Y0100112D01*
X0050805Y0098514D02*
X0055295Y0098514D01*
X0006600Y0098514D01*
X0037205Y0098514D01*
X0037205Y0096915D02*
X0006600Y0096915D01*
X0055295Y0096915D01*
X0050805Y0096915D01*
X0050805Y0095317D02*
X0055295Y0095317D01*
X0006600Y0095317D01*
X0037205Y0095317D01*
X0037205Y0093718D02*
X0006600Y0093718D01*
X0055295Y0093718D01*
X0050805Y0093718D01*
X0050805Y0092120D02*
X0055295Y0092120D01*
X0006600Y0092120D01*
X0037205Y0092120D01*
X0037205Y0090521D02*
X0006600Y0090521D01*
X0055295Y0090521D01*
X0050805Y0090521D01*
X0050805Y0088923D02*
X0055295Y0088923D01*
X0006600Y0088923D01*
X0037205Y0088923D01*
X0037205Y0087324D02*
X0006600Y0087324D01*
X0055295Y0087324D01*
X0050805Y0087324D01*
X0050805Y0085726D02*
X0055295Y0085726D01*
X0006600Y0085726D01*
X0037205Y0085726D01*
X0037205Y0084127D02*
X0006600Y0084127D01*
X0055295Y0084127D01*
X0050805Y0084127D01*
X0050805Y0082529D02*
X0055295Y0082529D01*
X0006600Y0082529D01*
X0037205Y0082529D01*
X0037205Y0080930D02*
X0006600Y0080930D01*
X0055295Y0080930D01*
X0050805Y0080930D01*
X0050805Y0079332D02*
X0055295Y0079332D01*
X0006600Y0079332D01*
X0037205Y0079332D01*
X0037205Y0077733D02*
X0006600Y0077733D01*
X0055295Y0077733D01*
X0050805Y0077733D01*
X0050805Y0076134D02*
X0055295Y0076134D01*
X0006600Y0076134D01*
X0037205Y0076134D01*
X0037205Y0074536D02*
X0006600Y0074536D01*
X0055295Y0074536D01*
X0050805Y0074536D01*
X0050805Y0072937D02*
X0055295Y0072937D01*
X0006600Y0072937D01*
X0037205Y0072937D01*
X0037880Y0072260D02*
X0037545Y0071925D01*
X0037308Y0071514D01*
X0037185Y0071057D01*
X0037185Y0066600D01*
X0043205Y0066600D01*
X0043205Y0072620D01*
X0038748Y0072620D01*
X0038290Y0072497D01*
X0037880Y0072260D01*
X0037261Y0071339D02*
X0035234Y0071339D01*
X0037185Y0071339D01*
X0037185Y0069740D02*
X0035234Y0069740D01*
X0037185Y0069740D01*
X0037185Y0068142D02*
X0035234Y0068142D01*
X0037185Y0068142D01*
X0037185Y0066543D02*
X0035234Y0066543D01*
X0043205Y0066543D01*
X0043205Y0066600D02*
X0043205Y0065000D01*
X0044805Y0065000D01*
X0044805Y0066600D01*
X0050824Y0066600D01*
X0050824Y0071057D01*
X0050702Y0071514D01*
X0050465Y0071925D01*
X0050130Y0072260D01*
X0049719Y0072497D01*
X0049261Y0072620D01*
X0044805Y0072620D01*
X0044805Y0066600D01*
X0043205Y0066600D01*
X0043205Y0068142D02*
X0044805Y0068142D01*
X0044805Y0069740D02*
X0043205Y0069740D01*
X0043205Y0071339D02*
X0044805Y0071339D01*
X0044805Y0066543D02*
X0052776Y0066543D01*
X0050824Y0066543D01*
X0050824Y0065000D02*
X0050824Y0060543D01*
X0050702Y0060086D01*
X0050465Y0059675D01*
X0050130Y0059340D01*
X0049719Y0059103D01*
X0049261Y0058980D01*
X0044805Y0058980D01*
X0044805Y0065000D01*
X0050824Y0065000D01*
X0050824Y0064945D02*
X0052776Y0064945D01*
X0050824Y0064945D01*
X0050824Y0063346D02*
X0052776Y0063346D01*
X0050824Y0063346D01*
X0050824Y0061748D02*
X0052776Y0061748D01*
X0050824Y0061748D01*
X0050824Y0060149D02*
X0052776Y0060149D01*
X0050719Y0060149D01*
X0044805Y0060149D02*
X0043205Y0060149D01*
X0043205Y0058980D02*
X0043205Y0065000D01*
X0037185Y0065000D01*
X0037185Y0060543D01*
X0037308Y0060086D01*
X0037545Y0059675D01*
X0037880Y0059340D01*
X0038290Y0059103D01*
X0038748Y0058980D01*
X0043205Y0058980D01*
X0043205Y0061748D02*
X0044805Y0061748D01*
X0044805Y0063346D02*
X0043205Y0063346D01*
X0043205Y0064945D02*
X0044805Y0064945D01*
X0050824Y0068142D02*
X0052776Y0068142D01*
X0050824Y0068142D01*
X0050824Y0069740D02*
X0052776Y0069740D01*
X0050824Y0069740D01*
X0050824Y0071339D02*
X0052776Y0071339D01*
X0050749Y0071339D01*
X0037185Y0064945D02*
X0035234Y0064945D01*
X0037185Y0064945D01*
X0037185Y0063346D02*
X0035234Y0063346D01*
X0037185Y0063346D01*
X0037185Y0061748D02*
X0035234Y0061748D01*
X0037185Y0061748D01*
X0037185Y0060149D02*
X0035234Y0060149D01*
X0037291Y0060149D01*
X0035234Y0060035D02*
X0035234Y0071565D01*
X0034179Y0072620D01*
X0022649Y0072620D01*
X0021594Y0071565D01*
X0021594Y0060035D01*
X0022649Y0058980D01*
X0034179Y0058980D01*
X0035234Y0060035D01*
X0035234Y0071565D01*
X0034179Y0072620D01*
X0022649Y0072620D01*
X0021594Y0071565D01*
X0021594Y0060035D01*
X0022649Y0058980D01*
X0034179Y0058980D01*
X0035234Y0060035D01*
X0021594Y0060149D02*
X0019643Y0060149D01*
X0021594Y0060149D01*
X0021594Y0061748D02*
X0019643Y0061748D01*
X0021594Y0061748D01*
X0021594Y0063346D02*
X0019643Y0063346D01*
X0021594Y0063346D01*
X0021594Y0064945D02*
X0019643Y0064945D01*
X0021594Y0064945D01*
X0021594Y0066543D02*
X0019643Y0066543D01*
X0021594Y0066543D01*
X0021594Y0068142D02*
X0019643Y0068142D01*
X0021594Y0068142D01*
X0021594Y0069740D02*
X0019643Y0069740D01*
X0021594Y0069740D01*
X0021594Y0071339D02*
X0019643Y0071339D01*
X0021594Y0071339D01*
X0043205Y0100112D02*
X0044805Y0100112D01*
X0044805Y0101711D02*
X0043205Y0101711D01*
X0043205Y0103309D02*
X0044805Y0103309D01*
X0050824Y0108105D02*
X0052776Y0108105D01*
X0050824Y0108105D01*
X0050824Y0109703D02*
X0052776Y0109703D01*
X0050824Y0109703D01*
X0079486Y0098514D02*
X0083517Y0098514D01*
X0079486Y0098514D01*
X0079486Y0096915D02*
X0083976Y0096915D01*
X0079486Y0096915D01*
X0079486Y0095317D02*
X0083976Y0095317D01*
X0079486Y0095317D01*
X0079486Y0093718D02*
X0083976Y0093718D01*
X0079486Y0093718D01*
X0079486Y0092120D02*
X0083976Y0092120D01*
X0079486Y0092120D01*
X0079486Y0090521D02*
X0083976Y0090521D01*
X0079486Y0090521D01*
X0079486Y0088923D02*
X0083976Y0088923D01*
X0079486Y0088923D01*
X0079486Y0087324D02*
X0083976Y0087324D01*
X0079486Y0087324D01*
X0079486Y0085726D02*
X0083976Y0085726D01*
X0079486Y0085726D01*
X0079486Y0084127D02*
X0083976Y0084127D01*
X0079486Y0084127D01*
X0079486Y0082529D02*
X0083976Y0082529D01*
X0079486Y0082529D01*
X0079486Y0080930D02*
X0083976Y0080930D01*
X0079486Y0080930D01*
X0079486Y0079332D02*
X0083976Y0079332D01*
X0079486Y0079332D01*
X0079486Y0077733D02*
X0083976Y0077733D01*
X0079486Y0077733D01*
X0079486Y0076134D02*
X0083976Y0076134D01*
X0079486Y0076134D01*
X0079486Y0074536D02*
X0083976Y0074536D01*
X0079486Y0074536D01*
X0079486Y0072937D02*
X0083368Y0072937D01*
X0079486Y0072937D01*
X0082005Y0071339D02*
X0082976Y0071339D01*
X0082005Y0071339D01*
X0082005Y0069740D02*
X0082976Y0069740D01*
X0082005Y0069740D01*
X0082005Y0068142D02*
X0082976Y0068142D01*
X0082005Y0068142D01*
X0082005Y0066543D02*
X0082976Y0066543D01*
X0082005Y0066543D01*
X0082005Y0064945D02*
X0082976Y0064945D01*
X0082005Y0064945D01*
X0082005Y0063346D02*
X0082976Y0063346D01*
X0082005Y0063346D01*
X0082005Y0061748D02*
X0082976Y0061748D01*
X0082005Y0061748D01*
X0082005Y0060149D02*
X0082976Y0060149D01*
X0082005Y0060149D01*
X0083480Y0058551D02*
X0079486Y0058551D01*
X0083480Y0058551D01*
X0068156Y0039369D02*
X0064312Y0039369D01*
X0068156Y0039369D01*
X0066700Y0037770D02*
X0065911Y0037770D01*
X0066700Y0037770D01*
X0068974Y0020187D02*
X0044626Y0020187D01*
X0068974Y0020187D01*
X0082005Y0100112D02*
X0082976Y0100112D01*
X0082005Y0100112D01*
X0082005Y0101711D02*
X0082976Y0101711D01*
X0082005Y0101711D01*
X0082005Y0103309D02*
X0082976Y0103309D01*
X0082005Y0103309D01*
X0082005Y0104908D02*
X0082976Y0104908D01*
X0082005Y0104908D01*
X0082005Y0106506D02*
X0082976Y0106506D01*
X0082005Y0106506D01*
X0082005Y0108105D02*
X0082976Y0108105D01*
X0082005Y0108105D01*
X0082005Y0109703D02*
X0082976Y0109703D01*
X0082005Y0109703D01*
X0119572Y0122491D02*
X0154028Y0122491D01*
X0119572Y0122491D01*
X0120746Y0124090D02*
X0152429Y0124090D01*
X0120746Y0124090D01*
X0121100Y0125688D02*
X0150831Y0125688D01*
X0121100Y0125688D01*
X0120838Y0127287D02*
X0149232Y0127287D01*
X0120838Y0127287D01*
X0119796Y0128885D02*
X0147634Y0128885D01*
X0119796Y0128885D01*
X0147716Y0140075D02*
X0207425Y0140075D01*
X0147716Y0140075D01*
X0150205Y0138476D02*
X0207425Y0138476D01*
X0150205Y0138476D01*
X0151803Y0136878D02*
X0208118Y0136878D01*
X0151803Y0136878D01*
X0153402Y0135279D02*
X0209716Y0135279D01*
X0153402Y0135279D01*
X0169352Y0151900D02*
X0170076Y0151600D01*
X0180230Y0141446D01*
X0181811Y0140791D01*
X0207425Y0140791D01*
X0207425Y0139383D01*
X0211800Y0139383D01*
X0216175Y0139383D01*
X0216175Y0141195D01*
X0215133Y0142237D01*
X0216175Y0143279D01*
X0216175Y0146903D01*
X0215133Y0147946D01*
X0216175Y0148988D01*
X0216175Y0150800D01*
X0211800Y0150800D01*
X0211800Y0150800D01*
X0211800Y0150800D01*
X0207425Y0150800D01*
X0207425Y0149391D01*
X0184447Y0149391D01*
X0176157Y0157681D01*
X0175857Y0158406D01*
X0174563Y0159700D01*
X0172872Y0160400D01*
X0171042Y0160400D01*
X0169352Y0159700D01*
X0168058Y0158406D01*
X0167357Y0156715D01*
X0167357Y0154885D01*
X0168058Y0153194D01*
X0169352Y0151900D01*
X0176180Y0157659D02*
X0187433Y0157659D01*
X0176180Y0157659D01*
X0175006Y0159257D02*
X0188594Y0159257D01*
X0175006Y0159257D01*
X0177779Y0156060D02*
X0187043Y0156060D01*
X0177779Y0156060D01*
X0179377Y0154462D02*
X0187218Y0154462D01*
X0179377Y0154462D01*
X0180976Y0152863D02*
X0188074Y0152863D01*
X0180976Y0152863D01*
X0182574Y0151265D02*
X0190572Y0151265D01*
X0182574Y0151265D01*
X0184173Y0149666D02*
X0207425Y0149666D01*
X0184173Y0149666D01*
X0187743Y0153194D02*
X0189037Y0151900D01*
X0190728Y0151200D01*
X0192558Y0151200D01*
X0194248Y0151900D01*
X0195542Y0153194D01*
X0196243Y0154885D01*
X0196243Y0156715D01*
X0195542Y0158406D01*
X0194248Y0159700D01*
X0192558Y0160400D01*
X0190728Y0160400D01*
X0189037Y0159700D01*
X0187743Y0158406D01*
X0187043Y0156715D01*
X0187043Y0154885D01*
X0187743Y0153194D01*
X0189037Y0151900D01*
X0190728Y0151200D01*
X0192558Y0151200D01*
X0194248Y0151900D01*
X0195542Y0153194D01*
X0196243Y0154885D01*
X0196243Y0156715D01*
X0195542Y0158406D01*
X0194248Y0159700D01*
X0192558Y0160400D01*
X0190728Y0160400D01*
X0189037Y0159700D01*
X0187743Y0158406D01*
X0187043Y0156715D01*
X0187043Y0154885D01*
X0187743Y0153194D01*
X0192713Y0151265D02*
X0207425Y0151265D01*
X0192713Y0151265D01*
X0195211Y0152863D02*
X0207676Y0152863D01*
X0195211Y0152863D01*
X0196067Y0154462D02*
X0207660Y0154462D01*
X0196067Y0154462D01*
X0196243Y0156060D02*
X0207425Y0156060D01*
X0196243Y0156060D01*
X0195852Y0157659D02*
X0207425Y0157659D01*
X0195852Y0157659D01*
X0194691Y0159257D02*
X0208362Y0159257D01*
X0194691Y0159257D01*
X0207425Y0139383D02*
X0207425Y0137571D01*
X0209988Y0135008D01*
X0211800Y0135008D01*
X0213612Y0135008D01*
X0216175Y0137571D01*
X0216175Y0139383D01*
X0211800Y0139383D01*
X0211800Y0139383D01*
X0211800Y0139383D01*
X0207425Y0139383D01*
X0211800Y0139383D02*
X0211800Y0135008D01*
X0211800Y0139383D01*
X0211800Y0139383D01*
X0211800Y0138476D02*
X0211800Y0138476D01*
X0211800Y0136878D02*
X0211800Y0136878D01*
X0211800Y0135279D02*
X0211800Y0135279D01*
X0207923Y0104908D02*
X0193746Y0104908D01*
X0207923Y0104908D01*
X0207425Y0103309D02*
X0195582Y0103309D01*
X0207425Y0103309D01*
X0207425Y0101711D02*
X0196243Y0101711D01*
X0207425Y0101711D01*
X0207425Y0100112D02*
X0196243Y0100112D01*
X0207425Y0100112D01*
X0208327Y0098514D02*
X0195674Y0098514D01*
X0208327Y0098514D01*
X0207425Y0096915D02*
X0194263Y0096915D01*
X0207425Y0096915D01*
X0207425Y0095800D02*
X0207425Y0094391D01*
X0184447Y0094391D01*
X0176157Y0102681D01*
X0175857Y0103406D01*
X0174563Y0104700D01*
X0172872Y0105400D01*
X0171042Y0105400D01*
X0169352Y0104700D01*
X0168058Y0103406D01*
X0167357Y0101715D01*
X0167357Y0099885D01*
X0168058Y0098194D01*
X0169352Y0096900D01*
X0170076Y0096600D01*
X0179021Y0087656D01*
X0180230Y0086446D01*
X0181811Y0085791D01*
X0207425Y0085791D01*
X0207425Y0084383D01*
X0211800Y0084383D01*
X0216175Y0084383D01*
X0216175Y0086195D01*
X0215133Y0087237D01*
X0216175Y0088279D01*
X0216175Y0091903D01*
X0215133Y0092946D01*
X0216175Y0093988D01*
X0216175Y0095800D01*
X0211800Y0095800D01*
X0211800Y0095800D01*
X0211800Y0095800D01*
X0207425Y0095800D01*
X0207425Y0095317D02*
X0183522Y0095317D01*
X0207425Y0095317D01*
X0196243Y0099885D02*
X0195542Y0098194D01*
X0194248Y0096900D01*
X0192558Y0096200D01*
X0190728Y0096200D01*
X0189037Y0096900D01*
X0187743Y0098194D01*
X0187043Y0099885D01*
X0187043Y0101715D01*
X0187743Y0103406D01*
X0189037Y0104700D01*
X0190728Y0105400D01*
X0192558Y0105400D01*
X0194248Y0104700D01*
X0195542Y0103406D01*
X0196243Y0101715D01*
X0196243Y0099885D01*
X0195542Y0098194D01*
X0194248Y0096900D01*
X0192558Y0096200D01*
X0190728Y0096200D01*
X0189037Y0096900D01*
X0187743Y0098194D01*
X0187043Y0099885D01*
X0187043Y0101715D01*
X0187743Y0103406D01*
X0189037Y0104700D01*
X0190728Y0105400D01*
X0192558Y0105400D01*
X0194248Y0104700D01*
X0195542Y0103406D01*
X0196243Y0101715D01*
X0196243Y0099885D01*
X0189022Y0096915D02*
X0181923Y0096915D01*
X0189022Y0096915D01*
X0187611Y0098514D02*
X0180325Y0098514D01*
X0187611Y0098514D01*
X0187043Y0100112D02*
X0178726Y0100112D01*
X0187043Y0100112D01*
X0187043Y0101711D02*
X0177128Y0101711D01*
X0187043Y0101711D01*
X0187703Y0103309D02*
X0175897Y0103309D01*
X0187703Y0103309D01*
X0189539Y0104908D02*
X0174061Y0104908D01*
X0189539Y0104908D01*
X0207425Y0084383D02*
X0207425Y0082571D01*
X0209988Y0080008D01*
X0211800Y0080008D01*
X0213612Y0080008D01*
X0216175Y0082571D01*
X0216175Y0084383D01*
X0211800Y0084383D01*
X0211800Y0084383D01*
X0211800Y0084383D01*
X0207425Y0084383D01*
X0211800Y0084383D02*
X0211800Y0080008D01*
X0211800Y0084383D01*
X0211800Y0084383D01*
X0211800Y0084127D02*
X0211800Y0084127D01*
X0211800Y0082529D02*
X0211800Y0082529D01*
X0211800Y0080930D02*
X0211800Y0080930D01*
D19*
X0116800Y0115800D03*
X0116800Y0125800D03*
X0106800Y0150800D03*
D20*
X0101800Y0135800D02*
X0146800Y0135800D01*
X0171800Y0110800D01*
X0208217Y0110800D01*
X0211800Y0107217D01*
X0211800Y0090091D02*
X0182666Y0090091D01*
X0171957Y0100800D01*
X0182666Y0145091D02*
X0171957Y0155800D01*
X0182666Y0145091D02*
X0211800Y0145091D01*
X0211800Y0162217D02*
X0198217Y0175800D01*
X0097036Y0175800D01*
X0071800Y0150564D01*
X0087036Y0150564D01*
X0101800Y0135800D01*
X0111800Y0125800D02*
X0116800Y0125800D01*
X0111800Y0125800D02*
X0106800Y0120800D01*
X0106800Y0055800D01*
X0096800Y0045800D01*
X0081800Y0045800D01*
X0075186Y0052414D01*
X0075186Y0065800D01*
X0075186Y0105800D01*
X0059595Y0105800D02*
X0059595Y0065800D01*
X0059595Y0038005D01*
X0071800Y0025800D01*
X0096800Y0025800D01*
X0116800Y0045800D01*
X0116800Y0115800D01*
X0059595Y0065800D02*
X0059595Y0053595D01*
X0056800Y0050800D01*
X0021800Y0050800D01*
X0011800Y0040800D01*
X0011800Y0025800D01*
X0021800Y0015800D01*
X0041800Y0015800D01*
X0071800Y0015800D01*
X0091800Y0015800D01*
X0101800Y0015800D01*
X0106800Y0010800D01*
X0136800Y0010800D01*
X0146800Y0020800D01*
M02*
