G75*
%MOIN*%
%OFA0B0*%
%FSLAX25Y25*%
%IPPOS*%
%LPD*%
%AMOC8*
5,1,8,0,0,1.08239X$1,22.5*
%
%ADD10C,0.00000*%
%ADD11C,0.70000*%
%ADD12R,0.10000X0.20000*%
%ADD13C,0.06000*%
%ADD14C,0.03762*%
%ADD15C,0.00600*%
%ADD16C,0.00886*%
%ADD17C,0.01000*%
D10*
X0001500Y0001500D02*
X0119610Y0001500D01*
X0119610Y0080240D01*
X0001500Y0080240D01*
X0001500Y0001500D01*
D11*
X0061500Y0041500D03*
D12*
X0016500Y0041500D03*
X0106500Y0041500D03*
D13*
X0029335Y0014028D02*
X0029335Y0008028D01*
X0019335Y0008028D02*
X0019335Y0014028D01*
X0009335Y0014028D02*
X0009335Y0008028D01*
X0009098Y0069642D02*
X0009098Y0075642D01*
X0019098Y0075642D02*
X0019098Y0069642D01*
X0029098Y0069642D02*
X0029098Y0075642D01*
D14*
X0023469Y0056933D03*
X0006067Y0028232D03*
X0019531Y0022169D03*
X0025122Y0026264D03*
X0092248Y0006028D03*
X0097366Y0022169D03*
X0097563Y0061343D03*
D15*
X0023469Y0056933D02*
X0023469Y0048469D01*
X0016500Y0041500D01*
X0016500Y0038665D01*
X0006067Y0028232D01*
D16*
X0019531Y0022169D02*
X0019531Y0011224D01*
X0019335Y0011028D01*
X0097563Y0061343D02*
X0100988Y0061343D01*
X0106303Y0056028D01*
X0106303Y0041697D01*
X0106500Y0041500D01*
D17*
X0100000Y0041440D02*
X0062000Y0041440D01*
X0062000Y0041000D02*
X0062000Y0042000D01*
X0061000Y0042000D01*
X0061000Y0078000D01*
X0060305Y0078000D01*
X0057920Y0077844D01*
X0055551Y0077532D01*
X0053207Y0077066D01*
X0050899Y0076447D01*
X0048636Y0075679D01*
X0046428Y0074764D01*
X0044285Y0073707D01*
X0042215Y0072512D01*
X0040228Y0071185D01*
X0038332Y0069730D01*
X0036536Y0068154D01*
X0034846Y0066464D01*
X0033270Y0064668D01*
X0031815Y0062772D01*
X0030488Y0060785D01*
X0029293Y0058715D01*
X0028236Y0056572D01*
X0027321Y0054364D01*
X0026553Y0052101D01*
X0025934Y0049793D01*
X0025468Y0047449D01*
X0025156Y0045080D01*
X0025000Y0042695D01*
X0025000Y0042000D01*
X0061000Y0042000D01*
X0061000Y0041000D01*
X0025000Y0041000D01*
X0025000Y0040305D01*
X0025156Y0037920D01*
X0025468Y0035551D01*
X0025934Y0033207D01*
X0026553Y0030899D01*
X0027321Y0028636D01*
X0028236Y0026428D01*
X0029293Y0024285D01*
X0030488Y0022215D01*
X0031815Y0020228D01*
X0033270Y0018332D01*
X0034846Y0016536D01*
X0036536Y0014846D01*
X0038332Y0013270D01*
X0040228Y0011815D01*
X0042215Y0010488D01*
X0044285Y0009293D01*
X0046428Y0008236D01*
X0048636Y0007321D01*
X0050899Y0006553D01*
X0053207Y0005934D01*
X0055551Y0005468D01*
X0057920Y0005156D01*
X0060305Y0005000D01*
X0061000Y0005000D01*
X0061000Y0041000D01*
X0062000Y0041000D01*
X0098000Y0041000D01*
X0098000Y0040305D01*
X0097844Y0037920D01*
X0097532Y0035551D01*
X0097066Y0033207D01*
X0096447Y0030899D01*
X0095679Y0028636D01*
X0094764Y0026428D01*
X0093707Y0024285D01*
X0092512Y0022215D01*
X0091185Y0020228D01*
X0089730Y0018332D01*
X0088154Y0016536D01*
X0086464Y0014846D01*
X0084668Y0013270D01*
X0082772Y0011815D01*
X0080785Y0010488D01*
X0078715Y0009293D01*
X0076572Y0008236D01*
X0074364Y0007321D01*
X0072101Y0006553D01*
X0069793Y0005934D01*
X0067449Y0005468D01*
X0065080Y0005156D01*
X0062695Y0005000D01*
X0062000Y0005000D01*
X0062000Y0041000D01*
X0062000Y0040442D02*
X0061000Y0040442D01*
X0061000Y0041440D02*
X0023000Y0041440D01*
X0023000Y0040442D02*
X0025000Y0040442D01*
X0025056Y0039443D02*
X0023000Y0039443D01*
X0023000Y0038445D02*
X0025122Y0038445D01*
X0025219Y0037446D02*
X0023000Y0037446D01*
X0023000Y0036448D02*
X0025350Y0036448D01*
X0025488Y0035449D02*
X0023000Y0035449D01*
X0023000Y0034451D02*
X0025687Y0034451D01*
X0025886Y0033452D02*
X0023000Y0033452D01*
X0023000Y0032454D02*
X0026136Y0032454D01*
X0026404Y0031455D02*
X0023000Y0031455D01*
X0023000Y0030879D02*
X0023000Y0045454D01*
X0025268Y0047723D01*
X0025268Y0054019D01*
X0025384Y0054067D01*
X0026335Y0055018D01*
X0026850Y0056261D01*
X0026850Y0057606D01*
X0026335Y0058848D01*
X0025384Y0059799D01*
X0024141Y0060314D01*
X0022796Y0060314D01*
X0021553Y0059799D01*
X0020602Y0058848D01*
X0020087Y0057606D01*
X0020087Y0056261D01*
X0020602Y0055018D01*
X0021553Y0054067D01*
X0021669Y0054019D01*
X0021669Y0053000D01*
X0010879Y0053000D01*
X0010000Y0052121D01*
X0010000Y0034711D01*
X0006855Y0031566D01*
X0006739Y0031613D01*
X0005394Y0031613D01*
X0004152Y0031099D01*
X0003500Y0030447D01*
X0003500Y0078240D01*
X0005333Y0078240D01*
X0005284Y0078191D01*
X0004598Y0076537D01*
X0004598Y0068747D01*
X0005284Y0067093D01*
X0006549Y0065827D01*
X0008203Y0065142D01*
X0009994Y0065142D01*
X0011647Y0065827D01*
X0012913Y0067093D01*
X0013598Y0068747D01*
X0013598Y0076537D01*
X0012913Y0078191D01*
X0012864Y0078240D01*
X0015333Y0078240D01*
X0015284Y0078191D01*
X0014598Y0076537D01*
X0014598Y0068747D01*
X0015284Y0067093D01*
X0016549Y0065827D01*
X0018203Y0065142D01*
X0019994Y0065142D01*
X0021647Y0065827D01*
X0022913Y0067093D01*
X0023598Y0068747D01*
X0023598Y0076537D01*
X0022913Y0078191D01*
X0022864Y0078240D01*
X0025333Y0078240D01*
X0025284Y0078191D01*
X0024598Y0076537D01*
X0024598Y0068747D01*
X0025284Y0067093D01*
X0026549Y0065827D01*
X0028203Y0065142D01*
X0029994Y0065142D01*
X0031647Y0065827D01*
X0032913Y0067093D01*
X0033598Y0068747D01*
X0033598Y0076537D01*
X0032913Y0078191D01*
X0032864Y0078240D01*
X0117610Y0078240D01*
X0117610Y0003500D01*
X0003500Y0003500D01*
X0003500Y0026018D01*
X0004152Y0025366D01*
X0005394Y0024851D01*
X0006739Y0024851D01*
X0007982Y0025366D01*
X0008933Y0026317D01*
X0009448Y0027560D01*
X0009448Y0028905D01*
X0009400Y0029020D01*
X0010629Y0030249D01*
X0010879Y0030000D01*
X0022121Y0030000D01*
X0023000Y0030879D01*
X0022578Y0030457D02*
X0026703Y0030457D01*
X0027042Y0029458D02*
X0009839Y0029458D01*
X0009448Y0028460D02*
X0027394Y0028460D01*
X0027808Y0027461D02*
X0009407Y0027461D01*
X0008994Y0026463D02*
X0028221Y0026463D01*
X0028711Y0025464D02*
X0020412Y0025464D01*
X0020204Y0025550D02*
X0018859Y0025550D01*
X0017616Y0025036D01*
X0016665Y0024085D01*
X0016150Y0022842D01*
X0016150Y0021497D01*
X0016665Y0020254D01*
X0017589Y0019331D01*
X0017589Y0018175D01*
X0016786Y0017842D01*
X0015520Y0016577D01*
X0014835Y0014923D01*
X0014835Y0007132D01*
X0015520Y0005479D01*
X0016786Y0004213D01*
X0018440Y0003528D01*
X0020230Y0003528D01*
X0021884Y0004213D01*
X0023150Y0005479D01*
X0023835Y0007132D01*
X0023835Y0014923D01*
X0023150Y0016577D01*
X0021884Y0017842D01*
X0021474Y0018012D01*
X0021474Y0019331D01*
X0022398Y0020254D01*
X0022913Y0021497D01*
X0022913Y0022842D01*
X0022398Y0024085D01*
X0021447Y0025036D01*
X0020204Y0025550D01*
X0018651Y0025464D02*
X0008081Y0025464D01*
X0004053Y0025464D02*
X0003500Y0025464D01*
X0003500Y0024466D02*
X0017046Y0024466D01*
X0016409Y0023467D02*
X0003500Y0023467D01*
X0003500Y0022469D02*
X0016150Y0022469D01*
X0016161Y0021470D02*
X0003500Y0021470D01*
X0003500Y0020472D02*
X0016575Y0020472D01*
X0017446Y0019473D02*
X0003500Y0019473D01*
X0003500Y0018475D02*
X0008312Y0018475D01*
X0008440Y0018528D02*
X0006786Y0017842D01*
X0005520Y0016577D01*
X0004835Y0014923D01*
X0004835Y0007132D01*
X0005520Y0005479D01*
X0006786Y0004213D01*
X0008440Y0003528D01*
X0010230Y0003528D01*
X0011884Y0004213D01*
X0013150Y0005479D01*
X0013835Y0007132D01*
X0013835Y0014923D01*
X0013150Y0016577D01*
X0011884Y0017842D01*
X0010230Y0018528D01*
X0008440Y0018528D01*
X0006419Y0017476D02*
X0003500Y0017476D01*
X0003500Y0016478D02*
X0005479Y0016478D01*
X0005065Y0015479D02*
X0003500Y0015479D01*
X0003500Y0014481D02*
X0004835Y0014481D01*
X0004835Y0013482D02*
X0003500Y0013482D01*
X0003500Y0012484D02*
X0004835Y0012484D01*
X0004835Y0011485D02*
X0003500Y0011485D01*
X0003500Y0010487D02*
X0004835Y0010487D01*
X0004835Y0009488D02*
X0003500Y0009488D01*
X0003500Y0008490D02*
X0004835Y0008490D01*
X0004835Y0007491D02*
X0003500Y0007491D01*
X0003500Y0006493D02*
X0005100Y0006493D01*
X0005513Y0005494D02*
X0003500Y0005494D01*
X0003500Y0004496D02*
X0006503Y0004496D01*
X0012167Y0004496D02*
X0016503Y0004496D01*
X0015513Y0005494D02*
X0013156Y0005494D01*
X0013570Y0006493D02*
X0015100Y0006493D01*
X0014835Y0007491D02*
X0013835Y0007491D01*
X0013835Y0008490D02*
X0014835Y0008490D01*
X0014835Y0009488D02*
X0013835Y0009488D01*
X0013835Y0010487D02*
X0014835Y0010487D01*
X0014835Y0011485D02*
X0013835Y0011485D01*
X0013835Y0012484D02*
X0014835Y0012484D01*
X0014835Y0013482D02*
X0013835Y0013482D01*
X0013835Y0014481D02*
X0014835Y0014481D01*
X0015065Y0015479D02*
X0013604Y0015479D01*
X0013191Y0016478D02*
X0015479Y0016478D01*
X0016419Y0017476D02*
X0012250Y0017476D01*
X0010357Y0018475D02*
X0017589Y0018475D01*
X0021474Y0018475D02*
X0028647Y0018475D01*
X0028835Y0018475D02*
X0029835Y0018475D01*
X0029835Y0018504D02*
X0029835Y0011528D01*
X0028835Y0011528D01*
X0028835Y0018504D01*
X0028281Y0018417D01*
X0027607Y0018198D01*
X0026976Y0017876D01*
X0026403Y0017460D01*
X0025902Y0016959D01*
X0025486Y0016386D01*
X0025164Y0015755D01*
X0024945Y0015081D01*
X0024835Y0014382D01*
X0024835Y0011528D01*
X0028835Y0011528D01*
X0028835Y0010528D01*
X0024835Y0010528D01*
X0024835Y0007673D01*
X0024945Y0006974D01*
X0025164Y0006300D01*
X0025486Y0005669D01*
X0025902Y0005096D01*
X0026403Y0004595D01*
X0026976Y0004179D01*
X0027607Y0003857D01*
X0028281Y0003638D01*
X0028835Y0003551D01*
X0028835Y0010527D01*
X0029835Y0010527D01*
X0029835Y0003551D01*
X0030388Y0003638D01*
X0031062Y0003857D01*
X0031693Y0004179D01*
X0032266Y0004595D01*
X0032767Y0005096D01*
X0033183Y0005669D01*
X0033505Y0006300D01*
X0033724Y0006974D01*
X0033835Y0007673D01*
X0033835Y0010528D01*
X0029835Y0010528D01*
X0029835Y0011528D01*
X0033835Y0011528D01*
X0033835Y0014382D01*
X0033724Y0015081D01*
X0033505Y0015755D01*
X0033183Y0016386D01*
X0032767Y0016959D01*
X0032266Y0017460D01*
X0031693Y0017876D01*
X0031062Y0018198D01*
X0030388Y0018417D01*
X0029835Y0018504D01*
X0030022Y0018475D02*
X0033161Y0018475D01*
X0032395Y0019473D02*
X0021617Y0019473D01*
X0022488Y0020472D02*
X0031652Y0020472D01*
X0030985Y0021470D02*
X0022902Y0021470D01*
X0022913Y0022469D02*
X0030341Y0022469D01*
X0029765Y0023467D02*
X0022654Y0023467D01*
X0022017Y0024466D02*
X0029203Y0024466D01*
X0028835Y0017476D02*
X0029835Y0017476D01*
X0029835Y0016478D02*
X0028835Y0016478D01*
X0028835Y0015479D02*
X0029835Y0015479D01*
X0029835Y0014481D02*
X0028835Y0014481D01*
X0028835Y0013482D02*
X0029835Y0013482D01*
X0029835Y0012484D02*
X0028835Y0012484D01*
X0028835Y0011485D02*
X0023835Y0011485D01*
X0023835Y0012484D02*
X0024835Y0012484D01*
X0024835Y0013482D02*
X0023835Y0013482D01*
X0023835Y0014481D02*
X0024850Y0014481D01*
X0025075Y0015479D02*
X0023604Y0015479D01*
X0023191Y0016478D02*
X0025552Y0016478D01*
X0026425Y0017476D02*
X0022250Y0017476D01*
X0029835Y0011485D02*
X0040722Y0011485D01*
X0039357Y0012484D02*
X0033835Y0012484D01*
X0033835Y0013482D02*
X0038090Y0013482D01*
X0036952Y0014481D02*
X0033819Y0014481D01*
X0033595Y0015479D02*
X0035902Y0015479D01*
X0034904Y0016478D02*
X0033117Y0016478D01*
X0032244Y0017476D02*
X0034021Y0017476D01*
X0033835Y0010487D02*
X0042217Y0010487D01*
X0043946Y0009488D02*
X0033835Y0009488D01*
X0033835Y0008490D02*
X0045913Y0008490D01*
X0048226Y0007491D02*
X0033806Y0007491D01*
X0033567Y0006493D02*
X0051124Y0006493D01*
X0055421Y0005494D02*
X0033056Y0005494D01*
X0032129Y0004496D02*
X0117610Y0004496D01*
X0117610Y0005494D02*
X0067579Y0005494D01*
X0071876Y0006493D02*
X0117610Y0006493D01*
X0117610Y0007491D02*
X0074774Y0007491D01*
X0077087Y0008490D02*
X0117610Y0008490D01*
X0117610Y0009488D02*
X0079054Y0009488D01*
X0080783Y0010487D02*
X0117610Y0010487D01*
X0117610Y0011485D02*
X0082278Y0011485D01*
X0083643Y0012484D02*
X0117610Y0012484D01*
X0117610Y0013482D02*
X0084910Y0013482D01*
X0086048Y0014481D02*
X0117610Y0014481D01*
X0117610Y0015479D02*
X0087098Y0015479D01*
X0088096Y0016478D02*
X0117610Y0016478D01*
X0117610Y0017476D02*
X0088979Y0017476D01*
X0089839Y0018475D02*
X0117610Y0018475D01*
X0117610Y0019473D02*
X0090605Y0019473D01*
X0091348Y0020472D02*
X0117610Y0020472D01*
X0117610Y0021470D02*
X0092015Y0021470D01*
X0092659Y0022469D02*
X0117610Y0022469D01*
X0117610Y0023467D02*
X0093235Y0023467D01*
X0093797Y0024466D02*
X0117610Y0024466D01*
X0117610Y0025464D02*
X0094289Y0025464D01*
X0094779Y0026463D02*
X0117610Y0026463D01*
X0117610Y0027461D02*
X0095192Y0027461D01*
X0095606Y0028460D02*
X0117610Y0028460D01*
X0117610Y0029458D02*
X0095958Y0029458D01*
X0096297Y0030457D02*
X0100422Y0030457D01*
X0100000Y0030879D02*
X0100879Y0030000D01*
X0112121Y0030000D01*
X0113000Y0030879D01*
X0113000Y0052121D01*
X0112121Y0053000D01*
X0108246Y0053000D01*
X0108246Y0056832D01*
X0107108Y0057970D01*
X0101793Y0063285D01*
X0100402Y0063285D01*
X0099478Y0064209D01*
X0098236Y0064724D01*
X0096890Y0064724D01*
X0095648Y0064209D01*
X0094697Y0063258D01*
X0094182Y0062015D01*
X0094182Y0060670D01*
X0094697Y0059427D01*
X0095648Y0058476D01*
X0096890Y0057961D01*
X0098236Y0057961D01*
X0099478Y0058476D01*
X0100293Y0059290D01*
X0104360Y0055223D01*
X0104360Y0053000D01*
X0100879Y0053000D01*
X0100000Y0052121D01*
X0100000Y0030879D01*
X0100000Y0031455D02*
X0096596Y0031455D01*
X0096864Y0032454D02*
X0100000Y0032454D01*
X0100000Y0033452D02*
X0097114Y0033452D01*
X0097313Y0034451D02*
X0100000Y0034451D01*
X0100000Y0035449D02*
X0097512Y0035449D01*
X0097650Y0036448D02*
X0100000Y0036448D01*
X0100000Y0037446D02*
X0097781Y0037446D01*
X0097878Y0038445D02*
X0100000Y0038445D01*
X0100000Y0039443D02*
X0097944Y0039443D01*
X0098000Y0040442D02*
X0100000Y0040442D01*
X0100000Y0042439D02*
X0098000Y0042439D01*
X0098000Y0042695D02*
X0098000Y0042000D01*
X0062000Y0042000D01*
X0062000Y0078000D01*
X0062695Y0078000D01*
X0065080Y0077844D01*
X0067449Y0077532D01*
X0069793Y0077066D01*
X0072101Y0076447D01*
X0074364Y0075679D01*
X0076572Y0074764D01*
X0078715Y0073707D01*
X0080785Y0072512D01*
X0082772Y0071185D01*
X0084668Y0069730D01*
X0086464Y0068154D01*
X0088154Y0066464D01*
X0089730Y0064668D01*
X0091185Y0062772D01*
X0092512Y0060785D01*
X0093707Y0058715D01*
X0094764Y0056572D01*
X0095679Y0054364D01*
X0096447Y0052101D01*
X0097066Y0049793D01*
X0097532Y0047449D01*
X0097844Y0045080D01*
X0098000Y0042695D01*
X0097951Y0043437D02*
X0100000Y0043437D01*
X0100000Y0044436D02*
X0097886Y0044436D01*
X0097797Y0045434D02*
X0100000Y0045434D01*
X0100000Y0046433D02*
X0097666Y0046433D01*
X0097534Y0047432D02*
X0100000Y0047432D01*
X0100000Y0048430D02*
X0097337Y0048430D01*
X0097138Y0049429D02*
X0100000Y0049429D01*
X0100000Y0050427D02*
X0096896Y0050427D01*
X0096628Y0051426D02*
X0100000Y0051426D01*
X0100303Y0052424D02*
X0096337Y0052424D01*
X0095998Y0053423D02*
X0104360Y0053423D01*
X0104360Y0054421D02*
X0095655Y0054421D01*
X0095242Y0055420D02*
X0104163Y0055420D01*
X0103165Y0056418D02*
X0094828Y0056418D01*
X0094348Y0057417D02*
X0102166Y0057417D01*
X0101168Y0058415D02*
X0099331Y0058415D01*
X0095795Y0058415D02*
X0093855Y0058415D01*
X0093304Y0059414D02*
X0094710Y0059414D01*
X0094289Y0060412D02*
X0092728Y0060412D01*
X0092094Y0061411D02*
X0094182Y0061411D01*
X0094345Y0062409D02*
X0091427Y0062409D01*
X0090697Y0063408D02*
X0094847Y0063408D01*
X0096124Y0064406D02*
X0089931Y0064406D01*
X0089084Y0065405D02*
X0117610Y0065405D01*
X0117610Y0066403D02*
X0088208Y0066403D01*
X0087217Y0067402D02*
X0117610Y0067402D01*
X0117610Y0068400D02*
X0086184Y0068400D01*
X0085045Y0069399D02*
X0117610Y0069399D01*
X0117610Y0070397D02*
X0083798Y0070397D01*
X0082456Y0071396D02*
X0117610Y0071396D01*
X0117610Y0072394D02*
X0080962Y0072394D01*
X0079260Y0073393D02*
X0117610Y0073393D01*
X0117610Y0074391D02*
X0077328Y0074391D01*
X0075062Y0075390D02*
X0117610Y0075390D01*
X0117610Y0076388D02*
X0072274Y0076388D01*
X0068177Y0077387D02*
X0117610Y0077387D01*
X0117610Y0064406D02*
X0099002Y0064406D01*
X0100279Y0063408D02*
X0117610Y0063408D01*
X0117610Y0062409D02*
X0102669Y0062409D01*
X0103668Y0061411D02*
X0117610Y0061411D01*
X0117610Y0060412D02*
X0104666Y0060412D01*
X0105665Y0059414D02*
X0117610Y0059414D01*
X0117610Y0058415D02*
X0106663Y0058415D01*
X0107662Y0057417D02*
X0117610Y0057417D01*
X0117610Y0056418D02*
X0108246Y0056418D01*
X0108246Y0055420D02*
X0117610Y0055420D01*
X0117610Y0054421D02*
X0108246Y0054421D01*
X0108246Y0053423D02*
X0117610Y0053423D01*
X0117610Y0052424D02*
X0112697Y0052424D01*
X0113000Y0051426D02*
X0117610Y0051426D01*
X0117610Y0050427D02*
X0113000Y0050427D01*
X0113000Y0049429D02*
X0117610Y0049429D01*
X0117610Y0048430D02*
X0113000Y0048430D01*
X0113000Y0047432D02*
X0117610Y0047432D01*
X0117610Y0046433D02*
X0113000Y0046433D01*
X0113000Y0045434D02*
X0117610Y0045434D01*
X0117610Y0044436D02*
X0113000Y0044436D01*
X0113000Y0043437D02*
X0117610Y0043437D01*
X0117610Y0042439D02*
X0113000Y0042439D01*
X0113000Y0041440D02*
X0117610Y0041440D01*
X0117610Y0040442D02*
X0113000Y0040442D01*
X0113000Y0039443D02*
X0117610Y0039443D01*
X0117610Y0038445D02*
X0113000Y0038445D01*
X0113000Y0037446D02*
X0117610Y0037446D01*
X0117610Y0036448D02*
X0113000Y0036448D01*
X0113000Y0035449D02*
X0117610Y0035449D01*
X0117610Y0034451D02*
X0113000Y0034451D01*
X0113000Y0033452D02*
X0117610Y0033452D01*
X0117610Y0032454D02*
X0113000Y0032454D01*
X0113000Y0031455D02*
X0117610Y0031455D01*
X0117610Y0030457D02*
X0112578Y0030457D01*
X0062000Y0030457D02*
X0061000Y0030457D01*
X0061000Y0031455D02*
X0062000Y0031455D01*
X0062000Y0032454D02*
X0061000Y0032454D01*
X0061000Y0033452D02*
X0062000Y0033452D01*
X0062000Y0034451D02*
X0061000Y0034451D01*
X0061000Y0035449D02*
X0062000Y0035449D01*
X0062000Y0036448D02*
X0061000Y0036448D01*
X0061000Y0037446D02*
X0062000Y0037446D01*
X0062000Y0038445D02*
X0061000Y0038445D01*
X0061000Y0039443D02*
X0062000Y0039443D01*
X0062000Y0042439D02*
X0061000Y0042439D01*
X0061000Y0043437D02*
X0062000Y0043437D01*
X0062000Y0044436D02*
X0061000Y0044436D01*
X0061000Y0045434D02*
X0062000Y0045434D01*
X0062000Y0046433D02*
X0061000Y0046433D01*
X0061000Y0047432D02*
X0062000Y0047432D01*
X0062000Y0048430D02*
X0061000Y0048430D01*
X0061000Y0049429D02*
X0062000Y0049429D01*
X0062000Y0050427D02*
X0061000Y0050427D01*
X0061000Y0051426D02*
X0062000Y0051426D01*
X0062000Y0052424D02*
X0061000Y0052424D01*
X0061000Y0053423D02*
X0062000Y0053423D01*
X0062000Y0054421D02*
X0061000Y0054421D01*
X0061000Y0055420D02*
X0062000Y0055420D01*
X0062000Y0056418D02*
X0061000Y0056418D01*
X0061000Y0057417D02*
X0062000Y0057417D01*
X0062000Y0058415D02*
X0061000Y0058415D01*
X0061000Y0059414D02*
X0062000Y0059414D01*
X0062000Y0060412D02*
X0061000Y0060412D01*
X0061000Y0061411D02*
X0062000Y0061411D01*
X0062000Y0062409D02*
X0061000Y0062409D01*
X0061000Y0063408D02*
X0062000Y0063408D01*
X0062000Y0064406D02*
X0061000Y0064406D01*
X0061000Y0065405D02*
X0062000Y0065405D01*
X0062000Y0066403D02*
X0061000Y0066403D01*
X0061000Y0067402D02*
X0062000Y0067402D01*
X0062000Y0068400D02*
X0061000Y0068400D01*
X0061000Y0069399D02*
X0062000Y0069399D01*
X0062000Y0070397D02*
X0061000Y0070397D01*
X0061000Y0071396D02*
X0062000Y0071396D01*
X0062000Y0072394D02*
X0061000Y0072394D01*
X0061000Y0073393D02*
X0062000Y0073393D01*
X0062000Y0074391D02*
X0061000Y0074391D01*
X0061000Y0075390D02*
X0062000Y0075390D01*
X0062000Y0076388D02*
X0061000Y0076388D01*
X0061000Y0077387D02*
X0062000Y0077387D01*
X0054823Y0077387D02*
X0033246Y0077387D01*
X0033598Y0076388D02*
X0050726Y0076388D01*
X0047938Y0075390D02*
X0033598Y0075390D01*
X0033598Y0074391D02*
X0045672Y0074391D01*
X0043740Y0073393D02*
X0033598Y0073393D01*
X0033598Y0072394D02*
X0042038Y0072394D01*
X0040544Y0071396D02*
X0033598Y0071396D01*
X0033598Y0070397D02*
X0039202Y0070397D01*
X0037955Y0069399D02*
X0033598Y0069399D01*
X0033455Y0068400D02*
X0036816Y0068400D01*
X0035783Y0067402D02*
X0033041Y0067402D01*
X0032224Y0066403D02*
X0034792Y0066403D01*
X0033916Y0065405D02*
X0030628Y0065405D01*
X0033069Y0064406D02*
X0003500Y0064406D01*
X0003500Y0063408D02*
X0032303Y0063408D01*
X0031573Y0062409D02*
X0003500Y0062409D01*
X0003500Y0061411D02*
X0030906Y0061411D01*
X0030272Y0060412D02*
X0003500Y0060412D01*
X0003500Y0059414D02*
X0021167Y0059414D01*
X0020423Y0058415D02*
X0003500Y0058415D01*
X0003500Y0057417D02*
X0020087Y0057417D01*
X0020087Y0056418D02*
X0003500Y0056418D01*
X0003500Y0055420D02*
X0020436Y0055420D01*
X0021199Y0054421D02*
X0003500Y0054421D01*
X0003500Y0053423D02*
X0021669Y0053423D01*
X0025268Y0053423D02*
X0027002Y0053423D01*
X0026663Y0052424D02*
X0025268Y0052424D01*
X0025268Y0051426D02*
X0026372Y0051426D01*
X0026104Y0050427D02*
X0025268Y0050427D01*
X0025268Y0049429D02*
X0025862Y0049429D01*
X0025663Y0048430D02*
X0025268Y0048430D01*
X0025466Y0047432D02*
X0024977Y0047432D01*
X0025334Y0046433D02*
X0023979Y0046433D01*
X0023000Y0045434D02*
X0025203Y0045434D01*
X0025114Y0044436D02*
X0023000Y0044436D01*
X0023000Y0043437D02*
X0025049Y0043437D01*
X0025000Y0042439D02*
X0023000Y0042439D01*
X0010000Y0042439D02*
X0003500Y0042439D01*
X0003500Y0041440D02*
X0010000Y0041440D01*
X0010000Y0040442D02*
X0003500Y0040442D01*
X0003500Y0039443D02*
X0010000Y0039443D01*
X0010000Y0038445D02*
X0003500Y0038445D01*
X0003500Y0037446D02*
X0010000Y0037446D01*
X0010000Y0036448D02*
X0003500Y0036448D01*
X0003500Y0035449D02*
X0010000Y0035449D01*
X0009740Y0034451D02*
X0003500Y0034451D01*
X0003500Y0033452D02*
X0008741Y0033452D01*
X0007743Y0032454D02*
X0003500Y0032454D01*
X0003500Y0031455D02*
X0005013Y0031455D01*
X0003510Y0030457D02*
X0003500Y0030457D01*
X0003500Y0043437D02*
X0010000Y0043437D01*
X0010000Y0044436D02*
X0003500Y0044436D01*
X0003500Y0045434D02*
X0010000Y0045434D01*
X0010000Y0046433D02*
X0003500Y0046433D01*
X0003500Y0047432D02*
X0010000Y0047432D01*
X0010000Y0048430D02*
X0003500Y0048430D01*
X0003500Y0049429D02*
X0010000Y0049429D01*
X0010000Y0050427D02*
X0003500Y0050427D01*
X0003500Y0051426D02*
X0010000Y0051426D01*
X0010303Y0052424D02*
X0003500Y0052424D01*
X0003500Y0065405D02*
X0007568Y0065405D01*
X0005973Y0066403D02*
X0003500Y0066403D01*
X0003500Y0067402D02*
X0005155Y0067402D01*
X0004742Y0068400D02*
X0003500Y0068400D01*
X0003500Y0069399D02*
X0004598Y0069399D01*
X0004598Y0070397D02*
X0003500Y0070397D01*
X0003500Y0071396D02*
X0004598Y0071396D01*
X0004598Y0072394D02*
X0003500Y0072394D01*
X0003500Y0073393D02*
X0004598Y0073393D01*
X0004598Y0074391D02*
X0003500Y0074391D01*
X0003500Y0075390D02*
X0004598Y0075390D01*
X0004598Y0076388D02*
X0003500Y0076388D01*
X0003500Y0077387D02*
X0004951Y0077387D01*
X0013246Y0077387D02*
X0014951Y0077387D01*
X0014598Y0076388D02*
X0013598Y0076388D01*
X0013598Y0075390D02*
X0014598Y0075390D01*
X0014598Y0074391D02*
X0013598Y0074391D01*
X0013598Y0073393D02*
X0014598Y0073393D01*
X0014598Y0072394D02*
X0013598Y0072394D01*
X0013598Y0071396D02*
X0014598Y0071396D01*
X0014598Y0070397D02*
X0013598Y0070397D01*
X0013598Y0069399D02*
X0014598Y0069399D01*
X0014742Y0068400D02*
X0013455Y0068400D01*
X0013041Y0067402D02*
X0015155Y0067402D01*
X0015973Y0066403D02*
X0012224Y0066403D01*
X0010628Y0065405D02*
X0017568Y0065405D01*
X0020628Y0065405D02*
X0027568Y0065405D01*
X0025973Y0066403D02*
X0022224Y0066403D01*
X0023041Y0067402D02*
X0025155Y0067402D01*
X0024742Y0068400D02*
X0023455Y0068400D01*
X0023598Y0069399D02*
X0024598Y0069399D01*
X0024598Y0070397D02*
X0023598Y0070397D01*
X0023598Y0071396D02*
X0024598Y0071396D01*
X0024598Y0072394D02*
X0023598Y0072394D01*
X0023598Y0073393D02*
X0024598Y0073393D01*
X0024598Y0074391D02*
X0023598Y0074391D01*
X0023598Y0075390D02*
X0024598Y0075390D01*
X0024598Y0076388D02*
X0023598Y0076388D01*
X0023246Y0077387D02*
X0024951Y0077387D01*
X0025770Y0059414D02*
X0029696Y0059414D01*
X0029145Y0058415D02*
X0026514Y0058415D01*
X0026850Y0057417D02*
X0028652Y0057417D01*
X0028172Y0056418D02*
X0026850Y0056418D01*
X0026501Y0055420D02*
X0027758Y0055420D01*
X0027345Y0054421D02*
X0025738Y0054421D01*
X0061000Y0029458D02*
X0062000Y0029458D01*
X0062000Y0028460D02*
X0061000Y0028460D01*
X0061000Y0027461D02*
X0062000Y0027461D01*
X0062000Y0026463D02*
X0061000Y0026463D01*
X0061000Y0025464D02*
X0062000Y0025464D01*
X0062000Y0024466D02*
X0061000Y0024466D01*
X0061000Y0023467D02*
X0062000Y0023467D01*
X0062000Y0022469D02*
X0061000Y0022469D01*
X0061000Y0021470D02*
X0062000Y0021470D01*
X0062000Y0020472D02*
X0061000Y0020472D01*
X0061000Y0019473D02*
X0062000Y0019473D01*
X0062000Y0018475D02*
X0061000Y0018475D01*
X0061000Y0017476D02*
X0062000Y0017476D01*
X0062000Y0016478D02*
X0061000Y0016478D01*
X0061000Y0015479D02*
X0062000Y0015479D01*
X0062000Y0014481D02*
X0061000Y0014481D01*
X0061000Y0013482D02*
X0062000Y0013482D01*
X0062000Y0012484D02*
X0061000Y0012484D01*
X0061000Y0011485D02*
X0062000Y0011485D01*
X0062000Y0010487D02*
X0061000Y0010487D01*
X0061000Y0009488D02*
X0062000Y0009488D01*
X0062000Y0008490D02*
X0061000Y0008490D01*
X0061000Y0007491D02*
X0062000Y0007491D01*
X0062000Y0006493D02*
X0061000Y0006493D01*
X0061000Y0005494D02*
X0062000Y0005494D01*
X0029835Y0005494D02*
X0028835Y0005494D01*
X0028835Y0004496D02*
X0029835Y0004496D01*
X0029835Y0006493D02*
X0028835Y0006493D01*
X0028835Y0007491D02*
X0029835Y0007491D01*
X0029835Y0008490D02*
X0028835Y0008490D01*
X0028835Y0009488D02*
X0029835Y0009488D01*
X0029835Y0010487D02*
X0028835Y0010487D01*
X0024835Y0010487D02*
X0023835Y0010487D01*
X0023835Y0009488D02*
X0024835Y0009488D01*
X0024835Y0008490D02*
X0023835Y0008490D01*
X0023835Y0007491D02*
X0024864Y0007491D01*
X0025102Y0006493D02*
X0023570Y0006493D01*
X0023156Y0005494D02*
X0025613Y0005494D01*
X0026540Y0004496D02*
X0022167Y0004496D01*
M02*
