G75*
%MOIN*%
%OFA0B0*%
%FSLAX25Y25*%
%IPPOS*%
%LPD*%
%AMOC8*
5,1,8,0,0,1.08239X$1,22.5*
%
%ADD10R,0.01378X0.07874*%
%ADD11R,0.17717X0.18110*%
%ADD12R,0.00984X0.03937*%
%ADD13R,0.09843X0.06693*%
%ADD14R,0.04400X0.01400*%
%ADD15R,0.05906X0.13780*%
%ADD16C,0.06000*%
%ADD17C,0.05600*%
%ADD18R,0.02756X0.03543*%
%ADD19R,0.05906X0.05118*%
%ADD20R,0.03937X0.04331*%
%ADD21OC8,0.06000*%
%ADD22R,0.03543X0.02756*%
%ADD23C,0.21000*%
%ADD24C,0.12992*%
%ADD25C,0.05433*%
%ADD26C,0.01000*%
%ADD27C,0.02756*%
%ADD28C,0.02362*%
%ADD29C,0.01600*%
%ADD30C,0.03200*%
%ADD31C,0.01200*%
D10*
X0019512Y0062358D03*
X0021874Y0062358D03*
X0024236Y0062358D03*
X0026598Y0062358D03*
X0028961Y0062358D03*
X0031323Y0062358D03*
X0033685Y0062358D03*
X0036047Y0062358D03*
X0038409Y0062358D03*
X0040772Y0062358D03*
X0043134Y0062358D03*
X0045496Y0062358D03*
X0047858Y0062358D03*
X0050220Y0062358D03*
X0052583Y0062358D03*
X0054945Y0062358D03*
X0057307Y0062358D03*
X0059669Y0062358D03*
X0062031Y0062358D03*
X0064394Y0062358D03*
X0066756Y0062358D03*
X0069118Y0062358D03*
X0071480Y0062358D03*
X0073843Y0062358D03*
X0076205Y0062358D03*
X0078567Y0062358D03*
X0080929Y0062358D03*
X0083291Y0062358D03*
X0085654Y0062358D03*
X0088016Y0062358D03*
X0090378Y0062358D03*
X0092740Y0062358D03*
X0095102Y0062358D03*
X0097465Y0062358D03*
X0099827Y0062358D03*
X0102189Y0062358D03*
X0104551Y0062358D03*
X0106913Y0062358D03*
X0109276Y0062358D03*
X0111638Y0062358D03*
X0114000Y0062358D03*
X0116362Y0062358D03*
X0118724Y0062358D03*
X0121087Y0062358D03*
X0123449Y0062358D03*
X0125811Y0062358D03*
X0128173Y0062358D03*
X0130535Y0062358D03*
X0132898Y0062358D03*
X0135260Y0062358D03*
X0137622Y0062358D03*
X0139984Y0062358D03*
X0142346Y0062358D03*
X0144709Y0062358D03*
X0147071Y0062358D03*
X0149433Y0062358D03*
X0151795Y0062358D03*
X0154157Y0062358D03*
X0156520Y0062358D03*
X0158882Y0062358D03*
X0161244Y0062358D03*
X0163606Y0062358D03*
X0165969Y0062358D03*
X0168331Y0062358D03*
X0170693Y0062358D03*
X0173055Y0062358D03*
X0175417Y0062358D03*
X0177780Y0062358D03*
X0180142Y0062358D03*
X0182504Y0062358D03*
X0184866Y0062358D03*
X0187228Y0062358D03*
X0189591Y0062358D03*
X0191953Y0062358D03*
X0194315Y0062358D03*
X0196677Y0062358D03*
X0199039Y0062358D03*
X0201402Y0062358D03*
X0203764Y0062358D03*
X0206126Y0062358D03*
X0222661Y0062358D03*
X0225024Y0062358D03*
X0227386Y0062358D03*
X0229748Y0062358D03*
X0232110Y0062358D03*
X0234472Y0062358D03*
X0236835Y0062358D03*
X0239197Y0062358D03*
X0241559Y0062358D03*
X0243921Y0062358D03*
X0246283Y0062358D03*
X0248646Y0062358D03*
X0251008Y0062358D03*
X0253370Y0062358D03*
X0255732Y0062358D03*
X0258094Y0062358D03*
X0260457Y0062358D03*
X0262819Y0062358D03*
X0265181Y0062358D03*
X0267543Y0062358D03*
X0266362Y0094642D03*
X0264000Y0094642D03*
X0261638Y0094642D03*
X0259276Y0094642D03*
X0256913Y0094642D03*
X0254551Y0094642D03*
X0252189Y0094642D03*
X0249827Y0094642D03*
X0247465Y0094642D03*
X0245102Y0094642D03*
X0242740Y0094642D03*
X0240378Y0094642D03*
X0238016Y0094642D03*
X0235654Y0094642D03*
X0233291Y0094642D03*
X0230929Y0094642D03*
X0228567Y0094642D03*
X0226205Y0094642D03*
X0223843Y0094642D03*
X0221480Y0094642D03*
X0204945Y0094642D03*
X0202583Y0094642D03*
X0200220Y0094642D03*
X0197858Y0094642D03*
X0195496Y0094642D03*
X0193134Y0094642D03*
X0190772Y0094642D03*
X0188409Y0094642D03*
X0186047Y0094642D03*
X0183685Y0094642D03*
X0181323Y0094642D03*
X0178961Y0094642D03*
X0176598Y0094642D03*
X0174236Y0094642D03*
X0171874Y0094642D03*
X0169512Y0094642D03*
X0167150Y0094642D03*
X0164787Y0094642D03*
X0162425Y0094642D03*
X0160063Y0094642D03*
X0157701Y0094642D03*
X0155339Y0094642D03*
X0152976Y0094642D03*
X0150614Y0094642D03*
X0148252Y0094642D03*
X0145890Y0094642D03*
X0143528Y0094642D03*
X0141165Y0094642D03*
X0138803Y0094642D03*
X0136441Y0094642D03*
X0134079Y0094642D03*
X0131717Y0094642D03*
X0129354Y0094642D03*
X0126992Y0094642D03*
X0124630Y0094642D03*
X0122268Y0094642D03*
X0119906Y0094642D03*
X0117543Y0094642D03*
X0115181Y0094642D03*
X0112819Y0094642D03*
X0110457Y0094642D03*
X0108094Y0094642D03*
X0105732Y0094642D03*
X0103370Y0094642D03*
X0101008Y0094642D03*
X0098646Y0094642D03*
X0096283Y0094642D03*
X0093921Y0094642D03*
X0091559Y0094642D03*
X0089197Y0094642D03*
X0086835Y0094642D03*
X0084472Y0094642D03*
X0082110Y0094642D03*
X0079748Y0094642D03*
X0077386Y0094642D03*
X0075024Y0094642D03*
X0072661Y0094642D03*
X0070299Y0094642D03*
X0067937Y0094642D03*
X0065575Y0094642D03*
X0063213Y0094642D03*
X0060850Y0094642D03*
X0058488Y0094642D03*
X0056126Y0094642D03*
X0053764Y0094642D03*
X0051402Y0094642D03*
X0049039Y0094642D03*
X0046677Y0094642D03*
X0044315Y0094642D03*
X0041953Y0094642D03*
X0039591Y0094642D03*
X0037228Y0094642D03*
X0034866Y0094642D03*
X0032504Y0094642D03*
X0030142Y0094642D03*
X0027780Y0094642D03*
X0025417Y0094642D03*
X0023055Y0094642D03*
X0020693Y0094642D03*
X0018331Y0094642D03*
D11*
X0014787Y0125744D03*
X0271087Y0125744D03*
D12*
X0065929Y0154807D03*
X0064157Y0154807D03*
X0062386Y0154807D03*
X0060614Y0154807D03*
X0058843Y0154807D03*
X0057071Y0154807D03*
X0057071Y0168193D03*
X0058843Y0168193D03*
X0060614Y0168193D03*
X0062386Y0168193D03*
X0064157Y0168193D03*
X0065929Y0168193D03*
D13*
X0061500Y0161500D03*
D14*
X0027300Y0155059D03*
X0027300Y0152500D03*
X0027300Y0149941D03*
X0019700Y0149941D03*
X0019700Y0155059D03*
D15*
X0039496Y0181500D03*
X0051504Y0181500D03*
X0068496Y0141500D03*
X0080504Y0141500D03*
D16*
X0088500Y0136500D02*
X0088500Y0130500D01*
X0098500Y0130500D02*
X0098500Y0136500D01*
X0108500Y0136500D02*
X0108500Y0130500D01*
D17*
X0099437Y0185500D03*
X0091563Y0185500D03*
D18*
X0064059Y0187500D03*
X0058941Y0187500D03*
X0058941Y0181500D03*
X0064059Y0181500D03*
X0064059Y0175500D03*
X0058941Y0175500D03*
X0026059Y0163500D03*
X0020941Y0163500D03*
X0018941Y0144500D03*
X0024059Y0144500D03*
X0055941Y0142500D03*
X0055941Y0147500D03*
X0061059Y0147500D03*
X0061059Y0142500D03*
X0061059Y0137500D03*
X0055941Y0137500D03*
D19*
X0041500Y0125240D03*
X0041500Y0117760D03*
X0051500Y0117240D03*
X0051500Y0109760D03*
X0061500Y0109760D03*
X0061500Y0117240D03*
X0031500Y0117760D03*
X0031500Y0125240D03*
X0040500Y0156760D03*
X0048500Y0156760D03*
X0048500Y0164240D03*
X0040500Y0164240D03*
X0072500Y0165240D03*
X0080500Y0165240D03*
X0080500Y0157760D03*
X0072500Y0157760D03*
D20*
X0012500Y0159846D03*
X0012500Y0153154D03*
D21*
X0074500Y0119500D03*
X0084500Y0119500D03*
X0094500Y0119500D03*
X0104500Y0119500D03*
X0104500Y0109500D03*
X0094500Y0109500D03*
X0084500Y0109500D03*
X0074500Y0109500D03*
X0127500Y0104500D03*
X0137500Y0104500D03*
X0137500Y0114500D03*
X0127500Y0114500D03*
X0127500Y0124500D03*
X0137500Y0124500D03*
X0237500Y0044500D03*
X0247500Y0044500D03*
X0257500Y0044500D03*
X0257500Y0034500D03*
X0247500Y0034500D03*
X0237500Y0034500D03*
D22*
X0158800Y0105941D03*
X0154200Y0105941D03*
X0154200Y0111059D03*
X0158800Y0111059D03*
D23*
X0262327Y0184177D03*
X0023154Y0184177D03*
X0015673Y0015673D03*
X0270791Y0015673D03*
D24*
X0171366Y0157500D03*
X0119634Y0157500D03*
D25*
X0131720Y0146870D03*
X0141563Y0146870D03*
X0149437Y0146870D03*
X0159280Y0146870D03*
D26*
X0019000Y0004124D02*
X0018319Y0003968D01*
X0268146Y0003968D01*
X0267464Y0004124D01*
X0266192Y0004569D01*
X0264978Y0005154D01*
X0263836Y0005871D01*
X0262783Y0006711D01*
X0261830Y0007664D01*
X0260989Y0008718D01*
X0260272Y0009859D01*
X0259687Y0011074D01*
X0259242Y0012346D01*
X0258942Y0013660D01*
X0258791Y0014999D01*
X0258791Y0015173D01*
X0270291Y0015173D01*
X0270291Y0016173D01*
X0258791Y0016173D01*
X0258791Y0016347D01*
X0258942Y0017686D01*
X0259242Y0019000D01*
X0259687Y0020273D01*
X0260272Y0021487D01*
X0260989Y0022628D01*
X0261830Y0023682D01*
X0262783Y0024635D01*
X0263836Y0025475D01*
X0264978Y0026192D01*
X0266192Y0026777D01*
X0267464Y0027222D01*
X0268778Y0027522D01*
X0270117Y0027673D01*
X0270291Y0027673D01*
X0270291Y0016173D01*
X0271291Y0016173D01*
X0271291Y0027673D01*
X0271465Y0027673D01*
X0272805Y0027522D01*
X0274119Y0027222D01*
X0275391Y0026777D01*
X0276605Y0026192D01*
X0277746Y0025475D01*
X0278800Y0024635D01*
X0279753Y0023682D01*
X0280593Y0022628D01*
X0281311Y0021487D01*
X0281895Y0020273D01*
X0282341Y0019000D01*
X0282496Y0018319D01*
X0282496Y0184177D01*
X0282396Y0185705D01*
X0281605Y0188656D01*
X0280077Y0191303D01*
X0277917Y0193463D01*
X0275271Y0194991D01*
X0272319Y0195782D01*
X0270791Y0195882D01*
X0264972Y0195882D01*
X0265654Y0195726D01*
X0266926Y0195281D01*
X0268141Y0194696D01*
X0269282Y0193979D01*
X0270336Y0193139D01*
X0271289Y0192186D01*
X0272129Y0191132D01*
X0272846Y0189991D01*
X0273431Y0188777D01*
X0273876Y0187504D01*
X0274176Y0186190D01*
X0274327Y0184851D01*
X0274327Y0184677D01*
X0262827Y0184677D01*
X0262827Y0183677D01*
X0274327Y0183677D01*
X0274327Y0183503D01*
X0274176Y0182164D01*
X0273876Y0180850D01*
X0273431Y0179578D01*
X0272846Y0178363D01*
X0272129Y0177222D01*
X0271289Y0176168D01*
X0270336Y0175215D01*
X0269282Y0174375D01*
X0268141Y0173658D01*
X0266926Y0173073D01*
X0265654Y0172628D01*
X0264340Y0172328D01*
X0263001Y0172177D01*
X0262827Y0172177D01*
X0262827Y0183677D01*
X0261827Y0183677D01*
X0261827Y0172177D01*
X0261653Y0172177D01*
X0260314Y0172328D01*
X0259000Y0172628D01*
X0257727Y0173073D01*
X0256513Y0173658D01*
X0255372Y0174375D01*
X0254318Y0175215D01*
X0253365Y0176168D01*
X0252525Y0177222D01*
X0251808Y0178363D01*
X0251223Y0179578D01*
X0250778Y0180850D01*
X0250478Y0182164D01*
X0250327Y0183503D01*
X0250327Y0183677D01*
X0261827Y0183677D01*
X0261827Y0184677D01*
X0250327Y0184677D01*
X0250327Y0184851D01*
X0250478Y0186190D01*
X0250778Y0187504D01*
X0251223Y0188777D01*
X0251808Y0189991D01*
X0252525Y0191132D01*
X0253365Y0192186D01*
X0254318Y0193139D01*
X0255372Y0193979D01*
X0256513Y0194696D01*
X0257727Y0195281D01*
X0259000Y0195726D01*
X0259681Y0195882D01*
X0025799Y0195882D01*
X0026481Y0195726D01*
X0027753Y0195281D01*
X0028967Y0194696D01*
X0030109Y0193979D01*
X0031162Y0193139D01*
X0032115Y0192186D01*
X0032956Y0191132D01*
X0033673Y0189991D01*
X0034258Y0188777D01*
X0034703Y0187504D01*
X0035003Y0186190D01*
X0035154Y0184851D01*
X0035154Y0184677D01*
X0023654Y0184677D01*
X0023654Y0183677D01*
X0035154Y0183677D01*
X0035154Y0183503D01*
X0035003Y0182164D01*
X0034703Y0180850D01*
X0034258Y0179578D01*
X0033673Y0178363D01*
X0032956Y0177222D01*
X0032115Y0176168D01*
X0031162Y0175215D01*
X0030109Y0174375D01*
X0028967Y0173658D01*
X0027753Y0173073D01*
X0026481Y0172628D01*
X0025167Y0172328D01*
X0023827Y0172177D01*
X0023654Y0172177D01*
X0023654Y0183677D01*
X0022654Y0183677D01*
X0022654Y0172177D01*
X0022480Y0172177D01*
X0021140Y0172328D01*
X0019826Y0172628D01*
X0018554Y0173073D01*
X0017340Y0173658D01*
X0016199Y0174375D01*
X0015145Y0175215D01*
X0014192Y0176168D01*
X0013351Y0177222D01*
X0012634Y0178363D01*
X0012050Y0179578D01*
X0011604Y0180850D01*
X0011304Y0182164D01*
X0011154Y0183503D01*
X0011154Y0183677D01*
X0022653Y0183677D01*
X0022653Y0184677D01*
X0011154Y0184677D01*
X0011154Y0184851D01*
X0011304Y0186190D01*
X0011604Y0187504D01*
X0012050Y0188777D01*
X0012634Y0189991D01*
X0013351Y0191132D01*
X0014192Y0192186D01*
X0015145Y0193139D01*
X0016199Y0193979D01*
X0017340Y0194696D01*
X0018554Y0195281D01*
X0019826Y0195726D01*
X0020508Y0195882D01*
X0015673Y0195882D01*
X0014145Y0195782D01*
X0011194Y0194991D01*
X0008548Y0193463D01*
X0006387Y0191303D01*
X0004859Y0188656D01*
X0004069Y0185705D01*
X0004069Y0185705D01*
X0003968Y0184177D01*
X0003968Y0018319D01*
X0004124Y0019000D01*
X0004569Y0020273D01*
X0005154Y0021487D01*
X0005871Y0022628D01*
X0006711Y0023682D01*
X0007664Y0024635D01*
X0008718Y0025475D01*
X0009859Y0026192D01*
X0011074Y0026777D01*
X0012346Y0027222D01*
X0013660Y0027522D01*
X0014999Y0027673D01*
X0015173Y0027673D01*
X0015173Y0016173D01*
X0016173Y0016173D01*
X0016173Y0027673D01*
X0016347Y0027673D01*
X0017686Y0027522D01*
X0019000Y0027222D01*
X0020273Y0026777D01*
X0021487Y0026192D01*
X0022628Y0025475D01*
X0023682Y0024635D01*
X0024635Y0023682D01*
X0025475Y0022628D01*
X0026192Y0021487D01*
X0026777Y0020273D01*
X0027222Y0019000D01*
X0027522Y0017686D01*
X0027673Y0016347D01*
X0027673Y0016173D01*
X0016173Y0016173D01*
X0016173Y0015173D01*
X0027673Y0015173D01*
X0027673Y0014999D01*
X0027522Y0013660D01*
X0027222Y0012346D01*
X0026777Y0011074D01*
X0026192Y0009859D01*
X0025475Y0008718D01*
X0024635Y0007664D01*
X0023682Y0006711D01*
X0022628Y0005871D01*
X0021487Y0005154D01*
X0020273Y0004569D01*
X0019000Y0004124D01*
X0020062Y0004496D02*
X0266402Y0004496D01*
X0264436Y0005494D02*
X0245985Y0005494D01*
X0245898Y0005407D02*
X0246593Y0006102D01*
X0246968Y0007009D01*
X0246968Y0007991D01*
X0246593Y0008898D01*
X0245898Y0009593D01*
X0244991Y0009968D01*
X0244009Y0009968D01*
X0243102Y0009593D01*
X0242407Y0008898D01*
X0242031Y0007991D01*
X0242031Y0007009D01*
X0242407Y0006102D01*
X0243102Y0005407D01*
X0244009Y0005031D01*
X0244991Y0005031D01*
X0245898Y0005407D01*
X0246755Y0006493D02*
X0263057Y0006493D01*
X0262003Y0007491D02*
X0246968Y0007491D01*
X0246762Y0008490D02*
X0261172Y0008490D01*
X0260505Y0009488D02*
X0246003Y0009488D01*
X0242997Y0009488D02*
X0141003Y0009488D01*
X0140898Y0009593D02*
X0139991Y0009968D01*
X0139009Y0009968D01*
X0138102Y0009593D01*
X0137407Y0008898D01*
X0137031Y0007991D01*
X0137031Y0007009D01*
X0137407Y0006102D01*
X0138102Y0005407D01*
X0139009Y0005031D01*
X0139991Y0005031D01*
X0140898Y0005407D01*
X0141593Y0006102D01*
X0141968Y0007009D01*
X0141968Y0007991D01*
X0141593Y0008898D01*
X0140898Y0009593D01*
X0141762Y0008490D02*
X0242238Y0008490D01*
X0242031Y0007491D02*
X0141968Y0007491D01*
X0141755Y0006493D02*
X0242245Y0006493D01*
X0243015Y0005494D02*
X0140985Y0005494D01*
X0138015Y0005494D02*
X0022028Y0005494D01*
X0023408Y0006493D02*
X0137245Y0006493D01*
X0137031Y0007491D02*
X0024462Y0007491D01*
X0025293Y0008490D02*
X0137238Y0008490D01*
X0137997Y0009488D02*
X0025959Y0009488D01*
X0026494Y0010487D02*
X0105022Y0010487D01*
X0105102Y0010407D02*
X0106009Y0010031D01*
X0106991Y0010031D01*
X0107898Y0010407D01*
X0108400Y0010909D01*
X0125600Y0010909D01*
X0126102Y0010407D01*
X0127009Y0010031D01*
X0127991Y0010031D01*
X0128898Y0010407D01*
X0129593Y0011102D01*
X0129968Y0012009D01*
X0129968Y0012991D01*
X0129593Y0013898D01*
X0128898Y0014593D01*
X0127991Y0014968D01*
X0127009Y0014968D01*
X0126102Y0014593D01*
X0125600Y0014091D01*
X0108400Y0014091D01*
X0107898Y0014593D01*
X0106991Y0014968D01*
X0106009Y0014968D01*
X0105102Y0014593D01*
X0104407Y0013898D01*
X0104031Y0012991D01*
X0104031Y0012009D01*
X0104407Y0011102D01*
X0105102Y0010407D01*
X0104248Y0011485D02*
X0026921Y0011485D01*
X0027254Y0012484D02*
X0104031Y0012484D01*
X0104235Y0013482D02*
X0027482Y0013482D01*
X0027615Y0014481D02*
X0104990Y0014481D01*
X0106500Y0012500D02*
X0127500Y0012500D01*
X0129968Y0012484D02*
X0210031Y0012484D01*
X0210031Y0012009D02*
X0210407Y0011102D01*
X0211102Y0010407D01*
X0212009Y0010031D01*
X0212991Y0010031D01*
X0213898Y0010407D01*
X0214400Y0010909D01*
X0230600Y0010909D01*
X0231102Y0010407D01*
X0232009Y0010031D01*
X0232991Y0010031D01*
X0233898Y0010407D01*
X0234593Y0011102D01*
X0234968Y0012009D01*
X0234968Y0012991D01*
X0234593Y0013898D01*
X0233898Y0014593D01*
X0232991Y0014968D01*
X0232009Y0014968D01*
X0231102Y0014593D01*
X0230600Y0014091D01*
X0214400Y0014091D01*
X0213898Y0014593D01*
X0212991Y0014968D01*
X0212009Y0014968D01*
X0211102Y0014593D01*
X0210407Y0013898D01*
X0210031Y0012991D01*
X0210031Y0012009D01*
X0210248Y0011485D02*
X0129752Y0011485D01*
X0128978Y0010487D02*
X0211022Y0010487D01*
X0212500Y0012500D02*
X0232500Y0012500D01*
X0234968Y0012484D02*
X0259211Y0012484D01*
X0258983Y0013482D02*
X0234765Y0013482D01*
X0234010Y0014481D02*
X0258850Y0014481D01*
X0258806Y0016478D02*
X0234748Y0016478D01*
X0234593Y0016102D02*
X0234968Y0017009D01*
X0234968Y0017991D01*
X0234593Y0018898D01*
X0233898Y0019593D01*
X0232991Y0019968D01*
X0232009Y0019968D01*
X0231102Y0019593D01*
X0230600Y0019091D01*
X0218400Y0019091D01*
X0217898Y0019593D01*
X0216991Y0019968D01*
X0216009Y0019968D01*
X0215102Y0019593D01*
X0214407Y0018898D01*
X0214031Y0017991D01*
X0214031Y0017009D01*
X0214407Y0016102D01*
X0215102Y0015407D01*
X0216009Y0015031D01*
X0216991Y0015031D01*
X0217898Y0015407D01*
X0218400Y0015909D01*
X0230600Y0015909D01*
X0231102Y0015407D01*
X0232009Y0015031D01*
X0232991Y0015031D01*
X0233898Y0015407D01*
X0234593Y0016102D01*
X0233970Y0015479D02*
X0270291Y0015479D01*
X0270291Y0016478D02*
X0271291Y0016478D01*
X0271291Y0017476D02*
X0270291Y0017476D01*
X0270291Y0018475D02*
X0271291Y0018475D01*
X0271291Y0019473D02*
X0270291Y0019473D01*
X0270291Y0020472D02*
X0271291Y0020472D01*
X0271291Y0021470D02*
X0270291Y0021470D01*
X0270291Y0022469D02*
X0271291Y0022469D01*
X0271291Y0023467D02*
X0270291Y0023467D01*
X0270291Y0024466D02*
X0271291Y0024466D01*
X0271291Y0025464D02*
X0270291Y0025464D01*
X0270291Y0026463D02*
X0271291Y0026463D01*
X0271291Y0027461D02*
X0270291Y0027461D01*
X0268511Y0027461D02*
X0017954Y0027461D01*
X0016173Y0027461D02*
X0015173Y0027461D01*
X0015173Y0026463D02*
X0016173Y0026463D01*
X0016173Y0025464D02*
X0015173Y0025464D01*
X0015173Y0024466D02*
X0016173Y0024466D01*
X0016173Y0023467D02*
X0015173Y0023467D01*
X0015173Y0022469D02*
X0016173Y0022469D01*
X0016173Y0021470D02*
X0015173Y0021470D01*
X0015173Y0020472D02*
X0016173Y0020472D01*
X0016173Y0019473D02*
X0015173Y0019473D01*
X0015173Y0018475D02*
X0016173Y0018475D01*
X0016173Y0017476D02*
X0015173Y0017476D01*
X0015173Y0016478D02*
X0016173Y0016478D01*
X0016173Y0015479D02*
X0109030Y0015479D01*
X0109102Y0015407D02*
X0110009Y0015031D01*
X0110991Y0015031D01*
X0111898Y0015407D01*
X0112400Y0015909D01*
X0125600Y0015909D01*
X0126102Y0015407D01*
X0127009Y0015031D01*
X0127991Y0015031D01*
X0128898Y0015407D01*
X0129593Y0016102D01*
X0129968Y0017009D01*
X0129968Y0017991D01*
X0129593Y0018898D01*
X0128898Y0019593D01*
X0127991Y0019968D01*
X0127009Y0019968D01*
X0126102Y0019593D01*
X0125600Y0019091D01*
X0112400Y0019091D01*
X0111898Y0019593D01*
X0110991Y0019968D01*
X0110009Y0019968D01*
X0109102Y0019593D01*
X0108407Y0018898D01*
X0108031Y0017991D01*
X0108031Y0017009D01*
X0108407Y0016102D01*
X0109102Y0015407D01*
X0108252Y0016478D02*
X0027659Y0016478D01*
X0027546Y0017476D02*
X0108031Y0017476D01*
X0108232Y0018475D02*
X0027342Y0018475D01*
X0027057Y0019473D02*
X0108982Y0019473D01*
X0110500Y0017500D02*
X0127500Y0017500D01*
X0129968Y0017476D02*
X0214031Y0017476D01*
X0214232Y0018475D02*
X0129768Y0018475D01*
X0129018Y0019473D02*
X0214982Y0019473D01*
X0216500Y0017500D02*
X0232500Y0017500D01*
X0234968Y0017476D02*
X0258919Y0017476D01*
X0259122Y0018475D02*
X0234768Y0018475D01*
X0234018Y0019473D02*
X0259408Y0019473D01*
X0259783Y0020472D02*
X0026681Y0020472D01*
X0026201Y0021470D02*
X0260264Y0021470D01*
X0260889Y0022469D02*
X0025576Y0022469D01*
X0024806Y0023467D02*
X0261658Y0023467D01*
X0262613Y0024466D02*
X0023851Y0024466D01*
X0022642Y0025464D02*
X0263822Y0025464D01*
X0265539Y0026463D02*
X0020926Y0026463D01*
X0013393Y0027461D02*
X0003968Y0027461D01*
X0003968Y0026463D02*
X0010421Y0026463D01*
X0008704Y0025464D02*
X0003968Y0025464D01*
X0003968Y0024466D02*
X0007495Y0024466D01*
X0006540Y0023467D02*
X0003968Y0023467D01*
X0003968Y0022469D02*
X0005771Y0022469D01*
X0005146Y0021470D02*
X0003968Y0021470D01*
X0003968Y0020472D02*
X0004665Y0020472D01*
X0004289Y0019473D02*
X0003968Y0019473D01*
X0003968Y0018475D02*
X0004004Y0018475D01*
X0003968Y0028460D02*
X0282496Y0028460D01*
X0282496Y0029458D02*
X0003968Y0029458D01*
X0003968Y0030457D02*
X0061609Y0030457D01*
X0061659Y0030406D02*
X0063001Y0029850D01*
X0064453Y0029850D01*
X0065400Y0030243D01*
X0066347Y0029850D01*
X0067799Y0029850D01*
X0069141Y0030406D01*
X0070167Y0031433D01*
X0070723Y0032774D01*
X0070723Y0034226D01*
X0070167Y0035567D01*
X0069361Y0036374D01*
X0069361Y0036601D01*
X0068909Y0037692D01*
X0065461Y0041141D01*
X0065461Y0047859D01*
X0068274Y0050672D01*
X0068639Y0051038D01*
X0068639Y0050241D01*
X0066991Y0048592D01*
X0066539Y0047501D01*
X0066539Y0041499D01*
X0066991Y0040407D01*
X0067826Y0039572D01*
X0072257Y0035142D01*
X0071877Y0034226D01*
X0071877Y0032774D01*
X0072433Y0031433D01*
X0073459Y0030406D01*
X0074801Y0029850D01*
X0076253Y0029850D01*
X0077200Y0030243D01*
X0078147Y0029850D01*
X0079599Y0029850D01*
X0080941Y0030406D01*
X0081967Y0031433D01*
X0082523Y0032774D01*
X0082523Y0034226D01*
X0081967Y0035567D01*
X0081161Y0036374D01*
X0081161Y0036801D01*
X0080709Y0037892D01*
X0074461Y0044141D01*
X0074461Y0044859D01*
X0075274Y0045672D01*
X0076109Y0046507D01*
X0076338Y0047061D01*
X0077026Y0046372D01*
X0085039Y0038359D01*
X0085039Y0036374D01*
X0084233Y0035567D01*
X0083677Y0034226D01*
X0083677Y0032774D01*
X0084233Y0031433D01*
X0085259Y0030406D01*
X0086601Y0029850D01*
X0088053Y0029850D01*
X0089000Y0030243D01*
X0089947Y0029850D01*
X0091399Y0029850D01*
X0092741Y0030406D01*
X0093767Y0031433D01*
X0094323Y0032774D01*
X0094323Y0034226D01*
X0093767Y0035567D01*
X0092961Y0036374D01*
X0092961Y0041001D01*
X0092509Y0042092D01*
X0083661Y0050941D01*
X0083661Y0053674D01*
X0083898Y0054247D01*
X0083898Y0056921D01*
X0084178Y0056921D01*
X0084559Y0057023D01*
X0084901Y0057221D01*
X0085011Y0057331D01*
X0086794Y0057331D01*
X0086835Y0057371D01*
X0086875Y0057331D01*
X0088658Y0057331D01*
X0088768Y0057221D01*
X0089110Y0057023D01*
X0089491Y0056921D01*
X0090378Y0056921D01*
X0091264Y0056921D01*
X0091646Y0057023D01*
X0091988Y0057221D01*
X0092098Y0057331D01*
X0093881Y0057331D01*
X0093921Y0057371D01*
X0093962Y0057331D01*
X0095745Y0057331D01*
X0095855Y0057221D01*
X0096197Y0057023D01*
X0096578Y0056921D01*
X0097464Y0056921D01*
X0097464Y0062358D01*
X0097465Y0062358D01*
X0097465Y0056921D01*
X0098351Y0056921D01*
X0098733Y0057023D01*
X0099075Y0057221D01*
X0099184Y0057331D01*
X0100967Y0057331D01*
X0101008Y0057371D01*
X0101048Y0057331D01*
X0102831Y0057331D01*
X0102941Y0057221D01*
X0103283Y0057023D01*
X0103665Y0056921D01*
X0104551Y0056921D01*
X0104551Y0062358D01*
X0104551Y0062358D01*
X0104551Y0056921D01*
X0105438Y0056921D01*
X0105819Y0057023D01*
X0106161Y0057221D01*
X0106271Y0057331D01*
X0108054Y0057331D01*
X0108094Y0057371D01*
X0108135Y0057331D01*
X0109918Y0057331D01*
X0110028Y0057221D01*
X0110370Y0057023D01*
X0110751Y0056921D01*
X0111638Y0056921D01*
X0112524Y0056921D01*
X0112906Y0057023D01*
X0113248Y0057221D01*
X0113358Y0057331D01*
X0115141Y0057331D01*
X0115181Y0057371D01*
X0115222Y0057331D01*
X0117005Y0057331D01*
X0117114Y0057221D01*
X0117456Y0057023D01*
X0117838Y0056921D01*
X0118724Y0056921D01*
X0118724Y0062358D01*
X0118724Y0062358D01*
X0118724Y0056921D01*
X0119611Y0056921D01*
X0119992Y0057023D01*
X0120334Y0057221D01*
X0120444Y0057331D01*
X0122227Y0057331D01*
X0122268Y0057371D01*
X0122308Y0057331D01*
X0124091Y0057331D01*
X0124201Y0057221D01*
X0124543Y0057023D01*
X0124925Y0056921D01*
X0125811Y0056921D01*
X0126697Y0056921D01*
X0127079Y0057023D01*
X0127421Y0057221D01*
X0127531Y0057331D01*
X0129314Y0057331D01*
X0129354Y0057371D01*
X0129395Y0057331D01*
X0131178Y0057331D01*
X0131288Y0057221D01*
X0131630Y0057023D01*
X0132011Y0056921D01*
X0132898Y0056921D01*
X0133784Y0056921D01*
X0134166Y0057023D01*
X0134508Y0057221D01*
X0134617Y0057331D01*
X0136401Y0057331D01*
X0136441Y0057371D01*
X0136481Y0057331D01*
X0138265Y0057331D01*
X0138374Y0057221D01*
X0138716Y0057023D01*
X0139098Y0056921D01*
X0139984Y0056921D01*
X0139984Y0062358D01*
X0139984Y0062358D01*
X0139984Y0056921D01*
X0140871Y0056921D01*
X0141252Y0057023D01*
X0141594Y0057221D01*
X0141704Y0057331D01*
X0143487Y0057331D01*
X0143528Y0057371D01*
X0143568Y0057331D01*
X0145351Y0057331D01*
X0145461Y0057221D01*
X0145803Y0057023D01*
X0146184Y0056921D01*
X0147071Y0056921D01*
X0147957Y0056921D01*
X0148339Y0057023D01*
X0148681Y0057221D01*
X0148791Y0057331D01*
X0150574Y0057331D01*
X0150614Y0057371D01*
X0150655Y0057331D01*
X0152438Y0057331D01*
X0152547Y0057221D01*
X0152890Y0057023D01*
X0153271Y0056921D01*
X0154157Y0056921D01*
X0154157Y0062358D01*
X0154158Y0062358D01*
X0154158Y0056921D01*
X0155044Y0056921D01*
X0155425Y0057023D01*
X0155767Y0057221D01*
X0155877Y0057331D01*
X0157660Y0057331D01*
X0157701Y0057371D01*
X0157741Y0057331D01*
X0159524Y0057331D01*
X0159634Y0057221D01*
X0159976Y0057023D01*
X0160358Y0056921D01*
X0161244Y0056921D01*
X0161244Y0062358D01*
X0161244Y0062358D01*
X0161244Y0056921D01*
X0162131Y0056921D01*
X0162512Y0057023D01*
X0162854Y0057221D01*
X0162964Y0057331D01*
X0164747Y0057331D01*
X0164787Y0057371D01*
X0164828Y0057331D01*
X0166611Y0057331D01*
X0166721Y0057221D01*
X0167063Y0057023D01*
X0167444Y0056921D01*
X0168331Y0056921D01*
X0169217Y0056921D01*
X0169599Y0057023D01*
X0169941Y0057221D01*
X0170050Y0057331D01*
X0171834Y0057331D01*
X0171874Y0057371D01*
X0171914Y0057331D01*
X0173698Y0057331D01*
X0173807Y0057221D01*
X0174149Y0057023D01*
X0174531Y0056921D01*
X0175417Y0056921D01*
X0175417Y0062358D01*
X0175417Y0062358D01*
X0175417Y0056921D01*
X0176304Y0056921D01*
X0176685Y0057023D01*
X0177027Y0057221D01*
X0177137Y0057331D01*
X0178920Y0057331D01*
X0178961Y0057371D01*
X0179001Y0057331D01*
X0180784Y0057331D01*
X0180894Y0057221D01*
X0181236Y0057023D01*
X0181617Y0056921D01*
X0182504Y0056921D01*
X0183390Y0056921D01*
X0183772Y0057023D01*
X0184114Y0057221D01*
X0184224Y0057331D01*
X0186007Y0057331D01*
X0186047Y0057371D01*
X0186088Y0057331D01*
X0187871Y0057331D01*
X0187981Y0057221D01*
X0188323Y0057023D01*
X0188704Y0056921D01*
X0189590Y0056921D01*
X0189590Y0062358D01*
X0189591Y0062358D01*
X0189591Y0056921D01*
X0190477Y0056921D01*
X0190859Y0057023D01*
X0191201Y0057221D01*
X0191310Y0057331D01*
X0193093Y0057331D01*
X0193134Y0057371D01*
X0193174Y0057331D01*
X0194957Y0057331D01*
X0195067Y0057221D01*
X0195409Y0057023D01*
X0195791Y0056921D01*
X0196677Y0056921D01*
X0196677Y0062358D01*
X0196677Y0062358D01*
X0196677Y0056921D01*
X0197564Y0056921D01*
X0197945Y0057023D01*
X0198287Y0057221D01*
X0198397Y0057331D01*
X0200180Y0057331D01*
X0200220Y0057371D01*
X0200261Y0057331D01*
X0202044Y0057331D01*
X0202154Y0057221D01*
X0202496Y0057023D01*
X0202877Y0056921D01*
X0203764Y0056921D01*
X0204650Y0056921D01*
X0205032Y0057023D01*
X0205374Y0057221D01*
X0205484Y0057331D01*
X0207267Y0057331D01*
X0207905Y0057970D01*
X0207905Y0066415D01*
X0208209Y0066718D01*
X0208209Y0055459D01*
X0202709Y0049959D01*
X0202709Y0046422D01*
X0202028Y0045741D01*
X0202028Y0043859D01*
X0202797Y0043091D01*
X0099841Y0043091D01*
X0098909Y0042159D01*
X0098141Y0041391D01*
X0097209Y0040459D01*
X0097209Y0034922D01*
X0096528Y0034241D01*
X0096528Y0032359D01*
X0097859Y0031028D01*
X0099741Y0031028D01*
X0100800Y0032087D01*
X0101859Y0031028D01*
X0103741Y0031028D01*
X0104750Y0032037D01*
X0105759Y0031028D01*
X0107641Y0031028D01*
X0108700Y0032087D01*
X0109759Y0031028D01*
X0111641Y0031028D01*
X0112972Y0032359D01*
X0112972Y0033809D01*
X0112998Y0033809D01*
X0113659Y0033809D01*
X0113659Y0033810D01*
X0219508Y0033909D01*
X0222159Y0033909D01*
X0223091Y0034841D01*
X0229091Y0040841D01*
X0229091Y0048841D01*
X0229159Y0048909D01*
X0255546Y0048909D01*
X0253000Y0046364D01*
X0253000Y0045000D01*
X0257000Y0045000D01*
X0257000Y0044000D01*
X0258000Y0044000D01*
X0258000Y0045000D01*
X0262000Y0045000D01*
X0262000Y0046364D01*
X0259454Y0048909D01*
X0261159Y0048909D01*
X0262091Y0049841D01*
X0266772Y0054522D01*
X0266772Y0056921D01*
X0267543Y0056921D01*
X0267543Y0062358D01*
X0267543Y0062358D01*
X0267543Y0056921D01*
X0268430Y0056921D01*
X0268811Y0057023D01*
X0269153Y0057221D01*
X0269433Y0057500D01*
X0269630Y0057842D01*
X0269732Y0058224D01*
X0269732Y0062358D01*
X0267543Y0062358D01*
X0267543Y0067795D01*
X0266657Y0067795D01*
X0266275Y0067693D01*
X0265933Y0067496D01*
X0265824Y0067386D01*
X0264040Y0067386D01*
X0264000Y0067345D01*
X0263960Y0067386D01*
X0262176Y0067386D01*
X0262067Y0067496D01*
X0261725Y0067693D01*
X0261343Y0067795D01*
X0260457Y0067795D01*
X0260457Y0062358D01*
X0260457Y0056921D01*
X0261228Y0056921D01*
X0261228Y0056478D01*
X0258841Y0054091D01*
X0257340Y0054091D01*
X0259685Y0056436D01*
X0259685Y0056921D01*
X0260457Y0056921D01*
X0260457Y0062358D01*
X0260457Y0062358D01*
X0260457Y0062358D01*
X0260457Y0067795D01*
X0259570Y0067795D01*
X0259189Y0067693D01*
X0258847Y0067496D01*
X0258737Y0067386D01*
X0256954Y0067386D01*
X0256913Y0067345D01*
X0256873Y0067386D01*
X0255090Y0067386D01*
X0254980Y0067496D01*
X0254638Y0067693D01*
X0254257Y0067795D01*
X0253370Y0067795D01*
X0252484Y0067795D01*
X0252102Y0067693D01*
X0251760Y0067496D01*
X0251650Y0067386D01*
X0249867Y0067386D01*
X0249827Y0067345D01*
X0249786Y0067386D01*
X0248003Y0067386D01*
X0247893Y0067496D01*
X0247551Y0067693D01*
X0247170Y0067795D01*
X0246284Y0067795D01*
X0246284Y0062358D01*
X0246283Y0062358D01*
X0246283Y0067795D01*
X0245397Y0067795D01*
X0245016Y0067693D01*
X0244673Y0067496D01*
X0244564Y0067386D01*
X0242781Y0067386D01*
X0242740Y0067345D01*
X0242700Y0067386D01*
X0240917Y0067386D01*
X0240807Y0067496D01*
X0240465Y0067693D01*
X0240083Y0067795D01*
X0239197Y0067795D01*
X0239197Y0062358D01*
X0239197Y0062358D01*
X0239197Y0067795D01*
X0238310Y0067795D01*
X0237929Y0067693D01*
X0237587Y0067496D01*
X0237477Y0067386D01*
X0235694Y0067386D01*
X0235654Y0067345D01*
X0235613Y0067386D01*
X0233830Y0067386D01*
X0233720Y0067496D01*
X0233378Y0067693D01*
X0232997Y0067795D01*
X0232110Y0067795D01*
X0231224Y0067795D01*
X0230842Y0067693D01*
X0230500Y0067496D01*
X0230390Y0067386D01*
X0228607Y0067386D01*
X0228567Y0067345D01*
X0228527Y0067386D01*
X0226743Y0067386D01*
X0226634Y0067496D01*
X0226292Y0067693D01*
X0225910Y0067795D01*
X0225024Y0067795D01*
X0225024Y0062358D01*
X0225024Y0062358D01*
X0225024Y0067795D01*
X0224880Y0067795D01*
X0224968Y0068009D01*
X0224968Y0068991D01*
X0224593Y0069898D01*
X0223898Y0070593D01*
X0222991Y0070968D01*
X0222009Y0070968D01*
X0221102Y0070593D01*
X0220407Y0069898D01*
X0220031Y0068991D01*
X0220031Y0068009D01*
X0220407Y0067102D01*
X0220882Y0066627D01*
X0220882Y0057970D01*
X0221521Y0057331D01*
X0223304Y0057331D01*
X0223414Y0057221D01*
X0223756Y0057023D01*
X0223770Y0057020D01*
X0220841Y0054091D01*
X0219909Y0053159D01*
X0219909Y0045159D01*
X0217841Y0043091D01*
X0217703Y0043091D01*
X0218472Y0043859D01*
X0218472Y0045741D01*
X0217791Y0046422D01*
X0217791Y0069541D01*
X0237244Y0088995D01*
X0237244Y0089205D01*
X0238016Y0089205D01*
X0238902Y0089205D01*
X0239284Y0089307D01*
X0239626Y0089504D01*
X0239735Y0089614D01*
X0241519Y0089614D01*
X0241559Y0089655D01*
X0241599Y0089614D01*
X0243881Y0089614D01*
X0243921Y0089655D01*
X0243962Y0089614D01*
X0246243Y0089614D01*
X0246283Y0089655D01*
X0246324Y0089614D01*
X0248605Y0089614D01*
X0248646Y0089655D01*
X0248686Y0089614D01*
X0250967Y0089614D01*
X0251008Y0089655D01*
X0251048Y0089614D01*
X0253330Y0089614D01*
X0253370Y0089655D01*
X0253410Y0089614D01*
X0255692Y0089614D01*
X0255732Y0089655D01*
X0255773Y0089614D01*
X0258054Y0089614D01*
X0258094Y0089655D01*
X0258135Y0089614D01*
X0260416Y0089614D01*
X0260457Y0089655D01*
X0260497Y0089614D01*
X0262778Y0089614D01*
X0262819Y0089655D01*
X0262859Y0089614D01*
X0265141Y0089614D01*
X0265181Y0089655D01*
X0265222Y0089614D01*
X0267503Y0089614D01*
X0268142Y0090253D01*
X0268142Y0099030D01*
X0267503Y0099669D01*
X0265222Y0099669D01*
X0265181Y0099629D01*
X0265141Y0099669D01*
X0262859Y0099669D01*
X0262819Y0099629D01*
X0262778Y0099669D01*
X0260497Y0099669D01*
X0260457Y0099629D01*
X0260416Y0099669D01*
X0258135Y0099669D01*
X0258094Y0099629D01*
X0258054Y0099669D01*
X0255773Y0099669D01*
X0255732Y0099629D01*
X0255692Y0099669D01*
X0253410Y0099669D01*
X0253370Y0099629D01*
X0253330Y0099669D01*
X0251048Y0099669D01*
X0251008Y0099629D01*
X0250967Y0099669D01*
X0248686Y0099669D01*
X0248646Y0099629D01*
X0248605Y0099669D01*
X0246324Y0099669D01*
X0246283Y0099629D01*
X0246243Y0099669D01*
X0243962Y0099669D01*
X0243921Y0099629D01*
X0243881Y0099669D01*
X0241599Y0099669D01*
X0241559Y0099629D01*
X0241519Y0099669D01*
X0239735Y0099669D01*
X0239626Y0099779D01*
X0239284Y0099977D01*
X0238902Y0100079D01*
X0238016Y0100079D01*
X0238016Y0094642D01*
X0238016Y0094642D01*
X0238016Y0100079D01*
X0237129Y0100079D01*
X0236748Y0099977D01*
X0236406Y0099779D01*
X0236296Y0099669D01*
X0234513Y0099669D01*
X0234472Y0099629D01*
X0234432Y0099669D01*
X0232649Y0099669D01*
X0232539Y0099779D01*
X0232197Y0099977D01*
X0231816Y0100079D01*
X0230929Y0100079D01*
X0230043Y0100079D01*
X0229661Y0099977D01*
X0229319Y0099779D01*
X0229209Y0099669D01*
X0227426Y0099669D01*
X0227386Y0099629D01*
X0227345Y0099669D01*
X0225562Y0099669D01*
X0225453Y0099779D01*
X0225110Y0099977D01*
X0224729Y0100079D01*
X0223843Y0100079D01*
X0223843Y0094642D01*
X0223842Y0094642D01*
X0223842Y0100079D01*
X0222956Y0100079D01*
X0222575Y0099977D01*
X0222233Y0099779D01*
X0222123Y0099669D01*
X0220340Y0099669D01*
X0219701Y0099030D01*
X0219701Y0090968D01*
X0219009Y0090968D01*
X0218102Y0090593D01*
X0217407Y0089898D01*
X0217031Y0088991D01*
X0217031Y0088009D01*
X0217407Y0087102D01*
X0218102Y0086407D01*
X0219009Y0086031D01*
X0219991Y0086031D01*
X0220898Y0086407D01*
X0221593Y0087102D01*
X0221968Y0088009D01*
X0221968Y0088719D01*
X0222563Y0089314D01*
X0222575Y0089307D01*
X0222956Y0089205D01*
X0223842Y0089205D01*
X0223842Y0094642D01*
X0223843Y0094642D01*
X0223843Y0089205D01*
X0223955Y0089205D01*
X0209141Y0074391D01*
X0208209Y0073459D01*
X0208209Y0070282D01*
X0207898Y0070593D01*
X0206991Y0070968D01*
X0206009Y0070968D01*
X0205102Y0070593D01*
X0204407Y0069898D01*
X0204031Y0068991D01*
X0204031Y0068009D01*
X0204120Y0067795D01*
X0203764Y0067795D01*
X0203764Y0062358D01*
X0203764Y0056921D01*
X0203764Y0062358D01*
X0203764Y0062358D01*
X0203764Y0062358D01*
X0203764Y0067795D01*
X0202877Y0067795D01*
X0202496Y0067693D01*
X0202154Y0067496D01*
X0202044Y0067386D01*
X0200261Y0067386D01*
X0200220Y0067345D01*
X0200180Y0067386D01*
X0198397Y0067386D01*
X0198287Y0067496D01*
X0197945Y0067693D01*
X0197564Y0067795D01*
X0196677Y0067795D01*
X0195905Y0067795D01*
X0195905Y0068344D01*
X0194974Y0069276D01*
X0189159Y0075091D01*
X0131159Y0075091D01*
X0119772Y0086478D01*
X0119772Y0087441D01*
X0118441Y0088772D01*
X0116559Y0088772D01*
X0115500Y0087713D01*
X0114441Y0088772D01*
X0112559Y0088772D01*
X0111228Y0087441D01*
X0111228Y0085559D01*
X0112559Y0084228D01*
X0113522Y0084228D01*
X0126909Y0070841D01*
X0127841Y0069909D01*
X0186841Y0069909D01*
X0188955Y0067795D01*
X0188704Y0067795D01*
X0188323Y0067693D01*
X0187981Y0067496D01*
X0187871Y0067386D01*
X0186088Y0067386D01*
X0186047Y0067345D01*
X0186007Y0067386D01*
X0184224Y0067386D01*
X0184114Y0067496D01*
X0183772Y0067693D01*
X0183390Y0067795D01*
X0182504Y0067795D01*
X0182504Y0062358D01*
X0182504Y0056921D01*
X0182504Y0062358D01*
X0182504Y0062358D01*
X0182504Y0062358D01*
X0182504Y0067795D01*
X0181617Y0067795D01*
X0181236Y0067693D01*
X0180894Y0067496D01*
X0180784Y0067386D01*
X0179001Y0067386D01*
X0178961Y0067345D01*
X0178920Y0067386D01*
X0177137Y0067386D01*
X0177027Y0067496D01*
X0176685Y0067693D01*
X0176304Y0067795D01*
X0175417Y0067795D01*
X0174531Y0067795D01*
X0174149Y0067693D01*
X0173807Y0067496D01*
X0173698Y0067386D01*
X0171914Y0067386D01*
X0171874Y0067345D01*
X0171834Y0067386D01*
X0170050Y0067386D01*
X0169941Y0067496D01*
X0169599Y0067693D01*
X0169217Y0067795D01*
X0168331Y0067795D01*
X0168331Y0062358D01*
X0168331Y0056921D01*
X0168331Y0062358D01*
X0168331Y0062358D01*
X0168331Y0062358D01*
X0168331Y0067795D01*
X0167444Y0067795D01*
X0167063Y0067693D01*
X0166721Y0067496D01*
X0166611Y0067386D01*
X0164828Y0067386D01*
X0164787Y0067345D01*
X0164747Y0067386D01*
X0162964Y0067386D01*
X0162854Y0067496D01*
X0162512Y0067693D01*
X0162131Y0067795D01*
X0161244Y0067795D01*
X0160358Y0067795D01*
X0159976Y0067693D01*
X0159634Y0067496D01*
X0159524Y0067386D01*
X0157741Y0067386D01*
X0157701Y0067345D01*
X0157660Y0067386D01*
X0155877Y0067386D01*
X0155767Y0067496D01*
X0155425Y0067693D01*
X0155044Y0067795D01*
X0154158Y0067795D01*
X0154158Y0062358D01*
X0154157Y0062358D01*
X0154157Y0067795D01*
X0153271Y0067795D01*
X0152890Y0067693D01*
X0152547Y0067496D01*
X0152438Y0067386D01*
X0150655Y0067386D01*
X0150614Y0067345D01*
X0150574Y0067386D01*
X0148791Y0067386D01*
X0148681Y0067496D01*
X0148339Y0067693D01*
X0147957Y0067795D01*
X0147071Y0067795D01*
X0147071Y0062358D01*
X0147071Y0056921D01*
X0147071Y0062358D01*
X0147071Y0062358D01*
X0147071Y0062358D01*
X0147071Y0067795D01*
X0146184Y0067795D01*
X0145803Y0067693D01*
X0145461Y0067496D01*
X0145351Y0067386D01*
X0143568Y0067386D01*
X0143528Y0067345D01*
X0143487Y0067386D01*
X0141704Y0067386D01*
X0141594Y0067496D01*
X0141252Y0067693D01*
X0140871Y0067795D01*
X0139984Y0067795D01*
X0139098Y0067795D01*
X0138716Y0067693D01*
X0138374Y0067496D01*
X0138265Y0067386D01*
X0136481Y0067386D01*
X0136441Y0067345D01*
X0136401Y0067386D01*
X0134617Y0067386D01*
X0134508Y0067496D01*
X0134166Y0067693D01*
X0133784Y0067795D01*
X0132898Y0067795D01*
X0132898Y0062358D01*
X0132898Y0056921D01*
X0132898Y0062358D01*
X0132898Y0062358D01*
X0132898Y0062358D01*
X0132898Y0067795D01*
X0132011Y0067795D01*
X0131630Y0067693D01*
X0131288Y0067496D01*
X0131178Y0067386D01*
X0129395Y0067386D01*
X0129354Y0067345D01*
X0129314Y0067386D01*
X0127531Y0067386D01*
X0127421Y0067496D01*
X0127079Y0067693D01*
X0126697Y0067795D01*
X0125811Y0067795D01*
X0124925Y0067795D01*
X0124543Y0067693D01*
X0124201Y0067496D01*
X0124091Y0067386D01*
X0122308Y0067386D01*
X0122268Y0067345D01*
X0122227Y0067386D01*
X0120444Y0067386D01*
X0120334Y0067496D01*
X0119992Y0067693D01*
X0119611Y0067795D01*
X0118724Y0067795D01*
X0117838Y0067795D01*
X0117456Y0067693D01*
X0117114Y0067496D01*
X0117005Y0067386D01*
X0115222Y0067386D01*
X0115181Y0067345D01*
X0115141Y0067386D01*
X0113358Y0067386D01*
X0113248Y0067496D01*
X0112906Y0067693D01*
X0112524Y0067795D01*
X0111917Y0067795D01*
X0112323Y0068774D01*
X0112323Y0070226D01*
X0111767Y0071567D01*
X0110961Y0072374D01*
X0110961Y0076501D01*
X0110509Y0077592D01*
X0104928Y0083174D01*
X0104092Y0084009D01*
X0103001Y0084461D01*
X0096545Y0084461D01*
X0097517Y0085433D01*
X0098073Y0086774D01*
X0098073Y0088226D01*
X0097611Y0089341D01*
X0097893Y0089504D01*
X0098003Y0089614D01*
X0099786Y0089614D01*
X0099827Y0089655D01*
X0099867Y0089614D01*
X0102149Y0089614D01*
X0102189Y0089655D01*
X0102229Y0089614D01*
X0104511Y0089614D01*
X0104551Y0089655D01*
X0104592Y0089614D01*
X0106873Y0089614D01*
X0106913Y0089655D01*
X0106954Y0089614D01*
X0108737Y0089614D01*
X0108847Y0089504D01*
X0109189Y0089307D01*
X0109570Y0089205D01*
X0110457Y0089205D01*
X0111343Y0089205D01*
X0111725Y0089307D01*
X0112067Y0089504D01*
X0112176Y0089614D01*
X0113960Y0089614D01*
X0114000Y0089655D01*
X0114040Y0089614D01*
X0116322Y0089614D01*
X0116362Y0089655D01*
X0116403Y0089614D01*
X0118684Y0089614D01*
X0118724Y0089655D01*
X0118765Y0089614D01*
X0121046Y0089614D01*
X0121087Y0089655D01*
X0121127Y0089614D01*
X0122910Y0089614D01*
X0123020Y0089504D01*
X0123362Y0089307D01*
X0123743Y0089205D01*
X0124630Y0089205D01*
X0125516Y0089205D01*
X0125898Y0089307D01*
X0126240Y0089504D01*
X0126350Y0089614D01*
X0128133Y0089614D01*
X0128173Y0089655D01*
X0128214Y0089614D01*
X0129997Y0089614D01*
X0130107Y0089504D01*
X0130449Y0089307D01*
X0130830Y0089205D01*
X0131716Y0089205D01*
X0131716Y0094642D01*
X0131716Y0100079D01*
X0130830Y0100079D01*
X0130806Y0100072D01*
X0132500Y0101766D01*
X0134597Y0099669D01*
X0133436Y0099669D01*
X0133327Y0099779D01*
X0132984Y0099977D01*
X0132603Y0100079D01*
X0131717Y0100079D01*
X0131717Y0094642D01*
X0131716Y0094642D01*
X0131717Y0094642D01*
X0131717Y0089205D01*
X0132603Y0089205D01*
X0132984Y0089307D01*
X0133327Y0089504D01*
X0133436Y0089614D01*
X0135219Y0089614D01*
X0135260Y0089655D01*
X0135300Y0089614D01*
X0137083Y0089614D01*
X0137193Y0089504D01*
X0137535Y0089307D01*
X0137917Y0089205D01*
X0138803Y0089205D01*
X0138803Y0094642D01*
X0138803Y0094642D01*
X0138803Y0089205D01*
X0139690Y0089205D01*
X0140071Y0089307D01*
X0140413Y0089504D01*
X0140523Y0089614D01*
X0142306Y0089614D01*
X0142346Y0089655D01*
X0142387Y0089614D01*
X0144170Y0089614D01*
X0144280Y0089504D01*
X0144622Y0089307D01*
X0145003Y0089205D01*
X0145890Y0089205D01*
X0146661Y0089205D01*
X0146661Y0089174D01*
X0145928Y0088441D01*
X0145928Y0086559D01*
X0146397Y0086091D01*
X0132159Y0086091D01*
X0131772Y0086478D01*
X0131772Y0087441D01*
X0130441Y0088772D01*
X0128559Y0088772D01*
X0127500Y0087713D01*
X0126441Y0088772D01*
X0124559Y0088772D01*
X0123228Y0087441D01*
X0123228Y0085559D01*
X0124559Y0084228D01*
X0125522Y0084228D01*
X0127909Y0081841D01*
X0128841Y0080909D01*
X0168159Y0080909D01*
X0172533Y0085283D01*
X0173465Y0086215D01*
X0173465Y0089205D01*
X0174236Y0089205D01*
X0174236Y0094642D01*
X0174236Y0100079D01*
X0173350Y0100079D01*
X0172968Y0099977D01*
X0172626Y0099779D01*
X0172516Y0099669D01*
X0170733Y0099669D01*
X0170693Y0099629D01*
X0170652Y0099669D01*
X0168869Y0099669D01*
X0168760Y0099779D01*
X0168418Y0099977D01*
X0168036Y0100079D01*
X0167150Y0100079D01*
X0167150Y0094642D01*
X0167150Y0094642D01*
X0167150Y0100079D01*
X0166263Y0100079D01*
X0165882Y0099977D01*
X0165540Y0099779D01*
X0165430Y0099669D01*
X0163647Y0099669D01*
X0163606Y0099629D01*
X0163566Y0099669D01*
X0161783Y0099669D01*
X0161673Y0099779D01*
X0161331Y0099977D01*
X0160949Y0100079D01*
X0160063Y0100079D01*
X0160063Y0094642D01*
X0160063Y0094642D01*
X0160063Y0100079D01*
X0159291Y0100079D01*
X0159291Y0103472D01*
X0161023Y0103472D01*
X0161662Y0104111D01*
X0161662Y0107771D01*
X0161150Y0108283D01*
X0161151Y0108283D01*
X0161493Y0108481D01*
X0161772Y0108760D01*
X0161969Y0109102D01*
X0162072Y0109484D01*
X0162072Y0110870D01*
X0158989Y0110870D01*
X0158989Y0111248D01*
X0162072Y0111248D01*
X0162072Y0112634D01*
X0161969Y0113016D01*
X0161772Y0113358D01*
X0161493Y0113637D01*
X0161151Y0113835D01*
X0160769Y0113937D01*
X0158989Y0113937D01*
X0158989Y0111248D01*
X0158611Y0111248D01*
X0158611Y0110870D01*
X0155528Y0110870D01*
X0154389Y0110870D01*
X0154389Y0111248D01*
X0158611Y0111248D01*
X0158611Y0113937D01*
X0156831Y0113937D01*
X0156500Y0113848D01*
X0156169Y0113937D01*
X0154389Y0113937D01*
X0154389Y0111248D01*
X0154011Y0111248D01*
X0154011Y0110870D01*
X0150928Y0110870D01*
X0150928Y0109484D01*
X0151031Y0109102D01*
X0151228Y0108760D01*
X0151507Y0108481D01*
X0151849Y0108283D01*
X0151850Y0108283D01*
X0151338Y0107771D01*
X0151338Y0104111D01*
X0151977Y0103472D01*
X0153748Y0103472D01*
X0153748Y0100079D01*
X0152976Y0100079D01*
X0152090Y0100079D01*
X0151708Y0099977D01*
X0151366Y0099779D01*
X0151257Y0099669D01*
X0149473Y0099669D01*
X0149433Y0099629D01*
X0149393Y0099669D01*
X0147609Y0099669D01*
X0147500Y0099779D01*
X0147158Y0099977D01*
X0146776Y0100079D01*
X0145890Y0100079D01*
X0145890Y0094642D01*
X0145890Y0094642D01*
X0145890Y0100079D01*
X0145003Y0100079D01*
X0144622Y0099977D01*
X0144280Y0099779D01*
X0144170Y0099669D01*
X0142387Y0099669D01*
X0142346Y0099629D01*
X0142306Y0099669D01*
X0140523Y0099669D01*
X0140463Y0099729D01*
X0142968Y0102235D01*
X0142968Y0106765D01*
X0139765Y0109968D01*
X0135235Y0109968D01*
X0132500Y0107234D01*
X0129765Y0109968D01*
X0125235Y0109968D01*
X0122031Y0106765D01*
X0122031Y0102235D01*
X0124188Y0100079D01*
X0123743Y0100079D01*
X0123362Y0099977D01*
X0123020Y0099779D01*
X0122910Y0099669D01*
X0121127Y0099669D01*
X0121087Y0099629D01*
X0121046Y0099669D01*
X0118765Y0099669D01*
X0118724Y0099629D01*
X0118684Y0099669D01*
X0116403Y0099669D01*
X0116362Y0099629D01*
X0116322Y0099669D01*
X0114040Y0099669D01*
X0114000Y0099629D01*
X0113960Y0099669D01*
X0112176Y0099669D01*
X0112067Y0099779D01*
X0111725Y0099977D01*
X0111343Y0100079D01*
X0110457Y0100079D01*
X0110457Y0094642D01*
X0110457Y0094642D01*
X0110457Y0100079D01*
X0109570Y0100079D01*
X0109189Y0099977D01*
X0108847Y0099779D01*
X0108737Y0099669D01*
X0106954Y0099669D01*
X0106913Y0099629D01*
X0106873Y0099669D01*
X0104592Y0099669D01*
X0104551Y0099629D01*
X0104511Y0099669D01*
X0102229Y0099669D01*
X0102189Y0099629D01*
X0102149Y0099669D01*
X0099867Y0099669D01*
X0099827Y0099629D01*
X0099786Y0099669D01*
X0098003Y0099669D01*
X0097893Y0099779D01*
X0097551Y0099977D01*
X0097170Y0100079D01*
X0096601Y0100079D01*
X0096009Y0100671D01*
X0095101Y0101047D01*
X0092741Y0101047D01*
X0092740Y0101047D01*
X0092739Y0101047D01*
X0090379Y0101047D01*
X0089472Y0100671D01*
X0089197Y0100396D01*
X0088922Y0100671D01*
X0088015Y0101047D01*
X0085655Y0101047D01*
X0085654Y0101047D01*
X0085652Y0101047D01*
X0083292Y0101047D01*
X0082385Y0100671D01*
X0082110Y0100396D01*
X0081835Y0100671D01*
X0080928Y0101047D01*
X0078568Y0101047D01*
X0078567Y0101047D01*
X0078566Y0101047D01*
X0076206Y0101047D01*
X0075299Y0100671D01*
X0074706Y0100079D01*
X0074137Y0100079D01*
X0073756Y0099977D01*
X0073414Y0099779D01*
X0073304Y0099669D01*
X0071521Y0099669D01*
X0071480Y0099629D01*
X0071440Y0099669D01*
X0069159Y0099669D01*
X0069118Y0099629D01*
X0069078Y0099669D01*
X0066796Y0099669D01*
X0066756Y0099629D01*
X0066715Y0099669D01*
X0064434Y0099669D01*
X0064394Y0099629D01*
X0064353Y0099669D01*
X0062570Y0099669D01*
X0062460Y0099779D01*
X0062118Y0099977D01*
X0061737Y0100079D01*
X0060850Y0100079D01*
X0060752Y0100079D01*
X0061391Y0100717D01*
X0063391Y0102717D01*
X0063391Y0106110D01*
X0064904Y0106110D01*
X0065543Y0106749D01*
X0065543Y0112771D01*
X0064904Y0113409D01*
X0058096Y0113409D01*
X0057457Y0112771D01*
X0057457Y0106749D01*
X0058096Y0106110D01*
X0059609Y0106110D01*
X0059609Y0104283D01*
X0058717Y0103391D01*
X0051564Y0103391D01*
X0052391Y0104217D01*
X0052391Y0106110D01*
X0054904Y0106110D01*
X0055543Y0106749D01*
X0055543Y0112771D01*
X0054904Y0113409D01*
X0048096Y0113409D01*
X0047457Y0112771D01*
X0047457Y0106891D01*
X0029359Y0106891D01*
X0028251Y0105783D01*
X0028251Y0099669D01*
X0027391Y0099669D01*
X0027391Y0105717D01*
X0030283Y0108609D01*
X0038283Y0108609D01*
X0039391Y0109717D01*
X0043391Y0113717D01*
X0043391Y0114110D01*
X0044904Y0114110D01*
X0045543Y0114749D01*
X0045543Y0120771D01*
X0044904Y0121409D01*
X0038096Y0121409D01*
X0037457Y0120771D01*
X0037457Y0114749D01*
X0038096Y0114110D01*
X0038437Y0114110D01*
X0036717Y0112391D01*
X0029064Y0112391D01*
X0030784Y0114110D01*
X0034904Y0114110D01*
X0035543Y0114749D01*
X0035543Y0120771D01*
X0034904Y0121409D01*
X0028096Y0121409D01*
X0027457Y0120771D01*
X0027457Y0116130D01*
X0019717Y0108391D01*
X0018609Y0107283D01*
X0018609Y0099669D01*
X0017190Y0099669D01*
X0016551Y0099030D01*
X0016551Y0095536D01*
X0016440Y0095425D01*
X0016440Y0089235D01*
X0016197Y0088968D01*
X0016009Y0088968D01*
X0015102Y0088593D01*
X0014407Y0087898D01*
X0014031Y0086991D01*
X0014031Y0086009D01*
X0014407Y0085102D01*
X0015102Y0084407D01*
X0016009Y0084031D01*
X0016991Y0084031D01*
X0017898Y0084407D01*
X0018593Y0085102D01*
X0018802Y0085608D01*
X0018802Y0077524D01*
X0019983Y0076343D01*
X0019983Y0067386D01*
X0018371Y0067386D01*
X0017732Y0066747D01*
X0017732Y0063252D01*
X0017609Y0063130D01*
X0017609Y0061563D01*
X0017732Y0061441D01*
X0017732Y0057970D01*
X0018371Y0057331D01*
X0020652Y0057331D01*
X0020693Y0057371D01*
X0020733Y0057331D01*
X0022516Y0057331D01*
X0022626Y0057221D01*
X0022968Y0057023D01*
X0023350Y0056921D01*
X0024236Y0056921D01*
X0024236Y0062358D01*
X0024236Y0062358D01*
X0024236Y0056921D01*
X0025123Y0056921D01*
X0025504Y0057023D01*
X0025846Y0057221D01*
X0025956Y0057331D01*
X0027739Y0057331D01*
X0027780Y0057371D01*
X0027820Y0057331D01*
X0030101Y0057331D01*
X0030142Y0057371D01*
X0030182Y0057331D01*
X0031965Y0057331D01*
X0032075Y0057221D01*
X0032417Y0057023D01*
X0032799Y0056921D01*
X0033685Y0056921D01*
X0033685Y0062358D01*
X0033685Y0062358D01*
X0033685Y0056921D01*
X0034571Y0056921D01*
X0034953Y0057023D01*
X0035295Y0057221D01*
X0035405Y0057331D01*
X0037188Y0057331D01*
X0037228Y0057371D01*
X0037269Y0057331D01*
X0039052Y0057331D01*
X0039162Y0057221D01*
X0039504Y0057023D01*
X0039885Y0056921D01*
X0040772Y0056921D01*
X0041658Y0056921D01*
X0042040Y0057023D01*
X0042382Y0057221D01*
X0042491Y0057331D01*
X0044275Y0057331D01*
X0044315Y0057371D01*
X0044355Y0057331D01*
X0046637Y0057331D01*
X0046677Y0057371D01*
X0046718Y0057331D01*
X0048999Y0057331D01*
X0049039Y0057371D01*
X0049080Y0057331D01*
X0051361Y0057331D01*
X0051402Y0057371D01*
X0051442Y0057331D01*
X0053225Y0057331D01*
X0053335Y0057221D01*
X0053677Y0057023D01*
X0054058Y0056921D01*
X0054627Y0056921D01*
X0055220Y0056329D01*
X0056127Y0055953D01*
X0058487Y0055953D01*
X0058488Y0055953D01*
X0058489Y0055953D01*
X0060849Y0055953D01*
X0061425Y0056191D01*
X0061425Y0056124D01*
X0061639Y0055607D01*
X0061639Y0055241D01*
X0057991Y0051592D01*
X0057539Y0050501D01*
X0057539Y0038499D01*
X0057991Y0037407D01*
X0058826Y0036572D01*
X0060398Y0035001D01*
X0060077Y0034226D01*
X0060077Y0032774D01*
X0060633Y0031433D01*
X0061659Y0030406D01*
X0060623Y0031455D02*
X0003968Y0031455D01*
X0003968Y0032454D02*
X0060210Y0032454D01*
X0060077Y0033452D02*
X0003968Y0033452D01*
X0003968Y0034451D02*
X0060170Y0034451D01*
X0059949Y0035449D02*
X0003968Y0035449D01*
X0003968Y0036448D02*
X0058951Y0036448D01*
X0057975Y0037446D02*
X0003968Y0037446D01*
X0003968Y0038445D02*
X0057562Y0038445D01*
X0057539Y0039443D02*
X0003968Y0039443D01*
X0003968Y0040442D02*
X0057539Y0040442D01*
X0057539Y0041440D02*
X0003968Y0041440D01*
X0003968Y0042439D02*
X0057539Y0042439D01*
X0057539Y0043437D02*
X0003968Y0043437D01*
X0003968Y0044436D02*
X0057539Y0044436D01*
X0057539Y0045434D02*
X0003968Y0045434D01*
X0003968Y0046433D02*
X0057539Y0046433D01*
X0057539Y0047432D02*
X0003968Y0047432D01*
X0003968Y0048430D02*
X0057539Y0048430D01*
X0057539Y0049429D02*
X0003968Y0049429D01*
X0003968Y0050427D02*
X0057539Y0050427D01*
X0057922Y0051426D02*
X0003968Y0051426D01*
X0003968Y0052424D02*
X0058823Y0052424D01*
X0059821Y0053423D02*
X0003968Y0053423D01*
X0003968Y0054421D02*
X0060820Y0054421D01*
X0060500Y0055500D02*
X0059600Y0055500D01*
X0057850Y0053750D01*
X0054945Y0056655D01*
X0054945Y0062358D01*
X0057307Y0062358D02*
X0057307Y0069102D01*
X0057705Y0069500D01*
X0057705Y0084500D01*
X0056924Y0084500D01*
X0059295Y0084500D02*
X0060076Y0084500D01*
X0059295Y0084500D02*
X0059295Y0069500D01*
X0059669Y0069126D01*
X0059669Y0062358D01*
X0062031Y0062358D02*
X0062031Y0057031D01*
X0060500Y0055500D01*
X0061639Y0055420D02*
X0003968Y0055420D01*
X0003968Y0056418D02*
X0055130Y0056418D01*
X0060508Y0049911D02*
X0064608Y0054011D01*
X0064608Y0056500D01*
X0064394Y0056714D01*
X0064394Y0062358D01*
X0066756Y0062358D02*
X0066756Y0056664D01*
X0066592Y0056500D01*
X0066592Y0053189D01*
X0062492Y0049089D01*
X0062492Y0039911D01*
X0066392Y0036011D01*
X0066392Y0033500D01*
X0067073Y0033500D01*
X0064408Y0033500D02*
X0064408Y0035189D01*
X0060508Y0039089D01*
X0060508Y0049911D01*
X0065461Y0047432D02*
X0066539Y0047432D01*
X0066539Y0046433D02*
X0065461Y0046433D01*
X0065461Y0045434D02*
X0066539Y0045434D01*
X0066539Y0044436D02*
X0065461Y0044436D01*
X0065461Y0043437D02*
X0066539Y0043437D01*
X0066539Y0042439D02*
X0065461Y0042439D01*
X0065461Y0041440D02*
X0066563Y0041440D01*
X0066159Y0040442D02*
X0066977Y0040442D01*
X0067158Y0039443D02*
X0067955Y0039443D01*
X0068156Y0038445D02*
X0068954Y0038445D01*
X0069011Y0037446D02*
X0069952Y0037446D01*
X0069361Y0036448D02*
X0070951Y0036448D01*
X0070216Y0035449D02*
X0071949Y0035449D01*
X0071970Y0034451D02*
X0070630Y0034451D01*
X0070723Y0033452D02*
X0071877Y0033452D01*
X0072010Y0032454D02*
X0070590Y0032454D01*
X0070177Y0031455D02*
X0072423Y0031455D01*
X0073409Y0030457D02*
X0069191Y0030457D01*
X0064408Y0033500D02*
X0063727Y0033500D01*
X0069508Y0042089D02*
X0076208Y0035389D01*
X0076208Y0033500D01*
X0075527Y0033500D01*
X0078192Y0033500D02*
X0078192Y0036211D01*
X0071492Y0042911D01*
X0071492Y0046089D01*
X0073592Y0048189D01*
X0073592Y0054600D01*
X0073843Y0054850D01*
X0073843Y0062358D01*
X0076205Y0062358D02*
X0076205Y0069205D01*
X0076500Y0069500D01*
X0069500Y0069500D01*
X0065350Y0069500D01*
X0064450Y0070400D01*
X0062638Y0069716D02*
X0062264Y0070619D01*
X0062264Y0081526D01*
X0063170Y0082433D01*
X0063726Y0083774D01*
X0063726Y0085226D01*
X0063170Y0086567D01*
X0062144Y0087594D01*
X0060802Y0088150D01*
X0059350Y0088150D01*
X0058500Y0087797D01*
X0057650Y0088150D01*
X0056198Y0088150D01*
X0054856Y0087594D01*
X0053830Y0086567D01*
X0053274Y0085226D01*
X0053274Y0083774D01*
X0053830Y0082433D01*
X0054736Y0081526D01*
X0054736Y0070653D01*
X0054339Y0069693D01*
X0054339Y0067795D01*
X0054058Y0067795D01*
X0053677Y0067693D01*
X0053335Y0067496D01*
X0053225Y0067386D01*
X0051442Y0067386D01*
X0051402Y0067345D01*
X0051361Y0067386D01*
X0049080Y0067386D01*
X0049039Y0067345D01*
X0048999Y0067386D01*
X0046718Y0067386D01*
X0046677Y0067345D01*
X0046637Y0067386D01*
X0044355Y0067386D01*
X0044315Y0067345D01*
X0044275Y0067386D01*
X0042491Y0067386D01*
X0042382Y0067496D01*
X0042040Y0067693D01*
X0041658Y0067795D01*
X0040772Y0067795D01*
X0040772Y0062358D01*
X0040772Y0056921D01*
X0040772Y0062358D01*
X0040772Y0062358D01*
X0040772Y0062358D01*
X0040772Y0067795D01*
X0040300Y0067795D01*
X0040300Y0079374D01*
X0039119Y0080555D01*
X0039119Y0082900D01*
X0039321Y0083102D01*
X0039697Y0084009D01*
X0039697Y0084991D01*
X0039321Y0085898D01*
X0039119Y0086100D01*
X0039119Y0089205D01*
X0039590Y0089205D01*
X0039590Y0094642D01*
X0039591Y0094642D01*
X0039591Y0089205D01*
X0040477Y0089205D01*
X0040859Y0089307D01*
X0041201Y0089504D01*
X0041310Y0089614D01*
X0043093Y0089614D01*
X0043134Y0089655D01*
X0043174Y0089614D01*
X0045456Y0089614D01*
X0045496Y0089655D01*
X0045536Y0089614D01*
X0047818Y0089614D01*
X0047858Y0089655D01*
X0047899Y0089614D01*
X0050180Y0089614D01*
X0050220Y0089655D01*
X0050261Y0089614D01*
X0052044Y0089614D01*
X0052154Y0089504D01*
X0052496Y0089307D01*
X0052877Y0089205D01*
X0053764Y0089205D01*
X0054650Y0089205D01*
X0055032Y0089307D01*
X0055374Y0089504D01*
X0055484Y0089614D01*
X0057267Y0089614D01*
X0057307Y0089655D01*
X0057347Y0089614D01*
X0059131Y0089614D01*
X0059240Y0089504D01*
X0059582Y0089307D01*
X0059964Y0089205D01*
X0060850Y0089205D01*
X0060850Y0094642D01*
X0060850Y0100079D01*
X0060850Y0094642D01*
X0060850Y0094642D01*
X0060850Y0094642D01*
X0060850Y0089205D01*
X0061737Y0089205D01*
X0062118Y0089307D01*
X0062460Y0089504D01*
X0062570Y0089614D01*
X0064353Y0089614D01*
X0064394Y0089655D01*
X0064434Y0089614D01*
X0066715Y0089614D01*
X0066756Y0089655D01*
X0066796Y0089614D01*
X0069078Y0089614D01*
X0069118Y0089655D01*
X0069159Y0089614D01*
X0071440Y0089614D01*
X0071480Y0089655D01*
X0071521Y0089614D01*
X0073304Y0089614D01*
X0073414Y0089504D01*
X0073756Y0089307D01*
X0074137Y0089205D01*
X0074417Y0089205D01*
X0074417Y0087832D01*
X0074639Y0087296D01*
X0074639Y0079399D01*
X0075091Y0078307D01*
X0075926Y0077472D01*
X0075926Y0077472D01*
X0082407Y0070991D01*
X0083499Y0070539D01*
X0094807Y0070539D01*
X0094677Y0070226D01*
X0094677Y0068774D01*
X0095233Y0067433D01*
X0095280Y0067386D01*
X0093962Y0067386D01*
X0093921Y0067345D01*
X0093881Y0067386D01*
X0092098Y0067386D01*
X0091988Y0067496D01*
X0091646Y0067693D01*
X0091264Y0067795D01*
X0090378Y0067795D01*
X0090378Y0062358D01*
X0090378Y0056921D01*
X0090378Y0062358D01*
X0090378Y0062358D01*
X0090378Y0062358D01*
X0090378Y0067795D01*
X0089491Y0067795D01*
X0089110Y0067693D01*
X0088768Y0067496D01*
X0088658Y0067386D01*
X0086875Y0067386D01*
X0086835Y0067345D01*
X0086794Y0067386D01*
X0085011Y0067386D01*
X0084901Y0067496D01*
X0084559Y0067693D01*
X0084178Y0067795D01*
X0083609Y0067795D01*
X0083016Y0068388D01*
X0082109Y0068764D01*
X0079749Y0068764D01*
X0079748Y0068763D01*
X0079747Y0068764D01*
X0077387Y0068764D01*
X0076480Y0068388D01*
X0076205Y0068113D01*
X0075930Y0068388D01*
X0075023Y0068764D01*
X0072663Y0068764D01*
X0072661Y0068763D01*
X0072660Y0068764D01*
X0070300Y0068764D01*
X0069393Y0068388D01*
X0069118Y0068113D01*
X0068843Y0068388D01*
X0067936Y0068764D01*
X0065576Y0068764D01*
X0065575Y0068763D01*
X0065574Y0068764D01*
X0063214Y0068764D01*
X0062638Y0068525D01*
X0062638Y0069716D01*
X0062638Y0069399D02*
X0094677Y0069399D01*
X0094748Y0070397D02*
X0062356Y0070397D01*
X0062264Y0071396D02*
X0082003Y0071396D01*
X0081004Y0072394D02*
X0062264Y0072394D01*
X0062264Y0073393D02*
X0080006Y0073393D01*
X0079007Y0074391D02*
X0062264Y0074391D01*
X0062264Y0075390D02*
X0078009Y0075390D01*
X0077010Y0076388D02*
X0062264Y0076388D01*
X0062264Y0077387D02*
X0076012Y0077387D01*
X0075059Y0078385D02*
X0062264Y0078385D01*
X0062264Y0079384D02*
X0074645Y0079384D01*
X0074639Y0080382D02*
X0062264Y0080382D01*
X0062264Y0081381D02*
X0074639Y0081381D01*
X0074639Y0082379D02*
X0063117Y0082379D01*
X0063562Y0083378D02*
X0074639Y0083378D01*
X0074639Y0084376D02*
X0063726Y0084376D01*
X0063664Y0085375D02*
X0074639Y0085375D01*
X0074639Y0086373D02*
X0063251Y0086373D01*
X0062366Y0087372D02*
X0074608Y0087372D01*
X0074417Y0088370D02*
X0039119Y0088370D01*
X0039119Y0087372D02*
X0054634Y0087372D01*
X0053749Y0086373D02*
X0039119Y0086373D01*
X0039538Y0085375D02*
X0053336Y0085375D01*
X0053274Y0084376D02*
X0039697Y0084376D01*
X0039435Y0083378D02*
X0053438Y0083378D01*
X0053883Y0082379D02*
X0039119Y0082379D01*
X0039119Y0081381D02*
X0054736Y0081381D01*
X0054736Y0080382D02*
X0039291Y0080382D01*
X0040290Y0079384D02*
X0054736Y0079384D01*
X0054736Y0078385D02*
X0040300Y0078385D01*
X0040300Y0077387D02*
X0054736Y0077387D01*
X0054736Y0076388D02*
X0040300Y0076388D01*
X0040300Y0075390D02*
X0054736Y0075390D01*
X0054736Y0074391D02*
X0040300Y0074391D01*
X0040300Y0073393D02*
X0054736Y0073393D01*
X0054736Y0072394D02*
X0040300Y0072394D01*
X0040300Y0071396D02*
X0054736Y0071396D01*
X0054630Y0070397D02*
X0040300Y0070397D01*
X0040300Y0069399D02*
X0054339Y0069399D01*
X0054339Y0068400D02*
X0040300Y0068400D01*
X0040772Y0067402D02*
X0040772Y0067402D01*
X0040772Y0066403D02*
X0040772Y0066403D01*
X0040772Y0065405D02*
X0040772Y0065405D01*
X0040772Y0064406D02*
X0040772Y0064406D01*
X0040772Y0063408D02*
X0040772Y0063408D01*
X0040772Y0062409D02*
X0040772Y0062409D01*
X0040772Y0061411D02*
X0040772Y0061411D01*
X0040772Y0060412D02*
X0040772Y0060412D01*
X0040772Y0059414D02*
X0040772Y0059414D01*
X0040772Y0058415D02*
X0040772Y0058415D01*
X0040772Y0057417D02*
X0040772Y0057417D01*
X0033685Y0057417D02*
X0033685Y0057417D01*
X0033685Y0058415D02*
X0033685Y0058415D01*
X0033685Y0059414D02*
X0033685Y0059414D01*
X0033685Y0060412D02*
X0033685Y0060412D01*
X0033685Y0061411D02*
X0033685Y0061411D01*
X0033685Y0062358D02*
X0033685Y0067795D01*
X0033213Y0067795D01*
X0033213Y0087380D01*
X0033255Y0087427D01*
X0033213Y0088155D01*
X0033213Y0088883D01*
X0033169Y0088928D01*
X0033165Y0088991D01*
X0032925Y0089205D01*
X0033390Y0089205D01*
X0033772Y0089307D01*
X0034114Y0089504D01*
X0034224Y0089614D01*
X0035338Y0089614D01*
X0035338Y0086100D01*
X0035136Y0085898D01*
X0034760Y0084991D01*
X0034760Y0084009D01*
X0035136Y0083102D01*
X0035338Y0082900D01*
X0035338Y0078989D01*
X0036445Y0077881D01*
X0036519Y0077807D01*
X0036519Y0067386D01*
X0035405Y0067386D01*
X0035295Y0067496D01*
X0034953Y0067693D01*
X0034571Y0067795D01*
X0033685Y0067795D01*
X0033685Y0062358D01*
X0033685Y0062358D01*
X0033685Y0062409D02*
X0033685Y0062409D01*
X0033685Y0063408D02*
X0033685Y0063408D01*
X0033685Y0064406D02*
X0033685Y0064406D01*
X0033685Y0065405D02*
X0033685Y0065405D01*
X0033685Y0066403D02*
X0033685Y0066403D01*
X0033685Y0067402D02*
X0033685Y0067402D01*
X0033213Y0068400D02*
X0036519Y0068400D01*
X0036519Y0067402D02*
X0035389Y0067402D01*
X0036519Y0069399D02*
X0033213Y0069399D01*
X0033213Y0070397D02*
X0036519Y0070397D01*
X0036519Y0071396D02*
X0033213Y0071396D01*
X0033213Y0072394D02*
X0036519Y0072394D01*
X0036519Y0073393D02*
X0033213Y0073393D01*
X0033213Y0074391D02*
X0036519Y0074391D01*
X0036519Y0075390D02*
X0033213Y0075390D01*
X0033213Y0076388D02*
X0036519Y0076388D01*
X0036519Y0077387D02*
X0033213Y0077387D01*
X0033213Y0078385D02*
X0035941Y0078385D01*
X0035338Y0079384D02*
X0033213Y0079384D01*
X0033213Y0080382D02*
X0035338Y0080382D01*
X0035338Y0081381D02*
X0033213Y0081381D01*
X0033213Y0082379D02*
X0035338Y0082379D01*
X0035021Y0083378D02*
X0033213Y0083378D01*
X0033213Y0084376D02*
X0034760Y0084376D01*
X0034919Y0085375D02*
X0033213Y0085375D01*
X0033213Y0086373D02*
X0035338Y0086373D01*
X0035338Y0087372D02*
X0033213Y0087372D01*
X0033213Y0088370D02*
X0035338Y0088370D01*
X0035338Y0089369D02*
X0033879Y0089369D01*
X0039590Y0089369D02*
X0039591Y0089369D01*
X0039590Y0090368D02*
X0039591Y0090368D01*
X0039590Y0091366D02*
X0039591Y0091366D01*
X0039590Y0092365D02*
X0039591Y0092365D01*
X0039590Y0093363D02*
X0039591Y0093363D01*
X0039590Y0094362D02*
X0039591Y0094362D01*
X0035338Y0099669D02*
X0034224Y0099669D01*
X0034114Y0099779D01*
X0033772Y0099977D01*
X0033390Y0100079D01*
X0032504Y0100079D01*
X0032504Y0094642D01*
X0032504Y0094642D01*
X0032504Y0100079D01*
X0032032Y0100079D01*
X0032032Y0103109D01*
X0037436Y0103109D01*
X0036445Y0102119D01*
X0035338Y0101011D01*
X0035338Y0099669D01*
X0035338Y0100353D02*
X0032032Y0100353D01*
X0032032Y0101351D02*
X0035677Y0101351D01*
X0036676Y0102350D02*
X0032032Y0102350D01*
X0032504Y0099354D02*
X0032504Y0099354D01*
X0032504Y0098356D02*
X0032504Y0098356D01*
X0032504Y0097357D02*
X0032504Y0097357D01*
X0032504Y0096359D02*
X0032504Y0096359D01*
X0032504Y0095360D02*
X0032504Y0095360D01*
X0028251Y0100353D02*
X0027391Y0100353D01*
X0027391Y0101351D02*
X0028251Y0101351D01*
X0028251Y0102350D02*
X0027391Y0102350D01*
X0027391Y0103348D02*
X0028251Y0103348D01*
X0028251Y0104347D02*
X0027391Y0104347D01*
X0027391Y0105345D02*
X0028251Y0105345D01*
X0028017Y0106344D02*
X0028812Y0106344D01*
X0029016Y0107342D02*
X0047457Y0107342D01*
X0047457Y0108341D02*
X0030014Y0108341D01*
X0030007Y0113333D02*
X0037660Y0113333D01*
X0037874Y0114332D02*
X0035126Y0114332D01*
X0035543Y0115330D02*
X0037457Y0115330D01*
X0037457Y0116329D02*
X0035543Y0116329D01*
X0035543Y0117327D02*
X0037457Y0117327D01*
X0037457Y0118326D02*
X0035543Y0118326D01*
X0035543Y0119324D02*
X0037457Y0119324D01*
X0037457Y0120323D02*
X0035543Y0120323D01*
X0034993Y0121321D02*
X0038007Y0121321D01*
X0038096Y0121591D02*
X0044904Y0121591D01*
X0045543Y0122229D01*
X0045543Y0128251D01*
X0044904Y0128890D01*
X0038096Y0128890D01*
X0037457Y0128251D01*
X0037457Y0127131D01*
X0035543Y0127131D01*
X0035543Y0128251D01*
X0034904Y0128890D01*
X0033391Y0128890D01*
X0033391Y0131900D01*
X0033593Y0132102D01*
X0033968Y0133009D01*
X0033968Y0133991D01*
X0033593Y0134898D01*
X0032898Y0135593D01*
X0031991Y0135968D01*
X0031009Y0135968D01*
X0030102Y0135593D01*
X0029407Y0134898D01*
X0029031Y0133991D01*
X0029031Y0133009D01*
X0029407Y0132102D01*
X0029609Y0131900D01*
X0029609Y0128890D01*
X0028096Y0128890D01*
X0027457Y0128251D01*
X0027457Y0122229D01*
X0028096Y0121591D01*
X0034904Y0121591D01*
X0035543Y0122229D01*
X0035543Y0123350D01*
X0037457Y0123350D01*
X0037457Y0122229D01*
X0038096Y0121591D01*
X0037457Y0122320D02*
X0035543Y0122320D01*
X0035543Y0123318D02*
X0037457Y0123318D01*
X0037457Y0127312D02*
X0035543Y0127312D01*
X0035483Y0128311D02*
X0037517Y0128311D01*
X0033391Y0129309D02*
X0049609Y0129309D01*
X0049609Y0129717D02*
X0049609Y0120890D01*
X0048096Y0120890D01*
X0047457Y0120251D01*
X0047457Y0114229D01*
X0048096Y0113591D01*
X0054904Y0113591D01*
X0055543Y0114229D01*
X0055543Y0120251D01*
X0054904Y0120890D01*
X0053391Y0120890D01*
X0053391Y0131283D01*
X0052283Y0132391D01*
X0043391Y0141283D01*
X0042283Y0142391D01*
X0026899Y0142391D01*
X0026937Y0142531D01*
X0026937Y0144311D01*
X0024248Y0144311D01*
X0024248Y0144689D01*
X0023870Y0144689D01*
X0023870Y0147772D01*
X0022484Y0147772D01*
X0022102Y0147669D01*
X0021760Y0147472D01*
X0021481Y0147193D01*
X0021291Y0146863D01*
X0021291Y0148150D01*
X0022352Y0148150D01*
X0022991Y0148789D01*
X0022991Y0151093D01*
X0022352Y0151731D01*
X0018433Y0151731D01*
X0018704Y0152002D01*
X0020095Y0153269D01*
X0022352Y0153269D01*
X0022991Y0153907D01*
X0022991Y0156211D01*
X0022352Y0156850D01*
X0017048Y0156850D01*
X0016409Y0156211D01*
X0016409Y0154744D01*
X0015559Y0154744D01*
X0015559Y0155771D01*
X0015047Y0156283D01*
X0015047Y0156283D01*
X0015390Y0156481D01*
X0015669Y0156760D01*
X0015866Y0157102D01*
X0015968Y0157484D01*
X0015968Y0159362D01*
X0012984Y0159362D01*
X0012984Y0160331D01*
X0012016Y0160331D01*
X0012016Y0163512D01*
X0010334Y0163512D01*
X0009953Y0163410D01*
X0009610Y0163212D01*
X0009331Y0162933D01*
X0009134Y0162591D01*
X0009031Y0162209D01*
X0009031Y0160331D01*
X0012016Y0160331D01*
X0012016Y0159362D01*
X0009031Y0159362D01*
X0009031Y0157484D01*
X0009134Y0157102D01*
X0009331Y0156760D01*
X0009610Y0156481D01*
X0009953Y0156283D01*
X0009441Y0155771D01*
X0009441Y0150536D01*
X0010080Y0149898D01*
X0010609Y0149898D01*
X0010609Y0141717D01*
X0011717Y0140609D01*
X0013717Y0138609D01*
X0040717Y0138609D01*
X0049609Y0129717D01*
X0049018Y0130308D02*
X0033391Y0130308D01*
X0033391Y0131306D02*
X0048020Y0131306D01*
X0047021Y0132305D02*
X0033677Y0132305D01*
X0033968Y0133303D02*
X0046023Y0133303D01*
X0045024Y0134302D02*
X0033840Y0134302D01*
X0033190Y0135301D02*
X0044026Y0135301D01*
X0043027Y0136299D02*
X0003968Y0136299D01*
X0003968Y0135301D02*
X0004888Y0135301D01*
X0004839Y0135251D02*
X0005477Y0135890D01*
X0024097Y0135890D01*
X0024736Y0135251D01*
X0024736Y0116237D01*
X0024097Y0115598D01*
X0005477Y0115598D01*
X0004839Y0116237D01*
X0004839Y0135251D01*
X0004839Y0134302D02*
X0003968Y0134302D01*
X0003968Y0133303D02*
X0004839Y0133303D01*
X0004839Y0132305D02*
X0003968Y0132305D01*
X0003968Y0131306D02*
X0004839Y0131306D01*
X0004839Y0130308D02*
X0003968Y0130308D01*
X0003968Y0129309D02*
X0004839Y0129309D01*
X0004839Y0128311D02*
X0003968Y0128311D01*
X0003968Y0127312D02*
X0004839Y0127312D01*
X0004839Y0126314D02*
X0003968Y0126314D01*
X0003968Y0125315D02*
X0004839Y0125315D01*
X0004839Y0124317D02*
X0003968Y0124317D01*
X0003968Y0123318D02*
X0004839Y0123318D01*
X0004839Y0122320D02*
X0003968Y0122320D01*
X0003968Y0121321D02*
X0004839Y0121321D01*
X0004839Y0120323D02*
X0003968Y0120323D01*
X0003968Y0119324D02*
X0004839Y0119324D01*
X0004839Y0118326D02*
X0003968Y0118326D01*
X0003968Y0117327D02*
X0004839Y0117327D01*
X0004839Y0116329D02*
X0003968Y0116329D01*
X0003968Y0115330D02*
X0026657Y0115330D01*
X0027457Y0116329D02*
X0024736Y0116329D01*
X0024736Y0117327D02*
X0027457Y0117327D01*
X0027457Y0118326D02*
X0024736Y0118326D01*
X0024736Y0119324D02*
X0027457Y0119324D01*
X0027457Y0120323D02*
X0024736Y0120323D01*
X0024736Y0121321D02*
X0028007Y0121321D01*
X0027457Y0122320D02*
X0024736Y0122320D01*
X0024736Y0123318D02*
X0027457Y0123318D01*
X0027457Y0124317D02*
X0024736Y0124317D01*
X0024736Y0125315D02*
X0027457Y0125315D01*
X0027457Y0126314D02*
X0024736Y0126314D01*
X0024736Y0127312D02*
X0027457Y0127312D01*
X0027517Y0128311D02*
X0024736Y0128311D01*
X0024736Y0129309D02*
X0029609Y0129309D01*
X0029609Y0130308D02*
X0024736Y0130308D01*
X0024736Y0131306D02*
X0029609Y0131306D01*
X0029323Y0132305D02*
X0024736Y0132305D01*
X0024736Y0133303D02*
X0029031Y0133303D01*
X0029160Y0134302D02*
X0024736Y0134302D01*
X0024687Y0135301D02*
X0029810Y0135301D01*
X0026937Y0143289D02*
X0053472Y0143289D01*
X0053472Y0144287D02*
X0026937Y0144287D01*
X0026937Y0144689D02*
X0026937Y0146469D01*
X0026835Y0146851D01*
X0026637Y0147193D01*
X0026358Y0147472D01*
X0026016Y0147669D01*
X0025634Y0147772D01*
X0024248Y0147772D01*
X0024248Y0144689D01*
X0026937Y0144689D01*
X0026937Y0145286D02*
X0053472Y0145286D01*
X0053472Y0145277D02*
X0053749Y0145000D01*
X0053472Y0144723D01*
X0053472Y0140302D01*
X0053363Y0140193D01*
X0053165Y0139851D01*
X0053063Y0139469D01*
X0053063Y0137689D01*
X0055752Y0137689D01*
X0055752Y0137311D01*
X0056130Y0137311D01*
X0056130Y0134228D01*
X0057516Y0134228D01*
X0057898Y0134331D01*
X0058240Y0134528D01*
X0058519Y0134807D01*
X0058717Y0135149D01*
X0058717Y0135150D01*
X0059229Y0134638D01*
X0062889Y0134638D01*
X0063528Y0135277D01*
X0063528Y0139723D01*
X0063251Y0140000D01*
X0063528Y0140277D01*
X0063528Y0144723D01*
X0063251Y0145000D01*
X0063528Y0145277D01*
X0063528Y0149723D01*
X0062889Y0150362D01*
X0062205Y0150362D01*
X0062205Y0151339D01*
X0062386Y0151339D01*
X0062567Y0151339D01*
X0062567Y0151184D01*
X0063499Y0150252D01*
X0064681Y0149070D01*
X0064453Y0148841D01*
X0064453Y0134159D01*
X0065092Y0133520D01*
X0071901Y0133520D01*
X0072539Y0134159D01*
X0072539Y0142970D01*
X0073102Y0142407D01*
X0074009Y0142031D01*
X0074991Y0142031D01*
X0075898Y0142407D01*
X0076461Y0142970D01*
X0076461Y0134159D01*
X0077099Y0133520D01*
X0077809Y0133520D01*
X0077809Y0129965D01*
X0078219Y0128976D01*
X0078976Y0128219D01*
X0079965Y0127809D01*
X0081035Y0127809D01*
X0082024Y0128219D01*
X0082781Y0128976D01*
X0083191Y0129965D01*
X0083191Y0133520D01*
X0083908Y0133520D01*
X0084409Y0134021D01*
X0084409Y0129686D01*
X0085032Y0128183D01*
X0086183Y0127032D01*
X0087686Y0126409D01*
X0089314Y0126409D01*
X0090817Y0127032D01*
X0091968Y0128183D01*
X0092591Y0129686D01*
X0092591Y0137314D01*
X0091968Y0138817D01*
X0090817Y0139968D01*
X0089314Y0140591D01*
X0087686Y0140591D01*
X0086183Y0139968D01*
X0085032Y0138817D01*
X0084547Y0137646D01*
X0084547Y0148841D01*
X0083908Y0149480D01*
X0083191Y0149480D01*
X0083191Y0154110D01*
X0083904Y0154110D01*
X0084543Y0154749D01*
X0084543Y0160771D01*
X0084031Y0161283D01*
X0084032Y0161283D01*
X0084374Y0161481D01*
X0084653Y0161760D01*
X0084851Y0162102D01*
X0084953Y0162484D01*
X0084953Y0164740D01*
X0081000Y0164740D01*
X0081000Y0165740D01*
X0084953Y0165740D01*
X0084953Y0167997D01*
X0084851Y0168378D01*
X0084653Y0168720D01*
X0084374Y0168999D01*
X0084032Y0169197D01*
X0083650Y0169299D01*
X0081000Y0169299D01*
X0081000Y0165740D01*
X0080000Y0165740D01*
X0080000Y0164740D01*
X0073000Y0164740D01*
X0073000Y0165740D01*
X0076047Y0165740D01*
X0080000Y0165740D01*
X0080000Y0169299D01*
X0077350Y0169299D01*
X0076968Y0169197D01*
X0076626Y0168999D01*
X0076500Y0168873D01*
X0076374Y0168999D01*
X0076032Y0169197D01*
X0075650Y0169299D01*
X0073000Y0169299D01*
X0073000Y0165740D01*
X0072000Y0165740D01*
X0072000Y0164740D01*
X0068047Y0164740D01*
X0068047Y0162484D01*
X0068149Y0162102D01*
X0068347Y0161760D01*
X0068626Y0161481D01*
X0068968Y0161283D01*
X0068969Y0161283D01*
X0068457Y0160771D01*
X0068457Y0156398D01*
X0067512Y0156398D01*
X0067512Y0157123D01*
X0067622Y0157233D01*
X0067819Y0157575D01*
X0067921Y0157956D01*
X0067921Y0161000D01*
X0062000Y0161000D01*
X0062000Y0162000D01*
X0067921Y0162000D01*
X0067921Y0165044D01*
X0067819Y0165425D01*
X0067622Y0165767D01*
X0067512Y0165877D01*
X0067512Y0167526D01*
X0068071Y0168085D01*
X0068047Y0167997D01*
X0068047Y0165740D01*
X0072000Y0165740D01*
X0072000Y0169299D01*
X0069350Y0169299D01*
X0069261Y0169275D01*
X0070308Y0170322D01*
X0071009Y0170031D01*
X0071991Y0170031D01*
X0072898Y0170407D01*
X0073593Y0171102D01*
X0073968Y0172009D01*
X0073968Y0172991D01*
X0073593Y0173898D01*
X0072898Y0174593D01*
X0071991Y0174968D01*
X0071009Y0174968D01*
X0070102Y0174593D01*
X0069600Y0174091D01*
X0069577Y0174091D01*
X0066739Y0171252D01*
X0063976Y0171252D01*
X0063976Y0172638D01*
X0065889Y0172638D01*
X0066528Y0173277D01*
X0066528Y0174981D01*
X0067102Y0174407D01*
X0068009Y0174031D01*
X0068991Y0174031D01*
X0069898Y0174407D01*
X0070593Y0175102D01*
X0070968Y0176009D01*
X0070968Y0176991D01*
X0070593Y0177898D01*
X0069898Y0178593D01*
X0068991Y0178968D01*
X0068009Y0178968D01*
X0067102Y0178593D01*
X0066407Y0177898D01*
X0066391Y0177860D01*
X0065889Y0178362D01*
X0065650Y0178362D01*
X0065650Y0178638D01*
X0065889Y0178638D01*
X0066528Y0179277D01*
X0066528Y0180909D01*
X0066600Y0180909D01*
X0067102Y0180407D01*
X0068009Y0180031D01*
X0068991Y0180031D01*
X0069898Y0180407D01*
X0070593Y0181102D01*
X0070968Y0182009D01*
X0070968Y0182991D01*
X0070593Y0183898D01*
X0069898Y0184593D01*
X0068991Y0184968D01*
X0068009Y0184968D01*
X0067102Y0184593D01*
X0066600Y0184091D01*
X0066160Y0184091D01*
X0065941Y0184310D01*
X0066016Y0184331D01*
X0066358Y0184528D01*
X0066637Y0184807D01*
X0066835Y0185149D01*
X0066937Y0185531D01*
X0066937Y0187311D01*
X0064248Y0187311D01*
X0064248Y0187689D01*
X0063870Y0187689D01*
X0063870Y0190772D01*
X0062484Y0190772D01*
X0062102Y0190669D01*
X0061760Y0190472D01*
X0061481Y0190193D01*
X0061283Y0189851D01*
X0061283Y0189850D01*
X0060771Y0190362D01*
X0057111Y0190362D01*
X0056472Y0189723D01*
X0056472Y0185277D01*
X0057111Y0184638D01*
X0057350Y0184638D01*
X0057350Y0184362D01*
X0057111Y0184362D01*
X0056472Y0183723D01*
X0056472Y0179277D01*
X0057111Y0178638D01*
X0057350Y0178638D01*
X0057350Y0178362D01*
X0057111Y0178362D01*
X0056472Y0177723D01*
X0056472Y0174091D01*
X0055479Y0174091D01*
X0055547Y0174159D01*
X0055547Y0188841D01*
X0054908Y0189480D01*
X0048099Y0189480D01*
X0047461Y0188841D01*
X0047461Y0174159D01*
X0048099Y0173520D01*
X0051231Y0173520D01*
X0052660Y0172091D01*
X0044841Y0172091D01*
X0043909Y0171159D01*
X0043909Y0167885D01*
X0043904Y0167890D01*
X0043191Y0167890D01*
X0043191Y0173810D01*
X0043539Y0174159D01*
X0043539Y0188841D01*
X0042901Y0189480D01*
X0036092Y0189480D01*
X0035453Y0188841D01*
X0035453Y0174159D01*
X0036092Y0173520D01*
X0037809Y0173520D01*
X0037809Y0167890D01*
X0037096Y0167890D01*
X0036457Y0167251D01*
X0036457Y0166191D01*
X0028060Y0166191D01*
X0027889Y0166362D01*
X0024229Y0166362D01*
X0023717Y0165850D01*
X0023717Y0165851D01*
X0023519Y0166193D01*
X0023240Y0166472D01*
X0022898Y0166669D01*
X0022516Y0166772D01*
X0021130Y0166772D01*
X0021130Y0163689D01*
X0020752Y0163689D01*
X0020752Y0166772D01*
X0019366Y0166772D01*
X0018984Y0166669D01*
X0018642Y0166472D01*
X0018363Y0166193D01*
X0018165Y0165851D01*
X0018063Y0165469D01*
X0018063Y0163689D01*
X0020752Y0163689D01*
X0020752Y0163311D01*
X0021130Y0163311D01*
X0021130Y0160228D01*
X0022516Y0160228D01*
X0022898Y0160331D01*
X0023240Y0160528D01*
X0023519Y0160807D01*
X0023717Y0161149D01*
X0023717Y0161150D01*
X0024229Y0160638D01*
X0025409Y0160638D01*
X0025409Y0156850D01*
X0024648Y0156850D01*
X0024009Y0156211D01*
X0024009Y0154231D01*
X0023900Y0154121D01*
X0023702Y0153779D01*
X0023600Y0153397D01*
X0023600Y0152500D01*
X0027300Y0152500D01*
X0031000Y0152500D01*
X0031000Y0153397D01*
X0030898Y0153779D01*
X0030700Y0154121D01*
X0030591Y0154231D01*
X0030591Y0156211D01*
X0029952Y0156850D01*
X0029191Y0156850D01*
X0029191Y0160809D01*
X0036877Y0160809D01*
X0036969Y0160717D01*
X0036968Y0160717D01*
X0036626Y0160519D01*
X0036347Y0160240D01*
X0036149Y0159898D01*
X0036047Y0159516D01*
X0036047Y0157260D01*
X0040000Y0157260D01*
X0040000Y0156260D01*
X0036047Y0156260D01*
X0036047Y0154003D01*
X0036149Y0153622D01*
X0036347Y0153280D01*
X0036626Y0153000D01*
X0036968Y0152803D01*
X0037350Y0152701D01*
X0040000Y0152701D01*
X0040000Y0156260D01*
X0041000Y0156260D01*
X0041000Y0157260D01*
X0048000Y0157260D01*
X0048000Y0156260D01*
X0044047Y0156260D01*
X0041000Y0156260D01*
X0041000Y0152701D01*
X0043650Y0152701D01*
X0044032Y0152803D01*
X0044374Y0153000D01*
X0044500Y0153127D01*
X0044626Y0153000D01*
X0044968Y0152803D01*
X0045350Y0152701D01*
X0048000Y0152701D01*
X0048000Y0156260D01*
X0049000Y0156260D01*
X0049000Y0152701D01*
X0050909Y0152701D01*
X0050909Y0151841D01*
X0051841Y0150909D01*
X0058159Y0150909D01*
X0058997Y0151748D01*
X0059024Y0151748D01*
X0059024Y0150156D01*
X0058591Y0149723D01*
X0058591Y0145277D01*
X0058867Y0145000D01*
X0058591Y0144723D01*
X0058591Y0140277D01*
X0058867Y0140000D01*
X0058717Y0139850D01*
X0058717Y0139851D01*
X0058519Y0140193D01*
X0058409Y0140302D01*
X0058409Y0144723D01*
X0058133Y0145000D01*
X0058409Y0145277D01*
X0058409Y0149723D01*
X0057771Y0150362D01*
X0054111Y0150362D01*
X0053472Y0149723D01*
X0053472Y0149391D01*
X0036548Y0149391D01*
X0036159Y0149410D01*
X0035391Y0150173D01*
X0035391Y0153900D01*
X0035593Y0154102D01*
X0035968Y0155009D01*
X0035968Y0155991D01*
X0035593Y0156898D01*
X0034898Y0157593D01*
X0033991Y0157968D01*
X0033009Y0157968D01*
X0032102Y0157593D01*
X0031407Y0156898D01*
X0031031Y0155991D01*
X0031031Y0155009D01*
X0031407Y0154102D01*
X0031609Y0153900D01*
X0031609Y0151831D01*
X0031000Y0151831D01*
X0031000Y0152500D01*
X0027300Y0152500D01*
X0027300Y0152500D01*
X0027300Y0152500D01*
X0023600Y0152500D01*
X0023600Y0151603D01*
X0023702Y0151221D01*
X0023900Y0150879D01*
X0024009Y0150769D01*
X0024009Y0148789D01*
X0024648Y0148150D01*
X0026417Y0148150D01*
X0026517Y0148050D01*
X0032162Y0148050D01*
X0033972Y0146254D01*
X0034463Y0145711D01*
X0034522Y0145708D01*
X0034565Y0145666D01*
X0035296Y0145668D01*
X0035677Y0145649D01*
X0035717Y0145609D01*
X0036452Y0145609D01*
X0037186Y0145572D01*
X0037227Y0145609D01*
X0053472Y0145609D01*
X0053472Y0145277D01*
X0053472Y0142290D02*
X0042384Y0142290D01*
X0043382Y0141292D02*
X0053472Y0141292D01*
X0053463Y0140293D02*
X0044381Y0140293D01*
X0045379Y0139295D02*
X0053063Y0139295D01*
X0053063Y0138296D02*
X0046378Y0138296D01*
X0047376Y0137298D02*
X0053063Y0137298D01*
X0053063Y0137311D02*
X0053063Y0135531D01*
X0053165Y0135149D01*
X0053363Y0134807D01*
X0053642Y0134528D01*
X0053984Y0134331D01*
X0054366Y0134228D01*
X0055752Y0134228D01*
X0055752Y0137311D01*
X0053063Y0137311D01*
X0053063Y0136299D02*
X0048375Y0136299D01*
X0049373Y0135301D02*
X0053125Y0135301D01*
X0054091Y0134302D02*
X0050372Y0134302D01*
X0051370Y0133303D02*
X0077809Y0133303D01*
X0077809Y0132305D02*
X0052369Y0132305D01*
X0053367Y0131306D02*
X0077809Y0131306D01*
X0077809Y0130308D02*
X0053391Y0130308D01*
X0053391Y0129309D02*
X0078081Y0129309D01*
X0078884Y0128311D02*
X0053391Y0128311D01*
X0053391Y0127312D02*
X0085903Y0127312D01*
X0084979Y0128311D02*
X0082116Y0128311D01*
X0082919Y0129309D02*
X0084566Y0129309D01*
X0084409Y0130308D02*
X0083191Y0130308D01*
X0083191Y0131306D02*
X0084409Y0131306D01*
X0084409Y0132305D02*
X0083191Y0132305D01*
X0083191Y0133303D02*
X0084409Y0133303D01*
X0084547Y0138296D02*
X0084816Y0138296D01*
X0084547Y0139295D02*
X0085510Y0139295D01*
X0084547Y0140293D02*
X0086968Y0140293D01*
X0084547Y0141292D02*
X0282496Y0141292D01*
X0282496Y0142290D02*
X0151929Y0142290D01*
X0152374Y0142474D02*
X0153833Y0143933D01*
X0154622Y0145839D01*
X0154622Y0147901D01*
X0153833Y0149807D01*
X0152374Y0151266D01*
X0150468Y0152055D01*
X0148406Y0152055D01*
X0146500Y0151266D01*
X0145500Y0150266D01*
X0144500Y0151266D01*
X0142594Y0152055D01*
X0140532Y0152055D01*
X0138626Y0151266D01*
X0137167Y0149807D01*
X0136378Y0147901D01*
X0136378Y0145839D01*
X0137167Y0143933D01*
X0138626Y0142474D01*
X0140532Y0141685D01*
X0142594Y0141685D01*
X0144500Y0142474D01*
X0145500Y0143474D01*
X0146500Y0142474D01*
X0148406Y0141685D01*
X0150468Y0141685D01*
X0152374Y0142474D01*
X0153188Y0143289D02*
X0157978Y0143289D01*
X0158522Y0143063D02*
X0160037Y0143063D01*
X0161436Y0143643D01*
X0162507Y0144714D01*
X0163087Y0146113D01*
X0163087Y0147627D01*
X0162507Y0149027D01*
X0161436Y0150098D01*
X0160037Y0150677D01*
X0158522Y0150677D01*
X0157123Y0150098D01*
X0156052Y0149027D01*
X0155472Y0147627D01*
X0155472Y0146113D01*
X0156052Y0144714D01*
X0157123Y0143643D01*
X0158522Y0143063D01*
X0160581Y0143289D02*
X0282496Y0143289D01*
X0282496Y0144287D02*
X0162081Y0144287D01*
X0162744Y0145286D02*
X0282496Y0145286D01*
X0282496Y0146284D02*
X0163087Y0146284D01*
X0163087Y0147283D02*
X0282496Y0147283D01*
X0282496Y0148281D02*
X0162816Y0148281D01*
X0162254Y0149280D02*
X0282496Y0149280D01*
X0282496Y0150278D02*
X0173756Y0150278D01*
X0172875Y0149913D02*
X0175664Y0151068D01*
X0177798Y0153203D01*
X0178953Y0155991D01*
X0178953Y0159009D01*
X0177798Y0161797D01*
X0175664Y0163932D01*
X0172875Y0165087D01*
X0169857Y0165087D01*
X0167069Y0163932D01*
X0164935Y0161797D01*
X0163780Y0159009D01*
X0163780Y0155991D01*
X0164935Y0153203D01*
X0167069Y0151068D01*
X0169857Y0149913D01*
X0172875Y0149913D01*
X0175872Y0151277D02*
X0282496Y0151277D01*
X0282496Y0152275D02*
X0176870Y0152275D01*
X0177827Y0153274D02*
X0282496Y0153274D01*
X0282496Y0154272D02*
X0178241Y0154272D01*
X0178654Y0155271D02*
X0282496Y0155271D01*
X0282496Y0156269D02*
X0178953Y0156269D01*
X0178953Y0157268D02*
X0282496Y0157268D01*
X0282496Y0158266D02*
X0178953Y0158266D01*
X0178847Y0159265D02*
X0282496Y0159265D01*
X0282496Y0160263D02*
X0178433Y0160263D01*
X0178020Y0161262D02*
X0282496Y0161262D01*
X0282496Y0162260D02*
X0177335Y0162260D01*
X0176336Y0163259D02*
X0282496Y0163259D01*
X0282496Y0164257D02*
X0174877Y0164257D01*
X0167855Y0164257D02*
X0123145Y0164257D01*
X0123931Y0163932D02*
X0121143Y0165087D01*
X0118125Y0165087D01*
X0115336Y0163932D01*
X0113202Y0161797D01*
X0112047Y0159009D01*
X0112047Y0155991D01*
X0113202Y0153203D01*
X0115336Y0151068D01*
X0118125Y0149913D01*
X0121143Y0149913D01*
X0123931Y0151068D01*
X0126065Y0153203D01*
X0127220Y0155991D01*
X0127220Y0159009D01*
X0126065Y0161797D01*
X0123931Y0163932D01*
X0124604Y0163259D02*
X0166396Y0163259D01*
X0165397Y0162260D02*
X0125603Y0162260D01*
X0126287Y0161262D02*
X0164713Y0161262D01*
X0164299Y0160263D02*
X0126701Y0160263D01*
X0127115Y0159265D02*
X0163885Y0159265D01*
X0163780Y0158266D02*
X0127220Y0158266D01*
X0127220Y0157268D02*
X0163780Y0157268D01*
X0163780Y0156269D02*
X0127220Y0156269D01*
X0126922Y0155271D02*
X0164078Y0155271D01*
X0164491Y0154272D02*
X0126509Y0154272D01*
X0126095Y0153274D02*
X0164905Y0153274D01*
X0165862Y0152275D02*
X0125138Y0152275D01*
X0124140Y0151277D02*
X0138652Y0151277D01*
X0137638Y0150278D02*
X0134203Y0150278D01*
X0134467Y0150086D02*
X0133930Y0150476D01*
X0133339Y0150778D01*
X0132708Y0150983D01*
X0132126Y0151075D01*
X0132126Y0147276D01*
X0131315Y0147276D01*
X0131315Y0151075D01*
X0130733Y0150983D01*
X0130102Y0150778D01*
X0129511Y0150476D01*
X0128974Y0150086D01*
X0128504Y0149617D01*
X0128114Y0149080D01*
X0127813Y0148489D01*
X0127608Y0147857D01*
X0127516Y0147276D01*
X0131315Y0147276D01*
X0131315Y0146465D01*
X0127516Y0146465D01*
X0127608Y0145883D01*
X0127813Y0145251D01*
X0128114Y0144660D01*
X0128504Y0144123D01*
X0128974Y0143654D01*
X0129511Y0143264D01*
X0130102Y0142962D01*
X0130733Y0142757D01*
X0131315Y0142665D01*
X0131315Y0146464D01*
X0132126Y0146464D01*
X0132126Y0142665D01*
X0132708Y0142757D01*
X0133339Y0142962D01*
X0133930Y0143264D01*
X0134467Y0143654D01*
X0134937Y0144123D01*
X0135327Y0144660D01*
X0135628Y0145251D01*
X0135833Y0145883D01*
X0135925Y0146465D01*
X0132126Y0146465D01*
X0132126Y0147276D01*
X0135925Y0147276D01*
X0135833Y0147857D01*
X0135628Y0148489D01*
X0135327Y0149080D01*
X0134937Y0149617D01*
X0134467Y0150086D01*
X0135182Y0149280D02*
X0136949Y0149280D01*
X0136535Y0148281D02*
X0135695Y0148281D01*
X0135924Y0147283D02*
X0136378Y0147283D01*
X0136378Y0146284D02*
X0135897Y0146284D01*
X0135639Y0145286D02*
X0136607Y0145286D01*
X0137021Y0144287D02*
X0135056Y0144287D01*
X0133965Y0143289D02*
X0137812Y0143289D01*
X0139071Y0142290D02*
X0084547Y0142290D01*
X0084547Y0143289D02*
X0129476Y0143289D01*
X0128385Y0144287D02*
X0084547Y0144287D01*
X0084547Y0145286D02*
X0127802Y0145286D01*
X0127544Y0146284D02*
X0084547Y0146284D01*
X0084547Y0147283D02*
X0127517Y0147283D01*
X0127745Y0148281D02*
X0084547Y0148281D01*
X0084109Y0149280D02*
X0128259Y0149280D01*
X0129238Y0150278D02*
X0122024Y0150278D01*
X0117244Y0150278D02*
X0083191Y0150278D01*
X0083191Y0151277D02*
X0115128Y0151277D01*
X0114130Y0152275D02*
X0083191Y0152275D01*
X0083191Y0153274D02*
X0113173Y0153274D01*
X0112759Y0154272D02*
X0084066Y0154272D01*
X0084543Y0155271D02*
X0112346Y0155271D01*
X0112047Y0156269D02*
X0084543Y0156269D01*
X0084543Y0157268D02*
X0112047Y0157268D01*
X0112047Y0158266D02*
X0084543Y0158266D01*
X0084543Y0159265D02*
X0112153Y0159265D01*
X0112567Y0160263D02*
X0084543Y0160263D01*
X0084052Y0161262D02*
X0112980Y0161262D01*
X0113665Y0162260D02*
X0084893Y0162260D01*
X0084953Y0163259D02*
X0114664Y0163259D01*
X0116123Y0164257D02*
X0084953Y0164257D01*
X0084953Y0166254D02*
X0282496Y0166254D01*
X0282496Y0165256D02*
X0081000Y0165256D01*
X0081000Y0166254D02*
X0080000Y0166254D01*
X0080000Y0165256D02*
X0073000Y0165256D01*
X0073000Y0166254D02*
X0072000Y0166254D01*
X0072000Y0165256D02*
X0067864Y0165256D01*
X0067921Y0164257D02*
X0068047Y0164257D01*
X0068047Y0163259D02*
X0067921Y0163259D01*
X0067921Y0162260D02*
X0068107Y0162260D01*
X0068948Y0161262D02*
X0062000Y0161262D01*
X0061500Y0161500D02*
X0060614Y0162386D01*
X0060614Y0168193D01*
X0058843Y0168193D02*
X0058843Y0171157D01*
X0057500Y0172500D01*
X0054500Y0172500D01*
X0051504Y0175496D01*
X0051504Y0181500D01*
X0047461Y0181232D02*
X0043539Y0181232D01*
X0043539Y0180234D02*
X0047461Y0180234D01*
X0047461Y0179235D02*
X0043539Y0179235D01*
X0043539Y0178237D02*
X0047461Y0178237D01*
X0047461Y0177238D02*
X0043539Y0177238D01*
X0043539Y0176239D02*
X0047461Y0176239D01*
X0047461Y0175241D02*
X0043539Y0175241D01*
X0043539Y0174242D02*
X0047461Y0174242D01*
X0051507Y0173244D02*
X0043191Y0173244D01*
X0043191Y0172245D02*
X0052505Y0172245D01*
X0054500Y0170500D02*
X0056600Y0170500D01*
X0057100Y0170000D01*
X0057071Y0168193D02*
X0057071Y0168193D01*
X0055079Y0168193D01*
X0055079Y0170359D01*
X0055117Y0170500D01*
X0045500Y0170500D01*
X0045500Y0168299D01*
X0048000Y0168299D01*
X0048000Y0164740D01*
X0049000Y0164740D01*
X0052953Y0164740D01*
X0052953Y0166997D01*
X0052851Y0167378D01*
X0052653Y0167720D01*
X0052374Y0167999D01*
X0052032Y0168197D01*
X0051650Y0168299D01*
X0049000Y0168299D01*
X0049000Y0164740D01*
X0049000Y0163740D01*
X0052953Y0163740D01*
X0052953Y0161484D01*
X0052851Y0161102D01*
X0052653Y0160760D01*
X0052500Y0160607D01*
X0052500Y0159814D01*
X0052543Y0159771D01*
X0052543Y0153749D01*
X0052500Y0153706D01*
X0052500Y0152500D01*
X0055117Y0152500D01*
X0055079Y0152641D01*
X0055079Y0154807D01*
X0057071Y0154807D01*
X0057071Y0154807D01*
X0055079Y0154807D01*
X0055079Y0156973D01*
X0055181Y0157355D01*
X0055378Y0157697D01*
X0055488Y0157806D01*
X0055488Y0165194D01*
X0055378Y0165303D01*
X0055181Y0165645D01*
X0055079Y0166027D01*
X0055079Y0168193D01*
X0057071Y0168193D01*
X0055079Y0168251D02*
X0051829Y0168251D01*
X0052884Y0167253D02*
X0055079Y0167253D01*
X0055079Y0166254D02*
X0052953Y0166254D01*
X0052953Y0165256D02*
X0055426Y0165256D01*
X0055488Y0164257D02*
X0049000Y0164257D01*
X0048500Y0164240D02*
X0048500Y0169500D01*
X0048000Y0168251D02*
X0049000Y0168251D01*
X0049000Y0167253D02*
X0048000Y0167253D01*
X0048000Y0166254D02*
X0049000Y0166254D01*
X0049000Y0165256D02*
X0048000Y0165256D01*
X0045500Y0169250D02*
X0055079Y0169250D01*
X0055079Y0170248D02*
X0045500Y0170248D01*
X0043909Y0170248D02*
X0043191Y0170248D01*
X0043191Y0169250D02*
X0043909Y0169250D01*
X0043909Y0168251D02*
X0043191Y0168251D01*
X0043191Y0171247D02*
X0043998Y0171247D01*
X0037809Y0171247D02*
X0003968Y0171247D01*
X0003968Y0172245D02*
X0021874Y0172245D01*
X0022654Y0172245D02*
X0023654Y0172245D01*
X0024433Y0172245D02*
X0037809Y0172245D01*
X0037809Y0173244D02*
X0028108Y0173244D01*
X0029898Y0174242D02*
X0035453Y0174242D01*
X0035453Y0175241D02*
X0031188Y0175241D01*
X0032172Y0176239D02*
X0035453Y0176239D01*
X0035453Y0177238D02*
X0032966Y0177238D01*
X0033593Y0178237D02*
X0035453Y0178237D01*
X0035453Y0179235D02*
X0034093Y0179235D01*
X0034487Y0180234D02*
X0035453Y0180234D01*
X0035453Y0181232D02*
X0034790Y0181232D01*
X0035010Y0182231D02*
X0035453Y0182231D01*
X0035453Y0183229D02*
X0035123Y0183229D01*
X0035453Y0184228D02*
X0023654Y0184228D01*
X0023654Y0183229D02*
X0022654Y0183229D01*
X0022654Y0182231D02*
X0023654Y0182231D01*
X0023654Y0181232D02*
X0022654Y0181232D01*
X0022654Y0180234D02*
X0023654Y0180234D01*
X0023654Y0179235D02*
X0022654Y0179235D01*
X0022654Y0178237D02*
X0023654Y0178237D01*
X0023654Y0177238D02*
X0022654Y0177238D01*
X0022654Y0176239D02*
X0023654Y0176239D01*
X0023654Y0175241D02*
X0022654Y0175241D01*
X0022654Y0174242D02*
X0023654Y0174242D01*
X0023654Y0173244D02*
X0022654Y0173244D01*
X0018199Y0173244D02*
X0003968Y0173244D01*
X0003968Y0174242D02*
X0016409Y0174242D01*
X0015119Y0175241D02*
X0003968Y0175241D01*
X0003968Y0176239D02*
X0014135Y0176239D01*
X0013341Y0177238D02*
X0003968Y0177238D01*
X0003968Y0178237D02*
X0012714Y0178237D01*
X0012215Y0179235D02*
X0003968Y0179235D01*
X0003968Y0180234D02*
X0011820Y0180234D01*
X0011517Y0181232D02*
X0003968Y0181232D01*
X0003968Y0182231D02*
X0011297Y0182231D01*
X0011184Y0183229D02*
X0003968Y0183229D01*
X0003972Y0184228D02*
X0022653Y0184228D01*
X0011540Y0187223D02*
X0004475Y0187223D01*
X0004208Y0186225D02*
X0011312Y0186225D01*
X0011196Y0185226D02*
X0004037Y0185226D01*
X0004743Y0188222D02*
X0011855Y0188222D01*
X0012263Y0189220D02*
X0005185Y0189220D01*
X0005761Y0190219D02*
X0012777Y0190219D01*
X0013419Y0191217D02*
X0006338Y0191217D01*
X0007300Y0192216D02*
X0014221Y0192216D01*
X0015239Y0193214D02*
X0008299Y0193214D01*
X0009846Y0194213D02*
X0016570Y0194213D01*
X0018409Y0195211D02*
X0012016Y0195211D01*
X0027898Y0195211D02*
X0257582Y0195211D01*
X0255743Y0194213D02*
X0029737Y0194213D01*
X0031068Y0193214D02*
X0254412Y0193214D01*
X0253395Y0192216D02*
X0032086Y0192216D01*
X0032888Y0191217D02*
X0252592Y0191217D01*
X0251951Y0190219D02*
X0066611Y0190219D01*
X0066637Y0190193D02*
X0066358Y0190472D01*
X0066016Y0190669D01*
X0065634Y0190772D01*
X0064248Y0190772D01*
X0064248Y0187689D01*
X0066937Y0187689D01*
X0066937Y0189469D01*
X0066835Y0189851D01*
X0066637Y0190193D01*
X0066937Y0189220D02*
X0089393Y0189220D01*
X0089309Y0189178D02*
X0088762Y0188780D01*
X0088283Y0188301D01*
X0087885Y0187754D01*
X0087578Y0187151D01*
X0087369Y0186507D01*
X0087263Y0185838D01*
X0087263Y0185787D01*
X0091276Y0185787D01*
X0091276Y0185213D01*
X0091850Y0185213D01*
X0091850Y0181200D01*
X0091901Y0181200D01*
X0092570Y0181306D01*
X0093214Y0181515D01*
X0093817Y0181822D01*
X0094364Y0182220D01*
X0094843Y0182699D01*
X0095241Y0183246D01*
X0095548Y0183849D01*
X0095707Y0184339D01*
X0096139Y0183296D01*
X0097233Y0182202D01*
X0098663Y0181609D01*
X0100211Y0181609D01*
X0101641Y0182202D01*
X0102735Y0183296D01*
X0103328Y0184726D01*
X0103328Y0186274D01*
X0102735Y0187704D01*
X0101641Y0188798D01*
X0100211Y0189391D01*
X0098663Y0189391D01*
X0097233Y0188798D01*
X0096139Y0187704D01*
X0095707Y0186661D01*
X0095548Y0187151D01*
X0095241Y0187754D01*
X0094843Y0188301D01*
X0094364Y0188780D01*
X0093817Y0189178D01*
X0093214Y0189485D01*
X0092570Y0189694D01*
X0091901Y0189800D01*
X0091850Y0189800D01*
X0091850Y0185787D01*
X0091276Y0185787D01*
X0091276Y0189800D01*
X0091225Y0189800D01*
X0090556Y0189694D01*
X0089912Y0189485D01*
X0089309Y0189178D01*
X0088225Y0188222D02*
X0066937Y0188222D01*
X0066937Y0187223D02*
X0087615Y0187223D01*
X0087324Y0186225D02*
X0066937Y0186225D01*
X0066855Y0185226D02*
X0091276Y0185226D01*
X0091276Y0185213D02*
X0087263Y0185213D01*
X0087263Y0185162D01*
X0087369Y0184493D01*
X0087578Y0183849D01*
X0087885Y0183246D01*
X0088283Y0182699D01*
X0088762Y0182220D01*
X0089309Y0181822D01*
X0089912Y0181515D01*
X0090556Y0181306D01*
X0091225Y0181200D01*
X0091276Y0181200D01*
X0091276Y0185213D01*
X0091276Y0184228D02*
X0091850Y0184228D01*
X0091850Y0183229D02*
X0091276Y0183229D01*
X0091276Y0182231D02*
X0091850Y0182231D01*
X0091850Y0181232D02*
X0091276Y0181232D01*
X0091022Y0181232D02*
X0070647Y0181232D01*
X0070968Y0182231D02*
X0088751Y0182231D01*
X0087898Y0183229D02*
X0070870Y0183229D01*
X0070263Y0184228D02*
X0087455Y0184228D01*
X0091276Y0186225D02*
X0091850Y0186225D01*
X0091850Y0187223D02*
X0091276Y0187223D01*
X0091276Y0188222D02*
X0091850Y0188222D01*
X0091850Y0189220D02*
X0091276Y0189220D01*
X0093733Y0189220D02*
X0098252Y0189220D01*
X0096657Y0188222D02*
X0094901Y0188222D01*
X0095511Y0187223D02*
X0095940Y0187223D01*
X0095753Y0184228D02*
X0095671Y0184228D01*
X0095228Y0183229D02*
X0096206Y0183229D01*
X0097204Y0182231D02*
X0094375Y0182231D01*
X0092104Y0181232D02*
X0250690Y0181232D01*
X0250470Y0182231D02*
X0101670Y0182231D01*
X0102668Y0183229D02*
X0250358Y0183229D01*
X0250369Y0185226D02*
X0103328Y0185226D01*
X0103328Y0186225D02*
X0250485Y0186225D01*
X0250713Y0187223D02*
X0102934Y0187223D01*
X0102217Y0188222D02*
X0251029Y0188222D01*
X0251436Y0189220D02*
X0100622Y0189220D01*
X0103121Y0184228D02*
X0261827Y0184228D01*
X0261827Y0183229D02*
X0262827Y0183229D01*
X0262827Y0182231D02*
X0261827Y0182231D01*
X0261827Y0181232D02*
X0262827Y0181232D01*
X0262827Y0180234D02*
X0261827Y0180234D01*
X0261827Y0179235D02*
X0262827Y0179235D01*
X0262827Y0178237D02*
X0261827Y0178237D01*
X0261827Y0177238D02*
X0262827Y0177238D01*
X0262827Y0176239D02*
X0261827Y0176239D01*
X0261827Y0175241D02*
X0262827Y0175241D01*
X0262827Y0174242D02*
X0261827Y0174242D01*
X0261827Y0173244D02*
X0262827Y0173244D01*
X0262827Y0172245D02*
X0261827Y0172245D01*
X0261047Y0172245D02*
X0073968Y0172245D01*
X0073864Y0173244D02*
X0257373Y0173244D01*
X0255583Y0174242D02*
X0073249Y0174242D01*
X0071500Y0172500D02*
X0070236Y0172500D01*
X0065929Y0168193D01*
X0067512Y0167253D02*
X0068047Y0167253D01*
X0068047Y0166254D02*
X0067512Y0166254D01*
X0072000Y0167253D02*
X0073000Y0167253D01*
X0073000Y0168251D02*
X0072000Y0168251D01*
X0072000Y0169250D02*
X0073000Y0169250D01*
X0072515Y0170248D02*
X0282496Y0170248D01*
X0282496Y0169250D02*
X0083834Y0169250D01*
X0084884Y0168251D02*
X0282496Y0168251D01*
X0282496Y0167253D02*
X0084953Y0167253D01*
X0081000Y0167253D02*
X0080000Y0167253D01*
X0080000Y0168251D02*
X0081000Y0168251D01*
X0081000Y0169250D02*
X0080000Y0169250D01*
X0077166Y0169250D02*
X0075834Y0169250D01*
X0073653Y0171247D02*
X0282496Y0171247D01*
X0282496Y0172245D02*
X0263607Y0172245D01*
X0267281Y0173244D02*
X0282496Y0173244D01*
X0282496Y0174242D02*
X0269071Y0174242D01*
X0270361Y0175241D02*
X0282496Y0175241D01*
X0282496Y0176239D02*
X0271345Y0176239D01*
X0272139Y0177238D02*
X0282496Y0177238D01*
X0282496Y0178237D02*
X0272766Y0178237D01*
X0273266Y0179235D02*
X0282496Y0179235D01*
X0282496Y0180234D02*
X0273660Y0180234D01*
X0273963Y0181232D02*
X0282496Y0181232D01*
X0282496Y0182231D02*
X0274183Y0182231D01*
X0274296Y0183229D02*
X0282496Y0183229D01*
X0282493Y0184228D02*
X0262827Y0184228D01*
X0272061Y0191217D02*
X0280127Y0191217D01*
X0280703Y0190219D02*
X0272703Y0190219D01*
X0273217Y0189220D02*
X0281280Y0189220D01*
X0281722Y0188222D02*
X0273625Y0188222D01*
X0273940Y0187223D02*
X0281989Y0187223D01*
X0282257Y0186225D02*
X0274168Y0186225D01*
X0274285Y0185226D02*
X0282427Y0185226D01*
X0279164Y0192216D02*
X0271259Y0192216D01*
X0270241Y0193214D02*
X0278166Y0193214D01*
X0276618Y0194213D02*
X0268910Y0194213D01*
X0267072Y0195211D02*
X0274448Y0195211D01*
X0250993Y0180234D02*
X0069479Y0180234D01*
X0067521Y0180234D02*
X0066528Y0180234D01*
X0066486Y0179235D02*
X0251388Y0179235D01*
X0251887Y0178237D02*
X0070254Y0178237D01*
X0070866Y0177238D02*
X0252515Y0177238D01*
X0253308Y0176239D02*
X0070968Y0176239D01*
X0070650Y0175241D02*
X0254292Y0175241D01*
X0282496Y0140293D02*
X0110032Y0140293D01*
X0109314Y0140591D02*
X0107686Y0140591D01*
X0106183Y0139968D01*
X0105032Y0138817D01*
X0104409Y0137314D01*
X0104409Y0129686D01*
X0105032Y0128183D01*
X0106183Y0127032D01*
X0107686Y0126409D01*
X0109314Y0126409D01*
X0110817Y0127032D01*
X0111968Y0128183D01*
X0112591Y0129686D01*
X0112591Y0137314D01*
X0111968Y0138817D01*
X0110817Y0139968D01*
X0109314Y0140591D01*
X0106968Y0140293D02*
X0100935Y0140293D01*
X0100859Y0140349D02*
X0100227Y0140670D01*
X0099554Y0140889D01*
X0099000Y0140977D01*
X0099000Y0134000D01*
X0098000Y0134000D01*
X0098000Y0140977D01*
X0097446Y0140889D01*
X0096773Y0140670D01*
X0096141Y0140349D01*
X0095568Y0139932D01*
X0095068Y0139432D01*
X0094651Y0138859D01*
X0094330Y0138227D01*
X0094111Y0137554D01*
X0094000Y0136854D01*
X0094000Y0134000D01*
X0098000Y0134000D01*
X0098000Y0133000D01*
X0094000Y0133000D01*
X0094000Y0130146D01*
X0094111Y0129446D01*
X0094330Y0128773D01*
X0094651Y0128141D01*
X0095068Y0127568D01*
X0095568Y0127068D01*
X0096141Y0126651D01*
X0096773Y0126330D01*
X0097446Y0126111D01*
X0098000Y0126023D01*
X0098000Y0133000D01*
X0099000Y0133000D01*
X0099000Y0134000D01*
X0103000Y0134000D01*
X0103000Y0136854D01*
X0102889Y0137554D01*
X0102670Y0138227D01*
X0102349Y0138859D01*
X0101932Y0139432D01*
X0101432Y0139932D01*
X0100859Y0140349D01*
X0102032Y0139295D02*
X0105510Y0139295D01*
X0104816Y0138296D02*
X0102635Y0138296D01*
X0102930Y0137298D02*
X0104409Y0137298D01*
X0104409Y0136299D02*
X0103000Y0136299D01*
X0103000Y0135301D02*
X0104409Y0135301D01*
X0104409Y0134302D02*
X0103000Y0134302D01*
X0103000Y0133000D02*
X0099000Y0133000D01*
X0099000Y0126023D01*
X0099554Y0126111D01*
X0100227Y0126330D01*
X0100859Y0126651D01*
X0101432Y0127068D01*
X0101932Y0127568D01*
X0102349Y0128141D01*
X0102670Y0128773D01*
X0102889Y0129446D01*
X0103000Y0130146D01*
X0103000Y0133000D01*
X0103000Y0132305D02*
X0104409Y0132305D01*
X0104409Y0133303D02*
X0099000Y0133303D01*
X0099000Y0132305D02*
X0098000Y0132305D01*
X0098000Y0133303D02*
X0092591Y0133303D01*
X0092591Y0132305D02*
X0094000Y0132305D01*
X0094000Y0131306D02*
X0092591Y0131306D01*
X0092591Y0130308D02*
X0094000Y0130308D01*
X0094155Y0129309D02*
X0092434Y0129309D01*
X0092021Y0128311D02*
X0094565Y0128311D01*
X0095324Y0127312D02*
X0091097Y0127312D01*
X0092806Y0123591D02*
X0090409Y0121194D01*
X0090409Y0117806D01*
X0092806Y0115409D01*
X0096194Y0115409D01*
X0098591Y0117806D01*
X0098591Y0121194D01*
X0096194Y0123591D01*
X0092806Y0123591D01*
X0092533Y0123318D02*
X0086467Y0123318D01*
X0086194Y0123591D02*
X0082806Y0123591D01*
X0080409Y0121194D01*
X0080409Y0117806D01*
X0082806Y0115409D01*
X0086194Y0115409D01*
X0088591Y0117806D01*
X0088591Y0121194D01*
X0086194Y0123591D01*
X0087465Y0122320D02*
X0091535Y0122320D01*
X0090536Y0121321D02*
X0088464Y0121321D01*
X0088591Y0120323D02*
X0090409Y0120323D01*
X0090409Y0119324D02*
X0088591Y0119324D01*
X0088591Y0118326D02*
X0090409Y0118326D01*
X0090888Y0117327D02*
X0088112Y0117327D01*
X0087114Y0116329D02*
X0091886Y0116329D01*
X0097114Y0116329D02*
X0101886Y0116329D01*
X0102806Y0115409D02*
X0100409Y0117806D01*
X0100409Y0121194D01*
X0102806Y0123591D01*
X0106194Y0123591D01*
X0108591Y0121194D01*
X0108591Y0117806D01*
X0106194Y0115409D01*
X0102806Y0115409D01*
X0102806Y0113591D02*
X0100409Y0111194D01*
X0100409Y0107806D01*
X0102806Y0105409D01*
X0106194Y0105409D01*
X0108591Y0107806D01*
X0108591Y0111194D01*
X0106194Y0113591D01*
X0102806Y0113591D01*
X0102548Y0113333D02*
X0096452Y0113333D01*
X0096194Y0113591D02*
X0092806Y0113591D01*
X0090409Y0111194D01*
X0090409Y0107806D01*
X0092806Y0105409D01*
X0096194Y0105409D01*
X0098591Y0107806D01*
X0098591Y0111194D01*
X0096194Y0113591D01*
X0097450Y0112335D02*
X0101550Y0112335D01*
X0100551Y0111336D02*
X0098449Y0111336D01*
X0098591Y0110338D02*
X0100409Y0110338D01*
X0100409Y0109339D02*
X0098591Y0109339D01*
X0098591Y0108341D02*
X0100409Y0108341D01*
X0100873Y0107342D02*
X0098127Y0107342D01*
X0097129Y0106344D02*
X0101871Y0106344D01*
X0107129Y0106344D02*
X0122031Y0106344D01*
X0122031Y0105345D02*
X0076709Y0105345D01*
X0076364Y0105000D02*
X0079000Y0107636D01*
X0079000Y0109000D01*
X0075000Y0109000D01*
X0075000Y0110000D01*
X0079000Y0110000D01*
X0079000Y0111364D01*
X0076364Y0114000D01*
X0075000Y0114000D01*
X0075000Y0110000D01*
X0074000Y0110000D01*
X0074000Y0114000D01*
X0072636Y0114000D01*
X0070000Y0111364D01*
X0070000Y0110000D01*
X0074000Y0110000D01*
X0074000Y0109000D01*
X0075000Y0109000D01*
X0075000Y0105000D01*
X0076364Y0105000D01*
X0075000Y0105345D02*
X0074000Y0105345D01*
X0074000Y0105000D02*
X0074000Y0109000D01*
X0070000Y0109000D01*
X0070000Y0107636D01*
X0072636Y0105000D01*
X0074000Y0105000D01*
X0074000Y0106344D02*
X0075000Y0106344D01*
X0075000Y0107342D02*
X0074000Y0107342D01*
X0074000Y0108341D02*
X0075000Y0108341D01*
X0075000Y0109339D02*
X0080409Y0109339D01*
X0080409Y0108341D02*
X0079000Y0108341D01*
X0078706Y0107342D02*
X0080873Y0107342D01*
X0080409Y0107806D02*
X0082806Y0105409D01*
X0086194Y0105409D01*
X0088591Y0107806D01*
X0088591Y0111194D01*
X0086194Y0113591D01*
X0082806Y0113591D01*
X0080409Y0111194D01*
X0080409Y0107806D01*
X0081871Y0106344D02*
X0077708Y0106344D01*
X0079000Y0110338D02*
X0080409Y0110338D01*
X0080551Y0111336D02*
X0079000Y0111336D01*
X0078029Y0112335D02*
X0081550Y0112335D01*
X0082548Y0113333D02*
X0077031Y0113333D01*
X0076364Y0115000D02*
X0079000Y0117636D01*
X0079000Y0119000D01*
X0075000Y0119000D01*
X0075000Y0120000D01*
X0079000Y0120000D01*
X0079000Y0121364D01*
X0076364Y0124000D01*
X0075000Y0124000D01*
X0075000Y0120000D01*
X0074000Y0120000D01*
X0074000Y0124000D01*
X0072636Y0124000D01*
X0070000Y0121364D01*
X0070000Y0120000D01*
X0074000Y0120000D01*
X0074000Y0119000D01*
X0075000Y0119000D01*
X0075000Y0115000D01*
X0076364Y0115000D01*
X0076694Y0115330D02*
X0123409Y0115330D01*
X0123409Y0116194D02*
X0123409Y0112806D01*
X0125806Y0110409D01*
X0129194Y0110409D01*
X0131591Y0112806D01*
X0131591Y0116194D01*
X0129194Y0118591D01*
X0125806Y0118591D01*
X0123409Y0116194D01*
X0123544Y0116329D02*
X0107114Y0116329D01*
X0108112Y0117327D02*
X0124542Y0117327D01*
X0125541Y0118326D02*
X0108591Y0118326D01*
X0108591Y0119324D02*
X0124942Y0119324D01*
X0125235Y0119031D02*
X0129765Y0119031D01*
X0132500Y0121766D01*
X0135235Y0119031D01*
X0139765Y0119031D01*
X0142968Y0122235D01*
X0142968Y0126765D01*
X0139765Y0129968D01*
X0135235Y0129968D01*
X0132500Y0127234D01*
X0129765Y0129968D01*
X0125235Y0129968D01*
X0122031Y0126765D01*
X0122031Y0122235D01*
X0125235Y0119031D01*
X0123944Y0120323D02*
X0108591Y0120323D01*
X0108464Y0121321D02*
X0122945Y0121321D01*
X0122031Y0122320D02*
X0107465Y0122320D01*
X0106467Y0123318D02*
X0122031Y0123318D01*
X0122031Y0124317D02*
X0063488Y0124317D01*
X0063781Y0124024D02*
X0063024Y0124781D01*
X0062035Y0125191D01*
X0060965Y0125191D01*
X0059976Y0124781D01*
X0059219Y0124024D01*
X0058809Y0123035D01*
X0058809Y0120890D01*
X0058096Y0120890D01*
X0057457Y0120251D01*
X0057457Y0114229D01*
X0058096Y0113591D01*
X0064904Y0113591D01*
X0065543Y0114229D01*
X0065543Y0120251D01*
X0064904Y0120890D01*
X0064191Y0120890D01*
X0064191Y0123035D01*
X0063781Y0124024D01*
X0064073Y0123318D02*
X0071954Y0123318D01*
X0070956Y0122320D02*
X0064191Y0122320D01*
X0064191Y0121321D02*
X0070000Y0121321D01*
X0070000Y0120323D02*
X0065471Y0120323D01*
X0065543Y0119324D02*
X0074000Y0119324D01*
X0074000Y0119000D02*
X0070000Y0119000D01*
X0070000Y0117636D01*
X0072636Y0115000D01*
X0074000Y0115000D01*
X0074000Y0119000D01*
X0074000Y0118326D02*
X0075000Y0118326D01*
X0075000Y0119324D02*
X0080409Y0119324D01*
X0080409Y0118326D02*
X0079000Y0118326D01*
X0078691Y0117327D02*
X0080888Y0117327D01*
X0081886Y0116329D02*
X0077693Y0116329D01*
X0075000Y0116329D02*
X0074000Y0116329D01*
X0074000Y0117327D02*
X0075000Y0117327D01*
X0075000Y0115330D02*
X0074000Y0115330D01*
X0072306Y0115330D02*
X0065543Y0115330D01*
X0065543Y0114332D02*
X0123409Y0114332D01*
X0123409Y0113333D02*
X0106452Y0113333D01*
X0107450Y0112335D02*
X0123880Y0112335D01*
X0124879Y0111336D02*
X0108449Y0111336D01*
X0108591Y0110338D02*
X0150928Y0110338D01*
X0150928Y0111248D02*
X0154011Y0111248D01*
X0154011Y0113937D01*
X0152231Y0113937D01*
X0151849Y0113835D01*
X0151507Y0113637D01*
X0151228Y0113358D01*
X0151031Y0113016D01*
X0150928Y0112634D01*
X0150928Y0111248D01*
X0150928Y0111336D02*
X0140121Y0111336D01*
X0139194Y0110409D02*
X0141591Y0112806D01*
X0141591Y0116194D01*
X0139194Y0118591D01*
X0135806Y0118591D01*
X0133409Y0116194D01*
X0133409Y0112806D01*
X0135806Y0110409D01*
X0139194Y0110409D01*
X0140394Y0109339D02*
X0150967Y0109339D01*
X0151750Y0108341D02*
X0141393Y0108341D01*
X0142391Y0107342D02*
X0151338Y0107342D01*
X0151338Y0106344D02*
X0142968Y0106344D01*
X0142968Y0105345D02*
X0151338Y0105345D01*
X0151338Y0104347D02*
X0142968Y0104347D01*
X0142968Y0103348D02*
X0153748Y0103348D01*
X0153748Y0102350D02*
X0142968Y0102350D01*
X0142085Y0101351D02*
X0153748Y0101351D01*
X0153748Y0100353D02*
X0141086Y0100353D01*
X0145890Y0099354D02*
X0145890Y0099354D01*
X0145890Y0098356D02*
X0145890Y0098356D01*
X0145890Y0097357D02*
X0145890Y0097357D01*
X0145890Y0096359D02*
X0145890Y0096359D01*
X0145890Y0095360D02*
X0145890Y0095360D01*
X0145890Y0094642D02*
X0145890Y0089205D01*
X0145890Y0094642D01*
X0145890Y0094642D01*
X0145890Y0094362D02*
X0145890Y0094362D01*
X0145890Y0093363D02*
X0145890Y0093363D01*
X0145890Y0092365D02*
X0145890Y0092365D01*
X0145890Y0091366D02*
X0145890Y0091366D01*
X0145890Y0090368D02*
X0145890Y0090368D01*
X0145890Y0089369D02*
X0145890Y0089369D01*
X0145928Y0088370D02*
X0130842Y0088370D01*
X0130341Y0089369D02*
X0126005Y0089369D01*
X0126842Y0088370D02*
X0128158Y0088370D01*
X0129500Y0086500D02*
X0131500Y0084500D01*
X0164500Y0084500D01*
X0169512Y0089512D01*
X0169512Y0094642D01*
X0171874Y0094642D02*
X0171874Y0086874D01*
X0167500Y0082500D01*
X0129500Y0082500D01*
X0125500Y0086500D01*
X0123228Y0086373D02*
X0119876Y0086373D01*
X0119772Y0087372D02*
X0123228Y0087372D01*
X0124158Y0088370D02*
X0118842Y0088370D01*
X0117500Y0086500D02*
X0130500Y0073500D01*
X0188500Y0073500D01*
X0194315Y0067685D01*
X0194315Y0062358D01*
X0196677Y0062358D02*
X0196677Y0067795D01*
X0196677Y0062358D01*
X0196677Y0062358D01*
X0196677Y0062409D02*
X0196677Y0062409D01*
X0196677Y0061411D02*
X0196677Y0061411D01*
X0196677Y0060412D02*
X0196677Y0060412D01*
X0196677Y0059414D02*
X0196677Y0059414D01*
X0196677Y0058415D02*
X0196677Y0058415D01*
X0196677Y0057417D02*
X0196677Y0057417D01*
X0189591Y0057417D02*
X0189590Y0057417D01*
X0189590Y0058415D02*
X0189591Y0058415D01*
X0189590Y0059414D02*
X0189591Y0059414D01*
X0189590Y0060412D02*
X0189591Y0060412D01*
X0189590Y0061411D02*
X0189591Y0061411D01*
X0191953Y0062358D02*
X0191953Y0067047D01*
X0187500Y0071500D01*
X0128500Y0071500D01*
X0113500Y0086500D01*
X0111228Y0086373D02*
X0097907Y0086373D01*
X0098073Y0087372D02*
X0111228Y0087372D01*
X0112158Y0088370D02*
X0098013Y0088370D01*
X0097659Y0089369D02*
X0109081Y0089369D01*
X0110457Y0089369D02*
X0110457Y0089369D01*
X0110457Y0089205D02*
X0110457Y0094642D01*
X0110457Y0094642D01*
X0110457Y0089205D01*
X0110457Y0090368D02*
X0110457Y0090368D01*
X0110457Y0091366D02*
X0110457Y0091366D01*
X0110457Y0092365D02*
X0110457Y0092365D01*
X0110457Y0093363D02*
X0110457Y0093363D01*
X0110457Y0094362D02*
X0110457Y0094362D01*
X0110457Y0095360D02*
X0110457Y0095360D01*
X0110457Y0096359D02*
X0110457Y0096359D01*
X0110457Y0097357D02*
X0110457Y0097357D01*
X0110457Y0098356D02*
X0110457Y0098356D01*
X0110457Y0099354D02*
X0110457Y0099354D01*
X0108127Y0107342D02*
X0122609Y0107342D01*
X0123607Y0108341D02*
X0108591Y0108341D01*
X0108591Y0109339D02*
X0124606Y0109339D01*
X0122031Y0104347D02*
X0063391Y0104347D01*
X0063391Y0105345D02*
X0072291Y0105345D01*
X0071292Y0106344D02*
X0065138Y0106344D01*
X0065543Y0107342D02*
X0070294Y0107342D01*
X0070000Y0108341D02*
X0065543Y0108341D01*
X0065543Y0109339D02*
X0074000Y0109339D01*
X0074000Y0110338D02*
X0075000Y0110338D01*
X0075000Y0111336D02*
X0074000Y0111336D01*
X0074000Y0112335D02*
X0075000Y0112335D01*
X0075000Y0113333D02*
X0074000Y0113333D01*
X0071969Y0113333D02*
X0064981Y0113333D01*
X0065543Y0112335D02*
X0070971Y0112335D01*
X0070000Y0111336D02*
X0065543Y0111336D01*
X0065543Y0110338D02*
X0070000Y0110338D01*
X0071307Y0116329D02*
X0065543Y0116329D01*
X0065543Y0117327D02*
X0070309Y0117327D01*
X0070000Y0118326D02*
X0065543Y0118326D01*
X0058809Y0121321D02*
X0053391Y0121321D01*
X0053391Y0122320D02*
X0058809Y0122320D01*
X0058927Y0123318D02*
X0053391Y0123318D01*
X0053391Y0124317D02*
X0059512Y0124317D01*
X0057529Y0120323D02*
X0055471Y0120323D01*
X0055543Y0119324D02*
X0057457Y0119324D01*
X0057457Y0118326D02*
X0055543Y0118326D01*
X0055543Y0117327D02*
X0057457Y0117327D01*
X0057457Y0116329D02*
X0055543Y0116329D01*
X0055543Y0115330D02*
X0057457Y0115330D01*
X0057457Y0114332D02*
X0055543Y0114332D01*
X0054981Y0113333D02*
X0058019Y0113333D01*
X0057457Y0112335D02*
X0055543Y0112335D01*
X0055543Y0111336D02*
X0057457Y0111336D01*
X0057457Y0110338D02*
X0055543Y0110338D01*
X0055543Y0109339D02*
X0057457Y0109339D01*
X0057457Y0108341D02*
X0055543Y0108341D01*
X0055543Y0107342D02*
X0057457Y0107342D01*
X0057862Y0106344D02*
X0055138Y0106344D01*
X0052391Y0105345D02*
X0059609Y0105345D01*
X0059609Y0104347D02*
X0052391Y0104347D01*
X0047457Y0109339D02*
X0039013Y0109339D01*
X0040011Y0110338D02*
X0047457Y0110338D01*
X0047457Y0111336D02*
X0041010Y0111336D01*
X0042008Y0112335D02*
X0047457Y0112335D01*
X0048019Y0113333D02*
X0043007Y0113333D01*
X0045126Y0114332D02*
X0047457Y0114332D01*
X0047457Y0115330D02*
X0045543Y0115330D01*
X0045543Y0116329D02*
X0047457Y0116329D01*
X0047457Y0117327D02*
X0045543Y0117327D01*
X0045543Y0118326D02*
X0047457Y0118326D01*
X0047457Y0119324D02*
X0045543Y0119324D01*
X0045543Y0120323D02*
X0047529Y0120323D01*
X0049609Y0121321D02*
X0044993Y0121321D01*
X0045543Y0122320D02*
X0049609Y0122320D01*
X0049609Y0123318D02*
X0045543Y0123318D01*
X0045543Y0124317D02*
X0049609Y0124317D01*
X0049609Y0125315D02*
X0045543Y0125315D01*
X0045543Y0126314D02*
X0049609Y0126314D01*
X0049609Y0127312D02*
X0045543Y0127312D01*
X0045483Y0128311D02*
X0049609Y0128311D01*
X0053391Y0126314D02*
X0096821Y0126314D01*
X0098000Y0126314D02*
X0099000Y0126314D01*
X0099000Y0127312D02*
X0098000Y0127312D01*
X0098000Y0128311D02*
X0099000Y0128311D01*
X0099000Y0129309D02*
X0098000Y0129309D01*
X0098000Y0130308D02*
X0099000Y0130308D01*
X0099000Y0131306D02*
X0098000Y0131306D01*
X0103000Y0131306D02*
X0104409Y0131306D01*
X0104409Y0130308D02*
X0103000Y0130308D01*
X0102845Y0129309D02*
X0104566Y0129309D01*
X0104979Y0128311D02*
X0102435Y0128311D01*
X0101676Y0127312D02*
X0105903Y0127312D01*
X0111097Y0127312D02*
X0122579Y0127312D01*
X0122031Y0126314D02*
X0100179Y0126314D01*
X0102533Y0123318D02*
X0096467Y0123318D01*
X0097465Y0122320D02*
X0101535Y0122320D01*
X0100536Y0121321D02*
X0098464Y0121321D01*
X0098591Y0120323D02*
X0100409Y0120323D01*
X0100409Y0119324D02*
X0098591Y0119324D01*
X0098591Y0118326D02*
X0100409Y0118326D01*
X0100888Y0117327D02*
X0098112Y0117327D01*
X0092548Y0113333D02*
X0086452Y0113333D01*
X0087450Y0112335D02*
X0091550Y0112335D01*
X0090551Y0111336D02*
X0088449Y0111336D01*
X0088591Y0110338D02*
X0090409Y0110338D01*
X0090409Y0109339D02*
X0088591Y0109339D01*
X0088591Y0108341D02*
X0090409Y0108341D01*
X0090873Y0107342D02*
X0088127Y0107342D01*
X0087129Y0106344D02*
X0091871Y0106344D01*
X0089250Y0100700D02*
X0089250Y0094650D01*
X0089242Y0094642D01*
X0089197Y0094642D01*
X0091559Y0094642D02*
X0091559Y0088799D01*
X0091758Y0088600D01*
X0091758Y0087500D01*
X0091077Y0087500D01*
X0093742Y0087500D02*
X0093742Y0088600D01*
X0093921Y0088779D01*
X0093921Y0094642D01*
X0096250Y0094650D02*
X0096258Y0094642D01*
X0096283Y0094642D01*
X0096250Y0094650D02*
X0096250Y0100750D01*
X0096327Y0100353D02*
X0123914Y0100353D01*
X0123650Y0100650D02*
X0124700Y0099600D01*
X0124700Y0098000D01*
X0124630Y0097930D01*
X0124630Y0094642D01*
X0124630Y0099636D01*
X0124630Y0099637D01*
X0124630Y0094642D01*
X0124630Y0094642D01*
X0124630Y0089205D01*
X0124630Y0094642D01*
X0124630Y0094642D01*
X0124630Y0094362D02*
X0124630Y0094362D01*
X0124630Y0095360D02*
X0124630Y0095360D01*
X0124630Y0096359D02*
X0124630Y0096359D01*
X0124630Y0097357D02*
X0124630Y0097357D01*
X0124630Y0098356D02*
X0124630Y0098356D01*
X0124630Y0099354D02*
X0124630Y0099354D01*
X0122915Y0101351D02*
X0062025Y0101351D01*
X0063023Y0102350D02*
X0122031Y0102350D01*
X0122031Y0103348D02*
X0063391Y0103348D01*
X0061026Y0100353D02*
X0074980Y0100353D01*
X0075050Y0100650D02*
X0075050Y0094600D01*
X0075024Y0094626D01*
X0075024Y0094642D01*
X0077386Y0094642D02*
X0077386Y0088422D01*
X0077608Y0088200D01*
X0077608Y0079989D01*
X0084089Y0073508D01*
X0097589Y0073508D01*
X0099008Y0072089D01*
X0099008Y0069500D01*
X0098327Y0069500D01*
X0100992Y0069500D02*
X0100992Y0072911D01*
X0098411Y0075492D01*
X0084911Y0075492D01*
X0079592Y0080811D01*
X0079592Y0088200D01*
X0079748Y0088356D01*
X0079748Y0094642D01*
X0082100Y0094600D02*
X0082110Y0094610D01*
X0082110Y0094642D01*
X0082100Y0094600D02*
X0082100Y0100800D01*
X0084472Y0094642D02*
X0084472Y0088635D01*
X0084708Y0088400D01*
X0084708Y0083889D01*
X0089089Y0079508D01*
X0101589Y0079508D01*
X0106008Y0075089D01*
X0106008Y0069500D01*
X0105327Y0069500D01*
X0107992Y0069500D02*
X0107992Y0075911D01*
X0102411Y0081492D01*
X0089911Y0081492D01*
X0086692Y0084711D01*
X0086692Y0088400D01*
X0086835Y0088543D01*
X0086835Y0094642D01*
X0093742Y0087500D02*
X0094423Y0087500D01*
X0097459Y0085375D02*
X0111412Y0085375D01*
X0112411Y0084376D02*
X0103205Y0084376D01*
X0104723Y0083378D02*
X0114373Y0083378D01*
X0115371Y0082379D02*
X0105722Y0082379D01*
X0106720Y0081381D02*
X0116370Y0081381D01*
X0117368Y0080382D02*
X0107719Y0080382D01*
X0108717Y0079384D02*
X0118367Y0079384D01*
X0119365Y0078385D02*
X0109716Y0078385D01*
X0110594Y0077387D02*
X0120364Y0077387D01*
X0121362Y0076388D02*
X0110961Y0076388D01*
X0110961Y0075390D02*
X0122361Y0075390D01*
X0123359Y0074391D02*
X0110961Y0074391D01*
X0110961Y0073393D02*
X0124358Y0073393D01*
X0125356Y0072394D02*
X0110961Y0072394D01*
X0111838Y0071396D02*
X0126355Y0071396D01*
X0127353Y0070397D02*
X0112252Y0070397D01*
X0112323Y0069399D02*
X0187352Y0069399D01*
X0188350Y0068400D02*
X0112168Y0068400D01*
X0113342Y0067402D02*
X0117021Y0067402D01*
X0118724Y0067402D02*
X0118724Y0067402D01*
X0118724Y0067795D02*
X0118724Y0062358D01*
X0118724Y0062358D01*
X0118724Y0067795D01*
X0118724Y0066403D02*
X0118724Y0066403D01*
X0118724Y0065405D02*
X0118724Y0065405D01*
X0118724Y0064406D02*
X0118724Y0064406D01*
X0118724Y0063408D02*
X0118724Y0063408D01*
X0118724Y0062409D02*
X0118724Y0062409D01*
X0118724Y0061411D02*
X0118724Y0061411D01*
X0118724Y0060412D02*
X0118724Y0060412D01*
X0118724Y0059414D02*
X0118724Y0059414D01*
X0118724Y0058415D02*
X0118724Y0058415D01*
X0118724Y0057417D02*
X0118724Y0057417D01*
X0125811Y0057417D02*
X0125811Y0057417D01*
X0125811Y0056921D02*
X0125811Y0062358D01*
X0125811Y0062358D01*
X0125811Y0056921D01*
X0125811Y0058415D02*
X0125811Y0058415D01*
X0125811Y0059414D02*
X0125811Y0059414D01*
X0125811Y0060412D02*
X0125811Y0060412D01*
X0125811Y0061411D02*
X0125811Y0061411D01*
X0125811Y0062358D02*
X0125811Y0067795D01*
X0125811Y0062358D01*
X0125811Y0062358D01*
X0125811Y0062409D02*
X0125811Y0062409D01*
X0125811Y0063408D02*
X0125811Y0063408D01*
X0125811Y0064406D02*
X0125811Y0064406D01*
X0125811Y0065405D02*
X0125811Y0065405D01*
X0125811Y0066403D02*
X0125811Y0066403D01*
X0125811Y0067402D02*
X0125811Y0067402D01*
X0124107Y0067402D02*
X0120428Y0067402D01*
X0127515Y0067402D02*
X0131194Y0067402D01*
X0132898Y0067402D02*
X0132898Y0067402D01*
X0132898Y0066403D02*
X0132898Y0066403D01*
X0132898Y0065405D02*
X0132898Y0065405D01*
X0132898Y0064406D02*
X0132898Y0064406D01*
X0132898Y0063408D02*
X0132898Y0063408D01*
X0132898Y0062409D02*
X0132898Y0062409D01*
X0132898Y0061411D02*
X0132898Y0061411D01*
X0132898Y0060412D02*
X0132898Y0060412D01*
X0132898Y0059414D02*
X0132898Y0059414D01*
X0132898Y0058415D02*
X0132898Y0058415D01*
X0132898Y0057417D02*
X0132898Y0057417D01*
X0139984Y0057417D02*
X0139984Y0057417D01*
X0139984Y0058415D02*
X0139984Y0058415D01*
X0139984Y0059414D02*
X0139984Y0059414D01*
X0139984Y0060412D02*
X0139984Y0060412D01*
X0139984Y0061411D02*
X0139984Y0061411D01*
X0139984Y0062358D02*
X0139984Y0067795D01*
X0139984Y0062358D01*
X0139984Y0062358D01*
X0139984Y0062409D02*
X0139984Y0062409D01*
X0139984Y0063408D02*
X0139984Y0063408D01*
X0139984Y0064406D02*
X0139984Y0064406D01*
X0139984Y0065405D02*
X0139984Y0065405D01*
X0139984Y0066403D02*
X0139984Y0066403D01*
X0139984Y0067402D02*
X0139984Y0067402D01*
X0138280Y0067402D02*
X0134601Y0067402D01*
X0141688Y0067402D02*
X0145367Y0067402D01*
X0147071Y0067402D02*
X0147071Y0067402D01*
X0147071Y0066403D02*
X0147071Y0066403D01*
X0147071Y0065405D02*
X0147071Y0065405D01*
X0147071Y0064406D02*
X0147071Y0064406D01*
X0147071Y0063408D02*
X0147071Y0063408D01*
X0147071Y0062409D02*
X0147071Y0062409D01*
X0147071Y0061411D02*
X0147071Y0061411D01*
X0147071Y0060412D02*
X0147071Y0060412D01*
X0147071Y0059414D02*
X0147071Y0059414D01*
X0147071Y0058415D02*
X0147071Y0058415D01*
X0147071Y0057417D02*
X0147071Y0057417D01*
X0154157Y0057417D02*
X0154158Y0057417D01*
X0154157Y0058415D02*
X0154158Y0058415D01*
X0154157Y0059414D02*
X0154158Y0059414D01*
X0154157Y0060412D02*
X0154158Y0060412D01*
X0154157Y0061411D02*
X0154158Y0061411D01*
X0154157Y0062409D02*
X0154158Y0062409D01*
X0154157Y0063408D02*
X0154158Y0063408D01*
X0154157Y0064406D02*
X0154158Y0064406D01*
X0154157Y0065405D02*
X0154158Y0065405D01*
X0154157Y0066403D02*
X0154158Y0066403D01*
X0154157Y0067402D02*
X0154158Y0067402D01*
X0155861Y0067402D02*
X0159540Y0067402D01*
X0161244Y0067402D02*
X0161244Y0067402D01*
X0161244Y0067795D02*
X0161244Y0062358D01*
X0161244Y0062358D01*
X0161244Y0067795D01*
X0161244Y0066403D02*
X0161244Y0066403D01*
X0161244Y0065405D02*
X0161244Y0065405D01*
X0161244Y0064406D02*
X0161244Y0064406D01*
X0161244Y0063408D02*
X0161244Y0063408D01*
X0161244Y0062409D02*
X0161244Y0062409D01*
X0161244Y0061411D02*
X0161244Y0061411D01*
X0161244Y0060412D02*
X0161244Y0060412D01*
X0161244Y0059414D02*
X0161244Y0059414D01*
X0161244Y0058415D02*
X0161244Y0058415D01*
X0161244Y0057417D02*
X0161244Y0057417D01*
X0168331Y0057417D02*
X0168331Y0057417D01*
X0168331Y0058415D02*
X0168331Y0058415D01*
X0168331Y0059414D02*
X0168331Y0059414D01*
X0168331Y0060412D02*
X0168331Y0060412D01*
X0168331Y0061411D02*
X0168331Y0061411D01*
X0168331Y0062409D02*
X0168331Y0062409D01*
X0168331Y0063408D02*
X0168331Y0063408D01*
X0168331Y0064406D02*
X0168331Y0064406D01*
X0168331Y0065405D02*
X0168331Y0065405D01*
X0168331Y0066403D02*
X0168331Y0066403D01*
X0168331Y0067402D02*
X0168331Y0067402D01*
X0170035Y0067402D02*
X0173714Y0067402D01*
X0175417Y0067402D02*
X0175417Y0067402D01*
X0175417Y0067795D02*
X0175417Y0062358D01*
X0175417Y0062358D01*
X0175417Y0067795D01*
X0175417Y0066403D02*
X0175417Y0066403D01*
X0175417Y0065405D02*
X0175417Y0065405D01*
X0175417Y0064406D02*
X0175417Y0064406D01*
X0175417Y0063408D02*
X0175417Y0063408D01*
X0175417Y0062409D02*
X0175417Y0062409D01*
X0175417Y0061411D02*
X0175417Y0061411D01*
X0175417Y0060412D02*
X0175417Y0060412D01*
X0175417Y0059414D02*
X0175417Y0059414D01*
X0175417Y0058415D02*
X0175417Y0058415D01*
X0175417Y0057417D02*
X0175417Y0057417D01*
X0182504Y0057417D02*
X0182504Y0057417D01*
X0182504Y0058415D02*
X0182504Y0058415D01*
X0182504Y0059414D02*
X0182504Y0059414D01*
X0182504Y0060412D02*
X0182504Y0060412D01*
X0182504Y0061411D02*
X0182504Y0061411D01*
X0182504Y0062409D02*
X0182504Y0062409D01*
X0182504Y0063408D02*
X0182504Y0063408D01*
X0182504Y0064406D02*
X0182504Y0064406D01*
X0182504Y0065405D02*
X0182504Y0065405D01*
X0182504Y0066403D02*
X0182504Y0066403D01*
X0182504Y0067402D02*
X0182504Y0067402D01*
X0184208Y0067402D02*
X0187887Y0067402D01*
X0192854Y0071396D02*
X0208209Y0071396D01*
X0208209Y0072394D02*
X0191855Y0072394D01*
X0190857Y0073393D02*
X0208209Y0073393D01*
X0209142Y0074391D02*
X0189858Y0074391D01*
X0193852Y0070397D02*
X0204906Y0070397D01*
X0204200Y0069399D02*
X0194851Y0069399D01*
X0195849Y0068400D02*
X0204031Y0068400D01*
X0203764Y0067402D02*
X0203764Y0067402D01*
X0203764Y0066403D02*
X0203764Y0066403D01*
X0203764Y0065405D02*
X0203764Y0065405D01*
X0203764Y0064406D02*
X0203764Y0064406D01*
X0203764Y0063408D02*
X0203764Y0063408D01*
X0203764Y0062409D02*
X0203764Y0062409D01*
X0203764Y0061411D02*
X0203764Y0061411D01*
X0203764Y0060412D02*
X0203764Y0060412D01*
X0203764Y0059414D02*
X0203764Y0059414D01*
X0203764Y0058415D02*
X0203764Y0058415D01*
X0203764Y0057417D02*
X0203764Y0057417D01*
X0207353Y0057417D02*
X0208209Y0057417D01*
X0208209Y0058415D02*
X0207905Y0058415D01*
X0207905Y0059414D02*
X0208209Y0059414D01*
X0208209Y0060412D02*
X0207905Y0060412D01*
X0207905Y0061411D02*
X0208209Y0061411D01*
X0208209Y0062409D02*
X0207905Y0062409D01*
X0207905Y0063408D02*
X0208209Y0063408D01*
X0208209Y0064406D02*
X0207905Y0064406D01*
X0207905Y0065405D02*
X0208209Y0065405D01*
X0208209Y0066403D02*
X0207905Y0066403D01*
X0206126Y0068126D02*
X0206500Y0068500D01*
X0206126Y0068126D02*
X0206126Y0062358D01*
X0202060Y0067402D02*
X0198381Y0067402D01*
X0196677Y0067402D02*
X0196677Y0067402D01*
X0196677Y0066403D02*
X0196677Y0066403D01*
X0196677Y0065405D02*
X0196677Y0065405D01*
X0196677Y0064406D02*
X0196677Y0064406D01*
X0196677Y0063408D02*
X0196677Y0063408D01*
X0208094Y0070397D02*
X0208209Y0070397D01*
X0209800Y0072800D02*
X0209800Y0054800D01*
X0204300Y0049300D01*
X0204300Y0044800D01*
X0202709Y0046433D02*
X0088168Y0046433D01*
X0087170Y0047432D02*
X0202709Y0047432D01*
X0202709Y0048430D02*
X0086171Y0048430D01*
X0085173Y0049429D02*
X0202709Y0049429D01*
X0203178Y0050427D02*
X0084174Y0050427D01*
X0083661Y0051426D02*
X0204176Y0051426D01*
X0205175Y0052424D02*
X0083661Y0052424D01*
X0083661Y0053423D02*
X0206173Y0053423D01*
X0207172Y0054421D02*
X0083898Y0054421D01*
X0083898Y0055420D02*
X0208170Y0055420D01*
X0208209Y0056418D02*
X0083898Y0056418D01*
X0080929Y0054837D02*
X0080929Y0062358D01*
X0078567Y0062358D02*
X0078567Y0054741D01*
X0078708Y0054600D01*
X0078708Y0048889D01*
X0088008Y0039589D01*
X0088008Y0033500D01*
X0087327Y0033500D01*
X0089992Y0033500D02*
X0089992Y0040411D01*
X0080692Y0049711D01*
X0080692Y0054600D01*
X0080929Y0054837D01*
X0090378Y0057417D02*
X0090378Y0057417D01*
X0090378Y0058415D02*
X0090378Y0058415D01*
X0090378Y0059414D02*
X0090378Y0059414D01*
X0090378Y0060412D02*
X0090378Y0060412D01*
X0090378Y0061411D02*
X0090378Y0061411D01*
X0090378Y0062409D02*
X0090378Y0062409D01*
X0090378Y0063408D02*
X0090378Y0063408D01*
X0090378Y0064406D02*
X0090378Y0064406D01*
X0090378Y0065405D02*
X0090378Y0065405D01*
X0090378Y0066403D02*
X0090378Y0066403D01*
X0090378Y0067402D02*
X0090378Y0067402D01*
X0092082Y0067402D02*
X0095264Y0067402D01*
X0094832Y0068400D02*
X0082987Y0068400D01*
X0083291Y0068291D02*
X0083500Y0068500D01*
X0085550Y0068500D01*
X0086450Y0069400D01*
X0084995Y0067402D02*
X0088674Y0067402D01*
X0083291Y0068291D02*
X0083291Y0062358D01*
X0076509Y0068400D02*
X0075900Y0068400D01*
X0069423Y0068400D02*
X0068814Y0068400D01*
X0069118Y0069118D02*
X0069500Y0069500D01*
X0069118Y0069118D02*
X0069118Y0062358D01*
X0071480Y0062358D02*
X0071480Y0054728D01*
X0071608Y0054600D01*
X0071608Y0049011D01*
X0069508Y0046911D01*
X0069508Y0042089D01*
X0074461Y0044436D02*
X0078963Y0044436D01*
X0079961Y0043437D02*
X0075164Y0043437D01*
X0076162Y0042439D02*
X0080960Y0042439D01*
X0081958Y0041440D02*
X0077161Y0041440D01*
X0078159Y0040442D02*
X0082957Y0040442D01*
X0083955Y0039443D02*
X0079158Y0039443D01*
X0080156Y0038445D02*
X0084954Y0038445D01*
X0085039Y0037446D02*
X0080893Y0037446D01*
X0081161Y0036448D02*
X0085039Y0036448D01*
X0084184Y0035449D02*
X0082016Y0035449D01*
X0082430Y0034451D02*
X0083770Y0034451D01*
X0083677Y0033452D02*
X0082523Y0033452D01*
X0082390Y0032454D02*
X0083810Y0032454D01*
X0084223Y0031455D02*
X0081977Y0031455D01*
X0080991Y0030457D02*
X0085209Y0030457D01*
X0089992Y0033500D02*
X0090673Y0033500D01*
X0094323Y0033452D02*
X0096528Y0033452D01*
X0096528Y0032454D02*
X0094190Y0032454D01*
X0093777Y0031455D02*
X0097432Y0031455D01*
X0098800Y0033300D02*
X0098800Y0039800D01*
X0100500Y0041500D01*
X0218500Y0041500D01*
X0221500Y0044500D01*
X0221500Y0052500D01*
X0225500Y0056500D01*
X0254500Y0056500D01*
X0255732Y0057732D01*
X0255732Y0062358D01*
X0253370Y0062358D02*
X0253370Y0062358D01*
X0253370Y0067795D01*
X0253370Y0062358D01*
X0253370Y0062409D02*
X0253370Y0062409D01*
X0253370Y0063408D02*
X0253370Y0063408D01*
X0253370Y0064406D02*
X0253370Y0064406D01*
X0253370Y0065405D02*
X0253370Y0065405D01*
X0253370Y0066403D02*
X0253370Y0066403D01*
X0253370Y0067402D02*
X0253370Y0067402D01*
X0251666Y0067402D02*
X0247987Y0067402D01*
X0246284Y0067402D02*
X0246283Y0067402D01*
X0246283Y0066403D02*
X0246284Y0066403D01*
X0246283Y0065405D02*
X0246284Y0065405D01*
X0246283Y0064406D02*
X0246284Y0064406D01*
X0246283Y0063408D02*
X0246284Y0063408D01*
X0246283Y0062409D02*
X0246284Y0062409D01*
X0244580Y0067402D02*
X0240901Y0067402D01*
X0239197Y0067402D02*
X0239197Y0067402D01*
X0239197Y0066403D02*
X0239197Y0066403D01*
X0239197Y0065405D02*
X0239197Y0065405D01*
X0239197Y0064406D02*
X0239197Y0064406D01*
X0239197Y0063408D02*
X0239197Y0063408D01*
X0239197Y0062409D02*
X0239197Y0062409D01*
X0237493Y0067402D02*
X0233814Y0067402D01*
X0232110Y0067402D02*
X0232110Y0067402D01*
X0232110Y0067795D02*
X0232110Y0062358D01*
X0232110Y0062358D01*
X0232110Y0067795D01*
X0232110Y0066403D02*
X0232110Y0066403D01*
X0232110Y0065405D02*
X0232110Y0065405D01*
X0232110Y0064406D02*
X0232110Y0064406D01*
X0232110Y0063408D02*
X0232110Y0063408D01*
X0232110Y0062409D02*
X0232110Y0062409D01*
X0230406Y0067402D02*
X0226727Y0067402D01*
X0225024Y0067402D02*
X0225024Y0067402D01*
X0225024Y0066403D02*
X0225024Y0066403D01*
X0225024Y0065405D02*
X0225024Y0065405D01*
X0225024Y0064406D02*
X0225024Y0064406D01*
X0225024Y0063408D02*
X0225024Y0063408D01*
X0225024Y0062409D02*
X0225024Y0062409D01*
X0222661Y0062358D02*
X0222661Y0067661D01*
X0222500Y0068500D01*
X0220200Y0069399D02*
X0217791Y0069399D01*
X0217791Y0068400D02*
X0220031Y0068400D01*
X0220283Y0067402D02*
X0217791Y0067402D01*
X0217791Y0066403D02*
X0220882Y0066403D01*
X0220882Y0065405D02*
X0217791Y0065405D01*
X0217791Y0064406D02*
X0220882Y0064406D01*
X0220882Y0063408D02*
X0217791Y0063408D01*
X0217791Y0062409D02*
X0220882Y0062409D01*
X0220882Y0061411D02*
X0217791Y0061411D01*
X0217791Y0060412D02*
X0220882Y0060412D01*
X0220882Y0059414D02*
X0217791Y0059414D01*
X0217791Y0058415D02*
X0220882Y0058415D01*
X0221435Y0057417D02*
X0217791Y0057417D01*
X0217791Y0056418D02*
X0223169Y0056418D01*
X0222170Y0055420D02*
X0217791Y0055420D01*
X0217791Y0054421D02*
X0221172Y0054421D01*
X0220173Y0053423D02*
X0217791Y0053423D01*
X0217791Y0052424D02*
X0219909Y0052424D01*
X0219909Y0051426D02*
X0217791Y0051426D01*
X0217791Y0050427D02*
X0219909Y0050427D01*
X0219909Y0049429D02*
X0217791Y0049429D01*
X0217791Y0048430D02*
X0219909Y0048430D01*
X0219909Y0047432D02*
X0217791Y0047432D01*
X0217791Y0046433D02*
X0219909Y0046433D01*
X0219909Y0045434D02*
X0218472Y0045434D01*
X0218472Y0044436D02*
X0219187Y0044436D01*
X0218188Y0043437D02*
X0218050Y0043437D01*
X0216200Y0044800D02*
X0216200Y0070200D01*
X0235654Y0089654D01*
X0235654Y0094642D01*
X0238016Y0094642D02*
X0238016Y0094642D01*
X0238016Y0089205D01*
X0238016Y0094642D01*
X0238016Y0094362D02*
X0238016Y0094362D01*
X0238016Y0095360D02*
X0238016Y0095360D01*
X0238016Y0096359D02*
X0238016Y0096359D01*
X0238016Y0097357D02*
X0238016Y0097357D01*
X0238016Y0098356D02*
X0238016Y0098356D01*
X0238016Y0099354D02*
X0238016Y0099354D01*
X0233291Y0094642D02*
X0233291Y0090291D01*
X0214100Y0071100D01*
X0214100Y0050900D01*
X0212200Y0049000D01*
X0212200Y0044800D01*
X0208300Y0044800D02*
X0208300Y0049200D01*
X0212000Y0052900D01*
X0212000Y0072000D01*
X0228567Y0088567D01*
X0228567Y0094642D01*
X0230929Y0094642D02*
X0230929Y0100079D01*
X0230929Y0094642D01*
X0230929Y0094642D01*
X0230929Y0095360D02*
X0230929Y0095360D01*
X0230929Y0096359D02*
X0230929Y0096359D01*
X0230929Y0097357D02*
X0230929Y0097357D01*
X0230929Y0098356D02*
X0230929Y0098356D01*
X0230929Y0099354D02*
X0230929Y0099354D01*
X0226205Y0094642D02*
X0226205Y0089205D01*
X0209800Y0072800D01*
X0210140Y0075390D02*
X0130860Y0075390D01*
X0129861Y0076388D02*
X0211139Y0076388D01*
X0212137Y0077387D02*
X0128862Y0077387D01*
X0127864Y0078385D02*
X0213136Y0078385D01*
X0214135Y0079384D02*
X0126865Y0079384D01*
X0125867Y0080382D02*
X0215133Y0080382D01*
X0216132Y0081381D02*
X0168630Y0081381D01*
X0169629Y0082379D02*
X0217130Y0082379D01*
X0218129Y0083378D02*
X0170627Y0083378D01*
X0171626Y0084376D02*
X0219127Y0084376D01*
X0220126Y0085375D02*
X0172624Y0085375D01*
X0173465Y0086373D02*
X0205183Y0086373D01*
X0205102Y0086407D02*
X0206009Y0086031D01*
X0206991Y0086031D01*
X0207898Y0086407D01*
X0208593Y0087102D01*
X0208968Y0088009D01*
X0208968Y0088991D01*
X0208593Y0089898D01*
X0207898Y0090593D01*
X0206991Y0090968D01*
X0206724Y0090968D01*
X0206724Y0099030D01*
X0206086Y0099669D01*
X0204302Y0099669D01*
X0204193Y0099779D01*
X0203851Y0099977D01*
X0203469Y0100079D01*
X0202583Y0100079D01*
X0202583Y0094642D01*
X0202583Y0094642D01*
X0202583Y0100079D01*
X0201696Y0100079D01*
X0201315Y0099977D01*
X0200973Y0099779D01*
X0200863Y0099669D01*
X0199080Y0099669D01*
X0199039Y0099629D01*
X0198999Y0099669D01*
X0197216Y0099669D01*
X0197106Y0099779D01*
X0196764Y0099977D01*
X0196383Y0100079D01*
X0195496Y0100079D01*
X0194610Y0100079D01*
X0194228Y0099977D01*
X0193886Y0099779D01*
X0193776Y0099669D01*
X0191993Y0099669D01*
X0191953Y0099629D01*
X0191912Y0099669D01*
X0190129Y0099669D01*
X0190019Y0099779D01*
X0189677Y0099977D01*
X0189296Y0100079D01*
X0188409Y0100079D01*
X0187523Y0100079D01*
X0187141Y0099977D01*
X0186799Y0099779D01*
X0186690Y0099669D01*
X0184907Y0099669D01*
X0184866Y0099629D01*
X0184826Y0099669D01*
X0183043Y0099669D01*
X0182933Y0099779D01*
X0182591Y0099977D01*
X0182209Y0100079D01*
X0181323Y0100079D01*
X0181323Y0094642D01*
X0181323Y0094642D01*
X0181323Y0100079D01*
X0180436Y0100079D01*
X0180055Y0099977D01*
X0179713Y0099779D01*
X0179603Y0099669D01*
X0177820Y0099669D01*
X0177780Y0099629D01*
X0177739Y0099669D01*
X0175956Y0099669D01*
X0175846Y0099779D01*
X0175504Y0099977D01*
X0175123Y0100079D01*
X0174236Y0100079D01*
X0174236Y0094642D01*
X0174236Y0094642D01*
X0174236Y0094642D01*
X0174236Y0089205D01*
X0175123Y0089205D01*
X0175504Y0089307D01*
X0175846Y0089504D01*
X0175956Y0089614D01*
X0177739Y0089614D01*
X0177780Y0089655D01*
X0177820Y0089614D01*
X0179603Y0089614D01*
X0179713Y0089504D01*
X0180055Y0089307D01*
X0180436Y0089205D01*
X0181323Y0089205D01*
X0182209Y0089205D01*
X0182591Y0089307D01*
X0182933Y0089504D01*
X0183043Y0089614D01*
X0184826Y0089614D01*
X0184866Y0089655D01*
X0184907Y0089614D01*
X0186690Y0089614D01*
X0186799Y0089504D01*
X0187141Y0089307D01*
X0187523Y0089205D01*
X0188409Y0089205D01*
X0188409Y0094642D01*
X0188409Y0100079D01*
X0188409Y0094642D01*
X0188409Y0094642D01*
X0188409Y0094642D01*
X0188409Y0089205D01*
X0189296Y0089205D01*
X0189677Y0089307D01*
X0190019Y0089504D01*
X0190129Y0089614D01*
X0191912Y0089614D01*
X0191953Y0089655D01*
X0191993Y0089614D01*
X0193776Y0089614D01*
X0193886Y0089504D01*
X0194228Y0089307D01*
X0194610Y0089205D01*
X0195496Y0089205D01*
X0195496Y0094642D01*
X0195496Y0100079D01*
X0195496Y0094642D01*
X0195496Y0094642D01*
X0195496Y0094642D01*
X0195496Y0089205D01*
X0196383Y0089205D01*
X0196764Y0089307D01*
X0197106Y0089504D01*
X0197216Y0089614D01*
X0198999Y0089614D01*
X0199039Y0089655D01*
X0199080Y0089614D01*
X0200863Y0089614D01*
X0200973Y0089504D01*
X0201315Y0089307D01*
X0201696Y0089205D01*
X0202583Y0089205D01*
X0203469Y0089205D01*
X0203530Y0089221D01*
X0204031Y0088719D01*
X0204031Y0088009D01*
X0204407Y0087102D01*
X0205102Y0086407D01*
X0204295Y0087372D02*
X0173465Y0087372D01*
X0173465Y0088370D02*
X0204031Y0088370D01*
X0202583Y0089205D02*
X0202583Y0094642D01*
X0202583Y0094642D01*
X0202583Y0089205D01*
X0202583Y0089369D02*
X0202583Y0089369D01*
X0202583Y0090368D02*
X0202583Y0090368D01*
X0202583Y0091366D02*
X0202583Y0091366D01*
X0202583Y0092365D02*
X0202583Y0092365D01*
X0202583Y0093363D02*
X0202583Y0093363D01*
X0202583Y0094362D02*
X0202583Y0094362D01*
X0202583Y0095360D02*
X0202583Y0095360D01*
X0202583Y0096359D02*
X0202583Y0096359D01*
X0202583Y0097357D02*
X0202583Y0097357D01*
X0202583Y0098356D02*
X0202583Y0098356D01*
X0202583Y0099354D02*
X0202583Y0099354D01*
X0206401Y0099354D02*
X0220024Y0099354D01*
X0219701Y0098356D02*
X0206724Y0098356D01*
X0206724Y0097357D02*
X0219701Y0097357D01*
X0219701Y0096359D02*
X0206724Y0096359D01*
X0206724Y0095360D02*
X0219701Y0095360D01*
X0219701Y0094362D02*
X0206724Y0094362D01*
X0206724Y0093363D02*
X0219701Y0093363D01*
X0219701Y0092365D02*
X0206724Y0092365D01*
X0206724Y0091366D02*
X0219701Y0091366D01*
X0221480Y0090480D02*
X0219500Y0088500D01*
X0217188Y0089369D02*
X0208812Y0089369D01*
X0208968Y0088370D02*
X0217031Y0088370D01*
X0217295Y0087372D02*
X0208705Y0087372D01*
X0207817Y0086373D02*
X0218183Y0086373D01*
X0220817Y0086373D02*
X0221124Y0086373D01*
X0221705Y0087372D02*
X0222123Y0087372D01*
X0221968Y0088370D02*
X0223121Y0088370D01*
X0223842Y0089369D02*
X0223843Y0089369D01*
X0223842Y0090368D02*
X0223843Y0090368D01*
X0223842Y0091366D02*
X0223843Y0091366D01*
X0223842Y0092365D02*
X0223843Y0092365D01*
X0223842Y0093363D02*
X0223843Y0093363D01*
X0223842Y0094362D02*
X0223843Y0094362D01*
X0223842Y0095360D02*
X0223843Y0095360D01*
X0223842Y0096359D02*
X0223843Y0096359D01*
X0223842Y0097357D02*
X0223843Y0097357D01*
X0223842Y0098356D02*
X0223843Y0098356D01*
X0223842Y0099354D02*
X0223843Y0099354D01*
X0221480Y0094642D02*
X0221480Y0090480D01*
X0217877Y0090368D02*
X0208123Y0090368D01*
X0206500Y0088500D02*
X0204945Y0090055D01*
X0204945Y0094642D01*
X0201207Y0089369D02*
X0196871Y0089369D01*
X0195496Y0089369D02*
X0195496Y0089369D01*
X0195496Y0090368D02*
X0195496Y0090368D01*
X0195496Y0091366D02*
X0195496Y0091366D01*
X0195496Y0092365D02*
X0195496Y0092365D01*
X0195496Y0093363D02*
X0195496Y0093363D01*
X0195496Y0094362D02*
X0195496Y0094362D01*
X0195496Y0095360D02*
X0195496Y0095360D01*
X0195496Y0096359D02*
X0195496Y0096359D01*
X0195496Y0097357D02*
X0195496Y0097357D01*
X0195496Y0098356D02*
X0195496Y0098356D01*
X0195496Y0099354D02*
X0195496Y0099354D01*
X0188409Y0099354D02*
X0188409Y0099354D01*
X0188409Y0098356D02*
X0188409Y0098356D01*
X0188409Y0097357D02*
X0188409Y0097357D01*
X0188409Y0096359D02*
X0188409Y0096359D01*
X0188409Y0095360D02*
X0188409Y0095360D01*
X0188409Y0094362D02*
X0188409Y0094362D01*
X0188409Y0093363D02*
X0188409Y0093363D01*
X0188409Y0092365D02*
X0188409Y0092365D01*
X0188409Y0091366D02*
X0188409Y0091366D01*
X0188409Y0090368D02*
X0188409Y0090368D01*
X0188409Y0089369D02*
X0188409Y0089369D01*
X0187034Y0089369D02*
X0182698Y0089369D01*
X0181323Y0089369D02*
X0181323Y0089369D01*
X0181323Y0089205D02*
X0181323Y0094642D01*
X0181323Y0094642D01*
X0181323Y0089205D01*
X0181323Y0090368D02*
X0181323Y0090368D01*
X0181323Y0091366D02*
X0181323Y0091366D01*
X0181323Y0092365D02*
X0181323Y0092365D01*
X0181323Y0093363D02*
X0181323Y0093363D01*
X0181323Y0094362D02*
X0181323Y0094362D01*
X0181323Y0095360D02*
X0181323Y0095360D01*
X0181323Y0096359D02*
X0181323Y0096359D01*
X0181323Y0097357D02*
X0181323Y0097357D01*
X0181323Y0098356D02*
X0181323Y0098356D01*
X0181323Y0099354D02*
X0181323Y0099354D01*
X0174236Y0099354D02*
X0174236Y0099354D01*
X0174236Y0098356D02*
X0174236Y0098356D01*
X0174236Y0097357D02*
X0174236Y0097357D01*
X0174236Y0096359D02*
X0174236Y0096359D01*
X0174236Y0095360D02*
X0174236Y0095360D01*
X0174236Y0094362D02*
X0174236Y0094362D01*
X0174236Y0093363D02*
X0174236Y0093363D01*
X0174236Y0092365D02*
X0174236Y0092365D01*
X0174236Y0091366D02*
X0174236Y0091366D01*
X0174236Y0090368D02*
X0174236Y0090368D01*
X0174236Y0089369D02*
X0174236Y0089369D01*
X0175612Y0089369D02*
X0179947Y0089369D01*
X0189785Y0089369D02*
X0194121Y0089369D01*
X0166955Y0089205D02*
X0163841Y0086091D01*
X0150003Y0086091D01*
X0150472Y0086559D01*
X0150472Y0088441D01*
X0149843Y0089070D01*
X0149843Y0089614D01*
X0151257Y0089614D01*
X0151366Y0089504D01*
X0151708Y0089307D01*
X0152090Y0089205D01*
X0152976Y0089205D01*
X0152976Y0094642D01*
X0152976Y0100079D01*
X0152976Y0094642D01*
X0152976Y0094642D01*
X0152976Y0094642D01*
X0152976Y0089205D01*
X0153863Y0089205D01*
X0154244Y0089307D01*
X0154586Y0089504D01*
X0154696Y0089614D01*
X0156479Y0089614D01*
X0156520Y0089655D01*
X0156560Y0089614D01*
X0158343Y0089614D01*
X0158453Y0089504D01*
X0158795Y0089307D01*
X0159177Y0089205D01*
X0160063Y0089205D01*
X0160949Y0089205D01*
X0161331Y0089307D01*
X0161673Y0089504D01*
X0161783Y0089614D01*
X0163566Y0089614D01*
X0163606Y0089655D01*
X0163647Y0089614D01*
X0165430Y0089614D01*
X0165540Y0089504D01*
X0165882Y0089307D01*
X0166263Y0089205D01*
X0166955Y0089205D01*
X0166121Y0088370D02*
X0150472Y0088370D01*
X0150472Y0087372D02*
X0165123Y0087372D01*
X0164124Y0086373D02*
X0150286Y0086373D01*
X0148252Y0087552D02*
X0148252Y0094642D01*
X0152976Y0094362D02*
X0152976Y0094362D01*
X0152976Y0095360D02*
X0152976Y0095360D01*
X0152976Y0096359D02*
X0152976Y0096359D01*
X0152976Y0097357D02*
X0152976Y0097357D01*
X0152976Y0098356D02*
X0152976Y0098356D01*
X0152976Y0099354D02*
X0152976Y0099354D01*
X0155339Y0094642D02*
X0155339Y0104802D01*
X0154200Y0105941D01*
X0157701Y0105142D02*
X0158800Y0105941D01*
X0157701Y0105142D02*
X0157701Y0094642D01*
X0160063Y0094642D02*
X0160063Y0094642D01*
X0160063Y0089205D01*
X0160063Y0094642D01*
X0160063Y0094362D02*
X0160063Y0094362D01*
X0160063Y0095360D02*
X0160063Y0095360D01*
X0160063Y0096359D02*
X0160063Y0096359D01*
X0160063Y0097357D02*
X0160063Y0097357D01*
X0160063Y0098356D02*
X0160063Y0098356D01*
X0160063Y0099354D02*
X0160063Y0099354D01*
X0159291Y0100353D02*
X0282496Y0100353D01*
X0282496Y0101351D02*
X0159291Y0101351D01*
X0159291Y0102350D02*
X0282496Y0102350D01*
X0282496Y0103348D02*
X0159291Y0103348D01*
X0161662Y0104347D02*
X0282496Y0104347D01*
X0282496Y0105345D02*
X0161662Y0105345D01*
X0161662Y0106344D02*
X0282496Y0106344D01*
X0282496Y0107342D02*
X0161662Y0107342D01*
X0161250Y0108341D02*
X0282496Y0108341D01*
X0282496Y0109339D02*
X0162033Y0109339D01*
X0162072Y0110338D02*
X0282496Y0110338D01*
X0282496Y0111336D02*
X0162072Y0111336D01*
X0162072Y0112335D02*
X0282496Y0112335D01*
X0282496Y0113333D02*
X0161786Y0113333D01*
X0158989Y0113333D02*
X0158611Y0113333D01*
X0158611Y0112335D02*
X0158989Y0112335D01*
X0158989Y0111336D02*
X0158611Y0111336D01*
X0154389Y0111336D02*
X0154011Y0111336D01*
X0154011Y0112335D02*
X0154389Y0112335D01*
X0154389Y0113333D02*
X0154011Y0113333D01*
X0151214Y0113333D02*
X0141591Y0113333D01*
X0141591Y0114332D02*
X0282496Y0114332D01*
X0282496Y0115330D02*
X0141591Y0115330D01*
X0141456Y0116329D02*
X0261138Y0116329D01*
X0261138Y0116237D02*
X0261777Y0115598D01*
X0280397Y0115598D01*
X0281035Y0116237D01*
X0281035Y0135251D01*
X0280397Y0135890D01*
X0261777Y0135890D01*
X0261138Y0135251D01*
X0261138Y0116237D01*
X0261138Y0117327D02*
X0140458Y0117327D01*
X0139459Y0118326D02*
X0261138Y0118326D01*
X0261138Y0119324D02*
X0140058Y0119324D01*
X0141056Y0120323D02*
X0261138Y0120323D01*
X0261138Y0121321D02*
X0142055Y0121321D01*
X0142968Y0122320D02*
X0261138Y0122320D01*
X0261138Y0123318D02*
X0142968Y0123318D01*
X0142968Y0124317D02*
X0261138Y0124317D01*
X0261138Y0125315D02*
X0142968Y0125315D01*
X0142968Y0126314D02*
X0261138Y0126314D01*
X0261138Y0127312D02*
X0142421Y0127312D01*
X0141423Y0128311D02*
X0261138Y0128311D01*
X0261138Y0129309D02*
X0140424Y0129309D01*
X0134576Y0129309D02*
X0130424Y0129309D01*
X0131423Y0128311D02*
X0133577Y0128311D01*
X0132579Y0127312D02*
X0132421Y0127312D01*
X0132055Y0121321D02*
X0132945Y0121321D01*
X0133944Y0120323D02*
X0131056Y0120323D01*
X0130058Y0119324D02*
X0134942Y0119324D01*
X0135541Y0118326D02*
X0129459Y0118326D01*
X0130458Y0117327D02*
X0134542Y0117327D01*
X0133544Y0116329D02*
X0131456Y0116329D01*
X0131591Y0115330D02*
X0133409Y0115330D01*
X0133409Y0114332D02*
X0131591Y0114332D01*
X0131591Y0113333D02*
X0133409Y0113333D01*
X0133880Y0112335D02*
X0131120Y0112335D01*
X0130121Y0111336D02*
X0134879Y0111336D01*
X0134606Y0109339D02*
X0130394Y0109339D01*
X0131393Y0108341D02*
X0133607Y0108341D01*
X0132609Y0107342D02*
X0132391Y0107342D01*
X0132085Y0101351D02*
X0132915Y0101351D01*
X0133914Y0100353D02*
X0131086Y0100353D01*
X0131716Y0099354D02*
X0131717Y0099354D01*
X0131716Y0098356D02*
X0131717Y0098356D01*
X0131716Y0097357D02*
X0131717Y0097357D01*
X0131716Y0096359D02*
X0131717Y0096359D01*
X0131716Y0095360D02*
X0131717Y0095360D01*
X0131716Y0094362D02*
X0131717Y0094362D01*
X0131716Y0093363D02*
X0131717Y0093363D01*
X0131716Y0092365D02*
X0131717Y0092365D01*
X0131716Y0091366D02*
X0131717Y0091366D01*
X0131716Y0090368D02*
X0131717Y0090368D01*
X0131716Y0089369D02*
X0131717Y0089369D01*
X0133092Y0089369D02*
X0137428Y0089369D01*
X0138803Y0089369D02*
X0138803Y0089369D01*
X0138803Y0090368D02*
X0138803Y0090368D01*
X0138803Y0091366D02*
X0138803Y0091366D01*
X0138803Y0092365D02*
X0138803Y0092365D01*
X0138803Y0093363D02*
X0138803Y0093363D01*
X0138803Y0094362D02*
X0138803Y0094362D01*
X0140179Y0089369D02*
X0144514Y0089369D01*
X0145928Y0087372D02*
X0131772Y0087372D01*
X0131876Y0086373D02*
X0146114Y0086373D01*
X0148200Y0087500D02*
X0148252Y0087552D01*
X0149843Y0089369D02*
X0151601Y0089369D01*
X0152976Y0089369D02*
X0152976Y0089369D01*
X0152976Y0090368D02*
X0152976Y0090368D01*
X0152976Y0091366D02*
X0152976Y0091366D01*
X0152976Y0092365D02*
X0152976Y0092365D01*
X0152976Y0093363D02*
X0152976Y0093363D01*
X0154352Y0089369D02*
X0158688Y0089369D01*
X0160063Y0089369D02*
X0160063Y0089369D01*
X0160063Y0090368D02*
X0160063Y0090368D01*
X0160063Y0091366D02*
X0160063Y0091366D01*
X0160063Y0092365D02*
X0160063Y0092365D01*
X0160063Y0093363D02*
X0160063Y0093363D01*
X0161438Y0089369D02*
X0165774Y0089369D01*
X0167150Y0095360D02*
X0167150Y0095360D01*
X0167150Y0096359D02*
X0167150Y0096359D01*
X0167150Y0097357D02*
X0167150Y0097357D01*
X0167150Y0098356D02*
X0167150Y0098356D01*
X0167150Y0099354D02*
X0167150Y0099354D01*
X0150928Y0112335D02*
X0141120Y0112335D01*
X0122031Y0125315D02*
X0053391Y0125315D01*
X0055752Y0134302D02*
X0056130Y0134302D01*
X0056130Y0135301D02*
X0055752Y0135301D01*
X0055752Y0136299D02*
X0056130Y0136299D01*
X0056130Y0137298D02*
X0055752Y0137298D01*
X0057791Y0134302D02*
X0064453Y0134302D01*
X0064453Y0135301D02*
X0063528Y0135301D01*
X0063528Y0136299D02*
X0064453Y0136299D01*
X0064453Y0137298D02*
X0063528Y0137298D01*
X0063528Y0138296D02*
X0064453Y0138296D01*
X0064453Y0139295D02*
X0063528Y0139295D01*
X0063528Y0140293D02*
X0064453Y0140293D01*
X0064453Y0141292D02*
X0063528Y0141292D01*
X0063528Y0142290D02*
X0064453Y0142290D01*
X0064453Y0143289D02*
X0063528Y0143289D01*
X0063528Y0144287D02*
X0064453Y0144287D01*
X0064453Y0145286D02*
X0063528Y0145286D01*
X0063528Y0146284D02*
X0064453Y0146284D01*
X0064453Y0147283D02*
X0063528Y0147283D01*
X0063528Y0148281D02*
X0064453Y0148281D01*
X0064471Y0149280D02*
X0063528Y0149280D01*
X0063472Y0150278D02*
X0062973Y0150278D01*
X0062567Y0151277D02*
X0062205Y0151277D01*
X0062386Y0151339D02*
X0062386Y0154807D01*
X0062386Y0151339D01*
X0062386Y0152275D02*
X0062386Y0152275D01*
X0062386Y0153274D02*
X0062386Y0153274D01*
X0062386Y0154272D02*
X0062386Y0154272D01*
X0062386Y0154807D02*
X0062386Y0154807D01*
X0062385Y0154808D01*
X0062385Y0156010D01*
X0062390Y0159260D01*
X0064157Y0154807D02*
X0064157Y0151843D01*
X0065500Y0150500D01*
X0067500Y0150500D01*
X0068496Y0149504D01*
X0068496Y0141500D01*
X0072539Y0141292D02*
X0076461Y0141292D01*
X0076461Y0142290D02*
X0075615Y0142290D01*
X0076461Y0140293D02*
X0072539Y0140293D01*
X0072539Y0139295D02*
X0076461Y0139295D01*
X0076461Y0138296D02*
X0072539Y0138296D01*
X0072539Y0137298D02*
X0076461Y0137298D01*
X0076461Y0136299D02*
X0072539Y0136299D01*
X0072539Y0135301D02*
X0076461Y0135301D01*
X0076461Y0134302D02*
X0072539Y0134302D01*
X0072539Y0142290D02*
X0073385Y0142290D01*
X0074500Y0144500D02*
X0074500Y0155500D01*
X0072500Y0157760D01*
X0070547Y0154807D01*
X0070547Y0154547D01*
X0070050Y0154050D01*
X0067850Y0154050D01*
X0067850Y0152500D01*
X0066400Y0152500D01*
X0065950Y0152950D01*
X0065929Y0154807D02*
X0070547Y0154807D01*
X0070547Y0154547D02*
X0071500Y0155500D01*
X0068457Y0157268D02*
X0067642Y0157268D01*
X0067921Y0158266D02*
X0068457Y0158266D01*
X0068457Y0159265D02*
X0067921Y0159265D01*
X0067921Y0160263D02*
X0068457Y0160263D01*
X0067850Y0154550D02*
X0067850Y0154050D01*
X0060614Y0154807D02*
X0060614Y0147945D01*
X0061059Y0147500D01*
X0061059Y0142500D01*
X0061059Y0137500D01*
X0058591Y0140293D02*
X0058419Y0140293D01*
X0058409Y0141292D02*
X0058591Y0141292D01*
X0058591Y0142290D02*
X0058409Y0142290D01*
X0058409Y0143289D02*
X0058591Y0143289D01*
X0058591Y0144287D02*
X0058409Y0144287D01*
X0058409Y0145286D02*
X0058591Y0145286D01*
X0058591Y0146284D02*
X0058409Y0146284D01*
X0058409Y0147283D02*
X0058591Y0147283D01*
X0058591Y0148281D02*
X0058409Y0148281D01*
X0058409Y0149280D02*
X0058591Y0149280D01*
X0059024Y0150278D02*
X0057855Y0150278D01*
X0058526Y0151277D02*
X0059024Y0151277D01*
X0057100Y0153000D02*
X0056600Y0152500D01*
X0054500Y0152500D01*
X0055079Y0153274D02*
X0052500Y0153274D01*
X0052543Y0154272D02*
X0055079Y0154272D01*
X0055079Y0155271D02*
X0052543Y0155271D01*
X0052543Y0156269D02*
X0055079Y0156269D01*
X0055158Y0157268D02*
X0052543Y0157268D01*
X0052543Y0158266D02*
X0055488Y0158266D01*
X0055488Y0159265D02*
X0052543Y0159265D01*
X0052500Y0160263D02*
X0055488Y0160263D01*
X0055488Y0161262D02*
X0052893Y0161262D01*
X0052953Y0162260D02*
X0055488Y0162260D01*
X0055488Y0163259D02*
X0052953Y0163259D01*
X0048000Y0156269D02*
X0041000Y0156269D01*
X0041000Y0155271D02*
X0040000Y0155271D01*
X0040000Y0156269D02*
X0035853Y0156269D01*
X0035968Y0155271D02*
X0036047Y0155271D01*
X0036047Y0154272D02*
X0035663Y0154272D01*
X0035391Y0153274D02*
X0036353Y0153274D01*
X0035391Y0152275D02*
X0050909Y0152275D01*
X0051474Y0151277D02*
X0035391Y0151277D01*
X0035391Y0150278D02*
X0054027Y0150278D01*
X0049000Y0153274D02*
X0048000Y0153274D01*
X0048000Y0154272D02*
X0049000Y0154272D01*
X0049000Y0155271D02*
X0048000Y0155271D01*
X0041000Y0154272D02*
X0040000Y0154272D01*
X0040000Y0153274D02*
X0041000Y0153274D01*
X0036047Y0157268D02*
X0035223Y0157268D01*
X0036047Y0158266D02*
X0029191Y0158266D01*
X0029191Y0157268D02*
X0031777Y0157268D01*
X0031147Y0156269D02*
X0030532Y0156269D01*
X0030591Y0155271D02*
X0031031Y0155271D01*
X0031337Y0154272D02*
X0030591Y0154272D01*
X0031000Y0153274D02*
X0031609Y0153274D01*
X0031609Y0152275D02*
X0031000Y0152275D01*
X0032941Y0149941D02*
X0033500Y0150500D01*
X0032936Y0147283D02*
X0026547Y0147283D01*
X0026937Y0146284D02*
X0033942Y0146284D01*
X0024518Y0148281D02*
X0022482Y0148281D01*
X0022991Y0149280D02*
X0024009Y0149280D01*
X0024009Y0150278D02*
X0022991Y0150278D01*
X0022806Y0151277D02*
X0023687Y0151277D01*
X0023600Y0152275D02*
X0019004Y0152275D01*
X0017606Y0153154D02*
X0012500Y0153154D01*
X0009441Y0153274D02*
X0003968Y0153274D01*
X0003968Y0154272D02*
X0009441Y0154272D01*
X0009441Y0155271D02*
X0003968Y0155271D01*
X0003968Y0156269D02*
X0009940Y0156269D01*
X0009953Y0156283D02*
X0009953Y0156283D01*
X0009089Y0157268D02*
X0003968Y0157268D01*
X0003968Y0158266D02*
X0009031Y0158266D01*
X0009031Y0159265D02*
X0003968Y0159265D01*
X0003968Y0160263D02*
X0012016Y0160263D01*
X0012984Y0160263D02*
X0019235Y0160263D01*
X0019366Y0160228D02*
X0020752Y0160228D01*
X0020752Y0163311D01*
X0018063Y0163311D01*
X0018063Y0161531D01*
X0018165Y0161149D01*
X0018363Y0160807D01*
X0018642Y0160528D01*
X0018984Y0160331D01*
X0019366Y0160228D01*
X0020752Y0160263D02*
X0021130Y0160263D01*
X0021130Y0161262D02*
X0020752Y0161262D01*
X0020752Y0162260D02*
X0021130Y0162260D01*
X0021130Y0163259D02*
X0020752Y0163259D01*
X0020752Y0164257D02*
X0021130Y0164257D01*
X0021130Y0165256D02*
X0020752Y0165256D01*
X0020752Y0166254D02*
X0021130Y0166254D01*
X0023457Y0166254D02*
X0024122Y0166254D01*
X0027997Y0166254D02*
X0036457Y0166254D01*
X0036459Y0167253D02*
X0003968Y0167253D01*
X0003968Y0168251D02*
X0037809Y0168251D01*
X0037809Y0169250D02*
X0003968Y0169250D01*
X0003968Y0170248D02*
X0037809Y0170248D01*
X0036370Y0160263D02*
X0029191Y0160263D01*
X0029191Y0159265D02*
X0036047Y0159265D01*
X0027859Y0155500D02*
X0027300Y0155059D01*
X0025409Y0157268D02*
X0015911Y0157268D01*
X0015968Y0158266D02*
X0025409Y0158266D01*
X0025409Y0159265D02*
X0015968Y0159265D01*
X0015968Y0160331D02*
X0012984Y0160331D01*
X0012984Y0163512D01*
X0014666Y0163512D01*
X0015047Y0163410D01*
X0015390Y0163212D01*
X0015669Y0162933D01*
X0015866Y0162591D01*
X0015968Y0162209D01*
X0015968Y0160331D01*
X0015968Y0161262D02*
X0018135Y0161262D01*
X0018063Y0162260D02*
X0015955Y0162260D01*
X0015309Y0163259D02*
X0018063Y0163259D01*
X0018063Y0164257D02*
X0003968Y0164257D01*
X0003968Y0163259D02*
X0009691Y0163259D01*
X0009045Y0162260D02*
X0003968Y0162260D01*
X0003968Y0161262D02*
X0009031Y0161262D01*
X0012016Y0161262D02*
X0012984Y0161262D01*
X0012984Y0162260D02*
X0012016Y0162260D01*
X0012016Y0163259D02*
X0012984Y0163259D01*
X0018063Y0165256D02*
X0003968Y0165256D01*
X0003968Y0166254D02*
X0018424Y0166254D01*
X0022647Y0160263D02*
X0025409Y0160263D01*
X0024068Y0156269D02*
X0022932Y0156269D01*
X0022991Y0155271D02*
X0024009Y0155271D01*
X0024009Y0154272D02*
X0022991Y0154272D01*
X0023600Y0153274D02*
X0022357Y0153274D01*
X0019700Y0155059D02*
X0017606Y0153154D01*
X0016409Y0155271D02*
X0015559Y0155271D01*
X0015060Y0156269D02*
X0016468Y0156269D01*
X0009441Y0152275D02*
X0003968Y0152275D01*
X0003968Y0151277D02*
X0009441Y0151277D01*
X0009699Y0150278D02*
X0003968Y0150278D01*
X0003968Y0149280D02*
X0010609Y0149280D01*
X0010609Y0148281D02*
X0003968Y0148281D01*
X0003968Y0147283D02*
X0010609Y0147283D01*
X0010609Y0146284D02*
X0003968Y0146284D01*
X0003968Y0145286D02*
X0010609Y0145286D01*
X0010609Y0144287D02*
X0003968Y0144287D01*
X0003968Y0143289D02*
X0010609Y0143289D01*
X0010609Y0142290D02*
X0003968Y0142290D01*
X0003968Y0141292D02*
X0011035Y0141292D01*
X0012033Y0140293D02*
X0003968Y0140293D01*
X0003968Y0139295D02*
X0013032Y0139295D01*
X0018941Y0144500D02*
X0019700Y0145741D01*
X0019700Y0149941D01*
X0021291Y0147283D02*
X0021571Y0147283D01*
X0023870Y0147283D02*
X0024248Y0147283D01*
X0024248Y0146284D02*
X0023870Y0146284D01*
X0023870Y0145286D02*
X0024248Y0145286D01*
X0041030Y0138296D02*
X0003968Y0138296D01*
X0003968Y0137298D02*
X0042029Y0137298D01*
X0025658Y0114332D02*
X0003968Y0114332D01*
X0003968Y0113333D02*
X0024660Y0113333D01*
X0023661Y0112335D02*
X0003968Y0112335D01*
X0003968Y0111336D02*
X0022663Y0111336D01*
X0021664Y0110338D02*
X0003968Y0110338D01*
X0003968Y0109339D02*
X0020666Y0109339D01*
X0019667Y0108341D02*
X0003968Y0108341D01*
X0003968Y0107342D02*
X0018669Y0107342D01*
X0018609Y0106344D02*
X0003968Y0106344D01*
X0003968Y0105345D02*
X0018609Y0105345D01*
X0018609Y0104347D02*
X0003968Y0104347D01*
X0003968Y0103348D02*
X0018609Y0103348D01*
X0018609Y0102350D02*
X0003968Y0102350D01*
X0003968Y0101351D02*
X0018609Y0101351D01*
X0018609Y0100353D02*
X0003968Y0100353D01*
X0003968Y0099354D02*
X0016875Y0099354D01*
X0016551Y0098356D02*
X0003968Y0098356D01*
X0003968Y0097357D02*
X0016551Y0097357D01*
X0016551Y0096359D02*
X0003968Y0096359D01*
X0003968Y0095360D02*
X0016440Y0095360D01*
X0016440Y0094362D02*
X0003968Y0094362D01*
X0003968Y0093363D02*
X0016440Y0093363D01*
X0016440Y0092365D02*
X0003968Y0092365D01*
X0003968Y0091366D02*
X0016440Y0091366D01*
X0016440Y0090368D02*
X0003968Y0090368D01*
X0003968Y0089369D02*
X0016440Y0089369D01*
X0014879Y0088370D02*
X0003968Y0088370D01*
X0003968Y0087372D02*
X0014189Y0087372D01*
X0014031Y0086373D02*
X0003968Y0086373D01*
X0003968Y0085375D02*
X0014294Y0085375D01*
X0015176Y0084376D02*
X0003968Y0084376D01*
X0003968Y0083378D02*
X0018802Y0083378D01*
X0018802Y0084376D02*
X0017824Y0084376D01*
X0018706Y0085375D02*
X0018802Y0085375D01*
X0018802Y0082379D02*
X0003968Y0082379D01*
X0003968Y0081381D02*
X0009161Y0081381D01*
X0009374Y0081594D02*
X0008347Y0080567D01*
X0007791Y0079226D01*
X0007791Y0077774D01*
X0008347Y0076433D01*
X0009374Y0075406D01*
X0010715Y0074850D01*
X0012167Y0074850D01*
X0013508Y0075406D01*
X0014535Y0076433D01*
X0015091Y0077774D01*
X0015091Y0079226D01*
X0014535Y0080567D01*
X0013508Y0081594D01*
X0012167Y0082150D01*
X0010715Y0082150D01*
X0009374Y0081594D01*
X0008270Y0080382D02*
X0003968Y0080382D01*
X0003968Y0079384D02*
X0007857Y0079384D01*
X0007791Y0078385D02*
X0003968Y0078385D01*
X0003968Y0077387D02*
X0007952Y0077387D01*
X0008391Y0076388D02*
X0003968Y0076388D01*
X0003968Y0075390D02*
X0009413Y0075390D01*
X0013469Y0075390D02*
X0019983Y0075390D01*
X0019983Y0074391D02*
X0003968Y0074391D01*
X0003968Y0073393D02*
X0019983Y0073393D01*
X0019983Y0072394D02*
X0003968Y0072394D01*
X0003968Y0071396D02*
X0019983Y0071396D01*
X0019983Y0070397D02*
X0003968Y0070397D01*
X0003968Y0069399D02*
X0019983Y0069399D01*
X0019983Y0068400D02*
X0003968Y0068400D01*
X0003968Y0067402D02*
X0019983Y0067402D01*
X0017732Y0066403D02*
X0003968Y0066403D01*
X0003968Y0065405D02*
X0017732Y0065405D01*
X0017732Y0064406D02*
X0003968Y0064406D01*
X0003968Y0063408D02*
X0017732Y0063408D01*
X0017609Y0062409D02*
X0003968Y0062409D01*
X0003968Y0061411D02*
X0017732Y0061411D01*
X0017732Y0060412D02*
X0003968Y0060412D01*
X0003968Y0059414D02*
X0017732Y0059414D01*
X0017732Y0058415D02*
X0003968Y0058415D01*
X0003968Y0057417D02*
X0018285Y0057417D01*
X0024236Y0057417D02*
X0024236Y0057417D01*
X0024236Y0058415D02*
X0024236Y0058415D01*
X0024236Y0059414D02*
X0024236Y0059414D01*
X0024236Y0060412D02*
X0024236Y0060412D01*
X0024236Y0061411D02*
X0024236Y0061411D01*
X0024236Y0062358D02*
X0024236Y0067795D01*
X0023765Y0067795D01*
X0023765Y0077909D01*
X0022657Y0079017D01*
X0022583Y0079090D01*
X0022583Y0089205D01*
X0023055Y0089205D01*
X0023055Y0094642D01*
X0023055Y0100079D01*
X0022391Y0100079D01*
X0022391Y0105717D01*
X0023609Y0106936D01*
X0023609Y0100079D01*
X0023055Y0100079D01*
X0023055Y0094642D01*
X0023055Y0094642D01*
X0023055Y0094642D01*
X0023055Y0089205D01*
X0023942Y0089205D01*
X0024323Y0089307D01*
X0024665Y0089504D01*
X0024775Y0089614D01*
X0025889Y0089614D01*
X0025889Y0086100D01*
X0025687Y0085898D01*
X0025311Y0084991D01*
X0025311Y0084009D01*
X0025687Y0083102D01*
X0025889Y0082900D01*
X0025889Y0080524D01*
X0025863Y0080495D01*
X0025889Y0079746D01*
X0025889Y0078996D01*
X0025909Y0078976D01*
X0025909Y0078417D01*
X0025937Y0078389D01*
X0025938Y0078351D01*
X0026487Y0077839D01*
X0027070Y0077256D01*
X0027070Y0067386D01*
X0025956Y0067386D01*
X0025846Y0067496D01*
X0025504Y0067693D01*
X0025123Y0067795D01*
X0024236Y0067795D01*
X0024236Y0062358D01*
X0024236Y0062358D01*
X0024236Y0062409D02*
X0024236Y0062409D01*
X0024236Y0063408D02*
X0024236Y0063408D01*
X0024236Y0064406D02*
X0024236Y0064406D01*
X0024236Y0065405D02*
X0024236Y0065405D01*
X0024236Y0066403D02*
X0024236Y0066403D01*
X0024236Y0067402D02*
X0024236Y0067402D01*
X0023765Y0068400D02*
X0027070Y0068400D01*
X0027070Y0067402D02*
X0025940Y0067402D01*
X0027070Y0069399D02*
X0023765Y0069399D01*
X0023765Y0070397D02*
X0027070Y0070397D01*
X0027070Y0071396D02*
X0023765Y0071396D01*
X0023765Y0072394D02*
X0027070Y0072394D01*
X0027070Y0073393D02*
X0023765Y0073393D01*
X0023765Y0074391D02*
X0027070Y0074391D01*
X0027070Y0075390D02*
X0023765Y0075390D01*
X0023765Y0076388D02*
X0027070Y0076388D01*
X0026939Y0077387D02*
X0023765Y0077387D01*
X0023288Y0078385D02*
X0025937Y0078385D01*
X0025889Y0079384D02*
X0022583Y0079384D01*
X0022583Y0080382D02*
X0025866Y0080382D01*
X0025889Y0081381D02*
X0022583Y0081381D01*
X0022583Y0082379D02*
X0025889Y0082379D01*
X0025572Y0083378D02*
X0022583Y0083378D01*
X0022583Y0084376D02*
X0025311Y0084376D01*
X0025470Y0085375D02*
X0022583Y0085375D01*
X0022583Y0086373D02*
X0025889Y0086373D01*
X0025889Y0087372D02*
X0022583Y0087372D01*
X0022583Y0088370D02*
X0025889Y0088370D01*
X0025889Y0089369D02*
X0024431Y0089369D01*
X0023055Y0089369D02*
X0023055Y0089369D01*
X0023055Y0090368D02*
X0023055Y0090368D01*
X0023055Y0091366D02*
X0023055Y0091366D01*
X0023055Y0092365D02*
X0023055Y0092365D01*
X0023055Y0093363D02*
X0023055Y0093363D01*
X0023055Y0094362D02*
X0023055Y0094362D01*
X0023055Y0095360D02*
X0023055Y0095360D01*
X0023055Y0096359D02*
X0023055Y0096359D01*
X0023055Y0097357D02*
X0023055Y0097357D01*
X0023055Y0098356D02*
X0023055Y0098356D01*
X0023055Y0099354D02*
X0023055Y0099354D01*
X0023609Y0100353D02*
X0022391Y0100353D01*
X0022391Y0101351D02*
X0023609Y0101351D01*
X0023609Y0102350D02*
X0022391Y0102350D01*
X0022391Y0103348D02*
X0023609Y0103348D01*
X0023609Y0104347D02*
X0022391Y0104347D01*
X0022391Y0105345D02*
X0023609Y0105345D01*
X0023609Y0106344D02*
X0023017Y0106344D01*
X0040966Y0089369D02*
X0052388Y0089369D01*
X0053764Y0089369D02*
X0053764Y0089369D01*
X0053764Y0089205D02*
X0053764Y0094642D01*
X0053764Y0094642D01*
X0053764Y0089205D01*
X0053764Y0090368D02*
X0053764Y0090368D01*
X0053764Y0091366D02*
X0053764Y0091366D01*
X0053764Y0092365D02*
X0053764Y0092365D01*
X0053764Y0093363D02*
X0053764Y0093363D01*
X0053764Y0094362D02*
X0053764Y0094362D01*
X0055139Y0089369D02*
X0059475Y0089369D01*
X0060850Y0089369D02*
X0060850Y0089369D01*
X0060850Y0090368D02*
X0060850Y0090368D01*
X0060850Y0091366D02*
X0060850Y0091366D01*
X0060850Y0092365D02*
X0060850Y0092365D01*
X0060850Y0093363D02*
X0060850Y0093363D01*
X0060850Y0094362D02*
X0060850Y0094362D01*
X0060850Y0095360D02*
X0060850Y0095360D01*
X0060850Y0096359D02*
X0060850Y0096359D01*
X0060850Y0097357D02*
X0060850Y0097357D01*
X0060850Y0098356D02*
X0060850Y0098356D01*
X0060850Y0099354D02*
X0060850Y0099354D01*
X0062226Y0089369D02*
X0073648Y0089369D01*
X0100992Y0069500D02*
X0101673Y0069500D01*
X0107992Y0069500D02*
X0108673Y0069500D01*
X0111638Y0062358D02*
X0111638Y0062358D01*
X0111638Y0056921D01*
X0111638Y0062358D01*
X0111638Y0061411D02*
X0111638Y0061411D01*
X0111638Y0060412D02*
X0111638Y0060412D01*
X0111638Y0059414D02*
X0111638Y0059414D01*
X0111638Y0058415D02*
X0111638Y0058415D01*
X0111638Y0057417D02*
X0111638Y0057417D01*
X0104551Y0057417D02*
X0104551Y0057417D01*
X0104551Y0058415D02*
X0104551Y0058415D01*
X0104551Y0059414D02*
X0104551Y0059414D01*
X0104551Y0060412D02*
X0104551Y0060412D01*
X0104551Y0061411D02*
X0104551Y0061411D01*
X0097465Y0061411D02*
X0097464Y0061411D01*
X0097464Y0060412D02*
X0097465Y0060412D01*
X0097464Y0059414D02*
X0097465Y0059414D01*
X0097464Y0058415D02*
X0097465Y0058415D01*
X0097464Y0057417D02*
X0097465Y0057417D01*
X0089167Y0045434D02*
X0202028Y0045434D01*
X0202028Y0044436D02*
X0090165Y0044436D01*
X0091164Y0043437D02*
X0202450Y0043437D01*
X0218500Y0039494D02*
X0219494Y0039494D01*
X0223500Y0043500D01*
X0223500Y0051500D01*
X0226500Y0054500D01*
X0255500Y0054500D01*
X0258094Y0057094D01*
X0258094Y0062358D01*
X0260457Y0062409D02*
X0260457Y0062409D01*
X0260457Y0061411D02*
X0260457Y0061411D01*
X0260457Y0060412D02*
X0260457Y0060412D01*
X0260457Y0059414D02*
X0260457Y0059414D01*
X0260457Y0058415D02*
X0260457Y0058415D01*
X0260457Y0057417D02*
X0260457Y0057417D01*
X0261169Y0056418D02*
X0259667Y0056418D01*
X0260170Y0055420D02*
X0258669Y0055420D01*
X0259172Y0054421D02*
X0257670Y0054421D01*
X0259500Y0052500D02*
X0227500Y0052500D01*
X0225500Y0050500D01*
X0225500Y0042500D01*
X0220500Y0037500D01*
X0108200Y0037500D01*
X0106700Y0036000D01*
X0106700Y0033300D01*
X0108068Y0031455D02*
X0109332Y0031455D01*
X0110700Y0033300D02*
X0110700Y0034200D01*
X0111900Y0035400D01*
X0113000Y0035400D01*
X0219500Y0035500D01*
X0221500Y0035500D01*
X0227500Y0041500D01*
X0227500Y0049500D01*
X0228500Y0050500D01*
X0260500Y0050500D01*
X0265181Y0055181D01*
X0265181Y0062358D01*
X0262819Y0062358D02*
X0262819Y0055819D01*
X0259500Y0052500D01*
X0262676Y0050427D02*
X0282496Y0050427D01*
X0282496Y0049429D02*
X0261678Y0049429D01*
X0259934Y0048430D02*
X0282496Y0048430D01*
X0282496Y0047432D02*
X0260932Y0047432D01*
X0261931Y0046433D02*
X0282496Y0046433D01*
X0282496Y0045434D02*
X0262000Y0045434D01*
X0262000Y0044000D02*
X0258000Y0044000D01*
X0258000Y0040000D01*
X0259364Y0040000D01*
X0262000Y0042636D01*
X0262000Y0044000D01*
X0262000Y0043437D02*
X0282496Y0043437D01*
X0282496Y0042439D02*
X0261803Y0042439D01*
X0260804Y0041440D02*
X0282496Y0041440D01*
X0282496Y0040442D02*
X0259806Y0040442D01*
X0258000Y0040442D02*
X0257000Y0040442D01*
X0257000Y0040000D02*
X0257000Y0044000D01*
X0253000Y0044000D01*
X0253000Y0042636D01*
X0255636Y0040000D01*
X0257000Y0040000D01*
X0257000Y0041440D02*
X0258000Y0041440D01*
X0258000Y0042439D02*
X0257000Y0042439D01*
X0257000Y0043437D02*
X0258000Y0043437D01*
X0258000Y0044436D02*
X0282496Y0044436D01*
X0282496Y0039443D02*
X0227693Y0039443D01*
X0226694Y0038445D02*
X0235660Y0038445D01*
X0235806Y0038591D02*
X0233409Y0036194D01*
X0233409Y0032806D01*
X0235806Y0030409D01*
X0239194Y0030409D01*
X0241591Y0032806D01*
X0241591Y0036194D01*
X0239194Y0038591D01*
X0235806Y0038591D01*
X0234662Y0037446D02*
X0225696Y0037446D01*
X0224697Y0036448D02*
X0233663Y0036448D01*
X0233409Y0035449D02*
X0223699Y0035449D01*
X0222700Y0034451D02*
X0233409Y0034451D01*
X0233409Y0033452D02*
X0112972Y0033452D01*
X0112972Y0032454D02*
X0233761Y0032454D01*
X0234760Y0031455D02*
X0112068Y0031455D01*
X0105332Y0031455D02*
X0104168Y0031455D01*
X0102800Y0033300D02*
X0102800Y0038200D01*
X0104000Y0039400D01*
X0108700Y0039400D01*
X0218500Y0039494D01*
X0228691Y0040442D02*
X0235773Y0040442D01*
X0235806Y0040409D02*
X0239194Y0040409D01*
X0241591Y0042806D01*
X0241591Y0046194D01*
X0239194Y0048591D01*
X0235806Y0048591D01*
X0233409Y0046194D01*
X0233409Y0042806D01*
X0235806Y0040409D01*
X0234775Y0041440D02*
X0229091Y0041440D01*
X0229091Y0042439D02*
X0233776Y0042439D01*
X0233409Y0043437D02*
X0229091Y0043437D01*
X0229091Y0044436D02*
X0233409Y0044436D01*
X0233409Y0045434D02*
X0229091Y0045434D01*
X0229091Y0046433D02*
X0233648Y0046433D01*
X0234647Y0047432D02*
X0229091Y0047432D01*
X0229091Y0048430D02*
X0235645Y0048430D01*
X0239355Y0048430D02*
X0245645Y0048430D01*
X0245806Y0048591D02*
X0243409Y0046194D01*
X0243409Y0042806D01*
X0245806Y0040409D01*
X0249194Y0040409D01*
X0251591Y0042806D01*
X0251591Y0046194D01*
X0249194Y0048591D01*
X0245806Y0048591D01*
X0244647Y0047432D02*
X0240353Y0047432D01*
X0241352Y0046433D02*
X0243648Y0046433D01*
X0243409Y0045434D02*
X0241591Y0045434D01*
X0241591Y0044436D02*
X0243409Y0044436D01*
X0243409Y0043437D02*
X0241591Y0043437D01*
X0241224Y0042439D02*
X0243776Y0042439D01*
X0244775Y0041440D02*
X0240225Y0041440D01*
X0239227Y0040442D02*
X0245773Y0040442D01*
X0245806Y0038591D02*
X0243409Y0036194D01*
X0243409Y0032806D01*
X0245806Y0030409D01*
X0249194Y0030409D01*
X0251591Y0032806D01*
X0251591Y0036194D01*
X0249194Y0038591D01*
X0245806Y0038591D01*
X0245660Y0038445D02*
X0239340Y0038445D01*
X0240338Y0037446D02*
X0244662Y0037446D01*
X0243663Y0036448D02*
X0241337Y0036448D01*
X0241591Y0035449D02*
X0243409Y0035449D01*
X0243409Y0034451D02*
X0241591Y0034451D01*
X0241591Y0033452D02*
X0243409Y0033452D01*
X0243761Y0032454D02*
X0241239Y0032454D01*
X0240240Y0031455D02*
X0244760Y0031455D01*
X0245758Y0030457D02*
X0239242Y0030457D01*
X0235758Y0030457D02*
X0092791Y0030457D01*
X0094230Y0034451D02*
X0096738Y0034451D01*
X0097209Y0035449D02*
X0093816Y0035449D01*
X0092961Y0036448D02*
X0097209Y0036448D01*
X0097209Y0037446D02*
X0092961Y0037446D01*
X0092961Y0038445D02*
X0097209Y0038445D01*
X0097209Y0039443D02*
X0092961Y0039443D01*
X0092961Y0040442D02*
X0097209Y0040442D01*
X0098141Y0041391D02*
X0098141Y0041391D01*
X0098191Y0041440D02*
X0092779Y0041440D01*
X0092162Y0042439D02*
X0099190Y0042439D01*
X0098909Y0042159D02*
X0098909Y0042159D01*
X0100168Y0031455D02*
X0101432Y0031455D01*
X0112018Y0019473D02*
X0125982Y0019473D01*
X0126030Y0015479D02*
X0111970Y0015479D01*
X0108010Y0014481D02*
X0125990Y0014481D01*
X0129010Y0014481D02*
X0210990Y0014481D01*
X0210235Y0013482D02*
X0129765Y0013482D01*
X0128970Y0015479D02*
X0215030Y0015479D01*
X0214252Y0016478D02*
X0129748Y0016478D01*
X0126022Y0010487D02*
X0107978Y0010487D01*
X0078873Y0033500D02*
X0078192Y0033500D01*
X0077964Y0045434D02*
X0075036Y0045434D01*
X0076034Y0046433D02*
X0076966Y0046433D01*
X0068639Y0050427D02*
X0068028Y0050427D01*
X0067827Y0049429D02*
X0067030Y0049429D01*
X0066924Y0048430D02*
X0066031Y0048430D01*
X0053241Y0067402D02*
X0042475Y0067402D01*
X0019938Y0076388D02*
X0014491Y0076388D01*
X0014930Y0077387D02*
X0018939Y0077387D01*
X0018802Y0078385D02*
X0015091Y0078385D01*
X0015025Y0079384D02*
X0018802Y0079384D01*
X0018802Y0080382D02*
X0014612Y0080382D01*
X0013721Y0081381D02*
X0018802Y0081381D01*
X0074000Y0120323D02*
X0075000Y0120323D01*
X0075000Y0121321D02*
X0074000Y0121321D01*
X0074000Y0122320D02*
X0075000Y0122320D01*
X0075000Y0123318D02*
X0074000Y0123318D01*
X0077046Y0123318D02*
X0082533Y0123318D01*
X0081535Y0122320D02*
X0078044Y0122320D01*
X0079000Y0121321D02*
X0080536Y0121321D01*
X0080409Y0120323D02*
X0079000Y0120323D01*
X0092591Y0134302D02*
X0094000Y0134302D01*
X0094000Y0135301D02*
X0092591Y0135301D01*
X0092591Y0136299D02*
X0094000Y0136299D01*
X0094070Y0137298D02*
X0092591Y0137298D01*
X0092184Y0138296D02*
X0094365Y0138296D01*
X0094968Y0139295D02*
X0091490Y0139295D01*
X0090032Y0140293D02*
X0096065Y0140293D01*
X0098000Y0140293D02*
X0099000Y0140293D01*
X0099000Y0139295D02*
X0098000Y0139295D01*
X0098000Y0138296D02*
X0099000Y0138296D01*
X0099000Y0137298D02*
X0098000Y0137298D01*
X0098000Y0136299D02*
X0099000Y0136299D01*
X0099000Y0135301D02*
X0098000Y0135301D01*
X0098000Y0134302D02*
X0099000Y0134302D01*
X0111490Y0139295D02*
X0282496Y0139295D01*
X0282496Y0138296D02*
X0112184Y0138296D01*
X0112591Y0137298D02*
X0282496Y0137298D01*
X0282496Y0136299D02*
X0112591Y0136299D01*
X0112591Y0135301D02*
X0261187Y0135301D01*
X0261138Y0134302D02*
X0112591Y0134302D01*
X0112591Y0133303D02*
X0261138Y0133303D01*
X0261138Y0132305D02*
X0112591Y0132305D01*
X0112591Y0131306D02*
X0261138Y0131306D01*
X0261138Y0130308D02*
X0112591Y0130308D01*
X0112434Y0129309D02*
X0124576Y0129309D01*
X0123577Y0128311D02*
X0112021Y0128311D01*
X0131315Y0143289D02*
X0132126Y0143289D01*
X0132126Y0144287D02*
X0131315Y0144287D01*
X0131315Y0145286D02*
X0132126Y0145286D01*
X0132126Y0146284D02*
X0131315Y0146284D01*
X0131315Y0147283D02*
X0132126Y0147283D01*
X0132126Y0148281D02*
X0131315Y0148281D01*
X0131315Y0149280D02*
X0132126Y0149280D01*
X0132126Y0150278D02*
X0131315Y0150278D01*
X0144474Y0151277D02*
X0146526Y0151277D01*
X0145512Y0150278D02*
X0145488Y0150278D01*
X0152348Y0151277D02*
X0166860Y0151277D01*
X0168976Y0150278D02*
X0161000Y0150278D01*
X0157559Y0150278D02*
X0153362Y0150278D01*
X0154051Y0149280D02*
X0156305Y0149280D01*
X0155743Y0148281D02*
X0154465Y0148281D01*
X0154622Y0147283D02*
X0155472Y0147283D01*
X0155472Y0146284D02*
X0154622Y0146284D01*
X0154393Y0145286D02*
X0155815Y0145286D01*
X0156478Y0144287D02*
X0153979Y0144287D01*
X0146945Y0142290D02*
X0144055Y0142290D01*
X0145314Y0143289D02*
X0145686Y0143289D01*
X0124630Y0093363D02*
X0124630Y0093363D01*
X0124630Y0092365D02*
X0124630Y0092365D01*
X0124630Y0091366D02*
X0124630Y0091366D01*
X0124630Y0090368D02*
X0124630Y0090368D01*
X0124630Y0089369D02*
X0124630Y0089369D01*
X0123254Y0089369D02*
X0111832Y0089369D01*
X0114842Y0088370D02*
X0116158Y0088370D01*
X0120874Y0085375D02*
X0123412Y0085375D01*
X0124411Y0084376D02*
X0121873Y0084376D01*
X0122871Y0083378D02*
X0126373Y0083378D01*
X0127371Y0082379D02*
X0123870Y0082379D01*
X0124868Y0081381D02*
X0128370Y0081381D01*
X0148775Y0067402D02*
X0152454Y0067402D01*
X0162948Y0067402D02*
X0166627Y0067402D01*
X0177121Y0067402D02*
X0180800Y0067402D01*
X0218647Y0070397D02*
X0220906Y0070397D01*
X0219645Y0071396D02*
X0282496Y0071396D01*
X0282496Y0072394D02*
X0220644Y0072394D01*
X0221642Y0073393D02*
X0282496Y0073393D01*
X0282496Y0074391D02*
X0276623Y0074391D01*
X0277058Y0074572D02*
X0278361Y0075875D01*
X0279067Y0077578D01*
X0279067Y0079422D01*
X0278361Y0081125D01*
X0277058Y0082428D01*
X0275355Y0083134D01*
X0273511Y0083134D01*
X0271808Y0082428D01*
X0270505Y0081125D01*
X0269799Y0079422D01*
X0269799Y0077578D01*
X0270505Y0075875D01*
X0271808Y0074572D01*
X0273511Y0073866D01*
X0275355Y0073866D01*
X0277058Y0074572D01*
X0277876Y0075390D02*
X0282496Y0075390D01*
X0282496Y0076388D02*
X0278574Y0076388D01*
X0278988Y0077387D02*
X0282496Y0077387D01*
X0282496Y0078385D02*
X0279067Y0078385D01*
X0279067Y0079384D02*
X0282496Y0079384D01*
X0282496Y0080382D02*
X0278669Y0080382D01*
X0278105Y0081381D02*
X0282496Y0081381D01*
X0282496Y0082379D02*
X0277107Y0082379D01*
X0271759Y0082379D02*
X0230629Y0082379D01*
X0229630Y0081381D02*
X0270761Y0081381D01*
X0270197Y0080382D02*
X0228632Y0080382D01*
X0227633Y0079384D02*
X0269799Y0079384D01*
X0269799Y0078385D02*
X0226635Y0078385D01*
X0225636Y0077387D02*
X0269878Y0077387D01*
X0270292Y0076388D02*
X0224638Y0076388D01*
X0223639Y0075390D02*
X0270990Y0075390D01*
X0272243Y0074391D02*
X0222641Y0074391D01*
X0224094Y0070397D02*
X0282496Y0070397D01*
X0282496Y0069399D02*
X0224800Y0069399D01*
X0224968Y0068400D02*
X0282496Y0068400D01*
X0282496Y0067402D02*
X0269247Y0067402D01*
X0269153Y0067496D02*
X0268811Y0067693D01*
X0268430Y0067795D01*
X0267543Y0067795D01*
X0267543Y0062358D01*
X0267543Y0062358D01*
X0267543Y0062358D01*
X0269732Y0062358D01*
X0269732Y0066493D01*
X0269630Y0066874D01*
X0269433Y0067216D01*
X0269153Y0067496D01*
X0269732Y0066403D02*
X0282496Y0066403D01*
X0282496Y0065405D02*
X0269732Y0065405D01*
X0269732Y0064406D02*
X0282496Y0064406D01*
X0282496Y0063408D02*
X0269732Y0063408D01*
X0269732Y0062409D02*
X0282496Y0062409D01*
X0282496Y0061411D02*
X0269732Y0061411D01*
X0269732Y0060412D02*
X0282496Y0060412D01*
X0282496Y0059414D02*
X0269732Y0059414D01*
X0269732Y0058415D02*
X0282496Y0058415D01*
X0282496Y0057417D02*
X0269349Y0057417D01*
X0267543Y0057417D02*
X0267543Y0057417D01*
X0267543Y0058415D02*
X0267543Y0058415D01*
X0267543Y0059414D02*
X0267543Y0059414D01*
X0267543Y0060412D02*
X0267543Y0060412D01*
X0267543Y0061411D02*
X0267543Y0061411D01*
X0267543Y0062409D02*
X0267543Y0062409D01*
X0267543Y0063408D02*
X0267543Y0063408D01*
X0267543Y0064406D02*
X0267543Y0064406D01*
X0267543Y0065405D02*
X0267543Y0065405D01*
X0267543Y0066403D02*
X0267543Y0066403D01*
X0267543Y0067402D02*
X0267543Y0067402D01*
X0265839Y0067402D02*
X0262160Y0067402D01*
X0260457Y0067402D02*
X0260457Y0067402D01*
X0260457Y0066403D02*
X0260457Y0066403D01*
X0260457Y0065405D02*
X0260457Y0065405D01*
X0260457Y0064406D02*
X0260457Y0064406D01*
X0260457Y0063408D02*
X0260457Y0063408D01*
X0258753Y0067402D02*
X0255074Y0067402D01*
X0266772Y0056418D02*
X0282496Y0056418D01*
X0282496Y0055420D02*
X0266772Y0055420D01*
X0266670Y0054421D02*
X0282496Y0054421D01*
X0282496Y0053423D02*
X0265672Y0053423D01*
X0264673Y0052424D02*
X0282496Y0052424D01*
X0282496Y0051426D02*
X0263675Y0051426D01*
X0255066Y0048430D02*
X0249355Y0048430D01*
X0250353Y0047432D02*
X0254068Y0047432D01*
X0253069Y0046433D02*
X0251352Y0046433D01*
X0251591Y0045434D02*
X0253000Y0045434D01*
X0251591Y0044436D02*
X0257000Y0044436D01*
X0253000Y0043437D02*
X0251591Y0043437D01*
X0251224Y0042439D02*
X0253197Y0042439D01*
X0254196Y0041440D02*
X0250225Y0041440D01*
X0249227Y0040442D02*
X0255194Y0040442D01*
X0255806Y0038591D02*
X0253409Y0036194D01*
X0253409Y0032806D01*
X0255806Y0030409D01*
X0259194Y0030409D01*
X0261591Y0032806D01*
X0261591Y0036194D01*
X0259194Y0038591D01*
X0255806Y0038591D01*
X0255660Y0038445D02*
X0249340Y0038445D01*
X0250338Y0037446D02*
X0254662Y0037446D01*
X0253663Y0036448D02*
X0251337Y0036448D01*
X0251591Y0035449D02*
X0253409Y0035449D01*
X0253409Y0034451D02*
X0251591Y0034451D01*
X0251591Y0033452D02*
X0253409Y0033452D01*
X0253761Y0032454D02*
X0251239Y0032454D01*
X0250240Y0031455D02*
X0254760Y0031455D01*
X0255758Y0030457D02*
X0249242Y0030457D01*
X0259242Y0030457D02*
X0282496Y0030457D01*
X0282496Y0031455D02*
X0260240Y0031455D01*
X0261239Y0032454D02*
X0282496Y0032454D01*
X0282496Y0033452D02*
X0261591Y0033452D01*
X0261591Y0034451D02*
X0282496Y0034451D01*
X0282496Y0035449D02*
X0261591Y0035449D01*
X0261337Y0036448D02*
X0282496Y0036448D01*
X0282496Y0037446D02*
X0260338Y0037446D01*
X0259340Y0038445D02*
X0282496Y0038445D01*
X0282496Y0027461D02*
X0273072Y0027461D01*
X0276044Y0026463D02*
X0282496Y0026463D01*
X0282496Y0025464D02*
X0277760Y0025464D01*
X0278969Y0024466D02*
X0282496Y0024466D01*
X0282496Y0023467D02*
X0279924Y0023467D01*
X0280694Y0022469D02*
X0282496Y0022469D01*
X0282496Y0021470D02*
X0281319Y0021470D01*
X0281799Y0020472D02*
X0282496Y0020472D01*
X0282496Y0019473D02*
X0282175Y0019473D01*
X0282461Y0018475D02*
X0282496Y0018475D01*
X0259970Y0010487D02*
X0233978Y0010487D01*
X0234752Y0011485D02*
X0259543Y0011485D01*
X0231022Y0010487D02*
X0213978Y0010487D01*
X0214010Y0014481D02*
X0230990Y0014481D01*
X0231030Y0015479D02*
X0217970Y0015479D01*
X0218018Y0019473D02*
X0230982Y0019473D01*
X0231627Y0083378D02*
X0282496Y0083378D01*
X0282496Y0084376D02*
X0232626Y0084376D01*
X0233624Y0085375D02*
X0282496Y0085375D01*
X0282496Y0086373D02*
X0234623Y0086373D01*
X0235621Y0087372D02*
X0282496Y0087372D01*
X0282496Y0088370D02*
X0236620Y0088370D01*
X0238016Y0089369D02*
X0238016Y0089369D01*
X0238016Y0090368D02*
X0238016Y0090368D01*
X0238016Y0091366D02*
X0238016Y0091366D01*
X0238016Y0092365D02*
X0238016Y0092365D01*
X0238016Y0093363D02*
X0238016Y0093363D01*
X0239391Y0089369D02*
X0282496Y0089369D01*
X0282496Y0090368D02*
X0268142Y0090368D01*
X0268142Y0091366D02*
X0282496Y0091366D01*
X0282496Y0092365D02*
X0268142Y0092365D01*
X0268142Y0093363D02*
X0282496Y0093363D01*
X0282496Y0094362D02*
X0268142Y0094362D01*
X0268142Y0095360D02*
X0282496Y0095360D01*
X0282496Y0096359D02*
X0268142Y0096359D01*
X0268142Y0097357D02*
X0282496Y0097357D01*
X0282496Y0098356D02*
X0268142Y0098356D01*
X0267818Y0099354D02*
X0282496Y0099354D01*
X0282496Y0116329D02*
X0281035Y0116329D01*
X0281035Y0117327D02*
X0282496Y0117327D01*
X0282496Y0118326D02*
X0281035Y0118326D01*
X0281035Y0119324D02*
X0282496Y0119324D01*
X0282496Y0120323D02*
X0281035Y0120323D01*
X0281035Y0121321D02*
X0282496Y0121321D01*
X0282496Y0122320D02*
X0281035Y0122320D01*
X0281035Y0123318D02*
X0282496Y0123318D01*
X0282496Y0124317D02*
X0281035Y0124317D01*
X0281035Y0125315D02*
X0282496Y0125315D01*
X0282496Y0126314D02*
X0281035Y0126314D01*
X0281035Y0127312D02*
X0282496Y0127312D01*
X0282496Y0128311D02*
X0281035Y0128311D01*
X0281035Y0129309D02*
X0282496Y0129309D01*
X0282496Y0130308D02*
X0281035Y0130308D01*
X0281035Y0131306D02*
X0282496Y0131306D01*
X0282496Y0132305D02*
X0281035Y0132305D01*
X0281035Y0133303D02*
X0282496Y0133303D01*
X0282496Y0134302D02*
X0281035Y0134302D01*
X0280986Y0135301D02*
X0282496Y0135301D01*
X0070485Y0170248D02*
X0070234Y0170248D01*
X0067732Y0172245D02*
X0063976Y0172245D01*
X0062386Y0172055D02*
X0058941Y0175500D01*
X0058941Y0181500D01*
X0058941Y0187500D01*
X0056472Y0187223D02*
X0055547Y0187223D01*
X0055547Y0186225D02*
X0056472Y0186225D01*
X0056523Y0185226D02*
X0055547Y0185226D01*
X0055547Y0184228D02*
X0056977Y0184228D01*
X0056472Y0183229D02*
X0055547Y0183229D01*
X0055547Y0182231D02*
X0056472Y0182231D01*
X0056472Y0181232D02*
X0055547Y0181232D01*
X0055547Y0180234D02*
X0056472Y0180234D01*
X0056514Y0179235D02*
X0055547Y0179235D01*
X0055547Y0178237D02*
X0056986Y0178237D01*
X0056472Y0177238D02*
X0055547Y0177238D01*
X0055547Y0176239D02*
X0056472Y0176239D01*
X0056472Y0175241D02*
X0055547Y0175241D01*
X0055547Y0174242D02*
X0056472Y0174242D01*
X0062386Y0172055D02*
X0062386Y0168193D01*
X0066495Y0173244D02*
X0068731Y0173244D01*
X0069500Y0174242D02*
X0069751Y0174242D01*
X0067500Y0174242D02*
X0066528Y0174242D01*
X0064059Y0175500D02*
X0064059Y0181500D01*
X0065059Y0182500D01*
X0068500Y0182500D01*
X0066737Y0184228D02*
X0066023Y0184228D01*
X0064248Y0188222D02*
X0063870Y0188222D01*
X0063870Y0189220D02*
X0064248Y0189220D01*
X0064248Y0190219D02*
X0063870Y0190219D01*
X0061507Y0190219D02*
X0060914Y0190219D01*
X0056968Y0190219D02*
X0033530Y0190219D01*
X0034044Y0189220D02*
X0035831Y0189220D01*
X0035453Y0188222D02*
X0034452Y0188222D01*
X0034767Y0187223D02*
X0035453Y0187223D01*
X0035453Y0186225D02*
X0034995Y0186225D01*
X0035111Y0185226D02*
X0035453Y0185226D01*
X0043539Y0185226D02*
X0047461Y0185226D01*
X0047461Y0184228D02*
X0043539Y0184228D01*
X0043539Y0183229D02*
X0047461Y0183229D01*
X0047461Y0182231D02*
X0043539Y0182231D01*
X0043539Y0186225D02*
X0047461Y0186225D01*
X0047461Y0187223D02*
X0043539Y0187223D01*
X0043539Y0188222D02*
X0047461Y0188222D01*
X0047839Y0189220D02*
X0043161Y0189220D01*
X0055169Y0189220D02*
X0056472Y0189220D01*
X0056472Y0188222D02*
X0055547Y0188222D01*
X0066014Y0178237D02*
X0066746Y0178237D01*
D27*
X0068500Y0176500D03*
X0071500Y0172500D03*
X0068500Y0182500D03*
X0048500Y0169500D03*
X0033500Y0163500D03*
X0033500Y0155500D03*
X0031500Y0133500D03*
X0061500Y0122500D03*
X0080500Y0130500D03*
X0074500Y0144500D03*
X0016500Y0086500D03*
X0027780Y0084500D03*
X0037228Y0084500D03*
X0110500Y0017500D03*
X0106500Y0012500D03*
X0127500Y0012500D03*
X0127500Y0017500D03*
X0139500Y0007500D03*
X0212500Y0012500D03*
X0216500Y0017500D03*
X0232500Y0017500D03*
X0232500Y0012500D03*
X0244500Y0007500D03*
X0222500Y0068500D03*
X0206500Y0068500D03*
X0197850Y0070750D03*
X0206500Y0088500D03*
X0219500Y0088500D03*
D28*
X0212850Y0082750D03*
X0227850Y0070750D03*
X0247850Y0076750D03*
X0239850Y0086750D03*
X0244850Y0104750D03*
X0258850Y0113750D03*
X0275850Y0104750D03*
X0278850Y0087750D03*
X0265850Y0086750D03*
X0266850Y0070750D03*
X0278850Y0070750D03*
X0279850Y0050750D03*
X0265850Y0047750D03*
X0279850Y0028750D03*
X0259850Y0027750D03*
X0250850Y0026750D03*
X0228850Y0034750D03*
X0216200Y0044800D03*
X0212200Y0044800D03*
X0208300Y0044800D03*
X0204300Y0044800D03*
X0195850Y0048750D03*
X0188850Y0054750D03*
X0180850Y0046750D03*
X0160850Y0031750D03*
X0150850Y0024750D03*
X0140850Y0031750D03*
X0165850Y0017750D03*
X0165850Y0011750D03*
X0155850Y0011750D03*
X0145850Y0011750D03*
X0115850Y0032750D03*
X0110700Y0033300D03*
X0106700Y0033300D03*
X0102800Y0033300D03*
X0098800Y0033300D03*
X0094850Y0037750D03*
X0090673Y0033500D03*
X0087327Y0033500D03*
X0078873Y0033500D03*
X0075527Y0033500D03*
X0067073Y0033500D03*
X0063727Y0033500D03*
X0053850Y0030750D03*
X0041850Y0029750D03*
X0030850Y0023750D03*
X0024850Y0029750D03*
X0032850Y0040750D03*
X0048850Y0042750D03*
X0057850Y0053750D03*
X0043850Y0054750D03*
X0027850Y0054750D03*
X0012850Y0058750D03*
X0017450Y0069400D03*
X0011450Y0073400D03*
X0016450Y0077400D03*
X0011450Y0084400D03*
X0013450Y0092400D03*
X0016450Y0101400D03*
X0011450Y0113400D03*
X0021450Y0113400D03*
X0033450Y0101400D03*
X0043450Y0109400D03*
X0056450Y0105400D03*
X0065450Y0102400D03*
X0067450Y0114400D03*
X0067450Y0122400D03*
X0056450Y0122400D03*
X0056450Y0129400D03*
X0041450Y0131400D03*
X0026450Y0129400D03*
X0029500Y0145500D03*
X0037500Y0151500D03*
X0044500Y0150500D03*
X0050450Y0143400D03*
X0034500Y0169500D03*
X0045500Y0174500D03*
X0023500Y0168500D03*
X0010500Y0165500D03*
X0006500Y0172500D03*
X0010500Y0192500D03*
X0034500Y0194500D03*
X0045500Y0192500D03*
X0061500Y0192500D03*
X0083500Y0180500D03*
X0091500Y0180500D03*
X0089500Y0193500D03*
X0112500Y0191500D03*
X0127850Y0189750D03*
X0145850Y0174750D03*
X0164850Y0189750D03*
X0188850Y0190750D03*
X0220850Y0190750D03*
X0246850Y0192750D03*
X0274850Y0192750D03*
X0258850Y0169750D03*
X0277850Y0163750D03*
X0247850Y0149750D03*
X0258850Y0137750D03*
X0277850Y0139750D03*
X0233850Y0124750D03*
X0216850Y0139750D03*
X0195850Y0130750D03*
X0171850Y0122750D03*
X0159500Y0118500D03*
X0147500Y0126500D03*
X0159500Y0134500D03*
X0144500Y0140500D03*
X0133500Y0133500D03*
X0119500Y0121500D03*
X0112450Y0118400D03*
X0112450Y0111400D03*
X0119500Y0110500D03*
X0116700Y0103300D03*
X0117500Y0086500D03*
X0120850Y0086750D03*
X0125500Y0086500D03*
X0129500Y0086500D03*
X0113500Y0086500D03*
X0108450Y0087400D03*
X0094423Y0087500D03*
X0091077Y0087500D03*
X0073450Y0086400D03*
X0066450Y0086400D03*
X0060076Y0084500D03*
X0056924Y0084500D03*
X0052450Y0087400D03*
X0047450Y0078400D03*
X0053450Y0071400D03*
X0047450Y0069400D03*
X0064450Y0070400D03*
X0072450Y0075400D03*
X0086450Y0069400D03*
X0098327Y0069500D03*
X0101673Y0069500D03*
X0105327Y0069500D03*
X0108673Y0069500D03*
X0115450Y0070400D03*
X0122450Y0072400D03*
X0148200Y0087500D03*
X0162800Y0088250D03*
X0175850Y0086750D03*
X0169850Y0077750D03*
X0157850Y0068750D03*
X0184850Y0068800D03*
X0191850Y0083750D03*
X0171850Y0103750D03*
X0145500Y0102500D03*
X0114500Y0134500D03*
X0117500Y0147500D03*
X0102500Y0152500D03*
X0102500Y0157500D03*
X0092500Y0157500D03*
X0092500Y0152500D03*
X0092450Y0140400D03*
X0099450Y0122400D03*
X0085450Y0102400D03*
X0041450Y0087400D03*
X0024450Y0087400D03*
X0084850Y0053750D03*
X0102850Y0018750D03*
X0100850Y0011750D03*
X0086850Y0014750D03*
X0073850Y0014750D03*
X0059850Y0011750D03*
X0050850Y0011750D03*
X0042850Y0018750D03*
X0037850Y0006750D03*
X0027850Y0006750D03*
X0006850Y0027750D03*
X0006850Y0035750D03*
X0013850Y0041750D03*
X0059850Y0018750D03*
X0179850Y0014750D03*
X0192850Y0014750D03*
X0206850Y0011750D03*
X0207850Y0018750D03*
X0230850Y0046750D03*
X0219850Y0055750D03*
X0204850Y0054750D03*
X0249850Y0006750D03*
X0257850Y0006750D03*
X0221850Y0104750D03*
X0198850Y0104750D03*
X0171850Y0145750D03*
X0159500Y0159500D03*
X0182850Y0164750D03*
X0206850Y0164750D03*
X0232850Y0166750D03*
X0130500Y0159500D03*
X0115500Y0167500D03*
D29*
X0055941Y0147500D02*
X0055941Y0142500D01*
X0055941Y0147500D02*
X0036500Y0147500D01*
X0035341Y0147559D01*
X0032941Y0149941D01*
X0027300Y0149941D01*
X0027300Y0155059D02*
X0027300Y0162259D01*
X0026059Y0163500D01*
X0033500Y0155500D02*
X0033500Y0150500D01*
X0041500Y0140500D02*
X0014500Y0140500D01*
X0012500Y0142500D01*
X0012500Y0153154D01*
X0039240Y0163500D02*
X0040500Y0164240D01*
X0040500Y0181500D02*
X0039496Y0181500D01*
X0041500Y0140500D02*
X0051500Y0130500D01*
X0051500Y0117240D01*
X0041500Y0117760D02*
X0041500Y0114500D01*
X0037500Y0110500D01*
X0029500Y0110500D01*
X0025500Y0106500D01*
X0025500Y0094724D01*
X0027697Y0094724D01*
X0027780Y0094642D01*
X0027780Y0084500D01*
X0027780Y0079780D01*
X0027800Y0079200D01*
X0028961Y0078039D01*
X0028961Y0062358D01*
X0026598Y0062358D01*
X0031323Y0062358D02*
X0031323Y0088100D01*
X0030200Y0089100D01*
X0030200Y0094642D01*
X0030142Y0094642D01*
X0030142Y0105000D01*
X0050500Y0105000D01*
X0050500Y0109760D01*
X0051500Y0109760D01*
X0061500Y0109760D02*
X0061500Y0103500D01*
X0059500Y0101500D01*
X0038500Y0101500D01*
X0037228Y0100228D01*
X0037228Y0094642D01*
X0037228Y0084500D01*
X0037228Y0079772D01*
X0038409Y0078591D01*
X0038409Y0062358D01*
X0036047Y0062358D01*
X0021874Y0062358D02*
X0019512Y0062358D01*
X0019500Y0062346D01*
X0021874Y0062358D02*
X0021874Y0077126D01*
X0020693Y0078307D01*
X0020693Y0094642D01*
X0018331Y0094642D01*
X0018331Y0088500D01*
X0016500Y0086500D01*
X0020693Y0094642D02*
X0020500Y0094835D01*
X0020500Y0106500D01*
X0031500Y0117500D01*
X0031500Y0117760D01*
X0031500Y0125240D02*
X0031500Y0133500D01*
X0031500Y0125240D02*
X0041500Y0125240D01*
X0037228Y0094642D02*
X0034866Y0094642D01*
X0025500Y0094724D02*
X0025417Y0094642D01*
D30*
X0061500Y0117240D02*
X0061500Y0122500D01*
X0080500Y0130500D02*
X0080500Y0141504D01*
X0080504Y0141500D01*
X0080500Y0141504D02*
X0080500Y0157760D01*
X0040500Y0164240D02*
X0040500Y0181500D01*
X0039240Y0163500D02*
X0033500Y0163500D01*
X0026500Y0163500D01*
D31*
X0026059Y0163500D01*
M02*
