G75*
G70*
%OFA0B0*%
%FSLAX24Y24*%
%IPPOS*%
%LPD*%
%AMOC8*
5,1,8,0,0,1.08239X$1,22.5*
%
%ADD10C,0.0660*%
%ADD11C,0.0591*%
%ADD12C,0.0787*%
D10*
X015701Y001504D03*
X016701Y001504D03*
X017701Y001504D03*
X018701Y001504D03*
X019701Y001504D03*
X020701Y001504D03*
X022701Y001504D03*
X023701Y001504D03*
X024701Y001504D03*
X025701Y001504D03*
X026701Y001504D03*
X027701Y001504D03*
X027701Y020504D03*
X026701Y020504D03*
X025701Y020504D03*
X024701Y020504D03*
X023701Y020504D03*
X022701Y020504D03*
X021701Y020504D03*
X020701Y020504D03*
X019101Y020504D03*
X018101Y020504D03*
X017101Y020504D03*
X016101Y020504D03*
X015101Y020504D03*
X014101Y020504D03*
X013101Y020504D03*
X012101Y020504D03*
D11*
X020111Y013533D03*
X020898Y013533D03*
X021685Y013533D03*
X022473Y013533D03*
X022079Y008474D03*
X021292Y008474D03*
X020504Y008474D03*
X019717Y008474D03*
D12*
X013457Y005984D03*
X014481Y005984D03*
X015504Y005984D03*
X014992Y005079D03*
X013969Y005079D03*
X025898Y005984D03*
X026922Y005984D03*
X027945Y005984D03*
X027433Y005079D03*
X026410Y005079D03*
X026922Y016024D03*
X025898Y016024D03*
X026410Y016929D03*
X027433Y016929D03*
X027945Y016024D03*
X015504Y016024D03*
X014481Y016024D03*
X013457Y016024D03*
X013969Y016929D03*
X014992Y016929D03*
M02*
