G75*
%MOIN*%
%OFA0B0*%
%FSLAX25Y25*%
%IPPOS*%
%LPD*%
%AMOC8*
5,1,8,0,0,1.08239X$1,22.5*
%
%ADD10C,0.00800*%
%ADD11OC8,0.15000*%
%ADD12C,0.01320*%
%ADD13C,0.01040*%
D10*
X0064100Y0026215D02*
X0064100Y0035423D01*
X0070239Y0035423D01*
X0073308Y0032354D02*
X0073308Y0026215D01*
X0073308Y0029285D02*
X0076377Y0032354D01*
X0077912Y0032354D01*
X0080981Y0030819D02*
X0080981Y0027750D01*
X0082516Y0026215D01*
X0085585Y0026215D01*
X0087120Y0027750D01*
X0087120Y0030819D01*
X0085585Y0032354D01*
X0082516Y0032354D01*
X0080981Y0030819D01*
X0090189Y0032354D02*
X0090189Y0026215D01*
X0090189Y0032354D02*
X0094793Y0032354D01*
X0096328Y0030819D01*
X0096328Y0026215D01*
X0100931Y0027750D02*
X0102466Y0026215D01*
X0100931Y0027750D02*
X0100931Y0033889D01*
X0099397Y0032354D02*
X0102466Y0032354D01*
X0067169Y0030819D02*
X0064100Y0030819D01*
X0198820Y0220946D02*
X0198820Y0230154D01*
X0203424Y0230154D01*
X0204959Y0228619D01*
X0204959Y0225550D01*
X0203424Y0224015D01*
X0198820Y0224015D01*
X0195751Y0225550D02*
X0195751Y0228619D01*
X0194216Y0230154D01*
X0191147Y0230154D01*
X0189613Y0228619D01*
X0189613Y0225550D01*
X0191147Y0224015D01*
X0194216Y0224015D01*
X0195751Y0225550D01*
X0186543Y0233223D02*
X0180405Y0233223D01*
X0183474Y0233223D02*
X0183474Y0224015D01*
X0168128Y0224015D02*
X0163524Y0227085D01*
X0168128Y0230154D01*
X0163524Y0233223D02*
X0163524Y0224015D01*
X0160454Y0224015D02*
X0155850Y0224015D01*
X0154316Y0225550D01*
X0154316Y0228619D01*
X0155850Y0230154D01*
X0160454Y0230154D01*
X0151246Y0228619D02*
X0151246Y0224015D01*
X0146642Y0224015D01*
X0145108Y0225550D01*
X0146642Y0227085D01*
X0151246Y0227085D01*
X0151246Y0228619D02*
X0149712Y0230154D01*
X0146642Y0230154D01*
X0142039Y0231689D02*
X0142039Y0228619D01*
X0140504Y0227085D01*
X0135900Y0227085D01*
X0138969Y0227085D02*
X0142039Y0224015D01*
X0135900Y0224015D02*
X0135900Y0233223D01*
X0140504Y0233223D01*
X0142039Y0231689D01*
X0053324Y0237115D02*
X0051789Y0238650D01*
X0051789Y0244789D01*
X0050254Y0243254D02*
X0053324Y0243254D01*
X0047185Y0241719D02*
X0044116Y0241719D01*
X0041046Y0241719D02*
X0041046Y0240185D01*
X0034908Y0240185D01*
X0034908Y0241719D02*
X0036442Y0243254D01*
X0039512Y0243254D01*
X0041046Y0241719D01*
X0039512Y0237115D02*
X0036442Y0237115D01*
X0034908Y0238650D01*
X0034908Y0241719D01*
X0031839Y0237115D02*
X0025700Y0237115D01*
X0025700Y0246323D01*
X0045650Y0244789D02*
X0045650Y0237115D01*
X0045650Y0244789D02*
X0047185Y0246323D01*
X0320927Y0226409D02*
X0327065Y0226409D01*
X0328600Y0227944D01*
X0327065Y0231013D02*
X0323996Y0231013D01*
X0322461Y0232548D01*
X0322461Y0235617D01*
X0323996Y0237152D01*
X0327065Y0237152D01*
X0328600Y0235617D01*
X0328600Y0232548D01*
X0327065Y0231013D01*
X0322461Y0227944D02*
X0322461Y0224874D01*
X0322461Y0221805D02*
X0322461Y0218736D01*
X0320927Y0220271D02*
X0327065Y0220271D01*
X0328600Y0221805D01*
X0327065Y0215667D02*
X0323996Y0215667D01*
X0322461Y0214132D01*
X0322461Y0211063D01*
X0323996Y0209528D01*
X0327065Y0209528D01*
X0328600Y0211063D01*
X0328600Y0214132D01*
X0327065Y0215667D01*
X0327065Y0206459D02*
X0325531Y0206459D01*
X0323996Y0204924D01*
X0323996Y0200320D01*
X0319392Y0200320D02*
X0319392Y0204924D01*
X0320927Y0206459D01*
X0322461Y0206459D01*
X0323996Y0204924D01*
X0327065Y0206459D02*
X0328600Y0204924D01*
X0328600Y0200320D01*
X0319392Y0200320D01*
X0322461Y0188043D02*
X0325531Y0183439D01*
X0328600Y0188043D01*
X0328600Y0183439D02*
X0319392Y0183439D01*
X0322461Y0180370D02*
X0322461Y0175766D01*
X0323996Y0174231D01*
X0327065Y0174231D01*
X0328600Y0175766D01*
X0328600Y0180370D01*
X0328600Y0171162D02*
X0323996Y0171162D01*
X0322461Y0169627D01*
X0322461Y0166558D01*
X0325531Y0166558D02*
X0325531Y0171162D01*
X0328600Y0171162D02*
X0328600Y0166558D01*
X0327065Y0165023D01*
X0325531Y0166558D01*
X0323996Y0161954D02*
X0320927Y0161954D01*
X0319392Y0160419D01*
X0319392Y0155815D01*
X0328600Y0155815D01*
X0325531Y0155815D02*
X0325531Y0160419D01*
X0323996Y0161954D01*
X0325531Y0158885D02*
X0328600Y0161954D01*
X0350642Y0106858D02*
X0350642Y0105323D01*
X0350642Y0102254D02*
X0350642Y0096115D01*
X0349108Y0096115D02*
X0352177Y0096115D01*
X0355246Y0097650D02*
X0356781Y0096115D01*
X0361385Y0096115D01*
X0361385Y0094581D02*
X0361385Y0102254D01*
X0356781Y0102254D01*
X0355246Y0100719D01*
X0355246Y0097650D01*
X0350642Y0102254D02*
X0349108Y0102254D01*
X0346039Y0100719D02*
X0344504Y0099185D01*
X0339900Y0099185D01*
X0342969Y0099185D02*
X0346039Y0096115D01*
X0346039Y0100719D02*
X0346039Y0103789D01*
X0344504Y0105323D01*
X0339900Y0105323D01*
X0339900Y0096115D01*
X0358316Y0093046D02*
X0359850Y0093046D01*
X0361385Y0094581D01*
X0364454Y0096115D02*
X0364454Y0105323D01*
X0365989Y0102254D02*
X0369058Y0102254D01*
X0370593Y0100719D01*
X0370593Y0096115D01*
X0375197Y0097650D02*
X0376731Y0096115D01*
X0375197Y0097650D02*
X0375197Y0103789D01*
X0373662Y0102254D02*
X0376731Y0102254D01*
X0365989Y0102254D02*
X0364454Y0100719D01*
X0392392Y0169615D02*
X0392392Y0174219D01*
X0393927Y0175754D01*
X0396996Y0175754D01*
X0398531Y0174219D01*
X0398531Y0169615D01*
X0401600Y0169615D02*
X0392392Y0169615D01*
X0398531Y0172685D02*
X0401600Y0175754D01*
X0400065Y0178823D02*
X0398531Y0180358D01*
X0398531Y0184962D01*
X0396996Y0184962D02*
X0401600Y0184962D01*
X0401600Y0180358D01*
X0400065Y0178823D01*
X0395461Y0180358D02*
X0395461Y0183427D01*
X0396996Y0184962D01*
X0396996Y0188031D02*
X0395461Y0189566D01*
X0395461Y0194170D01*
X0392392Y0197239D02*
X0401600Y0197239D01*
X0401600Y0194170D02*
X0401600Y0189566D01*
X0400065Y0188031D01*
X0396996Y0188031D01*
X0398531Y0197239D02*
X0395461Y0201843D01*
X0398531Y0197239D02*
X0401600Y0201843D01*
X0401600Y0214120D02*
X0392392Y0214120D01*
X0392392Y0218724D01*
X0393927Y0220259D01*
X0395461Y0220259D01*
X0396996Y0218724D01*
X0396996Y0214120D01*
X0401600Y0214120D02*
X0401600Y0218724D01*
X0400065Y0220259D01*
X0398531Y0220259D01*
X0396996Y0218724D01*
X0400065Y0223328D02*
X0398531Y0224863D01*
X0398531Y0229467D01*
X0396996Y0229467D02*
X0401600Y0229467D01*
X0401600Y0224863D01*
X0400065Y0223328D01*
X0395461Y0224863D02*
X0395461Y0227932D01*
X0396996Y0229467D01*
X0396996Y0232536D02*
X0395461Y0234071D01*
X0395461Y0238674D01*
X0398531Y0237140D02*
X0398531Y0234071D01*
X0396996Y0232536D01*
X0401600Y0232536D02*
X0401600Y0237140D01*
X0400065Y0238674D01*
X0398531Y0237140D01*
X0398531Y0241744D02*
X0398531Y0247882D01*
X0396996Y0247882D01*
X0395461Y0246348D01*
X0395461Y0243278D01*
X0396996Y0241744D01*
X0400065Y0241744D01*
X0401600Y0243278D01*
X0401600Y0246348D01*
X0328600Y0246359D02*
X0323996Y0246359D01*
X0322461Y0244825D01*
X0323996Y0243290D01*
X0328600Y0243290D01*
X0328600Y0240221D02*
X0322461Y0240221D01*
X0322461Y0241756D01*
X0323996Y0243290D01*
D11*
X0069000Y0248215D03*
X0069000Y0164215D03*
D12*
X0357103Y0029437D02*
X0356443Y0030097D01*
X0357996Y0031638D01*
X0360181Y0031631D01*
X0361722Y0030078D01*
X0361715Y0027893D01*
X0360162Y0026352D01*
X0357977Y0026359D01*
X0356436Y0027912D01*
X0356443Y0030097D01*
X0357432Y0029683D01*
X0358402Y0030647D01*
X0359767Y0030642D01*
X0360731Y0029672D01*
X0360726Y0028307D01*
X0359756Y0027343D01*
X0358391Y0027348D01*
X0357427Y0028318D01*
X0357432Y0029683D01*
X0358420Y0029270D01*
X0358809Y0029655D01*
X0359354Y0029654D01*
X0359739Y0029265D01*
X0359738Y0028720D01*
X0359349Y0028335D01*
X0358804Y0028336D01*
X0358419Y0028725D01*
X0358420Y0029270D01*
X0367103Y0029402D02*
X0366443Y0030062D01*
X0367996Y0031603D01*
X0370181Y0031596D01*
X0371722Y0030043D01*
X0371715Y0027858D01*
X0370162Y0026317D01*
X0367977Y0026324D01*
X0366436Y0027877D01*
X0366443Y0030062D01*
X0367432Y0029648D01*
X0368402Y0030612D01*
X0369767Y0030607D01*
X0370731Y0029637D01*
X0370726Y0028272D01*
X0369756Y0027308D01*
X0368391Y0027313D01*
X0367427Y0028283D01*
X0367432Y0029648D01*
X0368420Y0029235D01*
X0368809Y0029620D01*
X0369354Y0029619D01*
X0369739Y0029230D01*
X0369738Y0028685D01*
X0369349Y0028300D01*
X0368804Y0028301D01*
X0368419Y0028690D01*
X0368420Y0029235D01*
X0384885Y0014505D02*
X0384225Y0015165D01*
X0385778Y0016706D01*
X0387963Y0016699D01*
X0389504Y0015146D01*
X0389497Y0012961D01*
X0387944Y0011420D01*
X0385759Y0011427D01*
X0384218Y0012980D01*
X0384225Y0015165D01*
X0385214Y0014751D01*
X0386184Y0015715D01*
X0387549Y0015710D01*
X0388513Y0014740D01*
X0388508Y0013375D01*
X0387538Y0012411D01*
X0386173Y0012416D01*
X0385209Y0013386D01*
X0385214Y0014751D01*
X0386202Y0014338D01*
X0386591Y0014723D01*
X0387136Y0014722D01*
X0387521Y0014333D01*
X0387520Y0013788D01*
X0387131Y0013403D01*
X0386586Y0013404D01*
X0386201Y0013793D01*
X0386202Y0014338D01*
X0394885Y0014470D02*
X0394225Y0015130D01*
X0395778Y0016671D01*
X0397963Y0016664D01*
X0399504Y0015111D01*
X0399497Y0012926D01*
X0397944Y0011385D01*
X0395759Y0011392D01*
X0394218Y0012945D01*
X0394225Y0015130D01*
X0395214Y0014716D01*
X0396184Y0015680D01*
X0397549Y0015675D01*
X0398513Y0014705D01*
X0398508Y0013340D01*
X0397538Y0012376D01*
X0396173Y0012381D01*
X0395209Y0013351D01*
X0395214Y0014716D01*
X0396202Y0014303D01*
X0396591Y0014688D01*
X0397136Y0014687D01*
X0397521Y0014298D01*
X0397520Y0013753D01*
X0397131Y0013368D01*
X0396586Y0013369D01*
X0396201Y0013758D01*
X0396202Y0014303D01*
D13*
X0364493Y0015980D02*
X0363973Y0016500D01*
X0365196Y0017714D01*
X0366917Y0017708D01*
X0368131Y0016485D01*
X0368125Y0014764D01*
X0366902Y0013550D01*
X0365181Y0013556D01*
X0363967Y0014779D01*
X0363973Y0016500D01*
X0364751Y0016174D01*
X0365516Y0016933D01*
X0366591Y0016930D01*
X0367350Y0016165D01*
X0367347Y0015090D01*
X0366582Y0014331D01*
X0365507Y0014334D01*
X0364748Y0015099D01*
X0364751Y0016174D01*
X0365530Y0015848D01*
X0365836Y0016152D01*
X0366265Y0016151D01*
X0366569Y0015845D01*
X0366568Y0015416D01*
X0366262Y0015112D01*
X0365833Y0015113D01*
X0365529Y0015419D01*
X0365530Y0015848D01*
X0329812Y0040510D02*
X0329292Y0039990D01*
X0328078Y0041213D01*
X0328084Y0042934D01*
X0329307Y0044148D01*
X0331028Y0044142D01*
X0332242Y0042919D01*
X0332236Y0041198D01*
X0331013Y0039984D01*
X0329292Y0039990D01*
X0329618Y0040768D01*
X0328859Y0041533D01*
X0328862Y0042608D01*
X0329627Y0043367D01*
X0330702Y0043364D01*
X0331461Y0042599D01*
X0331458Y0041524D01*
X0330693Y0040765D01*
X0329618Y0040768D01*
X0329944Y0041547D01*
X0329640Y0041853D01*
X0329641Y0042282D01*
X0329947Y0042586D01*
X0330376Y0042585D01*
X0330680Y0042279D01*
X0330679Y0041850D01*
X0330373Y0041546D01*
X0329944Y0041547D01*
X0324493Y0016120D02*
X0323973Y0016640D01*
X0325196Y0017854D01*
X0326917Y0017848D01*
X0328131Y0016625D01*
X0328125Y0014904D01*
X0326902Y0013690D01*
X0325181Y0013696D01*
X0323967Y0014919D01*
X0323973Y0016640D01*
X0324751Y0016314D01*
X0325516Y0017073D01*
X0326591Y0017070D01*
X0327350Y0016305D01*
X0327347Y0015230D01*
X0326582Y0014471D01*
X0325507Y0014474D01*
X0324748Y0015239D01*
X0324751Y0016314D01*
X0325530Y0015988D01*
X0325836Y0016292D01*
X0326265Y0016291D01*
X0326569Y0015985D01*
X0326568Y0015556D01*
X0326262Y0015252D01*
X0325833Y0015253D01*
X0325529Y0015559D01*
X0325530Y0015988D01*
X0329952Y0080510D02*
X0329432Y0079990D01*
X0328218Y0081213D01*
X0328224Y0082934D01*
X0329447Y0084148D01*
X0331168Y0084142D01*
X0332382Y0082919D01*
X0332376Y0081198D01*
X0331153Y0079984D01*
X0329432Y0079990D01*
X0329758Y0080768D01*
X0328999Y0081533D01*
X0329002Y0082608D01*
X0329767Y0083367D01*
X0330842Y0083364D01*
X0331601Y0082599D01*
X0331598Y0081524D01*
X0330833Y0080765D01*
X0329758Y0080768D01*
X0330084Y0081547D01*
X0329780Y0081853D01*
X0329781Y0082282D01*
X0330087Y0082586D01*
X0330516Y0082585D01*
X0330820Y0082279D01*
X0330819Y0081850D01*
X0330513Y0081546D01*
X0330084Y0081547D01*
M02*
