G75*
%MOIN*%
%OFA0B0*%
%FSLAX24Y24*%
%IPPOS*%
%LPD*%
%AMOC8*
5,1,8,0,0,1.08239X$1,22.5*
%
%ADD10C,0.0000*%
%ADD11OC8,0.0520*%
%ADD12OC8,0.0630*%
%ADD13C,0.0630*%
%ADD14C,0.0660*%
%ADD15C,0.0885*%
%ADD16C,0.1000*%
%ADD17C,0.0520*%
%ADD18C,0.0600*%
%ADD19C,0.0520*%
%ADD20OC8,0.0560*%
%ADD21R,0.0600X0.2550*%
%ADD22C,0.0600*%
%ADD23OC8,0.0600*%
%ADD24C,0.0669*%
%ADD25C,0.0440*%
%ADD26C,0.0240*%
%ADD27C,0.0160*%
%ADD28C,0.0560*%
%ADD29OC8,0.0760*%
%ADD30C,0.0500*%
%ADD31OC8,0.0551*%
%ADD32C,0.0320*%
D10*
X011377Y016908D02*
X011377Y048279D01*
X046747Y048279D01*
X046747Y016908D01*
X011377Y016908D01*
X024327Y031783D02*
X024329Y031833D01*
X024335Y031883D01*
X024345Y031933D01*
X024358Y031981D01*
X024375Y032029D01*
X024396Y032075D01*
X024420Y032119D01*
X024448Y032161D01*
X024479Y032201D01*
X024513Y032238D01*
X024550Y032273D01*
X024589Y032304D01*
X024630Y032333D01*
X024674Y032358D01*
X024720Y032380D01*
X024767Y032398D01*
X024815Y032412D01*
X024864Y032423D01*
X024914Y032430D01*
X024964Y032433D01*
X025015Y032432D01*
X025065Y032427D01*
X025115Y032418D01*
X025163Y032406D01*
X025211Y032389D01*
X025257Y032369D01*
X025302Y032346D01*
X025345Y032319D01*
X025385Y032289D01*
X025423Y032256D01*
X025458Y032220D01*
X025491Y032181D01*
X025520Y032140D01*
X025546Y032097D01*
X025569Y032052D01*
X025588Y032005D01*
X025603Y031957D01*
X025615Y031908D01*
X025623Y031858D01*
X025627Y031808D01*
X025627Y031758D01*
X025623Y031708D01*
X025615Y031658D01*
X025603Y031609D01*
X025588Y031561D01*
X025569Y031514D01*
X025546Y031469D01*
X025520Y031426D01*
X025491Y031385D01*
X025458Y031346D01*
X025423Y031310D01*
X025385Y031277D01*
X025345Y031247D01*
X025302Y031220D01*
X025257Y031197D01*
X025211Y031177D01*
X025163Y031160D01*
X025115Y031148D01*
X025065Y031139D01*
X025015Y031134D01*
X024964Y031133D01*
X024914Y031136D01*
X024864Y031143D01*
X024815Y031154D01*
X024767Y031168D01*
X024720Y031186D01*
X024674Y031208D01*
X024630Y031233D01*
X024589Y031262D01*
X024550Y031293D01*
X024513Y031328D01*
X024479Y031365D01*
X024448Y031405D01*
X024420Y031447D01*
X024396Y031491D01*
X024375Y031537D01*
X024358Y031585D01*
X024345Y031633D01*
X024335Y031683D01*
X024329Y031733D01*
X024327Y031783D01*
D11*
X024877Y034783D03*
X023377Y034783D03*
X023377Y036783D03*
X023877Y037783D03*
X024877Y036783D03*
X021877Y037783D03*
X021877Y044283D03*
X021002Y044283D03*
X022877Y044783D03*
X021877Y046283D03*
X021002Y046283D03*
X022877Y046783D03*
X018627Y046533D03*
X018627Y044533D03*
X014377Y038783D03*
X014377Y036783D03*
X014877Y029283D03*
X016877Y029283D03*
X017877Y029283D03*
X019877Y029283D03*
X021877Y026783D03*
X023877Y026283D03*
X021877Y024783D03*
X023877Y024283D03*
X027877Y024783D03*
X027877Y022783D03*
X017877Y023283D03*
X015877Y023283D03*
X015877Y021283D03*
X017877Y021283D03*
X033627Y036283D03*
X034877Y036283D03*
X035877Y036283D03*
X036877Y035783D03*
X036377Y034283D03*
X037127Y033783D03*
X036377Y033283D03*
X036877Y037783D03*
X035877Y038283D03*
X034877Y038283D03*
X033627Y038283D03*
X036377Y039783D03*
X037127Y039283D03*
X037877Y038783D03*
X037877Y039783D03*
X036377Y041783D03*
X036127Y043908D03*
X037252Y043908D03*
X037252Y045908D03*
X036127Y045908D03*
D12*
X041502Y041783D03*
X036877Y031283D03*
X026877Y035783D03*
X026877Y037283D03*
X014752Y046408D03*
D13*
X015752Y046408D03*
X026877Y038283D03*
X026877Y034783D03*
X035877Y031283D03*
X042502Y041783D03*
D14*
X032207Y032783D02*
X031547Y032783D01*
X031547Y031783D02*
X032207Y031783D01*
X032207Y030783D02*
X031547Y030783D01*
X029707Y028283D02*
X029047Y028283D01*
X024707Y028283D02*
X024047Y028283D01*
D15*
X033377Y028341D02*
X033377Y029226D01*
X036377Y029226D02*
X036377Y028341D01*
X036377Y023226D02*
X036377Y022341D01*
X033377Y022341D02*
X033377Y023226D01*
D16*
X038877Y023683D02*
X039877Y023683D01*
X039877Y025683D02*
X038877Y025683D01*
X042377Y025683D02*
X043377Y025683D01*
X043377Y023683D02*
X042377Y023683D01*
X042377Y029883D02*
X043377Y029883D01*
X043377Y031883D02*
X042377Y031883D01*
X039877Y031883D02*
X038877Y031883D01*
X038877Y029883D02*
X039877Y029883D01*
D17*
X034877Y039523D02*
X034877Y040043D01*
X033877Y040043D02*
X033877Y039523D01*
X032877Y039523D02*
X032877Y040043D01*
X031877Y040043D02*
X031877Y039523D01*
X030877Y039523D02*
X030877Y040043D01*
X029877Y040043D02*
X029877Y039523D01*
X028877Y039523D02*
X028877Y040043D01*
X027877Y040043D02*
X027877Y039523D01*
X026877Y039523D02*
X026877Y040043D01*
X025877Y040043D02*
X025877Y039523D01*
X024877Y039523D02*
X024877Y040043D01*
X023877Y040043D02*
X023877Y039523D01*
X022877Y039523D02*
X022877Y040043D01*
X021877Y040043D02*
X021877Y039523D01*
X021877Y042523D02*
X021877Y043043D01*
X022877Y043043D02*
X022877Y042523D01*
X023877Y042523D02*
X023877Y043043D01*
X024877Y043043D02*
X024877Y042523D01*
X025877Y042523D02*
X025877Y043043D01*
X026877Y043043D02*
X026877Y042523D01*
X027877Y042523D02*
X027877Y043043D01*
X028877Y043043D02*
X028877Y042523D01*
X029877Y042523D02*
X029877Y043043D01*
X030877Y043043D02*
X030877Y042523D01*
X031877Y042523D02*
X031877Y043043D01*
X032877Y043043D02*
X032877Y042523D01*
X033877Y042523D02*
X033877Y043043D01*
X034877Y043043D02*
X034877Y042523D01*
X021377Y036043D02*
X021377Y035523D01*
X020377Y035523D02*
X020377Y036043D01*
X019377Y036043D02*
X019377Y035523D01*
X018377Y035523D02*
X018377Y036043D01*
X017377Y036043D02*
X017377Y035523D01*
X016377Y035523D02*
X016377Y036043D01*
X015377Y036043D02*
X015377Y035523D01*
X014377Y035523D02*
X014377Y036043D01*
X014377Y033043D02*
X014377Y032523D01*
X015377Y032523D02*
X015377Y033043D01*
X016377Y033043D02*
X016377Y032523D01*
X017377Y032523D02*
X017377Y033043D01*
X018377Y033043D02*
X018377Y032523D01*
X019377Y032523D02*
X019377Y033043D01*
X020377Y033043D02*
X020377Y032523D01*
X021377Y032523D02*
X021377Y033043D01*
X020377Y028303D02*
X020377Y027783D01*
X019377Y027783D02*
X019377Y028303D01*
X017877Y028303D02*
X017877Y027783D01*
X016877Y027783D02*
X016877Y028303D01*
X016877Y024783D02*
X016877Y024263D01*
X017877Y024263D02*
X017877Y024783D01*
X019377Y024783D02*
X019377Y024263D01*
X020377Y024263D02*
X020377Y024783D01*
D18*
X039577Y033283D02*
X040177Y033283D01*
X040177Y035283D02*
X039577Y035283D01*
X039577Y037283D02*
X040177Y037283D01*
X042577Y037283D02*
X043177Y037283D01*
X043177Y035283D02*
X042577Y035283D01*
X042577Y033283D02*
X043177Y033283D01*
X043177Y040283D02*
X042577Y040283D01*
X040177Y040283D02*
X039577Y040283D01*
X026627Y044358D02*
X026627Y044958D01*
X025627Y044958D02*
X025627Y044358D01*
X024627Y044358D02*
X024627Y044958D01*
D19*
X029877Y038283D03*
X030877Y038283D03*
D20*
X033877Y035283D03*
X033877Y030283D03*
D21*
X033877Y018783D03*
X034877Y018783D03*
X035877Y018783D03*
X036877Y018783D03*
X037877Y018783D03*
X038877Y018783D03*
X039877Y018783D03*
X040877Y018783D03*
X041877Y018783D03*
X042877Y018783D03*
X043877Y018783D03*
X032877Y018783D03*
X031877Y018783D03*
X030877Y018783D03*
X029877Y018783D03*
X028877Y018783D03*
X027877Y018783D03*
X026877Y018783D03*
X025877Y018783D03*
X024877Y018783D03*
X023877Y018783D03*
X022877Y018783D03*
X021877Y018783D03*
X020877Y018783D03*
X019877Y018783D03*
X018877Y018783D03*
X017877Y018783D03*
X016877Y018783D03*
X015877Y018783D03*
X014877Y018783D03*
X013877Y018783D03*
D22*
X034377Y046283D03*
D23*
X034377Y045283D03*
X033377Y045283D03*
X033377Y046283D03*
X032377Y046283D03*
X032377Y045283D03*
D24*
X037627Y042533D03*
X040627Y042533D03*
D25*
X038377Y044408D03*
X038377Y045408D03*
X038377Y046408D03*
D26*
X038377Y045408D02*
X038377Y044408D01*
X038127Y043908D02*
X038627Y043283D01*
X039877Y043283D01*
X040627Y042533D01*
X039877Y040658D02*
X039877Y040283D01*
X041377Y038783D02*
X041453Y038785D01*
X041529Y038791D01*
X041604Y038800D01*
X041679Y038814D01*
X041753Y038831D01*
X041826Y038852D01*
X041898Y038876D01*
X041969Y038905D01*
X042038Y038936D01*
X042105Y038971D01*
X042170Y039010D01*
X042234Y039052D01*
X042295Y039097D01*
X042354Y039145D01*
X042410Y039196D01*
X042464Y039250D01*
X042515Y039306D01*
X042563Y039365D01*
X042608Y039426D01*
X042650Y039490D01*
X042689Y039555D01*
X042724Y039622D01*
X042755Y039691D01*
X042784Y039762D01*
X042808Y039834D01*
X042829Y039907D01*
X042846Y039981D01*
X042860Y040056D01*
X042869Y040131D01*
X042875Y040207D01*
X042877Y040283D01*
X041377Y038783D02*
X037877Y038783D01*
X037127Y039283D02*
X036877Y039283D01*
X036833Y039285D01*
X036790Y039291D01*
X036748Y039300D01*
X036706Y039313D01*
X036666Y039330D01*
X036627Y039350D01*
X036590Y039373D01*
X036556Y039400D01*
X036523Y039429D01*
X036494Y039462D01*
X036467Y039496D01*
X036444Y039533D01*
X036424Y039572D01*
X036407Y039612D01*
X036394Y039654D01*
X036385Y039696D01*
X036379Y039739D01*
X036377Y039783D01*
X035127Y041033D02*
X035059Y041031D01*
X034992Y041026D01*
X034925Y041017D01*
X034858Y041004D01*
X034793Y040987D01*
X034728Y040968D01*
X034664Y040944D01*
X034602Y040917D01*
X034541Y040887D01*
X034483Y040854D01*
X034426Y040818D01*
X034371Y040778D01*
X034318Y040736D01*
X034267Y040690D01*
X034220Y040643D01*
X034174Y040592D01*
X034132Y040539D01*
X034092Y040484D01*
X034056Y040427D01*
X034023Y040369D01*
X033993Y040308D01*
X033966Y040246D01*
X033942Y040182D01*
X033923Y040117D01*
X033906Y040052D01*
X033893Y039985D01*
X033884Y039918D01*
X033879Y039851D01*
X033877Y039783D01*
X034877Y039783D02*
X034877Y038283D01*
X035877Y038283D01*
X037627Y042533D02*
X037717Y042540D01*
X037807Y042542D01*
X037897Y042540D01*
X037987Y042535D01*
X038077Y042525D01*
X038167Y042512D01*
X038255Y042494D01*
X038343Y042473D01*
X038430Y042448D01*
X038516Y042419D01*
X038600Y042387D01*
X038683Y042351D01*
X038764Y042311D01*
X038843Y042268D01*
X038921Y042221D01*
X038996Y042171D01*
X039069Y042118D01*
X039140Y042062D01*
X039208Y042003D01*
X039273Y041940D01*
X039336Y041875D01*
X039396Y041808D01*
X039453Y041737D01*
X039506Y041665D01*
X039557Y041590D01*
X039604Y041513D01*
X039648Y041434D01*
X039688Y041353D01*
X039725Y041270D01*
X039758Y041186D01*
X039787Y041100D01*
X039813Y041014D01*
X039834Y040926D01*
X039852Y040838D01*
X039866Y040748D01*
X039876Y040658D01*
X039877Y037283D02*
X040127Y037283D01*
X040187Y037281D01*
X040248Y037276D01*
X040307Y037267D01*
X040366Y037254D01*
X040425Y037238D01*
X040482Y037218D01*
X040537Y037195D01*
X040592Y037168D01*
X040644Y037139D01*
X040695Y037106D01*
X040744Y037070D01*
X040790Y037032D01*
X040834Y036990D01*
X040876Y036946D01*
X040914Y036900D01*
X040950Y036851D01*
X040983Y036800D01*
X041012Y036748D01*
X041039Y036693D01*
X041062Y036638D01*
X041082Y036581D01*
X041098Y036522D01*
X041111Y036463D01*
X041120Y036404D01*
X041125Y036343D01*
X041127Y036283D01*
X041127Y033633D01*
X041125Y033552D01*
X041120Y033472D01*
X041110Y033391D01*
X041097Y033311D01*
X041081Y033232D01*
X041060Y033154D01*
X041036Y033077D01*
X041009Y033001D01*
X040978Y032926D01*
X040944Y032853D01*
X040906Y032781D01*
X040865Y032712D01*
X040821Y032644D01*
X040774Y032578D01*
X040723Y032515D01*
X040670Y032454D01*
X040614Y032396D01*
X040556Y032340D01*
X040495Y032287D01*
X040432Y032236D01*
X040366Y032189D01*
X040298Y032145D01*
X040229Y032104D01*
X040157Y032066D01*
X040084Y032032D01*
X040009Y032001D01*
X039933Y031974D01*
X039856Y031950D01*
X039778Y031929D01*
X039699Y031913D01*
X039619Y031900D01*
X039538Y031890D01*
X039458Y031885D01*
X039377Y031883D01*
X037127Y033783D02*
X037127Y035533D01*
X037125Y035563D01*
X037120Y035593D01*
X037111Y035622D01*
X037098Y035649D01*
X037083Y035675D01*
X037064Y035699D01*
X037043Y035720D01*
X037019Y035739D01*
X036993Y035754D01*
X036966Y035767D01*
X036937Y035776D01*
X036907Y035781D01*
X036877Y035783D01*
X036377Y034283D02*
X034877Y034283D01*
X034817Y034285D01*
X034756Y034290D01*
X034697Y034299D01*
X034638Y034312D01*
X034579Y034328D01*
X034522Y034348D01*
X034467Y034371D01*
X034412Y034398D01*
X034360Y034427D01*
X034309Y034460D01*
X034260Y034496D01*
X034214Y034534D01*
X034170Y034576D01*
X034128Y034620D01*
X034090Y034666D01*
X034054Y034715D01*
X034021Y034766D01*
X033992Y034818D01*
X033965Y034873D01*
X033942Y034928D01*
X033922Y034985D01*
X033906Y035044D01*
X033893Y035103D01*
X033884Y035162D01*
X033879Y035223D01*
X033877Y035283D01*
X029877Y034783D02*
X026877Y034783D01*
X024877Y034783D01*
X024877Y036783D02*
X023377Y036783D01*
X022377Y037033D02*
X022347Y037031D01*
X022317Y037026D01*
X022288Y037017D01*
X022261Y037004D01*
X022235Y036989D01*
X022211Y036970D01*
X022190Y036949D01*
X022171Y036925D01*
X022156Y036899D01*
X022143Y036872D01*
X022134Y036843D01*
X022129Y036813D01*
X022127Y036783D01*
X022127Y030533D01*
X022125Y030489D01*
X022119Y030446D01*
X022110Y030404D01*
X022097Y030362D01*
X022080Y030322D01*
X022060Y030283D01*
X022037Y030246D01*
X022010Y030212D01*
X021981Y030179D01*
X021948Y030150D01*
X021914Y030123D01*
X021877Y030100D01*
X021838Y030080D01*
X021798Y030063D01*
X021756Y030050D01*
X021714Y030041D01*
X021671Y030035D01*
X021627Y030033D01*
X017377Y030033D01*
X017333Y030031D01*
X017290Y030025D01*
X017248Y030016D01*
X017206Y030003D01*
X017166Y029986D01*
X017127Y029966D01*
X017090Y029943D01*
X017056Y029916D01*
X017023Y029887D01*
X016994Y029854D01*
X016967Y029820D01*
X016944Y029783D01*
X016924Y029744D01*
X016907Y029704D01*
X016894Y029662D01*
X016885Y029620D01*
X016879Y029577D01*
X016877Y029533D01*
X016877Y029283D01*
X016877Y027783D01*
X018127Y029283D02*
X018171Y029281D01*
X018214Y029275D01*
X018256Y029266D01*
X018298Y029253D01*
X018338Y029236D01*
X018377Y029216D01*
X018414Y029193D01*
X018448Y029166D01*
X018481Y029137D01*
X018510Y029104D01*
X018537Y029070D01*
X018560Y029033D01*
X018580Y028994D01*
X018597Y028954D01*
X018610Y028912D01*
X018619Y028870D01*
X018625Y028827D01*
X018627Y028783D01*
X018627Y026533D01*
X018629Y026479D01*
X018635Y026426D01*
X018644Y026374D01*
X018657Y026322D01*
X018674Y026271D01*
X018695Y026221D01*
X018719Y026174D01*
X018746Y026128D01*
X018777Y026084D01*
X018810Y026042D01*
X018847Y026003D01*
X018886Y025966D01*
X018928Y025933D01*
X018972Y025902D01*
X019018Y025875D01*
X019065Y025851D01*
X019115Y025830D01*
X019166Y025813D01*
X019218Y025800D01*
X019270Y025791D01*
X019323Y025785D01*
X019377Y025783D01*
X022377Y025783D01*
X022407Y025781D01*
X022437Y025776D01*
X022466Y025767D01*
X022493Y025754D01*
X022519Y025739D01*
X022543Y025720D01*
X022564Y025699D01*
X022583Y025675D01*
X022598Y025649D01*
X022611Y025622D01*
X022620Y025593D01*
X022625Y025563D01*
X022627Y025533D01*
X022629Y025503D01*
X022634Y025473D01*
X022643Y025444D01*
X022656Y025417D01*
X022671Y025391D01*
X022690Y025367D01*
X022711Y025346D01*
X022735Y025327D01*
X022761Y025312D01*
X022788Y025299D01*
X022817Y025290D01*
X022847Y025285D01*
X022877Y025283D01*
X026877Y025283D01*
X026907Y025285D01*
X026937Y025290D01*
X026966Y025299D01*
X026993Y025312D01*
X027019Y025327D01*
X027043Y025346D01*
X027064Y025367D01*
X027083Y025391D01*
X027098Y025417D01*
X027111Y025444D01*
X027120Y025473D01*
X027125Y025503D01*
X027127Y025533D01*
X027126Y025534D02*
X027134Y025574D01*
X027145Y025613D01*
X027160Y025651D01*
X027179Y025687D01*
X027200Y025722D01*
X027225Y025754D01*
X027252Y025785D01*
X027283Y025812D01*
X027315Y025836D01*
X027350Y025858D01*
X027387Y025876D01*
X027425Y025891D01*
X027464Y025902D01*
X027504Y025909D01*
X027545Y025913D01*
X027586Y025912D01*
X027627Y025909D01*
X027627Y025908D02*
X036877Y025908D01*
X036876Y025908D02*
X036917Y025905D01*
X036958Y025904D01*
X036999Y025908D01*
X037039Y025915D01*
X037078Y025926D01*
X037116Y025941D01*
X037153Y025959D01*
X037188Y025981D01*
X037220Y026005D01*
X037251Y026032D01*
X037278Y026063D01*
X037303Y026095D01*
X037324Y026130D01*
X037343Y026166D01*
X037358Y026204D01*
X037369Y026243D01*
X037377Y026283D01*
X037379Y026337D01*
X037385Y026390D01*
X037394Y026442D01*
X037407Y026494D01*
X037424Y026545D01*
X037445Y026595D01*
X037469Y026642D01*
X037496Y026688D01*
X037527Y026732D01*
X037560Y026774D01*
X037597Y026813D01*
X037636Y026850D01*
X037678Y026883D01*
X037722Y026914D01*
X037768Y026941D01*
X037815Y026965D01*
X037865Y026986D01*
X037916Y027003D01*
X037968Y027016D01*
X038020Y027025D01*
X038073Y027031D01*
X038127Y027033D01*
X040377Y027033D01*
X040431Y027031D01*
X040484Y027025D01*
X040536Y027016D01*
X040588Y027003D01*
X040639Y026986D01*
X040689Y026965D01*
X040736Y026941D01*
X040782Y026914D01*
X040826Y026883D01*
X040868Y026850D01*
X040907Y026813D01*
X040944Y026774D01*
X040977Y026732D01*
X041008Y026688D01*
X041035Y026642D01*
X041059Y026595D01*
X041080Y026545D01*
X041097Y026494D01*
X041110Y026442D01*
X041119Y026390D01*
X041125Y026337D01*
X041127Y026283D01*
X041127Y024533D01*
X041129Y024489D01*
X041135Y024446D01*
X041144Y024404D01*
X041157Y024362D01*
X041174Y024322D01*
X041194Y024283D01*
X041217Y024246D01*
X041244Y024212D01*
X041273Y024179D01*
X041306Y024150D01*
X041340Y024123D01*
X041377Y024100D01*
X041416Y024080D01*
X041456Y024063D01*
X041498Y024050D01*
X041540Y024041D01*
X041583Y024035D01*
X041627Y024033D01*
X042527Y024033D01*
X042564Y024031D01*
X042600Y024025D01*
X042635Y024016D01*
X042669Y024003D01*
X042702Y023986D01*
X042733Y023966D01*
X042761Y023943D01*
X042787Y023917D01*
X042810Y023889D01*
X042830Y023858D01*
X042847Y023825D01*
X042860Y023791D01*
X042869Y023756D01*
X042875Y023720D01*
X042877Y023683D01*
X038777Y024533D02*
X032627Y024533D01*
X032575Y024527D01*
X032525Y024516D01*
X032475Y024502D01*
X032427Y024484D01*
X032380Y024463D01*
X032335Y024438D01*
X032291Y024410D01*
X032250Y024379D01*
X032212Y024344D01*
X032176Y024307D01*
X032143Y024268D01*
X032113Y024226D01*
X032086Y024181D01*
X032063Y024135D01*
X032043Y024088D01*
X032027Y024039D01*
X032014Y023989D01*
X032005Y023938D01*
X032000Y023887D01*
X031999Y023835D01*
X032002Y023784D01*
X032005Y023743D01*
X032006Y023702D01*
X032002Y023661D01*
X031995Y023621D01*
X031984Y023582D01*
X031969Y023544D01*
X031951Y023507D01*
X031929Y023472D01*
X031905Y023440D01*
X031878Y023409D01*
X031847Y023382D01*
X031815Y023357D01*
X031780Y023336D01*
X031744Y023317D01*
X031706Y023302D01*
X031667Y023291D01*
X031627Y023283D01*
X026877Y023283D01*
X026847Y023281D01*
X026817Y023276D01*
X026788Y023267D01*
X026761Y023254D01*
X026735Y023239D01*
X026711Y023220D01*
X026690Y023199D01*
X026671Y023175D01*
X026656Y023149D01*
X026643Y023122D01*
X026634Y023093D01*
X026629Y023063D01*
X026627Y023033D01*
X026625Y023003D01*
X026620Y022973D01*
X026611Y022944D01*
X026598Y022917D01*
X026583Y022891D01*
X026564Y022867D01*
X026543Y022846D01*
X026519Y022827D01*
X026493Y022812D01*
X026466Y022799D01*
X026437Y022790D01*
X026407Y022785D01*
X026377Y022783D01*
X020377Y022783D01*
X020377Y020783D01*
X020375Y020753D01*
X020370Y020723D01*
X020361Y020694D01*
X020348Y020667D01*
X020333Y020641D01*
X020314Y020617D01*
X020293Y020596D01*
X020269Y020577D01*
X020243Y020562D01*
X020216Y020549D01*
X020187Y020540D01*
X020157Y020535D01*
X020127Y020533D01*
X020097Y020531D01*
X020067Y020526D01*
X020038Y020517D01*
X020011Y020504D01*
X019985Y020489D01*
X019961Y020470D01*
X019940Y020449D01*
X019921Y020425D01*
X019906Y020399D01*
X019893Y020372D01*
X019884Y020343D01*
X019879Y020313D01*
X019877Y020283D01*
X019877Y018783D01*
X021877Y018783D02*
X021877Y020408D01*
X022752Y020533D02*
X022752Y018908D01*
X022754Y018888D01*
X022758Y018869D01*
X022766Y018851D01*
X022776Y018835D01*
X022789Y018820D01*
X022804Y018807D01*
X022820Y018797D01*
X022838Y018789D01*
X022857Y018785D01*
X022877Y018783D01*
X020377Y022783D02*
X018127Y022783D01*
X018067Y022781D01*
X018006Y022776D01*
X017947Y022767D01*
X017888Y022754D01*
X017829Y022738D01*
X017772Y022718D01*
X017717Y022695D01*
X017662Y022668D01*
X017610Y022639D01*
X017559Y022606D01*
X017510Y022570D01*
X017464Y022532D01*
X017420Y022490D01*
X017378Y022446D01*
X017340Y022400D01*
X017304Y022351D01*
X017271Y022300D01*
X017242Y022248D01*
X017215Y022193D01*
X017192Y022138D01*
X017172Y022081D01*
X017156Y022022D01*
X017143Y021963D01*
X017134Y021904D01*
X017129Y021843D01*
X017127Y021783D01*
X017127Y020533D01*
X017125Y020503D01*
X017120Y020473D01*
X017111Y020444D01*
X017098Y020417D01*
X017083Y020391D01*
X017064Y020367D01*
X017043Y020346D01*
X017019Y020327D01*
X016993Y020312D01*
X016966Y020299D01*
X016937Y020290D01*
X016907Y020285D01*
X016877Y020283D01*
X016877Y018783D01*
X015877Y018783D02*
X015877Y020283D01*
X015879Y020313D01*
X015884Y020343D01*
X015893Y020372D01*
X015906Y020399D01*
X015921Y020425D01*
X015940Y020449D01*
X015961Y020470D01*
X015985Y020489D01*
X016011Y020504D01*
X016038Y020517D01*
X016067Y020526D01*
X016097Y020531D01*
X016127Y020533D01*
X016171Y020535D01*
X016214Y020541D01*
X016256Y020550D01*
X016298Y020563D01*
X016338Y020580D01*
X016377Y020600D01*
X016414Y020623D01*
X016448Y020650D01*
X016481Y020679D01*
X016510Y020712D01*
X016537Y020746D01*
X016560Y020783D01*
X016580Y020822D01*
X016597Y020862D01*
X016610Y020904D01*
X016619Y020946D01*
X016625Y020989D01*
X016627Y021033D01*
X016627Y023033D01*
X016629Y023077D01*
X016635Y023120D01*
X016644Y023162D01*
X016657Y023204D01*
X016674Y023244D01*
X016694Y023283D01*
X016717Y023320D01*
X016744Y023354D01*
X016773Y023387D01*
X016806Y023416D01*
X016840Y023443D01*
X016877Y023466D01*
X016916Y023486D01*
X016956Y023503D01*
X016998Y023516D01*
X017040Y023525D01*
X017083Y023531D01*
X017127Y023533D01*
X017377Y024033D02*
X017377Y024283D01*
X017379Y024327D01*
X017385Y024370D01*
X017394Y024412D01*
X017407Y024454D01*
X017424Y024494D01*
X017444Y024533D01*
X017467Y024570D01*
X017494Y024604D01*
X017523Y024637D01*
X017556Y024666D01*
X017590Y024693D01*
X017627Y024716D01*
X017666Y024736D01*
X017706Y024753D01*
X017748Y024766D01*
X017790Y024775D01*
X017833Y024781D01*
X017877Y024783D01*
X017377Y024033D02*
X017375Y023985D01*
X017370Y023937D01*
X017360Y023889D01*
X017347Y023843D01*
X017331Y023797D01*
X017311Y023753D01*
X017288Y023711D01*
X017261Y023671D01*
X017232Y023633D01*
X017199Y023597D01*
X017164Y023563D01*
X017127Y023533D01*
X014877Y021033D02*
X014877Y018783D01*
X013877Y018783D02*
X013877Y021033D01*
X014877Y021033D01*
X019377Y027783D02*
X019377Y028783D01*
X019379Y028827D01*
X019385Y028870D01*
X019394Y028912D01*
X019407Y028954D01*
X019424Y028994D01*
X019444Y029033D01*
X019467Y029070D01*
X019494Y029104D01*
X019523Y029137D01*
X019556Y029166D01*
X019590Y029193D01*
X019627Y029216D01*
X019666Y029236D01*
X019706Y029253D01*
X019748Y029266D01*
X019790Y029275D01*
X019833Y029281D01*
X019877Y029283D01*
X018127Y029283D02*
X017877Y029283D01*
X014877Y029283D02*
X014809Y029285D01*
X014742Y029290D01*
X014675Y029299D01*
X014608Y029312D01*
X014543Y029329D01*
X014478Y029348D01*
X014414Y029372D01*
X014352Y029399D01*
X014291Y029429D01*
X014233Y029462D01*
X014176Y029498D01*
X014121Y029538D01*
X014068Y029580D01*
X014017Y029626D01*
X013970Y029673D01*
X013924Y029724D01*
X013882Y029777D01*
X013842Y029832D01*
X013806Y029889D01*
X013773Y029947D01*
X013743Y030008D01*
X013716Y030070D01*
X013692Y030134D01*
X013673Y030199D01*
X013656Y030264D01*
X013643Y030331D01*
X013634Y030398D01*
X013629Y030465D01*
X013627Y030533D01*
X013627Y035033D01*
X013629Y035087D01*
X013635Y035140D01*
X013644Y035192D01*
X013657Y035244D01*
X013674Y035295D01*
X013695Y035345D01*
X013719Y035392D01*
X013746Y035438D01*
X013777Y035482D01*
X013810Y035524D01*
X013847Y035563D01*
X013886Y035600D01*
X013928Y035633D01*
X013972Y035664D01*
X014018Y035691D01*
X014065Y035715D01*
X014115Y035736D01*
X014166Y035753D01*
X014218Y035766D01*
X014270Y035775D01*
X014323Y035781D01*
X014377Y035783D01*
X014377Y036783D01*
X020377Y040158D02*
X020377Y045158D01*
X020376Y045159D02*
X020393Y045202D01*
X020413Y045244D01*
X020436Y045285D01*
X020462Y045323D01*
X020491Y045360D01*
X020523Y045393D01*
X020557Y045425D01*
X020594Y045453D01*
X020633Y045479D01*
X020674Y045501D01*
X020716Y045521D01*
X020760Y045536D01*
X020805Y045549D01*
X020851Y045557D01*
X020897Y045563D01*
X020944Y045564D01*
X020990Y045562D01*
X021036Y045556D01*
X021082Y045547D01*
X021127Y045534D01*
X021127Y045533D02*
X029877Y045533D01*
X029914Y045535D01*
X029950Y045540D01*
X029986Y045549D01*
X030021Y045562D01*
X030054Y045577D01*
X030085Y045596D01*
X030115Y045618D01*
X030142Y045643D01*
X030167Y045670D01*
X030189Y045700D01*
X030208Y045731D01*
X030223Y045764D01*
X030236Y045799D01*
X030245Y045835D01*
X030250Y045871D01*
X030252Y045908D01*
X030251Y045909D02*
X030259Y045949D01*
X030270Y045988D01*
X030285Y046026D01*
X030304Y046062D01*
X030325Y046097D01*
X030350Y046129D01*
X030377Y046160D01*
X030408Y046187D01*
X030440Y046211D01*
X030475Y046233D01*
X030512Y046251D01*
X030550Y046266D01*
X030589Y046277D01*
X030629Y046284D01*
X030670Y046288D01*
X030711Y046287D01*
X030752Y046284D01*
X030752Y046283D02*
X032377Y046283D01*
X032877Y045783D02*
X032921Y045785D01*
X032964Y045791D01*
X033006Y045800D01*
X033048Y045813D01*
X033088Y045830D01*
X033127Y045850D01*
X033164Y045873D01*
X033198Y045900D01*
X033231Y045929D01*
X033260Y045962D01*
X033287Y045996D01*
X033310Y046033D01*
X033330Y046072D01*
X033347Y046112D01*
X033360Y046154D01*
X033369Y046196D01*
X033375Y046239D01*
X033377Y046283D01*
X034377Y045283D02*
X034379Y045253D01*
X034384Y045223D01*
X034393Y045194D01*
X034406Y045167D01*
X034421Y045141D01*
X034440Y045117D01*
X034461Y045096D01*
X034485Y045077D01*
X034511Y045062D01*
X034538Y045049D01*
X034567Y045040D01*
X034597Y045035D01*
X034627Y045033D01*
X036127Y045033D01*
X036127Y043908D01*
X037252Y043908D02*
X038127Y043908D01*
X036377Y041783D02*
X036377Y041283D01*
X036375Y041253D01*
X036370Y041223D01*
X036361Y041194D01*
X036348Y041167D01*
X036333Y041141D01*
X036314Y041117D01*
X036293Y041096D01*
X036269Y041077D01*
X036243Y041062D01*
X036216Y041049D01*
X036187Y041040D01*
X036157Y041035D01*
X036127Y041033D01*
X035127Y041033D01*
X032877Y042783D02*
X032877Y044783D01*
X032879Y044827D01*
X032885Y044870D01*
X032894Y044912D01*
X032907Y044954D01*
X032924Y044994D01*
X032944Y045033D01*
X032967Y045070D01*
X032994Y045104D01*
X033023Y045137D01*
X033056Y045166D01*
X033090Y045193D01*
X033127Y045216D01*
X033166Y045236D01*
X033206Y045253D01*
X033248Y045266D01*
X033290Y045275D01*
X033333Y045281D01*
X033377Y045283D01*
X031377Y045783D02*
X031333Y045781D01*
X031290Y045775D01*
X031248Y045766D01*
X031206Y045753D01*
X031166Y045736D01*
X031127Y045716D01*
X031090Y045693D01*
X031056Y045666D01*
X031023Y045637D01*
X030994Y045604D01*
X030967Y045570D01*
X030944Y045533D01*
X030924Y045494D01*
X030907Y045454D01*
X030894Y045412D01*
X030885Y045370D01*
X030879Y045327D01*
X030877Y045283D01*
X030877Y042783D01*
X029877Y042784D02*
X029900Y042723D01*
X029919Y042662D01*
X029935Y042599D01*
X029947Y042536D01*
X029955Y042472D01*
X029959Y042408D01*
X029960Y042343D01*
X029956Y042279D01*
X029949Y042215D01*
X029938Y042151D01*
X029923Y042088D01*
X029905Y042026D01*
X029883Y041966D01*
X029857Y041907D01*
X029828Y041849D01*
X029796Y041793D01*
X029760Y041740D01*
X029721Y041688D01*
X029679Y041639D01*
X029634Y041593D01*
X029587Y041549D01*
X029537Y041508D01*
X029485Y041470D01*
X029430Y041436D01*
X029374Y041405D01*
X029316Y041377D01*
X029256Y041352D01*
X029195Y041332D01*
X029133Y041315D01*
X029069Y041301D01*
X029006Y041292D01*
X028941Y041286D01*
X028877Y041284D01*
X028877Y041283D02*
X028817Y041281D01*
X028756Y041276D01*
X028697Y041267D01*
X028638Y041254D01*
X028579Y041238D01*
X028522Y041218D01*
X028467Y041195D01*
X028412Y041168D01*
X028360Y041139D01*
X028309Y041106D01*
X028260Y041070D01*
X028214Y041032D01*
X028170Y040990D01*
X028128Y040946D01*
X028090Y040900D01*
X028054Y040851D01*
X028021Y040800D01*
X027992Y040748D01*
X027965Y040693D01*
X027942Y040638D01*
X027922Y040581D01*
X027906Y040522D01*
X027893Y040463D01*
X027884Y040404D01*
X027879Y040343D01*
X027877Y040283D01*
X027877Y039783D01*
X026877Y039783D02*
X026877Y040158D01*
X026875Y040207D01*
X026869Y040256D01*
X026860Y040304D01*
X026846Y040351D01*
X026829Y040397D01*
X026809Y040442D01*
X026785Y040485D01*
X026758Y040525D01*
X026727Y040564D01*
X026694Y040600D01*
X026658Y040633D01*
X026619Y040664D01*
X026579Y040691D01*
X026536Y040715D01*
X026491Y040735D01*
X026445Y040752D01*
X026398Y040766D01*
X026350Y040775D01*
X026301Y040781D01*
X026252Y040783D01*
X025502Y040783D01*
X025453Y040781D01*
X025404Y040775D01*
X025356Y040766D01*
X025309Y040752D01*
X025263Y040735D01*
X025218Y040715D01*
X025175Y040691D01*
X025135Y040664D01*
X025096Y040633D01*
X025060Y040600D01*
X025027Y040564D01*
X024996Y040525D01*
X024969Y040485D01*
X024945Y040442D01*
X024925Y040397D01*
X024908Y040351D01*
X024894Y040304D01*
X024885Y040256D01*
X024879Y040207D01*
X024877Y040158D01*
X024877Y039783D01*
X026877Y038283D02*
X026950Y038315D01*
X027021Y038351D01*
X027090Y038391D01*
X027157Y038433D01*
X027222Y038479D01*
X027285Y038528D01*
X027345Y038581D01*
X027403Y038636D01*
X027457Y038693D01*
X027509Y038754D01*
X027558Y038816D01*
X027604Y038882D01*
X027647Y038949D01*
X027686Y039018D01*
X027722Y039089D01*
X027754Y039162D01*
X027782Y039236D01*
X027807Y039312D01*
X027828Y039389D01*
X027846Y039467D01*
X027859Y039545D01*
X027869Y039624D01*
X027875Y039703D01*
X027877Y039783D01*
X026877Y038283D02*
X024377Y038283D01*
X024333Y038281D01*
X024290Y038275D01*
X024248Y038266D01*
X024206Y038253D01*
X024166Y038236D01*
X024127Y038216D01*
X024090Y038193D01*
X024056Y038166D01*
X024023Y038137D01*
X023994Y038104D01*
X023967Y038070D01*
X023944Y038033D01*
X023924Y037994D01*
X023907Y037954D01*
X023894Y037912D01*
X023885Y037870D01*
X023879Y037827D01*
X023877Y037783D01*
X023377Y038533D02*
X023333Y038531D01*
X023290Y038525D01*
X023248Y038516D01*
X023206Y038503D01*
X023166Y038486D01*
X023127Y038466D01*
X023090Y038443D01*
X023056Y038416D01*
X023023Y038387D01*
X022994Y038354D01*
X022967Y038320D01*
X022944Y038283D01*
X022924Y038244D01*
X022907Y038204D01*
X022894Y038162D01*
X022885Y038120D01*
X022879Y038077D01*
X022877Y038033D01*
X022877Y037533D01*
X022875Y037489D01*
X022869Y037446D01*
X022860Y037404D01*
X022847Y037362D01*
X022830Y037322D01*
X022810Y037283D01*
X022787Y037246D01*
X022760Y037212D01*
X022731Y037179D01*
X022698Y037150D01*
X022664Y037123D01*
X022627Y037100D01*
X022588Y037080D01*
X022548Y037063D01*
X022506Y037050D01*
X022464Y037041D01*
X022421Y037035D01*
X022377Y037033D01*
X021877Y037783D02*
X021877Y039783D01*
X020752Y039783D01*
X020715Y039785D01*
X020679Y039790D01*
X020643Y039799D01*
X020608Y039812D01*
X020575Y039827D01*
X020544Y039846D01*
X020514Y039868D01*
X020487Y039893D01*
X020462Y039920D01*
X020440Y039950D01*
X020421Y039981D01*
X020406Y040014D01*
X020393Y040049D01*
X020384Y040085D01*
X020379Y040121D01*
X020377Y040158D01*
X023377Y038533D02*
X023453Y038535D01*
X023528Y038541D01*
X023603Y038550D01*
X023678Y038563D01*
X023752Y038580D01*
X023824Y038600D01*
X023896Y038624D01*
X023967Y038652D01*
X024036Y038683D01*
X024103Y038717D01*
X024169Y038755D01*
X024232Y038795D01*
X024294Y038839D01*
X024353Y038886D01*
X024410Y038936D01*
X024465Y038989D01*
X024516Y039044D01*
X024565Y039102D01*
X024611Y039162D01*
X024654Y039224D01*
X024694Y039289D01*
X024730Y039355D01*
X024764Y039423D01*
X024793Y039493D01*
X024820Y039564D01*
X024842Y039636D01*
X024862Y039709D01*
X024877Y039783D01*
X029877Y034783D02*
X029964Y034781D01*
X030051Y034775D01*
X030138Y034766D01*
X030224Y034753D01*
X030310Y034736D01*
X030395Y034715D01*
X030478Y034690D01*
X030561Y034662D01*
X030642Y034631D01*
X030722Y034596D01*
X030800Y034557D01*
X030877Y034515D01*
X030952Y034470D01*
X031024Y034421D01*
X031095Y034370D01*
X031163Y034315D01*
X031228Y034258D01*
X031291Y034197D01*
X031352Y034134D01*
X031409Y034069D01*
X031464Y034001D01*
X031515Y033930D01*
X031564Y033858D01*
X031609Y033783D01*
X031651Y033706D01*
X031690Y033628D01*
X031725Y033548D01*
X031756Y033467D01*
X031784Y033384D01*
X031809Y033301D01*
X031830Y033216D01*
X031847Y033130D01*
X031860Y033044D01*
X031869Y032957D01*
X031875Y032870D01*
X031877Y032783D01*
X031877Y030783D02*
X033377Y030783D01*
X033421Y030781D01*
X033464Y030775D01*
X033506Y030766D01*
X033548Y030753D01*
X033588Y030736D01*
X033627Y030716D01*
X033664Y030693D01*
X033698Y030666D01*
X033731Y030637D01*
X033760Y030604D01*
X033787Y030570D01*
X033810Y030533D01*
X033830Y030494D01*
X033847Y030454D01*
X033860Y030412D01*
X033869Y030370D01*
X033875Y030327D01*
X033877Y030283D01*
X038777Y024533D02*
X038828Y024523D01*
X038879Y024508D01*
X038928Y024490D01*
X038976Y024469D01*
X039023Y024444D01*
X039067Y024416D01*
X039109Y024385D01*
X039149Y024351D01*
X039187Y024314D01*
X039221Y024274D01*
X039253Y024232D01*
X039282Y024188D01*
X039308Y024143D01*
X039330Y024095D01*
X039349Y024046D01*
X039364Y023996D01*
X039375Y023944D01*
X039383Y023892D01*
X039387Y023840D01*
X039388Y023787D01*
X039384Y023735D01*
X039377Y023683D01*
X042877Y031883D02*
X042945Y031885D01*
X043012Y031890D01*
X043079Y031899D01*
X043146Y031912D01*
X043211Y031929D01*
X043276Y031948D01*
X043340Y031972D01*
X043402Y031999D01*
X043463Y032029D01*
X043521Y032062D01*
X043578Y032098D01*
X043633Y032138D01*
X043686Y032180D01*
X043737Y032226D01*
X043784Y032273D01*
X043830Y032324D01*
X043872Y032377D01*
X043912Y032432D01*
X043948Y032489D01*
X043981Y032547D01*
X044011Y032608D01*
X044038Y032670D01*
X044062Y032734D01*
X044081Y032799D01*
X044098Y032864D01*
X044111Y032931D01*
X044120Y032998D01*
X044125Y033065D01*
X044127Y033133D01*
X044127Y036533D01*
X044125Y036587D01*
X044119Y036640D01*
X044110Y036692D01*
X044097Y036744D01*
X044080Y036795D01*
X044059Y036845D01*
X044035Y036892D01*
X044008Y036938D01*
X043977Y036982D01*
X043944Y037024D01*
X043907Y037063D01*
X043868Y037100D01*
X043826Y037133D01*
X043782Y037164D01*
X043736Y037191D01*
X043689Y037215D01*
X043639Y037236D01*
X043588Y037253D01*
X043536Y037266D01*
X043484Y037275D01*
X043431Y037281D01*
X043377Y037283D01*
X042877Y037283D01*
D27*
X042469Y036743D02*
X043284Y036743D01*
X043483Y036826D01*
X043542Y036885D01*
X043554Y036881D01*
X043652Y036809D01*
X043724Y036710D01*
X043762Y036594D01*
X043767Y036533D01*
X043767Y033133D01*
X043759Y033017D01*
X043699Y032793D01*
X043699Y032793D01*
X043586Y032598D01*
X043524Y032623D01*
X042229Y032623D01*
X041957Y032511D01*
X041749Y032303D01*
X041637Y032031D01*
X041637Y031736D01*
X041749Y031464D01*
X041957Y031256D01*
X042229Y031143D01*
X043524Y031143D01*
X043796Y031256D01*
X044004Y031464D01*
X044117Y031736D01*
X044117Y032031D01*
X044097Y032077D01*
X044165Y032145D01*
X044377Y032512D01*
X044487Y032921D01*
X044487Y036709D01*
X044378Y037044D01*
X044171Y037328D01*
X043887Y037535D01*
X043887Y037535D01*
X043594Y037630D01*
X043483Y037741D01*
X043284Y037823D01*
X042469Y037823D01*
X042271Y037741D01*
X042119Y037589D01*
X042037Y037391D01*
X042037Y037176D01*
X042119Y036977D01*
X042271Y036826D01*
X042469Y036743D01*
X042443Y036754D02*
X041404Y036754D01*
X041354Y036908D02*
X041487Y036499D01*
X041487Y033396D01*
X041381Y032932D01*
X041381Y032932D01*
X041175Y032504D01*
X041175Y032504D01*
X040878Y032132D01*
X040878Y032132D01*
X040878Y032132D01*
X040617Y031923D01*
X040617Y031736D01*
X040504Y031464D01*
X040296Y031256D01*
X040024Y031143D01*
X038729Y031143D01*
X038457Y031256D01*
X038249Y031464D01*
X038137Y031736D01*
X038137Y032031D01*
X038238Y032276D01*
X037963Y032117D01*
X037963Y032117D01*
X037577Y032013D01*
X036107Y032013D01*
X036297Y031752D01*
X036347Y031598D01*
X036347Y031598D01*
X036389Y031496D01*
X036672Y031778D01*
X036877Y031778D01*
X036877Y031283D01*
X036877Y031283D01*
X037372Y031283D01*
X037372Y031078D01*
X037082Y030788D01*
X036877Y030788D01*
X036877Y031283D01*
X036877Y031283D01*
X037372Y031283D01*
X037372Y031488D01*
X037082Y031778D01*
X036877Y031778D01*
X036877Y031283D01*
X036877Y030788D01*
X036672Y030788D01*
X036397Y031063D01*
X036397Y029908D01*
X036512Y029908D01*
X036763Y029804D01*
X036955Y029612D01*
X037059Y029362D01*
X037059Y028205D01*
X036955Y027954D01*
X036763Y027762D01*
X036512Y027658D01*
X036241Y027658D01*
X035990Y027762D01*
X035798Y027954D01*
X035694Y028205D01*
X035694Y028263D01*
X034059Y028263D01*
X034059Y028205D01*
X033955Y027954D01*
X033763Y027762D01*
X033512Y027658D01*
X033241Y027658D01*
X032990Y027762D01*
X032798Y027954D01*
X032694Y028205D01*
X032694Y029362D01*
X032798Y029612D01*
X032990Y029804D01*
X033241Y029908D01*
X033512Y029908D01*
X033519Y029906D01*
X033357Y030068D01*
X033357Y030423D01*
X032653Y030423D01*
X032530Y030300D01*
X032320Y030213D01*
X031433Y030213D01*
X031224Y030300D01*
X031063Y030460D01*
X030977Y030670D01*
X030977Y030897D01*
X031063Y031106D01*
X031224Y031267D01*
X031264Y031283D01*
X031224Y031300D01*
X031063Y031460D01*
X030977Y031670D01*
X030977Y031897D01*
X031063Y032106D01*
X031224Y032267D01*
X031264Y032283D01*
X031224Y032300D01*
X031141Y032383D01*
X028905Y032383D01*
X028698Y032350D01*
X028277Y032206D01*
X027899Y031972D01*
X027581Y031659D01*
X027342Y031284D01*
X027192Y030865D01*
X027139Y030423D01*
X027148Y030226D01*
X027158Y030191D01*
X027154Y030156D01*
X027158Y030121D01*
X027145Y030078D01*
X027115Y029827D01*
X026924Y029288D01*
X026635Y028834D01*
X026645Y028843D01*
X026877Y028843D01*
X026877Y028283D01*
X026877Y028283D01*
X027437Y028283D01*
X027437Y028051D01*
X027109Y027723D01*
X026877Y027723D01*
X026877Y028283D01*
X026877Y028283D01*
X027437Y028283D01*
X027437Y028515D01*
X027109Y028843D01*
X026877Y028843D01*
X026877Y028283D01*
X026877Y027723D01*
X026645Y027723D01*
X026317Y028051D01*
X026317Y028283D01*
X026877Y028283D01*
X026877Y028283D01*
X026877Y028283D01*
X026317Y028283D01*
X026317Y028508D01*
X026210Y028402D01*
X025724Y028100D01*
X025724Y028100D01*
X025183Y027914D01*
X025183Y027914D01*
X025139Y027909D01*
X025030Y027800D01*
X024820Y027713D01*
X023933Y027713D01*
X023724Y027800D01*
X023563Y027960D01*
X023477Y028170D01*
X023477Y028397D01*
X023563Y028606D01*
X023724Y028767D01*
X023933Y028853D01*
X024820Y028853D01*
X025030Y028767D01*
X025065Y028731D01*
X025374Y028837D01*
X025705Y029043D01*
X025705Y029043D01*
X025981Y029317D01*
X026190Y029646D01*
X026321Y030013D01*
X026348Y030170D01*
X026321Y030429D01*
X026321Y030429D01*
X026325Y030458D01*
X026137Y030271D01*
X025706Y030022D01*
X025225Y029893D01*
X024728Y029893D01*
X024247Y030022D01*
X023816Y030271D01*
X023464Y030623D01*
X023215Y031054D01*
X023087Y031535D01*
X023087Y032032D01*
X023215Y032513D01*
X023464Y032944D01*
X023816Y033296D01*
X024247Y033545D01*
X024728Y033673D01*
X025225Y033673D01*
X025706Y033545D01*
X026137Y033296D01*
X026489Y032944D01*
X026738Y032513D01*
X026863Y032044D01*
X026946Y032174D01*
X026946Y032174D01*
X026946Y032174D01*
X027393Y032615D01*
X027393Y032615D01*
X027928Y032945D01*
X027928Y032945D01*
X028522Y033148D01*
X028522Y033148D01*
X028777Y033175D01*
X028797Y033183D01*
X028856Y033183D01*
X028914Y033189D01*
X028935Y033183D01*
X031141Y033183D01*
X031224Y033267D01*
X031415Y033346D01*
X031265Y033656D01*
X031036Y033943D01*
X030749Y034172D01*
X030418Y034331D01*
X030060Y034413D01*
X029877Y034423D01*
X027302Y034423D01*
X027191Y034313D01*
X026987Y034228D01*
X026766Y034228D01*
X026562Y034313D01*
X026452Y034423D01*
X025224Y034423D01*
X025084Y034283D01*
X024670Y034283D01*
X024377Y034576D01*
X024377Y034990D01*
X024670Y035283D01*
X025084Y035283D01*
X025224Y035143D01*
X026452Y035143D01*
X026562Y035254D01*
X026664Y035296D01*
X026382Y035578D01*
X026382Y035783D01*
X026877Y035783D01*
X026877Y035783D01*
X027372Y035783D01*
X027372Y035578D01*
X027089Y035296D01*
X027191Y035254D01*
X027302Y035143D01*
X030143Y035143D01*
X030661Y035025D01*
X030661Y035025D01*
X031140Y034794D01*
X031140Y034794D01*
X031556Y034463D01*
X031556Y034463D01*
X031556Y034463D01*
X031888Y034047D01*
X031888Y034047D01*
X032118Y033568D01*
X032118Y033568D01*
X032167Y033353D01*
X032320Y033353D01*
X032441Y033303D01*
X032980Y033303D01*
X033171Y033224D01*
X033318Y033078D01*
X033328Y033053D01*
X035984Y033053D01*
X035937Y033101D01*
X035937Y033283D01*
X036377Y033283D01*
X036377Y033283D01*
X036817Y033283D01*
X036817Y033101D01*
X036769Y033053D01*
X037377Y033053D01*
X037439Y033057D01*
X037560Y033090D01*
X037669Y033153D01*
X037757Y033241D01*
X037820Y033350D01*
X037853Y033471D01*
X037857Y033533D01*
X037857Y034483D01*
X037960Y034870D01*
X037960Y034870D01*
X038160Y035217D01*
X038160Y035217D01*
X038443Y035500D01*
X038443Y035500D01*
X038790Y035700D01*
X038790Y035700D01*
X039177Y035803D01*
X039421Y035803D01*
X039469Y035823D01*
X040284Y035823D01*
X040483Y035741D01*
X040634Y035589D01*
X040717Y035391D01*
X040717Y035176D01*
X040634Y034977D01*
X040483Y034826D01*
X040284Y034743D01*
X039469Y034743D01*
X039421Y034763D01*
X039377Y034763D01*
X039314Y034759D01*
X039193Y034727D01*
X039084Y034664D01*
X038996Y034576D01*
X038933Y034467D01*
X038901Y034346D01*
X038901Y034346D01*
X038897Y034283D01*
X038897Y033333D01*
X038793Y032947D01*
X038793Y032947D01*
X038593Y032600D01*
X038593Y032600D01*
X038593Y032600D01*
X038536Y032543D01*
X038729Y032623D01*
X040024Y032623D01*
X040222Y032541D01*
X040360Y032650D01*
X040554Y032894D01*
X040556Y032899D01*
X040483Y032826D01*
X040284Y032743D01*
X039469Y032743D01*
X039271Y032826D01*
X039119Y032977D01*
X039037Y033176D01*
X039037Y033391D01*
X039119Y033589D01*
X039271Y033741D01*
X039469Y033823D01*
X040284Y033823D01*
X040483Y033741D01*
X040634Y033589D01*
X040717Y033391D01*
X040717Y033297D01*
X040758Y033478D01*
X040767Y033633D01*
X040767Y036283D01*
X040759Y036383D01*
X040697Y036574D01*
X040579Y036736D01*
X040466Y036818D01*
X040284Y036743D01*
X039469Y036743D01*
X039271Y036826D01*
X039119Y036977D01*
X039037Y037176D01*
X039037Y037391D01*
X039119Y037589D01*
X039271Y037741D01*
X039469Y037823D01*
X040284Y037823D01*
X040483Y037741D01*
X040634Y037589D01*
X040654Y037542D01*
X040752Y037510D01*
X040752Y037510D01*
X041100Y037257D01*
X041100Y037257D01*
X041354Y036908D01*
X041350Y036913D02*
X042183Y036913D01*
X042080Y037071D02*
X041235Y037071D01*
X041120Y037230D02*
X042037Y037230D01*
X042037Y037388D02*
X040919Y037388D01*
X040652Y037547D02*
X042101Y037547D01*
X042235Y037705D02*
X040518Y037705D01*
X040554Y036754D02*
X040311Y036754D01*
X040681Y036596D02*
X036186Y036596D01*
X036059Y036723D02*
X035877Y036723D01*
X035877Y036283D01*
X035877Y036283D01*
X036317Y036283D01*
X036317Y036101D01*
X036059Y035843D01*
X035877Y035843D01*
X035877Y036283D01*
X035877Y036283D01*
X036317Y036283D01*
X036317Y036466D01*
X036059Y036723D01*
X035877Y036723D02*
X035877Y036283D01*
X035877Y035843D01*
X035694Y035843D01*
X035437Y036101D01*
X035437Y036283D01*
X035877Y036283D01*
X035877Y036283D01*
X035877Y036283D01*
X035437Y036283D01*
X035437Y036466D01*
X035694Y036723D01*
X035877Y036723D01*
X035877Y036596D02*
X035877Y036596D01*
X035877Y036437D02*
X035877Y036437D01*
X035877Y036279D02*
X035877Y036279D01*
X035877Y036120D02*
X035877Y036120D01*
X035877Y035962D02*
X035877Y035962D01*
X036177Y035962D02*
X036377Y035962D01*
X036377Y035990D02*
X036377Y035576D01*
X036670Y035283D01*
X036767Y035283D01*
X036767Y034600D01*
X036584Y034783D01*
X036170Y034783D01*
X036030Y034643D01*
X034877Y034643D01*
X034777Y034651D01*
X034586Y034713D01*
X034424Y034831D01*
X034313Y034984D01*
X034397Y035068D01*
X034397Y035499D01*
X034092Y035803D01*
X033854Y035803D01*
X034127Y036076D01*
X034127Y036490D01*
X033834Y036783D01*
X033420Y036783D01*
X033127Y036490D01*
X033127Y036076D01*
X033420Y035783D01*
X033641Y035783D01*
X033357Y035499D01*
X033357Y035068D01*
X033594Y034831D01*
X033650Y034658D01*
X033903Y034310D01*
X033903Y034310D01*
X034252Y034056D01*
X034661Y033923D01*
X036030Y033923D01*
X036170Y033783D01*
X036584Y033783D01*
X036627Y033826D01*
X036627Y033656D01*
X036559Y033723D01*
X036377Y033723D01*
X036377Y033283D01*
X036817Y033283D01*
X036817Y033386D01*
X036920Y033283D01*
X037334Y033283D01*
X037627Y033576D01*
X037627Y033990D01*
X037487Y034130D01*
X037487Y035655D01*
X037394Y035879D01*
X037377Y035896D01*
X037377Y035990D01*
X037084Y036283D01*
X036670Y036283D01*
X036377Y035990D01*
X036317Y036120D02*
X036507Y036120D01*
X036665Y036279D02*
X036317Y036279D01*
X036317Y036437D02*
X040741Y036437D01*
X040767Y036279D02*
X037088Y036279D01*
X037247Y036120D02*
X040767Y036120D01*
X040767Y035962D02*
X037377Y035962D01*
X037394Y035879D02*
X037394Y035879D01*
X037425Y035803D02*
X039421Y035803D01*
X038695Y035645D02*
X037487Y035645D01*
X037487Y035486D02*
X038430Y035486D01*
X038272Y035328D02*
X037487Y035328D01*
X037487Y035169D02*
X038133Y035169D01*
X038042Y035011D02*
X037487Y035011D01*
X037487Y034852D02*
X037956Y034852D01*
X037913Y034694D02*
X037487Y034694D01*
X037487Y034535D02*
X037871Y034535D01*
X037857Y034377D02*
X037487Y034377D01*
X037487Y034218D02*
X037857Y034218D01*
X037857Y034060D02*
X037557Y034060D01*
X037627Y033901D02*
X037857Y033901D01*
X037857Y033743D02*
X037627Y033743D01*
X037627Y033584D02*
X037857Y033584D01*
X037841Y033426D02*
X037476Y033426D01*
X037773Y033267D02*
X036817Y033267D01*
X036817Y033109D02*
X037593Y033109D01*
X038034Y032158D02*
X038189Y032158D01*
X038137Y031999D02*
X036117Y031999D01*
X036232Y031841D02*
X038137Y031841D01*
X038159Y031682D02*
X037178Y031682D01*
X037336Y031524D02*
X038225Y031524D01*
X038348Y031365D02*
X037372Y031365D01*
X037372Y031207D02*
X038576Y031207D01*
X038729Y030623D02*
X038457Y030511D01*
X038249Y030303D01*
X038137Y030031D01*
X038137Y029736D01*
X038249Y029464D01*
X038457Y029256D01*
X038729Y029143D01*
X040024Y029143D01*
X040296Y029256D01*
X040504Y029464D01*
X040617Y029736D01*
X040617Y030031D01*
X040504Y030303D01*
X040296Y030511D01*
X040024Y030623D01*
X038729Y030623D01*
X038608Y030573D02*
X036397Y030573D01*
X036397Y030731D02*
X046267Y030731D01*
X046267Y030573D02*
X043646Y030573D01*
X043524Y030623D02*
X042229Y030623D01*
X041957Y030511D01*
X041749Y030303D01*
X041637Y030031D01*
X041637Y029736D01*
X041749Y029464D01*
X041957Y029256D01*
X042229Y029143D01*
X043524Y029143D01*
X043796Y029256D01*
X044004Y029464D01*
X044117Y029736D01*
X044117Y030031D01*
X044004Y030303D01*
X043796Y030511D01*
X043524Y030623D01*
X043892Y030414D02*
X046267Y030414D01*
X046267Y030256D02*
X044023Y030256D01*
X044089Y030097D02*
X046267Y030097D01*
X046267Y029939D02*
X044117Y029939D01*
X044117Y029780D02*
X046267Y029780D01*
X046267Y029622D02*
X044069Y029622D01*
X044003Y029463D02*
X046267Y029463D01*
X046267Y029305D02*
X043845Y029305D01*
X043531Y029146D02*
X046267Y029146D01*
X046267Y028988D02*
X037059Y028988D01*
X037059Y029146D02*
X038722Y029146D01*
X038409Y029305D02*
X037059Y029305D01*
X037017Y029463D02*
X038250Y029463D01*
X038184Y029622D02*
X036946Y029622D01*
X036787Y029780D02*
X038137Y029780D01*
X038137Y029939D02*
X036397Y029939D01*
X036397Y030097D02*
X038164Y030097D01*
X038230Y030256D02*
X036397Y030256D01*
X036397Y030414D02*
X038361Y030414D01*
X037342Y031048D02*
X046267Y031048D01*
X046267Y030890D02*
X037183Y030890D01*
X036877Y030890D02*
X036877Y030890D01*
X036877Y031048D02*
X036877Y031048D01*
X036877Y031207D02*
X036877Y031207D01*
X036877Y031283D02*
X036877Y031283D01*
X036877Y031365D02*
X036877Y031365D01*
X036877Y031524D02*
X036877Y031524D01*
X036877Y031682D02*
X036877Y031682D01*
X036576Y031682D02*
X036320Y031682D01*
X036378Y031524D02*
X036417Y031524D01*
X036397Y031048D02*
X036412Y031048D01*
X036397Y030890D02*
X036570Y030890D01*
X035357Y030890D02*
X033986Y030890D01*
X034073Y030803D02*
X033864Y031012D01*
X033548Y031143D01*
X032653Y031143D01*
X032533Y031263D01*
X035322Y031263D01*
X035322Y031173D01*
X035357Y031088D01*
X035357Y029303D01*
X034059Y029303D01*
X034059Y029362D01*
X033955Y029612D01*
X033804Y029763D01*
X034092Y029763D01*
X034397Y030068D01*
X034397Y030499D01*
X034092Y030803D01*
X034073Y030803D01*
X034164Y030731D02*
X035357Y030731D01*
X035357Y030573D02*
X034323Y030573D01*
X034397Y030414D02*
X035357Y030414D01*
X035357Y030256D02*
X034397Y030256D01*
X034397Y030097D02*
X035357Y030097D01*
X035357Y029939D02*
X034268Y029939D01*
X034109Y029780D02*
X035357Y029780D01*
X035357Y029622D02*
X033946Y029622D01*
X034017Y029463D02*
X035357Y029463D01*
X035357Y029305D02*
X034059Y029305D01*
X033486Y029939D02*
X027129Y029939D01*
X027151Y030097D02*
X033357Y030097D01*
X033357Y030256D02*
X032423Y030256D01*
X032644Y030414D02*
X033357Y030414D01*
X032966Y029780D02*
X027099Y029780D01*
X027042Y029622D02*
X032807Y029622D01*
X032736Y029463D02*
X026986Y029463D01*
X026930Y029305D02*
X032694Y029305D01*
X032694Y029146D02*
X026834Y029146D01*
X026733Y028988D02*
X032694Y028988D01*
X032694Y028829D02*
X029878Y028829D01*
X029820Y028853D02*
X030030Y028767D01*
X030190Y028606D01*
X030277Y028397D01*
X030277Y028170D01*
X030190Y027960D01*
X030030Y027800D01*
X029820Y027713D01*
X028933Y027713D01*
X028724Y027800D01*
X028563Y027960D01*
X028477Y028170D01*
X028477Y028397D01*
X028563Y028606D01*
X028724Y028767D01*
X028933Y028853D01*
X029820Y028853D01*
X030125Y028671D02*
X032694Y028671D01*
X032694Y028512D02*
X030229Y028512D01*
X030277Y028354D02*
X030530Y028354D01*
X030645Y028468D02*
X030317Y028140D01*
X030317Y027908D01*
X030317Y027676D01*
X030645Y027348D01*
X030877Y027348D01*
X031109Y027348D01*
X031437Y027676D01*
X031437Y027908D01*
X030877Y027908D01*
X030877Y027908D01*
X030877Y027348D01*
X030877Y027908D01*
X030877Y027908D01*
X031437Y027908D01*
X031437Y028140D01*
X031109Y028468D01*
X030877Y028468D01*
X030877Y027908D01*
X030317Y027908D01*
X030877Y027908D01*
X030877Y027908D01*
X030877Y027908D01*
X030877Y028468D01*
X030645Y028468D01*
X030877Y028354D02*
X030877Y028354D01*
X030877Y028195D02*
X030877Y028195D01*
X030877Y028037D02*
X030877Y028037D01*
X030877Y027878D02*
X030877Y027878D01*
X030877Y027720D02*
X030877Y027720D01*
X030877Y027561D02*
X030877Y027561D01*
X030877Y027403D02*
X030877Y027403D01*
X031163Y027403D02*
X046267Y027403D01*
X046267Y027561D02*
X031322Y027561D01*
X031437Y027720D02*
X033092Y027720D01*
X032874Y027878D02*
X031437Y027878D01*
X031437Y028037D02*
X032764Y028037D01*
X032698Y028195D02*
X031382Y028195D01*
X031223Y028354D02*
X032694Y028354D01*
X033661Y027720D02*
X036092Y027720D01*
X035874Y027878D02*
X033879Y027878D01*
X033989Y028037D02*
X035764Y028037D01*
X035698Y028195D02*
X034055Y028195D01*
X036661Y027720D02*
X046267Y027720D01*
X046267Y027878D02*
X036879Y027878D01*
X036989Y028037D02*
X046267Y028037D01*
X046267Y028195D02*
X037055Y028195D01*
X037059Y028354D02*
X046267Y028354D01*
X046267Y028512D02*
X037059Y028512D01*
X037059Y028671D02*
X046267Y028671D01*
X046267Y028829D02*
X037059Y028829D01*
X037616Y027285D02*
X037332Y027078D01*
X037332Y027078D01*
X037125Y026794D01*
X037125Y026794D01*
X037017Y026459D01*
X037017Y026319D01*
X037016Y026319D01*
X037000Y026291D01*
X036975Y026272D01*
X036953Y026266D01*
X036948Y026268D01*
X036902Y026268D01*
X036857Y026275D01*
X036831Y026268D01*
X027652Y026268D01*
X027520Y026287D01*
X027520Y026287D01*
X027211Y026208D01*
X027211Y026208D01*
X026955Y026017D01*
X026793Y025742D01*
X026779Y025643D01*
X023246Y025643D01*
X023090Y025799D01*
X022927Y025799D01*
X022894Y025879D01*
X022722Y026050D01*
X022498Y026143D01*
X019377Y026143D01*
X019316Y026148D01*
X019200Y026186D01*
X019101Y026258D01*
X019029Y026356D01*
X018991Y026472D01*
X018987Y026533D01*
X018987Y027466D01*
X019093Y027359D01*
X019277Y027283D01*
X019476Y027283D01*
X019660Y027359D01*
X019801Y027500D01*
X019877Y027684D01*
X019877Y028403D01*
X019801Y028587D01*
X019737Y028650D01*
X019737Y028783D01*
X020084Y028783D01*
X020377Y029076D01*
X020377Y029490D01*
X020194Y029673D01*
X021798Y029673D01*
X022114Y029804D01*
X022356Y030046D01*
X022356Y030046D01*
X022356Y030046D01*
X022487Y030362D01*
X022487Y036673D01*
X022548Y036673D01*
X022864Y036804D01*
X022877Y036817D01*
X022877Y036576D01*
X023170Y036283D01*
X023584Y036283D01*
X023724Y036423D01*
X024530Y036423D01*
X024670Y036283D01*
X025084Y036283D01*
X025377Y036576D01*
X025377Y036990D01*
X025084Y037283D01*
X024670Y037283D01*
X024530Y037143D01*
X023724Y037143D01*
X023584Y037283D01*
X023204Y037283D01*
X023237Y037362D01*
X023237Y038033D01*
X023239Y038061D01*
X023260Y038111D01*
X023299Y038150D01*
X023349Y038171D01*
X023377Y038173D01*
X023560Y038173D01*
X023377Y037990D01*
X023377Y037576D01*
X023670Y037283D01*
X024084Y037283D01*
X024377Y037576D01*
X024377Y037923D01*
X026452Y037923D01*
X026562Y037813D01*
X026664Y037771D01*
X026382Y037488D01*
X026382Y037283D01*
X026382Y037078D01*
X026672Y036788D01*
X026877Y036788D01*
X027082Y036788D01*
X027372Y037078D01*
X027372Y037283D01*
X026877Y037283D01*
X026877Y037283D01*
X026877Y036788D01*
X026877Y037283D01*
X026877Y037283D01*
X027372Y037283D01*
X027372Y037488D01*
X027089Y037771D01*
X027191Y037813D01*
X027347Y037969D01*
X027432Y038173D01*
X027432Y038187D01*
X027611Y038318D01*
X027915Y038675D01*
X028123Y039084D01*
X028160Y039099D01*
X028301Y039240D01*
X028377Y039424D01*
X028377Y040143D01*
X028301Y040327D01*
X028244Y040383D01*
X028245Y040383D01*
X028306Y040574D01*
X028424Y040736D01*
X028586Y040854D01*
X028777Y040915D01*
X028877Y040923D01*
X029081Y040923D01*
X029473Y041036D01*
X029818Y041254D01*
X030090Y041558D01*
X030090Y041558D01*
X030266Y041926D01*
X030332Y042315D01*
X030377Y042424D01*
X030453Y042240D01*
X030593Y042099D01*
X030777Y042023D01*
X030976Y042023D01*
X031160Y042099D01*
X031301Y042240D01*
X031377Y042424D01*
X031453Y042240D01*
X031593Y042099D01*
X031777Y042023D01*
X031976Y042023D01*
X032160Y042099D01*
X032301Y042240D01*
X032377Y042424D01*
X032453Y042240D01*
X032593Y042099D01*
X032777Y042023D01*
X032976Y042023D01*
X033160Y042099D01*
X033301Y042240D01*
X033377Y042424D01*
X033453Y042240D01*
X033593Y042099D01*
X033777Y042023D01*
X033976Y042023D01*
X034160Y042099D01*
X034301Y042240D01*
X034377Y042424D01*
X034453Y042240D01*
X034593Y042099D01*
X034777Y042023D01*
X034976Y042023D01*
X035160Y042099D01*
X035301Y042240D01*
X035377Y042424D01*
X035377Y043143D01*
X035301Y043327D01*
X035160Y043467D01*
X034976Y043543D01*
X034777Y043543D01*
X034593Y043467D01*
X034453Y043327D01*
X034377Y043143D01*
X034377Y042424D01*
X034377Y043143D01*
X034301Y043327D01*
X034160Y043467D01*
X033976Y043543D01*
X033777Y043543D01*
X033593Y043467D01*
X033453Y043327D01*
X033377Y043143D01*
X033377Y042424D01*
X033377Y043143D01*
X033301Y043327D01*
X033237Y043390D01*
X033237Y044743D01*
X033600Y044743D01*
X033877Y045020D01*
X034153Y044743D01*
X034336Y044743D01*
X034505Y044673D01*
X035767Y044673D01*
X035767Y044255D01*
X035627Y044115D01*
X035627Y043701D01*
X035920Y043408D01*
X036334Y043408D01*
X036627Y043701D01*
X036627Y044115D01*
X036487Y044255D01*
X036487Y045105D01*
X036432Y045237D01*
X036331Y045339D01*
X036198Y045393D01*
X034917Y045393D01*
X034917Y045507D01*
X034623Y045801D01*
X034683Y045826D01*
X034834Y045977D01*
X034917Y046176D01*
X034917Y046391D01*
X034834Y046589D01*
X034683Y046741D01*
X034484Y046823D01*
X034269Y046823D01*
X034071Y046741D01*
X033919Y046589D01*
X033894Y046530D01*
X033600Y046823D01*
X033153Y046823D01*
X032877Y046547D01*
X032600Y046823D01*
X032153Y046823D01*
X031973Y046643D01*
X030777Y046643D01*
X030645Y046662D01*
X030645Y046662D01*
X030336Y046583D01*
X030336Y046583D01*
X030080Y046392D01*
X029918Y046117D01*
X029902Y046004D01*
X029892Y045980D01*
X029892Y045934D01*
X029886Y045897D01*
X029885Y045896D01*
X029880Y045894D01*
X029877Y045893D01*
X022194Y045893D01*
X022377Y046076D01*
X022377Y046490D01*
X022197Y046670D01*
X022197Y046672D01*
X022091Y046927D01*
X022055Y046963D01*
X022206Y046963D01*
X022224Y046958D01*
X022269Y046963D01*
X022315Y046963D01*
X022323Y046966D01*
X022326Y046967D01*
X022377Y046956D01*
X022377Y046576D01*
X022670Y046283D01*
X023084Y046283D01*
X023377Y046576D01*
X023377Y046990D01*
X023084Y047283D01*
X023000Y047283D01*
X022875Y047421D01*
X022875Y047421D01*
X022631Y047560D01*
X022631Y047560D01*
X022356Y047617D01*
X022356Y047617D01*
X022234Y047603D01*
X013238Y047603D01*
X012983Y047498D01*
X012787Y047302D01*
X012682Y047047D01*
X012682Y028489D01*
X012786Y028167D01*
X012986Y027892D01*
X013260Y027693D01*
X013582Y027588D01*
X014093Y027588D01*
X014288Y027393D01*
X014715Y027393D01*
X015017Y027695D01*
X015017Y028122D01*
X014715Y028424D01*
X014288Y028424D01*
X014093Y028228D01*
X013752Y028228D01*
X013684Y028234D01*
X013556Y028275D01*
X013448Y028354D01*
X014218Y028354D01*
X014502Y027908D02*
X013752Y027908D01*
X014119Y027561D02*
X011857Y027561D01*
X011857Y027403D02*
X014278Y027403D01*
X014725Y027403D02*
X016550Y027403D01*
X016593Y027359D02*
X016777Y027283D01*
X016976Y027283D01*
X017160Y027359D01*
X017301Y027500D01*
X017377Y027684D01*
X017377Y028403D01*
X017301Y028587D01*
X017237Y028650D01*
X017237Y028936D01*
X017377Y029076D01*
X017670Y028783D01*
X018084Y028783D01*
X018201Y028901D01*
X018204Y028900D01*
X018243Y028861D01*
X018264Y028811D01*
X018267Y028783D01*
X018267Y028507D01*
X018253Y028534D01*
X018212Y028590D01*
X018163Y028639D01*
X018107Y028680D01*
X018046Y028711D01*
X017980Y028732D01*
X017911Y028743D01*
X017877Y028743D01*
X017877Y027783D01*
X017877Y027343D01*
X017911Y027343D01*
X017980Y027354D01*
X018046Y027376D01*
X018107Y027407D01*
X018163Y027448D01*
X018212Y027497D01*
X018253Y027553D01*
X018267Y027580D01*
X018267Y026358D01*
X018375Y026023D01*
X018582Y025739D01*
X018582Y025739D01*
X018866Y025532D01*
X018866Y025532D01*
X019201Y025423D01*
X022267Y025423D01*
X022267Y025412D01*
X022360Y025188D01*
X022361Y025186D01*
X022361Y025070D01*
X022663Y024768D01*
X023090Y024768D01*
X023246Y024923D01*
X026998Y024923D01*
X027222Y025016D01*
X027222Y025016D01*
X027394Y025188D01*
X027487Y025412D01*
X027487Y025497D01*
X027487Y025498D01*
X027503Y025526D01*
X027529Y025545D01*
X027550Y025550D01*
X027555Y025548D01*
X027601Y025548D01*
X027647Y025542D01*
X027672Y025548D01*
X028881Y025548D01*
X028621Y025356D01*
X028621Y025356D01*
X028621Y025356D01*
X028450Y025071D01*
X028450Y025071D01*
X028401Y024742D01*
X028401Y024742D01*
X028432Y024619D01*
X028432Y024533D01*
X028428Y024498D01*
X028401Y024433D01*
X028352Y024384D01*
X028287Y024357D01*
X028252Y024353D01*
X028154Y024353D01*
X028377Y024576D01*
X028377Y024990D01*
X028084Y025283D01*
X027670Y025283D01*
X027377Y024990D01*
X027377Y024576D01*
X027600Y024353D01*
X024783Y024353D01*
X024751Y024360D01*
X024720Y024353D01*
X024688Y024353D01*
X024658Y024341D01*
X024564Y024322D01*
X024377Y024197D01*
X024377Y024490D01*
X024084Y024783D01*
X023670Y024783D01*
X023377Y024490D01*
X023377Y024076D01*
X023670Y023783D01*
X024084Y023783D01*
X024198Y023898D01*
X024165Y023728D01*
X024158Y023728D01*
X024127Y023735D01*
X024095Y023728D01*
X022786Y023728D01*
X022590Y023924D01*
X022163Y023924D01*
X021861Y023622D01*
X021861Y023195D01*
X021913Y023143D01*
X020305Y023143D01*
X018377Y023143D01*
X018377Y023490D01*
X018084Y023783D01*
X018024Y023783D01*
X018160Y023839D01*
X018301Y023980D01*
X018377Y024164D01*
X018377Y024883D01*
X018301Y025067D01*
X018160Y025207D01*
X017976Y025283D01*
X017777Y025283D01*
X017593Y025207D01*
X017453Y025067D01*
X017439Y025033D01*
X017390Y025012D01*
X017342Y024965D01*
X017301Y025067D01*
X017160Y025207D01*
X016976Y025283D01*
X016777Y025283D01*
X016593Y025207D01*
X016453Y025067D01*
X016437Y025028D01*
X016270Y024974D01*
X015932Y024728D01*
X015686Y024390D01*
X015557Y023992D01*
X015557Y023670D01*
X015377Y023490D01*
X015377Y023076D01*
X015670Y022783D01*
X016084Y022783D01*
X016267Y022966D01*
X016267Y021600D01*
X016084Y021783D01*
X015670Y021783D01*
X015377Y021490D01*
X015377Y021076D01*
X015670Y020783D01*
X015764Y020783D01*
X015610Y020629D01*
X015517Y020405D01*
X015517Y020293D01*
X015493Y020283D01*
X011857Y020283D01*
X011857Y047799D01*
X046267Y047799D01*
X046267Y020283D01*
X039397Y020283D01*
X039397Y020963D01*
X039274Y021301D01*
X039042Y021577D01*
X038731Y021757D01*
X038377Y021819D01*
X038377Y021819D01*
X038022Y021757D01*
X037711Y021577D01*
X037711Y021577D01*
X037700Y021563D01*
X037463Y021700D01*
X037077Y021803D01*
X036804Y021803D01*
X036955Y021954D01*
X037059Y022205D01*
X037059Y023362D01*
X036955Y023612D01*
X036763Y023804D01*
X036512Y023908D01*
X036241Y023908D01*
X035990Y023804D01*
X035798Y023612D01*
X035767Y023538D01*
X035767Y023747D01*
X035465Y024049D01*
X035420Y024049D01*
X035330Y024173D01*
X038320Y024173D01*
X038249Y024103D01*
X038137Y023831D01*
X038137Y023536D01*
X038249Y023264D01*
X038457Y023056D01*
X038729Y022943D01*
X040024Y022943D01*
X040296Y023056D01*
X040504Y023264D01*
X040617Y023536D01*
X040617Y023831D01*
X040504Y024103D01*
X040296Y024311D01*
X040024Y024423D01*
X039570Y024423D01*
X039558Y024448D01*
X039558Y024448D01*
X039316Y024697D01*
X039316Y024697D01*
X039009Y024859D01*
X038877Y024881D01*
X038848Y024893D01*
X038807Y024893D01*
X038767Y024900D01*
X038737Y024893D01*
X033841Y024893D01*
X034017Y025070D01*
X034017Y025497D01*
X033966Y025548D01*
X036851Y025548D01*
X036984Y025529D01*
X037293Y025609D01*
X037548Y025800D01*
X037710Y026075D01*
X037727Y026187D01*
X037737Y026212D01*
X037737Y026258D01*
X037743Y026303D01*
X037739Y026318D01*
X037741Y026344D01*
X037779Y026460D01*
X037851Y026559D01*
X037950Y026631D01*
X038066Y026669D01*
X038127Y026673D01*
X040377Y026673D01*
X040438Y026669D01*
X040554Y026631D01*
X040652Y026559D01*
X040724Y026460D01*
X040762Y026344D01*
X040767Y026283D01*
X040767Y024362D01*
X040898Y024046D01*
X041140Y023804D01*
X041456Y023673D01*
X041637Y023673D01*
X041637Y023536D01*
X041749Y023264D01*
X041957Y023056D01*
X042229Y022943D01*
X043524Y022943D01*
X043796Y023056D01*
X044004Y023264D01*
X044117Y023536D01*
X044117Y023831D01*
X044004Y024103D01*
X043796Y024311D01*
X043524Y024423D01*
X042229Y024423D01*
X042157Y024393D01*
X041627Y024393D01*
X041599Y024396D01*
X041549Y024417D01*
X041510Y024456D01*
X041489Y024506D01*
X041487Y024533D01*
X041487Y026459D01*
X041378Y026794D01*
X041171Y027078D01*
X040887Y027285D01*
X040552Y027393D01*
X037951Y027393D01*
X037616Y027285D01*
X037616Y027285D01*
X037561Y027244D02*
X018987Y027244D01*
X018987Y027086D02*
X021557Y027086D01*
X021437Y026966D02*
X021694Y027223D01*
X021877Y027223D01*
X021877Y026783D01*
X021877Y026783D01*
X022317Y026783D01*
X022317Y026601D01*
X022059Y026343D01*
X021877Y026343D01*
X021877Y026783D01*
X021877Y026783D01*
X022317Y026783D01*
X022317Y026966D01*
X022059Y027223D01*
X021877Y027223D01*
X021877Y026783D01*
X021877Y026343D01*
X021694Y026343D01*
X021437Y026601D01*
X021437Y026783D01*
X021877Y026783D01*
X021877Y026783D01*
X021877Y026783D01*
X021437Y026783D01*
X021437Y026966D01*
X021437Y026927D02*
X018987Y026927D01*
X018987Y026769D02*
X021437Y026769D01*
X021437Y026610D02*
X018987Y026610D01*
X018998Y026452D02*
X021586Y026452D01*
X021877Y026452D02*
X021877Y026452D01*
X021877Y026610D02*
X021877Y026610D01*
X021877Y026769D02*
X021877Y026769D01*
X021877Y026927D02*
X021877Y026927D01*
X021877Y027086D02*
X021877Y027086D01*
X022196Y027086D02*
X037343Y027086D01*
X037332Y027078D02*
X037332Y027078D01*
X037223Y026927D02*
X022317Y026927D01*
X022317Y026769D02*
X023655Y026769D01*
X023670Y026783D02*
X023377Y026490D01*
X023377Y026076D01*
X023670Y025783D01*
X024084Y025783D01*
X024377Y026076D01*
X024377Y026490D01*
X024084Y026783D01*
X023670Y026783D01*
X023497Y026610D02*
X022317Y026610D01*
X022167Y026452D02*
X023377Y026452D01*
X023377Y026293D02*
X019075Y026293D01*
X018524Y025818D02*
X011857Y025818D01*
X011857Y025976D02*
X018409Y025976D01*
X018375Y026023D02*
X018375Y026023D01*
X018339Y026135D02*
X011857Y026135D01*
X011857Y026293D02*
X018288Y026293D01*
X018267Y026452D02*
X011857Y026452D01*
X011857Y026610D02*
X018267Y026610D01*
X018267Y026769D02*
X011857Y026769D01*
X011857Y026927D02*
X018267Y026927D01*
X018267Y027086D02*
X011857Y027086D01*
X011857Y027244D02*
X018267Y027244D01*
X018267Y027403D02*
X018099Y027403D01*
X017877Y027403D02*
X017877Y027403D01*
X017877Y027343D02*
X017877Y027783D01*
X017877Y027783D01*
X017437Y027783D01*
X017437Y027749D01*
X017448Y027680D01*
X017469Y027614D01*
X017500Y027553D01*
X017541Y027497D01*
X017590Y027448D01*
X017646Y027407D01*
X017708Y027376D01*
X017774Y027354D01*
X017842Y027343D01*
X017877Y027343D01*
X017877Y027561D02*
X017877Y027561D01*
X017877Y027720D02*
X017877Y027720D01*
X017877Y027783D02*
X017877Y027783D01*
X017877Y027783D01*
X017437Y027783D01*
X017437Y028338D01*
X017448Y028406D01*
X017469Y028472D01*
X017500Y028534D01*
X017541Y028590D01*
X017590Y028639D01*
X017646Y028680D01*
X017708Y028711D01*
X017774Y028732D01*
X017842Y028743D01*
X017877Y028743D01*
X017877Y027783D01*
X017877Y027878D02*
X017877Y027878D01*
X017877Y028037D02*
X017877Y028037D01*
X017877Y028195D02*
X017877Y028195D01*
X017877Y028354D02*
X017877Y028354D01*
X017877Y028512D02*
X017877Y028512D01*
X017877Y028671D02*
X017877Y028671D01*
X018119Y028671D02*
X018267Y028671D01*
X018264Y028512D02*
X018267Y028512D01*
X018256Y028829D02*
X018130Y028829D01*
X017624Y028829D02*
X017237Y028829D01*
X017237Y028671D02*
X017634Y028671D01*
X017489Y028512D02*
X017331Y028512D01*
X017377Y028354D02*
X017439Y028354D01*
X017437Y028195D02*
X017377Y028195D01*
X017377Y028037D02*
X017437Y028037D01*
X017437Y027878D02*
X017377Y027878D01*
X017377Y027720D02*
X017441Y027720D01*
X017496Y027561D02*
X017326Y027561D01*
X017203Y027403D02*
X017654Y027403D01*
X018257Y027561D02*
X018267Y027561D01*
X018987Y027403D02*
X019050Y027403D01*
X019703Y027403D02*
X020154Y027403D01*
X020146Y027407D02*
X020208Y027376D01*
X020274Y027354D01*
X020342Y027343D01*
X020377Y027343D01*
X020411Y027343D01*
X020480Y027354D01*
X020546Y027376D01*
X020607Y027407D01*
X020663Y027448D01*
X020712Y027497D01*
X020753Y027553D01*
X020784Y027614D01*
X020806Y027680D01*
X020817Y027749D01*
X020817Y027783D01*
X020377Y027783D01*
X020377Y027783D01*
X020377Y027343D01*
X020377Y027783D01*
X020377Y027783D01*
X020817Y027783D01*
X020817Y028338D01*
X020806Y028406D01*
X020784Y028472D01*
X020753Y028534D01*
X020712Y028590D01*
X020663Y028639D01*
X020607Y028680D01*
X020546Y028711D01*
X020480Y028732D01*
X020411Y028743D01*
X020377Y028743D01*
X020377Y027783D01*
X019937Y027783D01*
X019937Y027749D01*
X019948Y027680D01*
X019969Y027614D01*
X020000Y027553D01*
X020041Y027497D01*
X020090Y027448D01*
X020146Y027407D01*
X019996Y027561D02*
X019826Y027561D01*
X019877Y027720D02*
X019941Y027720D01*
X019937Y027783D02*
X020377Y027783D01*
X020377Y027783D01*
X020377Y027783D01*
X020377Y028743D01*
X020342Y028743D01*
X020274Y028732D01*
X020208Y028711D01*
X020146Y028680D01*
X020090Y028639D01*
X020041Y028590D01*
X020000Y028534D01*
X019969Y028472D01*
X019948Y028406D01*
X019937Y028338D01*
X019937Y027783D01*
X019937Y027878D02*
X019877Y027878D01*
X019877Y028037D02*
X019937Y028037D01*
X019937Y028195D02*
X019877Y028195D01*
X019877Y028354D02*
X019939Y028354D01*
X019989Y028512D02*
X019831Y028512D01*
X019737Y028671D02*
X020134Y028671D01*
X020130Y028829D02*
X023875Y028829D01*
X023628Y028671D02*
X020619Y028671D01*
X020764Y028512D02*
X023525Y028512D01*
X023477Y028354D02*
X020814Y028354D01*
X020817Y028195D02*
X023477Y028195D01*
X023532Y028037D02*
X020817Y028037D01*
X020817Y027878D02*
X023646Y027878D01*
X023918Y027720D02*
X020812Y027720D01*
X020757Y027561D02*
X030432Y027561D01*
X030317Y027720D02*
X029836Y027720D01*
X030108Y027878D02*
X030317Y027878D01*
X030317Y028037D02*
X030222Y028037D01*
X030277Y028195D02*
X030372Y028195D01*
X030590Y027403D02*
X020599Y027403D01*
X020377Y027403D02*
X020377Y027403D01*
X020377Y027561D02*
X020377Y027561D01*
X020377Y027720D02*
X020377Y027720D01*
X020377Y027878D02*
X020377Y027878D01*
X020377Y028037D02*
X020377Y028037D01*
X020377Y028195D02*
X020377Y028195D01*
X020377Y028354D02*
X020377Y028354D01*
X020377Y028512D02*
X020377Y028512D01*
X020377Y028671D02*
X020377Y028671D01*
X020288Y028988D02*
X025616Y028988D01*
X025809Y029146D02*
X020377Y029146D01*
X020377Y029305D02*
X025969Y029305D01*
X026074Y029463D02*
X020377Y029463D01*
X020245Y029622D02*
X026175Y029622D01*
X026238Y029780D02*
X022056Y029780D01*
X022248Y029939D02*
X024558Y029939D01*
X024117Y030097D02*
X022377Y030097D01*
X022443Y030256D02*
X023842Y030256D01*
X023673Y030414D02*
X022487Y030414D01*
X022487Y030573D02*
X023514Y030573D01*
X023402Y030731D02*
X022487Y030731D01*
X022487Y030890D02*
X023310Y030890D01*
X023219Y031048D02*
X022487Y031048D01*
X022487Y031207D02*
X023174Y031207D01*
X023132Y031365D02*
X022487Y031365D01*
X022487Y031524D02*
X023090Y031524D01*
X023087Y031682D02*
X022487Y031682D01*
X022487Y031841D02*
X023087Y031841D01*
X023087Y031999D02*
X022487Y031999D01*
X022487Y032158D02*
X023120Y032158D01*
X023163Y032316D02*
X022487Y032316D01*
X022487Y032475D02*
X023205Y032475D01*
X023285Y032633D02*
X022487Y032633D01*
X022487Y032792D02*
X023377Y032792D01*
X023471Y032950D02*
X022487Y032950D01*
X022487Y033109D02*
X023629Y033109D01*
X023788Y033267D02*
X022487Y033267D01*
X022487Y033426D02*
X024042Y033426D01*
X024396Y033584D02*
X022487Y033584D01*
X022487Y033743D02*
X031196Y033743D01*
X031300Y033584D02*
X025558Y033584D01*
X025912Y033426D02*
X031376Y033426D01*
X031226Y033267D02*
X026166Y033267D01*
X026324Y033109D02*
X028407Y033109D01*
X027943Y032950D02*
X026483Y032950D01*
X026577Y032792D02*
X027680Y032792D01*
X027424Y032633D02*
X026668Y032633D01*
X026748Y032475D02*
X027251Y032475D01*
X027091Y032316D02*
X026791Y032316D01*
X026833Y032158D02*
X026936Y032158D01*
X027605Y031682D02*
X030977Y031682D01*
X030977Y031841D02*
X027766Y031841D01*
X027943Y031999D02*
X031019Y031999D01*
X031115Y032158D02*
X028200Y032158D01*
X028601Y032316D02*
X031208Y032316D01*
X031037Y031524D02*
X027495Y031524D01*
X027394Y031365D02*
X031159Y031365D01*
X031164Y031207D02*
X027314Y031207D01*
X027257Y031048D02*
X031039Y031048D01*
X030977Y030890D02*
X027201Y030890D01*
X027176Y030731D02*
X030977Y030731D01*
X031017Y030573D02*
X027157Y030573D01*
X027139Y030414D02*
X031110Y030414D01*
X031331Y030256D02*
X027147Y030256D01*
X026339Y030256D02*
X026111Y030256D01*
X026281Y030414D02*
X026323Y030414D01*
X026336Y030097D02*
X025836Y030097D01*
X025395Y029939D02*
X026294Y029939D01*
X026877Y028829D02*
X026877Y028829D01*
X026877Y028671D02*
X026877Y028671D01*
X026877Y028512D02*
X026877Y028512D01*
X026877Y028354D02*
X026877Y028354D01*
X026877Y028195D02*
X026877Y028195D01*
X026877Y028037D02*
X026877Y028037D01*
X026877Y027878D02*
X026877Y027878D01*
X027264Y027878D02*
X028646Y027878D01*
X028532Y028037D02*
X027422Y028037D01*
X027437Y028195D02*
X028477Y028195D01*
X028477Y028354D02*
X027437Y028354D01*
X027437Y028512D02*
X028525Y028512D01*
X028628Y028671D02*
X027281Y028671D01*
X027123Y028829D02*
X028875Y028829D01*
X028918Y027720D02*
X024836Y027720D01*
X025108Y027878D02*
X026490Y027878D01*
X026331Y028037D02*
X025540Y028037D01*
X025877Y028195D02*
X026317Y028195D01*
X026317Y028354D02*
X026132Y028354D01*
X025351Y028829D02*
X024878Y028829D01*
X024098Y026769D02*
X037117Y026769D01*
X037066Y026610D02*
X024257Y026610D01*
X024377Y026452D02*
X037017Y026452D01*
X037001Y026293D02*
X024377Y026293D01*
X024377Y026135D02*
X027113Y026135D01*
X026955Y026017D02*
X026955Y026017D01*
X026955Y026017D01*
X026932Y025976D02*
X024277Y025976D01*
X024118Y025818D02*
X026838Y025818D01*
X026793Y025742D02*
X026793Y025742D01*
X026781Y025659D02*
X023230Y025659D01*
X022919Y025818D02*
X023635Y025818D01*
X023477Y025976D02*
X022796Y025976D01*
X022722Y026050D02*
X022722Y026050D01*
X022518Y026135D02*
X023377Y026135D01*
X022894Y025879D02*
X022894Y025879D01*
X022296Y025342D02*
X011857Y025342D01*
X011857Y025184D02*
X016570Y025184D01*
X016428Y025025D02*
X011857Y025025D01*
X011857Y024867D02*
X016122Y024867D01*
X016270Y024974D02*
X016270Y024974D01*
X015932Y024728D02*
X015932Y024728D01*
X015932Y024728D01*
X015917Y024708D02*
X011857Y024708D01*
X011857Y024550D02*
X015802Y024550D01*
X015687Y024391D02*
X011857Y024391D01*
X011857Y024233D02*
X015635Y024233D01*
X015686Y024390D02*
X015686Y024390D01*
X015583Y024074D02*
X011857Y024074D01*
X011857Y023916D02*
X015557Y023916D01*
X015557Y023757D02*
X011857Y023757D01*
X011857Y023599D02*
X015485Y023599D01*
X015377Y023440D02*
X011857Y023440D01*
X011857Y023282D02*
X015377Y023282D01*
X015377Y023123D02*
X011857Y023123D01*
X011857Y022965D02*
X015488Y022965D01*
X015647Y022806D02*
X011857Y022806D01*
X011857Y022648D02*
X016267Y022648D01*
X016267Y022806D02*
X016107Y022806D01*
X016265Y022965D02*
X016267Y022965D01*
X016267Y022489D02*
X011857Y022489D01*
X011857Y022331D02*
X016267Y022331D01*
X016267Y022172D02*
X011857Y022172D01*
X011857Y022014D02*
X016267Y022014D01*
X016267Y021855D02*
X011857Y021855D01*
X011857Y021697D02*
X015583Y021697D01*
X015425Y021538D02*
X013289Y021538D01*
X013234Y021593D02*
X013002Y021593D01*
X013002Y021033D01*
X013002Y021033D01*
X013562Y021033D01*
X013562Y020801D01*
X013234Y020473D01*
X013002Y020473D01*
X013002Y021033D01*
X013002Y021033D01*
X013562Y021033D01*
X013562Y021265D01*
X013234Y021593D01*
X013002Y021593D02*
X013002Y021033D01*
X013002Y020473D01*
X012770Y020473D01*
X012442Y020801D01*
X012442Y021033D01*
X013002Y021033D01*
X013002Y021033D01*
X013002Y021033D01*
X012442Y021033D01*
X012442Y021265D01*
X012770Y021593D01*
X013002Y021593D01*
X013002Y021538D02*
X013002Y021538D01*
X013002Y021380D02*
X013002Y021380D01*
X013002Y021221D02*
X013002Y021221D01*
X013002Y021063D02*
X013002Y021063D01*
X013002Y020904D02*
X013002Y020904D01*
X013002Y020746D02*
X013002Y020746D01*
X013002Y020587D02*
X013002Y020587D01*
X013348Y020587D02*
X015592Y020587D01*
X015610Y020629D02*
X015610Y020629D01*
X015727Y020746D02*
X013506Y020746D01*
X013562Y020904D02*
X015549Y020904D01*
X015390Y021063D02*
X013562Y021063D01*
X013562Y021221D02*
X015377Y021221D01*
X015377Y021380D02*
X013447Y021380D01*
X012715Y021538D02*
X011857Y021538D01*
X011857Y021380D02*
X012556Y021380D01*
X012442Y021221D02*
X011857Y021221D01*
X011857Y021063D02*
X012442Y021063D01*
X012442Y020904D02*
X011857Y020904D01*
X011857Y020746D02*
X012497Y020746D01*
X012656Y020587D02*
X011857Y020587D01*
X011857Y020429D02*
X015527Y020429D01*
X016170Y021697D02*
X016267Y021697D01*
X016987Y022528D02*
X016987Y023033D01*
X016989Y023061D01*
X017010Y023111D01*
X017049Y023150D01*
X017099Y023171D01*
X017112Y023172D01*
X017147Y023167D01*
X017172Y023173D01*
X017198Y023173D01*
X017241Y023191D01*
X017285Y023202D01*
X017306Y023218D01*
X017331Y023228D01*
X017363Y023261D01*
X017377Y023271D01*
X017377Y023076D01*
X017467Y022985D01*
X017153Y022757D01*
X017153Y022757D01*
X017153Y022757D01*
X016987Y022528D01*
X016987Y022648D02*
X017074Y022648D01*
X016987Y022806D02*
X017221Y022806D01*
X017439Y022965D02*
X016987Y022965D01*
X017022Y023123D02*
X017377Y023123D01*
X017706Y023783D02*
X017709Y023792D01*
X017729Y023783D01*
X017706Y023783D01*
X018110Y023757D02*
X021997Y023757D01*
X021861Y023599D02*
X018268Y023599D01*
X018377Y023440D02*
X021861Y023440D01*
X021861Y023282D02*
X018377Y023282D01*
X018236Y023916D02*
X019017Y023916D01*
X018953Y023980D02*
X019093Y023839D01*
X019277Y023763D01*
X019476Y023763D01*
X019660Y023839D01*
X019801Y023980D01*
X019877Y024164D01*
X019953Y023980D01*
X020093Y023839D01*
X020277Y023763D01*
X020476Y023763D01*
X020660Y023839D01*
X020801Y023980D01*
X020877Y024164D01*
X020877Y024883D01*
X020801Y025067D01*
X020660Y025207D01*
X020476Y025283D01*
X020277Y025283D01*
X020093Y025207D01*
X019953Y025067D01*
X019877Y024883D01*
X019877Y024164D01*
X019877Y024883D01*
X019801Y025067D01*
X019660Y025207D01*
X019476Y025283D01*
X019277Y025283D01*
X019093Y025207D01*
X018953Y025067D01*
X018877Y024883D01*
X018877Y024164D01*
X018953Y023980D01*
X018914Y024074D02*
X018340Y024074D01*
X018377Y024233D02*
X018877Y024233D01*
X018877Y024391D02*
X018377Y024391D01*
X018377Y024550D02*
X018877Y024550D01*
X018877Y024708D02*
X018377Y024708D01*
X018377Y024867D02*
X018877Y024867D01*
X018936Y025025D02*
X018318Y025025D01*
X018183Y025184D02*
X019070Y025184D01*
X018962Y025501D02*
X011857Y025501D01*
X011857Y025659D02*
X018691Y025659D01*
X018582Y025739D02*
X018582Y025739D01*
X017570Y025184D02*
X017183Y025184D01*
X017318Y025025D02*
X017421Y025025D01*
X017390Y025012D02*
X017390Y025012D01*
X016377Y024238D02*
X016377Y024164D01*
X016453Y023980D01*
X016593Y023839D01*
X016709Y023791D01*
X016640Y023762D01*
X016398Y023520D01*
X016398Y023520D01*
X016377Y023470D01*
X016377Y023490D01*
X016197Y023670D01*
X016197Y023783D01*
X016205Y023890D01*
X016271Y024092D01*
X016377Y024238D01*
X016377Y024233D02*
X016373Y024233D01*
X016414Y024074D02*
X016265Y024074D01*
X016214Y023916D02*
X016517Y023916D01*
X016640Y023762D02*
X016640Y023762D01*
X016634Y023757D02*
X016197Y023757D01*
X016268Y023599D02*
X016476Y023599D01*
X015877Y023783D02*
X015879Y023843D01*
X015884Y023904D01*
X015893Y023963D01*
X015906Y024022D01*
X015922Y024081D01*
X015942Y024138D01*
X015965Y024193D01*
X015992Y024248D01*
X016021Y024300D01*
X016054Y024351D01*
X016090Y024400D01*
X016128Y024446D01*
X016170Y024490D01*
X016214Y024532D01*
X016260Y024570D01*
X016309Y024606D01*
X016360Y024639D01*
X016412Y024668D01*
X016467Y024695D01*
X016522Y024718D01*
X016579Y024738D01*
X016638Y024754D01*
X016697Y024767D01*
X016756Y024776D01*
X016817Y024781D01*
X016877Y024783D01*
X015877Y023783D02*
X015877Y023283D01*
X017556Y022074D02*
X017674Y022236D01*
X017836Y022354D01*
X018027Y022415D01*
X018127Y022423D01*
X020017Y022423D01*
X020017Y022060D01*
X019859Y022218D01*
X019627Y022218D01*
X019627Y021658D01*
X019627Y021098D01*
X019859Y021098D01*
X020017Y021256D01*
X020017Y020893D01*
X020005Y020893D01*
X019781Y020800D01*
X019610Y020629D01*
X019517Y020405D01*
X019517Y020293D01*
X019493Y020283D01*
X017433Y020283D01*
X017487Y020412D01*
X017487Y020966D01*
X017670Y020783D01*
X018084Y020783D01*
X018377Y021076D01*
X018377Y021490D01*
X018084Y021783D01*
X017670Y021783D01*
X017487Y021600D01*
X017487Y021783D01*
X017495Y021883D01*
X017556Y022074D01*
X017537Y022014D02*
X019190Y022014D01*
X019067Y021890D02*
X019067Y021658D01*
X019067Y021426D01*
X019395Y021098D01*
X019627Y021098D01*
X019627Y021658D01*
X019627Y021658D01*
X019067Y021658D01*
X019627Y021658D01*
X019627Y021658D01*
X019627Y021658D01*
X019627Y022218D01*
X019395Y022218D01*
X019067Y021890D01*
X019067Y021855D02*
X017492Y021855D01*
X017487Y021697D02*
X017583Y021697D01*
X017628Y022172D02*
X019349Y022172D01*
X019627Y022172D02*
X019627Y022172D01*
X019627Y022014D02*
X019627Y022014D01*
X019627Y021855D02*
X019627Y021855D01*
X019627Y021697D02*
X019627Y021697D01*
X019627Y021538D02*
X019627Y021538D01*
X019627Y021380D02*
X019627Y021380D01*
X019627Y021221D02*
X019627Y021221D01*
X019982Y021221D02*
X020017Y021221D01*
X020017Y021063D02*
X018363Y021063D01*
X018377Y021221D02*
X019272Y021221D01*
X019113Y021380D02*
X018377Y021380D01*
X018329Y021538D02*
X019067Y021538D01*
X019067Y021697D02*
X018170Y021697D01*
X017805Y022331D02*
X020017Y022331D01*
X020017Y022172D02*
X019905Y022172D01*
X020737Y022172D02*
X020891Y022172D01*
X020932Y022228D02*
X020737Y021960D01*
X020737Y022423D01*
X021200Y022423D01*
X020932Y022228D01*
X020932Y022228D01*
X020932Y022228D01*
X021073Y022331D02*
X020737Y022331D01*
X020737Y022014D02*
X020776Y022014D01*
X021271Y021592D02*
X021205Y021390D01*
X021197Y021283D01*
X021197Y020298D01*
X021224Y020298D01*
X021261Y020283D01*
X023493Y020283D01*
X023529Y020298D01*
X024224Y020298D01*
X024261Y020283D01*
X024493Y020283D01*
X024529Y020298D01*
X024557Y020298D01*
X024557Y020783D01*
X024553Y020831D01*
X024523Y020922D01*
X024467Y020999D01*
X024390Y021055D01*
X024299Y021085D01*
X024252Y021088D01*
X022786Y021088D01*
X022590Y020893D01*
X022163Y020893D01*
X021861Y021195D01*
X021861Y021622D01*
X022163Y021924D01*
X022590Y021924D01*
X022786Y021728D01*
X024401Y021728D01*
X024686Y021636D01*
X024686Y021636D01*
X024928Y021460D01*
X024928Y021460D01*
X024928Y021460D01*
X025104Y021218D01*
X025104Y021218D01*
X025197Y020933D01*
X025197Y020298D01*
X025224Y020298D01*
X025261Y020283D01*
X025493Y020283D01*
X025529Y020298D01*
X026224Y020298D01*
X026261Y020283D01*
X026493Y020283D01*
X026529Y020298D01*
X027224Y020298D01*
X027261Y020283D01*
X027493Y020283D01*
X027529Y020298D01*
X028224Y020298D01*
X028261Y020283D01*
X028493Y020283D01*
X028529Y020298D01*
X029224Y020298D01*
X029261Y020283D01*
X029493Y020283D01*
X029529Y020298D01*
X030224Y020298D01*
X030261Y020283D01*
X030493Y020283D01*
X030529Y020298D01*
X031224Y020298D01*
X031261Y020283D01*
X031493Y020283D01*
X031529Y020298D01*
X032224Y020298D01*
X032261Y020283D01*
X032493Y020283D01*
X032529Y020298D01*
X033224Y020298D01*
X033261Y020283D01*
X037357Y020283D01*
X037357Y020283D01*
X037353Y020346D01*
X037320Y020467D01*
X037257Y020576D01*
X037169Y020664D01*
X037060Y020727D01*
X036939Y020759D01*
X036877Y020763D01*
X036177Y020763D01*
X035790Y020867D01*
X035443Y021067D01*
X035443Y021067D01*
X035160Y021350D01*
X035160Y021350D01*
X034960Y021697D01*
X033605Y021697D01*
X033512Y021658D02*
X033763Y021762D01*
X033955Y021954D01*
X034059Y022205D01*
X034059Y022263D01*
X034857Y022263D01*
X034857Y022083D01*
X034960Y021697D01*
X034960Y021697D01*
X034918Y021855D02*
X033856Y021855D01*
X033980Y022014D02*
X034875Y022014D01*
X034857Y022172D02*
X034046Y022172D01*
X033512Y021658D02*
X033241Y021658D01*
X032990Y021762D01*
X032798Y021954D01*
X032694Y022205D01*
X032694Y022961D01*
X032580Y022609D01*
X032580Y022609D01*
X032357Y022303D01*
X032357Y022303D01*
X032357Y022303D01*
X032051Y022080D01*
X032051Y022080D01*
X031691Y021963D01*
X026739Y021963D01*
X026812Y021890D01*
X026812Y021658D01*
X026252Y021658D01*
X026252Y021658D01*
X026252Y021098D01*
X026484Y021098D01*
X026812Y021426D01*
X026812Y021658D01*
X026252Y021658D01*
X026252Y021658D01*
X026252Y021098D01*
X026020Y021098D01*
X025692Y021426D01*
X025692Y021658D01*
X026252Y021658D01*
X026252Y021658D01*
X025692Y021658D01*
X025692Y021890D01*
X025765Y021963D01*
X021877Y021963D01*
X021770Y021955D01*
X021568Y021889D01*
X021396Y021764D01*
X021271Y021592D01*
X021253Y021538D02*
X021861Y021538D01*
X021861Y021380D02*
X021204Y021380D01*
X021197Y021221D02*
X021861Y021221D01*
X020877Y021283D02*
X020879Y021343D01*
X020884Y021404D01*
X020893Y021463D01*
X020906Y021522D01*
X020922Y021581D01*
X020942Y021638D01*
X020965Y021693D01*
X020992Y021748D01*
X021021Y021800D01*
X021054Y021851D01*
X021090Y021900D01*
X021128Y021946D01*
X021170Y021990D01*
X021214Y022032D01*
X021260Y022070D01*
X021309Y022106D01*
X021360Y022139D01*
X021412Y022168D01*
X021467Y022195D01*
X021522Y022218D01*
X021579Y022238D01*
X021638Y022254D01*
X021697Y022267D01*
X021756Y022276D01*
X021817Y022281D01*
X021877Y022283D01*
X031502Y022283D01*
X031502Y022603D02*
X028377Y022603D01*
X028377Y022923D01*
X031581Y022923D01*
X031607Y022917D01*
X031652Y022923D01*
X031698Y022923D01*
X031723Y022933D01*
X031835Y022950D01*
X031835Y022950D01*
X032050Y023077D01*
X032050Y023072D01*
X031996Y022906D01*
X031894Y022766D01*
X031754Y022664D01*
X031588Y022610D01*
X031502Y022603D01*
X031704Y022648D02*
X028377Y022648D01*
X028377Y022806D02*
X031924Y022806D01*
X031861Y022965D02*
X032015Y022965D01*
X032377Y023158D02*
X032377Y023408D01*
X032697Y023408D02*
X032702Y023476D01*
X032744Y023604D01*
X032823Y023712D01*
X032931Y023791D01*
X033058Y023833D01*
X032990Y023804D01*
X032798Y023612D01*
X032697Y023368D01*
X032697Y023408D01*
X032699Y023440D02*
X032727Y023440D01*
X032742Y023599D02*
X032792Y023599D01*
X032884Y023757D02*
X032943Y023757D01*
X033127Y024158D02*
X033073Y024156D01*
X033020Y024150D01*
X032968Y024141D01*
X032916Y024128D01*
X032865Y024111D01*
X032815Y024090D01*
X032768Y024066D01*
X032722Y024039D01*
X032678Y024008D01*
X032636Y023975D01*
X032597Y023938D01*
X032560Y023899D01*
X032527Y023857D01*
X032496Y023813D01*
X032469Y023767D01*
X032445Y023720D01*
X032424Y023670D01*
X032407Y023619D01*
X032394Y023567D01*
X032385Y023515D01*
X032379Y023462D01*
X032377Y023408D01*
X032644Y022806D02*
X032694Y022806D01*
X032694Y022648D02*
X032592Y022648D01*
X032493Y022489D02*
X032694Y022489D01*
X032694Y022331D02*
X032378Y022331D01*
X032178Y022172D02*
X032708Y022172D01*
X032773Y022014D02*
X031846Y022014D01*
X032897Y021855D02*
X026812Y021855D01*
X026812Y021697D02*
X033148Y021697D01*
X034059Y023303D02*
X034059Y023362D01*
X033955Y023612D01*
X033763Y023804D01*
X033681Y023838D01*
X034627Y023838D01*
X034674Y023835D01*
X034765Y023805D01*
X034782Y023793D01*
X034736Y023747D01*
X034736Y023320D01*
X034753Y023303D01*
X034059Y023303D01*
X034027Y023440D02*
X034736Y023440D01*
X035252Y023533D02*
X035250Y023582D01*
X035244Y023631D01*
X035235Y023679D01*
X035221Y023726D01*
X035204Y023772D01*
X035184Y023817D01*
X035160Y023860D01*
X035133Y023900D01*
X035102Y023939D01*
X035069Y023975D01*
X035033Y024008D01*
X034994Y024039D01*
X034954Y024066D01*
X034911Y024090D01*
X034866Y024110D01*
X034820Y024127D01*
X034773Y024141D01*
X034725Y024150D01*
X034676Y024156D01*
X034627Y024158D01*
X033127Y024158D01*
X033163Y024893D02*
X032681Y024893D01*
X032665Y024898D01*
X032610Y024893D01*
X032555Y024893D01*
X032540Y024887D01*
X032428Y024877D01*
X032123Y024746D01*
X032123Y024746D01*
X031872Y024527D01*
X031872Y024527D01*
X031872Y024527D01*
X031702Y024241D01*
X031628Y023916D01*
X028794Y023916D01*
X028716Y023838D02*
X028947Y024069D01*
X029072Y024370D01*
X029072Y024635D01*
X029078Y024674D01*
X029072Y024698D01*
X029072Y024722D01*
X029060Y024750D01*
X029057Y024774D01*
X029068Y024849D01*
X029107Y024915D01*
X029168Y024960D01*
X029178Y024963D01*
X033093Y024963D01*
X033163Y024893D01*
X033502Y025283D02*
X029127Y025283D01*
X028817Y025501D02*
X027489Y025501D01*
X027458Y025342D02*
X028613Y025342D01*
X028518Y025184D02*
X028183Y025184D01*
X028342Y025025D02*
X028443Y025025D01*
X028420Y024867D02*
X028377Y024867D01*
X028377Y024708D02*
X028409Y024708D01*
X028432Y024550D02*
X028350Y024550D01*
X028752Y024533D02*
X028750Y024489D01*
X028744Y024446D01*
X028735Y024404D01*
X028722Y024362D01*
X028705Y024322D01*
X028685Y024283D01*
X028662Y024246D01*
X028635Y024212D01*
X028606Y024179D01*
X028573Y024150D01*
X028539Y024123D01*
X028502Y024100D01*
X028463Y024080D01*
X028423Y024063D01*
X028381Y024050D01*
X028339Y024041D01*
X028296Y024035D01*
X028252Y024033D01*
X024752Y024033D01*
X024751Y024034D02*
X024719Y024026D01*
X024688Y024014D01*
X024658Y023999D01*
X024630Y023981D01*
X024603Y023961D01*
X024580Y023937D01*
X024558Y023912D01*
X024540Y023884D01*
X024524Y023854D01*
X024512Y023823D01*
X024503Y023791D01*
X024497Y023758D01*
X024495Y023725D01*
X024496Y023691D01*
X024501Y023658D01*
X024502Y023658D02*
X024494Y023626D01*
X024482Y023595D01*
X024467Y023565D01*
X024449Y023537D01*
X024429Y023510D01*
X024405Y023487D01*
X024380Y023465D01*
X024352Y023447D01*
X024322Y023431D01*
X024291Y023419D01*
X024259Y023410D01*
X024226Y023404D01*
X024193Y023402D01*
X024159Y023403D01*
X024126Y023408D01*
X024127Y023408D02*
X022377Y023408D01*
X022757Y023757D02*
X024170Y023757D01*
X024377Y024233D02*
X024431Y024233D01*
X024564Y024322D02*
X024564Y024322D01*
X024377Y024391D02*
X027562Y024391D01*
X027403Y024550D02*
X024317Y024550D01*
X024159Y024708D02*
X027377Y024708D01*
X027377Y024867D02*
X023189Y024867D01*
X023436Y024550D02*
X022350Y024550D01*
X022377Y024576D02*
X022084Y024283D01*
X021670Y024283D01*
X021377Y024576D01*
X021377Y024990D01*
X021670Y025283D01*
X022084Y025283D01*
X022377Y024990D01*
X022377Y024576D01*
X022377Y024708D02*
X023595Y024708D01*
X023377Y024391D02*
X022192Y024391D01*
X022155Y023916D02*
X020736Y023916D01*
X020840Y024074D02*
X023379Y024074D01*
X023377Y024233D02*
X020877Y024233D01*
X020877Y024391D02*
X021562Y024391D01*
X021403Y024550D02*
X020877Y024550D01*
X020877Y024708D02*
X021377Y024708D01*
X021377Y024867D02*
X020877Y024867D01*
X020818Y025025D02*
X021412Y025025D01*
X021570Y025184D02*
X020683Y025184D01*
X020070Y025184D02*
X019683Y025184D01*
X019818Y025025D02*
X019936Y025025D01*
X019877Y024867D02*
X019877Y024867D01*
X019877Y024708D02*
X019877Y024708D01*
X019877Y024550D02*
X019877Y024550D01*
X019877Y024391D02*
X019877Y024391D01*
X019877Y024233D02*
X019877Y024233D01*
X019840Y024074D02*
X019914Y024074D01*
X020017Y023916D02*
X019736Y023916D01*
X021521Y021855D02*
X022095Y021855D01*
X021936Y021697D02*
X021347Y021697D01*
X020877Y021283D02*
X020877Y018783D01*
X020493Y020283D02*
X020489Y020283D01*
X020557Y020351D01*
X020557Y020298D01*
X020529Y020298D01*
X020493Y020283D01*
X021197Y020429D02*
X024557Y020429D01*
X024557Y020587D02*
X021197Y020587D01*
X021197Y020746D02*
X024557Y020746D01*
X024529Y020904D02*
X022602Y020904D01*
X022760Y021063D02*
X024366Y021063D01*
X024252Y021408D02*
X024301Y021406D01*
X024350Y021400D01*
X024398Y021391D01*
X024445Y021377D01*
X024491Y021360D01*
X024536Y021340D01*
X024579Y021316D01*
X024619Y021289D01*
X024658Y021258D01*
X024694Y021225D01*
X024727Y021189D01*
X024758Y021150D01*
X024785Y021110D01*
X024809Y021067D01*
X024829Y021022D01*
X024846Y020976D01*
X024860Y020929D01*
X024869Y020881D01*
X024875Y020832D01*
X024877Y020783D01*
X024877Y018783D01*
X025197Y020429D02*
X037330Y020429D01*
X037246Y020587D02*
X025197Y020587D01*
X025197Y020746D02*
X036989Y020746D01*
X037468Y021697D02*
X037919Y021697D01*
X038022Y021757D02*
X038022Y021757D01*
X037463Y021700D02*
X037463Y021700D01*
X036980Y022014D02*
X046267Y022014D01*
X046267Y022172D02*
X037046Y022172D01*
X037059Y022331D02*
X046267Y022331D01*
X046267Y022489D02*
X037059Y022489D01*
X037059Y022648D02*
X046267Y022648D01*
X046267Y022806D02*
X037059Y022806D01*
X037059Y022965D02*
X038678Y022965D01*
X038390Y023123D02*
X037059Y023123D01*
X037059Y023282D02*
X038242Y023282D01*
X038176Y023440D02*
X037027Y023440D01*
X036961Y023599D02*
X038137Y023599D01*
X038137Y023757D02*
X036810Y023757D01*
X035943Y023757D02*
X035757Y023757D01*
X035767Y023599D02*
X035792Y023599D01*
X035694Y023247D02*
X035694Y022893D01*
X035607Y023014D01*
X035522Y023075D01*
X035694Y023247D01*
X035694Y023123D02*
X035571Y023123D01*
X035607Y023014D02*
X035607Y023014D01*
X035607Y023014D01*
X035642Y022965D02*
X035694Y022965D01*
X035598Y023916D02*
X038172Y023916D01*
X038238Y024074D02*
X035402Y024074D01*
X034747Y023757D02*
X033810Y023757D01*
X033961Y023599D02*
X034736Y023599D01*
X033973Y025025D02*
X038531Y025025D01*
X038457Y025056D02*
X038729Y024943D01*
X040024Y024943D01*
X040296Y025056D01*
X040504Y025264D01*
X040617Y025536D01*
X040617Y025831D01*
X040504Y026103D01*
X040296Y026311D01*
X040024Y026423D01*
X038729Y026423D01*
X038457Y026311D01*
X038249Y026103D01*
X038137Y025831D01*
X038137Y025536D01*
X038249Y025264D01*
X038457Y025056D01*
X038330Y025184D02*
X034017Y025184D01*
X034017Y025342D02*
X038217Y025342D01*
X038151Y025501D02*
X034013Y025501D01*
X032428Y024877D02*
X032428Y024877D01*
X032405Y024867D02*
X029078Y024867D01*
X029072Y024708D02*
X032080Y024708D01*
X031899Y024550D02*
X029072Y024550D01*
X029072Y024391D02*
X031792Y024391D01*
X031702Y024241D02*
X031702Y024241D01*
X031700Y024233D02*
X029015Y024233D01*
X028949Y024074D02*
X031664Y024074D01*
X031628Y023916D02*
X031628Y023916D01*
X031638Y023813D01*
X031635Y023803D01*
X031644Y023742D01*
X031646Y023722D01*
X031646Y023716D01*
X031638Y023685D01*
X031619Y023660D01*
X031591Y023644D01*
X031591Y023643D01*
X026755Y023643D01*
X026531Y023550D01*
X026360Y023379D01*
X026267Y023155D01*
X026267Y023143D01*
X024474Y023143D01*
X024649Y023260D01*
X024791Y023471D01*
X024803Y023533D01*
X024803Y023534D01*
X024816Y023596D01*
X024828Y023658D01*
X024828Y023658D01*
X024828Y023659D01*
X024817Y023713D01*
X028315Y023713D01*
X028415Y023713D01*
X028716Y023838D01*
X028716Y023838D01*
X028521Y023757D02*
X031642Y023757D01*
X032377Y023158D02*
X032375Y023101D01*
X032370Y023044D01*
X032360Y022987D01*
X032347Y022932D01*
X032331Y022877D01*
X032310Y022823D01*
X032287Y022771D01*
X032260Y022721D01*
X032230Y022672D01*
X032196Y022625D01*
X032160Y022581D01*
X032121Y022539D01*
X032079Y022500D01*
X032035Y022464D01*
X031988Y022430D01*
X031940Y022400D01*
X031889Y022373D01*
X031837Y022350D01*
X031783Y022329D01*
X031728Y022313D01*
X031673Y022300D01*
X031616Y022290D01*
X031559Y022285D01*
X031502Y022283D01*
X028947Y024069D02*
X028947Y024069D01*
X028752Y024533D02*
X028752Y024658D01*
X028359Y024391D02*
X028192Y024391D01*
X027412Y025025D02*
X027231Y025025D01*
X027390Y025184D02*
X027570Y025184D01*
X027394Y025188D02*
X027394Y025188D01*
X027394Y025188D01*
X028752Y024658D02*
X028744Y024700D01*
X028739Y024742D01*
X028737Y024785D01*
X028739Y024827D01*
X028744Y024869D01*
X028753Y024911D01*
X028765Y024952D01*
X028781Y024991D01*
X028800Y025029D01*
X028822Y025066D01*
X028847Y025101D01*
X028874Y025133D01*
X028904Y025163D01*
X028937Y025190D01*
X028972Y025215D01*
X029008Y025237D01*
X029047Y025255D01*
X029086Y025271D01*
X029127Y025283D01*
X026648Y023599D02*
X024816Y023599D01*
X024791Y023471D02*
X024791Y023471D01*
X024770Y023440D02*
X026421Y023440D01*
X026360Y023379D02*
X026360Y023379D01*
X026319Y023282D02*
X024664Y023282D01*
X024649Y023260D02*
X024649Y023260D01*
X024649Y023260D01*
X023537Y023916D02*
X022598Y023916D01*
X022564Y024867D02*
X022377Y024867D01*
X022405Y025025D02*
X022342Y025025D01*
X022361Y025184D02*
X022183Y025184D01*
X022360Y025188D02*
X022360Y025188D01*
X022659Y021855D02*
X025692Y021855D01*
X025692Y021697D02*
X024498Y021697D01*
X024820Y021538D02*
X025692Y021538D01*
X025738Y021380D02*
X024986Y021380D01*
X025102Y021221D02*
X025897Y021221D01*
X026252Y021221D02*
X026252Y021221D01*
X026252Y021380D02*
X026252Y021380D01*
X026252Y021538D02*
X026252Y021538D01*
X026607Y021221D02*
X035289Y021221D01*
X035143Y021380D02*
X026765Y021380D01*
X026812Y021538D02*
X035052Y021538D01*
X035451Y021063D02*
X025154Y021063D01*
X025197Y020904D02*
X035725Y020904D01*
X036856Y021855D02*
X046267Y021855D01*
X046267Y021697D02*
X038834Y021697D01*
X038731Y021757D02*
X038731Y021757D01*
X039042Y021577D02*
X039042Y021577D01*
X039042Y021577D01*
X039075Y021538D02*
X044840Y021538D01*
X044895Y021593D02*
X044567Y021265D01*
X044567Y021033D01*
X044567Y020801D01*
X044895Y020473D01*
X045127Y020473D01*
X045359Y020473D01*
X045687Y020801D01*
X045687Y021033D01*
X045127Y021033D01*
X045127Y021033D01*
X045127Y020473D01*
X045127Y021033D01*
X045127Y021033D01*
X045687Y021033D01*
X045687Y021265D01*
X045359Y021593D01*
X045127Y021593D01*
X045127Y021033D01*
X044567Y021033D01*
X045127Y021033D01*
X045127Y021033D01*
X045127Y021033D01*
X045127Y021593D01*
X044895Y021593D01*
X045127Y021538D02*
X045127Y021538D01*
X045127Y021380D02*
X045127Y021380D01*
X045127Y021221D02*
X045127Y021221D01*
X045127Y021063D02*
X045127Y021063D01*
X045127Y020904D02*
X045127Y020904D01*
X045127Y020746D02*
X045127Y020746D01*
X045127Y020587D02*
X045127Y020587D01*
X045473Y020587D02*
X046267Y020587D01*
X046267Y020429D02*
X039397Y020429D01*
X039397Y020587D02*
X044781Y020587D01*
X044622Y020746D02*
X039397Y020746D01*
X039397Y020904D02*
X044567Y020904D01*
X044567Y021063D02*
X039360Y021063D01*
X039303Y021221D02*
X044567Y021221D01*
X044681Y021380D02*
X039208Y021380D01*
X039274Y021301D02*
X039274Y021301D01*
X040076Y022965D02*
X042178Y022965D01*
X041890Y023123D02*
X040363Y023123D01*
X040511Y023282D02*
X041742Y023282D01*
X041676Y023440D02*
X040577Y023440D01*
X040617Y023599D02*
X041637Y023599D01*
X041253Y023757D02*
X040617Y023757D01*
X040581Y023916D02*
X041028Y023916D01*
X041140Y023804D02*
X041140Y023804D01*
X040898Y024046D02*
X040898Y024046D01*
X040886Y024074D02*
X040516Y024074D01*
X040374Y024233D02*
X040820Y024233D01*
X040767Y024391D02*
X040101Y024391D01*
X040222Y025025D02*
X040767Y025025D01*
X040767Y024867D02*
X038961Y024867D01*
X039009Y024859D02*
X039009Y024859D01*
X039294Y024708D02*
X040767Y024708D01*
X040767Y024550D02*
X039459Y024550D01*
X040424Y025184D02*
X040767Y025184D01*
X040767Y025342D02*
X040536Y025342D01*
X040602Y025501D02*
X040767Y025501D01*
X040767Y025659D02*
X040617Y025659D01*
X040617Y025818D02*
X040767Y025818D01*
X040767Y025976D02*
X040556Y025976D01*
X040472Y026135D02*
X040767Y026135D01*
X040766Y026293D02*
X040313Y026293D01*
X040554Y026631D02*
X040554Y026631D01*
X040582Y026610D02*
X037921Y026610D01*
X037776Y026452D02*
X040727Y026452D01*
X041281Y026927D02*
X046267Y026927D01*
X046267Y026769D02*
X041386Y026769D01*
X041378Y026794D02*
X041378Y026794D01*
X041438Y026610D02*
X046267Y026610D01*
X046267Y026452D02*
X041487Y026452D01*
X041487Y026293D02*
X041940Y026293D01*
X041957Y026311D02*
X041749Y026103D01*
X041637Y025831D01*
X041637Y025536D01*
X041749Y025264D01*
X041957Y025056D01*
X042229Y024943D01*
X043524Y024943D01*
X043796Y025056D01*
X044004Y025264D01*
X044117Y025536D01*
X044117Y025831D01*
X044004Y026103D01*
X043796Y026311D01*
X043524Y026423D01*
X042229Y026423D01*
X041957Y026311D01*
X041782Y026135D02*
X041487Y026135D01*
X041487Y025976D02*
X041697Y025976D01*
X041637Y025818D02*
X041487Y025818D01*
X041487Y025659D02*
X041637Y025659D01*
X041651Y025501D02*
X041487Y025501D01*
X041487Y025342D02*
X041717Y025342D01*
X041830Y025184D02*
X041487Y025184D01*
X041487Y025025D02*
X042031Y025025D01*
X041487Y024867D02*
X046267Y024867D01*
X046267Y025025D02*
X043722Y025025D01*
X043924Y025184D02*
X046267Y025184D01*
X046267Y025342D02*
X044036Y025342D01*
X044102Y025501D02*
X046267Y025501D01*
X046267Y025659D02*
X044117Y025659D01*
X044117Y025818D02*
X046267Y025818D01*
X046267Y025976D02*
X044056Y025976D01*
X043972Y026135D02*
X046267Y026135D01*
X046267Y026293D02*
X043813Y026293D01*
X043601Y024391D02*
X046267Y024391D01*
X046267Y024233D02*
X043874Y024233D01*
X044016Y024074D02*
X046267Y024074D01*
X046267Y023916D02*
X044081Y023916D01*
X044117Y023757D02*
X046267Y023757D01*
X046267Y023599D02*
X044117Y023599D01*
X044077Y023440D02*
X046267Y023440D01*
X046267Y023282D02*
X044011Y023282D01*
X043863Y023123D02*
X046267Y023123D01*
X046267Y022965D02*
X043576Y022965D01*
X045414Y021538D02*
X046267Y021538D01*
X046267Y021380D02*
X045572Y021380D01*
X045687Y021221D02*
X046267Y021221D01*
X046267Y021063D02*
X045687Y021063D01*
X045687Y020904D02*
X046267Y020904D01*
X046267Y020746D02*
X045631Y020746D01*
X046267Y024550D02*
X041487Y024550D01*
X041487Y024708D02*
X046267Y024708D01*
X046267Y027086D02*
X041161Y027086D01*
X041171Y027078D02*
X041171Y027078D01*
X041171Y027078D01*
X040942Y027244D02*
X046267Y027244D01*
X046267Y031207D02*
X043677Y031207D01*
X043905Y031365D02*
X046267Y031365D01*
X046267Y031524D02*
X044029Y031524D01*
X044094Y031682D02*
X046267Y031682D01*
X046267Y031841D02*
X044117Y031841D01*
X044117Y031999D02*
X046267Y031999D01*
X046267Y032158D02*
X044173Y032158D01*
X044165Y032145D02*
X044165Y032145D01*
X044264Y032316D02*
X046267Y032316D01*
X046267Y032475D02*
X044356Y032475D01*
X044409Y032633D02*
X046267Y032633D01*
X046267Y032792D02*
X044452Y032792D01*
X044487Y032950D02*
X046267Y032950D01*
X046267Y033109D02*
X044487Y033109D01*
X044487Y033267D02*
X046267Y033267D01*
X046267Y033426D02*
X044487Y033426D01*
X044487Y033584D02*
X046267Y033584D01*
X046267Y033743D02*
X044487Y033743D01*
X044487Y033901D02*
X046267Y033901D01*
X046267Y034060D02*
X044487Y034060D01*
X044487Y034218D02*
X046267Y034218D01*
X046267Y034377D02*
X044487Y034377D01*
X044487Y034535D02*
X046267Y034535D01*
X046267Y034694D02*
X044487Y034694D01*
X044487Y034852D02*
X046267Y034852D01*
X046267Y035011D02*
X044487Y035011D01*
X044487Y035169D02*
X046267Y035169D01*
X046267Y035328D02*
X044487Y035328D01*
X044487Y035486D02*
X046267Y035486D01*
X046267Y035645D02*
X044487Y035645D01*
X044487Y035803D02*
X046267Y035803D01*
X046267Y035962D02*
X044487Y035962D01*
X044487Y036120D02*
X046267Y036120D01*
X046267Y036279D02*
X044487Y036279D01*
X044487Y036437D02*
X046267Y036437D01*
X046267Y036596D02*
X044487Y036596D01*
X044472Y036754D02*
X046267Y036754D01*
X046267Y036913D02*
X044420Y036913D01*
X044378Y037044D02*
X044378Y037044D01*
X044358Y037071D02*
X046267Y037071D01*
X046267Y037230D02*
X044243Y037230D01*
X044171Y037328D02*
X044171Y037328D01*
X044171Y037328D01*
X044088Y037388D02*
X046267Y037388D01*
X046267Y037547D02*
X043849Y037547D01*
X043518Y037705D02*
X046267Y037705D01*
X046267Y037864D02*
X037377Y037864D01*
X037377Y037990D02*
X037377Y037576D01*
X037084Y037283D01*
X036670Y037283D01*
X036377Y037576D01*
X036377Y037990D01*
X036670Y038283D01*
X037084Y038283D01*
X037377Y037990D01*
X037345Y038022D02*
X046267Y038022D01*
X046267Y038181D02*
X037186Y038181D01*
X037455Y038498D02*
X036369Y038498D01*
X036377Y038490D02*
X036084Y038783D01*
X035670Y038783D01*
X035530Y038643D01*
X035237Y038643D01*
X035237Y039176D01*
X035301Y039240D01*
X035377Y039424D01*
X035377Y040143D01*
X035301Y040327D01*
X035160Y040467D01*
X034976Y040543D01*
X034777Y040543D01*
X034593Y040467D01*
X034453Y040327D01*
X034377Y040143D01*
X034377Y039424D01*
X034453Y039240D01*
X034517Y039176D01*
X034517Y038630D01*
X034377Y038490D01*
X034377Y038076D01*
X034670Y037783D01*
X035084Y037783D01*
X035224Y037923D01*
X035530Y037923D01*
X035670Y037783D01*
X036084Y037783D01*
X036377Y038076D01*
X036377Y038490D01*
X036377Y038339D02*
X037614Y038339D01*
X037670Y038283D02*
X038084Y038283D01*
X038224Y038423D01*
X041622Y038423D01*
X042095Y038550D01*
X042519Y038795D01*
X042865Y039141D01*
X042865Y039141D01*
X043110Y039565D01*
X043110Y039565D01*
X043158Y039743D01*
X043284Y039743D01*
X043483Y039826D01*
X043634Y039977D01*
X043717Y040176D01*
X043717Y040391D01*
X043634Y040589D01*
X043483Y040741D01*
X043284Y040823D01*
X042469Y040823D01*
X042271Y040741D01*
X042119Y040589D01*
X042037Y040391D01*
X042037Y040176D01*
X042119Y039977D01*
X042271Y039826D01*
X042389Y039777D01*
X042281Y039589D01*
X042071Y039379D01*
X041813Y039230D01*
X041525Y039153D01*
X041377Y039143D01*
X038224Y039143D01*
X038084Y039283D01*
X037670Y039283D01*
X037627Y039240D01*
X037627Y039411D01*
X037694Y039343D01*
X037877Y039343D01*
X038059Y039343D01*
X038317Y039601D01*
X038317Y039783D01*
X037877Y039783D01*
X037877Y039783D01*
X037877Y039343D01*
X037877Y039783D01*
X037877Y039783D01*
X038317Y039783D01*
X038317Y039966D01*
X038059Y040223D01*
X037877Y040223D01*
X037877Y039783D01*
X037437Y039783D01*
X037437Y039680D01*
X037334Y039783D01*
X036920Y039783D01*
X036877Y039740D01*
X036877Y039990D01*
X036584Y040283D01*
X036170Y040283D01*
X035877Y039990D01*
X035877Y039576D01*
X036141Y039312D01*
X036148Y039296D01*
X036390Y039054D01*
X036706Y038923D01*
X036780Y038923D01*
X036920Y038783D01*
X037334Y038783D01*
X037377Y038826D01*
X037377Y038576D01*
X037670Y038283D01*
X038140Y038339D02*
X046267Y038339D01*
X046267Y038498D02*
X041900Y038498D01*
X042095Y038550D02*
X042095Y038550D01*
X042279Y038656D02*
X046267Y038656D01*
X046267Y038815D02*
X042539Y038815D01*
X042519Y038795D02*
X042519Y038795D01*
X042697Y038973D02*
X046267Y038973D01*
X046267Y039132D02*
X042856Y039132D01*
X042951Y039290D02*
X046267Y039290D01*
X046267Y039449D02*
X043043Y039449D01*
X043121Y039607D02*
X046267Y039607D01*
X046267Y039766D02*
X043338Y039766D01*
X043581Y039924D02*
X046267Y039924D01*
X046267Y040083D02*
X043678Y040083D01*
X043717Y040241D02*
X046267Y040241D01*
X046267Y040400D02*
X043713Y040400D01*
X043647Y040558D02*
X046267Y040558D01*
X046267Y040717D02*
X043507Y040717D01*
X042854Y041351D02*
X046267Y041351D01*
X046267Y041509D02*
X042989Y041509D01*
X042972Y041469D02*
X043057Y041673D01*
X043057Y041894D01*
X042972Y042098D01*
X042816Y042254D01*
X042612Y042338D01*
X042391Y042338D01*
X042187Y042254D01*
X042031Y042098D01*
X041989Y041996D01*
X041707Y042278D01*
X041502Y042278D01*
X041502Y041783D01*
X041947Y041783D01*
X041947Y041783D01*
X041502Y041783D01*
X041502Y041783D01*
X041502Y041288D01*
X041707Y041288D01*
X041989Y041571D01*
X042031Y041469D01*
X042187Y041313D01*
X042391Y041228D01*
X042612Y041228D01*
X042816Y041313D01*
X042972Y041469D01*
X043055Y041668D02*
X046267Y041668D01*
X046267Y041826D02*
X043057Y041826D01*
X043019Y041985D02*
X046267Y041985D01*
X046267Y042143D02*
X042927Y042143D01*
X042700Y042302D02*
X046267Y042302D01*
X046267Y042460D02*
X041201Y042460D01*
X041201Y042419D02*
X041201Y042648D01*
X041114Y042859D01*
X040952Y043020D01*
X040741Y043108D01*
X040561Y043108D01*
X040081Y043589D01*
X039948Y043643D01*
X038800Y043643D01*
X038534Y043976D01*
X038637Y044018D01*
X038767Y044148D01*
X038837Y044317D01*
X038837Y044500D01*
X038767Y044669D01*
X038737Y044699D01*
X038737Y045118D01*
X038767Y045148D01*
X038837Y045317D01*
X038837Y045500D01*
X038767Y045669D01*
X038637Y045798D01*
X038468Y045868D01*
X038285Y045868D01*
X038116Y045798D01*
X037987Y045669D01*
X037917Y045500D01*
X037917Y045317D01*
X037987Y045148D01*
X038017Y045118D01*
X038017Y044699D01*
X037987Y044669D01*
X037917Y044500D01*
X037917Y044317D01*
X037937Y044268D01*
X037599Y044268D01*
X037459Y044408D01*
X037045Y044408D01*
X036752Y044115D01*
X036752Y043701D01*
X037045Y043408D01*
X037459Y043408D01*
X037599Y043548D01*
X037954Y043548D01*
X038314Y043098D01*
X038321Y043079D01*
X038358Y043043D01*
X038390Y043003D01*
X038408Y042993D01*
X038423Y042978D01*
X038470Y042958D01*
X038516Y042933D01*
X038536Y042931D01*
X038555Y042923D01*
X038607Y042923D01*
X038658Y042918D01*
X038678Y042923D01*
X039728Y042923D01*
X040052Y042599D01*
X040052Y042419D01*
X040140Y042208D01*
X040301Y042046D01*
X040512Y041959D01*
X040741Y041959D01*
X040952Y042046D01*
X041114Y042208D01*
X041201Y042419D01*
X041153Y042302D02*
X042303Y042302D01*
X042077Y042143D02*
X041842Y042143D01*
X041502Y042143D02*
X041502Y042143D01*
X041502Y042278D02*
X041297Y042278D01*
X041007Y041988D01*
X041007Y041783D01*
X041007Y041578D01*
X041297Y041288D01*
X041502Y041288D01*
X041502Y041783D01*
X041502Y041783D01*
X041007Y041783D01*
X041502Y041783D01*
X041502Y041783D01*
X041502Y041783D01*
X041502Y042278D01*
X041502Y041985D02*
X041502Y041985D01*
X041502Y041826D02*
X041502Y041826D01*
X041502Y041668D02*
X041502Y041668D01*
X041502Y041509D02*
X041502Y041509D01*
X041502Y041351D02*
X041502Y041351D01*
X041769Y041351D02*
X042149Y041351D01*
X042014Y041509D02*
X041928Y041509D01*
X041234Y041351D02*
X040084Y041351D01*
X040041Y041485D02*
X040041Y041485D01*
X039759Y041955D01*
X039380Y042350D01*
X038923Y042652D01*
X038923Y042652D01*
X038410Y042844D01*
X038410Y042844D01*
X038085Y042887D01*
X037952Y043020D01*
X037741Y043108D01*
X037512Y043108D01*
X037301Y043020D01*
X037140Y042859D01*
X037052Y042648D01*
X037052Y042419D01*
X037140Y042208D01*
X037301Y042046D01*
X037512Y041959D01*
X037741Y041959D01*
X037952Y042046D01*
X038059Y042153D01*
X038231Y042130D01*
X038590Y041996D01*
X038910Y041785D01*
X039175Y041509D01*
X039371Y041180D01*
X039488Y040823D01*
X039469Y040823D01*
X039271Y040741D01*
X039119Y040589D01*
X039037Y040391D01*
X039037Y040176D01*
X039119Y039977D01*
X039271Y039826D01*
X039469Y039743D01*
X040284Y039743D01*
X040483Y039826D01*
X040634Y039977D01*
X040717Y040176D01*
X040717Y040391D01*
X040634Y040589D01*
X040483Y040741D01*
X040284Y040823D01*
X040223Y040823D01*
X040210Y040964D01*
X040041Y041485D01*
X040026Y041509D02*
X041076Y041509D01*
X041007Y041668D02*
X039931Y041668D01*
X039836Y041826D02*
X041007Y041826D01*
X041007Y041985D02*
X040804Y041985D01*
X041049Y042143D02*
X041162Y042143D01*
X041201Y042619D02*
X046267Y042619D01*
X046267Y042777D02*
X041148Y042777D01*
X041037Y042936D02*
X046267Y042936D01*
X046267Y043094D02*
X040774Y043094D01*
X040416Y043253D02*
X046267Y043253D01*
X046267Y043411D02*
X040258Y043411D01*
X040099Y043570D02*
X046267Y043570D01*
X046267Y043728D02*
X038732Y043728D01*
X038605Y043887D02*
X046267Y043887D01*
X046267Y044045D02*
X038664Y044045D01*
X038790Y044204D02*
X046267Y044204D01*
X046267Y044362D02*
X038837Y044362D01*
X038828Y044521D02*
X046267Y044521D01*
X046267Y044679D02*
X038756Y044679D01*
X038737Y044838D02*
X046267Y044838D01*
X046267Y044996D02*
X038737Y044996D01*
X038770Y045155D02*
X046267Y045155D01*
X046267Y045313D02*
X038835Y045313D01*
X038837Y045472D02*
X046267Y045472D01*
X046267Y045630D02*
X038783Y045630D01*
X038647Y045789D02*
X046267Y045789D01*
X046267Y045947D02*
X037692Y045947D01*
X037692Y045908D02*
X037692Y046091D01*
X037434Y046348D01*
X037252Y046348D01*
X037252Y045908D01*
X037252Y045908D01*
X037692Y045908D01*
X037692Y045726D01*
X037434Y045468D01*
X037252Y045468D01*
X037252Y045908D01*
X037252Y045908D01*
X037692Y045908D01*
X037692Y045789D02*
X038107Y045789D01*
X037971Y045630D02*
X037596Y045630D01*
X037437Y045472D02*
X037917Y045472D01*
X037918Y045313D02*
X036356Y045313D01*
X036309Y045468D02*
X036567Y045726D01*
X036567Y045908D01*
X036127Y045908D01*
X036127Y045908D01*
X036127Y045468D01*
X036309Y045468D01*
X036312Y045472D02*
X037066Y045472D01*
X037069Y045468D02*
X036812Y045726D01*
X036812Y045908D01*
X037252Y045908D01*
X037252Y045468D01*
X037069Y045468D01*
X037252Y045472D02*
X037252Y045472D01*
X037252Y045630D02*
X037252Y045630D01*
X037252Y045789D02*
X037252Y045789D01*
X037252Y045908D02*
X037252Y045908D01*
X037252Y045908D01*
X036812Y045908D01*
X036812Y046091D01*
X037069Y046348D01*
X037252Y046348D01*
X037252Y045908D01*
X037252Y045947D02*
X037252Y045947D01*
X037252Y046106D02*
X037252Y046106D01*
X037252Y046264D02*
X037252Y046264D01*
X037518Y046264D02*
X038003Y046264D01*
X037992Y046292D02*
X038022Y046219D01*
X038066Y046153D01*
X038122Y046098D01*
X038187Y046054D01*
X038260Y046024D01*
X038337Y046008D01*
X038377Y046008D01*
X038416Y046008D01*
X038493Y046024D01*
X038566Y046054D01*
X038632Y046098D01*
X038687Y046153D01*
X038731Y046219D01*
X038761Y046292D01*
X038777Y046369D01*
X038777Y046408D01*
X038377Y046408D01*
X038377Y046408D01*
X038377Y046008D01*
X038377Y046408D01*
X038377Y046408D01*
X038777Y046408D01*
X038777Y046448D01*
X038761Y046525D01*
X038731Y046598D01*
X038687Y046663D01*
X038632Y046719D01*
X038566Y046763D01*
X038493Y046793D01*
X038416Y046808D01*
X038377Y046808D01*
X038377Y046408D01*
X037977Y046408D01*
X037977Y046369D01*
X037992Y046292D01*
X037977Y046408D02*
X038377Y046408D01*
X038377Y046408D01*
X038377Y046408D01*
X038377Y046808D01*
X038337Y046808D01*
X038260Y046793D01*
X038187Y046763D01*
X038122Y046719D01*
X038066Y046663D01*
X038022Y046598D01*
X037992Y046525D01*
X037977Y046448D01*
X037977Y046408D01*
X037977Y046423D02*
X034903Y046423D01*
X034917Y046264D02*
X035860Y046264D01*
X035944Y046348D02*
X035687Y046091D01*
X035687Y045908D01*
X035687Y045726D01*
X035944Y045468D01*
X036127Y045468D01*
X036127Y045908D01*
X036127Y045908D01*
X036567Y045908D01*
X036567Y046091D01*
X036309Y046348D01*
X036127Y046348D01*
X036127Y045908D01*
X035687Y045908D01*
X036127Y045908D01*
X036127Y045908D01*
X036127Y045908D01*
X036127Y046348D01*
X035944Y046348D01*
X036127Y046264D02*
X036127Y046264D01*
X036127Y046106D02*
X036127Y046106D01*
X036127Y045947D02*
X036127Y045947D01*
X036127Y045789D02*
X036127Y045789D01*
X036127Y045630D02*
X036127Y045630D01*
X036127Y045472D02*
X036127Y045472D01*
X035941Y045472D02*
X034917Y045472D01*
X034793Y045630D02*
X035782Y045630D01*
X035687Y045789D02*
X034635Y045789D01*
X034804Y045947D02*
X035687Y045947D01*
X035702Y046106D02*
X034888Y046106D01*
X034838Y046581D02*
X038015Y046581D01*
X038153Y046740D02*
X034684Y046740D01*
X034070Y046740D02*
X033684Y046740D01*
X033842Y046581D02*
X033916Y046581D01*
X033894Y046037D02*
X033640Y045783D01*
X033877Y045547D01*
X034130Y045801D01*
X034071Y045826D01*
X033919Y045977D01*
X033894Y046037D01*
X033949Y045947D02*
X033804Y045947D01*
X033646Y045789D02*
X034119Y045789D01*
X033960Y045630D02*
X033793Y045630D01*
X033853Y044996D02*
X033900Y044996D01*
X034058Y044838D02*
X033695Y044838D01*
X033237Y044679D02*
X034491Y044679D01*
X033237Y044521D02*
X035767Y044521D01*
X035767Y044362D02*
X033237Y044362D01*
X033237Y044204D02*
X035715Y044204D01*
X035627Y044045D02*
X033237Y044045D01*
X033237Y043887D02*
X035627Y043887D01*
X035627Y043728D02*
X033237Y043728D01*
X033237Y043570D02*
X035758Y043570D01*
X035917Y043411D02*
X035216Y043411D01*
X035331Y043253D02*
X038190Y043253D01*
X038315Y043094D02*
X037774Y043094D01*
X037480Y043094D02*
X035377Y043094D01*
X035377Y042936D02*
X037217Y042936D01*
X037106Y042777D02*
X035377Y042777D01*
X035377Y042619D02*
X037052Y042619D01*
X037052Y042460D02*
X035377Y042460D01*
X035326Y042302D02*
X037101Y042302D01*
X037204Y042143D02*
X036724Y042143D01*
X036584Y042283D02*
X036170Y042283D01*
X035877Y041990D01*
X035877Y041576D01*
X036017Y041436D01*
X036017Y041393D01*
X034915Y041393D01*
X034505Y041284D01*
X034138Y041072D01*
X033838Y040772D01*
X033684Y040505D01*
X033593Y040467D01*
X033453Y040327D01*
X033377Y040143D01*
X033377Y039424D01*
X033453Y039240D01*
X033593Y039099D01*
X033777Y039023D01*
X033976Y039023D01*
X034160Y039099D01*
X034301Y039240D01*
X034377Y039424D01*
X034377Y040143D01*
X034351Y040205D01*
X034421Y040325D01*
X034585Y040489D01*
X034786Y040606D01*
X035010Y040666D01*
X035127Y040673D01*
X036248Y040673D01*
X036472Y040766D01*
X036472Y040766D01*
X036644Y040938D01*
X036737Y041162D01*
X036737Y041436D01*
X036877Y041576D01*
X036877Y041990D01*
X036584Y042283D01*
X036877Y041985D02*
X037449Y041985D01*
X037804Y041985D02*
X038607Y041985D01*
X038847Y041826D02*
X036877Y041826D01*
X036877Y041668D02*
X039022Y041668D01*
X039174Y041509D02*
X036810Y041509D01*
X036737Y041351D02*
X039269Y041351D01*
X039364Y041192D02*
X036737Y041192D01*
X036684Y041034D02*
X039419Y041034D01*
X039471Y040875D02*
X036581Y040875D01*
X036644Y040938D02*
X036644Y040938D01*
X036353Y040717D02*
X039247Y040717D01*
X039106Y040558D02*
X034704Y040558D01*
X034526Y040400D02*
X034495Y040400D01*
X034418Y040241D02*
X034372Y040241D01*
X034377Y040083D02*
X034377Y040083D01*
X034377Y039924D02*
X034377Y039924D01*
X034377Y039766D02*
X034377Y039766D01*
X034377Y039607D02*
X034377Y039607D01*
X034377Y039449D02*
X034377Y039449D01*
X034321Y039290D02*
X034432Y039290D01*
X034517Y039132D02*
X034192Y039132D01*
X034517Y038973D02*
X033201Y038973D01*
X033202Y038966D02*
X033197Y039033D01*
X033197Y039136D01*
X033301Y039240D01*
X033377Y039424D01*
X033377Y040143D01*
X033301Y040327D01*
X033160Y040467D01*
X032976Y040543D01*
X032777Y040543D01*
X032593Y040467D01*
X032453Y040327D01*
X032377Y040143D01*
X032377Y039424D01*
X032453Y039240D01*
X032557Y039136D01*
X032557Y038864D01*
X032661Y038542D01*
X032661Y038542D01*
X032861Y038267D01*
X033135Y038068D01*
X033420Y037783D01*
X033834Y037783D01*
X034127Y038076D01*
X034127Y038490D01*
X033834Y038783D01*
X033420Y038783D01*
X033347Y038711D01*
X033323Y038729D01*
X033244Y038838D01*
X033202Y038966D01*
X033260Y038815D02*
X034517Y038815D01*
X034517Y038656D02*
X033961Y038656D01*
X034119Y038498D02*
X034384Y038498D01*
X034377Y038339D02*
X034127Y038339D01*
X034127Y038181D02*
X034377Y038181D01*
X034431Y038022D02*
X034073Y038022D01*
X033914Y037864D02*
X034589Y037864D01*
X035164Y037864D02*
X035589Y037864D01*
X036164Y037864D02*
X036377Y037864D01*
X036377Y037705D02*
X027155Y037705D01*
X027242Y037864D02*
X029589Y037864D01*
X029593Y037859D02*
X029777Y037783D01*
X029976Y037783D01*
X030160Y037859D01*
X030301Y038000D01*
X030377Y038184D01*
X030453Y038000D01*
X030593Y037859D01*
X030777Y037783D01*
X030976Y037783D01*
X031160Y037859D01*
X031301Y038000D01*
X031377Y038184D01*
X031377Y038383D01*
X031301Y038567D01*
X031160Y038707D01*
X030976Y038783D01*
X030777Y038783D01*
X030593Y038707D01*
X030453Y038567D01*
X030377Y038383D01*
X030377Y038184D01*
X030377Y038383D01*
X030301Y038567D01*
X030160Y038707D01*
X029976Y038783D01*
X029777Y038783D01*
X029593Y038707D01*
X029453Y038567D01*
X029377Y038383D01*
X029377Y038184D01*
X029453Y038000D01*
X029593Y037859D01*
X029444Y038022D02*
X027369Y038022D01*
X027432Y038181D02*
X029378Y038181D01*
X029377Y038339D02*
X027629Y038339D01*
X027611Y038318D02*
X027611Y038318D01*
X027611Y038318D01*
X027764Y038498D02*
X029424Y038498D01*
X029543Y038656D02*
X027899Y038656D01*
X027915Y038675D02*
X027915Y038675D01*
X027986Y038815D02*
X032573Y038815D01*
X032557Y038973D02*
X028067Y038973D01*
X028192Y039132D02*
X028676Y039132D01*
X028646Y039147D02*
X028708Y039116D01*
X028774Y039094D01*
X028842Y039083D01*
X028877Y039083D01*
X028911Y039083D01*
X028980Y039094D01*
X029046Y039116D01*
X029107Y039147D01*
X029163Y039188D01*
X029212Y039237D01*
X029253Y039293D01*
X029284Y039354D01*
X029306Y039420D01*
X029317Y039489D01*
X029317Y039783D01*
X028877Y039783D01*
X028877Y039783D01*
X028877Y039083D01*
X028877Y039783D01*
X028877Y039783D01*
X029317Y039783D01*
X029317Y040078D01*
X029306Y040146D01*
X029284Y040212D01*
X029253Y040274D01*
X029212Y040330D01*
X029163Y040379D01*
X029107Y040420D01*
X029046Y040451D01*
X028980Y040472D01*
X028911Y040483D01*
X028877Y040483D01*
X028877Y039783D01*
X028437Y039783D01*
X028437Y039489D01*
X028448Y039420D01*
X028469Y039354D01*
X028500Y039293D01*
X028541Y039237D01*
X028590Y039188D01*
X028646Y039147D01*
X028502Y039290D02*
X028321Y039290D01*
X028377Y039449D02*
X028443Y039449D01*
X028437Y039607D02*
X028377Y039607D01*
X028377Y039766D02*
X028437Y039766D01*
X028437Y039783D02*
X028877Y039783D01*
X028877Y039783D01*
X028877Y039783D01*
X028877Y040483D01*
X028842Y040483D01*
X028774Y040472D01*
X028708Y040451D01*
X028646Y040420D01*
X028590Y040379D01*
X028541Y040330D01*
X028500Y040274D01*
X028469Y040212D01*
X028448Y040146D01*
X028437Y040078D01*
X028437Y039783D01*
X028437Y039924D02*
X028377Y039924D01*
X028377Y040083D02*
X028437Y040083D01*
X028484Y040241D02*
X028336Y040241D01*
X028250Y040400D02*
X028619Y040400D01*
X028877Y040400D02*
X028877Y040400D01*
X028877Y040241D02*
X028877Y040241D01*
X028877Y040083D02*
X028877Y040083D01*
X028877Y039924D02*
X028877Y039924D01*
X028877Y039766D02*
X028877Y039766D01*
X028877Y039607D02*
X028877Y039607D01*
X028877Y039449D02*
X028877Y039449D01*
X028877Y039290D02*
X028877Y039290D01*
X028877Y039132D02*
X028877Y039132D01*
X029078Y039132D02*
X029561Y039132D01*
X029593Y039099D02*
X029777Y039023D01*
X029976Y039023D01*
X030160Y039099D01*
X030301Y039240D01*
X030377Y039424D01*
X030453Y039240D01*
X030593Y039099D01*
X030777Y039023D01*
X030976Y039023D01*
X031160Y039099D01*
X031301Y039240D01*
X031377Y039424D01*
X031453Y039240D01*
X031593Y039099D01*
X031777Y039023D01*
X031976Y039023D01*
X032160Y039099D01*
X032301Y039240D01*
X032377Y039424D01*
X032377Y040143D01*
X032301Y040327D01*
X032160Y040467D01*
X031976Y040543D01*
X031777Y040543D01*
X031593Y040467D01*
X031453Y040327D01*
X031377Y040143D01*
X031377Y039424D01*
X031377Y040143D01*
X031301Y040327D01*
X031160Y040467D01*
X030976Y040543D01*
X030777Y040543D01*
X030593Y040467D01*
X030453Y040327D01*
X030377Y040143D01*
X030377Y039424D01*
X030377Y040143D01*
X030301Y040327D01*
X030160Y040467D01*
X029976Y040543D01*
X029777Y040543D01*
X029593Y040467D01*
X029453Y040327D01*
X029377Y040143D01*
X029377Y039424D01*
X029453Y039240D01*
X029593Y039099D01*
X029432Y039290D02*
X029251Y039290D01*
X029310Y039449D02*
X029377Y039449D01*
X029377Y039607D02*
X029317Y039607D01*
X029317Y039766D02*
X029377Y039766D01*
X029377Y039924D02*
X029317Y039924D01*
X029316Y040083D02*
X029377Y040083D01*
X029418Y040241D02*
X029270Y040241D01*
X029135Y040400D02*
X029526Y040400D01*
X029464Y041034D02*
X034100Y041034D01*
X034138Y041072D02*
X034138Y041072D01*
X034347Y041192D02*
X029721Y041192D01*
X029818Y041254D02*
X029818Y041254D01*
X029905Y041351D02*
X034756Y041351D01*
X034505Y041284D02*
X034505Y041284D01*
X033942Y040875D02*
X028653Y040875D01*
X028410Y040717D02*
X033807Y040717D01*
X033838Y040772D02*
X033838Y040772D01*
X033715Y040558D02*
X028301Y040558D01*
X027741Y041034D02*
X026722Y041034D01*
X026704Y041047D02*
X026704Y041047D01*
X026408Y041143D01*
X025346Y041143D01*
X025049Y041047D01*
X025049Y041047D01*
X024796Y040864D01*
X024613Y040611D01*
X024553Y040427D01*
X024453Y040327D01*
X024377Y040143D01*
X024377Y039478D01*
X024377Y039478D01*
X024377Y040143D01*
X024301Y040327D01*
X024160Y040467D01*
X023976Y040543D01*
X023777Y040543D01*
X023593Y040467D01*
X023453Y040327D01*
X023377Y040143D01*
X023377Y039424D01*
X023453Y039240D01*
X023593Y039099D01*
X023777Y039023D01*
X023897Y039023D01*
X023848Y038993D01*
X023538Y038905D01*
X023377Y038893D01*
X023206Y038893D01*
X022890Y038762D01*
X022648Y038520D01*
X022517Y038204D01*
X022517Y037533D01*
X022514Y037506D01*
X022493Y037456D01*
X022454Y037417D01*
X022404Y037396D01*
X022377Y037393D01*
X022255Y037393D01*
X022150Y037350D01*
X022377Y037576D01*
X022377Y037990D01*
X022237Y038130D01*
X022237Y039176D01*
X022301Y039240D01*
X022377Y039424D01*
X022453Y039240D01*
X022593Y039099D01*
X022777Y039023D01*
X022976Y039023D01*
X023160Y039099D01*
X023301Y039240D01*
X023377Y039424D01*
X023377Y040143D01*
X023301Y040327D01*
X023160Y040467D01*
X022976Y040543D01*
X022777Y040543D01*
X022593Y040467D01*
X022453Y040327D01*
X022377Y040143D01*
X022377Y039424D01*
X022377Y040143D01*
X022301Y040327D01*
X022160Y040467D01*
X021976Y040543D01*
X021777Y040543D01*
X021593Y040467D01*
X021453Y040327D01*
X021377Y040143D01*
X020752Y040143D01*
X020749Y040144D01*
X020743Y040146D01*
X020739Y040150D01*
X020737Y040155D01*
X020737Y040158D01*
X020737Y043762D01*
X020787Y043640D01*
X020983Y043444D01*
X021238Y043338D01*
X021465Y043338D01*
X021453Y043327D01*
X021377Y043143D01*
X021377Y042424D01*
X021453Y042240D01*
X021593Y042099D01*
X021777Y042023D01*
X021976Y042023D01*
X022160Y042099D01*
X022301Y042240D01*
X022377Y042424D01*
X022453Y042240D01*
X022593Y042099D01*
X022777Y042023D01*
X022976Y042023D01*
X023160Y042099D01*
X023301Y042240D01*
X023377Y042424D01*
X023453Y042240D01*
X023593Y042099D01*
X023777Y042023D01*
X023976Y042023D01*
X024160Y042099D01*
X024301Y042240D01*
X024377Y042424D01*
X024453Y042240D01*
X024593Y042099D01*
X024777Y042023D01*
X024976Y042023D01*
X025160Y042099D01*
X025301Y042240D01*
X025377Y042424D01*
X025453Y042240D01*
X025593Y042099D01*
X025777Y042023D01*
X025976Y042023D01*
X026160Y042099D01*
X026301Y042240D01*
X026377Y042424D01*
X026453Y042240D01*
X026593Y042099D01*
X026777Y042023D01*
X026976Y042023D01*
X027160Y042099D01*
X027301Y042240D01*
X027377Y042424D01*
X027377Y043143D01*
X027301Y043327D01*
X027160Y043467D01*
X026976Y043543D01*
X026777Y043543D01*
X026593Y043467D01*
X026453Y043327D01*
X026377Y043143D01*
X026377Y042424D01*
X026377Y043143D01*
X026301Y043327D01*
X026160Y043467D01*
X026018Y043526D01*
X025961Y043836D01*
X025957Y043925D01*
X026084Y044052D01*
X026161Y044238D01*
X026182Y044174D01*
X026216Y044107D01*
X026261Y044046D01*
X026314Y043992D01*
X026375Y043948D01*
X026442Y043913D01*
X026514Y043890D01*
X026589Y043878D01*
X026607Y043878D01*
X026607Y044638D01*
X026647Y044638D01*
X026647Y044678D01*
X027107Y044678D01*
X027107Y044996D01*
X027095Y045071D01*
X027071Y045143D01*
X027056Y045173D01*
X030023Y045173D01*
X030293Y045285D01*
X030500Y045492D01*
X030612Y045762D01*
X030612Y045872D01*
X030612Y045873D01*
X030628Y045901D01*
X030654Y045920D01*
X030675Y045925D01*
X030680Y045923D01*
X030726Y045923D01*
X030772Y045917D01*
X030797Y045923D01*
X030800Y045923D01*
X030648Y045770D01*
X030517Y045454D01*
X030517Y043390D01*
X030453Y043327D01*
X030377Y043143D01*
X030377Y042424D01*
X030377Y043143D01*
X030301Y043327D01*
X030160Y043467D01*
X029976Y043543D01*
X029777Y043543D01*
X029593Y043467D01*
X029453Y043327D01*
X029377Y043143D01*
X029377Y042424D01*
X029453Y042240D01*
X029559Y042134D01*
X029479Y041965D01*
X029344Y041814D01*
X029172Y041707D01*
X028978Y041650D01*
X028877Y041643D01*
X028661Y041643D01*
X028252Y041510D01*
X028252Y041510D01*
X027903Y041257D01*
X027903Y041257D01*
X027903Y041257D01*
X027650Y040908D01*
X027517Y040499D01*
X027517Y040390D01*
X027453Y040327D01*
X027377Y040143D01*
X027377Y039424D01*
X027422Y039314D01*
X027304Y039082D01*
X027112Y038856D01*
X027051Y038812D01*
X026987Y038838D01*
X026766Y038838D01*
X026562Y038754D01*
X026452Y038643D01*
X024638Y038643D01*
X024950Y038987D01*
X024968Y039023D01*
X024976Y039023D01*
X025160Y039099D01*
X025301Y039240D01*
X025377Y039424D01*
X025453Y039240D01*
X025593Y039099D01*
X025777Y039023D01*
X025976Y039023D01*
X026160Y039099D01*
X026301Y039240D01*
X026377Y039424D01*
X026453Y039240D01*
X026593Y039099D01*
X026777Y039023D01*
X026976Y039023D01*
X027160Y039099D01*
X027301Y039240D01*
X027377Y039424D01*
X027377Y040143D01*
X027301Y040327D01*
X027200Y040427D01*
X027140Y040611D01*
X026957Y040864D01*
X026704Y041047D01*
X026941Y040875D02*
X027639Y040875D01*
X027650Y040908D02*
X027650Y040908D01*
X027588Y040717D02*
X027063Y040717D01*
X027140Y040611D02*
X027140Y040611D01*
X027157Y040558D02*
X027536Y040558D01*
X027517Y040400D02*
X027227Y040400D01*
X027336Y040241D02*
X027418Y040241D01*
X027377Y040083D02*
X027377Y040083D01*
X027377Y039924D02*
X027377Y039924D01*
X027377Y039766D02*
X027377Y039766D01*
X027377Y039607D02*
X027377Y039607D01*
X027377Y039449D02*
X027377Y039449D01*
X027410Y039290D02*
X027321Y039290D01*
X027330Y039132D02*
X027192Y039132D01*
X027212Y038973D02*
X024938Y038973D01*
X024950Y038987D02*
X024950Y038987D01*
X024794Y038815D02*
X026710Y038815D01*
X026465Y038656D02*
X024650Y038656D01*
X025192Y039132D02*
X025561Y039132D01*
X025432Y039290D02*
X025321Y039290D01*
X025377Y039424D02*
X025377Y040143D01*
X025453Y040327D01*
X025550Y040423D01*
X025502Y040423D01*
X025460Y040420D01*
X025381Y040394D01*
X025314Y040346D01*
X025300Y040327D01*
X025301Y040327D01*
X025377Y040143D01*
X025377Y039424D01*
X025377Y039449D02*
X025377Y039449D01*
X025377Y039607D02*
X025377Y039607D01*
X025377Y039766D02*
X025377Y039766D01*
X025377Y039924D02*
X025377Y039924D01*
X025377Y040083D02*
X025377Y040083D01*
X025336Y040241D02*
X025418Y040241D01*
X025398Y040400D02*
X025526Y040400D01*
X025031Y041034D02*
X020737Y041034D01*
X020737Y041192D02*
X027856Y041192D01*
X028032Y041351D02*
X020737Y041351D01*
X020737Y041509D02*
X028250Y041509D01*
X028046Y042116D02*
X028107Y042147D01*
X028163Y042188D01*
X028212Y042237D01*
X028253Y042293D01*
X028284Y042354D01*
X028306Y042420D01*
X028317Y042489D01*
X028317Y042783D01*
X027877Y042783D01*
X027877Y042783D01*
X027877Y042083D01*
X027911Y042083D01*
X027980Y042094D01*
X028046Y042116D01*
X028100Y042143D02*
X028550Y042143D01*
X028593Y042099D02*
X028777Y042023D01*
X028976Y042023D01*
X029160Y042099D01*
X029301Y042240D01*
X029377Y042424D01*
X029377Y043143D01*
X029301Y043327D01*
X029160Y043467D01*
X028976Y043543D01*
X028777Y043543D01*
X028593Y043467D01*
X028453Y043327D01*
X028377Y043143D01*
X028377Y042424D01*
X028453Y042240D01*
X028593Y042099D01*
X028427Y042302D02*
X028258Y042302D01*
X028312Y042460D02*
X028377Y042460D01*
X028377Y042619D02*
X028317Y042619D01*
X028317Y042777D02*
X028377Y042777D01*
X028317Y042783D02*
X028317Y043078D01*
X028306Y043146D01*
X028284Y043212D01*
X028253Y043274D01*
X028212Y043330D01*
X028163Y043379D01*
X028107Y043420D01*
X028046Y043451D01*
X027980Y043472D01*
X027911Y043483D01*
X027877Y043483D01*
X027877Y042783D01*
X027877Y042783D01*
X028317Y042783D01*
X028317Y042936D02*
X028377Y042936D01*
X028377Y043094D02*
X028314Y043094D01*
X028264Y043253D02*
X028422Y043253D01*
X028538Y043411D02*
X028119Y043411D01*
X027877Y043411D02*
X027877Y043411D01*
X027877Y043483D02*
X027842Y043483D01*
X027774Y043472D01*
X027708Y043451D01*
X027646Y043420D01*
X027590Y043379D01*
X027541Y043330D01*
X027500Y043274D01*
X027469Y043212D01*
X027448Y043146D01*
X027437Y043078D01*
X027437Y042783D01*
X027437Y042489D01*
X027448Y042420D01*
X027469Y042354D01*
X027500Y042293D01*
X027541Y042237D01*
X027590Y042188D01*
X027646Y042147D01*
X027708Y042116D01*
X027774Y042094D01*
X027842Y042083D01*
X027877Y042083D01*
X027877Y042783D01*
X027437Y042783D01*
X027877Y042783D01*
X027877Y042783D01*
X027877Y042783D01*
X027877Y043483D01*
X027877Y043253D02*
X027877Y043253D01*
X027877Y043094D02*
X027877Y043094D01*
X027877Y042936D02*
X027877Y042936D01*
X027877Y042777D02*
X027877Y042777D01*
X027877Y042619D02*
X027877Y042619D01*
X027877Y042460D02*
X027877Y042460D01*
X027877Y042302D02*
X027877Y042302D01*
X027877Y042143D02*
X027877Y042143D01*
X027653Y042143D02*
X027204Y042143D01*
X027326Y042302D02*
X027496Y042302D01*
X027441Y042460D02*
X027377Y042460D01*
X027377Y042619D02*
X027437Y042619D01*
X027437Y042777D02*
X027377Y042777D01*
X027377Y042936D02*
X027437Y042936D01*
X027439Y043094D02*
X027377Y043094D01*
X027331Y043253D02*
X027490Y043253D01*
X027635Y043411D02*
X027216Y043411D01*
X026878Y043948D02*
X026939Y043992D01*
X026993Y044046D01*
X027037Y044107D01*
X027071Y044174D01*
X027095Y044246D01*
X027107Y044321D01*
X027107Y044638D01*
X026647Y044638D01*
X026647Y043878D01*
X026664Y043878D01*
X026739Y043890D01*
X026811Y043913D01*
X026878Y043948D01*
X026993Y044045D02*
X030517Y044045D01*
X030517Y043887D02*
X026718Y043887D01*
X026647Y043887D02*
X026607Y043887D01*
X026535Y043887D02*
X025959Y043887D01*
X025981Y043728D02*
X030517Y043728D01*
X030517Y043570D02*
X026010Y043570D01*
X026216Y043411D02*
X026538Y043411D01*
X026422Y043253D02*
X026331Y043253D01*
X026377Y043094D02*
X026377Y043094D01*
X026377Y042936D02*
X026377Y042936D01*
X026377Y042777D02*
X026377Y042777D01*
X026377Y042619D02*
X026377Y042619D01*
X026377Y042460D02*
X026377Y042460D01*
X026427Y042302D02*
X026326Y042302D01*
X026204Y042143D02*
X026550Y042143D01*
X025550Y042143D02*
X025204Y042143D01*
X025326Y042302D02*
X025427Y042302D01*
X025377Y042424D02*
X025377Y043143D01*
X025408Y043219D01*
X025307Y043777D01*
X025307Y043915D01*
X025169Y044052D01*
X025127Y044154D01*
X025084Y044052D01*
X024933Y043901D01*
X024734Y043818D01*
X024629Y043818D01*
X024743Y043628D01*
X024743Y043628D01*
X024752Y043613D01*
X024776Y043573D01*
X024794Y043543D01*
X024976Y043543D01*
X025160Y043467D01*
X025301Y043327D01*
X025377Y043143D01*
X025377Y042424D01*
X025377Y042460D02*
X025377Y042460D01*
X025377Y042619D02*
X025377Y042619D01*
X025377Y042777D02*
X025377Y042777D01*
X025377Y042936D02*
X025377Y042936D01*
X025377Y043094D02*
X025377Y043094D01*
X025402Y043253D02*
X025331Y043253D01*
X025373Y043411D02*
X025216Y043411D01*
X025344Y043570D02*
X024778Y043570D01*
X024683Y043728D02*
X025316Y043728D01*
X025307Y043887D02*
X024900Y043887D01*
X025077Y044045D02*
X025176Y044045D01*
X025627Y044158D02*
X025627Y044658D01*
X026161Y045079D02*
X026122Y045173D01*
X026197Y045173D01*
X026182Y045143D01*
X026161Y045079D01*
X026188Y045155D02*
X026130Y045155D01*
X026607Y044521D02*
X026647Y044521D01*
X026647Y044362D02*
X026607Y044362D01*
X026607Y044204D02*
X026647Y044204D01*
X026647Y044045D02*
X026607Y044045D01*
X026261Y044045D02*
X026077Y044045D01*
X026147Y044204D02*
X026172Y044204D01*
X027081Y044204D02*
X030517Y044204D01*
X030517Y044362D02*
X027107Y044362D01*
X027107Y044521D02*
X030517Y044521D01*
X030517Y044679D02*
X027107Y044679D01*
X027107Y044838D02*
X030517Y044838D01*
X030517Y044996D02*
X027107Y044996D01*
X027065Y045155D02*
X030517Y045155D01*
X030517Y045313D02*
X030321Y045313D01*
X030293Y045285D02*
X030293Y045285D01*
X030480Y045472D02*
X030524Y045472D01*
X030500Y045492D02*
X030500Y045492D01*
X030557Y045630D02*
X030590Y045630D01*
X030648Y045770D02*
X030648Y045770D01*
X030666Y045789D02*
X030612Y045789D01*
X029916Y046106D02*
X022377Y046106D01*
X022377Y046264D02*
X030005Y046264D01*
X030080Y046392D02*
X030080Y046392D01*
X030080Y046392D01*
X030122Y046423D02*
X023223Y046423D01*
X023377Y046581D02*
X030333Y046581D01*
X029918Y046117D02*
X029918Y046117D01*
X029892Y045947D02*
X022248Y045947D01*
X022377Y046423D02*
X022530Y046423D01*
X022377Y046581D02*
X022286Y046581D01*
X022877Y046784D02*
X022869Y046830D01*
X022859Y046875D01*
X022844Y046920D01*
X022826Y046963D01*
X022804Y047004D01*
X022779Y047044D01*
X022751Y047081D01*
X022720Y047116D01*
X022686Y047148D01*
X022649Y047177D01*
X022610Y047203D01*
X022569Y047226D01*
X022527Y047245D01*
X022483Y047261D01*
X022438Y047273D01*
X022392Y047282D01*
X022345Y047286D01*
X022298Y047287D01*
X022251Y047284D01*
X022252Y047283D02*
X013377Y047283D01*
X013377Y046963D02*
X018350Y046963D01*
X018127Y046740D01*
X016205Y046740D01*
X016222Y046723D02*
X016066Y046879D01*
X015862Y046963D01*
X015641Y046963D01*
X015437Y046879D01*
X015281Y046723D01*
X015239Y046621D01*
X014957Y046903D01*
X014752Y046903D01*
X014752Y046408D01*
X014752Y045913D01*
X014957Y045913D01*
X015239Y046196D01*
X015281Y046094D01*
X015437Y045938D01*
X015641Y045853D01*
X015862Y045853D01*
X016066Y045938D01*
X016222Y046094D01*
X016307Y046298D01*
X016307Y046519D01*
X016222Y046723D01*
X016281Y046581D02*
X018127Y046581D01*
X018127Y046423D02*
X016307Y046423D01*
X016293Y046264D02*
X018189Y046264D01*
X018127Y046326D02*
X018420Y046033D01*
X018807Y046033D01*
X018807Y045033D01*
X018420Y045033D01*
X018127Y044740D01*
X018127Y044326D01*
X018420Y044033D01*
X018432Y044033D01*
X018432Y038408D01*
X018428Y038361D01*
X018398Y038270D01*
X018342Y038193D01*
X018265Y038137D01*
X018174Y038107D01*
X018127Y038103D01*
X014613Y038103D01*
X014358Y037998D01*
X014162Y037802D01*
X014057Y037547D01*
X013322Y037547D01*
X013322Y037705D02*
X014122Y037705D01*
X014162Y037802D02*
X014162Y037802D01*
X014224Y037864D02*
X013322Y037864D01*
X013322Y038022D02*
X014418Y038022D01*
X014358Y037998D02*
X014358Y037998D01*
X014377Y038343D02*
X014559Y038343D01*
X014817Y038601D01*
X014817Y038783D01*
X014377Y038783D01*
X014377Y038783D01*
X014377Y038343D01*
X014377Y038783D01*
X014377Y038783D01*
X014817Y038783D01*
X014817Y038966D01*
X014559Y039223D01*
X014377Y039223D01*
X014377Y038783D01*
X013937Y038783D01*
X013937Y038601D01*
X014194Y038343D01*
X014377Y038343D01*
X014377Y038498D02*
X014377Y038498D01*
X014377Y038656D02*
X014377Y038656D01*
X014377Y038783D02*
X014377Y038783D01*
X014377Y038783D01*
X013937Y038783D01*
X013937Y038966D01*
X014194Y039223D01*
X014377Y039223D01*
X014377Y038783D01*
X014377Y038815D02*
X014377Y038815D01*
X014377Y038973D02*
X014377Y038973D01*
X014377Y039132D02*
X014377Y039132D01*
X014650Y039132D02*
X018432Y039132D01*
X018432Y039290D02*
X013322Y039290D01*
X013322Y039132D02*
X014103Y039132D01*
X013944Y038973D02*
X013322Y038973D01*
X013322Y038815D02*
X013937Y038815D01*
X013937Y038656D02*
X013322Y038656D01*
X013322Y038498D02*
X014040Y038498D01*
X013322Y038339D02*
X018421Y038339D01*
X018432Y038498D02*
X014713Y038498D01*
X014817Y038656D02*
X018432Y038656D01*
X018432Y038815D02*
X014817Y038815D01*
X014809Y038973D02*
X018432Y038973D01*
X018432Y039449D02*
X013322Y039449D01*
X013322Y039607D02*
X018432Y039607D01*
X018432Y039766D02*
X013322Y039766D01*
X013322Y039924D02*
X018432Y039924D01*
X018432Y040083D02*
X013322Y040083D01*
X013322Y040241D02*
X018432Y040241D01*
X018432Y040400D02*
X013322Y040400D01*
X013322Y040558D02*
X018432Y040558D01*
X018432Y040717D02*
X013322Y040717D01*
X013322Y040875D02*
X018432Y040875D01*
X018432Y041034D02*
X013322Y041034D01*
X013322Y041192D02*
X018432Y041192D01*
X018432Y041351D02*
X013322Y041351D01*
X013322Y041509D02*
X018432Y041509D01*
X018432Y041668D02*
X013322Y041668D01*
X013322Y041826D02*
X018432Y041826D01*
X018432Y041985D02*
X013322Y041985D01*
X013322Y042143D02*
X018432Y042143D01*
X018432Y042302D02*
X013322Y042302D01*
X013322Y042460D02*
X018432Y042460D01*
X018432Y042619D02*
X013322Y042619D01*
X013322Y042777D02*
X018432Y042777D01*
X018432Y042936D02*
X013322Y042936D01*
X013322Y043094D02*
X018432Y043094D01*
X018432Y043253D02*
X013322Y043253D01*
X013322Y043411D02*
X018432Y043411D01*
X018432Y043570D02*
X013322Y043570D01*
X013322Y043728D02*
X018432Y043728D01*
X018432Y043887D02*
X013322Y043887D01*
X013322Y044045D02*
X018408Y044045D01*
X018249Y044204D02*
X013322Y044204D01*
X013322Y044362D02*
X018127Y044362D01*
X018127Y044521D02*
X013322Y044521D01*
X013322Y044679D02*
X018127Y044679D01*
X018224Y044838D02*
X013322Y044838D01*
X013322Y044996D02*
X018383Y044996D01*
X018807Y045155D02*
X013322Y045155D01*
X013322Y045313D02*
X018807Y045313D01*
X018807Y045472D02*
X013322Y045472D01*
X013322Y045630D02*
X018807Y045630D01*
X018807Y045789D02*
X013322Y045789D01*
X013322Y045947D02*
X014513Y045947D01*
X014547Y045913D02*
X014752Y045913D01*
X014752Y046408D01*
X014752Y046408D01*
X014257Y046408D01*
X014257Y046203D01*
X014547Y045913D01*
X014752Y045947D02*
X014752Y045947D01*
X014752Y046106D02*
X014752Y046106D01*
X014752Y046264D02*
X014752Y046264D01*
X014752Y046408D02*
X014752Y046408D01*
X014752Y046408D01*
X014257Y046408D01*
X014257Y046613D01*
X014547Y046903D01*
X014752Y046903D01*
X014752Y046408D01*
X014752Y046423D02*
X014752Y046423D01*
X014752Y046581D02*
X014752Y046581D01*
X014752Y046740D02*
X014752Y046740D01*
X014752Y046898D02*
X014752Y046898D01*
X014962Y046898D02*
X015484Y046898D01*
X015298Y046740D02*
X015120Y046740D01*
X014542Y046898D02*
X013322Y046898D01*
X013322Y046908D02*
X013323Y046919D01*
X013331Y046939D01*
X013346Y046954D01*
X013366Y046962D01*
X013377Y046963D01*
X013377Y047283D02*
X013340Y047281D01*
X013304Y047276D01*
X013268Y047267D01*
X013233Y047254D01*
X013200Y047239D01*
X013169Y047220D01*
X013139Y047198D01*
X013112Y047173D01*
X013087Y047146D01*
X013065Y047116D01*
X013046Y047085D01*
X013031Y047052D01*
X013018Y047017D01*
X013009Y046981D01*
X013004Y046945D01*
X013002Y046908D01*
X013002Y028658D01*
X013322Y028658D02*
X013322Y030116D01*
X013376Y029912D01*
X013588Y029545D01*
X013588Y029545D01*
X013888Y029245D01*
X013888Y029245D01*
X014255Y029033D01*
X014480Y028973D01*
X014670Y028783D01*
X015084Y028783D01*
X015377Y029076D01*
X015377Y029490D01*
X015084Y029783D01*
X014670Y029783D01*
X014584Y029698D01*
X014536Y029711D01*
X014536Y029711D01*
X014335Y029827D01*
X014171Y029992D01*
X014054Y030193D01*
X013994Y030417D01*
X013987Y030533D01*
X013987Y032206D01*
X014093Y032099D01*
X014277Y032023D01*
X014476Y032023D01*
X014660Y032099D01*
X014801Y032240D01*
X014877Y032424D01*
X014953Y032240D01*
X015093Y032099D01*
X015277Y032023D01*
X015476Y032023D01*
X015660Y032099D01*
X015801Y032240D01*
X015877Y032424D01*
X015953Y032240D01*
X016093Y032099D01*
X016277Y032023D01*
X016476Y032023D01*
X016660Y032099D01*
X016801Y032240D01*
X016877Y032424D01*
X016953Y032240D01*
X017093Y032099D01*
X017277Y032023D01*
X017476Y032023D01*
X017660Y032099D01*
X017801Y032240D01*
X017877Y032424D01*
X017953Y032240D01*
X018093Y032099D01*
X018277Y032023D01*
X018476Y032023D01*
X018660Y032099D01*
X018801Y032240D01*
X018877Y032424D01*
X018953Y032240D01*
X019093Y032099D01*
X019277Y032023D01*
X019476Y032023D01*
X019660Y032099D01*
X019801Y032240D01*
X019877Y032424D01*
X019953Y032240D01*
X020093Y032099D01*
X020277Y032023D01*
X020476Y032023D01*
X020660Y032099D01*
X020801Y032240D01*
X020877Y032424D01*
X020877Y033143D01*
X020801Y033327D01*
X020660Y033467D01*
X020476Y033543D01*
X020277Y033543D01*
X020093Y033467D01*
X019953Y033327D01*
X019877Y033143D01*
X019877Y032424D01*
X019877Y033143D01*
X019801Y033327D01*
X019660Y033467D01*
X019476Y033543D01*
X019277Y033543D01*
X019093Y033467D01*
X018953Y033327D01*
X018877Y033143D01*
X018877Y032424D01*
X018877Y033143D01*
X018801Y033327D01*
X018660Y033467D01*
X018476Y033543D01*
X018277Y033543D01*
X018093Y033467D01*
X017953Y033327D01*
X017877Y033143D01*
X017877Y032424D01*
X017877Y033143D01*
X017801Y033327D01*
X017660Y033467D01*
X017476Y033543D01*
X017277Y033543D01*
X017093Y033467D01*
X016953Y033327D01*
X016877Y033143D01*
X016877Y032424D01*
X016877Y033143D01*
X016801Y033327D01*
X016660Y033467D01*
X016476Y033543D01*
X016277Y033543D01*
X016093Y033467D01*
X015953Y033327D01*
X015877Y033143D01*
X015877Y032424D01*
X015877Y033143D01*
X015801Y033327D01*
X015660Y033467D01*
X015476Y033543D01*
X015277Y033543D01*
X015093Y033467D01*
X014953Y033327D01*
X014877Y033143D01*
X014877Y032424D01*
X014877Y033143D01*
X014801Y033327D01*
X014660Y033467D01*
X014476Y033543D01*
X014277Y033543D01*
X014093Y033467D01*
X013987Y033360D01*
X013987Y035033D01*
X013991Y035094D01*
X014018Y035175D01*
X014093Y035099D01*
X014277Y035023D01*
X014476Y035023D01*
X014660Y035099D01*
X014801Y035240D01*
X014877Y035424D01*
X014877Y036143D01*
X014801Y036327D01*
X014737Y036390D01*
X014737Y036436D01*
X014877Y036576D01*
X014877Y036990D01*
X014697Y037170D01*
X014697Y037408D01*
X014698Y037419D01*
X014706Y037439D01*
X014721Y037454D01*
X014741Y037462D01*
X014752Y037463D01*
X018276Y037463D01*
X018561Y037556D01*
X018803Y037732D01*
X018812Y037743D01*
X018899Y037474D01*
X019075Y037232D01*
X019075Y037232D01*
X019075Y037232D01*
X019317Y037056D01*
X019317Y037056D01*
X019602Y036963D01*
X020343Y036963D01*
X020538Y036768D01*
X020965Y036768D01*
X021267Y037070D01*
X021267Y037497D01*
X020965Y037799D01*
X020538Y037799D01*
X020343Y037603D01*
X019752Y037603D01*
X019704Y037607D01*
X019613Y037637D01*
X019536Y037693D01*
X019480Y037770D01*
X019450Y037861D01*
X019447Y037908D01*
X019447Y046297D01*
X019341Y046552D01*
X019305Y046588D01*
X019662Y046588D01*
X019546Y046472D01*
X019546Y046283D01*
X019546Y046095D01*
X019813Y045828D01*
X020002Y045828D01*
X020190Y045828D01*
X020457Y046095D01*
X020457Y046283D01*
X020002Y046283D01*
X020002Y046283D01*
X020002Y045828D01*
X020002Y046283D01*
X020002Y046283D01*
X020457Y046283D01*
X020457Y046472D01*
X020341Y046588D01*
X020600Y046588D01*
X020502Y046490D01*
X020502Y046076D01*
X020687Y045891D01*
X020508Y045834D01*
X020508Y045834D01*
X020262Y045658D01*
X020083Y045415D01*
X020039Y045284D01*
X020017Y045230D01*
X020017Y045217D01*
X020012Y045204D01*
X020017Y045146D01*
X020017Y040012D01*
X020129Y039742D01*
X020335Y039535D01*
X020335Y039535D01*
X020605Y039423D01*
X021377Y039423D01*
X021453Y039240D01*
X021517Y039176D01*
X021517Y038130D01*
X021377Y037990D01*
X021377Y037576D01*
X021670Y037283D01*
X022014Y037283D01*
X021860Y037129D01*
X021767Y036905D01*
X021767Y036360D01*
X021660Y036467D01*
X021476Y036543D01*
X021277Y036543D01*
X021093Y036467D01*
X020953Y036327D01*
X020877Y036143D01*
X020877Y035424D01*
X020953Y035240D01*
X021093Y035099D01*
X021277Y035023D01*
X021476Y035023D01*
X021660Y035099D01*
X021767Y035206D01*
X021767Y033247D01*
X021753Y033274D01*
X021712Y033330D01*
X021663Y033379D01*
X021607Y033420D01*
X021546Y033451D01*
X021480Y033472D01*
X021411Y033483D01*
X021377Y033483D01*
X021377Y032783D01*
X021377Y032083D01*
X021411Y032083D01*
X021480Y032094D01*
X021546Y032116D01*
X021607Y032147D01*
X021663Y032188D01*
X021712Y032237D01*
X021753Y032293D01*
X021767Y032320D01*
X021767Y030533D01*
X021764Y030506D01*
X021743Y030456D01*
X021704Y030417D01*
X021654Y030396D01*
X021627Y030393D01*
X017206Y030393D01*
X016890Y030262D01*
X016648Y030020D01*
X016517Y029704D01*
X016517Y029630D01*
X016377Y029490D01*
X016377Y029076D01*
X016517Y028936D01*
X016517Y028650D01*
X016453Y028587D01*
X016377Y028403D01*
X016377Y027684D01*
X016453Y027500D01*
X016593Y027359D01*
X016427Y027561D02*
X014884Y027561D01*
X015017Y027720D02*
X016377Y027720D01*
X016377Y027878D02*
X015017Y027878D01*
X015017Y028037D02*
X016377Y028037D01*
X016377Y028195D02*
X014944Y028195D01*
X014785Y028354D02*
X016377Y028354D01*
X016422Y028512D02*
X013353Y028512D01*
X013369Y028463D02*
X013327Y028591D01*
X013322Y028658D01*
X013322Y028671D02*
X016517Y028671D01*
X016517Y028829D02*
X015130Y028829D01*
X015288Y028988D02*
X016465Y028988D01*
X016377Y029146D02*
X015377Y029146D01*
X015377Y029305D02*
X016377Y029305D01*
X016377Y029463D02*
X015377Y029463D01*
X015245Y029622D02*
X016508Y029622D01*
X016548Y029780D02*
X015087Y029780D01*
X014667Y029780D02*
X014416Y029780D01*
X014223Y029939D02*
X016614Y029939D01*
X016648Y030020D02*
X016648Y030020D01*
X016724Y030097D02*
X014109Y030097D01*
X014038Y030256D02*
X016883Y030256D01*
X016890Y030262D02*
X016890Y030262D01*
X017299Y029650D02*
X017349Y029671D01*
X017377Y029673D01*
X017560Y029673D01*
X017377Y029490D01*
X017377Y029076D01*
X017377Y029490D01*
X017259Y029608D01*
X017260Y029611D01*
X017299Y029650D01*
X017271Y029622D02*
X017508Y029622D01*
X017377Y029463D02*
X017377Y029463D01*
X017377Y029305D02*
X017377Y029305D01*
X017377Y029146D02*
X017377Y029146D01*
X017465Y028988D02*
X017288Y028988D01*
X018194Y029673D02*
X019560Y029673D01*
X019405Y029519D01*
X019390Y029512D01*
X019148Y029270D01*
X019017Y028954D01*
X019017Y028650D01*
X018987Y028620D01*
X018987Y028855D01*
X018987Y028954D01*
X018987Y028954D01*
X018856Y029270D01*
X018856Y029270D01*
X018614Y029512D01*
X018298Y029643D01*
X018224Y029643D01*
X018194Y029673D01*
X018350Y029622D02*
X019508Y029622D01*
X019390Y029512D02*
X019390Y029512D01*
X019340Y029463D02*
X018663Y029463D01*
X018614Y029512D02*
X018614Y029512D01*
X018821Y029305D02*
X019182Y029305D01*
X019148Y029270D02*
X019148Y029270D01*
X019096Y029146D02*
X018907Y029146D01*
X018973Y028988D02*
X019031Y028988D01*
X019017Y028829D02*
X018987Y028829D01*
X018987Y028671D02*
X019017Y028671D01*
X021698Y030414D02*
X013995Y030414D01*
X013987Y030573D02*
X021767Y030573D01*
X021767Y030731D02*
X013987Y030731D01*
X013987Y030890D02*
X021767Y030890D01*
X021767Y031048D02*
X013987Y031048D01*
X013987Y031207D02*
X021767Y031207D01*
X021767Y031365D02*
X013987Y031365D01*
X013987Y031524D02*
X021767Y031524D01*
X021767Y031682D02*
X013987Y031682D01*
X013987Y031841D02*
X021767Y031841D01*
X021767Y031999D02*
X013987Y031999D01*
X013987Y032158D02*
X014035Y032158D01*
X014718Y032158D02*
X015035Y032158D01*
X014921Y032316D02*
X014832Y032316D01*
X014877Y032475D02*
X014877Y032475D01*
X014877Y032633D02*
X014877Y032633D01*
X014877Y032792D02*
X014877Y032792D01*
X014877Y032950D02*
X014877Y032950D01*
X014877Y033109D02*
X014877Y033109D01*
X014825Y033267D02*
X014928Y033267D01*
X015052Y033426D02*
X014701Y033426D01*
X015701Y033426D02*
X016052Y033426D01*
X015928Y033267D02*
X015825Y033267D01*
X015877Y033109D02*
X015877Y033109D01*
X015877Y032950D02*
X015877Y032950D01*
X015877Y032792D02*
X015877Y032792D01*
X015877Y032633D02*
X015877Y032633D01*
X015877Y032475D02*
X015877Y032475D01*
X015921Y032316D02*
X015832Y032316D01*
X015718Y032158D02*
X016035Y032158D01*
X016718Y032158D02*
X017035Y032158D01*
X016921Y032316D02*
X016832Y032316D01*
X016877Y032475D02*
X016877Y032475D01*
X016877Y032633D02*
X016877Y032633D01*
X016877Y032792D02*
X016877Y032792D01*
X016877Y032950D02*
X016877Y032950D01*
X016877Y033109D02*
X016877Y033109D01*
X016825Y033267D02*
X016928Y033267D01*
X017052Y033426D02*
X016701Y033426D01*
X017701Y033426D02*
X018052Y033426D01*
X017928Y033267D02*
X017825Y033267D01*
X017877Y033109D02*
X017877Y033109D01*
X017877Y032950D02*
X017877Y032950D01*
X017877Y032792D02*
X017877Y032792D01*
X017877Y032633D02*
X017877Y032633D01*
X017877Y032475D02*
X017877Y032475D01*
X017921Y032316D02*
X017832Y032316D01*
X017718Y032158D02*
X018035Y032158D01*
X018718Y032158D02*
X019035Y032158D01*
X018921Y032316D02*
X018832Y032316D01*
X018877Y032475D02*
X018877Y032475D01*
X018877Y032633D02*
X018877Y032633D01*
X018877Y032792D02*
X018877Y032792D01*
X018877Y032950D02*
X018877Y032950D01*
X018877Y033109D02*
X018877Y033109D01*
X018825Y033267D02*
X018928Y033267D01*
X019052Y033426D02*
X018701Y033426D01*
X019701Y033426D02*
X020052Y033426D01*
X019928Y033267D02*
X019825Y033267D01*
X019877Y033109D02*
X019877Y033109D01*
X019877Y032950D02*
X019877Y032950D01*
X019877Y032792D02*
X019877Y032792D01*
X019877Y032633D02*
X019877Y032633D01*
X019877Y032475D02*
X019877Y032475D01*
X019921Y032316D02*
X019832Y032316D01*
X019718Y032158D02*
X020035Y032158D01*
X020718Y032158D02*
X021131Y032158D01*
X021146Y032147D02*
X021208Y032116D01*
X021274Y032094D01*
X021342Y032083D01*
X021377Y032083D01*
X021377Y032783D01*
X021377Y032783D01*
X020937Y032783D01*
X020937Y032489D01*
X020948Y032420D01*
X020969Y032354D01*
X021000Y032293D01*
X021041Y032237D01*
X021090Y032188D01*
X021146Y032147D01*
X021377Y032158D02*
X021377Y032158D01*
X021377Y032316D02*
X021377Y032316D01*
X021377Y032475D02*
X021377Y032475D01*
X021377Y032633D02*
X021377Y032633D01*
X021377Y032783D02*
X021377Y032783D01*
X021377Y032783D01*
X020937Y032783D01*
X020937Y033078D01*
X020948Y033146D01*
X020969Y033212D01*
X021000Y033274D01*
X021041Y033330D01*
X021090Y033379D01*
X021146Y033420D01*
X021208Y033451D01*
X021274Y033472D01*
X021342Y033483D01*
X021377Y033483D01*
X021377Y032783D01*
X021377Y032792D02*
X021377Y032792D01*
X021377Y032950D02*
X021377Y032950D01*
X021377Y033109D02*
X021377Y033109D01*
X021377Y033267D02*
X021377Y033267D01*
X021377Y033426D02*
X021377Y033426D01*
X021595Y033426D02*
X021767Y033426D01*
X021767Y033584D02*
X013987Y033584D01*
X013987Y033426D02*
X014052Y033426D01*
X013987Y033743D02*
X021767Y033743D01*
X021767Y033901D02*
X013987Y033901D01*
X013987Y034060D02*
X021767Y034060D01*
X021767Y034218D02*
X013987Y034218D01*
X013987Y034377D02*
X021767Y034377D01*
X021767Y034535D02*
X013987Y034535D01*
X013987Y034694D02*
X021767Y034694D01*
X021767Y034852D02*
X013987Y034852D01*
X013987Y035011D02*
X021767Y035011D01*
X021767Y035169D02*
X021730Y035169D01*
X021024Y035169D02*
X020638Y035169D01*
X020663Y035188D02*
X020607Y035147D01*
X020546Y035116D01*
X020480Y035094D01*
X020411Y035083D01*
X020377Y035083D01*
X020377Y035783D01*
X020377Y035783D01*
X020817Y035783D01*
X020817Y035489D01*
X020806Y035420D01*
X020784Y035354D01*
X020753Y035293D01*
X020712Y035237D01*
X020663Y035188D01*
X020771Y035328D02*
X020916Y035328D01*
X020877Y035486D02*
X020816Y035486D01*
X020817Y035645D02*
X020877Y035645D01*
X020817Y035783D02*
X020817Y036078D01*
X020806Y036146D01*
X020784Y036212D01*
X020753Y036274D01*
X020712Y036330D01*
X020663Y036379D01*
X020607Y036420D01*
X020546Y036451D01*
X020480Y036472D01*
X020411Y036483D01*
X020377Y036483D01*
X020377Y035783D01*
X020377Y035783D01*
X020817Y035783D01*
X020817Y035803D02*
X020877Y035803D01*
X020877Y035962D02*
X020817Y035962D01*
X020810Y036120D02*
X020877Y036120D01*
X020933Y036279D02*
X020749Y036279D01*
X020573Y036437D02*
X021064Y036437D01*
X021110Y036913D02*
X021770Y036913D01*
X021767Y036754D02*
X014877Y036754D01*
X014877Y036596D02*
X021767Y036596D01*
X021767Y036437D02*
X021690Y036437D01*
X021836Y037071D02*
X021267Y037071D01*
X021267Y037230D02*
X021961Y037230D01*
X021860Y037129D02*
X021860Y037129D01*
X021565Y037388D02*
X021267Y037388D01*
X021217Y037547D02*
X021406Y037547D01*
X021377Y037705D02*
X021059Y037705D01*
X021377Y037864D02*
X019450Y037864D01*
X019447Y038022D02*
X021409Y038022D01*
X021517Y038181D02*
X019447Y038181D01*
X019447Y038339D02*
X021517Y038339D01*
X021517Y038498D02*
X019447Y038498D01*
X019447Y038656D02*
X021517Y038656D01*
X021517Y038815D02*
X019447Y038815D01*
X019447Y038973D02*
X021517Y038973D01*
X021517Y039132D02*
X019447Y039132D01*
X019447Y039290D02*
X021432Y039290D01*
X022237Y039132D02*
X022561Y039132D01*
X022432Y039290D02*
X022321Y039290D01*
X022377Y039449D02*
X022377Y039449D01*
X022377Y039607D02*
X022377Y039607D01*
X022377Y039766D02*
X022377Y039766D01*
X022377Y039924D02*
X022377Y039924D01*
X022377Y040083D02*
X022377Y040083D01*
X022336Y040241D02*
X022418Y040241D01*
X022526Y040400D02*
X022227Y040400D01*
X021526Y040400D02*
X020737Y040400D01*
X020737Y040558D02*
X024596Y040558D01*
X024613Y040611D02*
X024613Y040611D01*
X024690Y040717D02*
X020737Y040717D01*
X020737Y040875D02*
X024813Y040875D01*
X024796Y040864D02*
X024796Y040864D01*
X024526Y040400D02*
X024227Y040400D01*
X024336Y040241D02*
X024418Y040241D01*
X024377Y040083D02*
X024377Y040083D01*
X024377Y039924D02*
X024377Y039924D01*
X024377Y039766D02*
X024377Y039766D01*
X024377Y039607D02*
X024377Y039607D01*
X023779Y038973D02*
X022237Y038973D01*
X022237Y038815D02*
X023016Y038815D01*
X022890Y038762D02*
X022890Y038762D01*
X022783Y038656D02*
X022237Y038656D01*
X022237Y038498D02*
X022638Y038498D01*
X022648Y038520D02*
X022648Y038520D01*
X022573Y038339D02*
X022237Y038339D01*
X022237Y038181D02*
X022517Y038181D01*
X022517Y038022D02*
X022345Y038022D01*
X022377Y037864D02*
X022517Y037864D01*
X022517Y037705D02*
X022377Y037705D01*
X022347Y037547D02*
X022517Y037547D01*
X022243Y037388D02*
X022189Y037388D01*
X022743Y036754D02*
X022877Y036754D01*
X022864Y036804D02*
X022864Y036804D01*
X022877Y036596D02*
X022487Y036596D01*
X022487Y036437D02*
X023016Y036437D01*
X022487Y036279D02*
X033127Y036279D01*
X033127Y036437D02*
X025238Y036437D01*
X025377Y036596D02*
X033232Y036596D01*
X033391Y036754D02*
X025377Y036754D01*
X025377Y036913D02*
X026547Y036913D01*
X026389Y037071D02*
X025296Y037071D01*
X025137Y037230D02*
X026382Y037230D01*
X026382Y037283D02*
X026877Y037283D01*
X026877Y037283D01*
X026382Y037283D01*
X026382Y037388D02*
X024189Y037388D01*
X024347Y037547D02*
X026440Y037547D01*
X026599Y037705D02*
X024377Y037705D01*
X024377Y037864D02*
X026511Y037864D01*
X026877Y037230D02*
X026877Y037230D01*
X026877Y037071D02*
X026877Y037071D01*
X026877Y036913D02*
X026877Y036913D01*
X027206Y036913D02*
X039183Y036913D01*
X039080Y037071D02*
X027365Y037071D01*
X027372Y037230D02*
X039037Y037230D01*
X039037Y037388D02*
X037189Y037388D01*
X037347Y037547D02*
X039101Y037547D01*
X039235Y037705D02*
X037377Y037705D01*
X036565Y037388D02*
X027372Y037388D01*
X027313Y037547D02*
X036406Y037547D01*
X036409Y038022D02*
X036323Y038022D01*
X036377Y038181D02*
X036567Y038181D01*
X036211Y038656D02*
X037377Y038656D01*
X037365Y038815D02*
X037377Y038815D01*
X036888Y038815D02*
X035237Y038815D01*
X035237Y038973D02*
X036585Y038973D01*
X036390Y039054D02*
X036390Y039054D01*
X036312Y039132D02*
X035237Y039132D01*
X035321Y039290D02*
X036153Y039290D01*
X036148Y039296D02*
X036148Y039296D01*
X036004Y039449D02*
X035377Y039449D01*
X035377Y039607D02*
X035877Y039607D01*
X035877Y039766D02*
X035377Y039766D01*
X035377Y039924D02*
X035877Y039924D01*
X035969Y040083D02*
X035377Y040083D01*
X035336Y040241D02*
X036128Y040241D01*
X036626Y040241D02*
X039037Y040241D01*
X039040Y040400D02*
X035227Y040400D01*
X035944Y041509D02*
X030046Y041509D01*
X030142Y041668D02*
X035877Y041668D01*
X035877Y041826D02*
X030218Y041826D01*
X030266Y041926D02*
X030266Y041926D01*
X030276Y041985D02*
X035877Y041985D01*
X036030Y042143D02*
X035204Y042143D01*
X034550Y042143D02*
X034204Y042143D01*
X034326Y042302D02*
X034427Y042302D01*
X034377Y042460D02*
X034377Y042460D01*
X034377Y042619D02*
X034377Y042619D01*
X034377Y042777D02*
X034377Y042777D01*
X034377Y042936D02*
X034377Y042936D01*
X034377Y043094D02*
X034377Y043094D01*
X034331Y043253D02*
X034422Y043253D01*
X034538Y043411D02*
X034216Y043411D01*
X033538Y043411D02*
X033237Y043411D01*
X033331Y043253D02*
X033422Y043253D01*
X033377Y043094D02*
X033377Y043094D01*
X033377Y042936D02*
X033377Y042936D01*
X033377Y042777D02*
X033377Y042777D01*
X033377Y042619D02*
X033377Y042619D01*
X033377Y042460D02*
X033377Y042460D01*
X033427Y042302D02*
X033326Y042302D01*
X033204Y042143D02*
X033550Y042143D01*
X032550Y042143D02*
X032204Y042143D01*
X032326Y042302D02*
X032427Y042302D01*
X032377Y042424D02*
X032377Y043143D01*
X032377Y042424D01*
X032377Y042460D02*
X032377Y042460D01*
X032377Y042619D02*
X032377Y042619D01*
X032377Y042777D02*
X032377Y042777D01*
X032377Y042936D02*
X032377Y042936D01*
X032377Y043094D02*
X032377Y043094D01*
X032377Y043143D02*
X032301Y043327D01*
X032160Y043467D01*
X031976Y043543D01*
X031777Y043543D01*
X031593Y043467D01*
X031453Y043327D01*
X031377Y043143D01*
X031377Y042424D01*
X031377Y043143D01*
X031301Y043327D01*
X031237Y043390D01*
X031237Y045283D01*
X031239Y045311D01*
X031260Y045361D01*
X031299Y045400D01*
X031349Y045421D01*
X031377Y045423D01*
X031448Y045423D01*
X031545Y045463D01*
X031897Y045463D01*
X031897Y045303D01*
X032357Y045303D01*
X032357Y045263D01*
X032397Y045263D01*
X032397Y044803D01*
X032517Y044803D01*
X032517Y043390D01*
X032453Y043327D01*
X032377Y043143D01*
X032422Y043253D02*
X032331Y043253D01*
X032216Y043411D02*
X032517Y043411D01*
X032517Y043570D02*
X031237Y043570D01*
X031237Y043728D02*
X032517Y043728D01*
X032517Y043887D02*
X031237Y043887D01*
X031237Y044045D02*
X032517Y044045D01*
X032517Y044204D02*
X031237Y044204D01*
X031237Y044362D02*
X032517Y044362D01*
X032517Y044521D02*
X031237Y044521D01*
X031237Y044679D02*
X032517Y044679D01*
X032397Y044838D02*
X032357Y044838D01*
X032357Y044803D02*
X032357Y045263D01*
X031897Y045263D01*
X031897Y045085D01*
X032178Y044803D01*
X032357Y044803D01*
X032357Y044996D02*
X032397Y044996D01*
X032397Y045155D02*
X032357Y045155D01*
X032143Y044838D02*
X031237Y044838D01*
X031237Y044996D02*
X031985Y044996D01*
X031897Y045155D02*
X031237Y045155D01*
X031240Y045313D02*
X031897Y045313D01*
X031377Y045783D02*
X032877Y045783D01*
X032842Y046581D02*
X032911Y046581D01*
X033070Y046740D02*
X032684Y046740D01*
X032070Y046740D02*
X023377Y046740D01*
X023377Y046898D02*
X046267Y046898D01*
X046267Y046740D02*
X038600Y046740D01*
X038738Y046581D02*
X046267Y046581D01*
X046267Y046423D02*
X038777Y046423D01*
X038750Y046264D02*
X046267Y046264D01*
X046267Y046106D02*
X038640Y046106D01*
X038377Y046106D02*
X038377Y046106D01*
X038377Y046264D02*
X038377Y046264D01*
X038377Y046423D02*
X038377Y046423D01*
X038377Y046581D02*
X038377Y046581D01*
X038377Y046740D02*
X038377Y046740D01*
X038113Y046106D02*
X037676Y046106D01*
X036985Y046264D02*
X036393Y046264D01*
X036551Y046106D02*
X036827Y046106D01*
X036812Y045947D02*
X036567Y045947D01*
X036567Y045789D02*
X036812Y045789D01*
X036907Y045630D02*
X036471Y045630D01*
X036466Y045155D02*
X037984Y045155D01*
X038017Y044996D02*
X036487Y044996D01*
X036487Y044838D02*
X038017Y044838D01*
X037997Y044679D02*
X036487Y044679D01*
X036487Y044521D02*
X037925Y044521D01*
X037917Y044362D02*
X037505Y044362D01*
X036999Y044362D02*
X036487Y044362D01*
X036538Y044204D02*
X036840Y044204D01*
X036752Y044045D02*
X036627Y044045D01*
X036627Y043887D02*
X036752Y043887D01*
X036752Y043728D02*
X036627Y043728D01*
X036495Y043570D02*
X036883Y043570D01*
X037042Y043411D02*
X036337Y043411D01*
X037462Y043411D02*
X038063Y043411D01*
X038037Y042936D02*
X038511Y042936D01*
X038587Y042777D02*
X039874Y042777D01*
X040032Y042619D02*
X038972Y042619D01*
X039213Y042460D02*
X040052Y042460D01*
X040101Y042302D02*
X039427Y042302D01*
X039380Y042350D02*
X039380Y042350D01*
X039578Y042143D02*
X040204Y042143D01*
X040449Y041985D02*
X039730Y041985D01*
X039759Y041955D02*
X039759Y041955D01*
X040136Y041192D02*
X046267Y041192D01*
X046267Y041034D02*
X040188Y041034D01*
X040210Y040964D02*
X040210Y040964D01*
X040218Y040875D02*
X046267Y040875D01*
X042247Y040717D02*
X040507Y040717D01*
X040647Y040558D02*
X042106Y040558D01*
X042040Y040400D02*
X040713Y040400D01*
X040717Y040241D02*
X042037Y040241D01*
X042075Y040083D02*
X040678Y040083D01*
X040581Y039924D02*
X042172Y039924D01*
X042383Y039766D02*
X040338Y039766D01*
X039415Y039766D02*
X038317Y039766D01*
X038317Y039924D02*
X039172Y039924D01*
X039075Y040083D02*
X038199Y040083D01*
X037877Y040083D02*
X037877Y040083D01*
X037877Y040223D02*
X037694Y040223D01*
X037437Y039966D01*
X037437Y039783D01*
X037877Y039783D01*
X037877Y039783D01*
X037877Y039783D01*
X037877Y040223D01*
X037877Y039924D02*
X037877Y039924D01*
X037877Y039766D02*
X037877Y039766D01*
X037877Y039607D02*
X037877Y039607D01*
X037877Y039449D02*
X037877Y039449D01*
X038164Y039449D02*
X042141Y039449D01*
X042291Y039607D02*
X038317Y039607D01*
X037627Y039290D02*
X041917Y039290D01*
X041455Y036596D02*
X043761Y036596D01*
X043767Y036437D02*
X041487Y036437D01*
X041487Y036279D02*
X043767Y036279D01*
X043767Y036120D02*
X041487Y036120D01*
X041487Y035962D02*
X043767Y035962D01*
X043767Y035803D02*
X043332Y035803D01*
X043284Y035823D02*
X043483Y035741D01*
X043634Y035589D01*
X043717Y035391D01*
X043717Y035176D01*
X043634Y034977D01*
X043483Y034826D01*
X043284Y034743D01*
X042469Y034743D01*
X042271Y034826D01*
X042119Y034977D01*
X042037Y035176D01*
X042037Y035391D01*
X042119Y035589D01*
X042271Y035741D01*
X042469Y035823D01*
X043284Y035823D01*
X043579Y035645D02*
X043767Y035645D01*
X043767Y035486D02*
X043677Y035486D01*
X043717Y035328D02*
X043767Y035328D01*
X043767Y035169D02*
X043714Y035169D01*
X043767Y035011D02*
X043648Y035011D01*
X043767Y034852D02*
X043509Y034852D01*
X043767Y034694D02*
X041487Y034694D01*
X041487Y034852D02*
X042244Y034852D01*
X042105Y035011D02*
X041487Y035011D01*
X041487Y035169D02*
X042039Y035169D01*
X042037Y035328D02*
X041487Y035328D01*
X041487Y035486D02*
X042076Y035486D01*
X042175Y035645D02*
X041487Y035645D01*
X041487Y035803D02*
X042421Y035803D01*
X043311Y036754D02*
X043692Y036754D01*
X043767Y034535D02*
X041487Y034535D01*
X041487Y034377D02*
X043767Y034377D01*
X043767Y034218D02*
X041487Y034218D01*
X041487Y034060D02*
X043767Y034060D01*
X043767Y033901D02*
X041487Y033901D01*
X041487Y033743D02*
X042275Y033743D01*
X042271Y033741D02*
X042119Y033589D01*
X042037Y033391D01*
X042037Y033176D01*
X042119Y032977D01*
X042271Y032826D01*
X042469Y032743D01*
X043284Y032743D01*
X043483Y032826D01*
X043634Y032977D01*
X043717Y033176D01*
X043717Y033391D01*
X043634Y033589D01*
X043483Y033741D01*
X043284Y033823D01*
X042469Y033823D01*
X042271Y033741D01*
X042117Y033584D02*
X041487Y033584D01*
X041487Y033426D02*
X042051Y033426D01*
X042037Y033267D02*
X041457Y033267D01*
X041421Y033109D02*
X042064Y033109D01*
X042146Y032950D02*
X041385Y032950D01*
X041313Y032792D02*
X042352Y032792D01*
X041922Y032475D02*
X041152Y032475D01*
X041237Y032633D02*
X043607Y032633D01*
X043698Y032792D02*
X043401Y032792D01*
X043607Y032950D02*
X043741Y032950D01*
X043765Y033109D02*
X043689Y033109D01*
X043717Y033267D02*
X043767Y033267D01*
X043767Y033426D02*
X043702Y033426D01*
X043767Y033584D02*
X043636Y033584D01*
X043767Y033743D02*
X043478Y033743D01*
X041763Y032316D02*
X041025Y032316D01*
X040899Y032158D02*
X041689Y032158D01*
X041637Y031999D02*
X040712Y031999D01*
X040617Y031841D02*
X041637Y031841D01*
X041659Y031682D02*
X040594Y031682D01*
X040529Y031524D02*
X041725Y031524D01*
X041848Y031365D02*
X040405Y031365D01*
X040177Y031207D02*
X042076Y031207D01*
X042108Y030573D02*
X040146Y030573D01*
X040392Y030414D02*
X041861Y030414D01*
X041730Y030256D02*
X040523Y030256D01*
X040589Y030097D02*
X041664Y030097D01*
X041637Y029939D02*
X040617Y029939D01*
X040617Y029780D02*
X041637Y029780D01*
X041684Y029622D02*
X040569Y029622D01*
X040503Y029463D02*
X041750Y029463D01*
X041909Y029305D02*
X040345Y029305D01*
X040031Y029146D02*
X042222Y029146D01*
X040338Y032633D02*
X038612Y032633D01*
X038704Y032792D02*
X039352Y032792D01*
X039146Y032950D02*
X038794Y032950D01*
X038837Y033109D02*
X039064Y033109D01*
X039037Y033267D02*
X038879Y033267D01*
X038897Y033426D02*
X039051Y033426D01*
X039117Y033584D02*
X038897Y033584D01*
X038897Y033743D02*
X039275Y033743D01*
X038897Y033901D02*
X040767Y033901D01*
X040767Y033743D02*
X040478Y033743D01*
X040636Y033584D02*
X040764Y033584D01*
X040746Y033426D02*
X040702Y033426D01*
X040472Y032792D02*
X040401Y032792D01*
X040767Y034060D02*
X038897Y034060D01*
X038897Y034218D02*
X040767Y034218D01*
X040767Y034377D02*
X038909Y034377D01*
X038973Y034535D02*
X040767Y034535D01*
X040767Y034694D02*
X039136Y034694D01*
X040509Y034852D02*
X040767Y034852D01*
X040767Y035011D02*
X040648Y035011D01*
X040714Y035169D02*
X040767Y035169D01*
X040767Y035328D02*
X040717Y035328D01*
X040677Y035486D02*
X040767Y035486D01*
X040767Y035645D02*
X040579Y035645D01*
X040767Y035803D02*
X040332Y035803D01*
X039443Y036754D02*
X035113Y036754D01*
X035084Y036783D02*
X034670Y036783D01*
X034377Y036490D01*
X034377Y036076D01*
X034670Y035783D01*
X035084Y035783D01*
X035377Y036076D01*
X035377Y036490D01*
X035084Y036783D01*
X035271Y036596D02*
X035567Y036596D01*
X035437Y036437D02*
X035377Y036437D01*
X035377Y036279D02*
X035437Y036279D01*
X035437Y036120D02*
X035377Y036120D01*
X035262Y035962D02*
X035576Y035962D01*
X035104Y035803D02*
X036377Y035803D01*
X036377Y035645D02*
X034251Y035645D01*
X034397Y035486D02*
X036467Y035486D01*
X036625Y035328D02*
X034397Y035328D01*
X034397Y035169D02*
X036767Y035169D01*
X036767Y035011D02*
X034340Y035011D01*
X034408Y034852D02*
X036767Y034852D01*
X036767Y034694D02*
X036673Y034694D01*
X036080Y034694D02*
X034645Y034694D01*
X034247Y034060D02*
X031877Y034060D01*
X031958Y033901D02*
X036052Y033901D01*
X036194Y033723D02*
X035937Y033466D01*
X035937Y033283D01*
X036377Y033283D01*
X036377Y033283D01*
X036377Y033283D01*
X036377Y033723D01*
X036194Y033723D01*
X036055Y033584D02*
X032110Y033584D01*
X032151Y033426D02*
X035937Y033426D01*
X035937Y033267D02*
X033067Y033267D01*
X033287Y033109D02*
X035937Y033109D01*
X036377Y033426D02*
X036377Y033426D01*
X036377Y033584D02*
X036377Y033584D01*
X036627Y033743D02*
X032034Y033743D01*
X031751Y034218D02*
X034029Y034218D01*
X033903Y034310D02*
X033903Y034310D01*
X033854Y034377D02*
X031624Y034377D01*
X031465Y034535D02*
X033739Y034535D01*
X033650Y034658D02*
X033650Y034658D01*
X033638Y034694D02*
X031266Y034694D01*
X031020Y034852D02*
X033572Y034852D01*
X033414Y035011D02*
X030690Y035011D01*
X030219Y034377D02*
X027255Y034377D01*
X026498Y034377D02*
X025177Y034377D01*
X024576Y034377D02*
X023592Y034377D01*
X023559Y034343D02*
X023817Y034601D01*
X023817Y034783D01*
X023377Y034783D01*
X023377Y034783D01*
X023377Y034343D01*
X023559Y034343D01*
X023377Y034343D02*
X023377Y034783D01*
X023377Y034783D01*
X023817Y034783D01*
X023817Y034966D01*
X023559Y035223D01*
X023377Y035223D01*
X023377Y034783D01*
X022937Y034783D01*
X022937Y034601D01*
X023194Y034343D01*
X023377Y034343D01*
X023377Y034377D02*
X023377Y034377D01*
X023377Y034535D02*
X023377Y034535D01*
X023377Y034694D02*
X023377Y034694D01*
X023377Y034783D02*
X023377Y034783D01*
X023377Y034783D01*
X022937Y034783D01*
X022937Y034966D01*
X023194Y035223D01*
X023377Y035223D01*
X023377Y034783D01*
X023377Y034852D02*
X023377Y034852D01*
X023377Y035011D02*
X023377Y035011D01*
X023377Y035169D02*
X023377Y035169D01*
X023613Y035169D02*
X024556Y035169D01*
X024397Y035011D02*
X023771Y035011D01*
X023817Y034852D02*
X024377Y034852D01*
X024377Y034694D02*
X023817Y034694D01*
X023751Y034535D02*
X024418Y034535D01*
X025198Y035169D02*
X026478Y035169D01*
X026632Y035328D02*
X022487Y035328D01*
X022487Y035486D02*
X026474Y035486D01*
X026382Y035645D02*
X022487Y035645D01*
X022487Y035803D02*
X026382Y035803D01*
X026382Y035783D02*
X026877Y035783D01*
X026877Y035338D01*
X026877Y035338D01*
X026877Y035783D01*
X026877Y035783D01*
X027372Y035783D01*
X027372Y035988D01*
X027082Y036278D01*
X026877Y036278D01*
X026877Y035783D01*
X026877Y035783D01*
X026877Y035783D01*
X026877Y036278D01*
X026672Y036278D01*
X026382Y035988D01*
X026382Y035783D01*
X026382Y035962D02*
X022487Y035962D01*
X022487Y036120D02*
X026514Y036120D01*
X026877Y036120D02*
X026877Y036120D01*
X026877Y035962D02*
X026877Y035962D01*
X026877Y035803D02*
X026877Y035803D01*
X026877Y035645D02*
X026877Y035645D01*
X026877Y035486D02*
X026877Y035486D01*
X027121Y035328D02*
X033357Y035328D01*
X033357Y035486D02*
X027280Y035486D01*
X027372Y035645D02*
X033503Y035645D01*
X033400Y035803D02*
X027372Y035803D01*
X027372Y035962D02*
X033241Y035962D01*
X033127Y036120D02*
X027240Y036120D01*
X027276Y035169D02*
X033357Y035169D01*
X033854Y035803D02*
X034650Y035803D01*
X034491Y035962D02*
X034012Y035962D01*
X034127Y036120D02*
X034377Y036120D01*
X034377Y036279D02*
X034127Y036279D01*
X034127Y036437D02*
X034377Y036437D01*
X034482Y036596D02*
X034021Y036596D01*
X033863Y036754D02*
X034641Y036754D01*
X033339Y037864D02*
X031164Y037864D01*
X031310Y038022D02*
X033181Y038022D01*
X032980Y038181D02*
X031375Y038181D01*
X031377Y038339D02*
X032808Y038339D01*
X032861Y038267D02*
X032861Y038267D01*
X032861Y038267D01*
X032693Y038498D02*
X031329Y038498D01*
X031211Y038656D02*
X032624Y038656D01*
X032877Y039033D02*
X032877Y039783D01*
X033377Y039766D02*
X033377Y039766D01*
X033377Y039924D02*
X033377Y039924D01*
X033377Y040083D02*
X033377Y040083D01*
X033336Y040241D02*
X033418Y040241D01*
X033526Y040400D02*
X033227Y040400D01*
X032526Y040400D02*
X032227Y040400D01*
X032336Y040241D02*
X032418Y040241D01*
X032377Y040083D02*
X032377Y040083D01*
X032377Y039924D02*
X032377Y039924D01*
X032377Y039766D02*
X032377Y039766D01*
X032377Y039607D02*
X032377Y039607D01*
X032377Y039449D02*
X032377Y039449D01*
X032321Y039290D02*
X032432Y039290D01*
X032557Y039132D02*
X032192Y039132D01*
X031561Y039132D02*
X031192Y039132D01*
X031321Y039290D02*
X031432Y039290D01*
X031377Y039449D02*
X031377Y039449D01*
X031377Y039607D02*
X031377Y039607D01*
X031377Y039766D02*
X031377Y039766D01*
X031377Y039924D02*
X031377Y039924D01*
X031377Y040083D02*
X031377Y040083D01*
X031336Y040241D02*
X031418Y040241D01*
X031526Y040400D02*
X031227Y040400D01*
X030526Y040400D02*
X030227Y040400D01*
X030336Y040241D02*
X030418Y040241D01*
X030377Y040083D02*
X030377Y040083D01*
X030377Y039924D02*
X030377Y039924D01*
X030377Y039766D02*
X030377Y039766D01*
X030377Y039607D02*
X030377Y039607D01*
X030377Y039449D02*
X030377Y039449D01*
X030321Y039290D02*
X030432Y039290D01*
X030561Y039132D02*
X030192Y039132D01*
X030211Y038656D02*
X030543Y038656D01*
X030424Y038498D02*
X030329Y038498D01*
X030377Y038339D02*
X030377Y038339D01*
X030375Y038181D02*
X030378Y038181D01*
X030310Y038022D02*
X030444Y038022D01*
X030589Y037864D02*
X030164Y037864D01*
X027056Y038815D02*
X027044Y038815D01*
X026561Y039132D02*
X026192Y039132D01*
X026321Y039290D02*
X026432Y039290D01*
X026377Y039424D02*
X026377Y040143D01*
X026453Y040327D01*
X026453Y040327D01*
X026439Y040346D01*
X026372Y040394D01*
X026293Y040420D01*
X026252Y040423D01*
X026204Y040423D01*
X026301Y040327D01*
X026377Y040143D01*
X026377Y039424D01*
X026377Y039449D02*
X026377Y039449D01*
X026377Y039607D02*
X026377Y039607D01*
X026377Y039766D02*
X026377Y039766D01*
X026377Y039924D02*
X026377Y039924D01*
X026377Y040083D02*
X026377Y040083D01*
X026336Y040241D02*
X026418Y040241D01*
X026355Y040400D02*
X026227Y040400D01*
X026957Y040864D02*
X026957Y040864D01*
X026957Y040864D01*
X029038Y041668D02*
X020737Y041668D01*
X020737Y041826D02*
X029354Y041826D01*
X029488Y041985D02*
X020737Y041985D01*
X020737Y042143D02*
X021550Y042143D01*
X021427Y042302D02*
X020737Y042302D01*
X020737Y042460D02*
X021377Y042460D01*
X021377Y042619D02*
X020737Y042619D01*
X020737Y042777D02*
X021377Y042777D01*
X021377Y042936D02*
X020737Y042936D01*
X020737Y043094D02*
X021377Y043094D01*
X021422Y043253D02*
X020737Y043253D01*
X020737Y043411D02*
X021062Y043411D01*
X020983Y043444D02*
X020983Y043444D01*
X020857Y043570D02*
X020737Y043570D01*
X020787Y043640D02*
X020787Y043640D01*
X020751Y043728D02*
X020737Y043728D01*
X021002Y044033D02*
X021002Y044283D01*
X021002Y044033D02*
X021004Y043996D01*
X021009Y043960D01*
X021018Y043924D01*
X021031Y043889D01*
X021046Y043856D01*
X021065Y043825D01*
X021087Y043795D01*
X021112Y043768D01*
X021139Y043743D01*
X021169Y043721D01*
X021200Y043702D01*
X021233Y043687D01*
X021268Y043674D01*
X021304Y043665D01*
X021340Y043660D01*
X021377Y043658D01*
X022377Y043658D01*
X022377Y043338D02*
X022412Y043335D01*
X022450Y043319D01*
X022377Y043143D01*
X022377Y042424D01*
X022377Y043143D01*
X022301Y043327D01*
X022289Y043338D01*
X022377Y043338D01*
X022331Y043253D02*
X022422Y043253D01*
X022377Y043658D02*
X022421Y043656D01*
X022464Y043650D01*
X022506Y043641D01*
X022548Y043628D01*
X022588Y043611D01*
X022627Y043591D01*
X022664Y043568D01*
X022698Y043541D01*
X022731Y043512D01*
X022760Y043479D01*
X022787Y043445D01*
X022810Y043408D01*
X022830Y043369D01*
X022847Y043329D01*
X022860Y043287D01*
X022869Y043245D01*
X022875Y043202D01*
X022877Y043158D01*
X022877Y042783D01*
X023377Y042777D02*
X023377Y042777D01*
X023377Y042619D02*
X023377Y042619D01*
X023377Y042460D02*
X023377Y042460D01*
X023377Y042424D02*
X023377Y043143D01*
X023437Y043287D01*
X023313Y043502D01*
X023095Y043719D01*
X023095Y043719D01*
X022828Y043874D01*
X022728Y043900D01*
X022841Y043853D01*
X022841Y043853D01*
X023072Y043623D01*
X023072Y043623D01*
X023131Y043479D01*
X023160Y043467D01*
X023301Y043327D01*
X023377Y043143D01*
X023377Y042424D01*
X023427Y042302D02*
X023326Y042302D01*
X023204Y042143D02*
X023550Y042143D01*
X024204Y042143D02*
X024550Y042143D01*
X024427Y042302D02*
X024326Y042302D01*
X024377Y042424D02*
X024377Y042995D01*
X024377Y042995D01*
X024377Y042424D01*
X024377Y042460D02*
X024377Y042460D01*
X024377Y042619D02*
X024377Y042619D01*
X024377Y042777D02*
X024377Y042777D01*
X024377Y042936D02*
X024377Y042936D01*
X024502Y043408D02*
X024877Y042783D01*
X023422Y043253D02*
X023331Y043253D01*
X023365Y043411D02*
X023216Y043411D01*
X023245Y043570D02*
X023094Y043570D01*
X023080Y043728D02*
X022966Y043728D01*
X022778Y043887D02*
X022761Y043887D01*
X022377Y044283D02*
X021877Y044283D01*
X022264Y044603D02*
X022084Y044783D01*
X021670Y044783D01*
X021439Y044553D01*
X021209Y044783D01*
X020795Y044783D01*
X020737Y044725D01*
X020737Y045084D01*
X020776Y045137D01*
X020835Y045179D01*
X020904Y045201D01*
X020977Y045201D01*
X021007Y045193D01*
X021055Y045173D01*
X021068Y045173D01*
X021081Y045169D01*
X021139Y045173D01*
X022560Y045173D01*
X022377Y044990D01*
X022377Y044603D01*
X022264Y044603D01*
X022188Y044679D02*
X022377Y044679D01*
X022377Y044838D02*
X020737Y044838D01*
X020737Y044996D02*
X022383Y044996D01*
X022541Y045155D02*
X020801Y045155D01*
X021313Y044679D02*
X021566Y044679D01*
X021439Y044014D02*
X021404Y043978D01*
X021475Y043978D01*
X021439Y044014D01*
X022377Y043094D02*
X022377Y043094D01*
X022377Y042936D02*
X022377Y042936D01*
X022377Y044283D02*
X022453Y044281D01*
X022529Y044275D01*
X022604Y044266D01*
X022679Y044252D01*
X022753Y044235D01*
X022826Y044214D01*
X022898Y044190D01*
X022969Y044161D01*
X023038Y044130D01*
X023105Y044095D01*
X023170Y044056D01*
X023234Y044014D01*
X023295Y043969D01*
X023354Y043921D01*
X023410Y043870D01*
X023464Y043816D01*
X023515Y043760D01*
X023563Y043701D01*
X023608Y043640D01*
X023650Y043576D01*
X023689Y043511D01*
X023724Y043444D01*
X023755Y043375D01*
X023784Y043304D01*
X023808Y043232D01*
X023829Y043159D01*
X023846Y043085D01*
X023860Y043010D01*
X023869Y042935D01*
X023875Y042859D01*
X023877Y042783D01*
X023377Y042936D02*
X023377Y042936D01*
X023377Y043094D02*
X023377Y043094D01*
X022377Y042777D02*
X022377Y042777D01*
X022377Y042619D02*
X022377Y042619D01*
X022377Y042460D02*
X022377Y042460D01*
X022427Y042302D02*
X022326Y042302D01*
X022204Y042143D02*
X022550Y042143D01*
X024502Y043408D02*
X024442Y043505D01*
X024378Y043600D01*
X024311Y043692D01*
X024241Y043782D01*
X024168Y043870D01*
X024092Y043955D01*
X024013Y044037D01*
X023931Y044117D01*
X023847Y044193D01*
X023760Y044267D01*
X023670Y044338D01*
X023578Y044405D01*
X023484Y044469D01*
X023388Y044530D01*
X023289Y044588D01*
X023189Y044642D01*
X023086Y044693D01*
X022983Y044740D01*
X022877Y044784D01*
X023212Y045155D02*
X024124Y045155D01*
X024131Y045173D02*
X024087Y045066D01*
X024087Y044409D01*
X023782Y044667D01*
X023377Y044909D01*
X023377Y044990D01*
X023194Y045173D01*
X024131Y045173D01*
X024087Y044996D02*
X023371Y044996D01*
X023496Y044838D02*
X024087Y044838D01*
X024087Y044679D02*
X023762Y044679D01*
X023782Y044667D02*
X023782Y044667D01*
X023955Y044521D02*
X024087Y044521D01*
X025127Y045162D02*
X025131Y045173D01*
X025122Y045173D01*
X025127Y045162D01*
X023310Y047057D02*
X046267Y047057D01*
X046267Y047215D02*
X023152Y047215D01*
X022918Y047374D02*
X046267Y047374D01*
X046267Y047532D02*
X022679Y047532D01*
X022377Y046898D02*
X022103Y046898D01*
X022091Y046927D02*
X022091Y046927D01*
X022168Y046740D02*
X022377Y046740D01*
X021877Y046533D02*
X021877Y046283D01*
X021877Y046533D02*
X021875Y046570D01*
X021870Y046606D01*
X021861Y046642D01*
X021848Y046677D01*
X021833Y046710D01*
X021814Y046741D01*
X021792Y046771D01*
X021767Y046798D01*
X021740Y046823D01*
X021710Y046845D01*
X021679Y046864D01*
X021646Y046879D01*
X021611Y046892D01*
X021575Y046901D01*
X021539Y046906D01*
X021502Y046908D01*
X019002Y046908D01*
X018965Y046906D01*
X018929Y046901D01*
X018893Y046892D01*
X018858Y046879D01*
X018825Y046864D01*
X018794Y046845D01*
X018764Y046823D01*
X018737Y046798D01*
X018712Y046771D01*
X018690Y046741D01*
X018671Y046710D01*
X018656Y046677D01*
X018643Y046642D01*
X018634Y046606D01*
X018629Y046570D01*
X018627Y046533D01*
X018752Y046533D01*
X018789Y046531D01*
X018825Y046526D01*
X018861Y046517D01*
X018896Y046504D01*
X018929Y046489D01*
X018960Y046470D01*
X018990Y046448D01*
X019017Y046423D01*
X019042Y046396D01*
X019064Y046366D01*
X019083Y046335D01*
X019098Y046302D01*
X019111Y046267D01*
X019120Y046231D01*
X019125Y046195D01*
X019127Y046158D01*
X019127Y037908D01*
X018824Y037705D02*
X018767Y037705D01*
X018803Y037732D02*
X018803Y037732D01*
X018803Y037732D01*
X018875Y037547D02*
X018533Y037547D01*
X018561Y037556D02*
X018561Y037556D01*
X018899Y037474D02*
X018899Y037474D01*
X018961Y037388D02*
X014697Y037388D01*
X014377Y037408D02*
X014379Y037445D01*
X014384Y037481D01*
X014393Y037517D01*
X014406Y037552D01*
X014421Y037585D01*
X014440Y037616D01*
X014462Y037646D01*
X014487Y037673D01*
X014514Y037698D01*
X014544Y037720D01*
X014575Y037739D01*
X014608Y037754D01*
X014643Y037767D01*
X014679Y037776D01*
X014715Y037781D01*
X014752Y037783D01*
X018127Y037783D01*
X018326Y038181D02*
X013322Y038181D01*
X012682Y038181D02*
X011857Y038181D01*
X011857Y038339D02*
X012682Y038339D01*
X012682Y038498D02*
X011857Y038498D01*
X011857Y038656D02*
X012682Y038656D01*
X012682Y038815D02*
X011857Y038815D01*
X011857Y038973D02*
X012682Y038973D01*
X012682Y039132D02*
X011857Y039132D01*
X011857Y039290D02*
X012682Y039290D01*
X012682Y039449D02*
X011857Y039449D01*
X011857Y039607D02*
X012682Y039607D01*
X012682Y039766D02*
X011857Y039766D01*
X011857Y039924D02*
X012682Y039924D01*
X012682Y040083D02*
X011857Y040083D01*
X011857Y040241D02*
X012682Y040241D01*
X012682Y040400D02*
X011857Y040400D01*
X011857Y040558D02*
X012682Y040558D01*
X012682Y040717D02*
X011857Y040717D01*
X011857Y040875D02*
X012682Y040875D01*
X012682Y041034D02*
X011857Y041034D01*
X011857Y041192D02*
X012682Y041192D01*
X012682Y041351D02*
X011857Y041351D01*
X011857Y041509D02*
X012682Y041509D01*
X012682Y041668D02*
X011857Y041668D01*
X011857Y041826D02*
X012682Y041826D01*
X012682Y041985D02*
X011857Y041985D01*
X011857Y042143D02*
X012682Y042143D01*
X012682Y042302D02*
X011857Y042302D01*
X011857Y042460D02*
X012682Y042460D01*
X012682Y042619D02*
X011857Y042619D01*
X011857Y042777D02*
X012682Y042777D01*
X012682Y042936D02*
X011857Y042936D01*
X011857Y043094D02*
X012682Y043094D01*
X012682Y043253D02*
X011857Y043253D01*
X011857Y043411D02*
X012682Y043411D01*
X012682Y043570D02*
X011857Y043570D01*
X011857Y043728D02*
X012682Y043728D01*
X012682Y043887D02*
X011857Y043887D01*
X011857Y044045D02*
X012682Y044045D01*
X012682Y044204D02*
X011857Y044204D01*
X011857Y044362D02*
X012682Y044362D01*
X012682Y044521D02*
X011857Y044521D01*
X011857Y044679D02*
X012682Y044679D01*
X012682Y044838D02*
X011857Y044838D01*
X011857Y044996D02*
X012682Y044996D01*
X012682Y045155D02*
X011857Y045155D01*
X011857Y045313D02*
X012682Y045313D01*
X012682Y045472D02*
X011857Y045472D01*
X011857Y045630D02*
X012682Y045630D01*
X012682Y045789D02*
X011857Y045789D01*
X011857Y045947D02*
X012682Y045947D01*
X012682Y046106D02*
X011857Y046106D01*
X011857Y046264D02*
X012682Y046264D01*
X012682Y046423D02*
X011857Y046423D01*
X011857Y046581D02*
X012682Y046581D01*
X012682Y046740D02*
X011857Y046740D01*
X011857Y046898D02*
X012682Y046898D01*
X012686Y047057D02*
X011857Y047057D01*
X011857Y047215D02*
X012752Y047215D01*
X012787Y047302D02*
X012787Y047302D01*
X012859Y047374D02*
X011857Y047374D01*
X011857Y047532D02*
X013067Y047532D01*
X012983Y047498D02*
X012983Y047498D01*
X013322Y046908D02*
X013322Y035378D01*
X013375Y035544D01*
X013375Y035544D01*
X013582Y035828D01*
X013582Y035828D01*
X013866Y036035D01*
X013866Y036035D01*
X013877Y036038D01*
X013877Y036143D01*
X013953Y036327D01*
X014017Y036390D01*
X014017Y036436D01*
X013877Y036576D01*
X013877Y036990D01*
X014057Y037170D01*
X014057Y037547D01*
X014057Y037388D02*
X013322Y037388D01*
X013322Y037230D02*
X014057Y037230D01*
X013958Y037071D02*
X013322Y037071D01*
X013322Y036913D02*
X013877Y036913D01*
X013877Y036754D02*
X013322Y036754D01*
X013322Y036596D02*
X013877Y036596D01*
X014016Y036437D02*
X013322Y036437D01*
X013322Y036279D02*
X013933Y036279D01*
X013877Y036120D02*
X013322Y036120D01*
X013322Y035962D02*
X013766Y035962D01*
X013582Y035828D02*
X013582Y035828D01*
X013564Y035803D02*
X013322Y035803D01*
X013322Y035645D02*
X013449Y035645D01*
X013357Y035486D02*
X013322Y035486D01*
X012682Y035486D02*
X011857Y035486D01*
X011857Y035328D02*
X012682Y035328D01*
X012682Y035169D02*
X011857Y035169D01*
X011857Y035011D02*
X012682Y035011D01*
X012682Y034852D02*
X011857Y034852D01*
X011857Y034694D02*
X012682Y034694D01*
X012682Y034535D02*
X011857Y034535D01*
X011857Y034377D02*
X012682Y034377D01*
X012682Y034218D02*
X011857Y034218D01*
X011857Y034060D02*
X012682Y034060D01*
X012682Y033901D02*
X011857Y033901D01*
X011857Y033743D02*
X012682Y033743D01*
X012682Y033584D02*
X011857Y033584D01*
X011857Y033426D02*
X012682Y033426D01*
X012682Y033267D02*
X011857Y033267D01*
X011857Y033109D02*
X012682Y033109D01*
X012682Y032950D02*
X011857Y032950D01*
X011857Y032792D02*
X012682Y032792D01*
X012682Y032633D02*
X011857Y032633D01*
X011857Y032475D02*
X012682Y032475D01*
X012682Y032316D02*
X011857Y032316D01*
X011857Y032158D02*
X012682Y032158D01*
X012682Y031999D02*
X011857Y031999D01*
X011857Y031841D02*
X012682Y031841D01*
X012682Y031682D02*
X011857Y031682D01*
X011857Y031524D02*
X012682Y031524D01*
X012682Y031365D02*
X011857Y031365D01*
X011857Y031207D02*
X012682Y031207D01*
X012682Y031048D02*
X011857Y031048D01*
X011857Y030890D02*
X012682Y030890D01*
X012682Y030731D02*
X011857Y030731D01*
X011857Y030573D02*
X012682Y030573D01*
X012682Y030414D02*
X011857Y030414D01*
X011857Y030256D02*
X012682Y030256D01*
X012682Y030097D02*
X011857Y030097D01*
X011857Y029939D02*
X012682Y029939D01*
X012682Y029780D02*
X011857Y029780D01*
X011857Y029622D02*
X012682Y029622D01*
X012682Y029463D02*
X011857Y029463D01*
X011857Y029305D02*
X012682Y029305D01*
X012682Y029146D02*
X011857Y029146D01*
X011857Y028988D02*
X012682Y028988D01*
X012682Y028829D02*
X011857Y028829D01*
X011857Y028671D02*
X012682Y028671D01*
X012682Y028512D02*
X011857Y028512D01*
X011857Y028354D02*
X012726Y028354D01*
X012777Y028195D02*
X011857Y028195D01*
X011857Y028037D02*
X012881Y028037D01*
X012986Y027892D02*
X012986Y027892D01*
X013005Y027878D02*
X011857Y027878D01*
X011857Y027720D02*
X013223Y027720D01*
X013260Y027693D02*
X013260Y027693D01*
X013448Y028354D02*
X013369Y028463D01*
X013322Y028829D02*
X014624Y028829D01*
X014424Y028988D02*
X013322Y028988D01*
X013322Y029146D02*
X014059Y029146D01*
X013828Y029305D02*
X013322Y029305D01*
X013322Y029463D02*
X013670Y029463D01*
X013544Y029622D02*
X013322Y029622D01*
X013322Y029780D02*
X013452Y029780D01*
X013376Y029912D02*
X013376Y029912D01*
X013369Y029939D02*
X013322Y029939D01*
X013322Y030097D02*
X013327Y030097D01*
X013002Y028658D02*
X013004Y028604D01*
X013010Y028551D01*
X013019Y028499D01*
X013032Y028447D01*
X013049Y028396D01*
X013070Y028346D01*
X013094Y028299D01*
X013121Y028253D01*
X013152Y028209D01*
X013185Y028167D01*
X013222Y028128D01*
X013261Y028091D01*
X013303Y028058D01*
X013347Y028027D01*
X013393Y028000D01*
X013440Y027976D01*
X013490Y027955D01*
X013541Y027938D01*
X013593Y027925D01*
X013645Y027916D01*
X013698Y027910D01*
X013752Y027908D01*
X020832Y032316D02*
X020988Y032316D01*
X020939Y032475D02*
X020877Y032475D01*
X020877Y032633D02*
X020937Y032633D01*
X020937Y032792D02*
X020877Y032792D01*
X020877Y032950D02*
X020937Y032950D01*
X020942Y033109D02*
X020877Y033109D01*
X020825Y033267D02*
X020997Y033267D01*
X021158Y033426D02*
X020701Y033426D01*
X021756Y033267D02*
X021767Y033267D01*
X022487Y033901D02*
X031070Y033901D01*
X030890Y034060D02*
X022487Y034060D01*
X022487Y034218D02*
X030653Y034218D01*
X032589Y031207D02*
X035322Y031207D01*
X035357Y031048D02*
X033777Y031048D01*
X033864Y031012D02*
X033864Y031012D01*
X034252Y034056D02*
X034252Y034056D01*
X035237Y038656D02*
X035543Y038656D01*
X036877Y039766D02*
X036902Y039766D01*
X036877Y039924D02*
X037437Y039924D01*
X037437Y039766D02*
X037351Y039766D01*
X037554Y040083D02*
X036784Y040083D01*
X038049Y042143D02*
X038134Y042143D01*
X033377Y039607D02*
X033377Y039607D01*
X033377Y039449D02*
X033377Y039449D01*
X033321Y039290D02*
X033432Y039290D01*
X033561Y039132D02*
X033197Y039132D01*
X032877Y039033D02*
X032879Y038979D01*
X032885Y038926D01*
X032894Y038874D01*
X032907Y038822D01*
X032924Y038771D01*
X032945Y038721D01*
X032969Y038674D01*
X032996Y038628D01*
X033027Y038584D01*
X033060Y038542D01*
X033097Y038503D01*
X033136Y038466D01*
X033178Y038433D01*
X033222Y038402D01*
X033268Y038375D01*
X033315Y038351D01*
X033365Y038330D01*
X033416Y038313D01*
X033468Y038300D01*
X033520Y038291D01*
X033573Y038285D01*
X033627Y038283D01*
X029473Y041036D02*
X029473Y041036D01*
X029550Y042143D02*
X029204Y042143D01*
X029326Y042302D02*
X029427Y042302D01*
X029377Y042460D02*
X029377Y042460D01*
X029377Y042619D02*
X029377Y042619D01*
X029377Y042777D02*
X029377Y042777D01*
X029377Y042936D02*
X029377Y042936D01*
X029377Y043094D02*
X029377Y043094D01*
X029331Y043253D02*
X029422Y043253D01*
X029538Y043411D02*
X029216Y043411D01*
X025877Y042783D02*
X025837Y042893D01*
X025801Y043005D01*
X025768Y043117D01*
X025739Y043230D01*
X025713Y043344D01*
X025690Y043459D01*
X025671Y043575D01*
X025655Y043691D01*
X025643Y043807D01*
X025634Y043924D01*
X025629Y044041D01*
X025627Y044158D01*
X023526Y040400D02*
X023227Y040400D01*
X023336Y040241D02*
X023418Y040241D01*
X023377Y040083D02*
X023377Y040083D01*
X023377Y039924D02*
X023377Y039924D01*
X023377Y039766D02*
X023377Y039766D01*
X023377Y039607D02*
X023377Y039607D01*
X023377Y039449D02*
X023377Y039449D01*
X023321Y039290D02*
X023432Y039290D01*
X023561Y039132D02*
X023192Y039132D01*
X023237Y038022D02*
X023409Y038022D01*
X023377Y037864D02*
X023237Y037864D01*
X023237Y037705D02*
X023377Y037705D01*
X023406Y037547D02*
X023237Y037547D01*
X023237Y037388D02*
X023565Y037388D01*
X023637Y037230D02*
X024616Y037230D01*
X023140Y035169D02*
X022487Y035169D01*
X022487Y035011D02*
X022982Y035011D01*
X022937Y034852D02*
X022487Y034852D01*
X022487Y034694D02*
X022937Y034694D01*
X023002Y034535D02*
X022487Y034535D01*
X022487Y034377D02*
X023161Y034377D01*
X021767Y032316D02*
X021765Y032316D01*
X021767Y032158D02*
X021622Y032158D01*
X020377Y035083D02*
X020377Y035783D01*
X019937Y035783D01*
X019937Y035489D01*
X019948Y035420D01*
X019969Y035354D01*
X020000Y035293D01*
X020041Y035237D01*
X020090Y035188D01*
X020146Y035147D01*
X020208Y035116D01*
X020274Y035094D01*
X020342Y035083D01*
X020377Y035083D01*
X020377Y035169D02*
X020377Y035169D01*
X020377Y035328D02*
X020377Y035328D01*
X020377Y035486D02*
X020377Y035486D01*
X020377Y035645D02*
X020377Y035645D01*
X020377Y035783D02*
X020377Y035783D01*
X020377Y035783D01*
X019937Y035783D01*
X019937Y036078D01*
X019948Y036146D01*
X019969Y036212D01*
X020000Y036274D01*
X020041Y036330D01*
X020090Y036379D01*
X020146Y036420D01*
X020208Y036451D01*
X020274Y036472D01*
X020342Y036483D01*
X020377Y036483D01*
X020377Y035783D01*
X020377Y035803D02*
X020377Y035803D01*
X020377Y035962D02*
X020377Y035962D01*
X020377Y036120D02*
X020377Y036120D01*
X020377Y036279D02*
X020377Y036279D01*
X020377Y036437D02*
X020377Y036437D01*
X020181Y036437D02*
X019690Y036437D01*
X019660Y036467D02*
X019476Y036543D01*
X019277Y036543D01*
X019093Y036467D01*
X018953Y036327D01*
X018877Y036143D01*
X018877Y035424D01*
X018953Y035240D01*
X019093Y035099D01*
X019277Y035023D01*
X019476Y035023D01*
X019660Y035099D01*
X019801Y035240D01*
X019877Y035424D01*
X019877Y036143D01*
X019801Y036327D01*
X019660Y036467D01*
X019820Y036279D02*
X020004Y036279D01*
X019943Y036120D02*
X019877Y036120D01*
X019877Y035962D02*
X019937Y035962D01*
X019937Y035803D02*
X019877Y035803D01*
X019877Y035645D02*
X019937Y035645D01*
X019937Y035486D02*
X019877Y035486D01*
X019837Y035328D02*
X019982Y035328D01*
X020115Y035169D02*
X019730Y035169D01*
X019024Y035169D02*
X018730Y035169D01*
X018660Y035099D02*
X018801Y035240D01*
X018877Y035424D01*
X018877Y036143D01*
X018801Y036327D01*
X018660Y036467D01*
X018476Y036543D01*
X018277Y036543D01*
X018093Y036467D01*
X017953Y036327D01*
X017877Y036143D01*
X017877Y035424D01*
X017953Y035240D01*
X018093Y035099D01*
X018277Y035023D01*
X018476Y035023D01*
X018660Y035099D01*
X018837Y035328D02*
X018916Y035328D01*
X018877Y035486D02*
X018877Y035486D01*
X018877Y035645D02*
X018877Y035645D01*
X018877Y035803D02*
X018877Y035803D01*
X018877Y035962D02*
X018877Y035962D01*
X018877Y036120D02*
X018877Y036120D01*
X018820Y036279D02*
X018933Y036279D01*
X019064Y036437D02*
X018690Y036437D01*
X018064Y036437D02*
X017690Y036437D01*
X017660Y036467D02*
X017476Y036543D01*
X017277Y036543D01*
X017093Y036467D01*
X016953Y036327D01*
X016877Y036143D01*
X016877Y035424D01*
X016953Y035240D01*
X017093Y035099D01*
X017277Y035023D01*
X017476Y035023D01*
X017660Y035099D01*
X017801Y035240D01*
X017877Y035424D01*
X017877Y036143D01*
X017801Y036327D01*
X017660Y036467D01*
X017820Y036279D02*
X017933Y036279D01*
X017877Y036120D02*
X017877Y036120D01*
X017877Y035962D02*
X017877Y035962D01*
X017877Y035803D02*
X017877Y035803D01*
X017877Y035645D02*
X017877Y035645D01*
X017877Y035486D02*
X017877Y035486D01*
X017837Y035328D02*
X017916Y035328D01*
X018024Y035169D02*
X017730Y035169D01*
X017024Y035169D02*
X016730Y035169D01*
X016660Y035099D02*
X016801Y035240D01*
X016877Y035424D01*
X016877Y036143D01*
X016801Y036327D01*
X016660Y036467D01*
X016476Y036543D01*
X016277Y036543D01*
X016093Y036467D01*
X015953Y036327D01*
X015877Y036143D01*
X015877Y035424D01*
X015953Y035240D01*
X016093Y035099D01*
X016277Y035023D01*
X016476Y035023D01*
X016660Y035099D01*
X016837Y035328D02*
X016916Y035328D01*
X016877Y035486D02*
X016877Y035486D01*
X016877Y035645D02*
X016877Y035645D01*
X016877Y035803D02*
X016877Y035803D01*
X016877Y035962D02*
X016877Y035962D01*
X016877Y036120D02*
X016877Y036120D01*
X016820Y036279D02*
X016933Y036279D01*
X017064Y036437D02*
X016690Y036437D01*
X016064Y036437D02*
X015573Y036437D01*
X015546Y036451D02*
X015480Y036472D01*
X015411Y036483D01*
X015377Y036483D01*
X015377Y035783D01*
X015377Y035783D01*
X015817Y035783D01*
X015817Y035489D01*
X015806Y035420D01*
X015784Y035354D01*
X015753Y035293D01*
X015712Y035237D01*
X015663Y035188D01*
X015607Y035147D01*
X015546Y035116D01*
X015480Y035094D01*
X015411Y035083D01*
X015377Y035083D01*
X015377Y035783D01*
X015377Y035783D01*
X015817Y035783D01*
X015817Y036078D01*
X015806Y036146D01*
X015784Y036212D01*
X015753Y036274D01*
X015712Y036330D01*
X015663Y036379D01*
X015607Y036420D01*
X015546Y036451D01*
X015377Y036437D02*
X015377Y036437D01*
X015377Y036483D02*
X015342Y036483D01*
X015274Y036472D01*
X015208Y036451D01*
X015146Y036420D01*
X015090Y036379D01*
X015041Y036330D01*
X015000Y036274D01*
X014969Y036212D01*
X014948Y036146D01*
X014937Y036078D01*
X014937Y035783D01*
X014937Y035489D01*
X014948Y035420D01*
X014969Y035354D01*
X015000Y035293D01*
X015041Y035237D01*
X015090Y035188D01*
X015146Y035147D01*
X015208Y035116D01*
X015274Y035094D01*
X015342Y035083D01*
X015377Y035083D01*
X015377Y035783D01*
X014937Y035783D01*
X015377Y035783D01*
X015377Y035783D01*
X015377Y035783D01*
X015377Y036483D01*
X015181Y036437D02*
X014738Y036437D01*
X014820Y036279D02*
X015004Y036279D01*
X014943Y036120D02*
X014877Y036120D01*
X014877Y035962D02*
X014937Y035962D01*
X014937Y035803D02*
X014877Y035803D01*
X014877Y035645D02*
X014937Y035645D01*
X014937Y035486D02*
X014877Y035486D01*
X014837Y035328D02*
X014982Y035328D01*
X015115Y035169D02*
X014730Y035169D01*
X015377Y035169D02*
X015377Y035169D01*
X015377Y035328D02*
X015377Y035328D01*
X015377Y035486D02*
X015377Y035486D01*
X015377Y035645D02*
X015377Y035645D01*
X015377Y035803D02*
X015377Y035803D01*
X015377Y035962D02*
X015377Y035962D01*
X015377Y036120D02*
X015377Y036120D01*
X015377Y036279D02*
X015377Y036279D01*
X015749Y036279D02*
X015933Y036279D01*
X015877Y036120D02*
X015810Y036120D01*
X015817Y035962D02*
X015877Y035962D01*
X015877Y035803D02*
X015817Y035803D01*
X015817Y035645D02*
X015877Y035645D01*
X015877Y035486D02*
X015816Y035486D01*
X015771Y035328D02*
X015916Y035328D01*
X016024Y035169D02*
X015638Y035169D01*
X014024Y035169D02*
X014016Y035169D01*
X012682Y035645D02*
X011857Y035645D01*
X011857Y035803D02*
X012682Y035803D01*
X012682Y035962D02*
X011857Y035962D01*
X011857Y036120D02*
X012682Y036120D01*
X012682Y036279D02*
X011857Y036279D01*
X011857Y036437D02*
X012682Y036437D01*
X012682Y036596D02*
X011857Y036596D01*
X011857Y036754D02*
X012682Y036754D01*
X012682Y036913D02*
X011857Y036913D01*
X011857Y037071D02*
X012682Y037071D01*
X012682Y037230D02*
X011857Y037230D01*
X011857Y037388D02*
X012682Y037388D01*
X012682Y037547D02*
X011857Y037547D01*
X011857Y037705D02*
X012682Y037705D01*
X012682Y037864D02*
X011857Y037864D01*
X011857Y038022D02*
X012682Y038022D01*
X014377Y037408D02*
X014377Y036783D01*
X014796Y037071D02*
X019296Y037071D01*
X019078Y037230D02*
X014697Y037230D01*
X014877Y036913D02*
X020393Y036913D01*
X020752Y037283D02*
X019752Y037283D01*
X019527Y037705D02*
X020445Y037705D01*
X019752Y037283D02*
X019703Y037285D01*
X019654Y037291D01*
X019606Y037300D01*
X019559Y037314D01*
X019513Y037331D01*
X019468Y037351D01*
X019425Y037375D01*
X019385Y037402D01*
X019346Y037433D01*
X019310Y037466D01*
X019277Y037502D01*
X019246Y037541D01*
X019219Y037581D01*
X019195Y037624D01*
X019175Y037669D01*
X019158Y037715D01*
X019144Y037762D01*
X019135Y037810D01*
X019129Y037859D01*
X019127Y037908D01*
X018752Y038408D02*
X018752Y044408D01*
X018750Y044428D01*
X018746Y044447D01*
X018738Y044465D01*
X018728Y044481D01*
X018715Y044496D01*
X018700Y044509D01*
X018684Y044519D01*
X018666Y044527D01*
X018647Y044531D01*
X018627Y044533D01*
X019447Y044521D02*
X020017Y044521D01*
X020017Y044679D02*
X019447Y044679D01*
X019447Y044838D02*
X020017Y044838D01*
X020017Y044996D02*
X019447Y044996D01*
X019447Y045155D02*
X020016Y045155D01*
X020049Y045313D02*
X019447Y045313D01*
X019447Y045472D02*
X020125Y045472D01*
X020083Y045415D02*
X020083Y045415D01*
X020242Y045630D02*
X019447Y045630D01*
X019447Y045789D02*
X020445Y045789D01*
X020310Y045947D02*
X020631Y045947D01*
X020502Y046106D02*
X020457Y046106D01*
X020457Y046264D02*
X020502Y046264D01*
X020502Y046423D02*
X020457Y046423D01*
X020348Y046581D02*
X020593Y046581D01*
X020002Y046283D02*
X020002Y046283D01*
X019546Y046283D01*
X020002Y046283D01*
X020002Y046264D02*
X020002Y046264D01*
X020002Y046106D02*
X020002Y046106D01*
X020002Y045947D02*
X020002Y045947D01*
X019693Y045947D02*
X019447Y045947D01*
X019447Y046106D02*
X019546Y046106D01*
X019546Y046264D02*
X019447Y046264D01*
X019394Y046423D02*
X019546Y046423D01*
X019655Y046581D02*
X019311Y046581D01*
X019341Y046552D02*
X019341Y046552D01*
X018807Y045947D02*
X016076Y045947D01*
X016227Y046106D02*
X018347Y046106D01*
X018127Y046326D02*
X018127Y046740D01*
X018285Y046898D02*
X016019Y046898D01*
X015276Y046106D02*
X015149Y046106D01*
X014991Y045947D02*
X015428Y045947D01*
X014354Y046106D02*
X013322Y046106D01*
X013322Y046264D02*
X014257Y046264D01*
X014257Y046423D02*
X013322Y046423D01*
X013322Y046581D02*
X014257Y046581D01*
X014383Y046740D02*
X013322Y046740D01*
X011857Y047691D02*
X046267Y047691D01*
X031550Y042143D02*
X031204Y042143D01*
X031326Y042302D02*
X031427Y042302D01*
X031377Y042460D02*
X031377Y042460D01*
X031377Y042619D02*
X031377Y042619D01*
X031377Y042777D02*
X031377Y042777D01*
X031377Y042936D02*
X031377Y042936D01*
X031377Y043094D02*
X031377Y043094D01*
X031331Y043253D02*
X031422Y043253D01*
X031538Y043411D02*
X031237Y043411D01*
X030517Y043411D02*
X030216Y043411D01*
X030331Y043253D02*
X030422Y043253D01*
X030377Y043094D02*
X030377Y043094D01*
X030377Y042936D02*
X030377Y042936D01*
X030377Y042777D02*
X030377Y042777D01*
X030377Y042619D02*
X030377Y042619D01*
X030377Y042460D02*
X030377Y042460D01*
X030329Y042302D02*
X030427Y042302D01*
X030303Y042143D02*
X030550Y042143D01*
X021418Y040241D02*
X020737Y040241D01*
X020749Y040144D02*
X020749Y040144D01*
X020263Y039607D02*
X019447Y039607D01*
X019447Y039449D02*
X020544Y039449D01*
X020129Y039742D02*
X020129Y039742D01*
X020119Y039766D02*
X019447Y039766D01*
X019447Y039924D02*
X020053Y039924D01*
X020017Y040083D02*
X019447Y040083D01*
X019447Y040241D02*
X020017Y040241D01*
X020017Y040400D02*
X019447Y040400D01*
X019447Y040558D02*
X020017Y040558D01*
X020017Y040717D02*
X019447Y040717D01*
X019447Y040875D02*
X020017Y040875D01*
X020017Y041034D02*
X019447Y041034D01*
X019447Y041192D02*
X020017Y041192D01*
X020017Y041351D02*
X019447Y041351D01*
X019447Y041509D02*
X020017Y041509D01*
X020017Y041668D02*
X019447Y041668D01*
X019447Y041826D02*
X020017Y041826D01*
X020017Y041985D02*
X019447Y041985D01*
X019447Y042143D02*
X020017Y042143D01*
X020017Y042302D02*
X019447Y042302D01*
X019447Y042460D02*
X020017Y042460D01*
X020017Y042619D02*
X019447Y042619D01*
X019447Y042777D02*
X020017Y042777D01*
X020017Y042936D02*
X019447Y042936D01*
X019447Y043094D02*
X020017Y043094D01*
X020017Y043253D02*
X019447Y043253D01*
X019447Y043411D02*
X020017Y043411D01*
X020017Y043570D02*
X019447Y043570D01*
X019447Y043728D02*
X020017Y043728D01*
X020017Y043887D02*
X019447Y043887D01*
X019447Y044045D02*
X020017Y044045D01*
X020017Y044204D02*
X019447Y044204D01*
X019447Y044362D02*
X020017Y044362D01*
X020262Y045658D02*
X020262Y045658D01*
X020262Y045658D01*
X021319Y045893D02*
X021439Y046014D01*
X021560Y045893D01*
X021319Y045893D01*
X021373Y045947D02*
X021506Y045947D01*
X021439Y046553D02*
X021475Y046588D01*
X021404Y046588D01*
X021439Y046553D01*
X021411Y046581D02*
X021468Y046581D01*
X018752Y038408D02*
X018750Y038359D01*
X018744Y038310D01*
X018735Y038262D01*
X018721Y038215D01*
X018704Y038169D01*
X018684Y038124D01*
X018660Y038081D01*
X018633Y038041D01*
X018602Y038002D01*
X018569Y037966D01*
X018533Y037933D01*
X018494Y037902D01*
X018454Y037875D01*
X018411Y037851D01*
X018366Y037831D01*
X018320Y037814D01*
X018273Y037800D01*
X018225Y037791D01*
X018176Y037785D01*
X018127Y037783D01*
X026531Y023550D02*
X026531Y023550D01*
X026987Y022923D02*
X027377Y022923D01*
X027377Y022603D01*
X026809Y022603D01*
X026894Y022688D01*
X026987Y022912D01*
X026987Y022923D01*
X026943Y022806D02*
X027377Y022806D01*
X027377Y022648D02*
X026854Y022648D01*
X026894Y022688D02*
X026894Y022688D01*
X024252Y021408D02*
X022377Y021408D01*
X021993Y021063D02*
X021197Y021063D01*
X021197Y020904D02*
X022152Y020904D01*
X020017Y020904D02*
X018205Y020904D01*
X017877Y020533D02*
X017877Y018783D01*
X018877Y018783D02*
X018877Y020533D01*
X019527Y020429D02*
X017487Y020429D01*
X017487Y020587D02*
X019592Y020587D01*
X019610Y020629D02*
X019610Y020629D01*
X019727Y020746D02*
X017487Y020746D01*
X017487Y020904D02*
X017549Y020904D01*
X019781Y020800D02*
X019781Y020800D01*
X020005Y020893D02*
X020005Y020893D01*
X036984Y025529D02*
X036984Y025529D01*
X037293Y025609D02*
X037293Y025609D01*
X037360Y025659D02*
X038137Y025659D01*
X038137Y025818D02*
X037559Y025818D01*
X037548Y025800D02*
X037548Y025800D01*
X037548Y025800D01*
X037652Y025976D02*
X038197Y025976D01*
X038282Y026135D02*
X037719Y026135D01*
X037710Y026075D02*
X037710Y026075D01*
X037742Y026293D02*
X038440Y026293D01*
D28*
X036377Y028783D02*
X033377Y028783D01*
X035877Y029283D02*
X035877Y031283D01*
X035875Y031327D01*
X035869Y031370D01*
X035860Y031412D01*
X035847Y031454D01*
X035830Y031494D01*
X035810Y031533D01*
X035787Y031570D01*
X035760Y031604D01*
X035731Y031637D01*
X035698Y031666D01*
X035664Y031693D01*
X035627Y031716D01*
X035588Y031736D01*
X035548Y031753D01*
X035506Y031766D01*
X035464Y031775D01*
X035421Y031781D01*
X035377Y031783D01*
X031877Y031783D01*
X031877Y032783D02*
X032877Y032783D01*
X032879Y032753D01*
X032884Y032723D01*
X032893Y032694D01*
X032906Y032667D01*
X032921Y032641D01*
X032940Y032617D01*
X032961Y032596D01*
X032985Y032577D01*
X033011Y032562D01*
X033038Y032549D01*
X033067Y032540D01*
X033097Y032535D01*
X033127Y032533D01*
X037377Y032533D01*
X037437Y032535D01*
X037498Y032540D01*
X037557Y032549D01*
X037616Y032562D01*
X037675Y032578D01*
X037732Y032598D01*
X037787Y032621D01*
X037842Y032648D01*
X037894Y032677D01*
X037945Y032710D01*
X037994Y032746D01*
X038040Y032784D01*
X038084Y032826D01*
X038126Y032870D01*
X038164Y032916D01*
X038200Y032965D01*
X038233Y033016D01*
X038262Y033068D01*
X038289Y033123D01*
X038312Y033178D01*
X038332Y033235D01*
X038348Y033294D01*
X038361Y033353D01*
X038370Y033412D01*
X038375Y033473D01*
X038377Y033533D01*
X038377Y034283D01*
X038379Y034343D01*
X038384Y034404D01*
X038393Y034463D01*
X038406Y034522D01*
X038422Y034581D01*
X038442Y034638D01*
X038465Y034693D01*
X038492Y034748D01*
X038521Y034800D01*
X038554Y034851D01*
X038590Y034900D01*
X038628Y034946D01*
X038670Y034990D01*
X038714Y035032D01*
X038760Y035070D01*
X038809Y035106D01*
X038860Y035139D01*
X038912Y035168D01*
X038967Y035195D01*
X039022Y035218D01*
X039079Y035238D01*
X039138Y035254D01*
X039197Y035267D01*
X039256Y035276D01*
X039317Y035281D01*
X039377Y035283D01*
X039877Y035283D01*
X035877Y029283D02*
X035879Y029239D01*
X035885Y029196D01*
X035894Y029154D01*
X035907Y029112D01*
X035924Y029072D01*
X035944Y029033D01*
X035967Y028996D01*
X035994Y028962D01*
X036023Y028929D01*
X036056Y028900D01*
X036090Y028873D01*
X036127Y028850D01*
X036166Y028830D01*
X036206Y028813D01*
X036248Y028800D01*
X036290Y028791D01*
X036333Y028785D01*
X036377Y028783D01*
X034877Y022783D02*
X033377Y022783D01*
X034877Y022783D02*
X034921Y022781D01*
X034964Y022775D01*
X035006Y022766D01*
X035048Y022753D01*
X035088Y022736D01*
X035127Y022716D01*
X035164Y022693D01*
X035198Y022666D01*
X035231Y022637D01*
X035260Y022604D01*
X035287Y022570D01*
X035310Y022533D01*
X035330Y022494D01*
X035347Y022454D01*
X035360Y022412D01*
X035369Y022370D01*
X035375Y022327D01*
X035377Y022283D01*
X035379Y022223D01*
X035384Y022162D01*
X035393Y022103D01*
X035406Y022044D01*
X035422Y021985D01*
X035442Y021928D01*
X035465Y021873D01*
X035492Y021818D01*
X035521Y021766D01*
X035554Y021715D01*
X035590Y021666D01*
X035628Y021620D01*
X035670Y021576D01*
X035714Y021534D01*
X035760Y021496D01*
X035809Y021460D01*
X035860Y021427D01*
X035912Y021398D01*
X035967Y021371D01*
X036022Y021348D01*
X036079Y021328D01*
X036138Y021312D01*
X036197Y021299D01*
X036256Y021290D01*
X036317Y021285D01*
X036377Y021283D01*
X036877Y021283D01*
X036937Y021281D01*
X036998Y021276D01*
X037057Y021267D01*
X037116Y021254D01*
X037175Y021238D01*
X037232Y021218D01*
X037287Y021195D01*
X037342Y021168D01*
X037394Y021139D01*
X037445Y021106D01*
X037494Y021070D01*
X037540Y021032D01*
X037584Y020990D01*
X037626Y020946D01*
X037664Y020900D01*
X037700Y020851D01*
X037733Y020800D01*
X037762Y020748D01*
X037789Y020693D01*
X037812Y020638D01*
X037832Y020581D01*
X037848Y020522D01*
X037861Y020463D01*
X037870Y020404D01*
X037875Y020343D01*
X037877Y020283D01*
X037877Y020783D01*
X037879Y020827D01*
X037885Y020870D01*
X037894Y020912D01*
X037907Y020954D01*
X037924Y020994D01*
X037944Y021033D01*
X037967Y021070D01*
X037994Y021104D01*
X038023Y021137D01*
X038056Y021166D01*
X038090Y021193D01*
X038127Y021216D01*
X038166Y021236D01*
X038206Y021253D01*
X038248Y021266D01*
X038290Y021275D01*
X038333Y021281D01*
X038377Y021283D01*
X038421Y021281D01*
X038464Y021275D01*
X038506Y021266D01*
X038548Y021253D01*
X038588Y021236D01*
X038627Y021216D01*
X038664Y021193D01*
X038698Y021166D01*
X038731Y021137D01*
X038760Y021104D01*
X038787Y021070D01*
X038810Y021033D01*
X038830Y020994D01*
X038847Y020954D01*
X038860Y020912D01*
X038869Y020870D01*
X038875Y020827D01*
X038877Y020783D01*
X038877Y018783D01*
X039877Y018783D02*
X039877Y020533D01*
X040877Y020533D01*
X040877Y018783D01*
X041877Y018783D02*
X041877Y020533D01*
X040877Y020533D01*
X041877Y020533D02*
X042877Y020533D01*
X042877Y018783D01*
X043877Y018783D02*
X043877Y020533D01*
X044377Y021033D01*
X045127Y021033D01*
X043877Y020533D02*
X042877Y020533D01*
X037877Y020283D02*
X037877Y018783D01*
D29*
X045127Y021033D03*
X030877Y027908D03*
X026877Y028283D03*
X026252Y021658D03*
X019627Y021658D03*
X013002Y021033D03*
D30*
X033877Y020533D02*
X033877Y018783D01*
X034877Y018783D02*
X034877Y020533D01*
X034752Y020533D01*
X035877Y020533D02*
X035877Y018783D01*
X036877Y018783D02*
X036877Y020533D01*
D31*
X035252Y023533D03*
X033502Y025283D03*
X022877Y025283D03*
X022377Y023408D03*
X022377Y021408D03*
X014502Y027908D03*
X020752Y037283D03*
X020002Y046283D03*
D32*
X028877Y032783D02*
X031877Y032783D01*
X028877Y032783D02*
X028782Y032771D01*
X028687Y032755D01*
X028593Y032735D01*
X028499Y032712D01*
X028407Y032685D01*
X028316Y032654D01*
X028226Y032620D01*
X028138Y032581D01*
X028051Y032540D01*
X027966Y032495D01*
X027883Y032446D01*
X027802Y032395D01*
X027723Y032340D01*
X027646Y032282D01*
X027572Y032220D01*
X027500Y032156D01*
X027431Y032089D01*
X027365Y032020D01*
X027302Y031948D01*
X027241Y031873D01*
X027184Y031796D01*
X027129Y031716D01*
X027078Y031635D01*
X027031Y031551D01*
X026986Y031466D01*
X026945Y031379D01*
X026908Y031290D01*
X026874Y031200D01*
X026844Y031109D01*
X026818Y031016D01*
X026795Y030923D01*
X026776Y030829D01*
X026761Y030734D01*
X026750Y030638D01*
X026743Y030542D01*
X026739Y030446D01*
X026740Y030350D01*
X026744Y030254D01*
X026752Y030158D01*
X026740Y030068D01*
X026723Y029979D01*
X026703Y029890D01*
X026680Y029802D01*
X026652Y029716D01*
X026621Y029630D01*
X026586Y029547D01*
X026548Y029464D01*
X026506Y029384D01*
X026461Y029305D01*
X026412Y029228D01*
X026361Y029153D01*
X026306Y029081D01*
X026248Y029011D01*
X026187Y028943D01*
X026124Y028878D01*
X026057Y028816D01*
X025988Y028757D01*
X025917Y028701D01*
X025843Y028647D01*
X025768Y028597D01*
X025690Y028551D01*
X025610Y028507D01*
X025528Y028467D01*
X025445Y028431D01*
X025361Y028398D01*
X025275Y028368D01*
X025187Y028343D01*
X025099Y028321D01*
X025010Y028303D01*
X024921Y028288D01*
X024830Y028278D01*
X024740Y028271D01*
X024649Y028268D01*
X024558Y028269D01*
X024467Y028274D01*
X024377Y028283D01*
M02*
