G75*
%MOIN*%
%OFA0B0*%
%FSLAX25Y25*%
%IPPOS*%
%LPD*%
%AMOC8*
5,1,8,0,0,1.08239X$1,22.5*
%
%ADD10C,0.00000*%
%ADD11R,0.05118X0.05906*%
%ADD12R,0.05906X0.05118*%
%ADD13R,0.03900X0.01200*%
%ADD14R,0.03937X0.05512*%
%ADD15R,0.01575X0.01575*%
%ADD16C,0.01000*%
%ADD17C,0.03569*%
D10*
X0002312Y0009181D02*
X0002312Y0160756D01*
X0004281Y0160756D01*
X0004405Y0160758D01*
X0004528Y0160764D01*
X0004652Y0160773D01*
X0004774Y0160787D01*
X0004897Y0160804D01*
X0005019Y0160826D01*
X0005140Y0160851D01*
X0005260Y0160880D01*
X0005379Y0160912D01*
X0005498Y0160949D01*
X0005615Y0160989D01*
X0005730Y0161032D01*
X0005845Y0161080D01*
X0005957Y0161131D01*
X0006068Y0161185D01*
X0006178Y0161243D01*
X0006285Y0161304D01*
X0006391Y0161369D01*
X0006494Y0161437D01*
X0006595Y0161508D01*
X0006694Y0161582D01*
X0006791Y0161659D01*
X0006885Y0161740D01*
X0006976Y0161823D01*
X0007065Y0161909D01*
X0007151Y0161998D01*
X0007234Y0162089D01*
X0007315Y0162183D01*
X0007392Y0162280D01*
X0007466Y0162379D01*
X0007537Y0162480D01*
X0007605Y0162583D01*
X0007670Y0162689D01*
X0007731Y0162796D01*
X0007789Y0162906D01*
X0007843Y0163017D01*
X0007894Y0163129D01*
X0007942Y0163244D01*
X0007985Y0163359D01*
X0008025Y0163476D01*
X0008062Y0163595D01*
X0008094Y0163714D01*
X0008123Y0163834D01*
X0008148Y0163955D01*
X0008170Y0164077D01*
X0008187Y0164200D01*
X0008201Y0164322D01*
X0008210Y0164446D01*
X0008216Y0164569D01*
X0008218Y0164693D01*
X0008218Y0174535D01*
X0105659Y0174535D01*
X0105659Y0164693D01*
X0105661Y0164569D01*
X0105667Y0164446D01*
X0105676Y0164322D01*
X0105690Y0164200D01*
X0105707Y0164077D01*
X0105729Y0163955D01*
X0105754Y0163834D01*
X0105783Y0163714D01*
X0105815Y0163595D01*
X0105852Y0163476D01*
X0105892Y0163359D01*
X0105935Y0163244D01*
X0105983Y0163129D01*
X0106034Y0163017D01*
X0106088Y0162906D01*
X0106146Y0162796D01*
X0106207Y0162689D01*
X0106272Y0162583D01*
X0106340Y0162480D01*
X0106411Y0162379D01*
X0106485Y0162280D01*
X0106562Y0162183D01*
X0106643Y0162089D01*
X0106726Y0161998D01*
X0106812Y0161909D01*
X0106901Y0161823D01*
X0106992Y0161740D01*
X0107086Y0161659D01*
X0107183Y0161582D01*
X0107282Y0161508D01*
X0107383Y0161437D01*
X0107486Y0161369D01*
X0107592Y0161304D01*
X0107699Y0161243D01*
X0107809Y0161185D01*
X0107920Y0161131D01*
X0108032Y0161080D01*
X0108147Y0161032D01*
X0108262Y0160989D01*
X0108379Y0160949D01*
X0108498Y0160912D01*
X0108617Y0160880D01*
X0108737Y0160851D01*
X0108858Y0160826D01*
X0108980Y0160804D01*
X0109103Y0160787D01*
X0109225Y0160773D01*
X0109349Y0160764D01*
X0109472Y0160758D01*
X0109596Y0160756D01*
X0111564Y0160756D01*
X0111564Y0009181D01*
X0089320Y0009181D01*
X0089320Y0015480D01*
X0089318Y0015604D01*
X0089312Y0015727D01*
X0089303Y0015851D01*
X0089289Y0015973D01*
X0089272Y0016096D01*
X0089250Y0016218D01*
X0089225Y0016339D01*
X0089196Y0016459D01*
X0089164Y0016578D01*
X0089127Y0016697D01*
X0089087Y0016814D01*
X0089044Y0016929D01*
X0088996Y0017044D01*
X0088945Y0017156D01*
X0088891Y0017267D01*
X0088833Y0017377D01*
X0088772Y0017484D01*
X0088707Y0017590D01*
X0088639Y0017693D01*
X0088568Y0017794D01*
X0088494Y0017893D01*
X0088417Y0017990D01*
X0088336Y0018084D01*
X0088253Y0018175D01*
X0088167Y0018264D01*
X0088078Y0018350D01*
X0087987Y0018433D01*
X0087893Y0018514D01*
X0087796Y0018591D01*
X0087697Y0018665D01*
X0087596Y0018736D01*
X0087493Y0018804D01*
X0087387Y0018869D01*
X0087280Y0018930D01*
X0087170Y0018988D01*
X0087059Y0019042D01*
X0086947Y0019093D01*
X0086832Y0019141D01*
X0086717Y0019184D01*
X0086600Y0019224D01*
X0086481Y0019261D01*
X0086362Y0019293D01*
X0086242Y0019322D01*
X0086121Y0019347D01*
X0085999Y0019369D01*
X0085876Y0019386D01*
X0085754Y0019400D01*
X0085630Y0019409D01*
X0085507Y0019415D01*
X0085383Y0019417D01*
X0028690Y0019417D01*
X0028566Y0019415D01*
X0028443Y0019409D01*
X0028319Y0019400D01*
X0028197Y0019386D01*
X0028074Y0019369D01*
X0027952Y0019347D01*
X0027831Y0019322D01*
X0027711Y0019293D01*
X0027592Y0019261D01*
X0027473Y0019224D01*
X0027356Y0019184D01*
X0027241Y0019141D01*
X0027126Y0019093D01*
X0027014Y0019042D01*
X0026903Y0018988D01*
X0026793Y0018930D01*
X0026686Y0018869D01*
X0026580Y0018804D01*
X0026477Y0018736D01*
X0026376Y0018665D01*
X0026277Y0018591D01*
X0026180Y0018514D01*
X0026086Y0018433D01*
X0025995Y0018350D01*
X0025906Y0018264D01*
X0025820Y0018175D01*
X0025737Y0018084D01*
X0025656Y0017990D01*
X0025579Y0017893D01*
X0025505Y0017794D01*
X0025434Y0017693D01*
X0025366Y0017590D01*
X0025301Y0017484D01*
X0025240Y0017377D01*
X0025182Y0017267D01*
X0025128Y0017156D01*
X0025077Y0017044D01*
X0025029Y0016929D01*
X0024986Y0016814D01*
X0024946Y0016697D01*
X0024909Y0016578D01*
X0024877Y0016459D01*
X0024848Y0016339D01*
X0024823Y0016218D01*
X0024801Y0016096D01*
X0024784Y0015973D01*
X0024770Y0015851D01*
X0024761Y0015727D01*
X0024755Y0015604D01*
X0024753Y0015480D01*
X0024753Y0009181D01*
X0002312Y0009181D01*
D11*
X0078690Y0136150D03*
X0086171Y0136150D03*
X0094478Y0108709D03*
X0101958Y0108709D03*
D12*
X0093336Y0087921D03*
X0093336Y0080441D03*
X0022864Y0079260D03*
X0022864Y0086740D03*
X0012667Y0086701D03*
X0012667Y0079220D03*
D13*
X0045352Y0078886D03*
X0045352Y0081445D03*
X0045352Y0084004D03*
X0045352Y0086563D03*
X0045352Y0089122D03*
X0045352Y0091681D03*
X0045352Y0094240D03*
X0045352Y0096799D03*
X0045352Y0099358D03*
X0045352Y0101917D03*
X0068327Y0101917D03*
X0068327Y0099358D03*
X0068327Y0096799D03*
X0068327Y0094240D03*
X0068327Y0091681D03*
X0068327Y0089122D03*
X0068327Y0086563D03*
X0068327Y0084004D03*
X0068327Y0081445D03*
X0068327Y0078886D03*
D14*
X0017273Y0055835D03*
X0013533Y0064496D03*
X0009793Y0055835D03*
D15*
X0078100Y0147370D03*
X0078100Y0151307D03*
X0078100Y0155244D03*
X0078100Y0159181D03*
X0082037Y0159181D03*
X0085974Y0159181D03*
X0089911Y0159181D03*
X0089911Y0155244D03*
X0089911Y0151307D03*
X0089911Y0147370D03*
X0085974Y0147370D03*
X0082037Y0147370D03*
D16*
X0080700Y0144483D02*
X0083694Y0144483D01*
X0084005Y0144794D01*
X0084316Y0144483D01*
X0087631Y0144483D01*
X0087942Y0144794D01*
X0088253Y0144483D01*
X0091568Y0144483D01*
X0092798Y0145713D01*
X0092798Y0149027D01*
X0092487Y0149339D01*
X0092798Y0149650D01*
X0092798Y0151568D01*
X0093527Y0151266D01*
X0097744Y0151266D01*
X0097744Y0131124D01*
X0096314Y0129694D01*
X0089590Y0129694D01*
X0088635Y0129299D01*
X0087903Y0128567D01*
X0087450Y0128114D01*
X0085816Y0129748D01*
X0085084Y0130480D01*
X0084129Y0130876D01*
X0074059Y0130876D01*
X0073416Y0131518D01*
X0073416Y0152644D01*
X0075212Y0152644D01*
X0075212Y0149650D01*
X0075524Y0149339D01*
X0075212Y0149027D01*
X0075212Y0145713D01*
X0075500Y0145425D01*
X0075500Y0141202D01*
X0075261Y0141202D01*
X0074031Y0139972D01*
X0074031Y0132327D01*
X0075261Y0131097D01*
X0082119Y0131097D01*
X0083193Y0132170D01*
X0083467Y0132097D01*
X0085671Y0132097D01*
X0085671Y0135650D01*
X0086671Y0135650D01*
X0086671Y0136650D01*
X0085671Y0136650D01*
X0085671Y0140202D01*
X0083467Y0140202D01*
X0083193Y0140129D01*
X0082119Y0141202D01*
X0080700Y0141202D01*
X0080700Y0144483D01*
X0080700Y0143980D02*
X0097744Y0143980D01*
X0097744Y0142982D02*
X0080700Y0142982D01*
X0080700Y0141983D02*
X0097744Y0141983D01*
X0097744Y0140985D02*
X0082337Y0140985D01*
X0085671Y0139986D02*
X0086671Y0139986D01*
X0086671Y0140202D02*
X0086671Y0136650D01*
X0089830Y0136650D01*
X0089830Y0139247D01*
X0089755Y0139527D01*
X0089610Y0139778D01*
X0089405Y0139983D01*
X0089154Y0140127D01*
X0088874Y0140202D01*
X0086671Y0140202D01*
X0086671Y0138988D02*
X0085671Y0138988D01*
X0085671Y0137989D02*
X0086671Y0137989D01*
X0086671Y0136991D02*
X0085671Y0136991D01*
X0086171Y0136150D02*
X0088730Y0138709D01*
X0093454Y0138709D01*
X0096604Y0141858D01*
X0096604Y0148551D01*
X0097744Y0148973D02*
X0092798Y0148973D01*
X0092798Y0149971D02*
X0097744Y0149971D01*
X0097744Y0150970D02*
X0092798Y0150970D01*
X0094045Y0153866D02*
X0099360Y0153866D01*
X0100344Y0152882D01*
X0100344Y0130047D01*
X0097391Y0127094D01*
X0090108Y0127094D01*
X0087745Y0124732D01*
X0087745Y0083984D01*
X0085186Y0081425D01*
X0068347Y0081425D01*
X0068327Y0081445D01*
X0068327Y0078886D02*
X0068347Y0078866D01*
X0087352Y0078866D01*
X0088927Y0080441D01*
X0093336Y0080441D01*
X0093336Y0067961D01*
X0093651Y0067646D01*
X0092063Y0064099D02*
X0017601Y0064099D01*
X0017601Y0063101D02*
X0093807Y0063101D01*
X0093807Y0063761D02*
X0093807Y0055381D01*
X0093311Y0054885D01*
X0092719Y0053458D01*
X0092719Y0051912D01*
X0093311Y0050485D01*
X0094403Y0049392D01*
X0095831Y0048801D01*
X0097376Y0048801D01*
X0098804Y0049392D01*
X0099897Y0050485D01*
X0100488Y0051912D01*
X0100488Y0053458D01*
X0099897Y0054885D01*
X0099007Y0055775D01*
X0099007Y0062435D01*
X0103588Y0067016D01*
X0104240Y0067668D01*
X0104316Y0067699D01*
X0105408Y0068792D01*
X0106000Y0070219D01*
X0106000Y0071765D01*
X0105408Y0073192D01*
X0104316Y0074285D01*
X0102888Y0074876D01*
X0101343Y0074876D01*
X0099915Y0074285D01*
X0098823Y0073192D01*
X0098231Y0071765D01*
X0098231Y0070219D01*
X0098585Y0069366D01*
X0097535Y0068317D01*
X0097535Y0068418D01*
X0096944Y0069846D01*
X0095936Y0070854D01*
X0095936Y0075782D01*
X0097159Y0075782D01*
X0098389Y0077012D01*
X0098389Y0083870D01*
X0098077Y0084181D01*
X0098389Y0084492D01*
X0098389Y0091350D01*
X0097159Y0092580D01*
X0093692Y0092580D01*
X0093692Y0094477D01*
X0094385Y0095170D01*
X0094976Y0096597D01*
X0094976Y0098143D01*
X0094385Y0099570D01*
X0093692Y0100263D01*
X0093692Y0102545D01*
X0093732Y0102921D01*
X0093692Y0103059D01*
X0093692Y0103202D01*
X0093547Y0103551D01*
X0093517Y0103656D01*
X0097907Y0103656D01*
X0098980Y0104729D01*
X0099254Y0104656D01*
X0101458Y0104656D01*
X0101458Y0108209D01*
X0102458Y0108209D01*
X0102458Y0109209D01*
X0101458Y0109209D01*
X0101458Y0112761D01*
X0099254Y0112761D01*
X0098980Y0112688D01*
X0097907Y0113761D01*
X0092511Y0113761D01*
X0092511Y0122132D01*
X0101648Y0122132D01*
X0102604Y0122528D01*
X0104516Y0124441D01*
X0104912Y0125396D01*
X0104912Y0159305D01*
X0104516Y0160260D01*
X0103785Y0160992D01*
X0098076Y0166700D01*
X0097121Y0167096D01*
X0091362Y0167096D01*
X0091433Y0167267D01*
X0091433Y0168812D01*
X0090841Y0170240D01*
X0089749Y0171332D01*
X0088321Y0171924D01*
X0086776Y0171924D01*
X0085348Y0171332D01*
X0084655Y0170639D01*
X0070890Y0170639D01*
X0069934Y0170244D01*
X0054188Y0154498D01*
X0014851Y0154498D01*
X0014158Y0155191D01*
X0012731Y0155782D01*
X0011185Y0155782D01*
X0009758Y0155191D01*
X0008665Y0154098D01*
X0008074Y0152670D01*
X0008074Y0151125D01*
X0008665Y0149697D01*
X0009758Y0148605D01*
X0011185Y0148013D01*
X0012731Y0148013D01*
X0014158Y0148605D01*
X0014851Y0149298D01*
X0055782Y0149298D01*
X0056738Y0149693D01*
X0057469Y0150425D01*
X0072484Y0165439D01*
X0077335Y0165439D01*
X0075896Y0164000D01*
X0075500Y0163045D01*
X0075500Y0161126D01*
X0075212Y0160838D01*
X0075212Y0157844D01*
X0071480Y0157844D01*
X0070525Y0157448D01*
X0069793Y0156717D01*
X0068612Y0155536D01*
X0068216Y0154580D01*
X0068216Y0129924D01*
X0068612Y0128968D01*
X0069343Y0128237D01*
X0071509Y0126071D01*
X0072464Y0125676D01*
X0082535Y0125676D01*
X0083177Y0125033D01*
X0083177Y0109173D01*
X0082809Y0109325D01*
X0081264Y0109325D01*
X0079836Y0108734D01*
X0079144Y0108041D01*
X0076008Y0108041D01*
X0075052Y0107645D01*
X0074321Y0106914D01*
X0071905Y0104498D01*
X0071267Y0104498D01*
X0071147Y0104617D01*
X0071039Y0104617D01*
X0070658Y0105536D01*
X0070068Y0106126D01*
X0070068Y0106126D01*
X0069336Y0106858D01*
X0068381Y0107254D01*
X0015181Y0107254D01*
X0014225Y0106858D01*
X0010485Y0103118D01*
X0009754Y0102386D01*
X0009507Y0101790D01*
X0008665Y0100948D01*
X0008074Y0099521D01*
X0008074Y0097975D01*
X0008665Y0096548D01*
X0009758Y0095455D01*
X0011185Y0094864D01*
X0012731Y0094864D01*
X0014158Y0095455D01*
X0015251Y0096548D01*
X0015842Y0097975D01*
X0015842Y0099521D01*
X0015374Y0100652D01*
X0016775Y0102054D01*
X0025040Y0102054D01*
X0024806Y0101489D01*
X0024806Y0099944D01*
X0025397Y0098516D01*
X0026490Y0097424D01*
X0027918Y0096832D01*
X0029463Y0096832D01*
X0030891Y0097424D01*
X0031983Y0098516D01*
X0032315Y0099317D01*
X0041302Y0099317D01*
X0041302Y0092770D01*
X0042302Y0091770D01*
X0042302Y0091722D01*
X0033488Y0091722D01*
X0030163Y0095047D01*
X0029207Y0095443D01*
X0017149Y0095443D01*
X0016194Y0095047D01*
X0015462Y0094315D01*
X0014675Y0093528D01*
X0014279Y0092572D01*
X0014279Y0091360D01*
X0008844Y0091360D01*
X0007614Y0090130D01*
X0007614Y0088666D01*
X0007336Y0088551D01*
X0006351Y0087566D01*
X0005620Y0086835D01*
X0005224Y0085879D01*
X0005224Y0073034D01*
X0005620Y0072078D01*
X0006208Y0071490D01*
X0006208Y0059945D01*
X0005724Y0059460D01*
X0005724Y0052209D01*
X0006954Y0050979D01*
X0007193Y0050979D01*
X0007193Y0047443D01*
X0007588Y0046488D01*
X0008271Y0045806D01*
X0008271Y0044826D01*
X0008862Y0043398D01*
X0009955Y0042306D01*
X0011382Y0041714D01*
X0012927Y0041714D01*
X0014355Y0042306D01*
X0015448Y0043398D01*
X0016039Y0044826D01*
X0016039Y0046371D01*
X0015448Y0047799D01*
X0014355Y0048891D01*
X0012927Y0049483D01*
X0012393Y0049483D01*
X0012393Y0050979D01*
X0012631Y0050979D01*
X0013861Y0052209D01*
X0013861Y0059460D01*
X0013681Y0059640D01*
X0014972Y0059640D01*
X0014880Y0059616D01*
X0014629Y0059471D01*
X0014424Y0059266D01*
X0014279Y0059015D01*
X0014204Y0058735D01*
X0014204Y0056319D01*
X0016789Y0056319D01*
X0016789Y0059691D01*
X0016422Y0059691D01*
X0017601Y0060870D01*
X0017601Y0068122D01*
X0017284Y0068439D01*
X0017614Y0069235D01*
X0017614Y0070780D01*
X0017023Y0072208D01*
X0015930Y0073301D01*
X0014502Y0073892D01*
X0012957Y0073892D01*
X0011529Y0073301D01*
X0011380Y0073152D01*
X0011013Y0074040D01*
X0010491Y0074561D01*
X0016489Y0074561D01*
X0017719Y0075792D01*
X0017719Y0076620D01*
X0017811Y0076620D01*
X0017811Y0075831D01*
X0019041Y0074601D01*
X0026686Y0074601D01*
X0027916Y0075831D01*
X0027916Y0079730D01*
X0029570Y0081384D01*
X0041302Y0081384D01*
X0041302Y0078962D01*
X0040466Y0078616D01*
X0039374Y0077523D01*
X0038782Y0076095D01*
X0038782Y0074550D01*
X0039374Y0073123D01*
X0040466Y0072030D01*
X0041894Y0071439D01*
X0043439Y0071439D01*
X0044867Y0072030D01*
X0045960Y0073123D01*
X0046551Y0074550D01*
X0046551Y0075530D01*
X0046825Y0075804D01*
X0047207Y0076186D01*
X0047350Y0076186D01*
X0047350Y0074609D01*
X0047746Y0073653D01*
X0048477Y0072922D01*
X0049433Y0072526D01*
X0050600Y0072526D01*
X0051293Y0071833D01*
X0052721Y0071242D01*
X0054266Y0071242D01*
X0055694Y0071833D01*
X0056786Y0072926D01*
X0056792Y0072940D01*
X0059162Y0070702D01*
X0059501Y0070363D01*
X0059537Y0070348D01*
X0059565Y0070322D01*
X0060013Y0070151D01*
X0060457Y0069967D01*
X0060495Y0069967D01*
X0060531Y0069953D01*
X0060841Y0069962D01*
X0061529Y0069274D01*
X0062957Y0068683D01*
X0064502Y0068683D01*
X0065930Y0069274D01*
X0067023Y0070367D01*
X0067614Y0071794D01*
X0067614Y0073340D01*
X0067023Y0074767D01*
X0065930Y0075860D01*
X0064502Y0076451D01*
X0062957Y0076451D01*
X0061529Y0075860D01*
X0061405Y0075736D01*
X0060030Y0077034D01*
X0060030Y0079186D01*
X0059635Y0080142D01*
X0058903Y0080873D01*
X0058650Y0081126D01*
X0058650Y0081126D01*
X0057919Y0081858D01*
X0056963Y0082254D01*
X0055358Y0082254D01*
X0053731Y0083880D01*
X0053731Y0089061D01*
X0054227Y0089061D01*
X0054275Y0089081D01*
X0059396Y0089081D01*
X0059059Y0088744D01*
X0058467Y0087316D01*
X0058467Y0085771D01*
X0059059Y0084343D01*
X0060151Y0083250D01*
X0061579Y0082659D01*
X0063124Y0082659D01*
X0064277Y0083137D01*
X0064277Y0077416D01*
X0065507Y0076186D01*
X0071147Y0076186D01*
X0071227Y0076266D01*
X0087869Y0076266D01*
X0088689Y0076606D01*
X0089513Y0075782D01*
X0090736Y0075782D01*
X0090736Y0070224D01*
X0090358Y0069846D01*
X0089767Y0068418D01*
X0089767Y0066873D01*
X0090358Y0065445D01*
X0091451Y0064353D01*
X0092878Y0063761D01*
X0093807Y0063761D01*
X0093807Y0062102D02*
X0017601Y0062102D01*
X0017601Y0061104D02*
X0093807Y0061104D01*
X0093807Y0060105D02*
X0016836Y0060105D01*
X0016789Y0059107D02*
X0017757Y0059107D01*
X0017757Y0059691D02*
X0017757Y0056319D01*
X0016789Y0056319D01*
X0016789Y0055350D01*
X0017757Y0055350D01*
X0017757Y0051979D01*
X0019386Y0051979D01*
X0019666Y0052054D01*
X0019917Y0052199D01*
X0020122Y0052403D01*
X0020266Y0052654D01*
X0020341Y0052934D01*
X0020341Y0055350D01*
X0017757Y0055350D01*
X0017757Y0056319D01*
X0020341Y0056319D01*
X0020341Y0058735D01*
X0020266Y0059015D01*
X0020122Y0059266D01*
X0019917Y0059471D01*
X0019666Y0059616D01*
X0019386Y0059691D01*
X0017757Y0059691D01*
X0017757Y0058108D02*
X0016789Y0058108D01*
X0016789Y0057110D02*
X0017757Y0057110D01*
X0017757Y0056111D02*
X0025171Y0056111D01*
X0025397Y0056657D02*
X0024806Y0055229D01*
X0024806Y0053684D01*
X0025397Y0052256D01*
X0026490Y0051164D01*
X0027918Y0050572D01*
X0028898Y0050572D01*
X0030027Y0049443D01*
X0030027Y0040376D01*
X0015605Y0025954D01*
X0015459Y0025954D01*
X0015054Y0026933D01*
X0013961Y0028025D01*
X0012534Y0028617D01*
X0010989Y0028617D01*
X0009561Y0028025D01*
X0008468Y0026933D01*
X0007877Y0025505D01*
X0007877Y0023960D01*
X0008468Y0022532D01*
X0009561Y0021439D01*
X0010989Y0020848D01*
X0012534Y0020848D01*
X0012563Y0020860D01*
X0012819Y0020754D01*
X0012908Y0020754D01*
X0012993Y0020726D01*
X0013423Y0020754D01*
X0017200Y0020754D01*
X0018155Y0021150D01*
X0034831Y0037826D01*
X0035227Y0038782D01*
X0035227Y0051037D01*
X0034831Y0051992D01*
X0032575Y0054249D01*
X0032575Y0055229D01*
X0031983Y0056657D01*
X0030891Y0057750D01*
X0029463Y0058341D01*
X0027918Y0058341D01*
X0026490Y0057750D01*
X0025397Y0056657D01*
X0025850Y0057110D02*
X0020341Y0057110D01*
X0020341Y0058108D02*
X0027356Y0058108D01*
X0030025Y0058108D02*
X0093807Y0058108D01*
X0093807Y0057110D02*
X0031530Y0057110D01*
X0032209Y0056111D02*
X0093807Y0056111D01*
X0093538Y0055113D02*
X0032575Y0055113D01*
X0032710Y0054114D02*
X0092991Y0054114D01*
X0092719Y0053116D02*
X0033708Y0053116D01*
X0034707Y0052117D02*
X0092719Y0052117D01*
X0093048Y0051119D02*
X0035193Y0051119D01*
X0035227Y0050120D02*
X0093675Y0050120D01*
X0095057Y0049122D02*
X0035227Y0049122D01*
X0035227Y0048123D02*
X0109064Y0048123D01*
X0109064Y0047125D02*
X0035227Y0047125D01*
X0035227Y0046126D02*
X0109064Y0046126D01*
X0109064Y0045128D02*
X0035227Y0045128D01*
X0035227Y0044129D02*
X0109064Y0044129D01*
X0109064Y0043130D02*
X0035227Y0043130D01*
X0035227Y0042132D02*
X0109064Y0042132D01*
X0109064Y0041133D02*
X0035227Y0041133D01*
X0035227Y0040135D02*
X0109064Y0040135D01*
X0109064Y0039136D02*
X0035227Y0039136D01*
X0034960Y0038138D02*
X0109064Y0038138D01*
X0109064Y0037139D02*
X0034144Y0037139D01*
X0033146Y0036141D02*
X0109064Y0036141D01*
X0109064Y0035142D02*
X0032147Y0035142D01*
X0031149Y0034144D02*
X0109064Y0034144D01*
X0109064Y0033145D02*
X0030150Y0033145D01*
X0029152Y0032147D02*
X0109064Y0032147D01*
X0109064Y0031148D02*
X0028153Y0031148D01*
X0027155Y0030150D02*
X0109064Y0030150D01*
X0109064Y0029151D02*
X0026156Y0029151D01*
X0025158Y0028153D02*
X0109064Y0028153D01*
X0109064Y0027154D02*
X0024159Y0027154D01*
X0023161Y0026156D02*
X0109064Y0026156D01*
X0109064Y0025157D02*
X0022162Y0025157D01*
X0021164Y0024159D02*
X0109064Y0024159D01*
X0109064Y0023160D02*
X0020165Y0023160D01*
X0019167Y0022162D02*
X0109064Y0022162D01*
X0109064Y0021163D02*
X0088484Y0021163D01*
X0089029Y0020937D02*
X0086664Y0021917D01*
X0027410Y0021917D01*
X0025044Y0020937D01*
X0023233Y0019127D01*
X0023233Y0019127D01*
X0022375Y0017055D01*
X0004812Y0017055D01*
X0004812Y0158256D01*
X0005561Y0158256D01*
X0007927Y0159236D01*
X0007927Y0159236D01*
X0009738Y0161047D01*
X0010718Y0163413D01*
X0010718Y0172035D01*
X0103159Y0172035D01*
X0103159Y0163413D01*
X0104139Y0161047D01*
X0104139Y0161047D01*
X0105950Y0159236D01*
X0108315Y0158256D01*
X0109064Y0158256D01*
X0109064Y0017055D01*
X0091698Y0017055D01*
X0090840Y0019127D01*
X0089029Y0020937D01*
X0089029Y0020937D01*
X0089802Y0020165D02*
X0109064Y0020165D01*
X0109064Y0019166D02*
X0090801Y0019166D01*
X0090840Y0019127D02*
X0090840Y0019127D01*
X0091237Y0018168D02*
X0109064Y0018168D01*
X0109064Y0017169D02*
X0091651Y0017169D01*
X0082234Y0030244D02*
X0081643Y0030244D01*
X0088730Y0045008D02*
X0090304Y0045008D01*
X0090501Y0044811D01*
X0068257Y0044811D01*
X0065895Y0047173D01*
X0065895Y0061150D01*
X0065490Y0069092D02*
X0090046Y0069092D01*
X0089767Y0068093D02*
X0017601Y0068093D01*
X0017601Y0067095D02*
X0089767Y0067095D01*
X0090088Y0066096D02*
X0017601Y0066096D01*
X0017601Y0065098D02*
X0090706Y0065098D01*
X0090602Y0070090D02*
X0066746Y0070090D01*
X0067322Y0071089D02*
X0090736Y0071089D01*
X0090736Y0072087D02*
X0067614Y0072087D01*
X0067614Y0073086D02*
X0090736Y0073086D01*
X0090736Y0074084D02*
X0067305Y0074084D01*
X0066707Y0075083D02*
X0090736Y0075083D01*
X0089214Y0076081D02*
X0065395Y0076081D01*
X0064613Y0077080D02*
X0060030Y0077080D01*
X0060030Y0078078D02*
X0064277Y0078078D01*
X0064277Y0079077D02*
X0060030Y0079077D01*
X0059662Y0080075D02*
X0064277Y0080075D01*
X0064277Y0081074D02*
X0058703Y0081074D01*
X0058903Y0080873D02*
X0058903Y0080873D01*
X0057430Y0078669D02*
X0056446Y0079654D01*
X0054281Y0079654D01*
X0051131Y0082803D01*
X0051131Y0089102D01*
X0051131Y0091661D01*
X0053710Y0091661D01*
X0053710Y0091681D01*
X0068327Y0091681D01*
X0068347Y0091661D01*
X0078297Y0091661D01*
X0081840Y0095205D01*
X0082037Y0095205D01*
X0083177Y0091473D02*
X0083177Y0087030D01*
X0082731Y0086584D01*
X0072377Y0086584D01*
X0072377Y0088033D01*
X0071377Y0089033D01*
X0071377Y0089061D01*
X0078814Y0089061D01*
X0079769Y0089457D01*
X0081633Y0091320D01*
X0082809Y0091320D01*
X0083177Y0091473D01*
X0083177Y0091059D02*
X0081371Y0091059D01*
X0080373Y0090061D02*
X0083177Y0090061D01*
X0083177Y0089062D02*
X0078815Y0089062D01*
X0081052Y0089102D02*
X0068347Y0089102D01*
X0068327Y0089122D01*
X0068327Y0086563D02*
X0068308Y0086543D01*
X0062352Y0086543D01*
X0064119Y0083071D02*
X0064277Y0083071D01*
X0064277Y0082072D02*
X0057401Y0082072D01*
X0059332Y0084069D02*
X0053731Y0084069D01*
X0053731Y0085068D02*
X0058759Y0085068D01*
X0058467Y0086066D02*
X0053731Y0086066D01*
X0053731Y0087065D02*
X0058467Y0087065D01*
X0058777Y0088063D02*
X0053731Y0088063D01*
X0054229Y0089062D02*
X0059377Y0089062D01*
X0063336Y0094220D02*
X0061761Y0095795D01*
X0063336Y0094220D02*
X0068308Y0094220D01*
X0068327Y0094240D01*
X0068347Y0096780D02*
X0075344Y0096780D01*
X0076525Y0095598D01*
X0079478Y0099339D02*
X0068347Y0099339D01*
X0068327Y0099358D01*
X0068327Y0096799D02*
X0068347Y0096780D01*
X0068347Y0101898D02*
X0072982Y0101898D01*
X0076525Y0105441D01*
X0082037Y0105441D01*
X0080557Y0109032D02*
X0004812Y0109032D01*
X0004812Y0108034D02*
X0075990Y0108034D01*
X0074442Y0107035D02*
X0068908Y0107035D01*
X0070157Y0106037D02*
X0073444Y0106037D01*
X0072445Y0105038D02*
X0070864Y0105038D01*
X0068454Y0104063D02*
X0068454Y0102044D01*
X0068327Y0101917D01*
X0068347Y0101898D01*
X0068454Y0104063D02*
X0067864Y0104654D01*
X0015698Y0104654D01*
X0011958Y0100913D01*
X0011958Y0098748D01*
X0009161Y0096052D02*
X0004812Y0096052D01*
X0004812Y0097050D02*
X0008457Y0097050D01*
X0008074Y0098049D02*
X0004812Y0098049D01*
X0004812Y0099047D02*
X0008074Y0099047D01*
X0008291Y0100046D02*
X0004812Y0100046D01*
X0004812Y0101044D02*
X0008761Y0101044D01*
X0009612Y0102043D02*
X0004812Y0102043D01*
X0004812Y0103041D02*
X0010409Y0103041D01*
X0011407Y0104040D02*
X0004812Y0104040D01*
X0004812Y0105038D02*
X0012406Y0105038D01*
X0013404Y0106037D02*
X0004812Y0106037D01*
X0004812Y0107035D02*
X0014654Y0107035D01*
X0016764Y0102043D02*
X0025035Y0102043D01*
X0024806Y0101044D02*
X0015766Y0101044D01*
X0015625Y0100046D02*
X0024806Y0100046D01*
X0025177Y0099047D02*
X0015842Y0099047D01*
X0015842Y0098049D02*
X0025865Y0098049D01*
X0027392Y0097050D02*
X0015459Y0097050D01*
X0014755Y0096052D02*
X0041302Y0096052D01*
X0041302Y0097050D02*
X0029989Y0097050D01*
X0031516Y0098049D02*
X0041302Y0098049D01*
X0041302Y0099047D02*
X0032203Y0099047D01*
X0034005Y0096780D02*
X0017667Y0096780D01*
X0016209Y0095053D02*
X0013188Y0095053D01*
X0014480Y0093056D02*
X0004812Y0093056D01*
X0004812Y0092058D02*
X0014279Y0092058D01*
X0015202Y0094055D02*
X0004812Y0094055D01*
X0004812Y0095053D02*
X0010728Y0095053D01*
X0008543Y0091059D02*
X0004812Y0091059D01*
X0004812Y0090061D02*
X0007614Y0090061D01*
X0007614Y0089062D02*
X0004812Y0089062D01*
X0004812Y0088063D02*
X0006848Y0088063D01*
X0006351Y0087566D02*
X0006351Y0087566D01*
X0005850Y0087065D02*
X0004812Y0087065D01*
X0004812Y0086066D02*
X0005302Y0086066D01*
X0005224Y0085068D02*
X0004812Y0085068D01*
X0004812Y0084069D02*
X0005224Y0084069D01*
X0005224Y0083071D02*
X0004812Y0083071D01*
X0004812Y0082072D02*
X0005224Y0082072D01*
X0005224Y0081074D02*
X0004812Y0081074D01*
X0004812Y0080075D02*
X0005224Y0080075D01*
X0005224Y0079077D02*
X0004812Y0079077D01*
X0004812Y0078078D02*
X0005224Y0078078D01*
X0005224Y0077080D02*
X0004812Y0077080D01*
X0004812Y0076081D02*
X0005224Y0076081D01*
X0005224Y0075083D02*
X0004812Y0075083D01*
X0004812Y0074084D02*
X0005224Y0074084D01*
X0005224Y0073086D02*
X0004812Y0073086D01*
X0004812Y0072087D02*
X0005616Y0072087D01*
X0006208Y0071089D02*
X0004812Y0071089D01*
X0004812Y0070090D02*
X0006208Y0070090D01*
X0006208Y0069092D02*
X0004812Y0069092D01*
X0004812Y0068093D02*
X0006208Y0068093D01*
X0006208Y0067095D02*
X0004812Y0067095D01*
X0004812Y0066096D02*
X0006208Y0066096D01*
X0006208Y0065098D02*
X0004812Y0065098D01*
X0004812Y0064099D02*
X0006208Y0064099D01*
X0006208Y0063101D02*
X0004812Y0063101D01*
X0004812Y0062102D02*
X0006208Y0062102D01*
X0006208Y0061104D02*
X0004812Y0061104D01*
X0004812Y0060105D02*
X0006208Y0060105D01*
X0005724Y0059107D02*
X0004812Y0059107D01*
X0004812Y0058108D02*
X0005724Y0058108D01*
X0005724Y0057110D02*
X0004812Y0057110D01*
X0004812Y0056111D02*
X0005724Y0056111D01*
X0005724Y0055113D02*
X0004812Y0055113D01*
X0004812Y0054114D02*
X0005724Y0054114D01*
X0005724Y0053116D02*
X0004812Y0053116D01*
X0004812Y0052117D02*
X0005816Y0052117D01*
X0006814Y0051119D02*
X0004812Y0051119D01*
X0004812Y0050120D02*
X0007193Y0050120D01*
X0007193Y0049122D02*
X0004812Y0049122D01*
X0004812Y0048123D02*
X0007193Y0048123D01*
X0007325Y0047125D02*
X0004812Y0047125D01*
X0004812Y0046126D02*
X0007950Y0046126D01*
X0008271Y0045128D02*
X0004812Y0045128D01*
X0004812Y0044129D02*
X0008559Y0044129D01*
X0009130Y0043130D02*
X0004812Y0043130D01*
X0004812Y0042132D02*
X0010374Y0042132D01*
X0012155Y0045598D02*
X0009793Y0047961D01*
X0009793Y0055835D01*
X0009793Y0057803D01*
X0009596Y0057606D01*
X0008612Y0057606D01*
X0008808Y0057803D01*
X0008808Y0072567D01*
X0007824Y0073551D01*
X0007824Y0085362D01*
X0008808Y0086346D01*
X0010738Y0086346D01*
X0012667Y0086701D01*
X0011328Y0086937D01*
X0015501Y0086937D01*
X0016879Y0088315D01*
X0016879Y0092055D01*
X0017667Y0092843D01*
X0028690Y0092843D01*
X0032411Y0089122D01*
X0045352Y0089122D01*
X0045372Y0089102D01*
X0051131Y0089102D01*
X0052115Y0095795D02*
X0051131Y0096780D01*
X0045372Y0096780D01*
X0045352Y0096799D01*
X0045372Y0099339D02*
X0054281Y0099339D01*
X0057037Y0097173D01*
X0057037Y0095992D01*
X0054540Y0083071D02*
X0060585Y0083071D01*
X0057430Y0078669D02*
X0057430Y0075913D01*
X0060974Y0072567D01*
X0063730Y0072567D01*
X0062064Y0076081D02*
X0061039Y0076081D01*
X0058752Y0071089D02*
X0017486Y0071089D01*
X0017614Y0070090D02*
X0060159Y0070090D01*
X0061969Y0069092D02*
X0017554Y0069092D01*
X0017073Y0072087D02*
X0040409Y0072087D01*
X0039410Y0073086D02*
X0016145Y0073086D01*
X0017011Y0075083D02*
X0018559Y0075083D01*
X0017811Y0076081D02*
X0017719Y0076081D01*
X0013730Y0070008D02*
X0013730Y0064693D01*
X0013533Y0064496D01*
X0013861Y0059107D02*
X0014332Y0059107D01*
X0014204Y0058108D02*
X0013861Y0058108D01*
X0013861Y0057110D02*
X0014204Y0057110D01*
X0013861Y0056111D02*
X0016789Y0056111D01*
X0017273Y0055835D02*
X0017273Y0039693D01*
X0017667Y0039299D01*
X0015180Y0043130D02*
X0030027Y0043130D01*
X0030027Y0042132D02*
X0013936Y0042132D01*
X0015750Y0044129D02*
X0030027Y0044129D01*
X0030027Y0045128D02*
X0016039Y0045128D01*
X0016039Y0046126D02*
X0030027Y0046126D01*
X0030027Y0047125D02*
X0015727Y0047125D01*
X0015123Y0048123D02*
X0030027Y0048123D01*
X0030027Y0049122D02*
X0013799Y0049122D01*
X0012393Y0050120D02*
X0029350Y0050120D01*
X0032627Y0050520D02*
X0028690Y0054457D01*
X0026599Y0051119D02*
X0012771Y0051119D01*
X0013769Y0052117D02*
X0014770Y0052117D01*
X0014880Y0052054D02*
X0015160Y0051979D01*
X0016789Y0051979D01*
X0016789Y0055350D01*
X0014204Y0055350D01*
X0014204Y0052934D01*
X0014279Y0052654D01*
X0014424Y0052403D01*
X0014629Y0052199D01*
X0014880Y0052054D01*
X0014204Y0053116D02*
X0013861Y0053116D01*
X0013861Y0054114D02*
X0014204Y0054114D01*
X0014204Y0055113D02*
X0013861Y0055113D01*
X0016789Y0055113D02*
X0017757Y0055113D01*
X0017757Y0054114D02*
X0016789Y0054114D01*
X0016789Y0053116D02*
X0017757Y0053116D01*
X0017757Y0052117D02*
X0016789Y0052117D01*
X0019776Y0052117D02*
X0025537Y0052117D01*
X0025041Y0053116D02*
X0020341Y0053116D01*
X0020341Y0054114D02*
X0024806Y0054114D01*
X0024806Y0055113D02*
X0020341Y0055113D01*
X0020214Y0059107D02*
X0093807Y0059107D01*
X0096407Y0063512D02*
X0102115Y0069220D01*
X0102115Y0070992D01*
X0099715Y0074084D02*
X0095936Y0074084D01*
X0095936Y0073086D02*
X0098778Y0073086D01*
X0098365Y0072087D02*
X0095936Y0072087D01*
X0095936Y0071089D02*
X0098231Y0071089D01*
X0098285Y0070090D02*
X0096699Y0070090D01*
X0097256Y0069092D02*
X0098310Y0069092D01*
X0100671Y0064099D02*
X0109064Y0064099D01*
X0109064Y0063101D02*
X0099673Y0063101D01*
X0099007Y0062102D02*
X0109064Y0062102D01*
X0109064Y0061104D02*
X0099007Y0061104D01*
X0099007Y0060105D02*
X0109064Y0060105D01*
X0109064Y0059107D02*
X0099007Y0059107D01*
X0099007Y0058108D02*
X0109064Y0058108D01*
X0109064Y0057110D02*
X0099007Y0057110D01*
X0099007Y0056111D02*
X0109064Y0056111D01*
X0109064Y0055113D02*
X0099669Y0055113D01*
X0100216Y0054114D02*
X0109064Y0054114D01*
X0109064Y0053116D02*
X0100488Y0053116D01*
X0100488Y0052117D02*
X0109064Y0052117D01*
X0109064Y0051119D02*
X0100159Y0051119D01*
X0099532Y0050120D02*
X0109064Y0050120D01*
X0109064Y0049122D02*
X0098151Y0049122D01*
X0096604Y0052685D02*
X0096407Y0052882D01*
X0096407Y0063512D01*
X0101670Y0065098D02*
X0109064Y0065098D01*
X0109064Y0066096D02*
X0102668Y0066096D01*
X0103667Y0067095D02*
X0109064Y0067095D01*
X0109064Y0068093D02*
X0104710Y0068093D01*
X0105533Y0069092D02*
X0109064Y0069092D01*
X0109064Y0070090D02*
X0105946Y0070090D01*
X0106000Y0071089D02*
X0109064Y0071089D01*
X0109064Y0072087D02*
X0105866Y0072087D01*
X0105453Y0073086D02*
X0109064Y0073086D01*
X0109064Y0074084D02*
X0104516Y0074084D01*
X0109064Y0075083D02*
X0095936Y0075083D01*
X0097458Y0076081D02*
X0109064Y0076081D01*
X0109064Y0077080D02*
X0098389Y0077080D01*
X0098389Y0078078D02*
X0109064Y0078078D01*
X0109064Y0079077D02*
X0098389Y0079077D01*
X0098389Y0080075D02*
X0109064Y0080075D01*
X0109064Y0081074D02*
X0098389Y0081074D01*
X0098389Y0082072D02*
X0109064Y0082072D01*
X0109064Y0083071D02*
X0098389Y0083071D01*
X0098189Y0084069D02*
X0109064Y0084069D01*
X0109064Y0085068D02*
X0098389Y0085068D01*
X0098389Y0086066D02*
X0109064Y0086066D01*
X0109064Y0087065D02*
X0098389Y0087065D01*
X0098389Y0088063D02*
X0109064Y0088063D01*
X0109064Y0089062D02*
X0098389Y0089062D01*
X0098389Y0090061D02*
X0109064Y0090061D01*
X0109064Y0091059D02*
X0098389Y0091059D01*
X0097681Y0092058D02*
X0109064Y0092058D01*
X0109064Y0093056D02*
X0093692Y0093056D01*
X0093692Y0094055D02*
X0109064Y0094055D01*
X0109064Y0095053D02*
X0094268Y0095053D01*
X0094750Y0096052D02*
X0109064Y0096052D01*
X0109064Y0097050D02*
X0094976Y0097050D01*
X0094976Y0098049D02*
X0109064Y0098049D01*
X0109064Y0099047D02*
X0094601Y0099047D01*
X0093909Y0100046D02*
X0109064Y0100046D01*
X0109064Y0101044D02*
X0093692Y0101044D01*
X0093692Y0102043D02*
X0109064Y0102043D01*
X0109064Y0103041D02*
X0093697Y0103041D01*
X0091092Y0102685D02*
X0089950Y0104102D01*
X0089911Y0104102D01*
X0089911Y0108787D01*
X0094399Y0108787D01*
X0094478Y0108709D01*
X0092511Y0114025D02*
X0109064Y0114025D01*
X0109064Y0115023D02*
X0092511Y0115023D01*
X0092511Y0116022D02*
X0109064Y0116022D01*
X0109064Y0117020D02*
X0092511Y0117020D01*
X0092511Y0118019D02*
X0109064Y0118019D01*
X0109064Y0119017D02*
X0092511Y0119017D01*
X0092511Y0120016D02*
X0109064Y0120016D01*
X0109064Y0121014D02*
X0092511Y0121014D01*
X0092511Y0122013D02*
X0109064Y0122013D01*
X0109064Y0123011D02*
X0103087Y0123011D01*
X0104086Y0124010D02*
X0109064Y0124010D01*
X0109064Y0125008D02*
X0104752Y0125008D01*
X0104912Y0126007D02*
X0109064Y0126007D01*
X0109064Y0127005D02*
X0104912Y0127005D01*
X0104912Y0128004D02*
X0109064Y0128004D01*
X0109064Y0129002D02*
X0104912Y0129002D01*
X0104912Y0130001D02*
X0109064Y0130001D01*
X0109064Y0130999D02*
X0104912Y0130999D01*
X0104912Y0131998D02*
X0109064Y0131998D01*
X0109064Y0132997D02*
X0104912Y0132997D01*
X0104912Y0133995D02*
X0109064Y0133995D01*
X0109064Y0134994D02*
X0104912Y0134994D01*
X0104912Y0135992D02*
X0109064Y0135992D01*
X0109064Y0136991D02*
X0104912Y0136991D01*
X0104912Y0137989D02*
X0109064Y0137989D01*
X0109064Y0138988D02*
X0104912Y0138988D01*
X0104912Y0139986D02*
X0109064Y0139986D01*
X0109064Y0140985D02*
X0104912Y0140985D01*
X0104912Y0141983D02*
X0109064Y0141983D01*
X0109064Y0142982D02*
X0104912Y0142982D01*
X0104912Y0143980D02*
X0109064Y0143980D01*
X0109064Y0144979D02*
X0104912Y0144979D01*
X0104912Y0145977D02*
X0109064Y0145977D01*
X0109064Y0146976D02*
X0104912Y0146976D01*
X0104912Y0147974D02*
X0109064Y0147974D01*
X0109064Y0148973D02*
X0104912Y0148973D01*
X0104912Y0149971D02*
X0109064Y0149971D01*
X0109064Y0150970D02*
X0104912Y0150970D01*
X0104912Y0151968D02*
X0109064Y0151968D01*
X0109064Y0152967D02*
X0104912Y0152967D01*
X0104912Y0153965D02*
X0109064Y0153965D01*
X0109064Y0154964D02*
X0104912Y0154964D01*
X0104912Y0155962D02*
X0109064Y0155962D01*
X0109064Y0156961D02*
X0104912Y0156961D01*
X0104912Y0157959D02*
X0109064Y0157959D01*
X0106621Y0158958D02*
X0104912Y0158958D01*
X0104642Y0159956D02*
X0105229Y0159956D01*
X0105950Y0159236D02*
X0105950Y0159236D01*
X0104231Y0160955D02*
X0103822Y0160955D01*
X0103763Y0161953D02*
X0102823Y0161953D01*
X0103350Y0162952D02*
X0101825Y0162952D01*
X0100826Y0163950D02*
X0103159Y0163950D01*
X0103159Y0164949D02*
X0099828Y0164949D01*
X0098829Y0165947D02*
X0103159Y0165947D01*
X0103159Y0166946D02*
X0097483Y0166946D01*
X0096604Y0164496D02*
X0102312Y0158787D01*
X0102312Y0125913D01*
X0101131Y0124732D01*
X0091092Y0124732D01*
X0089911Y0123551D01*
X0089911Y0109417D01*
X0089950Y0109378D01*
X0089911Y0108787D01*
X0091092Y0102685D02*
X0091092Y0097370D01*
X0091092Y0088315D01*
X0091486Y0087921D01*
X0093336Y0087921D01*
X0096013Y0096976D02*
X0101328Y0102291D01*
X0101328Y0107488D01*
X0101958Y0108709D01*
X0101525Y0109142D01*
X0101525Y0116071D01*
X0102458Y0112761D02*
X0102458Y0109209D01*
X0105617Y0109209D01*
X0105617Y0111806D01*
X0105542Y0112086D01*
X0105397Y0112337D01*
X0105192Y0112542D01*
X0104942Y0112686D01*
X0104662Y0112761D01*
X0102458Y0112761D01*
X0102458Y0112028D02*
X0101458Y0112028D01*
X0101458Y0111029D02*
X0102458Y0111029D01*
X0102458Y0110031D02*
X0101458Y0110031D01*
X0102458Y0109032D02*
X0109064Y0109032D01*
X0109064Y0108034D02*
X0105617Y0108034D01*
X0105617Y0108209D02*
X0102458Y0108209D01*
X0102458Y0104656D01*
X0104662Y0104656D01*
X0104942Y0104731D01*
X0105192Y0104876D01*
X0105397Y0105080D01*
X0105542Y0105331D01*
X0105617Y0105611D01*
X0105617Y0108209D01*
X0105617Y0107035D02*
X0109064Y0107035D01*
X0109064Y0106037D02*
X0105617Y0106037D01*
X0105355Y0105038D02*
X0109064Y0105038D01*
X0109064Y0104040D02*
X0098290Y0104040D01*
X0101458Y0105038D02*
X0102458Y0105038D01*
X0102458Y0106037D02*
X0101458Y0106037D01*
X0101458Y0107035D02*
X0102458Y0107035D01*
X0102458Y0108034D02*
X0101458Y0108034D01*
X0105617Y0110031D02*
X0109064Y0110031D01*
X0109064Y0111029D02*
X0105617Y0111029D01*
X0105558Y0112028D02*
X0109064Y0112028D01*
X0109064Y0113026D02*
X0098642Y0113026D01*
X0088339Y0129002D02*
X0086562Y0129002D01*
X0085563Y0130001D02*
X0096621Y0130001D01*
X0097619Y0130999D02*
X0073935Y0130999D01*
X0074360Y0131998D02*
X0073416Y0131998D01*
X0073416Y0132997D02*
X0074031Y0132997D01*
X0074031Y0133995D02*
X0073416Y0133995D01*
X0073416Y0134994D02*
X0074031Y0134994D01*
X0074031Y0135992D02*
X0073416Y0135992D01*
X0073416Y0136991D02*
X0074031Y0136991D01*
X0074031Y0137989D02*
X0073416Y0137989D01*
X0073416Y0138988D02*
X0074031Y0138988D01*
X0074045Y0139986D02*
X0073416Y0139986D01*
X0073416Y0140985D02*
X0075044Y0140985D01*
X0075500Y0141983D02*
X0073416Y0141983D01*
X0073416Y0142982D02*
X0075500Y0142982D01*
X0075500Y0143980D02*
X0073416Y0143980D01*
X0073416Y0144979D02*
X0075500Y0144979D01*
X0075212Y0145977D02*
X0073416Y0145977D01*
X0073416Y0146976D02*
X0075212Y0146976D01*
X0075212Y0147974D02*
X0073416Y0147974D01*
X0073416Y0148973D02*
X0075212Y0148973D01*
X0075212Y0149971D02*
X0073416Y0149971D01*
X0073416Y0150970D02*
X0075212Y0150970D01*
X0075212Y0151968D02*
X0073416Y0151968D01*
X0070816Y0154063D02*
X0071997Y0155244D01*
X0078100Y0155244D01*
X0078100Y0159181D02*
X0078100Y0162528D01*
X0080068Y0164496D01*
X0096604Y0164496D01*
X0095226Y0162331D02*
X0097391Y0160165D01*
X0097391Y0157409D01*
X0096251Y0156961D02*
X0099712Y0156961D01*
X0099712Y0156466D02*
X0098842Y0156466D01*
X0096251Y0156466D01*
X0096251Y0158320D01*
X0095855Y0159276D01*
X0095124Y0160007D01*
X0093746Y0161385D01*
X0092790Y0161781D01*
X0091855Y0161781D01*
X0091740Y0161896D01*
X0095527Y0161896D01*
X0099712Y0157710D01*
X0099712Y0156466D01*
X0099463Y0157959D02*
X0096251Y0157959D01*
X0095987Y0158958D02*
X0098465Y0158958D01*
X0097466Y0159956D02*
X0095175Y0159956D01*
X0094176Y0160955D02*
X0096468Y0160955D01*
X0095226Y0162331D02*
X0086367Y0162331D01*
X0085974Y0161937D01*
X0085974Y0159181D01*
X0085974Y0159181D01*
X0085974Y0161068D01*
X0086906Y0161068D01*
X0087180Y0160995D01*
X0088081Y0161896D01*
X0083866Y0161896D01*
X0084767Y0160995D01*
X0085042Y0161068D01*
X0085974Y0161068D01*
X0085974Y0159181D01*
X0085974Y0159956D02*
X0085974Y0159956D01*
X0085974Y0160955D02*
X0085974Y0160955D01*
X0089911Y0159181D02*
X0092273Y0159181D01*
X0093651Y0157803D01*
X0093651Y0154260D01*
X0094045Y0153866D01*
X0092798Y0147974D02*
X0097744Y0147974D01*
X0097744Y0146976D02*
X0092798Y0146976D01*
X0092798Y0145977D02*
X0097744Y0145977D01*
X0097744Y0144979D02*
X0092064Y0144979D01*
X0089399Y0139986D02*
X0097744Y0139986D01*
X0097744Y0138988D02*
X0089830Y0138988D01*
X0089830Y0137989D02*
X0097744Y0137989D01*
X0097744Y0136991D02*
X0089830Y0136991D01*
X0089830Y0135650D02*
X0086671Y0135650D01*
X0086671Y0132097D01*
X0088874Y0132097D01*
X0089154Y0132172D01*
X0089405Y0132317D01*
X0089610Y0132521D01*
X0089755Y0132772D01*
X0089830Y0133052D01*
X0089830Y0135650D01*
X0089830Y0134994D02*
X0097744Y0134994D01*
X0097744Y0135992D02*
X0086671Y0135992D01*
X0086671Y0134994D02*
X0085671Y0134994D01*
X0085671Y0133995D02*
X0086671Y0133995D01*
X0086671Y0132997D02*
X0085671Y0132997D01*
X0083612Y0128276D02*
X0072982Y0128276D01*
X0070816Y0130441D01*
X0070816Y0154063D01*
X0069039Y0155962D02*
X0063007Y0155962D01*
X0064005Y0156961D02*
X0070037Y0156961D01*
X0068375Y0154964D02*
X0062008Y0154964D01*
X0061010Y0153965D02*
X0068216Y0153965D01*
X0068216Y0152967D02*
X0060011Y0152967D01*
X0059013Y0151968D02*
X0068216Y0151968D01*
X0068216Y0150970D02*
X0058014Y0150970D01*
X0057016Y0149971D02*
X0068216Y0149971D01*
X0068216Y0148973D02*
X0014526Y0148973D01*
X0011958Y0151898D02*
X0055265Y0151898D01*
X0071407Y0168039D01*
X0087549Y0168039D01*
X0084956Y0170940D02*
X0010718Y0170940D01*
X0010718Y0171938D02*
X0103159Y0171938D01*
X0103159Y0170940D02*
X0090141Y0170940D01*
X0090965Y0169941D02*
X0103159Y0169941D01*
X0103159Y0168943D02*
X0091379Y0168943D01*
X0091433Y0167944D02*
X0103159Y0167944D01*
X0097744Y0133995D02*
X0089830Y0133995D01*
X0089815Y0132997D02*
X0097744Y0132997D01*
X0097744Y0131998D02*
X0083020Y0131998D01*
X0083612Y0128276D02*
X0085777Y0126110D01*
X0085777Y0085953D01*
X0083808Y0083984D01*
X0068347Y0083984D01*
X0068327Y0084004D01*
X0072377Y0087065D02*
X0083177Y0087065D01*
X0083177Y0088063D02*
X0072347Y0088063D01*
X0083177Y0110031D02*
X0004812Y0110031D01*
X0004812Y0111029D02*
X0083177Y0111029D01*
X0083177Y0112028D02*
X0004812Y0112028D01*
X0004812Y0113026D02*
X0083177Y0113026D01*
X0083177Y0114025D02*
X0004812Y0114025D01*
X0004812Y0115023D02*
X0083177Y0115023D01*
X0083177Y0116022D02*
X0004812Y0116022D01*
X0004812Y0117020D02*
X0083177Y0117020D01*
X0083177Y0118019D02*
X0004812Y0118019D01*
X0004812Y0119017D02*
X0083177Y0119017D01*
X0083177Y0120016D02*
X0004812Y0120016D01*
X0004812Y0121014D02*
X0083177Y0121014D01*
X0083177Y0122013D02*
X0004812Y0122013D01*
X0004812Y0123011D02*
X0083177Y0123011D01*
X0083177Y0124010D02*
X0004812Y0124010D01*
X0004812Y0125008D02*
X0083177Y0125008D01*
X0078690Y0136150D02*
X0078690Y0137921D01*
X0078100Y0138512D01*
X0078100Y0147370D01*
X0075212Y0157959D02*
X0065004Y0157959D01*
X0066002Y0158958D02*
X0075212Y0158958D01*
X0075212Y0159956D02*
X0067001Y0159956D01*
X0067999Y0160955D02*
X0075329Y0160955D01*
X0075500Y0161953D02*
X0068998Y0161953D01*
X0069996Y0162952D02*
X0075500Y0162952D01*
X0075875Y0163950D02*
X0070995Y0163950D01*
X0071993Y0164949D02*
X0076844Y0164949D01*
X0069632Y0169941D02*
X0010718Y0169941D01*
X0010718Y0168943D02*
X0068633Y0168943D01*
X0067635Y0167944D02*
X0010718Y0167944D01*
X0010718Y0166946D02*
X0066636Y0166946D01*
X0065638Y0165947D02*
X0010718Y0165947D01*
X0010718Y0164949D02*
X0064639Y0164949D01*
X0063641Y0163950D02*
X0010718Y0163950D01*
X0010527Y0162952D02*
X0062642Y0162952D01*
X0061644Y0161953D02*
X0010113Y0161953D01*
X0009738Y0161047D02*
X0009738Y0161047D01*
X0009646Y0160955D02*
X0060645Y0160955D01*
X0059647Y0159956D02*
X0008648Y0159956D01*
X0007256Y0158958D02*
X0058648Y0158958D01*
X0057650Y0157959D02*
X0004812Y0157959D01*
X0004812Y0156961D02*
X0056651Y0156961D01*
X0055653Y0155962D02*
X0004812Y0155962D01*
X0004812Y0154964D02*
X0009531Y0154964D01*
X0008610Y0153965D02*
X0004812Y0153965D01*
X0004812Y0152967D02*
X0008197Y0152967D01*
X0008074Y0151968D02*
X0004812Y0151968D01*
X0004812Y0150970D02*
X0008138Y0150970D01*
X0008552Y0149971D02*
X0004812Y0149971D01*
X0004812Y0148973D02*
X0009390Y0148973D01*
X0004812Y0147974D02*
X0068216Y0147974D01*
X0068216Y0146976D02*
X0004812Y0146976D01*
X0004812Y0145977D02*
X0068216Y0145977D01*
X0068216Y0144979D02*
X0004812Y0144979D01*
X0004812Y0143980D02*
X0068216Y0143980D01*
X0068216Y0142982D02*
X0004812Y0142982D01*
X0004812Y0141983D02*
X0068216Y0141983D01*
X0068216Y0140985D02*
X0004812Y0140985D01*
X0004812Y0139986D02*
X0068216Y0139986D01*
X0068216Y0138988D02*
X0004812Y0138988D01*
X0004812Y0137989D02*
X0068216Y0137989D01*
X0068216Y0136991D02*
X0004812Y0136991D01*
X0004812Y0135992D02*
X0068216Y0135992D01*
X0068216Y0134994D02*
X0004812Y0134994D01*
X0004812Y0133995D02*
X0068216Y0133995D01*
X0068216Y0132997D02*
X0004812Y0132997D01*
X0004812Y0131998D02*
X0068216Y0131998D01*
X0068216Y0130999D02*
X0004812Y0130999D01*
X0004812Y0130001D02*
X0068216Y0130001D01*
X0068598Y0129002D02*
X0004812Y0129002D01*
X0004812Y0128004D02*
X0069576Y0128004D01*
X0070575Y0127005D02*
X0004812Y0127005D01*
X0004812Y0126007D02*
X0071665Y0126007D01*
X0054654Y0154964D02*
X0014385Y0154964D01*
X0029891Y0101917D02*
X0045352Y0101917D01*
X0045352Y0099358D02*
X0045372Y0099339D01*
X0041302Y0095053D02*
X0030148Y0095053D01*
X0031155Y0094055D02*
X0041302Y0094055D01*
X0041302Y0093056D02*
X0032154Y0093056D01*
X0033152Y0092058D02*
X0042015Y0092058D01*
X0039123Y0091661D02*
X0034005Y0096780D01*
X0029891Y0101917D02*
X0028690Y0100717D01*
X0024753Y0086740D02*
X0022864Y0086740D01*
X0024753Y0086740D02*
X0024950Y0086543D01*
X0045333Y0086543D01*
X0045352Y0086563D01*
X0045352Y0084004D02*
X0045333Y0083984D01*
X0028493Y0083984D01*
X0023769Y0079260D01*
X0022864Y0079260D01*
X0022824Y0079220D01*
X0012667Y0079220D01*
X0010968Y0074084D02*
X0038975Y0074084D01*
X0038782Y0075083D02*
X0027168Y0075083D01*
X0027916Y0076081D02*
X0038782Y0076081D01*
X0039190Y0077080D02*
X0027916Y0077080D01*
X0027916Y0078078D02*
X0039929Y0078078D01*
X0041302Y0079077D02*
X0027916Y0079077D01*
X0028262Y0080075D02*
X0041302Y0080075D01*
X0041302Y0081074D02*
X0029260Y0081074D01*
X0039123Y0091661D02*
X0045333Y0091661D01*
X0045352Y0091681D01*
X0045352Y0081445D02*
X0048946Y0081445D01*
X0049950Y0080441D01*
X0049950Y0075126D01*
X0053493Y0075126D01*
X0051039Y0072087D02*
X0044924Y0072087D01*
X0045923Y0073086D02*
X0048313Y0073086D01*
X0047567Y0074084D02*
X0046358Y0074084D01*
X0046551Y0075083D02*
X0047350Y0075083D01*
X0047350Y0076081D02*
X0047102Y0076081D01*
X0045352Y0078009D02*
X0045352Y0078886D01*
X0045352Y0078009D02*
X0042667Y0075323D01*
X0055948Y0072087D02*
X0057695Y0072087D01*
X0032627Y0050520D02*
X0032627Y0039299D01*
X0016682Y0023354D01*
X0013336Y0023354D01*
X0011761Y0024732D01*
X0010228Y0021163D02*
X0004812Y0021163D01*
X0004812Y0020165D02*
X0024271Y0020165D01*
X0025044Y0020937D02*
X0025044Y0020937D01*
X0025589Y0021163D02*
X0018168Y0021163D01*
X0015807Y0026156D02*
X0015376Y0026156D01*
X0014832Y0027154D02*
X0016805Y0027154D01*
X0017804Y0028153D02*
X0013653Y0028153D01*
X0009869Y0028153D02*
X0004812Y0028153D01*
X0004812Y0029151D02*
X0018802Y0029151D01*
X0019801Y0030150D02*
X0004812Y0030150D01*
X0004812Y0031148D02*
X0020799Y0031148D01*
X0021798Y0032147D02*
X0004812Y0032147D01*
X0004812Y0033145D02*
X0022797Y0033145D01*
X0023795Y0034144D02*
X0004812Y0034144D01*
X0004812Y0035142D02*
X0024794Y0035142D01*
X0025792Y0036141D02*
X0004812Y0036141D01*
X0004812Y0037139D02*
X0026791Y0037139D01*
X0027789Y0038138D02*
X0004812Y0038138D01*
X0004812Y0039136D02*
X0028788Y0039136D01*
X0029786Y0040135D02*
X0004812Y0040135D01*
X0004812Y0041133D02*
X0030027Y0041133D01*
X0023273Y0019166D02*
X0004812Y0019166D01*
X0004812Y0018168D02*
X0022836Y0018168D01*
X0022422Y0017169D02*
X0004812Y0017169D01*
X0004812Y0022162D02*
X0008839Y0022162D01*
X0008208Y0023160D02*
X0004812Y0023160D01*
X0004812Y0024159D02*
X0007877Y0024159D01*
X0007877Y0025157D02*
X0004812Y0025157D01*
X0004812Y0026156D02*
X0008147Y0026156D01*
X0008690Y0027154D02*
X0004812Y0027154D01*
D17*
X0011761Y0024732D03*
X0017667Y0039299D03*
X0012155Y0045598D03*
X0013730Y0070008D03*
X0028690Y0054457D03*
X0042667Y0075323D03*
X0053493Y0075126D03*
X0062352Y0086543D03*
X0061761Y0095795D03*
X0057037Y0095992D03*
X0052115Y0095795D03*
X0063730Y0072567D03*
X0065895Y0061150D03*
X0081052Y0089102D03*
X0082037Y0095205D03*
X0079478Y0099339D03*
X0076525Y0095598D03*
X0082037Y0105441D03*
X0091092Y0097370D03*
X0096013Y0096976D03*
X0101525Y0116071D03*
X0096604Y0148551D03*
X0097391Y0157409D03*
X0087549Y0168039D03*
X0028690Y0100717D03*
X0017667Y0096780D03*
X0011958Y0098748D03*
X0011958Y0151898D03*
X0081643Y0030244D03*
X0090501Y0044811D03*
X0096604Y0052685D03*
X0093651Y0067646D03*
X0102115Y0070992D03*
M02*
