G75*
G70*
%OFA0B0*%
%FSLAX24Y24*%
%IPPOS*%
%LPD*%
%AMOC8*
5,1,8,0,0,1.08239X$1,22.5*
%
%ADD10C,0.0040*%
%ADD11O,0.1040X0.0520*%
%ADD12O,0.0520X0.1040*%
%ADD13R,0.0866X0.0236*%
%ADD14OC8,0.0574*%
%ADD15O,0.1200X0.0600*%
%ADD16OC8,0.0520*%
%ADD17OC8,0.0630*%
%ADD18C,0.0630*%
%ADD19C,0.0520*%
%ADD20O,0.0560X0.1120*%
%ADD21O,0.1120X0.0560*%
%ADD22C,0.1000*%
%ADD23OC8,0.1000*%
%ADD24O,0.0600X0.1200*%
%ADD25C,0.0160*%
%ADD26C,0.0240*%
%ADD27OC8,0.0400*%
%ADD28OC8,0.1260*%
D10*
X031899Y027771D02*
X031639Y027511D01*
X031639Y027857D01*
X031379Y027771D02*
X031899Y027771D01*
X031812Y027342D02*
X031466Y027342D01*
X031379Y027255D01*
X031379Y027082D01*
X031466Y026995D01*
X031812Y027342D01*
X031899Y027255D01*
X031899Y027082D01*
X031812Y026995D01*
X031466Y026995D01*
X031466Y026826D02*
X031379Y026739D01*
X031379Y026566D01*
X031466Y026479D01*
X031812Y026826D01*
X031466Y026826D01*
X031812Y026826D02*
X031899Y026739D01*
X031899Y026566D01*
X031812Y026479D01*
X031466Y026479D01*
X031379Y026311D02*
X031379Y025964D01*
X031726Y026311D01*
X031812Y026311D01*
X031899Y026224D01*
X031899Y026050D01*
X031812Y025964D01*
X031036Y025621D02*
X030949Y025621D01*
X030776Y025621D02*
X030429Y025621D01*
X030429Y025707D02*
X030429Y025534D01*
X030429Y025365D02*
X030429Y025105D01*
X030516Y025018D01*
X030689Y025018D01*
X030776Y025105D01*
X030776Y025365D01*
X030342Y025365D01*
X030255Y025279D01*
X030255Y025192D01*
X029999Y025191D02*
X029479Y025191D01*
X029479Y025104D02*
X029479Y025278D01*
X029479Y025534D02*
X029479Y025707D01*
X029479Y025621D02*
X029826Y025621D01*
X029826Y025534D01*
X029999Y025621D02*
X030086Y025621D01*
X029739Y025964D02*
X029566Y025964D01*
X029479Y026050D01*
X029479Y026311D01*
X029392Y026311D02*
X029826Y026311D01*
X029826Y026050D01*
X029739Y025964D01*
X029305Y026137D02*
X029305Y026224D01*
X029392Y026311D01*
X029479Y026479D02*
X029999Y026479D01*
X029826Y026566D02*
X029826Y026739D01*
X029739Y026826D01*
X029479Y026826D01*
X029566Y027082D02*
X029479Y027168D01*
X029566Y027082D02*
X029912Y027082D01*
X029826Y027168D02*
X029826Y026995D01*
X029826Y026566D02*
X029739Y026479D01*
X030429Y026480D02*
X030516Y026393D01*
X030602Y026480D01*
X030602Y026740D01*
X030689Y026740D02*
X030429Y026740D01*
X030429Y026480D01*
X030429Y026137D02*
X030516Y026050D01*
X030862Y026050D01*
X030776Y025964D02*
X030776Y026137D01*
X030776Y026480D02*
X030776Y026654D01*
X030689Y026740D01*
X030949Y026909D02*
X030949Y026996D01*
X030429Y026996D01*
X030429Y027082D02*
X030429Y026909D01*
X029826Y027511D02*
X029826Y027685D01*
X029739Y027772D01*
X029652Y027772D01*
X029652Y027425D01*
X029566Y027425D02*
X029739Y027425D01*
X029826Y027511D01*
X029566Y027425D02*
X029479Y027511D01*
X029479Y027685D01*
X029479Y027940D02*
X029826Y027940D01*
X029826Y028200D01*
X029739Y028287D01*
X029479Y028287D01*
X029479Y028456D02*
X029826Y028456D01*
X029826Y028543D01*
X029739Y028629D01*
X029826Y028716D01*
X029739Y028803D01*
X029479Y028803D01*
X029479Y028629D02*
X029739Y028629D01*
X029739Y028971D02*
X029826Y029058D01*
X029826Y029232D01*
X029739Y029318D01*
X029652Y029318D01*
X029652Y028971D01*
X029566Y028971D02*
X029739Y028971D01*
X029566Y028971D02*
X029479Y029058D01*
X029479Y029232D01*
X029479Y029487D02*
X029826Y029487D01*
X029826Y029747D01*
X029739Y029834D01*
X029479Y029834D01*
X029566Y030089D02*
X029479Y030176D01*
X029566Y030089D02*
X029912Y030089D01*
X029826Y030003D02*
X029826Y030176D01*
X030776Y025621D02*
X030776Y025534D01*
X031379Y025018D02*
X031552Y025192D01*
X031726Y025192D01*
X031899Y025018D01*
X031726Y024850D02*
X031726Y024589D01*
X031639Y024503D01*
X031466Y024503D01*
X031379Y024589D01*
X031379Y024850D01*
X031036Y024675D02*
X030949Y024675D01*
X030776Y024675D02*
X030429Y024675D01*
X030429Y024589D02*
X030429Y024762D01*
X030516Y024420D02*
X030862Y024420D01*
X030949Y024333D01*
X030949Y024073D01*
X030429Y024073D01*
X030429Y024333D01*
X030516Y024420D01*
X030776Y024589D02*
X030776Y024675D01*
X031379Y024246D02*
X031552Y024073D01*
X031726Y024073D01*
X031899Y024246D01*
X029999Y024073D02*
X029479Y024073D01*
X029479Y024420D01*
X029479Y024589D02*
X029826Y024589D01*
X029826Y024849D01*
X029739Y024936D01*
X029479Y024936D01*
X029999Y025104D02*
X029999Y025191D01*
X029999Y024420D02*
X029999Y024073D01*
X029739Y024073D02*
X029739Y024246D01*
D11*
X026459Y023903D03*
X026459Y022903D03*
X026459Y021903D03*
X026459Y020903D03*
X026459Y019903D03*
X026459Y018903D03*
X026459Y017903D03*
X026459Y016903D03*
X026459Y015903D03*
X026459Y014903D03*
X026459Y013903D03*
X031709Y013353D03*
X031709Y012353D03*
X031709Y011353D03*
X031709Y010353D03*
X034709Y010353D03*
X034709Y011353D03*
X034709Y012353D03*
X034709Y013353D03*
X034709Y018453D03*
X034709Y019453D03*
X034709Y020453D03*
X034709Y021453D03*
X031709Y021453D03*
X031709Y020453D03*
X031709Y019453D03*
X031709Y018453D03*
X026459Y024903D03*
X026459Y025903D03*
X026459Y026903D03*
X020459Y026903D03*
X020459Y025903D03*
X019259Y025903D03*
X019259Y026903D03*
X019259Y024903D03*
X019259Y023903D03*
X019259Y022903D03*
X019259Y021903D03*
X019259Y020903D03*
X019259Y019903D03*
X020459Y019903D03*
X020459Y020903D03*
X020459Y021903D03*
X020459Y022903D03*
X020459Y023903D03*
X020459Y024903D03*
X016259Y024903D03*
X016259Y023903D03*
X016259Y022903D03*
X016259Y021903D03*
X016259Y020903D03*
X016259Y019903D03*
X015059Y019903D03*
X015059Y020903D03*
X015059Y021903D03*
X015059Y022903D03*
X015059Y023903D03*
X015059Y024903D03*
X015059Y025903D03*
X015059Y026903D03*
X016259Y026903D03*
X016259Y025903D03*
X009059Y025903D03*
X009059Y026903D03*
X009059Y024903D03*
X009059Y023903D03*
X009059Y022903D03*
X009059Y021903D03*
X009059Y020903D03*
X009059Y019903D03*
X009059Y018903D03*
X009059Y017903D03*
X009059Y016903D03*
X009059Y015903D03*
X009059Y014903D03*
X009059Y013903D03*
X009059Y012903D03*
X009059Y011903D03*
X009059Y010903D03*
X009059Y009903D03*
X009059Y008903D03*
X009059Y007903D03*
X007559Y004953D03*
X011559Y004953D03*
X015059Y007903D03*
X015059Y008903D03*
X015059Y009903D03*
X015059Y010903D03*
X015059Y011903D03*
X015059Y012903D03*
X015059Y013903D03*
X015059Y014903D03*
X015059Y015903D03*
X015059Y016903D03*
X015059Y017903D03*
X015059Y018903D03*
X016259Y018903D03*
X016259Y017903D03*
X019259Y017903D03*
X019259Y018903D03*
X020459Y018903D03*
X020459Y017903D03*
X020459Y016903D03*
X020459Y015903D03*
X020459Y014903D03*
X020459Y013903D03*
X024859Y008353D03*
X024859Y007353D03*
X024859Y006353D03*
X025459Y005353D03*
X022109Y006703D03*
X021459Y005353D03*
X018109Y006703D03*
D12*
X026659Y006503D03*
X026659Y002503D03*
X034709Y006353D03*
X035709Y006353D03*
X036709Y006353D03*
X037709Y006353D03*
X037709Y009353D03*
X036709Y009353D03*
X035709Y009353D03*
X034709Y009353D03*
X034209Y016653D03*
X035209Y016653D03*
X036209Y016653D03*
X032209Y016653D03*
X031209Y016653D03*
X034709Y022453D03*
X035709Y022453D03*
X036709Y022453D03*
X037709Y022453D03*
X037709Y025453D03*
X036709Y025453D03*
X035709Y025453D03*
X034709Y025453D03*
X006559Y004603D03*
X002559Y004603D03*
D13*
X003248Y020903D03*
X003248Y021403D03*
X003248Y021903D03*
X003248Y022403D03*
X003248Y022903D03*
X003248Y023403D03*
X003248Y023903D03*
X003248Y024403D03*
X003248Y024903D03*
X003248Y025403D03*
X003248Y025903D03*
X003248Y026403D03*
X003248Y026903D03*
X003248Y027403D03*
X006870Y027403D03*
X006870Y026903D03*
X006870Y026403D03*
X006870Y025903D03*
X006870Y025403D03*
X006870Y024903D03*
X006870Y024403D03*
X006870Y023903D03*
X006870Y023403D03*
X006870Y022903D03*
X006870Y022403D03*
X006870Y021903D03*
X006870Y021403D03*
X006870Y020903D03*
D14*
X006413Y008795D03*
X005626Y008795D03*
X005626Y007811D03*
X006413Y007811D03*
D15*
X038709Y004353D03*
X038709Y003353D03*
X038709Y002353D03*
X038709Y027653D03*
X038709Y028653D03*
X038709Y029653D03*
D16*
X037709Y029653D03*
X036709Y029653D03*
X035709Y029653D03*
X035709Y026653D03*
X036709Y026653D03*
X037709Y026653D03*
X036009Y021453D03*
X037159Y021153D03*
X038159Y021153D03*
X036009Y018453D03*
X036009Y013353D03*
X037409Y013353D03*
X037409Y010353D03*
X036009Y010353D03*
X031209Y009503D03*
X028209Y009503D03*
X034859Y005353D03*
X035809Y005353D03*
X036759Y005353D03*
X037709Y005353D03*
X037709Y002353D03*
X036759Y002353D03*
X035809Y002353D03*
X034859Y002353D03*
X024959Y004003D03*
X023959Y004003D03*
X022959Y004003D03*
X021959Y004003D03*
X017959Y002903D03*
X016809Y003503D03*
X016809Y004553D03*
X017959Y005903D03*
X013809Y004553D03*
X013809Y003503D03*
X010559Y003653D03*
X010559Y002603D03*
X007559Y002603D03*
X007559Y003653D03*
X004559Y003453D03*
X004559Y002453D03*
X002709Y012603D03*
X001659Y012603D03*
X004159Y014603D03*
X002709Y015603D03*
X001659Y015603D03*
X004159Y017603D03*
X005859Y017053D03*
X005859Y014053D03*
X001429Y023033D03*
X001429Y024033D03*
X001649Y024736D03*
X001649Y027736D03*
X004209Y029103D03*
X004209Y030103D03*
X010409Y030103D03*
X010409Y029103D03*
X014659Y029053D03*
X017659Y029053D03*
X019259Y029053D03*
X019259Y028053D03*
D17*
X005409Y018403D03*
X003609Y018903D03*
X022169Y007843D03*
X026484Y008528D03*
X037159Y019403D03*
D18*
X038159Y019403D03*
X027484Y008528D03*
X022169Y008843D03*
X005409Y019403D03*
X002609Y018903D03*
D19*
X006359Y029103D03*
X008259Y029103D03*
D20*
X019209Y002503D03*
X020209Y002503D03*
X027759Y002503D03*
X028759Y002503D03*
D21*
X038659Y011353D03*
X038659Y012353D03*
D22*
X028759Y006303D03*
D23*
X030759Y006303D03*
D24*
X024459Y002503D03*
X023459Y002503D03*
X022459Y002503D03*
D25*
X019209Y002503D02*
X018359Y002503D01*
X017959Y002903D01*
X015159Y005803D02*
X014759Y005403D01*
X013109Y005403D01*
X012359Y006153D01*
X012359Y006353D01*
X013159Y006353D02*
X013159Y006203D01*
X013559Y005803D01*
X014459Y005803D01*
X014859Y006203D01*
X016259Y006203D01*
X019759Y009703D01*
X028009Y009703D01*
X028209Y009503D01*
X028159Y010103D02*
X019559Y010103D01*
X016059Y006603D01*
X014559Y006603D01*
X014309Y006353D01*
X013959Y006353D01*
X013559Y007003D02*
X011159Y009403D01*
X008559Y009403D01*
X007809Y010153D01*
X007809Y011903D01*
X007109Y012603D01*
X007109Y018953D01*
X006609Y019453D02*
X006609Y010653D01*
X008359Y008903D01*
X009059Y008903D01*
X009659Y008403D02*
X008459Y008403D01*
X006413Y008795D02*
X006409Y008799D01*
X006409Y009003D01*
X005909Y009503D01*
X004109Y009503D01*
X003459Y010153D01*
X003459Y012903D01*
X003059Y013303D01*
X002359Y013303D01*
X001659Y012603D01*
X002709Y012603D02*
X002709Y009803D01*
X003709Y008803D01*
X005618Y008803D01*
X005626Y008795D01*
X008259Y010703D02*
X008259Y011103D01*
X008559Y011403D01*
X011709Y011403D01*
X013209Y012903D01*
X015059Y012903D01*
X015709Y012403D02*
X015909Y012603D01*
X015909Y013203D01*
X015709Y013403D01*
X012759Y013403D01*
X011759Y012403D01*
X008509Y012403D01*
X007609Y013303D01*
X007609Y018453D01*
X008109Y017953D02*
X008109Y016603D01*
X008809Y015903D01*
X009059Y015903D01*
X009059Y014903D02*
X009659Y014903D01*
X010159Y014403D01*
X009659Y013603D02*
X010759Y013603D01*
X011559Y014403D01*
X012359Y014403D02*
X012359Y013953D01*
X011309Y012903D01*
X009059Y012903D01*
X009659Y013603D02*
X009359Y013903D01*
X009059Y013903D01*
X009059Y011903D02*
X007809Y011903D01*
X009059Y010903D02*
X012159Y010903D01*
X012659Y010403D01*
X015709Y010403D01*
X017809Y012503D01*
X027259Y012503D01*
X028059Y013303D01*
X028059Y019803D01*
X026959Y020903D01*
X026459Y020903D01*
X026459Y019903D02*
X026959Y019903D01*
X027659Y019203D01*
X027659Y013453D01*
X027109Y012903D01*
X017559Y012903D01*
X015559Y010903D01*
X015059Y010903D01*
X015059Y009903D02*
X015909Y009903D01*
X018109Y012103D01*
X027409Y012103D01*
X028459Y013153D01*
X028459Y020403D01*
X026959Y021903D01*
X026459Y021903D01*
X026459Y022903D02*
X026959Y022903D01*
X028859Y021003D01*
X028859Y013003D01*
X027559Y011703D01*
X018359Y011703D01*
X015559Y008903D01*
X015059Y008903D01*
X015059Y007903D02*
X015559Y007903D01*
X018959Y011303D01*
X027709Y011303D01*
X029259Y012853D01*
X029259Y021603D01*
X026959Y023903D01*
X026459Y023903D01*
X026459Y024903D02*
X025909Y024903D01*
X025509Y025303D01*
X025509Y026153D01*
X025759Y026403D01*
X027059Y026403D01*
X027309Y026653D01*
X027309Y027253D01*
X026309Y028253D01*
X024559Y028253D01*
X023709Y029103D01*
X020559Y029103D01*
X020009Y028553D01*
X018809Y028553D01*
X018259Y028003D01*
X016859Y028003D01*
X016159Y028703D01*
X016159Y029453D01*
X015559Y030053D01*
X013709Y030053D01*
X011609Y027953D01*
X007909Y027953D01*
X007359Y027403D01*
X006870Y027403D01*
X006870Y026903D02*
X006409Y026903D01*
X005709Y027603D01*
X005109Y027603D01*
X004809Y027303D01*
X004809Y026603D01*
X005009Y026403D01*
X005359Y026403D01*
X005859Y025903D02*
X006870Y025903D01*
X006870Y026403D02*
X006309Y026403D01*
X005659Y027053D01*
X005359Y027053D01*
X004209Y027403D02*
X003248Y027403D01*
X003248Y026903D02*
X002481Y026903D01*
X001649Y027736D01*
X002016Y028103D01*
X007259Y028103D01*
X008259Y029103D01*
X010409Y029103D01*
X009059Y026903D02*
X012509Y026903D01*
X014659Y029053D01*
X016259Y026903D02*
X017459Y026903D01*
X017959Y026403D01*
X020959Y026403D01*
X024459Y022903D01*
X024459Y020403D01*
X025959Y018903D01*
X026459Y018903D01*
X026959Y018903D01*
X027259Y018603D01*
X027259Y013603D01*
X026959Y013303D01*
X021059Y013303D01*
X020459Y013903D01*
X020459Y014903D02*
X020959Y014903D01*
X022059Y016003D01*
X022059Y019303D01*
X020959Y020403D01*
X017959Y020403D01*
X017459Y020903D01*
X016259Y020903D01*
X015059Y020903D01*
X012259Y020903D01*
X011759Y020403D01*
X008559Y020403D01*
X008309Y020653D01*
X008309Y021153D01*
X008059Y021403D01*
X006870Y021403D01*
X006870Y020903D02*
X007759Y020903D01*
X008009Y020653D01*
X008009Y019953D01*
X008559Y019403D01*
X011759Y019403D01*
X012259Y019903D01*
X015059Y019903D01*
X016259Y019903D01*
X017459Y019903D01*
X017959Y019403D01*
X020959Y019403D01*
X021659Y018703D01*
X021659Y016603D01*
X020959Y015903D01*
X020459Y015903D01*
X020459Y016903D02*
X020959Y016903D01*
X021259Y017203D01*
X021259Y018103D01*
X020959Y018403D01*
X017959Y018403D01*
X017459Y018903D01*
X016259Y018903D01*
X015059Y018903D01*
X012259Y018903D01*
X011759Y018403D01*
X008459Y018403D01*
X006809Y020053D01*
X006159Y020053D01*
X005309Y020903D01*
X003248Y020903D01*
X003248Y021403D02*
X003509Y021403D01*
X002759Y021403D01*
X002509Y021153D01*
X002509Y020603D01*
X002909Y020203D01*
X004609Y020203D01*
X005409Y019403D01*
X005609Y019403D01*
X006159Y018853D01*
X006159Y017353D01*
X005859Y017053D01*
X004159Y017603D02*
X003609Y017603D01*
X002609Y018603D01*
X002609Y018903D01*
X002159Y019353D01*
X002159Y021753D01*
X002809Y022403D01*
X003248Y022403D01*
X003509Y022403D01*
X003509Y022903D02*
X003248Y022903D01*
X002759Y022903D01*
X001809Y021953D01*
X001809Y016503D01*
X002709Y015603D01*
X003159Y015603D01*
X004159Y014603D01*
X001659Y015603D02*
X001459Y015803D01*
X001459Y022153D01*
X002709Y023403D01*
X003248Y023403D01*
X003509Y023403D01*
X003509Y023903D02*
X003248Y023903D01*
X001649Y024736D02*
X001649Y025491D01*
X002561Y026403D01*
X003248Y026403D01*
X003248Y026903D02*
X003509Y026903D01*
X003509Y025403D02*
X003248Y025403D01*
X002859Y025403D01*
X001649Y024736D02*
X001164Y025221D01*
X001164Y028103D01*
X001564Y028503D01*
X005759Y028503D01*
X006359Y029103D01*
X004209Y029103D01*
X008309Y026153D02*
X008559Y026403D01*
X012809Y026403D01*
X012959Y026553D01*
X013909Y026553D01*
X015059Y025903D02*
X012259Y025903D01*
X011759Y025403D01*
X008559Y025403D01*
X008309Y025153D01*
X008309Y024653D01*
X008009Y024353D01*
X008009Y024153D01*
X007759Y023903D01*
X006870Y023903D01*
X007109Y023903D01*
X006870Y023403D02*
X007859Y023403D01*
X008309Y023853D01*
X008309Y024153D01*
X008559Y024403D01*
X011759Y024403D01*
X012259Y024903D01*
X015059Y024903D01*
X016259Y024903D01*
X017459Y024903D01*
X017959Y024403D01*
X020959Y024403D01*
X023659Y021703D01*
X023659Y019203D01*
X025959Y016903D01*
X026459Y016903D01*
X026459Y015903D02*
X025959Y015903D01*
X023259Y018603D01*
X023259Y021103D01*
X020959Y023403D01*
X017959Y023403D01*
X017459Y023903D01*
X016259Y023903D01*
X015059Y023903D01*
X012259Y023903D01*
X011759Y023403D01*
X008559Y023403D01*
X008059Y022903D01*
X006870Y022903D01*
X006870Y022403D02*
X011759Y022403D01*
X012259Y022903D01*
X015059Y022903D01*
X016259Y022903D01*
X017459Y022903D01*
X017959Y022403D01*
X020959Y022403D01*
X022859Y020503D01*
X022859Y018003D01*
X025959Y014903D01*
X026459Y014903D01*
X026459Y013903D02*
X025959Y013903D01*
X022459Y017403D01*
X022459Y019903D01*
X020959Y021403D01*
X017959Y021403D01*
X017459Y021903D01*
X016259Y021903D01*
X015059Y021903D01*
X012259Y021903D01*
X011759Y021403D01*
X008559Y021403D01*
X008059Y021903D01*
X006870Y021903D01*
X006359Y020453D02*
X005409Y021403D01*
X003509Y021403D01*
X006359Y020453D02*
X006909Y020453D01*
X008459Y018903D01*
X009059Y018903D01*
X009059Y017903D02*
X011059Y017903D01*
X013959Y015003D01*
X013959Y014403D01*
X013159Y014403D02*
X013159Y014803D01*
X011059Y016903D01*
X009059Y016903D01*
X013909Y017553D02*
X014559Y016903D01*
X015059Y016903D01*
X013909Y017553D02*
X013909Y018253D01*
X014059Y018403D01*
X017359Y018403D01*
X017859Y017903D01*
X019259Y017903D01*
X019259Y018903D02*
X020459Y018903D01*
X020459Y017903D02*
X020359Y017903D01*
X018859Y016403D01*
X017109Y014653D02*
X017109Y013103D01*
X015909Y011903D01*
X015059Y011903D01*
X015709Y012403D02*
X013659Y012403D01*
X012159Y010903D01*
X010759Y010403D02*
X008559Y010403D01*
X008259Y010703D01*
X010759Y010403D02*
X013759Y007403D01*
X015659Y007403D01*
X019159Y010903D01*
X027859Y010903D01*
X029659Y012703D01*
X029659Y022203D01*
X026959Y024903D01*
X026459Y024903D01*
X026459Y025903D02*
X026959Y025903D01*
X030059Y022803D01*
X030059Y012553D01*
X028009Y010503D01*
X019359Y010503D01*
X015859Y007003D01*
X013559Y007003D01*
X015159Y005803D02*
X017859Y005803D01*
X017959Y005903D01*
X013809Y004553D02*
X013809Y003503D01*
X013809Y004553D02*
X013059Y004553D01*
X011559Y006053D01*
X011559Y006353D01*
X010159Y006353D02*
X010159Y004053D01*
X010559Y003653D01*
X010559Y002603D01*
X023459Y008778D02*
X023484Y008778D01*
X023484Y009028D01*
X023734Y009278D01*
X026734Y009278D01*
X027484Y008528D01*
X026484Y008528D02*
X024859Y008528D01*
X024859Y008853D01*
X024859Y008528D02*
X024859Y008353D01*
X028159Y010103D02*
X030459Y012403D01*
X030459Y019503D01*
X031409Y020453D01*
X031709Y020453D01*
X034709Y019453D02*
X035009Y019453D01*
X036009Y018453D01*
X036009Y021453D02*
X035709Y021453D01*
X034709Y022453D01*
X035709Y025453D02*
X035709Y026653D01*
X036709Y026653D02*
X036709Y025453D01*
X037709Y027653D02*
X035709Y029653D01*
X036709Y029653D02*
X037709Y028653D01*
X038709Y028653D01*
X038709Y027653D02*
X037709Y027653D01*
X037709Y029653D02*
X038709Y029653D01*
X024859Y029003D02*
X024159Y029703D01*
X018309Y029703D01*
X017659Y029053D01*
X017459Y025903D02*
X016259Y025903D01*
X015059Y025903D01*
X017459Y025903D02*
X017959Y025403D01*
X020959Y025403D01*
X024059Y022303D01*
X024059Y019803D01*
X025959Y017903D01*
X026459Y017903D01*
X020459Y019903D02*
X019259Y019903D01*
X019259Y020903D02*
X020459Y020903D01*
X020459Y021903D02*
X019259Y021903D01*
X019259Y022903D02*
X020459Y022903D01*
X020459Y023903D02*
X019259Y023903D01*
X019259Y024903D02*
X020459Y024903D01*
X020459Y025903D02*
X019259Y025903D01*
X008309Y025653D02*
X008309Y026153D01*
X008309Y025653D02*
X008009Y025353D01*
X008009Y024853D01*
X007559Y024403D01*
X006870Y024403D01*
X030484Y011178D02*
X030484Y010028D01*
X031009Y009503D01*
X031209Y009503D01*
X030484Y011178D02*
X031659Y012353D01*
X031709Y012353D01*
X033909Y010353D02*
X034709Y010353D01*
X034709Y009353D02*
X035709Y010353D01*
X034709Y011353D01*
X035709Y010353D02*
X036009Y010353D01*
X037409Y010353D02*
X038409Y011353D01*
X038659Y011353D01*
X036709Y006353D02*
X036709Y005403D01*
X036759Y005353D01*
X036259Y004753D02*
X034309Y002803D01*
X034309Y002053D01*
X034559Y001803D01*
X035259Y001803D01*
X035809Y002353D01*
X036809Y003353D01*
X038709Y003353D01*
X038709Y002353D02*
X037709Y002353D01*
X036759Y002353D01*
X034859Y002353D02*
X036859Y004353D01*
X038709Y004353D01*
X037709Y005053D02*
X037409Y004753D01*
X036259Y004753D01*
X035809Y005353D02*
X035709Y005453D01*
X035709Y006353D01*
X034709Y006353D02*
X034709Y005503D01*
X034859Y005353D01*
X037709Y005353D02*
X037709Y005053D01*
D26*
X004559Y001153D02*
X000609Y001153D01*
X000609Y005653D01*
X000617Y005661D01*
X000609Y005653D02*
X000609Y007353D01*
X000617Y007361D01*
X000609Y007353D02*
X000609Y007803D01*
X000609Y007811D01*
X005626Y007811D01*
X006413Y007811D02*
X006413Y007307D01*
X006059Y006953D01*
X003309Y006953D01*
X002559Y006203D01*
X002559Y004603D01*
X004559Y003453D02*
X004559Y005928D01*
X006559Y004603D02*
X007559Y004603D01*
X007559Y004953D01*
X007559Y004603D02*
X007559Y003653D01*
X007559Y002603D02*
X007559Y001153D01*
X008509Y001153D01*
X008509Y007353D01*
X009059Y007903D01*
X009659Y008403D02*
X010859Y007203D01*
X010859Y005653D01*
X011559Y004953D01*
X011559Y004403D01*
X013259Y002703D01*
X014509Y002703D01*
X015309Y003503D01*
X015309Y004553D01*
X016009Y005253D01*
X018709Y005253D01*
X019009Y005553D01*
X019009Y006203D01*
X018559Y006653D01*
X018109Y006653D01*
X018109Y006703D01*
X018109Y006803D01*
X020159Y008853D01*
X022194Y008853D01*
X022194Y008843D01*
X022194Y008828D01*
X022194Y008853D02*
X023459Y008853D01*
X023459Y008778D01*
X023459Y007453D01*
X024559Y006353D01*
X023459Y006603D02*
X022209Y007853D01*
X022194Y007853D01*
X021179Y007853D01*
X020754Y008278D01*
X022169Y007843D02*
X022179Y007853D01*
X022194Y007853D01*
X022109Y006703D02*
X021459Y006053D01*
X021459Y005353D01*
X021459Y004553D01*
X016809Y004553D01*
X016809Y003503D02*
X016809Y001153D01*
X020209Y001153D01*
X020209Y002503D01*
X020209Y001153D02*
X028759Y001153D01*
X028759Y002503D01*
X027759Y002503D02*
X026659Y002503D01*
X024459Y002503D02*
X024459Y003503D01*
X024959Y004003D01*
X025459Y004503D01*
X025459Y005353D01*
X025709Y005353D01*
X026659Y006303D01*
X028759Y006303D01*
X027984Y007528D02*
X025034Y007528D01*
X024859Y007353D01*
X023459Y006603D02*
X023459Y004903D01*
X023459Y004953D01*
X023459Y004903D02*
X023459Y004003D01*
X023459Y002503D01*
X023459Y001353D01*
X032309Y001353D01*
X032309Y009853D01*
X032509Y010053D01*
X032509Y020803D01*
X032509Y021753D01*
X032309Y021953D01*
X032309Y030453D01*
X000809Y030453D01*
X000809Y001353D01*
X023459Y001353D01*
X022459Y002503D02*
X022459Y003503D01*
X021959Y004003D01*
X021459Y004503D01*
X021459Y004553D01*
X022959Y004003D02*
X023459Y004003D01*
X023959Y004003D01*
X026659Y006303D02*
X026659Y006503D01*
X027984Y007528D02*
X029484Y009028D01*
X029484Y010778D01*
X030859Y012153D01*
X030859Y016303D01*
X031209Y016653D01*
X031209Y017953D01*
X031709Y018453D01*
X031709Y019453D01*
X032509Y020803D02*
X032509Y016653D01*
X032209Y016653D01*
X032509Y016653D02*
X032509Y011353D01*
X032509Y006303D01*
X030759Y006303D01*
X032509Y006303D02*
X032509Y001153D01*
X028759Y001153D01*
X033909Y001153D02*
X040009Y001153D01*
X040009Y012353D01*
X038659Y012353D01*
X040009Y012353D02*
X040009Y030653D01*
X033909Y030653D01*
X033909Y021753D01*
X034109Y021953D01*
X034109Y030453D01*
X034059Y030453D01*
X034109Y030453D02*
X039809Y030453D01*
X039809Y001353D01*
X034109Y001353D01*
X034109Y001603D01*
X033909Y001803D01*
X033909Y003103D01*
X034109Y003303D01*
X034109Y009853D01*
X033909Y010053D01*
X033909Y010353D01*
X033909Y016653D01*
X034209Y016653D01*
X033909Y016653D02*
X033909Y020453D01*
X033909Y021753D01*
X032509Y021453D02*
X032509Y020803D01*
X032509Y021453D02*
X031709Y021453D01*
X032509Y021453D02*
X032509Y030653D01*
X016759Y030653D01*
X016759Y028953D01*
X017259Y028453D01*
X017959Y028453D01*
X018559Y029053D01*
X019259Y029053D01*
X019259Y028053D02*
X019259Y027503D01*
X019259Y026903D01*
X019259Y027503D02*
X023459Y027503D01*
X023459Y028253D01*
X023459Y027503D02*
X025859Y027503D01*
X026459Y026903D01*
X019259Y027503D02*
X015659Y027503D01*
X015659Y029153D01*
X015159Y029653D01*
X014009Y029653D01*
X011859Y027503D01*
X008409Y027503D01*
X007609Y026703D01*
X007609Y025103D01*
X007409Y024903D01*
X006870Y024903D01*
X005309Y024903D01*
X005309Y025403D01*
X004809Y025903D01*
X003248Y025903D01*
X002641Y025903D01*
X002174Y025436D01*
X002174Y024363D01*
X001844Y024033D01*
X001429Y024033D01*
X001429Y023033D02*
X001426Y023031D01*
X000609Y023031D01*
X000609Y030653D01*
X004209Y030653D01*
X004209Y030103D01*
X004209Y030653D02*
X010409Y030653D01*
X010409Y030103D01*
X010409Y030653D02*
X016759Y030653D01*
X015659Y027503D02*
X015059Y026903D01*
X005309Y024903D02*
X004809Y024403D01*
X003248Y024403D01*
X003248Y024903D02*
X002559Y024903D01*
X002559Y023903D01*
X001686Y023031D01*
X001426Y023031D01*
X000609Y023031D02*
X000609Y021958D01*
X000614Y021958D01*
X000609Y021958D02*
X000609Y013853D01*
X004409Y013853D01*
X005009Y014453D01*
X005009Y018403D01*
X005409Y018403D01*
X005009Y018403D02*
X004509Y018903D01*
X003609Y018903D01*
X003909Y021903D02*
X003248Y021903D01*
X003909Y021903D02*
X004209Y022203D01*
X004209Y023603D01*
X003909Y023903D01*
X003509Y023903D01*
X002559Y023903D01*
X002559Y024903D02*
X002559Y025103D01*
X002859Y025403D01*
X016259Y017903D02*
X016259Y017403D01*
X019009Y014653D01*
X019759Y013903D01*
X020459Y013903D01*
X031709Y011353D02*
X032509Y011353D01*
X033909Y010053D02*
X033909Y006353D01*
X033909Y003103D01*
X033909Y001803D02*
X033909Y001153D01*
X034059Y001353D02*
X034109Y001353D01*
X033909Y006353D02*
X034709Y006353D01*
X036709Y008353D02*
X037709Y007353D01*
X037709Y006353D01*
X036709Y008353D02*
X036709Y009353D01*
X036709Y013353D01*
X036009Y013353D01*
X036009Y016453D01*
X036209Y016653D01*
X038159Y018603D01*
X038159Y019403D01*
X038159Y021153D01*
X038609Y021603D01*
X038609Y026553D01*
X037909Y027253D01*
X035409Y027253D01*
X034709Y026553D01*
X034709Y025453D01*
X037709Y025453D02*
X037709Y022453D01*
X036709Y022453D01*
X036709Y021603D01*
X037159Y021153D01*
X037159Y020453D01*
X034709Y020453D01*
X033909Y020453D01*
X035709Y022453D02*
X036709Y022453D01*
X037159Y020453D02*
X037159Y019403D01*
X037409Y013353D02*
X036709Y013353D01*
X036009Y013353D02*
X034709Y013353D01*
X034709Y012353D01*
X035709Y009353D02*
X036709Y009353D01*
X016809Y001153D02*
X008509Y001153D01*
X007559Y001153D02*
X004559Y001153D01*
X004559Y002453D01*
X000609Y007803D02*
X000609Y013853D01*
X005859Y014053D02*
X005859Y010503D01*
X007959Y008403D01*
X008459Y008403D01*
X037709Y025453D02*
X037709Y026653D01*
D27*
X024859Y029003D03*
X023459Y028253D03*
X013909Y026553D03*
X005859Y025903D03*
X005359Y026403D03*
X005359Y027053D03*
X004209Y027403D03*
X006609Y019453D03*
X007109Y018953D03*
X007609Y018453D03*
X008109Y017953D03*
X010159Y014403D03*
X011559Y014403D03*
X012359Y014403D03*
X013159Y014403D03*
X013959Y014403D03*
X017109Y014653D03*
X019009Y014653D03*
X018859Y016403D03*
X013909Y018253D03*
X023459Y008853D03*
X024859Y008853D03*
X020754Y008278D03*
X013959Y006353D03*
X013159Y006353D03*
X012359Y006353D03*
X011559Y006353D03*
X010159Y006353D03*
D28*
X004559Y005928D03*
X004559Y010678D03*
M02*
